<svg width="371" height="187" viewBox="0 0 371 187" fill="none" xmlns="http://www.w3.org/2000/svg">
<path d="M370.11 0.661865H-4.88574V187H370.11V0.661865Z" fill="url(#paint0_linear_5268_3268)"/>
<path d="M135.247 52.2783C134.215 54.1418 130.706 56.4547 129.08 57.3783C131.291 56.6784 135.96 55.051 136.95 54.1398C137.941 53.2285 140.167 53.0862 141.156 53.129C141.793 52.1627 143.422 50.2455 144.846 50.3071C146.271 50.3686 150.704 47.7776 152.742 46.4744C147.342 48.6357 143.79 47.9919 142.575 47.8238C141.163 47.6284 140.279 50.5079 140.021 51.8884C138.859 51.2419 136.279 50.4148 135.247 52.2783Z" fill="#272323"/>
<path d="M160.18 23.768C159.329 25.2153 156.427 27.0068 155.082 27.7217C156.912 27.1821 160.777 25.9264 161.595 25.2197C162.414 24.5131 164.258 24.4073 165.078 24.4427C165.603 23.6925 166.948 22.2047 168.128 22.2557C169.309 22.3067 172.976 20.3009 174.662 19.2917C170.193 20.9611 167.248 20.4525 166.241 20.3191C165.071 20.1639 164.345 22.4019 164.134 23.4752C163.171 22.9697 161.031 22.3207 160.18 23.768Z" fill="#272323"/>
<path d="M220.112 43.1082C212.145 41.2683 206.375 46.2052 204.694 48.0839C199.112 51.7167 175.849 53.2921 164.915 53.6257C174.485 53.9772 193.817 54.6795 194.589 54.6764L201.343 54.6492C202.873 55.189 204.536 57.6125 207.147 58.1357C211.174 58.9429 211.225 52.5036 217.022 54.5862C222.82 56.6688 227.636 54.5435 231.02 56.1679C234.403 57.7922 243.566 56.8194 249.587 54.4553C254.403 52.564 278.124 52.7807 289.382 53.1254C280.456 52.8493 261.59 52.0672 257.534 51.1475C252.463 49.998 247.395 49.3164 242.078 46.7639C236.761 44.2114 234.118 46.7959 230.982 46.8085C227.846 46.8211 228.08 44.948 220.112 43.1082Z" fill="white" fill-opacity="0.62"/>
<path d="M220.112 43.1082C212.145 41.2683 206.375 46.2052 204.694 48.0839C199.112 51.7167 175.849 53.2921 164.915 53.6257C174.485 53.9772 193.817 54.6795 194.589 54.6764L201.343 54.6492C202.873 55.189 204.536 57.6125 207.147 58.1357C211.174 58.9429 211.225 52.5036 217.022 54.5862C222.82 56.6688 227.636 54.5435 231.02 56.1679C234.403 57.7922 243.566 56.8194 249.587 54.4553C254.403 52.564 278.124 52.7807 289.382 53.1254C280.456 52.8493 261.59 52.0672 257.534 51.1475C252.463 49.998 247.395 49.3164 242.078 46.7639C236.761 44.2114 234.118 46.7959 230.982 46.8085C227.846 46.8211 228.08 44.948 220.112 43.1082Z" fill="white" fill-opacity="0.26"/>
<circle cx="298.991" cy="27.7216" r="20.4928" transform="rotate(2.47471 298.991 27.7216)" fill="#FFEC9F"/>
<path d="M369.975 119.496C369.975 119.496 354.983 102.672 291.815 102.129C228.648 101.585 211.097 107.557 170.487 91.8163C129.876 76.076 84.3111 57.6248 -4.88574 78.2496C-4.88574 79.0513 -4.88574 166.714 -4.88574 166.714H369.975V119.496Z" fill="url(#paint1_linear_5268_3268)"/>
<path d="M42.5049 132.556L42.1143 134.131H60.4144L60.2231 133.456L56.253 132.273L55.9739 130.131L59.5335 131.038L57.2216 122.919L54.523 121.732L54.1882 120.532L56.7632 121.306L54.1204 112.038L52.4622 111.363V109.825L53.5823 110.152L50.6485 99.8571L49.8313 103.138L50.3974 102.824L50.0626 103.85L49.5125 104.423L48.7391 107.53L50.0626 106.796L49.7875 107.608L48.5239 108.403L46.6744 115.816L48.6156 114.868V115.922L46.4193 116.853L46.1083 118.101L48.1134 117.374L47.8901 117.995L45.937 118.776L44.3664 125.081L46.495 123.925V126.241L43.7087 127.731L43.0151 130.517L46.2718 128.771V130.551L42.5049 132.556Z" fill="url(#paint2_linear_5268_3268)"/>
<path d="M78.2165 135.577H79.52L79.4283 131.103H88.4728L88.1578 130.002L84.1877 128.819L83.9087 126.677L87.4683 127.584L85.1563 119.465L82.4578 118.278L82.1229 117.078L84.6979 117.852L82.0552 108.583L80.3969 107.908V106.374L81.517 106.698L78.5832 96.4027L77.7661 99.6832L78.3321 99.3694L77.9973 100.396L77.4472 100.969L76.6739 104.079L77.9973 103.342L77.7183 104.154L76.4547 104.948L74.6091 112.362L76.5503 111.414V112.467L74.354 113.398L74.0391 114.646L76.0481 113.92L75.8249 114.541L73.8717 115.322L72.3011 121.627L74.4298 120.471V122.79L71.6435 124.28L70.9499 127.066L74.2065 125.32V127.096L70.4397 129.102L69.9414 131.103H78.2524L78.2165 135.577Z" fill="url(#paint3_linear_5268_3268)"/>
<path d="M93.256 135.577H94.4797L94.4479 134.005H103.488L103.173 132.904L99.2033 131.72L98.9242 129.579L102.488 130.486L100.172 122.367L97.4773 121.18L97.1425 119.976L99.7135 120.754L97.0707 111.485L95.4125 110.81V109.272L96.5326 109.599L93.6028 99.3046L92.7856 102.585L93.3517 102.271L93.0169 103.298L92.4628 103.871L91.6895 106.977L93.0169 106.241L92.7378 107.056L91.4743 107.85L89.6287 115.264L91.5659 114.316V115.366L89.3696 116.3L89.0587 117.548L91.0637 116.822L90.8404 117.443L88.8912 118.223L87.3207 124.529L89.4493 123.373V125.688L86.659 127.178L85.9654 129.964L89.2261 128.218V129.998L85.4592 132.003L84.9609 134.005H93.272L93.256 135.577Z" fill="url(#paint4_linear_5268_3268)"/>
<path d="M96.8476 128.433L96.5008 127.219L92.1241 125.917L91.8172 123.553L95.7395 124.553L93.1923 115.605L90.2187 114.299L89.852 112.972L92.6861 113.828L89.7723 103.611L87.9466 102.868V101.173L89.1823 101.535L85.9496 90.1862L85.0488 93.8042L85.6706 93.4564L85.3038 94.5885L84.694 95.2194L83.841 98.6465L85.3038 97.8349L84.9969 98.7283L83.6018 99.6047L81.5689 107.779L83.7055 106.732V107.891L81.2819 108.918L80.9391 110.295L83.1514 109.494L82.9082 110.179L80.7557 111.039L79.0257 117.988L81.3696 116.713V119.267L78.2963 120.911L77.5349 123.98L81.1264 122.056V124.017L76.9729 126.227L76.4229 128.433H85.5829L85.5311 134.899H87.0139L86.8824 128.433H96.8476Z" fill="url(#paint5_linear_5268_3268)"/>
<path d="M56.6516 130.953L56.0537 133.357H82.6449L82.334 132.259L76.5741 130.544L76.1715 127.437L81.3335 128.754L77.9812 116.982L74.0708 115.267L73.5846 113.524L77.3155 114.646L73.4849 101.214L71.0813 100.232V98.0053L72.7076 98.4793L68.4545 83.557L67.2705 88.3106L68.0917 87.8571L67.6054 89.3438L66.8082 90.1725L65.6841 94.6806L67.6054 93.6132L67.2028 94.7897L65.3692 95.9422L62.6945 106.691L65.5047 105.316V106.841L62.3198 108.191L61.8694 110.002L64.7792 108.948L64.4564 109.848L61.6263 110.977L59.3502 120.119L62.4354 118.442V121.801L58.3935 123.963L57.3851 128L62.1126 125.47V128.048L56.6516 130.953Z" fill="url(#paint6_linear_5268_3268)"/>
<path d="M53.2193 134.159L53.0918 134.595H66.2579L65.9868 133.507L63.2723 132.065V130.783L65.6201 132.041L65.1219 130.032L63.1129 128.958V127.287L64.6475 128.123L63.5154 123.577L62.1083 123.015L61.9489 122.568L63.3919 123.09L63.1687 122.189L61.5861 121.517V120.76L62.9813 121.442L61.6539 116.099L60.7411 115.526L60.5418 114.943L61.4945 115.472L60.9365 113.231L60.5418 112.818L60.2986 112.079L60.7092 112.307L60.1193 109.94L58.0026 117.361L58.8118 117.125V118.234L57.616 118.721L55.7146 125.402L57.5682 124.842L57.325 125.708L55.3838 126.564L53.7136 132.416L56.2807 131.761L56.0814 133.306L53.2193 134.159Z" fill="url(#paint7_linear_5268_3268)"/>
<path d="M86.4518 135.577H87.3328L87.3248 134.537H93.3119L92.9532 133.095L90.2386 131.649V130.367L92.5864 131.625L92.0882 129.616L90.0792 128.542V126.875L91.6138 127.707L90.4818 123.161L89.0747 122.598L88.9113 122.152L90.3582 122.677L90.135 121.777L88.5525 121.105V120.344L89.9476 121.03L88.6163 115.686L87.7074 115.113L87.5081 114.527L88.4608 115.059L87.9028 112.815L87.5081 112.406L87.265 111.666L87.6716 111.891L87.0856 109.528L84.969 116.945L85.7782 116.713V117.818L84.5824 118.305L82.681 124.986L84.5345 124.426L84.2914 125.292L82.3462 126.148L80.68 132L83.247 131.349L83.0477 132.89L80.1817 133.743L79.9585 134.537H86.4758L86.4518 135.577Z" fill="url(#paint8_linear_5268_3268)"/>
<path d="M-4.88232 160.157C-4.88232 160.157 10.1134 132.925 73.305 132.045C136.497 131.165 154.051 140.831 194.678 115.353C235.304 89.877 280.885 60.0081 370.114 93.3902V187H-4.88232V160.154V160.157Z" fill="url(#paint9_linear_5268_3268)"/>
<path d="M259.659 114.089L259.141 116.176H283.42L283.169 115.283L277.899 113.714L277.528 110.87L282.252 112.074L279.183 101.302L275.607 99.7296L275.161 98.1337L278.573 99.1636L275.069 86.867L272.869 85.9701V83.9309L274.356 84.364L270.465 70.7068L269.381 75.058L270.13 74.642L269.688 76.0026L268.954 76.763L267.93 80.8857L269.688 79.9105L269.317 80.9881L267.643 82.0418L265.192 91.8797L267.763 90.6214V92.0161L264.849 93.254L264.438 94.9112L267.097 93.9462L266.802 94.7715L264.215 95.8047L262.13 104.169L264.952 102.638V105.711L261.253 107.689L260.332 111.385L264.657 109.07V111.429L259.659 114.089Z" fill="url(#paint10_linear_5268_3268)"/>
<path d="M307.041 118.099H308.771L308.647 112.163H320.645L320.227 110.703L314.961 109.131L314.59 106.29L319.314 107.491L316.245 96.7185L312.665 95.1465L312.223 93.5506L315.635 94.5804L312.131 82.2838L309.931 81.387V79.3512L311.418 79.7808L307.527 66.1237L306.443 70.4749L307.192 70.0588L306.75 71.4228L306.016 72.1799L304.992 76.306L306.75 75.3273L306.379 76.4049L304.701 77.462L302.253 87.2966L304.825 86.0383V87.4364L301.911 88.6708L301.496 90.3281L304.159 89.3664L303.864 90.1883L301.277 91.2215L299.192 99.5898L302.014 98.0553V101.128L298.315 103.106L297.394 106.802L301.719 104.487V106.846L296.721 109.506L296.059 112.163H307.085L307.041 118.099Z" fill="url(#paint11_linear_5268_3268)"/>
<path d="M326.995 118.1H328.614L328.57 116.009H340.568L340.154 114.55L334.884 112.981L334.513 110.137L339.237 111.341L336.167 100.569L332.592 98.9965L332.145 97.4006L335.558 98.4304L332.054 86.1338L329.853 85.237V83.1978L331.34 83.6309L327.45 69.9736L326.366 74.3248L327.115 73.9088L326.673 75.2694L325.939 76.0299L324.915 80.1526L326.673 79.1774L326.302 80.2549L324.628 81.3086L322.176 91.1466L324.751 89.8883V91.283L321.833 92.5208L321.423 94.1781L324.082 93.2131L323.787 94.0383L321.2 95.0715L319.115 103.436L321.937 101.905V104.978L318.238 106.956L317.317 110.652L321.642 108.337V110.696L316.644 113.356L315.986 116.009H327.011L326.995 118.1Z" fill="url(#paint12_linear_5268_3268)"/>
<path d="M331.755 108.616L331.297 107.01L325.489 105.278L325.082 102.147L330.288 103.471L326.904 91.6002L322.962 89.8645L322.471 88.1083L326.234 89.2404L322.372 75.6889L319.944 74.7V72.4528L321.587 72.9302L317.298 57.8783L316.102 62.6728L316.931 62.2159L316.441 63.7163L315.635 64.5518L314.503 69.0973L316.441 68.0232L316.034 69.2098L314.184 70.3727L311.486 81.2132L314.32 79.8287V81.3666L311.107 82.7272L310.653 84.555L313.586 83.4911L313.26 84.3982L310.406 85.5405L308.11 94.7613L311.223 93.0699V96.4595L307.145 98.6385L306.132 102.71L310.896 100.159V102.761L305.387 105.69L304.662 108.616H316.811L316.743 117.196H318.709L318.533 108.616H331.755Z" fill="url(#paint13_linear_5268_3268)"/>
<path d="M278.426 111.961L277.633 115.153H312.914L312.499 113.694L304.862 111.419L304.328 107.3L311.176 109.042L306.723 93.4278L301.537 91.15L300.896 88.8379L305.842 90.3281L300.764 72.5039L297.571 71.2047V68.2515L299.728 68.8756L294.087 49.0803L292.517 55.3889L293.605 54.7853L292.963 56.7597L291.899 57.8578L290.412 63.8355L292.963 62.4204L292.425 63.9822L289.994 65.5133L286.446 79.7707L290.173 77.9463V79.9718L285.948 81.7621L285.35 84.1628L289.208 82.7681L288.782 83.9616L285.027 85.4586L282.006 97.5881L286.099 95.3648V99.8183L280.738 102.686L279.403 108.043L285.669 104.688V108.108L278.426 111.961Z" fill="url(#paint14_linear_5268_3268)"/>
<path d="M273.873 116.214L273.706 116.793H291.173L290.814 115.354L287.21 113.438V111.736L290.328 113.404L289.666 110.741L286.999 109.315V107.099L289.032 108.207L287.533 102.175L285.668 101.428L285.453 100.838L287.37 101.53L287.075 100.337L284.974 99.4466V98.4406L286.828 99.3443L285.062 92.2548L283.854 91.4944L283.587 90.7203L284.855 91.4228L284.113 88.4492L283.587 87.9036L283.268 86.9215L283.806 87.2216L283.025 84.0844L280.223 93.9291L281.295 93.6154V95.0851L279.709 95.7331L277.181 104.596L279.641 103.852L279.322 105.005L276.743 106.137L274.531 113.902L277.935 113.036L277.668 115.085L273.873 116.214Z" fill="url(#paint15_linear_5268_3268)"/>
<path d="M317.968 118.099H319.131L319.12 116.718H327.068L326.589 114.802L322.99 112.885V111.187L326.107 112.855L325.441 110.192L322.775 108.766V106.55L324.812 107.654L323.309 101.626L321.443 100.879L321.228 100.285L323.149 100.981L322.851 99.7875L320.75 98.8941V97.8882L322.603 98.7952L320.838 91.7058L319.63 90.9453L319.363 90.1678L320.63 90.8737L319.893 87.9001L319.363 87.3511L319.044 86.3725L319.586 86.6725L318.805 83.5353L315.998 93.3801L317.071 93.0664V94.5361L315.484 95.184L312.957 104.047L315.416 103.303L315.098 104.456L312.519 105.588L310.306 113.353L313.714 112.487L313.447 114.533L309.649 115.665L309.35 116.718H317.995L317.968 118.099Z" fill="url(#paint16_linear_5268_3268)"/>
<path d="M-4.88232 163.924C-4.88232 163.924 10.1134 143.377 73.305 142.715C136.497 142.053 154.051 160.386 194.678 141.165C235.304 121.944 280.885 99.4086 370.114 124.594V186.327H-4.88232V163.927V163.924Z" fill="url(#paint17_linear_5268_3268)"/>
<path d="M191.605 166.642C203.38 167.226 211.947 165.756 214.446 165.195C222.726 164.119 257.151 163.726 273.328 163.665C259.174 163.525 230.579 163.244 229.437 163.242L219.445 163.226C217.185 163.057 214.741 162.32 210.882 162.153C204.93 161.895 204.813 163.838 196.25 163.189C187.686 162.54 180.548 163.164 175.553 162.662C170.558 162.159 156.998 162.42 148.075 163.112C140.937 163.666 105.847 163.516 89.1947 163.371C102.398 163.487 130.303 163.79 136.298 164.082C143.791 164.447 151.284 164.671 159.134 165.46C166.983 166.249 170.91 165.479 175.549 165.486C180.188 165.494 179.83 166.058 191.605 166.642Z" fill="#632626" fill-opacity="0.35"/>
<path d="M246.657 131.855L119.139 132.292L119.203 151.068L246.721 150.632L246.657 131.855Z" fill="#8D7F52"/>
<g opacity="0.5">
<path d="M246.656 131.855L119.138 132.291L119.202 151.068L246.721 150.631L246.656 131.855Z" fill="black"/>
</g>
<path d="M137.207 163.191C143.981 162.71 149.084 156.81 148.605 150.012C148.126 143.214 142.246 138.093 135.472 138.574C128.698 139.055 123.595 144.955 124.074 151.753C124.553 158.551 130.433 163.672 137.207 163.191Z" fill="#171C1F"/>
<path d="M124.045 150.715C124.045 150.715 124.045 150.736 124.045 150.748C123.97 157.561 129.416 163.147 136.205 163.221C142.995 163.297 148.561 157.832 148.637 151.019C148.637 151.007 148.637 150.998 148.637 150.986L124.05 150.715L124.045 150.715Z" fill="#171C1F"/>
<path d="M127.707 150.789C127.655 155.573 131.477 159.494 136.244 159.547C141.011 159.6 144.919 155.765 144.971 150.981C145.024 146.197 141.202 142.276 136.435 142.223C131.668 142.17 127.76 146.005 127.707 150.789Z" fill="#FAFAFA"/>
<path d="M136.434 142.222C131.667 142.169 127.759 146.004 127.706 150.788L144.97 150.978C145.023 146.194 141.201 142.273 136.434 142.22L136.434 142.222Z" fill="#E0E0E0"/>
<path d="M131.081 150.825C131.05 153.738 133.377 156.127 136.282 156.161C139.185 156.192 141.568 153.857 141.599 150.942C141.631 148.028 139.303 145.638 136.398 145.606C133.495 145.575 131.115 147.91 131.081 150.825Z" fill="#171C1F"/>
<path d="M231.124 162.865C237.902 162.447 243.059 156.594 242.642 149.792C242.226 142.99 236.393 137.815 229.615 138.233C222.837 138.651 217.679 144.503 218.096 151.305C218.513 158.107 224.345 163.283 231.124 162.865Z" fill="#171C1F"/>
<path d="M218.072 150.393C218.072 150.393 218.072 150.413 218.072 150.425C217.997 157.238 223.442 162.824 230.232 162.898C237.022 162.974 242.588 157.509 242.664 150.696C242.664 150.684 242.664 150.675 242.664 150.664L218.077 150.393L218.072 150.393Z" fill="#171C1F"/>
<path d="M221.733 150.466C221.68 155.25 225.502 159.171 230.269 159.224C235.036 159.277 238.944 155.442 238.997 150.658C239.049 145.875 235.227 141.953 230.46 141.9C225.693 141.847 221.785 145.682 221.733 150.466Z" fill="#FAFAFA"/>
<path d="M230.461 141.901C225.694 141.848 221.786 145.683 221.733 150.466L238.997 150.657C239.05 145.873 235.228 141.951 230.461 141.898L230.461 141.901Z" fill="#E0E0E0"/>
<path d="M225.107 150.503C225.075 153.416 227.403 155.804 230.308 155.838C233.211 155.87 235.593 153.534 235.625 150.619C235.656 147.706 233.329 145.315 230.423 145.283C227.52 145.252 225.14 147.587 225.107 150.503Z" fill="#171C1F"/>
<path d="M152.357 121.615C152.357 121.615 134.255 123.017 127.549 124.551C122.822 125.633 113.709 127.5 113.839 133.258L114.577 137.382C114.577 137.382 111.199 138.944 111.213 142.901C111.226 146.859 110.422 152.999 118.318 153.217C119.619 153.254 122.092 153.204 122.092 153.204C122.092 153.204 120.517 136.333 135.967 135.784C151.684 135.228 150.701 152.951 150.701 152.951L216.301 152.727C216.301 152.727 213.551 135.473 230.471 135.392C247.392 135.309 244.877 152.742 244.877 152.742C244.877 152.742 251.103 153.261 253.981 148.001C256.859 142.742 256.092 139.008 256.092 139.008L255.985 135.69C255.949 134.56 255.044 133.652 253.92 133.612C253.92 133.612 255.023 125.252 253.282 123.812C251.542 122.371 242.004 113.681 242.004 113.681L242.456 113.394C243.213 112.914 243.078 111.766 242.229 111.476C238.614 110.242 231.466 107.801 229.787 107.219C229.533 107.132 229.274 107.078 229.007 107.058C228.004 106.985 225.17 106.813 219.964 106.775C213.623 106.73 188.446 106.883 188.446 106.883C188.446 106.883 179.784 107.628 174.965 109.778C169.898 112.037 152.359 121.615 152.359 121.615L152.357 121.615Z" fill="white"/>
<g opacity="0.4">
<path d="M115.801 142.426C115.143 142.294 114.136 142.284 113.637 142.733C113.265 143.067 113.168 143.602 113.115 144.1C113.039 144.781 113.003 145.48 113.168 146.146C113.331 146.812 113.722 147.447 114.323 147.773C114.924 148.098 115.749 148.042 116.214 147.54C116.639 147.082 116.685 146.395 116.672 145.767C116.653 144.877 116.721 144.123 116.555 143.249C116.522 143.083 116.434 142.871 116.328 142.743C116.153 142.531 116.019 142.441 115.803 142.428" fill="black"/>
</g>
<path d="M114.577 137.382C116.498 137.38 118.364 137.263 120.281 137.127C120.487 137.113 120.713 137.089 120.864 136.948C121.047 136.776 121.06 136.495 121.061 136.244C121.067 135.21 121.012 134.034 120.229 133.363C119.749 132.954 119.094 132.828 118.468 132.77C116.926 132.63 115.308 132.755 113.839 133.254L114.577 137.377L114.577 137.382Z" fill="#FAFAFA"/>
<path d="M154.543 152.41C154.543 152.41 154.535 152.355 154.526 152.247C154.519 152.134 154.507 151.972 154.492 151.763C154.468 151.334 154.431 150.706 154.385 149.902C154.336 149.095 154.28 148.105 154.161 146.962C154.037 145.82 153.858 144.52 153.47 143.129C153.079 141.739 152.483 140.26 151.605 138.808C150.722 137.367 149.563 135.927 148.015 134.816C144.904 132.613 140.71 131.375 136.329 131.337C131.934 131.299 127.765 132.706 124.751 135.039C123.229 136.181 121.969 137.514 121.002 138.906C120.025 140.293 119.313 141.719 118.814 143.072C118.309 144.425 118.044 145.715 117.896 146.851C117.735 147.988 117.763 148.982 117.794 149.789C117.858 150.594 117.932 151.219 118.025 151.634C118.063 151.841 118.093 152 118.112 152.111C118.131 152.219 118.138 152.274 118.138 152.274C118.138 152.274 118.124 152.221 118.1 152.113C118.077 152.002 118.044 151.843 118 151.638C117.9 151.224 117.819 150.599 117.745 149.792C117.708 148.985 117.673 147.986 117.827 146.844C117.97 145.702 118.228 144.407 118.731 143.044C119.23 141.684 119.94 140.247 120.919 138.851C121.889 137.45 123.153 136.105 124.684 134.954C127.715 132.603 131.911 131.181 136.331 131.219C140.737 131.259 144.95 132.504 148.081 134.729C149.643 135.853 150.807 137.307 151.692 138.757C152.572 140.219 153.168 141.709 153.555 143.105C153.941 144.506 154.113 145.811 154.23 146.955C154.344 148.1 154.393 149.09 154.433 149.899C154.47 150.706 154.497 151.331 154.517 151.762C154.527 151.972 154.535 152.134 154.54 152.247C154.545 152.355 154.543 152.413 154.543 152.413L154.543 152.41Z" fill="white"/>
<path d="M155.24 152.694C155.24 152.694 155.235 152.648 155.232 152.556C155.23 152.461 155.222 152.325 155.217 152.147C155.204 151.785 155.186 151.25 155.163 150.554C155.12 149.156 155.053 147.108 154.97 144.507C154.89 141.903 154.794 138.742 154.683 135.121C154.655 134.215 154.626 133.281 154.598 132.319C154.564 131.839 154.613 131.348 154.655 130.854C154.688 130.607 154.722 130.36 154.758 130.111C154.808 129.864 154.857 129.617 154.907 129.366C155.136 128.373 155.47 127.378 155.92 126.408C156.371 125.44 156.908 124.483 157.595 123.595L157.599 123.588L157.606 123.583C161.108 121.353 164.915 118.927 168.942 116.362C169.949 115.72 170.97 115.071 172.004 114.412C173.018 113.717 174.114 113.123 175.246 112.581C176.379 112.042 177.557 111.57 178.766 111.156C179.37 110.941 179.988 110.764 180.605 110.577C181.23 110.416 181.852 110.236 182.491 110.105C184.934 109.552 187.397 109.274 189.81 109.153C192.225 109.031 194.595 109.03 196.898 109.151L196.965 109.156L196.952 109.223C195.881 114.107 194.872 118.714 193.946 122.936L193.946 122.945L193.939 122.954C193.37 123.902 192.916 124.897 192.58 125.902C192.257 126.908 192.049 127.942 192.126 128.95C192.207 129.962 192.238 130.954 192.267 131.913C192.289 132.875 192.31 133.809 192.332 134.713C192.397 138.334 192.422 141.491 192.44 144.095C192.451 146.697 192.46 148.74 192.467 150.138C192.467 150.834 192.467 151.367 192.466 151.732C192.466 151.912 192.465 152.045 192.463 152.14C192.463 152.232 192.458 152.278 192.458 152.278C192.458 152.278 192.456 152.232 192.453 152.14C192.453 152.045 192.45 151.909 192.447 151.732C192.446 151.37 192.44 150.835 192.433 150.138C192.419 148.74 192.4 146.695 192.378 144.095C192.35 141.494 192.317 138.334 192.244 134.716C192.223 133.812 192.199 132.878 192.175 131.916C192.144 130.954 192.111 129.967 192.029 128.957C191.95 127.931 192.158 126.886 192.483 125.87C192.822 124.856 193.274 123.856 193.85 122.897L193.843 122.913C194.764 118.689 195.771 114.082 196.837 109.198L196.89 109.269C194.593 109.148 192.224 109.151 189.815 109.273C187.407 109.394 184.953 109.672 182.516 110.222C181.88 110.351 181.26 110.533 180.638 110.692C180.023 110.879 179.407 111.054 178.806 111.268C177.601 111.681 176.425 112.151 175.296 112.687C174.17 113.226 173.078 113.818 172.071 114.507C171.037 115.165 170.016 115.814 169.009 116.454C164.978 119.017 161.168 121.44 157.664 123.666L157.675 123.655C156.998 124.529 156.461 125.483 156.012 126.444C155.562 127.408 155.23 128.396 155.001 129.381C154.491 131.36 154.757 133.31 154.768 135.116C154.87 138.737 154.959 141.899 155.032 144.502C155.103 147.104 155.159 149.152 155.196 150.549C155.212 151.246 155.225 151.781 155.235 152.143C155.238 152.323 155.241 152.459 155.244 152.551C155.244 152.643 155.244 152.689 155.244 152.689L155.24 152.694Z" fill="#263238"/>
<path d="M196.816 109.544C196.816 109.544 196.853 109.539 196.924 109.536C197 109.534 197.104 109.529 197.242 109.524C197.524 109.516 197.933 109.505 198.462 109.489C199.528 109.465 201.07 109.43 202.987 109.384C206.832 109.304 212.187 109.196 218.243 109.071L218.27 109.071L218.289 109.092C218.977 109.931 219.699 110.814 220.435 111.711C222.609 114.368 224.682 116.9 226.565 119.202C226.801 119.49 227.034 119.775 227.262 120.056C227.489 120.341 227.683 120.652 227.836 120.972C228.139 121.617 228.295 122.308 228.3 122.977C228.309 123.646 228.173 124.292 227.936 124.865C227.697 125.431 227.467 125.973 227.245 126.493C226.363 128.56 225.649 130.235 225.152 131.399C224.904 131.974 224.712 132.422 224.578 132.73C224.511 132.877 224.461 132.993 224.425 133.074C224.391 133.152 224.37 133.189 224.37 133.189C224.37 133.189 224.384 133.148 224.413 133.069C224.447 132.986 224.493 132.87 224.555 132.72C224.682 132.409 224.869 131.958 225.109 131.381C225.596 130.214 226.299 128.535 227.167 126.461C227.559 125.417 228.252 124.317 228.199 122.979C228.192 122.324 228.038 121.649 227.739 121.018C227.586 120.705 227.399 120.404 227.175 120.123C226.945 119.842 226.711 119.559 226.476 119.272C224.59 116.972 222.515 114.442 220.339 111.788C219.605 110.891 218.88 110.008 218.192 109.168L218.239 109.189C212.183 109.297 206.828 109.394 202.98 109.462C201.064 109.492 199.521 109.516 198.455 109.531C197.929 109.537 197.517 109.541 197.235 109.544C197.099 109.545 196.993 109.545 196.918 109.545C196.846 109.546 196.809 109.541 196.809 109.541L196.816 109.544Z" fill="#263238"/>
<path d="M189.184 129.928C189.184 129.928 189.249 129.921 189.368 129.9C189.485 129.879 189.66 129.832 189.85 129.705C190.038 129.579 190.24 129.367 190.34 129.062C190.392 128.909 190.408 128.741 190.4 128.554C190.395 128.374 190.348 128.183 190.256 128.006C190.071 127.654 189.67 127.36 189.194 127.361C188.709 127.363 188.19 127.367 187.645 127.371C186.551 127.375 185.354 127.381 184.094 127.388C183.793 127.389 183.499 127.508 183.286 127.707C183.071 127.906 182.934 128.181 182.905 128.462C182.876 128.753 182.916 129.036 183.055 129.276C183.189 129.515 183.406 129.697 183.645 129.797C183.887 129.905 184.149 129.888 184.411 129.889C184.668 129.888 184.921 129.888 185.162 129.889C185.647 129.89 186.098 129.891 186.514 129.891C187.33 129.896 187.996 129.9 188.47 129.903C188.693 129.907 188.87 129.911 189.001 129.913C189.122 129.917 189.187 129.919 189.187 129.924C189.187 129.928 189.122 129.933 189.001 129.936C188.867 129.939 188.69 129.944 188.47 129.949C187.996 129.956 187.33 129.965 186.514 129.974C186.1 129.976 185.647 129.982 185.162 129.986C184.919 129.987 184.668 129.988 184.411 129.991C184.28 129.991 184.154 129.996 184.013 129.99C183.875 129.981 183.735 129.952 183.604 129.897C183.341 129.787 183.104 129.592 182.956 129.329C182.803 129.069 182.759 128.749 182.79 128.446C182.821 128.135 182.972 127.832 183.208 127.615C183.444 127.395 183.765 127.265 184.096 127.263C185.355 127.259 186.555 127.257 187.647 127.256C188.192 127.256 188.711 127.257 189.198 127.257C189.711 127.26 190.142 127.582 190.332 127.962C190.429 128.153 190.475 128.356 190.476 128.547C190.481 128.734 190.461 128.921 190.402 129.078C190.29 129.399 190.073 129.616 189.876 129.739C189.674 129.864 189.492 129.904 189.371 129.919C189.249 129.933 189.184 129.921 189.184 129.921L189.184 129.928Z" fill="#263238"/>
<path d="M223.184 129.812C223.184 129.812 223.249 129.805 223.368 129.784C223.485 129.763 223.66 129.716 223.85 129.588C224.038 129.463 224.24 129.25 224.34 128.945C224.392 128.793 224.41 128.625 224.4 128.438C224.395 128.258 224.348 128.067 224.256 127.889C224.071 127.537 223.67 127.243 223.194 127.245C222.709 127.247 222.19 127.251 221.645 127.255C220.551 127.259 219.354 127.265 218.094 127.272C217.793 127.273 217.499 127.391 217.286 127.59C217.071 127.789 216.934 128.064 216.905 128.346C216.876 128.637 216.916 128.92 217.055 129.16C217.189 129.399 217.406 129.58 217.645 129.681C217.887 129.789 218.149 129.772 218.411 129.773C218.668 129.772 218.921 129.771 219.162 129.773C219.647 129.773 220.098 129.774 220.514 129.775C221.33 129.779 221.996 129.784 222.47 129.787C222.693 129.791 222.87 129.795 223.001 129.797C223.122 129.801 223.187 129.803 223.187 129.807C223.187 129.812 223.122 129.817 223.001 129.82C222.867 129.822 222.69 129.828 222.47 129.833C221.996 129.839 221.33 129.848 220.514 129.858C220.1 129.86 219.647 129.866 219.162 129.87C218.919 129.87 218.668 129.871 218.411 129.875C218.28 129.875 218.154 129.88 218.013 129.874C217.875 129.865 217.735 129.835 217.604 129.78C217.341 129.671 217.104 129.475 216.956 129.213C216.803 128.953 216.759 128.632 216.79 128.33C216.821 128.019 216.972 127.716 217.208 127.498C217.444 127.278 217.765 127.148 218.096 127.147C219.355 127.143 220.555 127.141 221.647 127.14C222.192 127.14 222.711 127.141 223.198 127.141C223.711 127.144 224.142 127.465 224.332 127.845C224.429 128.036 224.475 128.239 224.476 128.431C224.481 128.617 224.461 128.804 224.402 128.961C224.29 129.282 224.073 129.5 223.876 129.623C223.674 129.748 223.492 129.788 223.371 129.802C223.249 129.816 223.184 129.805 223.184 129.805L223.184 129.812Z" fill="#263238"/>
<path d="M252.98 124.142L246.177 124.165C245.243 124.168 244.39 124.69 243.959 125.52C243.605 126.201 243.58 127.006 243.89 127.709L246.58 133.782L253.392 133.691C253.392 133.691 254.813 125.979 252.98 124.144L252.98 124.142Z" fill="#FAFAFA"/>
<path d="M158.493 123.608L193.594 122.84L216.438 122.342L223.957 117.953C224.565 117.598 224.725 116.785 224.298 116.224L219.588 110.057C219.097 109.412 218.337 109.034 217.53 109.03L191.976 108.91C191.976 108.91 182.351 108.383 174.786 112.669C166.821 117.179 158.493 123.611 158.493 123.611L158.493 123.608Z" fill="#263238"/>
<path d="M174.533 109.606C174.533 109.606 176.297 110.405 175.152 111.156C174.01 111.905 156.264 123.218 156.264 123.218L152.169 121.376C159.397 117.301 166.699 113.346 174.533 109.608L174.533 109.606Z" fill="#455A64"/>
<path d="M156.841 123.496C156.841 123.496 156.804 123.508 156.731 123.524C156.652 123.541 156.544 123.566 156.407 123.597C156.117 123.658 155.697 123.747 155.16 123.859C154.075 124.08 152.504 124.39 150.557 124.731C146.661 125.418 141.249 126.22 135.235 126.765C133.733 126.901 132.262 127.015 130.842 127.112C129.422 127.211 128.053 127.301 126.752 127.426C124.151 127.663 121.82 128.051 119.928 128.623C118.031 129.176 116.581 129.882 115.629 130.439C115.14 130.699 114.794 130.954 114.546 131.107C114.427 131.183 114.335 131.244 114.267 131.285C114.202 131.325 114.168 131.343 114.168 131.343C114.168 131.343 114.198 131.318 114.257 131.276C114.324 131.23 114.413 131.167 114.53 131.086C114.773 130.926 115.117 130.664 115.604 130.397C116.551 129.827 118.001 129.105 119.902 128.54C121.799 127.954 124.135 127.557 126.74 127.315C128.043 127.188 129.412 127.094 130.833 126.994C132.253 126.895 133.721 126.781 135.224 126.645C141.234 126.103 146.644 125.314 150.542 124.648C152.493 124.316 154.064 124.02 155.152 123.813C155.692 123.71 156.113 123.628 156.404 123.571C156.544 123.546 156.652 123.527 156.73 123.51C156.804 123.499 156.843 123.494 156.843 123.494L156.841 123.496Z" fill="#263238"/>
<path d="M255.749 138.931C255.749 138.963 253.41 138.999 250.525 139.009C247.641 139.019 245.299 138.999 245.299 138.967C245.298 138.935 247.638 138.899 250.525 138.889C253.412 138.879 255.749 138.899 255.749 138.931Z" fill="#263238"/>
<path d="M212.968 145.07C212.968 145.102 199.761 145.175 183.473 145.23C167.184 145.286 153.975 145.304 153.975 145.271C153.975 145.239 167.179 145.166 183.472 145.11C199.766 145.055 212.967 145.037 212.968 145.07Z" fill="#263238"/>
<path d="M120.476 139.592C120.476 139.624 118.607 139.658 116.304 139.666C114.001 139.674 112.133 139.653 112.133 139.621C112.132 139.588 113.999 139.554 116.304 139.546C118.609 139.539 120.476 139.56 120.476 139.592Z" fill="#263238"/>
<path d="M241.814 113.442C241.814 113.442 240.253 115.209 240.873 116.499C241.494 117.788 247.875 122.289 247.875 122.289L252.5 123.143L241.812 113.439L241.814 113.442Z" fill="#455A64"/>
<path d="M197.86 110.439L196.859 121.707L215.456 121.111L222.936 116.712L218.062 110.37L197.86 110.439Z" fill="#455A64"/>
<path d="M162.893 122.4C162.893 122.4 174.086 114.23 178.507 112.6C182.774 111.026 185 110.627 189.013 110.5C192.848 110.378 195.186 110.476 195.186 110.476L192.26 121.938L162.893 122.405L162.893 122.4Z" fill="#455A64"/>
<path d="M161.252 122.442C161.249 121.729 161.631 121.07 162.248 120.718L164.819 119.256C165.554 118.838 166.38 118.619 167.224 118.616C167.748 118.614 168.265 118.695 168.755 118.855C169.857 119.213 170.594 120.26 170.644 121.422C170.712 123.037 169.427 124.386 167.816 124.391L163.224 124.407C162.139 124.411 161.256 123.53 161.252 122.442Z" fill="white"/>
<path d="M161.252 122.442C161.252 122.442 161.259 122.53 161.283 122.691C161.304 122.853 161.365 123.092 161.51 123.366C161.663 123.636 161.917 123.935 162.304 124.143C162.497 124.244 162.723 124.319 162.966 124.351C163.21 124.38 163.479 124.361 163.759 124.362C164.881 124.353 166.214 124.347 167.692 124.335C168.06 124.333 168.43 124.288 168.785 124.151C169.141 124.016 169.474 123.805 169.755 123.527C170.035 123.249 170.266 122.91 170.407 122.526C170.55 122.143 170.607 121.723 170.575 121.306C170.508 120.466 170.059 119.693 169.407 119.245C169.085 119.016 168.714 118.886 168.342 118.799C167.969 118.711 167.594 118.67 167.229 118.672C166.496 118.674 165.804 118.84 165.212 119.112C164.916 119.247 164.646 119.416 164.377 119.562C164.111 119.713 163.854 119.857 163.611 119.994C163.123 120.268 162.682 120.514 162.292 120.734C161.904 120.946 161.653 121.249 161.506 121.519C161.358 121.792 161.304 122.034 161.281 122.195C161.259 122.359 161.261 122.445 161.255 122.445C161.255 122.445 161.243 122.357 161.258 122.191C161.274 122.027 161.321 121.78 161.467 121.496C161.611 121.216 161.867 120.897 162.262 120.674C162.65 120.452 163.088 120.199 163.572 119.92C163.815 119.781 164.07 119.635 164.333 119.482C164.6 119.333 164.87 119.162 165.173 119.022C165.774 118.741 166.482 118.566 167.231 118.561C167.605 118.56 167.989 118.6 168.371 118.688C168.751 118.775 169.142 118.91 169.478 119.151C170.158 119.616 170.63 120.424 170.697 121.298C170.731 121.734 170.672 122.173 170.522 122.572C170.374 122.972 170.134 123.328 169.841 123.615C169.548 123.904 169.199 124.124 168.829 124.262C168.46 124.403 168.067 124.451 167.695 124.448C166.217 124.448 164.886 124.448 163.762 124.447C163.482 124.444 163.217 124.458 162.96 124.427C162.705 124.393 162.472 124.311 162.274 124.203C161.876 123.981 161.622 123.666 161.471 123.39C161.328 123.106 161.274 122.86 161.26 122.696C161.246 122.53 161.254 122.442 161.254 122.442L161.252 122.442Z" fill="#263238"/>
<path d="M247.801 152.194C247.801 152.194 247.801 152.139 247.808 152.035C247.814 151.927 247.825 151.77 247.838 151.567C247.849 151.362 247.873 151.108 247.886 150.806C247.894 150.504 247.907 150.155 247.917 149.765C247.92 149.373 247.914 148.937 247.906 148.462C247.874 147.987 247.87 147.468 247.804 146.917C247.701 145.811 247.513 144.554 247.127 143.209C246.927 142.54 246.699 141.842 246.387 141.147C246.09 140.444 245.713 139.745 245.27 139.054C244.389 137.669 243.146 136.395 241.664 135.302C240.178 134.214 238.421 133.342 236.5 132.769C234.581 132.185 232.494 131.978 230.37 131.971C228.244 131.974 226.167 132.27 224.259 132.885C223.307 133.19 222.395 133.574 221.542 134.022C220.691 134.472 219.909 135.01 219.185 135.58C217.743 136.729 216.527 138.016 215.557 139.338C215.079 140.004 214.693 140.697 214.355 141.381C214.035 142.074 213.746 142.746 213.525 143.411C212.603 146.058 212.319 148.33 212.221 149.888C212.187 150.67 212.194 151.278 212.214 151.689C212.226 151.892 212.235 152.049 212.243 152.157C212.248 152.263 212.248 152.316 212.248 152.316C212.248 152.316 212.241 152.263 212.229 152.157C212.219 152.049 212.205 151.892 212.188 151.689C212.159 151.276 212.146 150.667 212.173 149.883C212.257 148.321 212.53 146.039 213.445 143.382C213.665 142.714 213.953 142.038 214.272 141.34C214.61 140.651 214.998 139.954 215.478 139.278C216.451 137.944 217.669 136.649 219.118 135.493C219.847 134.918 220.631 134.376 221.489 133.921C222.349 133.47 223.265 133.082 224.225 132.774C226.144 132.154 228.237 131.854 230.372 131.854C232.505 131.86 234.602 132.07 236.534 132.658C238.467 133.235 240.233 134.115 241.728 135.215C242.477 135.763 243.157 136.363 243.766 136.997C244.375 137.63 244.913 138.301 245.352 139.001C245.798 139.696 246.175 140.403 246.469 141.11C246.782 141.81 247.005 142.513 247.205 143.185C247.589 144.538 247.77 145.801 247.868 146.91C247.932 147.464 247.932 147.985 247.961 148.46C247.963 148.937 247.966 149.373 247.961 149.765C247.944 150.157 247.931 150.503 247.918 150.808C247.901 151.11 247.874 151.364 247.859 151.569C247.841 151.772 247.828 151.927 247.817 152.038C247.806 152.144 247.799 152.197 247.799 152.197L247.801 152.194Z" fill="white"/>
<path d="M191.773 123.494C191.773 123.494 191.755 123.498 191.721 123.501C191.679 123.501 191.626 123.506 191.564 123.508C191.417 123.511 191.217 123.516 190.964 123.524C190.434 123.535 189.682 123.552 188.76 123.571C186.899 123.612 184.33 123.69 181.489 123.778C178.648 123.866 176.077 123.93 174.215 123.948C173.284 123.958 172.53 123.961 172.009 123.956C171.756 123.952 171.556 123.95 171.409 123.948C171.347 123.949 171.296 123.944 171.252 123.944C171.218 123.945 171.2 123.94 171.2 123.938C171.2 123.935 171.218 123.933 171.252 123.931C171.294 123.93 171.347 123.926 171.409 123.923C171.556 123.92 171.756 123.915 172.009 123.907C172.539 123.896 173.291 123.88 174.213 123.86C176.074 123.82 178.646 123.742 181.486 123.653C184.327 123.565 186.898 123.501 188.76 123.483C189.691 123.473 190.445 123.47 190.967 123.476C191.219 123.479 191.419 123.481 191.566 123.483C191.629 123.483 191.679 123.487 191.723 123.487C191.757 123.487 191.776 123.491 191.776 123.494L191.773 123.494Z" fill="white"/>
<path d="M188.738 126.971C188.738 127.004 187.837 127.034 186.725 127.038C185.612 127.042 184.711 127.017 184.711 126.985C184.711 126.953 185.612 126.922 186.724 126.918C187.837 126.914 188.738 126.939 188.738 126.971Z" fill="white"/>
<path d="M189.436 114.627C189.447 114.657 186.952 115.71 183.861 116.978C180.769 118.246 178.254 119.248 178.24 119.218C178.226 119.188 180.723 118.135 183.815 116.867C186.906 115.6 189.422 114.597 189.433 114.627L189.436 114.627Z" fill="white"/>
<path d="M184.374 115.431C184.388 115.461 182.01 116.52 179.066 117.799C176.121 119.078 173.723 120.087 173.711 120.057C173.697 120.027 176.075 118.967 179.019 117.689C181.964 116.412 184.362 115.401 184.374 115.431Z" fill="white"/>
<path d="M216.491 114.099C216.503 114.129 214.008 115.182 210.917 116.45C207.825 117.717 205.309 118.72 205.295 118.69C205.284 118.66 207.779 117.607 210.87 116.339C213.962 115.072 216.477 114.069 216.489 114.099L216.491 114.099Z" fill="white"/>
<path d="M211.43 114.902C211.444 114.932 209.067 115.992 206.122 117.271C203.178 118.549 200.779 119.559 200.768 119.529C200.754 119.499 203.131 118.439 206.076 117.16C209.02 115.884 211.419 114.872 211.43 114.902Z" fill="white"/>
<path d="M217.012 123.405C217.012 123.437 212.041 123.512 205.909 123.57C199.774 123.628 194.805 123.647 194.805 123.615C194.805 123.582 199.774 123.508 205.908 123.45C212.04 123.392 217.012 123.373 217.012 123.405Z" fill="white"/>
<path d="M222.528 126.664C222.528 126.696 221.135 126.742 219.414 126.764C217.693 126.787 216.3 126.777 216.3 126.745C216.3 126.713 217.692 126.667 219.414 126.645C221.133 126.623 222.528 126.632 222.528 126.664Z" fill="white"/>
<path d="M127.335 125.283C127.335 125.283 127.289 125.297 127.199 125.309C127.098 125.323 126.97 125.34 126.809 125.361C126.639 125.38 126.432 125.408 126.193 125.448C125.954 125.488 125.681 125.524 125.382 125.585C124.783 125.691 124.075 125.852 123.297 126.062C122.523 126.282 121.678 126.555 120.815 126.894C119.952 127.241 119.151 127.62 118.438 127.993C117.727 128.374 117.103 128.743 116.591 129.079C116.332 129.239 116.107 129.401 115.908 129.538C115.706 129.673 115.536 129.795 115.401 129.897C115.27 129.99 115.165 130.067 115.082 130.127C115.009 130.178 114.968 130.203 114.966 130.201C114.963 130.199 114.998 130.166 115.066 130.108C115.147 130.044 115.247 129.962 115.373 129.861C115.506 129.752 115.671 129.624 115.871 129.483C116.068 129.342 116.29 129.175 116.547 129.008C117.054 128.662 117.678 128.284 118.387 127.897C119.1 127.516 119.906 127.13 120.773 126.784C121.643 126.442 122.49 126.169 123.271 125.956C124.054 125.751 124.766 125.598 125.37 125.502C125.671 125.445 125.947 125.415 126.186 125.384C126.427 125.348 126.634 125.329 126.804 125.317C126.965 125.305 127.093 125.295 127.197 125.286C127.286 125.281 127.335 125.278 127.335 125.285L127.335 125.283Z" fill="white"/>
<path d="M168.359 119.701C168.359 119.701 168.29 119.611 168.138 119.487C167.986 119.366 167.725 119.226 167.378 119.183C167.029 119.138 166.608 119.2 166.154 119.321C165.697 119.438 165.205 119.601 164.707 119.82C163.709 120.254 162.897 120.832 162.359 121.297C161.813 121.76 161.527 122.1 161.509 122.084C161.502 122.08 161.57 121.992 161.701 121.839C161.834 121.689 162.033 121.476 162.301 121.235C162.83 120.749 163.647 120.153 164.659 119.712C165.164 119.491 165.662 119.328 166.126 119.215C166.585 119.098 167.024 119.044 167.389 119.1C167.755 119.157 168.02 119.315 168.17 119.455C168.246 119.524 168.294 119.588 168.324 119.632C168.352 119.678 168.366 119.703 168.361 119.706L168.359 119.701Z" fill="white"/>
<path d="M242.336 113.357C242.336 113.357 241.996 113.462 241.357 113.459C241.04 113.454 240.651 113.416 240.209 113.32C239.768 113.225 239.275 113.074 238.746 112.873C238.215 112.674 237.648 112.42 237.036 112.162C236.728 112.038 236.41 111.91 236.081 111.778C235.752 111.647 235.404 111.535 235.054 111.408C233.642 110.926 232.054 110.495 230.366 110.143C226.987 109.445 223.865 109.16 221.608 109.08C221.042 109.052 220.532 109.054 220.084 109.042C219.638 109.043 219.252 109.044 218.932 109.046C218.622 109.054 218.381 109.059 218.204 109.064C218.126 109.064 218.064 109.065 218.015 109.065C217.972 109.065 217.951 109.065 217.951 109.06C217.951 109.06 217.972 109.056 218.015 109.051C218.064 109.049 218.128 109.044 218.204 109.037C218.378 109.027 218.622 109.012 218.932 108.995C219.252 108.989 219.638 108.981 220.086 108.97C220.536 108.975 221.049 108.967 221.614 108.99C223.876 109.049 227.005 109.32 230.393 110.021C232.086 110.373 233.678 110.81 235.093 111.299C235.445 111.427 235.793 111.541 236.122 111.674C236.451 111.809 236.771 111.939 237.079 112.065C237.692 112.33 238.253 112.587 238.78 112.788C239.305 112.994 239.793 113.149 240.228 113.249C240.665 113.351 241.049 113.391 241.361 113.406C241.676 113.414 241.922 113.398 242.085 113.376C242.161 113.367 242.223 113.36 242.274 113.352C242.315 113.348 242.338 113.348 242.338 113.348L242.336 113.357Z" fill="#263238"/>
<path d="M126.538 117.377C125.604 112.334 124.983 111.561 124.455 109.826C123.937 108.112 123.101 106.966 122.072 106.573C121.377 106.308 117.916 105.068 116.711 105.487C115.373 105.953 114.205 106.628 113.377 107.182C112.572 107.722 111.964 108.508 111.643 109.425L109.81 114.637L113.058 117.866L114.668 114.401L116.443 118.538L116.198 122.724L126.306 125.416C127.22 123.937 127.07 120.242 126.538 117.382L126.538 117.377Z" fill="#FFCC00"/>
<g opacity="0.2">
<path d="M123.889 111.88C123.452 114.509 123.382 114.871 122.945 117.5C122.794 118.402 122.353 119.811 121.714 120.463C121.242 120.947 120.777 121.414 120.121 121.573C119.507 121.721 118.579 121.74 118.001 121.486C117.423 121.232 116.93 120.113 117.165 119.526C118.02 119.708 118.288 119.993 119.024 119.52C119.666 119.107 120.578 118.195 120.925 117.514C122.388 114.649 122.793 114.544 123.884 111.878" fill="black"/>
</g>
<path d="M116.599 116.996C116.585 117.006 116.416 116.736 116.151 116.299C115.866 115.836 115.503 115.25 115.104 114.6C114.694 113.956 114.322 113.376 114.031 112.918C113.754 112.488 113.588 112.221 113.601 112.212C113.608 112.207 113.659 112.267 113.747 112.382C113.834 112.494 113.955 112.662 114.102 112.872C114.398 113.291 114.791 113.877 115.204 114.538C115.618 115.201 115.974 115.811 116.222 116.257C116.346 116.481 116.444 116.665 116.508 116.791C116.573 116.92 116.606 116.992 116.599 116.996Z" fill="#010D13"/>
<path d="M123.662 121.684C123.662 121.684 123.579 121.724 123.425 121.775C123.347 121.8 123.253 121.831 123.138 121.857C123.026 121.882 122.897 121.917 122.752 121.939C122.465 121.993 122.118 122.026 121.73 122.034C121.344 122.036 120.916 122.007 120.477 121.93C120.038 121.849 119.628 121.728 119.264 121.591C118.905 121.449 118.59 121.295 118.339 121.144C118.21 121.075 118.102 120.997 118.005 120.933C117.908 120.871 117.828 120.809 117.765 120.759C117.636 120.658 117.569 120.598 117.574 120.591C117.588 120.572 117.871 120.795 118.38 121.07C118.633 121.21 118.946 121.352 119.303 121.487C119.662 121.615 120.065 121.731 120.497 121.81C120.929 121.885 121.348 121.916 121.729 121.921C122.111 121.92 122.453 121.896 122.738 121.851C123.31 121.768 123.652 121.659 123.659 121.682L123.662 121.684Z" fill="#010D13"/>
<path d="M119.582 113.835C119.564 113.925 118.487 116.097 118.487 116.097L113.357 113.407L112.828 111.194C112.744 110.849 112.531 110.549 112.234 110.357C111.919 110.153 111.532 110.089 111.167 110.178L109.659 110.804C109.533 110.855 109.437 110.964 109.412 111.098C109.392 111.211 109.42 111.319 109.613 111.302C109.987 111.271 110.768 111.185 110.768 111.185L110.416 112.448C110.323 112.778 110.361 113.133 110.521 113.437L110.75 113.872L111.251 114.68L111.242 114.687C111.242 114.687 116.238 119.802 119.034 120.124C120.715 120.319 122.602 115.587 122.602 115.587L119.587 113.83L119.582 113.835Z" fill="#FFDED1"/>
<path d="M110.722 111.272C110.722 111.272 110.761 111.219 110.846 111.161C110.931 111.106 111.066 111.034 111.234 111.04C111.406 111.049 111.533 111.161 111.577 111.26C111.623 111.364 111.594 111.433 111.587 111.431C111.573 111.431 111.582 111.364 111.531 111.286C111.483 111.21 111.37 111.123 111.229 111.116C111.087 111.11 110.961 111.166 110.871 111.21C110.782 111.254 110.727 111.284 110.722 111.275L110.722 111.272Z" fill="#7A4535"/>
<path d="M111.37 112.056C111.37 112.056 111.338 112.015 111.287 111.953C111.239 111.893 111.158 111.817 111.05 111.776C110.942 111.733 110.831 111.733 110.756 111.745C110.678 111.757 110.632 111.773 110.625 111.764C110.62 111.757 110.661 111.72 110.744 111.692C110.824 111.666 110.951 111.657 111.077 111.705C111.204 111.755 111.289 111.847 111.331 111.923C111.375 111.999 111.38 112.052 111.37 112.056Z" fill="#7A4535"/>
<path d="M120.62 106.988L119.256 113.587L122.939 115.791L124.336 111.734C124.336 111.734 123.736 106.816 120.62 106.988Z" fill="#FFCC00"/>
<path d="M122.602 107.097C122.602 107.097 122.572 107.121 122.508 107.158C122.444 107.193 122.352 107.244 122.228 107.306C121.985 107.432 121.63 107.608 121.182 107.81C120.289 108.21 119.015 108.722 117.532 108.978C116.048 109.237 114.659 109.124 113.711 108.862C113.235 108.735 112.862 108.591 112.614 108.472C112.487 108.417 112.395 108.362 112.33 108.33C112.266 108.295 112.234 108.275 112.236 108.272C112.241 108.263 112.379 108.327 112.632 108.43C112.885 108.535 113.258 108.665 113.732 108.782C114.675 109.018 116.043 109.117 117.51 108.861C118.978 108.607 120.248 108.113 121.147 107.734C121.597 107.544 121.96 107.379 122.208 107.267C122.458 107.153 122.595 107.093 122.6 107.102L122.602 107.097Z" fill="#EBEBEB"/>
<path d="M123.572 107.823C123.572 107.823 123.54 107.853 123.471 107.899C123.391 107.952 123.29 108.017 123.166 108.096C123.033 108.182 122.87 108.284 122.671 108.386C122.473 108.491 122.253 108.621 121.994 108.734C121.865 108.795 121.732 108.855 121.592 108.92C121.452 108.985 121.301 109.039 121.147 109.099C120.842 109.23 120.502 109.335 120.148 109.451C119.434 109.663 118.633 109.846 117.778 109.955C116.923 110.055 116.101 110.072 115.356 110.037C114.983 110.009 114.629 109.989 114.303 109.937C114.14 109.912 113.979 109.897 113.829 109.869C113.68 109.84 113.535 109.813 113.394 109.786C113.116 109.738 112.872 109.665 112.656 109.611C112.438 109.558 112.256 109.499 112.106 109.446C111.968 109.398 111.855 109.36 111.763 109.328C111.685 109.3 111.646 109.282 111.646 109.28C111.646 109.277 111.69 109.284 111.77 109.305C111.862 109.33 111.977 109.361 112.118 109.4C112.267 109.446 112.451 109.498 112.67 109.544C112.886 109.591 113.132 109.66 113.408 109.7C113.546 109.725 113.691 109.75 113.84 109.777C113.99 109.802 114.148 109.815 114.312 109.838C114.638 109.885 114.99 109.902 115.358 109.927C116.096 109.954 116.912 109.935 117.759 109.835C118.607 109.726 119.402 109.548 120.111 109.345C120.462 109.231 120.8 109.131 121.105 109.007C121.259 108.947 121.408 108.896 121.548 108.835C121.688 108.772 121.821 108.714 121.95 108.656C122.209 108.549 122.429 108.424 122.629 108.326C122.829 108.229 122.996 108.134 123.131 108.055C123.26 107.983 123.363 107.925 123.446 107.878C123.519 107.839 123.558 107.82 123.56 107.823L123.572 107.823Z" fill="#EBEBEB"/>
<path d="M122.939 115.791C122.939 115.791 122.831 115.743 122.64 115.64C122.435 115.525 122.163 115.374 121.829 115.186C121.127 114.783 120.167 114.232 119.059 113.597L119.024 113.577L119.031 113.537C119.128 113.044 119.232 112.515 119.338 111.97C119.503 111.149 119.659 110.369 119.802 109.655C119.876 109.3 119.937 108.961 120.005 108.645C120.078 108.328 120.168 108.035 120.296 107.786C120.547 107.28 120.951 107.004 121.243 106.908C121.392 106.859 121.514 106.847 121.594 106.849C121.674 106.849 121.718 106.858 121.718 106.863C121.718 106.879 121.543 106.847 121.259 106.954C120.981 107.059 120.603 107.335 120.372 107.824C120.254 108.067 120.167 108.353 120.102 108.665C120.041 108.983 119.978 109.32 119.91 109.676C119.77 110.389 119.616 111.171 119.456 111.993C119.347 112.538 119.241 113.066 119.144 113.56L119.116 113.5C120.215 114.149 121.168 114.713 121.864 115.126C122.191 115.326 122.458 115.486 122.658 115.608C122.843 115.722 122.942 115.787 122.937 115.794L122.939 115.791Z" fill="#010D13"/>
<path d="M124.052 111.539C124.066 111.539 124.071 111.774 124.036 112.155C124 112.533 123.922 113.054 123.776 113.615C123.631 114.179 123.447 114.671 123.294 115.019C123.141 115.368 123.025 115.571 123.011 115.565C122.995 115.558 123.084 115.341 123.216 114.987C123.348 114.634 123.516 114.142 123.661 113.586C123.804 113.029 123.897 112.517 123.953 112.143C124.009 111.769 124.036 111.536 124.054 111.539L124.052 111.539Z" fill="#010D13"/>
<path d="M104.235 148.285L104.206 151.807C104.206 151.807 100.629 152.961 100.562 153.611L107.364 153.913L107.633 148.428L104.235 148.287L104.235 148.285Z" fill="#FF8A6F"/>
<path d="M106.322 151.603C106.453 151.644 106.536 151.799 106.5 151.93C106.464 152.062 106.31 152.15 106.179 152.111C106.048 152.072 105.941 151.891 105.992 151.764C106.042 151.636 106.23 151.544 106.347 151.612" fill="#E0E0E0"/>
<path d="M107.363 153.91L107.368 153.357L100.845 153.275C100.845 153.275 100.538 153.394 100.561 153.611L107.363 153.913L107.363 153.91Z" fill="#E0E0E0"/>
<path d="M104.098 151.768C104.098 151.8 104.263 151.823 104.422 151.937C104.584 152.048 104.662 152.195 104.692 152.183C104.722 152.179 104.682 151.976 104.489 151.843C104.295 151.705 104.093 151.736 104.098 151.768Z" fill="#010D13"/>
<path d="M103.373 152.031C103.364 152.063 103.504 152.125 103.613 152.272C103.724 152.415 103.745 152.569 103.779 152.569C103.809 152.576 103.841 152.382 103.707 152.202C103.573 152.023 103.378 152.001 103.375 152.031L103.373 152.031Z" fill="#010D13"/>
<path d="M102.93 152.87C102.959 152.879 103.014 152.713 102.935 152.528C102.859 152.342 102.707 152.261 102.691 152.289C102.67 152.315 102.767 152.418 102.827 152.572C102.892 152.724 102.895 152.865 102.927 152.87L102.93 152.87Z" fill="#010D13"/>
<path d="M104.194 150.965C104.205 150.995 104.362 150.957 104.548 150.977C104.736 150.995 104.879 151.064 104.897 151.036C104.918 151.013 104.78 150.884 104.559 150.862C104.338 150.84 104.178 150.937 104.194 150.965Z" fill="#010D13"/>
<g opacity="0.3">
<path d="M104.231 148.983L104.224 149.61L107.569 149.728L107.599 149.163L104.231 148.983Z" fill="black"/>
</g>
<path d="M104.213 150.254C104.213 150.268 104.342 150.295 104.553 150.267C104.659 150.253 104.783 150.224 104.914 150.173C104.98 150.148 105.047 150.115 105.113 150.078C105.145 150.059 105.184 150.041 105.219 150.002C105.258 149.969 105.283 149.881 105.241 149.824C105.209 149.771 105.149 149.743 105.098 149.741C105.048 149.737 105.006 149.746 104.97 149.753C104.894 149.767 104.82 149.791 104.754 149.816C104.621 149.87 104.513 149.939 104.43 150.009C104.265 150.148 104.206 150.27 104.218 150.277C104.231 150.289 104.314 150.187 104.479 150.073C104.561 150.018 104.667 149.96 104.791 149.915C104.853 149.894 104.919 149.876 104.988 149.864C105.062 149.848 105.122 149.85 105.14 149.884C105.147 149.896 105.147 149.903 105.131 149.921C105.115 149.94 105.085 149.958 105.053 149.977C104.991 150.014 104.929 150.044 104.87 150.072C104.748 150.125 104.633 150.16 104.534 150.184C104.337 150.231 104.208 150.233 104.208 150.252L104.213 150.254Z" fill="#010D13"/>
<path d="M104.254 150.305C104.265 150.309 104.336 150.194 104.359 149.979C104.37 149.873 104.365 149.741 104.327 149.603C104.309 149.534 104.283 149.463 104.251 149.391C104.214 149.322 104.17 149.23 104.041 149.21C103.974 149.205 103.915 149.254 103.894 149.298C103.869 149.344 103.865 149.383 103.853 149.423C103.837 149.501 103.835 149.579 103.843 149.653C103.857 149.798 103.912 149.923 103.973 150.013C104.097 150.194 104.235 150.242 104.238 150.231C104.249 150.215 104.136 150.146 104.041 149.971C103.995 149.886 103.956 149.773 103.948 149.646C103.943 149.581 103.948 149.514 103.964 149.45C103.977 149.378 104.007 149.321 104.035 149.33C104.069 149.33 104.124 149.387 104.15 149.447C104.182 149.509 104.208 149.574 104.226 149.636C104.264 149.76 104.278 149.88 104.278 149.979C104.279 150.18 104.238 150.302 104.256 150.309L104.254 150.305Z" fill="#010D13"/>
<path d="M118.009 122.751C118.009 122.751 107.373 118.317 104.083 118.137C102.021 118.024 100.465 119.358 100.753 121.5C100.897 122.57 103.875 135.099 103.875 135.099L108.345 133.031L106.164 124.369L114.903 128.594L118.009 122.749L118.009 122.751Z" fill="#010D13"/>
<path d="M104.817 122.181C104.782 122.211 105.136 122.664 105.508 123.265C105.882 123.865 106.132 124.383 106.173 124.365C106.212 124.351 106.022 123.793 105.641 123.181C105.262 122.567 104.847 122.151 104.817 122.178L104.817 122.181Z" fill="#FF8A6F"/>
<path d="M103.949 122.681C103.927 122.72 104.466 123.06 105.095 123.523C105.726 123.985 106.212 124.394 106.242 124.361C106.27 124.331 105.827 123.865 105.186 123.396C104.548 122.928 103.968 122.644 103.949 122.681Z" fill="#FF8A6F"/>
<path d="M126.307 125.411C126.307 125.411 124.977 127.143 123.703 127.621C122.106 128.219 110.288 133.864 110.288 133.864C110.288 133.864 108.196 149.873 108.364 149.206L103.411 149.103L103.898 134.361C103.956 132.472 105.456 130.301 107.071 129.331L118.007 122.75L126.305 125.411L126.307 125.411Z" fill="#010D13"/>
<path d="M103.813 137.057C103.813 137.057 103.824 136.988 103.833 136.854C103.839 136.707 103.85 136.513 103.861 136.275C103.886 135.772 103.912 135.041 104.049 134.155C104.193 133.276 104.456 132.214 105.11 131.229C105.434 130.739 105.87 130.295 106.378 129.906C106.887 129.516 107.461 129.173 108.055 128.832C110.434 127.454 112.486 126.049 114.004 125.087C114.761 124.6 115.376 124.212 115.802 123.948C116.004 123.823 116.167 123.721 116.293 123.642C116.405 123.57 116.463 123.531 116.46 123.526C116.458 123.521 116.396 123.552 116.279 123.614C116.162 123.677 115.99 123.77 115.772 123.895C115.334 124.143 114.71 124.517 113.946 124.992C112.412 125.932 110.35 127.323 107.979 128.696C107.385 129.037 106.804 129.383 106.286 129.784C105.768 130.182 105.321 130.643 104.99 131.149C104.327 132.166 104.071 133.249 103.941 134.137C103.817 135.035 103.808 135.768 103.801 136.271C103.802 136.511 103.802 136.702 103.803 136.852C103.803 136.986 103.81 137.055 103.815 137.055L103.813 137.057Z" fill="#FF8A6F"/>
<path d="M121.94 127.113C121.958 127.092 121.813 126.959 121.635 126.703C121.457 126.45 121.258 126.063 121.163 125.602C121.069 125.139 121.097 124.705 121.163 124.403C121.226 124.098 121.306 123.918 121.283 123.907C121.269 123.898 121.153 124.064 121.057 124.376C120.962 124.685 120.91 125.144 121.011 125.635C121.111 126.124 121.338 126.527 121.548 126.773C121.758 127.021 121.931 127.127 121.94 127.113Z" fill="#FF8A6F"/>
<path d="M105.23 149.095C105.23 149.095 105.237 149.067 105.246 149.014C105.253 148.952 105.264 148.871 105.275 148.772C105.297 148.548 105.331 148.235 105.371 147.84C105.448 147.019 105.559 145.849 105.694 144.409C105.761 143.683 105.834 142.891 105.912 142.04C105.991 141.188 106.073 140.277 106.137 139.317C106.207 138.36 106.296 137.354 106.464 136.325C106.64 135.3 106.903 134.245 107.364 133.245C107.816 132.24 108.458 131.362 109.152 130.594C109.858 129.83 110.621 129.175 111.389 128.602C112.925 127.46 114.441 126.625 115.691 125.887C116.946 125.158 117.946 124.537 118.611 124.069C118.946 123.837 119.198 123.649 119.367 123.517C119.445 123.455 119.507 123.406 119.558 123.366C119.599 123.332 119.622 123.313 119.62 123.311C119.62 123.311 119.594 123.323 119.548 123.355C119.496 123.392 119.431 123.436 119.349 123.494C119.175 123.617 118.916 123.798 118.578 124.02C117.904 124.472 116.9 125.075 115.638 125.792C114.383 126.516 112.858 127.343 111.306 128.487C110.531 129.06 109.758 129.717 109.042 130.49C108.336 131.267 107.684 132.158 107.224 133.181C106.756 134.2 106.491 135.266 106.315 136.3C106.146 137.336 106.06 138.347 105.994 139.306C105.935 140.266 105.858 141.177 105.785 142.029C105.715 142.88 105.648 143.674 105.589 144.4C105.474 145.842 105.379 147.012 105.313 147.836C105.285 148.232 105.263 148.544 105.247 148.77C105.241 148.869 105.237 148.95 105.234 149.014C105.232 149.07 105.235 149.097 105.235 149.097L105.23 149.095Z" fill="#FF8A6F"/>
<path d="M116.715 97.3685C116.406 96.5 115.388 95.9545 114.497 96.1813C114.293 96.2328 114.091 96.3211 113.882 96.3172C113.622 96.3135 113.387 96.1713 113.132 96.1214C112.585 96.0126 111.988 96.4044 111.866 96.9514C111.431 96.863 110.949 96.9269 110.603 97.2072C110.259 97.4874 110.1 98.0115 110.313 98.4029C110.403 98.5709 110.55 98.7042 110.634 98.8769C110.77 99.1601 110.71 99.5017 110.805 99.8012C110.946 100.246 111.416 100.519 111.878 100.57C112.341 100.622 112.802 100.493 113.25 100.367" fill="#010D13"/>
<path d="M114.617 106.5C114.558 106.055 114.518 105.741 114.518 105.741C114.518 105.741 113.038 105.737 112.434 103.896C112.134 102.982 111.931 101.435 111.807 100.164C111.696 99.0207 112.554 98.0121 113.698 97.9482L117.632 97.7272L117.72 98.3381L118.782 105.927C118.945 107.084 118.137 108.153 116.981 108.309C115.83 108.465 114.775 107.652 114.619 106.5L114.617 106.5Z" fill="#FFDED1"/>
<path d="M112.364 101.253C112.381 101.382 112.503 101.474 112.636 101.459C112.77 101.445 112.866 101.329 112.849 101.2C112.833 101.071 112.711 100.979 112.577 100.994C112.444 101.008 112.348 101.124 112.364 101.253Z" fill="#010D13"/>
<path d="M112.267 100.911C112.301 100.939 112.462 100.772 112.721 100.73C112.981 100.685 113.192 100.788 113.215 100.751C113.227 100.735 113.188 100.682 113.095 100.636C113.003 100.588 112.856 100.554 112.693 100.58C112.532 100.608 112.406 100.689 112.337 100.763C112.266 100.837 112.251 100.9 112.267 100.911Z" fill="#010D13"/>
<path d="M114.832 100.823C114.848 100.952 114.97 101.044 115.104 101.029C115.237 101.015 115.333 100.899 115.317 100.77C115.3 100.641 115.178 100.549 115.045 100.564C114.911 100.578 114.815 100.694 114.832 100.823Z" fill="#010D13"/>
<path d="M114.826 100.544C114.861 100.571 115.024 100.405 115.281 100.362C115.54 100.318 115.752 100.421 115.775 100.384C115.787 100.368 115.747 100.315 115.655 100.269C115.563 100.221 115.416 100.187 115.253 100.213C115.092 100.241 114.966 100.322 114.897 100.396C114.828 100.47 114.81 100.532 114.826 100.544Z" fill="#010D13"/>
<path d="M114.198 102.629C114.198 102.613 114.03 102.613 113.763 102.621C113.697 102.626 113.63 102.622 113.611 102.578C113.588 102.532 113.604 102.456 113.624 102.373C113.661 102.202 113.699 102.022 113.738 101.835C113.894 101.069 113.995 100.443 113.963 100.439C113.933 100.432 113.781 101.048 113.625 101.815C113.589 102.004 113.553 102.184 113.519 102.355C113.505 102.435 113.476 102.528 113.526 102.622C113.552 102.668 113.607 102.698 113.651 102.702C113.695 102.709 113.734 102.702 113.766 102.702C114.032 102.673 114.195 102.648 114.193 102.634L114.198 102.629Z" fill="#010D13"/>
<path d="M114.518 105.741C114.518 105.741 115.798 105.617 116.927 104.656C116.927 104.656 116.525 106.053 114.616 106.184L114.518 105.741Z" fill="#7A4535"/>
<path d="M114.991 102.686C114.947 102.691 114.992 102.975 114.786 103.213C114.577 103.453 114.272 103.471 114.276 103.51C114.276 103.528 114.352 103.553 114.479 103.537C114.603 103.52 114.779 103.45 114.908 103.305C115.036 103.157 115.072 102.984 115.062 102.866C115.055 102.746 115.011 102.682 114.993 102.686L114.991 102.686Z" fill="#010D13"/>
<path d="M114.593 99.534C114.63 99.6008 114.885 99.5238 115.195 99.5112C115.505 99.4917 115.765 99.5416 115.795 99.4723C115.809 99.4399 115.756 99.3801 115.645 99.3275C115.535 99.2748 115.369 99.2362 115.183 99.246C114.997 99.2559 114.834 99.3118 114.73 99.3744C114.625 99.4371 114.579 99.5018 114.595 99.534L114.593 99.534Z" fill="#010D13"/>
<path d="M112.239 100.142C112.295 100.193 112.464 100.102 112.678 100.065C112.892 100.02 113.082 100.04 113.114 99.9708C113.128 99.9385 113.089 99.8832 113.001 99.8397C112.914 99.7962 112.776 99.7736 112.629 99.8018C112.482 99.83 112.363 99.9042 112.298 99.9782C112.232 100.052 112.216 100.117 112.242 100.142L112.239 100.142Z" fill="#010D13"/>
<path d="M111.607 99.3367C111.607 99.3367 112.649 99.686 113.842 98.8793C114.624 98.3507 115.574 98.0177 115.811 98.1598C116.048 98.2997 116.205 99.1618 117.068 99.3041C117.068 99.3041 117.225 100.964 117.873 100.819C118.334 100.716 118.059 98.8856 117.863 97.8415C117.783 97.4243 117.426 97.1164 117.001 97.1017L115.789 97.0598L114.278 97.4893L112.657 97.9377L111.425 98.4562L111.605 99.3367L111.607 99.3367Z" fill="#010D13"/>
<path d="M117.727 100.149C117.752 100.13 118.754 99.5984 118.944 100.698C119.134 101.797 117.994 101.762 117.987 101.73C117.98 101.698 117.727 100.149 117.727 100.149Z" fill="#FFDED1"/>
<path d="M118.25 101.254C118.25 101.254 118.271 101.263 118.305 101.272C118.34 101.281 118.395 101.281 118.447 101.251C118.555 101.188 118.621 100.987 118.593 100.787C118.579 100.685 118.542 100.596 118.493 100.522C118.447 100.448 118.385 100.4 118.325 100.4C118.265 100.396 118.229 100.44 118.222 100.472C118.213 100.504 118.222 100.525 118.217 100.53C118.215 100.532 118.19 100.516 118.192 100.468C118.192 100.445 118.201 100.417 118.224 100.391C118.247 100.366 118.283 100.347 118.325 100.345C118.41 100.335 118.5 100.402 118.553 100.48C118.611 100.561 118.655 100.662 118.671 100.775C118.702 100.999 118.624 101.225 118.475 101.297C118.402 101.329 118.333 101.318 118.296 101.298C118.257 101.277 118.248 101.252 118.25 101.249L118.25 101.254Z" fill="#7A4535"/>
<path d="M112.123 96.5445C112.123 96.5445 112.162 96.602 112.238 96.6917C112.314 96.7814 112.453 96.8893 112.653 96.9578C112.853 97.0286 113.108 97.0462 113.384 96.9876C113.659 96.9336 113.951 96.815 114.268 96.7032C114.582 96.5914 114.906 96.5119 115.207 96.5316C115.508 96.5444 115.771 96.6819 115.921 96.8521C116.078 97.0199 116.14 97.2065 116.141 97.3333C116.146 97.4602 116.114 97.5272 116.109 97.5249C116.098 97.5249 116.114 97.4557 116.095 97.3381C116.078 97.2228 116.011 97.057 115.861 96.9122C115.714 96.7628 115.481 96.6506 115.201 96.6446C114.922 96.6317 114.617 96.7089 114.307 96.8184C113.997 96.9278 113.697 97.0488 113.405 97.0982C113.115 97.1546 112.835 97.1255 112.625 97.0386C112.414 96.9563 112.273 96.8276 112.201 96.7218C112.13 96.6182 112.116 96.5468 112.123 96.5445Z" fill="#FF8A6F"/>
<path d="M115.829 97.5863C115.829 97.5863 115.774 97.5288 115.659 97.4485C115.546 97.3681 115.355 97.2927 115.106 97.2866C114.858 97.2759 114.569 97.3484 114.271 97.4947C113.97 97.6341 113.656 97.8405 113.275 97.9663C112.506 98.2181 111.749 98.0177 111.311 97.7586C111.085 97.6302 110.926 97.4923 110.827 97.3889C110.728 97.2831 110.682 97.2187 110.689 97.2141C110.707 97.1956 110.906 97.4532 111.352 97.6846C111.787 97.9161 112.51 98.0935 113.24 97.8534C113.6 97.7346 113.914 97.5352 114.227 97.3957C114.534 97.2516 114.851 97.1791 115.113 97.2035C115.375 97.2211 115.58 97.3173 115.688 97.4138C115.801 97.5102 115.836 97.5862 115.831 97.5886L115.829 97.5863Z" fill="#FF8A6F"/>
<path d="M112.487 116.339L107.135 111.793L105.376 112.198C105.376 112.198 107.244 116.061 108.591 117.475C108.591 117.475 109.923 119.254 112.109 118.476C114.294 117.698 112.488 116.341 112.488 116.341L112.487 116.339Z" fill="#FFDED1"/>
<path d="M106.714 106.766L104.446 106.773C104.104 106.775 103.797 107.175 103.922 107.502L106.22 111.952C106.308 112.125 106.487 112.233 106.68 112.232L109.445 112.216C109.762 112.171 109.876 111.817 109.744 111.627L107.528 107.268C107.375 106.957 107.059 106.762 106.714 106.763L106.714 106.766Z" fill="#FF8A6F"/>
<path d="M106.562 107.036L104.293 107.044C104.008 107.045 103.825 107.346 103.957 107.599L106.199 111.953C106.287 112.125 106.467 112.233 106.66 112.232L109.395 112.223C109.563 112.223 109.67 112.047 109.594 111.897L107.377 107.539C107.224 107.228 106.909 107.033 106.564 107.034L106.562 107.036Z" fill="#010D13"/>
<path d="M106.375 108.862L104.995 109.42L104.703 110.537L105.372 112.195L107.812 112.542L107.095 111.811L107.185 111.172C107.185 111.172 107.864 110.955 107.88 110.851C107.896 110.748 107.793 110.397 107.69 110.379C107.586 110.363 106.873 110.631 106.873 110.631C106.873 110.631 107.716 109.957 107.69 109.849C107.667 109.74 107.574 109.466 107.406 109.435C107.238 109.405 105.875 110.053 105.875 110.053L105.656 110.562L105.461 109.753C105.461 109.753 106.671 109.407 106.37 108.857L106.375 108.862Z" fill="#FFDED1"/>
<path d="M106.558 111.479C106.558 111.479 106.523 111.43 106.511 111.34C106.497 111.25 106.504 111.121 106.551 110.99C106.599 110.858 106.679 110.756 106.746 110.696C106.814 110.636 106.865 110.615 106.87 110.622C106.883 110.638 106.705 110.768 106.618 111.015C106.527 111.257 106.578 111.474 106.558 111.479Z" fill="#7A4535"/>
<path d="M105.9 111.239C105.9 111.239 105.941 111.103 105.954 110.877C105.965 110.763 105.969 110.623 106.022 110.475C106.049 110.401 106.086 110.325 106.147 110.26C106.209 110.195 106.289 110.151 106.372 110.116C106.703 109.995 106.999 109.897 107.217 109.825C107.435 109.755 107.571 109.716 107.573 109.725C107.575 109.734 107.447 109.79 107.233 109.871C107.022 109.955 106.724 110.062 106.4 110.181C106.322 110.213 106.251 110.253 106.198 110.306C106.145 110.359 106.109 110.429 106.084 110.496C106.031 110.632 106.02 110.768 106.005 110.881C105.978 111.112 105.909 111.243 105.9 111.239Z" fill="#7A4535"/>
<path d="M105.583 110.99C105.564 110.988 105.566 110.866 105.591 110.718C105.616 110.571 105.65 110.453 105.668 110.457C105.687 110.46 105.685 110.582 105.66 110.729C105.635 110.877 105.601 110.995 105.583 110.99Z" fill="#7A4535"/>
<path d="M105.535 107.879C105.536 108.038 105.665 108.17 105.826 108.169C105.987 108.168 106.115 108.039 106.114 107.877C106.114 107.716 105.985 107.587 105.824 107.588C105.663 107.588 105.535 107.718 105.535 107.879Z" fill="#FAFAFA"/>
<defs>
<linearGradient id="paint0_linear_5268_3268" x1="182.612" y1="-74.7766" x2="182.612" y2="224.719" gradientUnits="userSpaceOnUse">
<stop stop-color="#FFD1D1"/>
<stop offset="1" stop-color="#FFD600"/>
</linearGradient>
<linearGradient id="paint1_linear_5268_3268" x1="42.5129" y1="59.2461" x2="269.144" y2="302.806" gradientUnits="userSpaceOnUse">
<stop stop-color="#FF8177"/>
<stop offset="1" stop-color="#B22B5B"/>
</linearGradient>
<linearGradient id="paint2_linear_5268_3268" x1="68.4982" y1="91.3899" x2="51.2776" y2="137.86" gradientUnits="userSpaceOnUse">
<stop offset="0.16" stop-color="#FF8F66"/>
<stop offset="0.39" stop-color="#B16958"/>
<stop offset="0.61" stop-color="#6F494C"/>
<stop offset="0.79" stop-color="#3F3244"/>
<stop offset="0.92" stop-color="#21243E"/>
<stop offset="1" stop-color="#171F3D"/>
</linearGradient>
<linearGradient id="paint3_linear_5268_3268" x1="96.5765" y1="87.9867" x2="79.3526" y2="134.46" gradientUnits="userSpaceOnUse">
<stop offset="0.16" stop-color="#FF8F66"/>
<stop offset="0.39" stop-color="#B16958"/>
<stop offset="0.61" stop-color="#6F494C"/>
<stop offset="0.79" stop-color="#3F3244"/>
<stop offset="0.92" stop-color="#21243E"/>
<stop offset="1" stop-color="#171F3D"/>
</linearGradient>
<linearGradient id="paint4_linear_5268_3268" x1="111.592" y1="90.8886" x2="94.3715" y2="137.362" gradientUnits="userSpaceOnUse">
<stop offset="0.16" stop-color="#FF8F66"/>
<stop offset="0.39" stop-color="#B16958"/>
<stop offset="0.61" stop-color="#6F494C"/>
<stop offset="0.79" stop-color="#3F3244"/>
<stop offset="0.92" stop-color="#21243E"/>
<stop offset="1" stop-color="#171F3D"/>
</linearGradient>
<linearGradient id="paint5_linear_5268_3268" x1="105.776" y1="80.9109" x2="86.795" y2="132.131" gradientUnits="userSpaceOnUse">
<stop offset="0.16" stop-color="#FF8F66"/>
<stop offset="0.39" stop-color="#B16958"/>
<stop offset="0.61" stop-color="#6F494C"/>
<stop offset="0.79" stop-color="#3F3244"/>
<stop offset="0.92" stop-color="#21243E"/>
<stop offset="1" stop-color="#171F3D"/>
</linearGradient>
<linearGradient id="paint6_linear_5268_3268" x1="94.368" y1="71.2979" x2="69.4034" y2="138.657" gradientUnits="userSpaceOnUse">
<stop offset="0.16" stop-color="#FF8F66"/>
<stop offset="0.39" stop-color="#B16958"/>
<stop offset="0.61" stop-color="#6F494C"/>
<stop offset="0.79" stop-color="#3F3244"/>
<stop offset="0.92" stop-color="#21243E"/>
<stop offset="1" stop-color="#171F3D"/>
</linearGradient>
<linearGradient id="paint7_linear_5268_3268" x1="74.4573" y1="97.8416" x2="59.0217" y2="143.565" gradientUnits="userSpaceOnUse">
<stop offset="0.16" stop-color="#FF8F66"/>
<stop offset="0.28" stop-color="#C9745C"/>
<stop offset="0.42" stop-color="#935B52"/>
<stop offset="0.55" stop-color="#66454B"/>
<stop offset="0.68" stop-color="#443444"/>
<stop offset="0.8" stop-color="#2B2840"/>
<stop offset="0.91" stop-color="#1C213D"/>
<stop offset="1" stop-color="#171F3D"/>
</linearGradient>
<linearGradient id="paint8_linear_5268_3268" x1="101.531" y1="97.4631" x2="86.0958" y2="143.19" gradientUnits="userSpaceOnUse">
<stop offset="0.16" stop-color="#FF8F66"/>
<stop offset="0.28" stop-color="#C9745C"/>
<stop offset="0.42" stop-color="#935B52"/>
<stop offset="0.55" stop-color="#66454B"/>
<stop offset="0.68" stop-color="#443444"/>
<stop offset="0.8" stop-color="#2B2840"/>
<stop offset="0.91" stop-color="#1C213D"/>
<stop offset="1" stop-color="#171F3D"/>
</linearGradient>
<linearGradient id="paint9_linear_5268_3268" x1="442.437" y1="116.047" x2="154.304" y2="245.701" gradientUnits="userSpaceOnUse">
<stop stop-color="#FF8177"/>
<stop offset="1" stop-color="#B22B5B"/>
</linearGradient>
<linearGradient id="paint10_linear_5268_3268" x1="294.147" y1="59.4707" x2="271.296" y2="121.128" gradientUnits="userSpaceOnUse">
<stop offset="0.16" stop-color="#FF8F66"/>
<stop offset="0.39" stop-color="#B16958"/>
<stop offset="0.61" stop-color="#6F494C"/>
<stop offset="0.79" stop-color="#3F3244"/>
<stop offset="0.92" stop-color="#21243E"/>
<stop offset="1" stop-color="#171F3D"/>
</linearGradient>
<linearGradient id="paint11_linear_5268_3268" x1="331.396" y1="54.9592" x2="308.546" y2="116.617" gradientUnits="userSpaceOnUse">
<stop offset="0.16" stop-color="#FF8F66"/>
<stop offset="0.39" stop-color="#B16958"/>
<stop offset="0.61" stop-color="#6F494C"/>
<stop offset="0.79" stop-color="#3F3244"/>
<stop offset="0.92" stop-color="#21243E"/>
<stop offset="1" stop-color="#171F3D"/>
</linearGradient>
<linearGradient id="paint12_linear_5268_3268" x1="351.319" y1="58.8058" x2="328.468" y2="120.463" gradientUnits="userSpaceOnUse">
<stop offset="0.16" stop-color="#FF8F66"/>
<stop offset="0.39" stop-color="#B16958"/>
<stop offset="0.61" stop-color="#6F494C"/>
<stop offset="0.79" stop-color="#3F3244"/>
<stop offset="0.92" stop-color="#21243E"/>
<stop offset="1" stop-color="#171F3D"/>
</linearGradient>
<linearGradient id="paint13_linear_5268_3268" x1="343.602" y1="45.5715" x2="318.421" y2="113.524" gradientUnits="userSpaceOnUse">
<stop offset="0.16" stop-color="#FF8F66"/>
<stop offset="0.39" stop-color="#B16958"/>
<stop offset="0.61" stop-color="#6F494C"/>
<stop offset="0.79" stop-color="#3F3244"/>
<stop offset="0.92" stop-color="#21243E"/>
<stop offset="1" stop-color="#171F3D"/>
</linearGradient>
<linearGradient id="paint14_linear_5268_3268" x1="328.468" y1="32.8144" x2="295.348" y2="122.186" gradientUnits="userSpaceOnUse">
<stop offset="0.16" stop-color="#FF8F66"/>
<stop offset="0.39" stop-color="#B16958"/>
<stop offset="0.61" stop-color="#6F494C"/>
<stop offset="0.79" stop-color="#3F3244"/>
<stop offset="0.92" stop-color="#21243E"/>
<stop offset="1" stop-color="#171F3D"/>
</linearGradient>
<linearGradient id="paint15_linear_5268_3268" x1="302.047" y1="68.0299" x2="281.569" y2="128.697" gradientUnits="userSpaceOnUse">
<stop offset="0.16" stop-color="#FF8F66"/>
<stop offset="0.28" stop-color="#C9745C"/>
<stop offset="0.42" stop-color="#935B52"/>
<stop offset="0.55" stop-color="#66454B"/>
<stop offset="0.68" stop-color="#443444"/>
<stop offset="0.8" stop-color="#2B2840"/>
<stop offset="0.91" stop-color="#1C213D"/>
<stop offset="1" stop-color="#171F3D"/>
</linearGradient>
<linearGradient id="paint16_linear_5268_3268" x1="337.97" y1="67.5286" x2="317.492" y2="128.195" gradientUnits="userSpaceOnUse">
<stop offset="0.16" stop-color="#FF8F66"/>
<stop offset="0.28" stop-color="#C9745C"/>
<stop offset="0.42" stop-color="#935B52"/>
<stop offset="0.55" stop-color="#66454B"/>
<stop offset="0.68" stop-color="#443444"/>
<stop offset="0.8" stop-color="#2B2840"/>
<stop offset="0.91" stop-color="#1C213D"/>
<stop offset="1" stop-color="#171F3D"/>
</linearGradient>
<linearGradient id="paint17_linear_5268_3268" x1="374.506" y1="148.573" x2="38.8141" y2="282.755" gradientUnits="userSpaceOnUse">
<stop stop-color="#FF8177"/>
<stop offset="1" stop-color="#B22B5B"/>
</linearGradient>
</defs>
</svg>
