<svg width="375" height="172" viewBox="0 0 375 172" fill="none" xmlns="http://www.w3.org/2000/svg">
<defs>
<linearGradient id="paint0_linear_2055_257" x1="47.3987" y1="10.7725" x2="345.077" y2="249.035" gradientUnits="userSpaceOnUse">
<stop stop-color="#E9E9E9"/>
<stop offset="1" stop-color="#D6D6D6"/>
</linearGradient>
<linearGradient id="paint1_linear_2055_257" x1="223" y1="149" x2="349.512" y2="43.5151" gradientUnits="userSpaceOnUse">
<stop stop-color="#F1F1F1"/>
<stop offset="1" stop-color="#E7E7E7"/>
</linearGradient>
<linearGradient id="paint2_linear_2055_257" x1="236.5" y1="156.5" x2="235.507" y2="81" gradientUnits="userSpaceOnUse">
<stop stop-color="#F6F6F6"/>
<stop offset="1" stop-color="#D5D5D5"/>
</linearGradient>
<linearGradient id="paint3_linear_2055_257" x1="56.1501" y1="71.0574" x2="56.1501" y2="111.129" gradientUnits="userSpaceOnUse">
<stop stop-color="#CCCCCC"/>
<stop offset="1" stop-color="#F2F2F2"/>
</linearGradient>
<linearGradient id="paint4_linear_2055_257" x1="84.0929" y1="67.0187" x2="84.0929" y2="112.82" gradientUnits="userSpaceOnUse">
<stop stop-color="#CCCCCC"/>
<stop offset="1" stop-color="#F2F2F2"/>
</linearGradient>
<linearGradient id="paint5_linear_2055_257" x1="99.1101" y1="70.4114" x2="99.1101" y2="112.82" gradientUnits="userSpaceOnUse">
<stop stop-color="#CCCCCC"/>
<stop offset="1" stop-color="#F2F2F2"/>
</linearGradient>
<linearGradient id="paint6_linear_2055_257" x1="91.5208" y1="59.7506" x2="91.5208" y2="112.026" gradientUnits="userSpaceOnUse">
<stop stop-color="#CCCCCC"/>
<stop offset="1" stop-color="#F2F2F2"/>
</linearGradient>
<linearGradient id="paint7_linear_2055_257" x1="74.2349" y1="52.0001" x2="74.2349" y2="110.224" gradientUnits="userSpaceOnUse">
<stop stop-color="#CCCCCC"/>
<stop offset="1" stop-color="#F2F2F2"/>
</linearGradient>
<linearGradient id="paint8_linear_2055_257" x1="64.5608" y1="82.8464" x2="64.5608" y2="111.671" gradientUnits="userSpaceOnUse">
<stop stop-color="#CCCCCC"/>
<stop offset="1" stop-color="#F2F2F2"/>
</linearGradient>
<linearGradient id="paint9_linear_2055_257" x1="91.5211" y1="82.364" x2="91.5211" y2="112.82" gradientUnits="userSpaceOnUse">
<stop stop-color="#CCCCCC"/>
<stop offset="1" stop-color="#F2F2F2"/>
</linearGradient>
<linearGradient id="paint10_linear_2055_257" x1="276.166" y1="25.2847" x2="276.166" y2="78.4455" gradientUnits="userSpaceOnUse">
<stop stop-color="#BCBEBF"/>
<stop offset="1" stop-color="#D6D6D6"/>
</linearGradient>
<linearGradient id="paint11_linear_2055_257" x1="313.238" y1="19.9263" x2="313.238" y2="80.694" gradientUnits="userSpaceOnUse">
<stop stop-color="#BCBEBF"/>
<stop offset="1" stop-color="#D6D6D6"/>
</linearGradient>
<linearGradient id="paint12_linear_2055_257" x1="333.163" y1="24.4275" x2="333.163" y2="80.6941" gradientUnits="userSpaceOnUse">
<stop stop-color="#BCBEBF"/>
<stop offset="1" stop-color="#D6D6D6"/>
</linearGradient>
<linearGradient id="paint13_linear_2055_257" x1="323.094" y1="10.2861" x2="323.094" y2="79.6376" gradientUnits="userSpaceOnUse">
<stop stop-color="#BCBEBF"/>
<stop offset="1" stop-color="#D6D6D6"/>
</linearGradient>
<linearGradient id="paint14_linear_2055_257" x1="300.159" y1="0" x2="300.159" y2="77.2494" gradientUnits="userSpaceOnUse">
<stop stop-color="#BCBEBF"/>
<stop offset="1" stop-color="#D6D6D6"/>
</linearGradient>
<linearGradient id="paint15_linear_2055_257" x1="287.325" y1="40.925" x2="287.325" y2="79.167" gradientUnits="userSpaceOnUse">
<stop stop-color="#BCBEBF"/>
<stop offset="1" stop-color="#D6D6D6"/>
</linearGradient>
<linearGradient id="paint16_linear_2055_257" x1="323.094" y1="40.2832" x2="323.094" y2="80.694" gradientUnits="userSpaceOnUse">
<stop stop-color="#BCBEBF"/>
<stop offset="1" stop-color="#D6D6D6"/>
</linearGradient>
</defs>
<path d="M374.861 91.6699C374.861 91.6699 359.869 69.0803 296.701 68.3507C233.533 67.6211 215.983 75.6387 175.372 54.5044C134.762 33.37 89.1969 8.59564 0 36.2884C0 37.3648 0 155.069 0 155.069H374.861V91.6699Z" fill="url(#paint0_linear_2055_257)"/>
<path d="M0.00390625 143.635C0.00390625 143.635 14.9996 107.972 78.1912 106.82C141.383 105.668 158.938 118.326 199.564 84.96C240.19 51.598 285.771 12.4829 375 56.1988V171H0.00390625L0.00390625 143.631V143.635Z" fill="url(#paint1_linear_2055_257)"/>
<path d="M0.00390625 146.011C0.00390625 146.011 14.9996 116.672 78.1912 115.727C141.383 114.782 158.938 140.96 199.564 113.514C240.19 86.0684 285.771 53.8905 375 89.852V172H0.00390625L0.00390625 146.015V146.011Z" fill="url(#paint2_linear_2055_257)"/>
<path d="M47.3906 109.287L47 111.129H65.3002L65.1089 110.34L61.1387 108.956L60.8597 106.453L64.4193 107.513L62.1073 98.0205L59.4087 96.633L59.0739 95.2297L61.6489 96.1347L59.0061 85.2984L57.3479 84.509V82.711L58.468 83.0937L55.5342 71.0574L54.7171 74.8927L55.2831 74.5259L54.9483 75.726L54.3982 76.3957L53.6249 80.0278L54.9483 79.1706L54.6732 80.1195L53.4097 81.0484L51.5601 89.7159L53.5013 88.6075V89.8395L51.305 90.9279L50.9941 92.3871L52.9991 91.5379L52.7758 92.2635L50.8227 93.1765L49.2522 100.548L51.3807 99.1966V101.904L48.5944 103.646L47.9009 106.903L51.1575 104.862V106.943L47.3906 109.287Z" fill="url(#paint3_linear_2055_257)"/>
<path d="M83.1024 112.82H84.4059L84.3142 107.589H93.3586L93.0437 106.301L89.0736 104.918L88.7945 102.414L92.3541 103.475L90.0422 93.9818L87.3436 92.5944L87.0088 91.191L89.5838 92.096L86.941 81.2597L85.2828 80.4703V78.6763L86.4029 79.055L83.4691 67.0187L82.652 70.854L83.218 70.4872L82.8832 71.6873L82.3331 72.357L81.5598 75.9931L82.8832 75.1319L82.6041 76.0808L81.3405 77.0097L79.495 85.6772L81.4362 84.5688V85.8008L79.2399 86.8892L78.925 88.3484L80.9339 87.4992L80.7108 88.2248L78.7576 89.1378L77.187 96.5095L79.3156 95.1579V97.869L76.5293 99.6113L75.8358 102.868L79.0924 100.827V102.904L75.3255 105.249L74.8273 107.589H83.1383L83.1024 112.82Z" fill="url(#paint4_linear_2055_257)"/>
<path d="M98.1415 112.82H99.3652L99.3334 110.982H108.374L108.059 109.694L104.089 108.311L103.81 105.807L107.373 106.867L105.057 97.3745L102.363 95.9871L102.028 94.5798L104.599 95.4887L101.956 84.6525L100.298 83.8631V82.065L101.418 82.4477L98.4883 70.4114L97.6711 74.2468L98.2372 73.88L97.9024 75.08L97.3483 75.7498L96.575 79.3818L97.9024 78.5207L97.6233 79.4736L96.3598 80.4025L94.5142 89.0699L96.4514 87.9615V89.1895L94.2551 90.2819L93.9442 91.7411L95.9492 90.8919L95.7259 91.6175L93.7767 92.5305L92.2062 99.9022L94.3348 98.5507V101.258L91.5445 103L90.8509 106.257L94.1116 104.216V106.297L90.3447 108.641L89.8464 110.982H98.1575L98.1415 112.82Z" fill="url(#paint5_linear_2055_257)"/>
<path d="M101.733 104.467L101.386 103.048L97.0097 101.525L96.7028 98.7621L100.625 99.9302L98.078 89.4687L95.1043 87.9417L94.7376 86.3908L97.5717 87.3916L94.6579 75.4469L92.8322 74.5778V72.5963L94.068 73.0189L90.8353 59.7506L89.9344 63.9807L90.5562 63.574L90.1895 64.8977L89.5796 65.6352L88.7266 69.642L90.1895 68.6932L89.8826 69.7377L88.4874 70.7623L86.4545 80.3189L88.5911 79.0949V80.4504L86.1675 81.6505L85.8247 83.2612L88.037 82.3242L87.7939 83.1256L85.6414 84.1303L83.9114 92.2555L86.2552 90.7644V93.7506L83.1819 95.6723L82.4206 99.2604L86.012 97.0118V99.3043L81.8586 101.888L81.3085 104.467H90.4685L90.4167 112.026H91.8995L91.768 104.467H101.733Z" fill="url(#paint6_linear_2055_257)"/>
<path d="M61.5372 107.414L60.9393 110.224H87.5306L87.2196 108.94L81.4597 106.935L81.0571 103.303L86.2191 104.842L82.8668 91.0793L78.9565 89.0739L78.4702 87.0367L82.2012 88.3484L78.3705 72.6441L75.9669 71.4959V68.8925L77.5932 69.4466L73.3401 52.0001L72.1562 57.5578L72.9773 57.0275L72.491 58.7658L71.6938 59.7346L70.5697 65.0053L72.491 63.7574L72.0884 65.1328L70.2548 66.4804L67.5801 79.047L70.3904 77.4403V79.2224L67.2055 80.8012L66.755 82.9182L69.6649 81.6863L69.342 82.7388L66.5119 84.0585L64.2358 94.7472L67.321 92.7857V96.7128L63.2792 99.2404L62.2707 103.961L66.9982 101.003V104.017L61.5372 107.414Z" fill="url(#paint7_linear_2055_257)"/>
<path d="M58.1053 111.161L57.9778 111.671H71.1439L70.8728 110.4L68.1583 108.713V107.214L70.5061 108.685L70.0078 106.337L67.9988 105.081V103.128L69.5335 104.104L68.4014 98.7899L66.9943 98.132L66.8349 97.6098L68.2778 98.2197L68.0546 97.1673L66.4721 96.3818V95.4967L67.8673 96.2941L66.5399 90.0467L65.6271 89.3769L65.4278 88.6952L66.3805 89.3131L65.8224 86.6938L65.4278 86.2113L65.1846 85.3462L65.5952 85.6133L65.0053 82.8464L62.8886 91.5218L63.6978 91.2467V92.5425L62.502 93.1126L60.6006 100.923L62.4542 100.269L62.211 101.282L60.2698 102.282L58.5996 109.124L61.1667 108.358L60.9674 110.164L58.1053 111.161Z" fill="url(#paint8_linear_2055_257)"/>
<path d="M91.3377 112.82H92.2186L92.2107 111.604H98.1978L97.839 109.917L95.1245 108.227V106.728L97.4723 108.199L96.974 105.851L94.9651 104.595V102.645L96.4997 103.618L95.3677 98.3035L93.9606 97.6456L93.7971 97.1233L95.2441 97.7373L95.0209 96.6848L93.4384 95.8994V95.0103L94.8335 95.8117L93.5021 89.5643L92.5933 88.8945L92.394 88.2087L93.3467 88.8307L92.7886 86.2074L92.394 85.7289L92.1509 84.8637L92.5574 85.1269L91.9715 82.364L89.8549 91.0354L90.6641 90.7643V92.056L89.4682 92.6262L87.5668 100.436L89.4204 99.7826L89.1772 100.795L87.232 101.796L85.5658 108.637L88.1329 107.876L87.9336 109.678L85.0676 110.675L84.8444 111.604H91.3616L91.3377 112.82Z" fill="url(#paint9_linear_2055_257)"/>
<path d="M264.545 76.0055L264.026 78.4455H288.306L288.055 77.4009L282.785 75.567L282.414 72.2419L287.138 73.6493L284.068 61.0548L280.493 59.2168L280.047 57.351L283.459 58.5551L279.955 44.1784L277.755 43.1299V40.7457L279.241 41.2521L275.351 25.2847L274.267 30.3719L275.016 29.8855L274.574 31.4763L273.84 32.3653L272.816 37.1854L274.574 36.0452L274.203 37.3051L272.529 38.537L270.077 50.0391L272.648 48.5679V50.1986L269.734 51.6458L269.324 53.5834L271.983 52.4551L271.688 53.42L269.101 54.628L267.016 64.4077L269.838 62.6176V66.2098L266.139 68.5222L265.218 72.8439L269.543 70.1369V72.8958L264.545 76.0055Z" fill="url(#paint10_linear_2055_257)"/>
<path d="M311.927 80.694H313.657L313.533 73.7529H325.531L325.113 72.0465L319.847 70.2086L319.476 66.8875L324.2 68.2909L321.131 55.6964L317.551 53.8584L317.109 51.9926L320.521 53.1966L317.017 38.82L314.817 37.7715V35.3913L316.304 35.8936L312.413 19.9263L311.329 25.0135L312.078 24.5271L311.636 26.1218L310.902 27.0069L309.878 31.831L311.636 30.6868L311.265 31.9467L309.587 33.1826L307.139 44.6807L309.71 43.2095V44.8442L306.797 46.2874L306.382 48.225L309.045 47.1007L308.75 48.0615L306.163 49.2696L304.078 59.0533L306.9 57.2592V60.8514L303.201 63.1638L302.28 67.4855L306.605 64.7785V67.5373L301.607 70.6471L300.945 73.7529H311.971L311.927 80.694Z" fill="url(#paint11_linear_2055_257)"/>
<path d="M331.881 80.6941H333.5L333.456 78.2501H345.454L345.039 76.5438L339.77 74.7098L339.399 71.3848L344.123 72.7921L341.053 60.1976L337.478 58.3597L337.031 56.4938L340.443 57.6979L336.94 43.3212L334.739 42.2727V39.8885L336.226 40.3949L332.336 24.4275L331.252 29.5147L332.001 29.0283L331.558 30.6191L330.825 31.5082L329.801 36.3283L331.558 35.1881L331.188 36.4479L329.514 37.6799L327.062 49.1819L329.637 47.7108V49.3414L326.719 50.7886L326.309 52.7263L328.967 51.598L328.673 52.5628L326.086 53.7708L324.001 63.5506L326.823 61.7605V65.3526L323.124 67.665L322.203 71.9868L326.528 69.2797V72.0386L321.529 75.1484L320.872 78.2501H331.897L331.881 80.6941Z" fill="url(#paint12_linear_2055_257)"/>
<path d="M336.641 69.6067L336.182 67.7289L330.375 65.7035L329.968 62.0436L335.174 63.5905L331.79 49.7122L327.847 47.6829L327.357 45.6297L331.12 46.9533L327.257 31.1095L324.83 29.9534V27.326L326.472 27.8841L322.183 10.2861L320.987 15.8917L321.816 15.3574L321.326 17.1116L320.521 18.0884L319.389 23.4029L321.326 22.147L320.92 23.5345L319.07 24.894L316.371 37.5682L319.206 35.9496V37.7476L315.993 39.3384L315.538 41.4753L318.472 40.2314L318.145 41.292L315.291 42.6275L312.995 53.408L316.108 51.4306V55.3935L312.031 57.9411L311.018 62.7014L315.782 59.7192V62.7612L310.273 66.1859L309.547 69.6067H321.697L321.629 79.6376H323.594L323.419 69.6067H336.641Z" fill="url(#paint13_linear_2055_257)"/>
<path d="M283.312 73.5177L282.518 77.2494H317.799L317.385 75.543L309.747 72.8838L309.213 68.0677L316.061 70.105L311.609 51.8491L306.423 49.1859L305.781 46.4828L310.728 48.2251L305.65 27.3857L302.457 25.8668V22.4141L304.613 23.1437L298.973 0L297.403 7.37569L298.491 6.67001L297.849 8.97837L296.785 10.2622L295.298 17.2511L297.849 15.5966L297.311 17.4226L294.879 19.2127L291.332 35.8818L295.059 33.7487V36.117L290.833 38.2101L290.236 41.0168L294.094 39.3862L293.668 40.7816L289.913 42.5318L286.891 56.7131L290.985 54.1137V59.3205L285.624 62.6734L284.288 68.9368L290.554 65.0137V69.0126L283.312 73.5177Z" fill="url(#paint14_linear_2055_257)"/>
<path d="M278.759 78.4893L278.591 79.167H296.058L295.7 77.4846L292.096 75.244V73.2545L295.213 75.2041L294.552 72.0904L291.885 70.4238V67.8324L293.918 69.1281L292.419 62.0754L290.554 61.2023L290.338 60.5125L292.256 61.3218L291.961 59.9264L289.86 58.8859V57.7098L291.714 58.7663L289.948 50.4776L288.74 49.5885L288.473 48.6835L289.741 49.5048L288.999 46.0283L288.473 45.3904L288.154 44.2421L288.692 44.593L287.911 40.925L285.109 52.4351L286.181 52.0684V53.7867L284.594 54.5442L282.067 64.906L284.527 64.0369L284.208 65.3845L281.629 66.7081L279.417 75.7862L282.821 74.7735L282.554 77.1696L278.759 78.4893Z" fill="url(#paint15_linear_2055_257)"/>
<path d="M322.853 80.694H324.017L324.005 79.0794H331.954L331.475 76.8388L327.876 74.5981V72.6127L330.993 74.5622L330.327 71.4485L327.66 69.782V67.1905L329.697 68.4823L328.195 61.4335L326.329 60.5604L326.114 59.8667L328.035 60.68L327.736 59.2846L325.636 58.24V57.0639L327.489 58.1244L325.723 49.8358L324.515 48.9466L324.248 48.0377L325.516 48.8629L324.779 45.3864L324.248 44.7445L323.93 43.6003L324.472 43.9511L323.69 40.2832L320.884 51.7933L321.956 51.4265V53.1448L320.37 53.9023L317.843 64.2642L320.302 63.3951L319.983 64.7426L317.404 66.0662L315.192 75.1443L318.6 74.1317L318.333 76.5238L314.534 77.8474L314.235 79.0794H322.881L322.853 80.694Z" fill="url(#paint16_linear_2055_257)"/>
<path d="M199.078 139.576C216.019 140.168 228.343 138.704 231.938 138.145C243.851 137.074 293.377 136.706 316.651 136.656C296.287 136.505 255.147 136.205 253.504 136.202L239.129 136.179C235.877 136.009 232.361 135.27 226.809 135.1C218.245 134.838 218.078 136.781 205.758 136.126C193.437 135.471 183.168 136.09 175.981 135.584C168.795 135.078 149.285 135.33 136.449 136.015C126.18 136.564 75.696 136.389 51.7376 136.234C70.7332 136.358 110.881 136.681 119.505 136.977C130.286 137.347 141.067 137.576 152.361 138.371C163.654 139.166 169.303 138.398 175.977 138.409C182.651 138.419 182.137 138.984 199.078 139.576Z" fill="#B1B1B1" fill-opacity="0.35"/>
<path d="M249.59 104.782L122.072 105.218L122.136 123.995L249.654 123.558L249.59 104.782Z" fill="#8D7F52"/>
<g opacity="0.5">
<path d="M249.589 104.781L122.071 105.218L122.135 123.994L249.654 123.558L249.589 104.781Z" fill="black"/>
</g>
<path d="M140.14 136.118C146.914 135.637 152.017 129.736 151.538 122.939C151.059 116.141 145.179 111.02 138.404 111.5C131.63 111.981 126.527 117.882 127.007 124.679C127.486 131.477 133.366 136.598 140.14 136.118Z" fill="#171C1F"/>
<path d="M126.978 123.642C126.978 123.642 126.978 123.663 126.978 123.674C126.903 130.488 132.348 136.074 139.138 136.147C145.928 136.223 151.494 130.759 151.57 123.945C151.57 123.934 151.57 123.925 151.57 123.913L126.983 123.642L126.978 123.642Z" fill="#171C1F"/>
<path d="M130.64 123.715C130.588 128.499 134.41 132.421 139.177 132.474C143.944 132.526 147.852 128.691 147.904 123.908C147.957 119.124 144.135 115.202 139.368 115.149C134.601 115.097 130.693 118.932 130.64 123.715Z" fill="#FAFAFA"/>
<path d="M139.367 115.149C134.6 115.096 130.692 118.931 130.64 123.715L147.903 123.905C147.956 119.121 144.134 115.199 139.367 115.146L139.367 115.149Z" fill="#E0E0E0"/>
<path d="M134.015 123.752C133.983 126.665 136.31 129.053 139.216 129.087C142.119 129.119 144.501 126.784 144.532 123.868C144.564 120.955 142.237 118.564 139.331 118.533C136.428 118.501 134.048 120.836 134.015 123.752Z" fill="#171C1F"/>
<path d="M234.057 135.791C240.835 135.373 245.992 129.521 245.575 122.719C245.159 115.917 239.326 110.741 232.548 111.159C225.77 111.577 220.612 117.43 221.029 124.232C221.446 131.034 227.278 136.209 234.057 135.791Z" fill="#171C1F"/>
<path d="M221.005 123.319C221.005 123.319 221.005 123.34 221.005 123.351C220.929 130.165 226.375 135.751 233.165 135.825C239.955 135.9 245.521 130.436 245.596 123.623C245.596 123.611 245.596 123.602 245.596 123.59L221.009 123.319L221.005 123.319Z" fill="#171C1F"/>
<path d="M224.666 123.393C224.613 128.176 228.435 132.098 233.202 132.151C237.969 132.204 241.877 128.369 241.93 123.585C241.982 118.801 238.161 114.88 233.393 114.827C228.626 114.774 224.718 118.609 224.666 123.393Z" fill="#FAFAFA"/>
<path d="M233.394 114.827C228.627 114.774 224.719 118.609 224.666 123.393L241.93 123.583C241.983 118.799 238.161 114.878 233.394 114.825L233.394 114.827Z" fill="#E0E0E0"/>
<path d="M228.04 123.429C228.009 126.342 230.336 128.731 233.241 128.765C236.144 128.796 238.526 126.461 238.558 123.545C238.589 120.632 236.262 118.242 233.357 118.21C230.454 118.178 228.074 120.514 228.04 123.429Z" fill="#171C1F"/>
<path d="M155.29 94.5418C155.29 94.5418 137.188 95.9438 130.482 97.4775C125.755 98.5592 116.642 100.426 116.772 106.185L117.51 110.309C117.51 110.309 114.132 111.87 114.146 115.828C114.159 119.786 113.355 125.926 121.251 126.143C122.552 126.18 125.025 126.13 125.025 126.13C125.025 126.13 123.45 109.26 138.9 108.711C154.617 108.154 153.634 125.878 153.634 125.878L219.234 125.653C219.234 125.653 216.484 108.399 233.404 108.318C250.325 108.235 247.81 125.669 247.81 125.669C247.81 125.669 254.036 126.187 256.914 120.928C259.792 115.669 259.025 111.935 259.025 111.935L258.918 108.616C258.882 107.486 257.977 106.578 256.853 106.538C256.853 106.538 257.956 98.1783 256.215 96.7381C254.475 95.298 244.937 86.6077 244.937 86.6077L245.389 86.3202C246.146 85.8402 246.011 84.692 245.162 84.402C241.547 83.1689 234.399 80.7278 232.72 80.1454C232.466 80.0586 232.207 80.0042 231.94 79.9843C230.937 79.9117 228.103 79.7392 222.897 79.7016C216.556 79.6564 191.379 79.8095 191.379 79.8095C191.379 79.8095 182.717 80.5541 177.898 82.704C172.831 84.9632 155.292 94.5418 155.292 94.5418L155.29 94.5418Z" fill="white"/>
<g opacity="0.4">
<path d="M118.734 115.353C118.076 115.221 117.069 115.211 116.57 115.66C116.198 115.993 116.101 116.529 116.048 117.027C115.972 117.708 115.935 118.407 116.101 119.073C116.264 119.739 116.655 120.374 117.256 120.699C117.857 121.025 118.682 120.969 119.146 120.467C119.572 120.009 119.618 119.321 119.605 118.694C119.585 117.804 119.654 117.049 119.488 116.176C119.455 116.01 119.367 115.798 119.261 115.669C119.086 115.457 118.952 115.368 118.736 115.355" fill="black"/>
</g>
<path d="M117.51 110.309C119.431 110.307 121.297 110.189 123.214 110.054C123.42 110.039 123.646 110.015 123.797 109.874C123.98 109.703 123.993 109.421 123.994 109.17C124 108.137 123.945 106.961 123.162 106.29C122.682 105.881 122.027 105.754 121.401 105.696C119.859 105.556 118.241 105.682 116.772 106.18L117.51 110.304L117.51 110.309Z" fill="#FAFAFA"/>
<path d="M157.475 125.337C157.475 125.337 157.468 125.282 157.459 125.173C157.451 125.06 157.439 124.899 157.425 124.689C157.4 124.26 157.364 123.633 157.317 122.828C157.269 122.021 157.212 121.032 157.093 119.888C156.97 118.747 156.791 117.447 156.402 116.055C156.011 114.666 155.416 113.187 154.537 111.735C153.654 110.294 152.496 108.854 150.947 107.743C147.837 105.539 143.643 104.301 139.262 104.263C134.867 104.225 130.698 105.633 127.684 107.966C126.162 109.108 124.902 110.441 123.935 111.832C122.958 113.22 122.246 114.645 121.747 115.998C121.241 117.352 120.977 118.642 120.829 119.777C120.667 120.915 120.696 121.909 120.726 122.716C120.791 123.521 120.865 124.145 120.958 124.56C120.995 124.768 121.026 124.927 121.045 125.037C121.063 125.146 121.07 125.201 121.07 125.201C121.07 125.201 121.057 125.148 121.033 125.04C121.01 124.929 120.977 124.77 120.933 124.565C120.832 124.15 120.752 123.525 120.678 122.718C120.641 121.911 120.605 120.913 120.76 119.77C120.903 118.628 121.161 117.333 121.664 115.971C122.163 114.611 122.873 113.174 123.852 111.777C124.821 110.376 126.085 109.032 127.617 107.88C130.647 105.529 134.844 104.108 139.264 104.146C143.67 104.186 147.883 105.431 151.014 107.655C152.576 108.78 153.739 110.234 154.624 111.684C155.505 113.145 156.101 114.635 156.487 116.032C156.874 117.433 157.046 118.737 157.162 119.881C157.277 121.027 157.326 122.016 157.366 122.826C157.403 123.633 157.43 124.258 157.45 124.689C157.46 124.899 157.467 125.06 157.472 125.173C157.477 125.282 157.475 125.339 157.475 125.339L157.475 125.337Z" fill="white"/>
<path d="M158.172 125.62C158.172 125.62 158.168 125.574 158.165 125.482C158.162 125.388 158.155 125.251 158.15 125.074C158.137 124.712 158.119 124.177 158.096 123.48C158.052 122.083 157.985 120.035 157.903 117.434C157.823 114.83 157.727 111.668 157.616 108.047C157.587 107.141 157.559 106.207 157.53 105.245C157.497 104.766 157.545 104.274 157.587 103.781C157.621 103.534 157.655 103.287 157.691 103.038C157.74 102.791 157.79 102.544 157.84 102.292C158.068 101.3 158.403 100.304 158.852 99.3342C159.304 98.3662 159.841 97.4095 160.527 96.5215L160.532 96.5146L160.539 96.5099C164.041 94.2792 167.848 91.8536 171.875 89.289C172.882 88.6466 173.903 87.9973 174.937 87.3388C175.95 86.6434 177.047 86.0492 178.178 85.5079C179.312 84.969 180.489 84.4967 181.699 84.082C182.303 83.8678 182.921 83.6904 183.538 83.5038C184.163 83.3425 184.785 83.1628 185.424 83.0314C187.867 82.4787 190.33 82.2005 192.743 82.0792C195.158 81.9579 197.528 81.9567 199.831 82.078L199.898 82.0824L199.884 82.1493C198.814 87.0334 197.805 91.6404 196.879 95.862L196.879 95.8713L196.872 95.8805C196.303 96.8281 195.849 97.8237 195.512 98.8281C195.189 99.8349 194.982 100.869 195.059 101.876C195.14 102.889 195.171 103.88 195.2 104.84C195.221 105.801 195.243 106.735 195.264 107.64C195.33 111.26 195.354 114.418 195.372 117.022C195.384 119.623 195.393 121.667 195.4 123.064C195.4 123.761 195.4 124.294 195.399 124.658C195.399 124.838 195.397 124.972 195.395 125.066C195.396 125.159 195.391 125.205 195.391 125.205C195.391 125.205 195.389 125.159 195.386 125.066C195.386 124.972 195.383 124.836 195.38 124.658C195.379 124.296 195.372 123.761 195.365 123.064C195.352 121.667 195.333 119.621 195.31 117.022C195.283 114.42 195.249 111.261 195.177 107.642C195.156 106.738 195.132 105.804 195.108 104.842C195.077 103.881 195.044 102.894 194.962 101.884C194.883 100.858 195.091 99.8121 195.416 98.7962C195.755 97.7825 196.206 96.7823 196.782 95.8232L196.775 95.8393C197.696 91.6154 198.703 87.0084 199.769 82.1243L199.822 82.1956C197.526 82.0743 195.156 82.0778 192.748 82.1991C190.34 82.3204 187.886 82.5986 185.449 83.149C184.813 83.278 184.193 83.46 183.571 83.619C182.955 83.8056 182.34 83.9807 181.739 84.1949C180.533 84.6073 179.358 85.0772 178.229 85.6139C177.103 86.1528 176.011 86.7447 175.004 87.4331C173.97 88.0917 172.949 88.741 171.942 89.381C167.91 91.9434 164.101 94.3666 160.597 96.5928L160.608 96.5812C159.931 97.4554 159.394 98.4097 158.944 99.3708C158.495 100.334 158.163 101.322 157.934 102.308C157.424 104.286 157.69 106.237 157.701 108.043C157.803 111.663 157.892 114.825 157.965 117.429C158.036 120.03 158.091 122.078 158.128 123.476C158.144 124.172 158.158 124.707 158.168 125.069C158.171 125.249 158.174 125.385 158.176 125.477C158.177 125.57 158.177 125.616 158.177 125.616L158.172 125.62Z" fill="#263238"/>
<path d="M199.749 82.47C199.749 82.47 199.786 82.4653 199.857 82.4627C199.933 82.4602 200.037 82.4552 200.175 82.4501C200.457 82.4422 200.866 82.4316 201.395 82.416C202.461 82.3916 204.003 82.3563 205.92 82.3105C209.765 82.2305 215.12 82.1222 221.176 81.9977L221.203 81.9976L221.222 82.0183C221.91 82.8578 222.632 83.741 223.368 84.638C225.543 87.2944 227.615 89.8267 229.499 92.129C229.734 92.4165 229.967 92.7017 230.196 92.9823C230.422 93.2675 230.616 93.5782 230.769 93.8983C231.072 94.543 231.228 95.2344 231.233 95.9033C231.242 96.5721 231.106 97.2184 230.869 97.7912C230.63 98.3571 230.4 98.8999 230.178 99.4196C229.296 101.487 228.582 103.161 228.085 104.326C227.837 104.901 227.645 105.349 227.511 105.656C227.445 105.804 227.394 105.919 227.358 106C227.324 106.079 227.303 106.116 227.303 106.116C227.303 106.116 227.317 106.074 227.346 105.996C227.381 105.912 227.426 105.797 227.488 105.647C227.615 105.335 227.802 104.885 228.042 104.307C228.529 103.141 229.232 101.462 230.1 99.3875C230.492 98.3437 231.185 97.2435 231.132 95.9059C231.125 95.2509 230.971 94.5757 230.672 93.9447C230.52 93.6316 230.332 93.3301 230.108 93.0495C229.878 92.7689 229.645 92.486 229.409 92.1985C227.523 89.8985 225.449 87.3686 223.272 84.7144C222.538 83.8174 221.813 82.9342 221.126 82.0947L221.172 82.1153C215.116 82.2237 209.761 82.3204 205.913 82.389C203.997 82.4186 202.455 82.4423 201.388 82.4575C200.862 82.4639 200.45 82.4676 200.168 82.4709C200.032 82.4714 199.926 82.4717 199.851 82.472C199.779 82.4722 199.743 82.4677 199.743 82.4677L199.749 82.47Z" fill="#263238"/>
<path d="M192.117 102.855C192.117 102.855 192.182 102.848 192.301 102.827C192.418 102.805 192.593 102.759 192.783 102.631C192.971 102.506 193.173 102.293 193.273 101.988C193.325 101.836 193.341 101.668 193.333 101.481C193.328 101.301 193.281 101.11 193.189 100.932C193.004 100.58 192.603 100.286 192.127 100.288C191.642 100.289 191.123 100.294 190.578 100.298C189.484 100.301 188.286 100.308 187.027 100.314C186.726 100.316 186.432 100.434 186.219 100.633C186.004 100.832 185.867 101.107 185.838 101.389C185.809 101.679 185.849 101.963 185.988 102.202C186.122 102.442 186.338 102.623 186.578 102.724C186.819 102.832 187.081 102.814 187.343 102.816C187.601 102.815 187.854 102.814 188.095 102.816C188.58 102.816 189.03 102.817 189.446 102.818C190.262 102.822 190.929 102.827 191.402 102.83C191.625 102.834 191.802 102.838 191.933 102.839C192.055 102.844 192.12 102.846 192.12 102.85C192.12 102.855 192.055 102.86 191.933 102.862C191.8 102.865 191.623 102.87 191.403 102.876C190.929 102.882 190.263 102.891 189.447 102.901C189.033 102.902 188.58 102.909 188.095 102.912C187.852 102.913 187.601 102.914 187.344 102.917C187.213 102.918 187.086 102.923 186.946 102.916C186.808 102.908 186.668 102.878 186.537 102.823C186.274 102.713 186.037 102.518 185.889 102.256C185.736 101.996 185.692 101.675 185.723 101.373C185.754 101.062 185.904 100.759 186.14 100.541C186.376 100.321 186.698 100.191 187.029 100.19C188.288 100.186 189.488 100.184 190.58 100.182C191.124 100.183 191.644 100.183 192.131 100.184C192.644 100.187 193.075 100.508 193.264 100.888C193.362 101.079 193.408 101.282 193.409 101.474C193.414 101.66 193.394 101.847 193.335 102.004C193.223 102.325 193.006 102.543 192.809 102.666C192.607 102.791 192.425 102.831 192.303 102.845C192.182 102.859 192.117 102.848 192.117 102.848L192.117 102.855Z" fill="#263238"/>
<path d="M226.117 102.739C226.117 102.739 226.182 102.731 226.301 102.71C226.418 102.689 226.593 102.642 226.783 102.515C226.971 102.39 227.173 102.177 227.273 101.872C227.325 101.72 227.343 101.551 227.333 101.364C227.328 101.185 227.281 100.993 227.189 100.816C227.004 100.464 226.603 100.17 226.127 100.171C225.642 100.173 225.123 100.177 224.578 100.181C223.484 100.185 222.286 100.192 221.027 100.198C220.726 100.199 220.432 100.318 220.219 100.517C220.004 100.716 219.867 100.991 219.838 101.272C219.809 101.563 219.849 101.847 219.988 102.086C220.122 102.325 220.338 102.507 220.578 102.608C220.819 102.715 221.081 102.698 221.343 102.7C221.601 102.699 221.854 102.698 222.095 102.699C222.58 102.7 223.03 102.701 223.446 102.702C224.262 102.706 224.929 102.71 225.402 102.713C225.625 102.717 225.802 102.721 225.933 102.723C226.055 102.727 226.12 102.729 226.12 102.734C226.12 102.739 226.055 102.743 225.933 102.746C225.8 102.749 225.623 102.754 225.403 102.759C224.929 102.766 224.263 102.775 223.447 102.785C223.033 102.786 222.58 102.792 222.095 102.796C221.852 102.797 221.601 102.798 221.344 102.801C221.213 102.801 221.086 102.807 220.946 102.8C220.808 102.791 220.668 102.762 220.537 102.707C220.274 102.597 220.037 102.402 219.889 102.139C219.736 101.879 219.692 101.559 219.723 101.257C219.754 100.945 219.904 100.643 220.14 100.425C220.376 100.205 220.698 100.075 221.029 100.074C222.288 100.069 223.488 100.067 224.58 100.066C225.124 100.067 225.644 100.067 226.131 100.068C226.644 100.071 227.075 100.392 227.264 100.772C227.362 100.963 227.408 101.166 227.409 101.357C227.414 101.544 227.394 101.731 227.335 101.888C227.223 102.209 227.006 102.426 226.809 102.549C226.607 102.675 226.425 102.714 226.303 102.729C226.182 102.743 226.117 102.732 226.117 102.732L226.117 102.739Z" fill="#263238"/>
<path d="M255.913 97.0685L249.109 97.0917C248.176 97.0949 247.323 97.6168 246.892 98.4463C246.538 99.1279 246.513 99.9329 246.823 100.635L249.512 106.708L256.325 106.618C256.325 106.618 257.746 98.905 255.913 97.0708L255.913 97.0685Z" fill="#FAFAFA"/>
<path d="M161.426 96.5348L196.527 95.7665L219.371 95.2686L226.89 90.8791C227.498 90.5242 227.658 89.7117 227.231 89.1504L222.521 82.983C222.03 82.3389 221.27 81.961 220.463 81.9568L194.909 81.8367C194.909 81.8367 185.284 81.3092 177.718 85.595C169.754 90.106 161.426 96.5371 161.426 96.5371L161.426 96.5348Z" fill="#263238"/>
<path d="M177.467 82.5322C177.467 82.5322 179.23 83.3311 178.086 84.0823C176.944 84.8312 159.197 96.1449 159.197 96.1449L155.102 94.3023C162.33 90.2275 169.633 86.2724 177.467 82.5345L177.467 82.5322Z" fill="#455A64"/>
<path d="M159.774 96.4227C159.774 96.4227 159.737 96.4344 159.663 96.4508C159.585 96.4672 159.477 96.4929 159.34 96.5234C159.05 96.5843 158.63 96.6734 158.093 96.786C157.008 97.0065 155.437 97.3163 153.49 97.6574C149.594 98.3442 144.182 99.1469 138.168 99.691C136.666 99.8276 135.195 99.9411 133.775 100.038C132.355 100.138 130.986 100.228 129.685 100.352C127.084 100.589 124.753 100.978 122.861 101.549C120.964 102.102 119.514 102.809 118.562 103.365C118.073 103.625 117.727 103.88 117.479 104.033C117.36 104.11 117.268 104.17 117.2 104.212C117.135 104.251 117.101 104.27 117.101 104.27C117.101 104.27 117.131 104.244 117.19 104.203C117.257 104.156 117.346 104.094 117.463 104.013C117.706 103.853 118.05 103.591 118.537 103.324C119.484 102.753 120.934 102.031 122.835 101.466C124.732 100.881 127.068 100.483 129.673 100.241C130.976 100.115 132.345 100.02 133.766 99.9206C135.186 99.8212 136.654 99.7078 138.157 99.5711C144.167 99.0293 149.577 98.2405 153.475 97.5744C155.426 97.2425 156.997 96.9465 158.085 96.7399C158.625 96.6365 159.046 96.5544 159.337 96.498C159.477 96.4722 159.585 96.4533 159.663 96.4369C159.737 96.4251 159.776 96.4204 159.776 96.4204L159.774 96.4227Z" fill="#263238"/>
<path d="M258.682 111.858C258.682 111.89 256.343 111.926 253.458 111.935C250.574 111.945 248.232 111.926 248.232 111.893C248.232 111.861 250.571 111.825 253.458 111.815C256.345 111.806 258.682 111.825 258.682 111.858Z" fill="#263238"/>
<path d="M215.901 117.996C215.901 118.028 202.694 118.101 186.406 118.157C170.117 118.213 156.908 118.23 156.908 118.198C156.908 118.166 170.112 118.093 186.405 118.037C202.699 117.981 215.9 117.964 215.901 117.996Z" fill="#263238"/>
<path d="M123.409 112.519C123.409 112.551 121.54 112.585 119.237 112.593C116.934 112.601 115.066 112.579 115.066 112.547C115.065 112.515 116.932 112.481 119.237 112.473C121.542 112.465 123.408 112.486 123.409 112.519Z" fill="#263238"/>
<path d="M244.747 86.3683C244.747 86.3683 243.186 88.1358 243.806 89.4252C244.426 90.7147 250.808 95.2157 250.808 95.2157L255.433 96.0694L244.745 86.366L244.747 86.3683Z" fill="#455A64"/>
<path d="M200.793 83.3656L199.792 94.6336L218.389 94.0371L225.869 89.6386L220.995 83.2964L200.793 83.3656Z" fill="#455A64"/>
<path d="M165.826 95.327C165.826 95.327 177.019 87.1562 181.44 85.5266C185.707 83.9529 187.933 83.5532 191.946 83.4264C195.781 83.3049 198.119 83.403 198.119 83.403L195.193 94.8644L165.826 95.3316L165.826 95.327Z" fill="#455A64"/>
<path d="M164.185 95.3683C164.182 94.6556 164.564 93.997 165.181 93.6443L167.752 92.1825C168.486 91.7648 169.313 91.5451 170.157 91.5423C170.681 91.5405 171.198 91.6217 171.688 91.7815C172.79 92.1398 173.527 93.1867 173.577 94.349C173.645 95.9633 172.36 97.3123 170.749 97.3178L166.157 97.3335C165.072 97.3372 164.188 96.4569 164.185 95.3683Z" fill="white"/>
<path d="M164.185 95.3688C164.185 95.3688 164.192 95.4565 164.216 95.6178C164.237 95.7792 164.298 96.0189 164.443 96.2928C164.596 96.5621 164.85 96.8611 165.237 97.0697C165.43 97.1705 165.656 97.2458 165.899 97.2773C166.143 97.3064 166.412 97.2871 166.692 97.2884C167.814 97.28 169.147 97.2731 170.625 97.2611C170.992 97.2599 171.362 97.2148 171.718 97.0775C172.074 96.9425 172.406 96.7315 172.688 96.4537C172.968 96.176 173.199 95.8362 173.34 95.4528C173.483 95.0695 173.539 94.6495 173.508 94.2322C173.441 93.3928 172.992 92.6194 172.34 92.1719C172.018 91.9424 171.647 91.8122 171.275 91.7258C170.902 91.6371 170.527 91.5969 170.162 91.5981C169.429 91.6007 168.737 91.7668 168.145 92.0386C167.849 92.1734 167.579 92.3427 167.31 92.4889C167.044 92.6398 166.787 92.7837 166.544 92.9206C166.055 93.1944 165.615 93.4404 165.225 93.6608C164.837 93.872 164.585 94.175 164.439 94.4454C164.291 94.7181 164.237 94.9604 164.214 95.1219C164.192 95.2858 164.194 95.3711 164.187 95.3711C164.187 95.3711 164.176 95.2835 164.191 95.1174C164.207 94.9536 164.254 94.7067 164.4 94.4225C164.544 94.1429 164.8 93.8237 165.195 93.601C165.583 93.3782 166.021 93.1253 166.505 92.8469C166.748 92.7077 167.002 92.5615 167.266 92.4084C167.532 92.2599 167.803 92.0883 168.106 91.9488C168.707 91.6677 169.414 91.4923 170.164 91.4874C170.538 91.4861 170.922 91.5263 171.304 91.615C171.684 91.7013 172.075 91.8361 172.411 92.0771C173.091 92.543 173.563 93.3509 173.63 94.2248C173.664 94.6606 173.605 95.099 173.455 95.4986C173.307 95.8981 173.067 96.2541 172.774 96.5411C172.48 96.8304 172.132 97.0507 171.762 97.188C171.393 97.33 171 97.3775 170.627 97.3741C169.15 97.3746 167.819 97.3745 166.695 97.3737C166.414 97.3701 166.15 97.3848 165.893 97.3534C165.637 97.3197 165.405 97.2375 165.207 97.1297C164.809 96.9074 164.555 96.5923 164.404 96.316C164.261 96.0328 164.207 95.7862 164.193 95.6225C164.178 95.4565 164.187 95.3688 164.187 95.3688L164.185 95.3688Z" fill="#263238"/>
<path d="M250.734 125.121C250.734 125.121 250.734 125.066 250.74 124.962C250.747 124.853 250.758 124.697 250.771 124.494C250.782 124.288 250.806 124.034 250.819 123.732C250.827 123.43 250.84 123.082 250.85 122.692C250.853 122.3 250.847 121.864 250.839 121.389C250.807 120.914 250.803 120.395 250.737 119.844C250.634 118.737 250.446 117.481 250.06 116.135C249.86 115.467 249.632 114.769 249.32 114.073C249.023 113.371 248.646 112.671 248.202 111.981C247.322 110.595 246.079 109.322 244.597 108.229C243.111 107.141 241.354 106.268 239.433 105.696C237.514 105.112 235.427 104.905 233.303 104.898C231.177 104.901 229.1 105.196 227.192 105.811C226.239 106.117 225.328 106.501 224.475 106.949C223.624 107.399 222.842 107.937 222.117 108.507C220.676 109.656 219.46 110.942 218.49 112.265C218.011 112.931 217.625 113.624 217.288 114.308C216.968 115.001 216.679 115.673 216.458 116.338C215.536 118.984 215.252 121.257 215.154 122.814C215.12 123.596 215.126 124.205 215.146 124.615C215.158 124.818 215.168 124.975 215.175 125.084C215.18 125.19 215.181 125.243 215.181 125.243C215.181 125.243 215.174 125.19 215.162 125.084C215.152 124.975 215.138 124.818 215.121 124.616C215.092 124.203 215.078 123.594 215.106 122.81C215.19 121.248 215.462 118.966 216.377 116.308C216.598 115.641 216.885 114.964 217.205 114.266C217.542 113.578 217.931 112.88 218.411 112.205C219.383 110.871 220.602 109.575 222.05 108.419C222.779 107.845 223.564 107.302 224.422 106.847C225.282 106.397 226.198 106.009 227.157 105.701C229.077 105.081 231.169 104.781 233.305 104.78C235.438 104.787 237.534 104.997 239.467 105.585C241.4 106.162 243.166 107.041 244.661 108.141C245.41 108.69 246.09 109.289 246.699 109.924C247.308 110.556 247.846 111.228 248.285 111.927C248.731 112.622 249.108 113.329 249.402 114.036C249.715 114.736 249.938 115.439 250.138 116.112C250.522 117.464 250.703 118.728 250.801 119.837C250.865 120.39 250.864 120.911 250.894 121.386C250.895 121.864 250.899 122.3 250.894 122.692C250.876 123.084 250.864 123.43 250.851 123.734C250.834 124.037 250.807 124.29 250.792 124.496C250.774 124.699 250.761 124.853 250.75 124.964C250.739 125.07 250.732 125.123 250.732 125.123L250.734 125.121Z" fill="white"/>
<path d="M194.706 96.4201C194.706 96.4201 194.688 96.4248 194.653 96.4272C194.612 96.4274 194.559 96.4322 194.497 96.4347C194.35 96.4375 194.15 96.4428 193.897 96.4506C193.366 96.4616 192.615 96.478 191.693 96.4973C189.832 96.5383 187.262 96.6163 184.422 96.7044C181.581 96.7926 179.01 96.8567 177.148 96.8746C176.217 96.8847 175.463 96.8873 174.942 96.8822C174.689 96.8784 174.489 96.8768 174.342 96.875C174.28 96.8752 174.229 96.8708 174.185 96.8709C174.151 96.871 174.132 96.8665 174.132 96.8642C174.132 96.8619 174.151 96.8595 174.185 96.8571C174.227 96.8569 174.28 96.8521 174.342 96.8496C174.489 96.8468 174.689 96.8415 174.941 96.8337C175.472 96.8227 176.224 96.8063 177.145 96.787C179.007 96.746 181.579 96.668 184.419 96.5799C187.26 96.4917 189.831 96.4276 191.693 96.4097C192.624 96.3996 193.378 96.397 193.899 96.4021C194.152 96.4059 194.352 96.4075 194.499 96.4093C194.561 96.4091 194.612 96.4135 194.656 96.4134C194.69 96.4133 194.708 96.4178 194.708 96.4201L194.706 96.4201Z" fill="white"/>
<path d="M191.671 99.8979C191.671 99.9302 190.77 99.9609 189.658 99.9647C188.545 99.9685 187.644 99.9439 187.644 99.9116C187.644 99.8794 188.545 99.8486 189.657 99.8448C190.77 99.841 191.671 99.8656 191.671 99.8979Z" fill="white"/>
<path d="M192.369 87.5536C192.38 87.5835 189.886 88.6369 186.794 89.9045C183.702 91.172 181.187 92.1747 181.173 92.1448C181.159 92.1149 183.656 91.0615 186.748 89.7939C189.839 88.5263 192.355 87.5237 192.367 87.5536L192.369 87.5536Z" fill="white"/>
<path d="M187.306 88.3572C187.32 88.3871 184.943 89.447 181.998 90.7256C179.054 92.0042 176.656 93.0134 176.644 92.9834C176.63 92.9535 179.008 91.8936 181.952 90.615C184.897 89.3387 187.295 88.3272 187.306 88.3572Z" fill="white"/>
<path d="M219.424 87.0253C219.436 87.0552 216.941 88.1086 213.85 89.3761C210.758 90.6437 208.242 91.6464 208.228 91.6165C208.217 91.5865 210.712 90.5332 213.803 89.2656C216.895 87.998 219.41 86.9953 219.422 87.0253L219.424 87.0253Z" fill="white"/>
<path d="M214.363 87.8289C214.377 87.8588 212 88.9187 209.055 90.1973C206.111 91.4759 203.712 92.4851 203.701 92.4551C203.687 92.4252 206.064 91.3653 209.009 90.0867C211.953 88.8104 214.352 87.7989 214.363 87.8289Z" fill="white"/>
<path d="M219.945 96.3314C219.945 96.3637 214.974 96.4383 208.842 96.4962C202.708 96.5541 197.738 96.5734 197.738 96.5411C197.738 96.5088 202.707 96.4342 208.841 96.3763C214.973 96.3184 219.945 96.2991 219.945 96.3314Z" fill="white"/>
<path d="M225.461 99.5904C225.461 99.6227 224.068 99.669 222.347 99.691C220.626 99.713 219.233 99.704 219.233 99.6717C219.233 99.6394 220.625 99.5931 222.347 99.5711C224.066 99.549 225.461 99.5581 225.461 99.5904Z" fill="white"/>
<path d="M130.268 98.2094C130.268 98.2094 130.222 98.2234 130.132 98.2353C130.031 98.2494 129.903 98.266 129.742 98.2873C129.572 98.3064 129.365 98.3348 129.126 98.3748C128.887 98.4148 128.614 98.4503 128.315 98.5113C127.716 98.6172 127.008 98.7787 126.23 98.989C125.456 99.2084 124.611 99.4812 123.748 99.8209C122.885 100.167 122.084 100.546 121.371 100.92C120.66 101.301 120.036 101.669 119.524 102.006C119.265 102.166 119.041 102.328 118.841 102.465C118.639 102.599 118.47 102.722 118.334 102.824C118.204 102.917 118.098 102.993 118.016 103.053C117.942 103.104 117.901 103.13 117.899 103.128C117.896 103.125 117.931 103.093 117.999 103.035C118.08 102.97 118.181 102.889 118.307 102.787C118.44 102.678 118.605 102.551 118.804 102.409C119.001 102.268 119.224 102.101 119.48 101.934C119.987 101.589 120.611 101.211 121.32 100.823C122.033 100.443 122.839 100.057 123.706 99.7103C124.576 99.3683 125.424 99.0955 126.204 98.883C126.987 98.6773 127.699 98.525 128.303 98.4283C128.604 98.372 128.88 98.341 129.119 98.3102C129.36 98.2748 129.567 98.2557 129.737 98.2435C129.898 98.2315 130.027 98.2218 130.13 98.2122C130.22 98.2073 130.268 98.2048 130.268 98.2117L130.268 98.2094Z" fill="white"/>
<path d="M171.292 92.6277C171.292 92.6277 171.223 92.538 171.07 92.414C170.918 92.2922 170.658 92.1524 170.311 92.1098C169.961 92.0649 169.541 92.1263 169.086 92.2478C168.629 92.3647 168.138 92.5278 167.64 92.7463C166.642 93.181 165.83 93.7581 165.292 94.2235C164.746 94.6867 164.46 95.0267 164.442 95.0106C164.435 95.006 164.503 94.9181 164.634 94.7655C164.767 94.6151 164.966 94.4022 165.234 94.1614C165.763 93.6753 166.579 93.0797 167.591 92.6381C168.096 92.4172 168.595 92.2541 169.058 92.1418C169.518 92.0249 169.957 91.9703 170.322 92.0267C170.688 92.0831 170.953 92.2414 171.103 92.3816C171.179 92.4505 171.227 92.5149 171.257 92.5586C171.285 92.6047 171.299 92.63 171.294 92.6323L171.292 92.6277Z" fill="white"/>
<path d="M245.269 86.2834C245.269 86.2834 244.929 86.3884 244.29 86.3859C243.973 86.3801 243.584 86.3422 243.143 86.2469C242.701 86.1515 242.209 86.001 241.679 85.7998C241.148 85.601 240.581 85.3469 239.969 85.0884C239.661 84.9649 239.343 84.8368 239.014 84.7041C238.685 84.5738 238.337 84.462 237.988 84.334C236.575 83.8522 234.987 83.4217 233.299 83.07C229.92 82.3712 226.798 82.0867 224.541 82.0067C223.975 81.9787 223.465 81.9804 223.017 81.9681C222.571 81.9697 222.185 81.971 221.865 81.9721C221.555 81.9801 221.314 81.9855 221.137 81.9907C221.059 81.991 220.997 81.9912 220.948 81.9914C220.905 81.9915 220.884 81.9916 220.884 81.987C220.884 81.987 220.905 81.9823 220.948 81.9775C220.997 81.975 221.061 81.9702 221.137 81.963C221.311 81.9532 221.555 81.9385 221.865 81.9213C222.185 81.9156 222.571 81.9074 223.019 81.8966C223.469 81.902 223.982 81.8933 224.547 81.9168C226.809 81.9759 229.938 82.2466 233.326 82.9477C235.019 83.2994 236.611 83.7368 238.026 84.2255C238.378 84.3534 238.726 84.4676 239.055 84.6002C239.384 84.7352 239.704 84.8655 240.012 84.9913C240.625 85.2568 241.186 85.5132 241.713 85.7143C242.238 85.9201 242.726 86.0753 243.161 86.1753C243.598 86.2776 243.982 86.3178 244.294 86.3329C244.609 86.341 244.855 86.324 245.018 86.3027C245.094 86.2932 245.156 86.2861 245.207 86.279C245.248 86.2742 245.271 86.2742 245.271 86.2742L245.269 86.2834Z" fill="#263238"/>
<path d="M129.471 90.3041C128.536 85.2608 127.915 84.488 127.388 82.7531C126.869 81.0389 126.033 79.8931 125.005 79.4999C124.31 79.2348 120.849 77.9942 119.643 78.4135C118.305 78.8794 117.137 79.5545 116.31 80.1086C115.505 80.6487 114.896 81.435 114.575 82.3518L112.743 87.5636L115.99 90.793L117.601 87.3279L119.375 91.4641L119.13 95.6511L129.238 98.3427C130.153 96.8635 130.002 93.1691 129.471 90.3087L129.471 90.3041Z" fill="#FFCC00"/>
<g opacity="0.2">
<path d="M126.821 84.8071C126.385 87.4356 126.315 87.798 125.878 90.4265C125.727 91.3288 125.286 92.7372 124.647 93.3898C124.175 93.8735 123.71 94.341 123.053 94.5001C122.44 94.6475 121.511 94.6668 120.934 94.4128C120.356 94.1587 119.862 93.0395 120.097 92.4528C120.953 92.6344 121.22 92.9195 121.957 92.4465C122.599 92.0337 123.51 91.1219 123.857 90.4403C125.321 87.5753 125.725 87.4702 126.817 84.8048" fill="black"/>
</g>
<path d="M119.531 89.923C119.518 89.9322 119.349 89.663 119.083 89.2257C118.799 88.763 118.436 88.1761 118.036 87.5271C117.627 86.8827 117.255 86.3028 116.964 85.8448C116.687 85.4144 116.52 85.1475 116.534 85.1382C116.541 85.1335 116.592 85.1933 116.679 85.3084C116.767 85.4211 116.887 85.589 117.035 85.7984C117.331 86.2172 117.723 86.804 118.137 87.4645C118.551 88.1273 118.907 88.7373 119.154 89.1839C119.279 89.4072 119.376 89.5914 119.441 89.718C119.506 89.8469 119.538 89.9183 119.531 89.923Z" fill="#010D13"/>
<path d="M126.594 94.6107C126.594 94.6107 126.512 94.6502 126.358 94.7015C126.28 94.7271 126.186 94.7574 126.071 94.7832C125.958 94.8089 125.83 94.844 125.685 94.8652C125.398 94.9193 125.051 94.9527 124.662 94.961C124.276 94.9623 123.849 94.9338 123.409 94.8569C122.97 94.7753 122.561 94.6545 122.197 94.5174C121.838 94.3756 121.523 94.2221 121.272 94.0708C121.143 94.002 121.034 93.924 120.938 93.8597C120.841 93.7978 120.76 93.7358 120.698 93.6853C120.569 93.5842 120.502 93.5245 120.507 93.5175C120.52 93.499 120.804 93.7218 121.313 93.9968C121.566 94.1367 121.879 94.2786 122.236 94.4134C122.595 94.5414 122.997 94.6576 123.43 94.7369C123.862 94.8115 124.28 94.8424 124.662 94.848C125.044 94.8467 125.386 94.8224 125.671 94.7776C126.243 94.6949 126.585 94.5854 126.592 94.6084L126.594 94.6107Z" fill="#010D13"/>
<path d="M122.515 86.7617C122.497 86.8517 121.42 89.0234 121.42 89.0234L116.29 86.3333L115.76 84.1209C115.677 83.7752 115.464 83.4761 115.167 83.2834C114.851 83.0792 114.465 83.0159 114.1 83.1048L112.592 83.7304C112.466 83.7816 112.37 83.8903 112.345 84.0242C112.324 84.1373 112.352 84.2456 112.545 84.2288C112.92 84.1975 113.701 84.1118 113.701 84.1118L113.349 85.3746C113.256 85.7048 113.294 86.0598 113.454 86.3637L113.683 86.7988L114.184 87.6067L114.175 87.6136C114.175 87.6136 119.171 92.7283 121.967 93.0509C123.648 93.2458 125.535 88.5135 125.535 88.5135L122.52 86.7571L122.515 86.7617Z" fill="#FFDED1"/>
<path d="M113.655 84.1991C113.655 84.1991 113.694 84.1459 113.779 84.088C113.863 84.0323 113.999 83.9604 114.167 83.9667C114.339 83.9754 114.466 84.0879 114.51 84.187C114.556 84.2906 114.526 84.3599 114.52 84.3576C114.506 84.3577 114.515 84.2907 114.464 84.2125C114.415 84.1366 114.302 84.0493 114.162 84.0429C114.02 84.0364 113.894 84.0922 113.804 84.1363C113.715 84.1805 113.659 84.2106 113.655 84.2014L113.655 84.1991Z" fill="#7A4535"/>
<path d="M114.303 84.9831C114.303 84.9831 114.271 84.9417 114.22 84.8796C114.172 84.8198 114.091 84.744 113.983 84.7028C113.875 84.6594 113.764 84.6597 113.689 84.6715C113.611 84.6833 113.565 84.6996 113.558 84.6904C113.553 84.6835 113.594 84.6465 113.677 84.6185C113.757 84.5929 113.884 84.5832 114.01 84.6312C114.137 84.6815 114.222 84.7735 114.264 84.8495C114.308 84.9254 114.313 84.9785 114.303 84.9831Z" fill="#7A4535"/>
<path d="M123.553 79.9149L122.189 86.5136L125.872 88.7175L127.269 84.6603C127.269 84.6603 126.669 79.7428 123.553 79.9149Z" fill="#FFCC00"/>
<path d="M125.535 80.0241C125.535 80.0241 125.505 80.0472 125.441 80.0844C125.377 80.1192 125.285 80.1702 125.161 80.2329C124.918 80.3583 124.562 80.5348 124.115 80.737C123.222 81.1368 121.948 81.6485 120.464 81.905C118.98 82.1638 117.592 82.0509 116.644 81.7889C116.168 81.6614 115.795 81.5174 115.546 81.3983C115.42 81.3434 115.328 81.2883 115.263 81.2563C115.199 81.2219 115.166 81.2012 115.169 81.1989C115.173 81.1897 115.311 81.2538 115.565 81.3567C115.818 81.4619 116.191 81.5921 116.664 81.7081C117.608 81.9448 118.975 82.0439 120.443 81.7875C121.911 81.5334 123.18 81.04 124.08 80.661C124.53 80.4704 124.892 80.3054 125.14 80.1938C125.39 80.0799 125.528 80.0195 125.533 80.0287L125.535 80.0241Z" fill="#EBEBEB"/>
<path d="M126.505 80.7493C126.505 80.7493 126.473 80.7794 126.404 80.8257C126.324 80.8791 126.223 80.944 126.099 81.0228C125.966 81.1086 125.803 81.2107 125.603 81.3128C125.406 81.4173 125.186 81.5472 124.927 81.6611C124.798 81.7215 124.665 81.7819 124.525 81.847C124.385 81.912 124.234 81.9656 124.08 82.0261C123.775 82.1563 123.435 82.2613 123.081 82.3778C122.367 82.5901 121.566 82.7728 120.711 82.8818C119.856 82.9816 119.034 82.9982 118.289 82.9639C117.916 82.9352 117.562 82.9156 117.236 82.8637C117.072 82.8389 116.912 82.8233 116.762 82.7961C116.613 82.7667 116.468 82.7395 116.327 82.7123C116.049 82.6648 115.805 82.5918 115.589 82.5372C115.37 82.4849 115.189 82.4256 115.039 82.373C114.901 82.3251 114.788 82.2862 114.696 82.2543C114.618 82.2269 114.579 82.2085 114.579 82.2062C114.579 82.2039 114.623 82.2107 114.703 82.2312C114.795 82.2562 114.91 82.2881 115.05 82.3269C115.2 82.3725 115.384 82.4249 115.603 82.4703C115.819 82.518 116.065 82.5863 116.341 82.6269C116.479 82.6518 116.624 82.6767 116.773 82.7038C116.923 82.7287 117.081 82.742 117.245 82.7645C117.571 82.8118 117.923 82.8291 118.291 82.8532C119.029 82.8806 119.844 82.8617 120.692 82.7619C121.54 82.6529 122.335 82.4749 123.044 82.2718C123.395 82.1576 123.733 82.0573 124.038 81.934C124.192 81.8735 124.341 81.8223 124.481 81.7618C124.621 81.6991 124.754 81.6409 124.883 81.5828C125.142 81.4759 125.362 81.3506 125.562 81.253C125.762 81.1554 125.929 81.0603 126.064 80.9814C126.193 80.9095 126.296 80.8515 126.379 80.8051C126.452 80.7656 126.491 80.747 126.493 80.7493L126.505 80.7493Z" fill="#EBEBEB"/>
<path d="M125.872 88.7179C125.872 88.7179 125.764 88.6699 125.573 88.5667C125.368 88.4521 125.096 88.3008 124.762 88.1128C124.06 87.7093 123.1 87.1591 121.992 86.524L121.957 86.5033L121.964 86.4641C122.061 85.9702 122.165 85.4417 122.271 84.897C122.436 84.0754 122.592 83.2952 122.735 82.5821C122.809 82.2266 122.87 81.8874 122.938 81.5712C123.01 81.2549 123.101 80.9617 123.229 80.7122C123.48 80.2062 123.884 79.9304 124.175 79.8348C124.325 79.7859 124.446 79.7739 124.527 79.7759C124.607 79.7757 124.651 79.7848 124.651 79.7894C124.651 79.8055 124.476 79.7738 124.192 79.8809C123.914 79.9856 123.536 80.2614 123.305 80.7511C123.186 80.9937 123.1 81.28 123.035 81.5916C122.974 81.9101 122.91 82.247 122.843 82.6025C122.703 83.3156 122.549 84.098 122.389 84.9197C122.28 85.4644 122.174 85.9929 122.077 86.4868L122.049 86.4269C123.148 87.0759 124.101 87.64 124.797 88.0528C125.124 88.2523 125.391 88.4128 125.591 88.5344C125.775 88.6491 125.874 88.7133 125.87 88.7203L125.872 88.7179Z" fill="#010D13"/>
<path d="M126.984 84.4653C126.998 84.4652 127.004 84.7005 126.968 85.0811C126.933 85.4595 126.854 85.981 126.709 86.542C126.564 87.1053 126.379 87.5972 126.226 87.9459C126.074 88.2947 125.957 88.4981 125.943 88.4912C125.927 88.4844 126.016 88.2673 126.148 87.9139C126.28 87.5606 126.449 87.0687 126.594 86.5124C126.737 85.9561 126.829 85.4437 126.885 85.0699C126.942 84.6961 126.968 84.463 126.987 84.4653L126.984 84.4653Z" fill="#010D13"/>
<path d="M107.168 121.211L107.139 124.733C107.139 124.733 103.562 125.887 103.495 126.538L110.297 126.84L110.565 121.354L107.168 121.214L107.168 121.211Z" fill="#FF8A6F"/>
<path d="M109.255 124.53C109.386 124.571 109.469 124.725 109.433 124.857C109.396 124.988 109.243 125.077 109.112 125.038C108.98 124.999 108.874 124.817 108.924 124.69C108.974 124.563 109.163 124.47 109.28 124.539" fill="#E0E0E0"/>
<path d="M110.296 126.837L110.301 126.283L103.778 126.202C103.778 126.202 103.471 126.321 103.494 126.537L110.296 126.839L110.296 126.837Z" fill="#E0E0E0"/>
<path d="M107.031 124.695C107.031 124.727 107.196 124.749 107.355 124.864C107.516 124.974 107.595 125.122 107.625 125.11C107.655 125.105 107.615 124.902 107.422 124.769C107.228 124.632 107.026 124.662 107.031 124.695Z" fill="#010D13"/>
<path d="M106.306 124.957C106.297 124.989 106.437 125.051 106.546 125.199C106.656 125.341 106.678 125.496 106.712 125.495C106.742 125.502 106.774 125.308 106.64 125.129C106.506 124.95 106.31 124.927 106.308 124.957L106.306 124.957Z" fill="#010D13"/>
<path d="M105.862 125.796C105.892 125.805 105.947 125.639 105.868 125.455C105.792 125.268 105.64 125.188 105.624 125.216C105.603 125.241 105.7 125.345 105.76 125.499C105.825 125.651 105.828 125.792 105.86 125.796L105.862 125.796Z" fill="#010D13"/>
<path d="M107.127 123.891C107.138 123.921 107.295 123.884 107.481 123.904C107.669 123.922 107.812 123.991 107.83 123.963C107.851 123.94 107.713 123.811 107.492 123.789C107.271 123.766 107.111 123.864 107.127 123.891Z" fill="#010D13"/>
<g opacity="0.3">
<path d="M107.164 121.91L107.157 122.537L110.502 122.655L110.532 122.089L107.164 121.91Z" fill="black"/>
</g>
<path d="M107.146 123.181C107.146 123.195 107.275 123.222 107.486 123.193C107.592 123.179 107.716 123.151 107.847 123.1C107.913 123.074 107.98 123.042 108.046 123.005C108.078 122.986 108.117 122.968 108.152 122.928C108.191 122.896 108.216 122.808 108.174 122.751C108.142 122.698 108.082 122.67 108.031 122.668C107.981 122.664 107.939 122.673 107.903 122.68C107.827 122.694 107.753 122.717 107.687 122.743C107.554 122.796 107.446 122.866 107.363 122.936C107.198 123.074 107.139 123.197 107.151 123.204C107.164 123.215 107.247 123.114 107.412 123C107.494 122.944 107.6 122.886 107.724 122.842C107.786 122.821 107.852 122.802 107.921 122.791C107.995 122.774 108.055 122.776 108.073 122.811C108.08 122.822 108.08 122.829 108.064 122.848C108.048 122.866 108.018 122.885 107.986 122.903C107.924 122.941 107.862 122.971 107.803 122.999C107.681 123.052 107.566 123.087 107.467 123.11C107.27 123.157 107.141 123.16 107.141 123.178L107.146 123.181Z" fill="#010D13"/>
<path d="M107.187 123.231C107.199 123.236 107.269 123.12 107.292 122.906C107.303 122.799 107.298 122.668 107.26 122.53C107.242 122.461 107.216 122.389 107.184 122.318C107.147 122.249 107.103 122.157 106.974 122.136C106.907 122.132 106.848 122.181 106.827 122.224C106.802 122.271 106.798 122.31 106.786 122.349C106.771 122.428 106.769 122.506 106.776 122.58C106.79 122.725 106.846 122.849 106.906 122.939C107.03 123.121 107.168 123.169 107.171 123.157C107.182 123.141 107.069 123.072 106.974 122.897C106.928 122.812 106.889 122.699 106.881 122.573C106.877 122.508 106.881 122.441 106.897 122.376C106.91 122.305 106.94 122.247 106.968 122.256C107.002 122.256 107.057 122.314 107.083 122.374C107.115 122.436 107.141 122.5 107.159 122.562C107.197 122.687 107.211 122.807 107.211 122.906C107.212 123.107 107.171 123.229 107.189 123.236L107.187 123.231Z" fill="#010D13"/>
<path d="M120.942 95.6776C120.942 95.6776 110.306 91.2441 107.016 91.0639C104.954 90.9511 103.398 92.2849 103.686 94.4266C103.83 95.4963 106.808 108.026 106.808 108.026L111.278 105.958L109.097 97.2957L117.836 101.521L120.942 95.6753L120.942 95.6776Z" fill="#010D13"/>
<path d="M107.749 95.1074C107.715 95.1375 108.068 95.5906 108.44 96.1913C108.815 96.792 109.065 97.3101 109.106 97.2915C109.145 97.2775 108.955 96.72 108.573 96.1078C108.194 95.4933 107.779 95.0773 107.749 95.105L107.749 95.1074Z" fill="#FF8A6F"/>
<path d="M106.882 95.6076C106.859 95.6468 107.398 95.9863 108.028 96.4501C108.659 96.9115 109.145 97.3204 109.175 97.288C109.202 97.2579 108.76 96.7912 108.119 96.3229C107.481 95.8546 106.901 95.5706 106.882 95.6076Z" fill="#FF8A6F"/>
<path d="M129.239 98.3379C129.239 98.3379 127.91 100.07 126.636 100.547C125.038 101.145 113.221 106.79 113.221 106.79C113.221 106.79 111.129 122.8 111.297 122.132L106.343 122.029L106.831 107.287C106.889 105.398 108.389 103.227 110.004 102.258L120.94 95.677L129.237 98.3379L129.239 98.3379Z" fill="#010D13"/>
<path d="M106.745 109.984C106.745 109.984 106.757 109.915 106.765 109.781C106.772 109.633 106.783 109.439 106.793 109.202C106.819 108.699 106.844 107.968 106.981 107.082C107.125 106.202 107.388 105.141 108.042 104.156C108.367 103.666 108.802 103.221 109.311 102.832C109.82 102.443 110.393 102.1 110.988 101.759C113.366 100.38 115.419 98.9757 116.937 98.0133C117.694 97.5264 118.308 97.1391 118.735 96.8747C118.937 96.7495 119.1 96.6475 119.226 96.5686C119.338 96.4967 119.395 96.4573 119.393 96.4527C119.391 96.4481 119.329 96.4783 119.212 96.541C119.095 96.6037 118.923 96.6965 118.705 96.8218C118.267 97.0701 117.643 97.4435 116.879 97.919C115.345 98.8583 113.283 100.249 110.911 101.623C110.317 101.964 109.737 102.309 109.219 102.71C108.701 103.109 108.254 103.569 107.923 104.075C107.259 105.093 107.003 106.175 106.873 107.064C106.75 107.961 106.741 108.695 106.733 109.197C106.734 109.437 106.735 109.629 106.735 109.779C106.736 109.912 106.743 109.982 106.748 109.982L106.745 109.984Z" fill="#FF8A6F"/>
<path d="M124.872 100.039C124.891 100.019 124.746 99.8853 124.568 99.6299C124.39 99.3768 124.191 98.99 124.095 98.5291C124.002 98.0658 124.03 97.6321 124.096 97.3298C124.159 97.0251 124.239 96.8449 124.216 96.8335C124.202 96.8243 124.085 96.9907 123.99 97.3024C123.894 97.6118 123.843 98.071 123.943 98.5619C124.044 99.0505 124.271 99.4534 124.481 99.6994C124.691 99.9478 124.863 100.053 124.872 100.039Z" fill="#FF8A6F"/>
<path d="M108.163 122.022C108.163 122.022 108.17 121.994 108.179 121.941C108.186 121.879 108.197 121.798 108.208 121.699C108.23 121.475 108.264 121.161 108.304 120.767C108.381 119.945 108.492 118.776 108.627 117.336C108.694 116.609 108.767 115.818 108.844 114.966C108.924 114.115 109.006 113.204 109.07 112.244C109.14 111.287 109.228 110.281 109.397 109.252C109.573 108.227 109.836 107.172 110.297 106.172C110.748 105.167 111.391 104.288 112.085 103.52C112.79 102.757 113.554 102.101 114.322 101.529C115.858 100.387 117.374 99.5512 118.624 98.8134C119.879 98.0849 120.879 97.4634 121.544 96.9952C121.878 96.7634 122.131 96.5757 122.3 96.4437C122.378 96.3812 122.44 96.3325 122.491 96.2931C122.532 96.2584 122.555 96.2399 122.552 96.2376C122.552 96.2376 122.527 96.2492 122.481 96.2816C122.429 96.3187 122.364 96.3628 122.282 96.4207C122.108 96.5435 121.848 96.7243 121.511 96.9469C120.837 97.399 119.833 98.0021 118.571 98.7191C117.316 99.443 115.791 100.269 114.238 101.414C113.464 101.986 112.691 102.644 111.974 103.417C111.269 104.194 110.617 105.084 110.156 106.108C109.689 107.126 109.423 108.193 109.248 109.227C109.079 110.263 108.993 111.273 108.927 112.233C108.868 113.193 108.791 114.104 108.718 114.955C108.647 115.807 108.581 116.6 108.522 117.327C108.407 118.769 108.312 119.939 108.246 120.762C108.218 121.159 108.196 121.47 108.18 121.697C108.174 121.796 108.169 121.877 108.167 121.941C108.165 121.996 108.168 122.024 108.168 122.024L108.163 122.022Z" fill="#FF8A6F"/>
<path d="M119.647 70.2951C119.339 69.4266 118.321 68.8812 117.43 69.108C117.226 69.1594 117.024 69.2477 116.815 69.2438C116.555 69.2401 116.32 69.0979 116.065 69.048C115.517 68.9392 114.921 69.331 114.799 69.8781C114.364 69.7896 113.882 69.8535 113.535 70.1338C113.192 70.4141 113.033 70.9382 113.245 71.3295C113.336 71.4976 113.483 71.6308 113.566 71.8035C113.703 72.0868 113.642 72.4283 113.737 72.7278C113.879 73.1725 114.349 73.4453 114.811 73.4968C115.273 73.5483 115.735 73.4198 116.183 73.2938" fill="#010D13"/>
<path d="M117.55 79.4262C117.491 78.9813 117.451 78.6678 117.451 78.6678C117.451 78.6678 115.97 78.6636 115.367 76.8228C115.067 75.9082 114.864 74.3613 114.74 73.0909C114.628 71.9473 115.487 70.9388 116.631 70.8749L120.565 70.6538L120.652 71.2647L121.715 78.8538C121.877 80.0111 121.07 81.0794 119.914 81.2356C118.763 81.3918 117.708 80.5789 117.552 79.4262L117.55 79.4262Z" fill="#FFDED1"/>
<path d="M115.297 74.1794C115.314 74.3085 115.436 74.4003 115.569 74.386C115.702 74.3717 115.798 74.2561 115.782 74.127C115.765 73.9979 115.643 73.906 115.51 73.9203C115.377 73.9346 115.281 74.0503 115.297 74.1794Z" fill="#010D13"/>
<path d="M115.199 73.8379C115.234 73.8654 115.394 73.6988 115.654 73.6564C115.913 73.6117 116.125 73.7148 116.148 73.6778C116.159 73.6616 116.12 73.6087 116.028 73.5629C115.936 73.5147 115.789 73.4807 115.626 73.5066C115.465 73.5348 115.339 73.616 115.27 73.69C115.199 73.7641 115.183 73.8264 115.199 73.8379Z" fill="#010D13"/>
<path d="M117.764 73.7494C117.781 73.8785 117.903 73.9704 118.036 73.9561C118.169 73.9418 118.266 73.8261 118.249 73.697C118.232 73.5679 118.11 73.4761 117.977 73.4904C117.844 73.5047 117.748 73.6203 117.764 73.7494Z" fill="#010D13"/>
<path d="M117.759 73.4706C117.794 73.4981 117.956 73.3315 118.214 73.2891C118.473 73.2444 118.685 73.3474 118.708 73.3105C118.719 73.2943 118.68 73.2414 118.588 73.1956C118.496 73.1474 118.349 73.1133 118.185 73.1393C118.025 73.1675 117.898 73.2487 117.83 73.3227C117.761 73.3967 117.743 73.4591 117.759 73.4706Z" fill="#010D13"/>
<path d="M117.13 75.5557C117.13 75.5395 116.962 75.5401 116.696 75.5479C116.629 75.5528 116.562 75.5484 116.544 75.5046C116.521 75.4586 116.537 75.3824 116.557 75.2993C116.593 75.1285 116.632 74.9485 116.67 74.7615C116.826 73.9953 116.927 73.3699 116.895 73.3654C116.865 73.3586 116.713 73.9749 116.557 74.7412C116.521 74.9304 116.485 75.1104 116.451 75.2812C116.438 75.362 116.408 75.4544 116.459 75.5487C116.484 75.5948 116.54 75.6246 116.583 75.629C116.627 75.6358 116.666 75.6288 116.698 75.6287C116.965 75.6001 117.128 75.5741 117.126 75.5603L117.13 75.5557Z" fill="#010D13"/>
<path d="M117.45 78.668C117.45 78.668 118.73 78.5437 119.86 77.5827C119.86 77.5827 119.458 78.9794 117.549 79.1105L117.45 78.668Z" fill="#7A4535"/>
<path d="M117.923 75.6129C117.88 75.6177 117.924 75.9012 117.718 76.1395C117.51 76.38 117.204 76.3972 117.209 76.4364C117.209 76.4549 117.285 76.48 117.411 76.4634C117.535 76.4468 117.712 76.377 117.84 76.2313C117.968 76.0832 118.005 75.9101 117.995 75.7925C117.988 75.6726 117.944 75.6082 117.925 75.6129L117.923 75.6129Z" fill="#010D13"/>
<path d="M117.526 72.4607C117.563 72.5274 117.818 72.4505 118.128 72.4379C118.438 72.4183 118.698 72.4682 118.728 72.3989C118.741 72.3666 118.688 72.3068 118.578 72.2541C118.467 72.2014 118.302 72.1628 118.115 72.1727C117.929 72.1825 117.766 72.2384 117.663 72.3011C117.558 72.3637 117.512 72.4284 117.528 72.4607L117.526 72.4607Z" fill="#010D13"/>
<path d="M115.172 73.0688C115.228 73.1194 115.397 73.0288 115.611 72.9912C115.825 72.9466 116.015 72.9667 116.047 72.8974C116.061 72.8651 116.022 72.8099 115.934 72.7664C115.847 72.7228 115.709 72.7002 115.562 72.7284C115.415 72.7566 115.296 72.8308 115.231 72.9048C115.165 72.9789 115.149 73.0435 115.175 73.0688L115.172 73.0688Z" fill="#010D13"/>
<path d="M114.54 72.2633C114.54 72.2633 115.582 72.6126 116.775 71.8059C117.557 71.2774 118.507 70.9443 118.744 71.0865C118.981 71.2264 119.138 72.0884 120.001 72.2308C120.001 72.2308 120.158 73.8909 120.806 73.7456C121.267 73.6426 120.992 71.8122 120.796 70.7681C120.716 70.3509 120.359 70.0431 119.933 70.0284L118.722 69.9864L117.211 70.4159L115.59 70.8643L114.358 71.3829L114.537 72.2633L114.54 72.2633Z" fill="#010D13"/>
<path d="M120.66 73.0751C120.685 73.0566 121.687 72.525 121.877 73.6245C122.067 74.724 120.927 74.6887 120.92 74.6564C120.913 74.6242 120.66 73.0751 120.66 73.0751Z" fill="#FFDED1"/>
<path d="M121.183 74.1805C121.183 74.1805 121.204 74.1897 121.238 74.1988C121.273 74.2079 121.328 74.2077 121.381 74.1775C121.488 74.1149 121.554 73.914 121.526 73.7134C121.512 73.612 121.475 73.5222 121.426 73.4485C121.38 73.3749 121.318 73.3267 121.258 73.3269C121.198 73.3225 121.162 73.3664 121.155 73.3987C121.146 73.431 121.155 73.4518 121.151 73.4564C121.148 73.4587 121.123 73.4427 121.125 73.3942C121.125 73.3711 121.134 73.3434 121.157 73.318C121.18 73.2925 121.217 73.274 121.258 73.2715C121.343 73.262 121.433 73.3286 121.486 73.4068C121.544 73.4873 121.588 73.5887 121.604 73.7016C121.635 73.9252 121.557 74.1515 121.408 74.2235C121.335 74.2561 121.266 74.2448 121.229 74.2242C121.19 74.2035 121.181 74.1782 121.183 74.1759L121.183 74.1805Z" fill="#7A4535"/>
<path d="M115.055 69.4711C115.055 69.4711 115.094 69.5286 115.171 69.6183C115.247 69.708 115.385 69.8159 115.585 69.8844C115.785 69.9552 116.041 69.9728 116.316 69.9142C116.592 69.8602 116.883 69.7416 117.2 69.6298C117.515 69.518 117.838 69.4385 118.14 69.4582C118.441 69.471 118.703 69.6085 118.853 69.7787C119.01 69.9465 119.073 70.1331 119.073 70.26C119.078 70.3868 119.046 70.4538 119.042 70.4515C119.03 70.4516 119.046 70.3823 119.027 70.2647C119.011 70.1495 118.944 69.9837 118.794 69.8389C118.646 69.6894 118.414 69.5772 118.133 69.5713C117.855 69.5584 117.55 69.6355 117.24 69.745C116.93 69.8545 116.629 69.9754 116.337 70.0249C116.048 70.0812 115.767 70.0522 115.558 69.9653C115.346 69.8829 115.206 69.7543 115.134 69.6484C115.062 69.5449 115.048 69.4734 115.055 69.4711Z" fill="#FF8A6F"/>
<path d="M118.762 70.5129C118.762 70.5129 118.706 70.4554 118.591 70.3751C118.478 70.2948 118.287 70.2193 118.039 70.2132C117.791 70.2025 117.501 70.275 117.203 70.4214C116.902 70.5608 116.588 70.7671 116.207 70.893C115.438 71.1447 114.681 70.9443 114.243 70.6852C114.018 70.5568 113.859 70.419 113.76 70.3155C113.66 70.2098 113.614 70.1453 113.621 70.1407C113.639 70.1222 113.838 70.3798 114.285 70.6112C114.72 70.8427 115.442 71.0201 116.172 70.7801C116.533 70.6612 116.847 70.4618 117.159 70.3223C117.466 70.1783 117.783 70.1057 118.045 70.1302C118.307 70.1477 118.512 70.2439 118.621 70.3404C118.734 70.4369 118.768 70.5129 118.764 70.5152L118.762 70.5129Z" fill="#FF8A6F"/>
<path d="M115.42 89.2654L110.068 84.7193L108.308 85.1243C108.308 85.1243 110.177 88.9881 111.524 90.402C111.524 90.402 112.856 92.1803 115.041 91.4024C117.227 90.6246 115.42 89.2677 115.42 89.2677L115.42 89.2654Z" fill="#FFDED1"/>
<path d="M109.647 79.6924L107.379 79.7001C107.036 79.7013 106.73 80.1013 106.855 80.4284L109.152 84.8789C109.24 85.0516 109.42 85.1593 109.613 85.1587L112.378 85.1423C112.695 85.0974 112.809 84.7441 112.677 84.5531L110.46 80.1947C110.308 79.8838 109.992 79.6889 109.647 79.69L109.647 79.6924Z" fill="#FF8A6F"/>
<path d="M109.494 79.9631L107.226 79.9709C106.941 79.9718 106.758 80.2723 106.89 80.5255L109.132 84.8793C109.22 85.052 109.4 85.1598 109.593 85.1591L112.328 85.1498C112.495 85.1492 112.603 84.9735 112.527 84.8239L110.31 80.4654C110.157 80.1546 109.841 79.9596 109.497 79.9608L109.494 79.9631Z" fill="#010D13"/>
<path d="M109.308 81.7882L107.928 82.3464L107.635 83.4637L108.305 85.1221L110.745 85.4689L110.028 84.7379L110.118 84.0987C110.118 84.0987 110.797 83.8819 110.813 83.7781C110.829 83.6742 110.726 83.324 110.623 83.3059C110.519 83.2901 109.805 83.5578 109.805 83.5578C109.805 83.5578 110.649 82.8838 110.623 82.7754C110.6 82.6671 110.507 82.393 110.339 82.3613C110.171 82.3318 108.808 82.98 108.808 82.98L108.589 83.4882L108.394 82.6793C108.394 82.6793 109.604 82.3338 109.303 81.7836L109.308 81.7882Z" fill="#FFDED1"/>
<path d="M109.491 84.4052C109.491 84.4052 109.456 84.3569 109.444 84.267C109.43 84.1771 109.437 84.0479 109.484 83.9163C109.532 83.7847 109.612 83.6829 109.679 83.6227C109.747 83.5625 109.798 83.5416 109.803 83.5485C109.816 83.5646 109.638 83.6943 109.551 83.9414C109.46 84.1839 109.511 84.4005 109.491 84.4052Z" fill="#7A4535"/>
<path d="M108.833 84.1655C108.833 84.1655 108.874 84.0293 108.887 83.8032C108.898 83.6901 108.903 83.5494 108.955 83.4016C108.982 83.3277 109.019 83.2515 109.081 83.1867C109.142 83.1219 109.223 83.0778 109.305 83.0429C109.636 82.9219 109.932 82.824 110.15 82.7518C110.368 82.6818 110.504 82.6421 110.506 82.6514C110.508 82.6606 110.38 82.7164 110.166 82.7978C109.955 82.8816 109.657 82.9887 109.333 83.1074C109.255 83.14 109.184 83.1794 109.131 83.2327C109.079 83.2859 109.042 83.3552 109.017 83.4222C108.965 83.5584 108.954 83.6946 108.938 83.8076C108.911 84.0384 108.843 84.1701 108.833 84.1655Z" fill="#7A4535"/>
<path d="M108.516 83.917C108.497 83.9148 108.499 83.7925 108.524 83.6448C108.549 83.4971 108.583 83.3794 108.601 83.3839C108.62 83.3862 108.618 83.5084 108.593 83.6561C108.568 83.8038 108.534 83.9216 108.516 83.917Z" fill="#7A4535"/>
<path d="M108.468 80.806C108.469 80.9651 108.598 81.0962 108.759 81.0956C108.92 81.0951 109.048 80.9655 109.047 80.804C109.047 80.6426 108.918 80.5138 108.757 80.5144C108.596 80.5149 108.467 80.6445 108.468 80.806Z" fill="#FAFAFA"/>
</svg>
