<svg width="32" height="32" viewBox="0 0 32 32" fill="none" xmlns="http://www.w3.org/2000/svg">
<path d="M31.4082 15.7107C31.4082 24.3866 24.3784 31.4178 15.7041 31.4178C7.02983 31.4178 0 24.3866 0 15.7107C0 7.03475 7.03339 0 15.7041 0C24.3748 0 31.4082 7.03475 31.4082 15.7107Z" fill="black"/>
<path d="M21.4311 18.5191C21.0901 19.2628 20.9258 19.5952 20.4872 20.2516C19.8732 21.1688 19.0071 22.3141 17.9372 22.3214C16.9847 22.3299 16.7389 21.7111 15.4453 21.722C14.1531 21.7281 13.8837 22.3335 12.93 22.3238C11.8588 22.3141 11.0397 21.2828 10.4257 20.3668C8.70846 17.7984 8.52685 14.7871 9.5881 13.1856C10.3392 12.05 11.5265 11.3828 12.6421 11.3828C13.7787 11.3828 14.4928 11.9954 15.4318 11.9954C16.3435 11.9954 16.8982 11.3815 18.2127 11.3815C19.206 11.3815 20.2562 11.9129 21.0073 12.8302C18.5513 14.1526 18.9503 17.597 21.4311 18.5191ZM17.2145 10.3563C17.6926 9.75336 18.0558 8.90288 17.9236 8.03662C17.1441 8.08879 16.2323 8.57773 15.6998 9.21104C15.2168 9.78855 14.8165 10.6451 14.9722 11.4737C15.8234 11.5004 16.7043 11.0018 17.2145 10.3563Z" fill="white"/>
</svg>
