<svg width="374" height="598" viewBox="0 0 374 598" fill="none" xmlns="http://www.w3.org/2000/svg">
<defs>
<linearGradient id="paint0_linear_47_9340" x1="47.3987" y1="10.7724" x2="345.077" y2="249.035" gradientUnits="userSpaceOnUse">
<stop stop-color="#FF8177"/>
<stop offset="1" stop-color="#B22B5B"/>
</linearGradient>
<linearGradient id="paint1_linear_47_9340" x1="73.384" y1="61.1578" x2="50.8434" y2="113.183" gradientUnits="userSpaceOnUse">
<stop offset="0.16" stop-color="#FF8F66"/>
<stop offset="0.39" stop-color="#B16958"/>
<stop offset="0.61" stop-color="#6F494C"/>
<stop offset="0.79" stop-color="#3F3244"/>
<stop offset="0.92" stop-color="#21243E"/>
<stop offset="1" stop-color="#171F3D"/>
</linearGradient>
<linearGradient id="paint2_linear_47_9340" x1="101.463" y1="57.179" x2="78.9185" y2="109.208" gradientUnits="userSpaceOnUse">
<stop offset="0.16" stop-color="#FF8F66"/>
<stop offset="0.39" stop-color="#B16958"/>
<stop offset="0.61" stop-color="#6F494C"/>
<stop offset="0.79" stop-color="#3F3244"/>
<stop offset="0.92" stop-color="#21243E"/>
<stop offset="1" stop-color="#171F3D"/>
</linearGradient>
<linearGradient id="paint3_linear_47_9340" x1="116.477" y1="60.5718" x2="93.9362" y2="112.601" gradientUnits="userSpaceOnUse">
<stop offset="0.16" stop-color="#FF8F66"/>
<stop offset="0.39" stop-color="#B16958"/>
<stop offset="0.61" stop-color="#6F494C"/>
<stop offset="0.79" stop-color="#3F3244"/>
<stop offset="0.92" stop-color="#21243E"/>
<stop offset="1" stop-color="#171F3D"/>
</linearGradient>
<linearGradient id="paint4_linear_47_9340" x1="110.662" y1="48.9062" x2="85.8168" y2="106.25" gradientUnits="userSpaceOnUse">
<stop offset="0.16" stop-color="#FF8F66"/>
<stop offset="0.39" stop-color="#B16958"/>
<stop offset="0.61" stop-color="#6F494C"/>
<stop offset="0.79" stop-color="#3F3244"/>
<stop offset="0.92" stop-color="#21243E"/>
<stop offset="1" stop-color="#171F3D"/>
</linearGradient>
<linearGradient id="paint5_linear_47_9340" x1="99.2538" y1="37.6672" x2="66.5771" y2="113.078" gradientUnits="userSpaceOnUse">
<stop offset="0.16" stop-color="#FF8F66"/>
<stop offset="0.39" stop-color="#B16958"/>
<stop offset="0.61" stop-color="#6F494C"/>
<stop offset="0.79" stop-color="#3F3244"/>
<stop offset="0.92" stop-color="#21243E"/>
<stop offset="1" stop-color="#171F3D"/>
</linearGradient>
<linearGradient id="paint6_linear_47_9340" x1="79.344" y1="68.701" x2="59.0082" y2="120.225" gradientUnits="userSpaceOnUse">
<stop offset="0.16" stop-color="#FF8F66"/>
<stop offset="0.28" stop-color="#C9745C"/>
<stop offset="0.42" stop-color="#935B52"/>
<stop offset="0.55" stop-color="#66454B"/>
<stop offset="0.68" stop-color="#443444"/>
<stop offset="0.8" stop-color="#2B2840"/>
<stop offset="0.91" stop-color="#1C213D"/>
<stop offset="1" stop-color="#171F3D"/>
</linearGradient>
<linearGradient id="paint7_linear_47_9340" x1="106.417" y1="68.2585" x2="86.0807" y2="119.786" gradientUnits="userSpaceOnUse">
<stop offset="0.16" stop-color="#FF8F66"/>
<stop offset="0.28" stop-color="#C9745C"/>
<stop offset="0.42" stop-color="#935B52"/>
<stop offset="0.55" stop-color="#66454B"/>
<stop offset="0.68" stop-color="#443444"/>
<stop offset="0.8" stop-color="#2B2840"/>
<stop offset="0.91" stop-color="#1C213D"/>
<stop offset="1" stop-color="#171F3D"/>
</linearGradient>
<linearGradient id="paint8_linear_47_9340" x1="447.324" y1="85.8689" x2="137.436" y2="192.349" gradientUnits="userSpaceOnUse">
<stop stop-color="#FF8177"/>
<stop offset="1" stop-color="#B22B5B"/>
</linearGradient>
<linearGradient id="paint9_linear_47_9340" x1="299.031" y1="12.148" x2="269.122" y2="81.1763" gradientUnits="userSpaceOnUse">
<stop offset="0.16" stop-color="#FF8F66"/>
<stop offset="0.39" stop-color="#B16958"/>
<stop offset="0.61" stop-color="#6F494C"/>
<stop offset="0.79" stop-color="#3F3244"/>
<stop offset="0.92" stop-color="#21243E"/>
<stop offset="1" stop-color="#171F3D"/>
</linearGradient>
<linearGradient id="paint10_linear_47_9340" x1="336.28" y1="6.87329" x2="306.371" y2="75.9016" gradientUnits="userSpaceOnUse">
<stop offset="0.16" stop-color="#FF8F66"/>
<stop offset="0.39" stop-color="#B16958"/>
<stop offset="0.61" stop-color="#6F494C"/>
<stop offset="0.79" stop-color="#3F3244"/>
<stop offset="0.92" stop-color="#21243E"/>
<stop offset="1" stop-color="#171F3D"/>
</linearGradient>
<linearGradient id="paint11_linear_47_9340" x1="356.204" y1="11.3705" x2="326.295" y2="80.3988" gradientUnits="userSpaceOnUse">
<stop offset="0.16" stop-color="#FF8F66"/>
<stop offset="0.39" stop-color="#B16958"/>
<stop offset="0.61" stop-color="#6F494C"/>
<stop offset="0.79" stop-color="#3F3244"/>
<stop offset="0.92" stop-color="#21243E"/>
<stop offset="1" stop-color="#171F3D"/>
</linearGradient>
<linearGradient id="paint12_linear_47_9340" x1="348.487" y1="-4.10246" x2="315.527" y2="71.9742" gradientUnits="userSpaceOnUse">
<stop offset="0.16" stop-color="#FF8F66"/>
<stop offset="0.39" stop-color="#B16958"/>
<stop offset="0.61" stop-color="#6F494C"/>
<stop offset="0.79" stop-color="#3F3244"/>
<stop offset="0.92" stop-color="#21243E"/>
<stop offset="1" stop-color="#171F3D"/>
</linearGradient>
<linearGradient id="paint13_linear_47_9340" x1="333.352" y1="-19.0173" x2="290.001" y2="81.0389" gradientUnits="userSpaceOnUse">
<stop offset="0.16" stop-color="#FF8F66"/>
<stop offset="0.39" stop-color="#B16958"/>
<stop offset="0.61" stop-color="#6F494C"/>
<stop offset="0.79" stop-color="#3F3244"/>
<stop offset="0.92" stop-color="#21243E"/>
<stop offset="1" stop-color="#171F3D"/>
</linearGradient>
<linearGradient id="paint14_linear_47_9340" x1="306.931" y1="22.1549" x2="279.952" y2="90.5181" gradientUnits="userSpaceOnUse">
<stop offset="0.16" stop-color="#FF8F66"/>
<stop offset="0.28" stop-color="#C9745C"/>
<stop offset="0.42" stop-color="#935B52"/>
<stop offset="0.55" stop-color="#66454B"/>
<stop offset="0.68" stop-color="#443444"/>
<stop offset="0.8" stop-color="#2B2840"/>
<stop offset="0.91" stop-color="#1C213D"/>
<stop offset="1" stop-color="#171F3D"/>
</linearGradient>
<linearGradient id="paint15_linear_47_9340" x1="342.855" y1="21.5689" x2="315.876" y2="89.932" gradientUnits="userSpaceOnUse">
<stop offset="0.16" stop-color="#FF8F66"/>
<stop offset="0.28" stop-color="#C9745C"/>
<stop offset="0.42" stop-color="#935B52"/>
<stop offset="0.55" stop-color="#66454B"/>
<stop offset="0.68" stop-color="#443444"/>
<stop offset="0.8" stop-color="#2B2840"/>
<stop offset="0.91" stop-color="#1C213D"/>
<stop offset="1" stop-color="#171F3D"/>
</linearGradient>
<linearGradient id="paint16_linear_47_9340" x1="379.393" y1="124.091" x2="18.3579" y2="225.158" gradientUnits="userSpaceOnUse">
<stop stop-color="#FF8177"/>
<stop offset="1" stop-color="#B22B5B"/>
</linearGradient>
</defs>
<path d="M374.861 91.6698C374.861 91.6698 359.869 69.0802 296.701 68.3506C233.533 67.621 215.983 75.6386 175.372 54.5042C134.762 33.3699 89.1969 8.59552 0 36.2883C0 37.3647 0 155.069 0 155.069H374.861V91.6698Z" fill="url(#paint0_linear_47_9340)"/>
<path d="M47.3906 109.287L47 111.129H65.3002L65.1089 110.34L61.1387 108.956L60.8597 106.452L64.4193 107.513L62.1073 98.0202L59.4087 96.6328L59.0739 95.2294L61.6489 96.1344L59.0061 85.2982L57.3479 84.5088V82.7107L58.468 83.0934L55.5342 71.0571L54.7171 74.8925L55.2831 74.5257L54.9483 75.7257L54.3982 76.3955L53.6249 80.0276L54.9483 79.1704L54.6732 80.1193L53.4097 81.0482L51.5601 89.7156L53.5013 88.6073V89.8392L51.305 90.9276L50.9941 92.3868L52.9991 91.5376L52.7758 92.2632L50.8227 93.1762L49.2522 100.548L51.3807 99.1964V101.903L48.5944 103.646L47.9009 106.903L51.1575 104.862V106.943L47.3906 109.287Z" fill="url(#paint1_linear_47_9340)"/>
<path d="M83.1033 112.82H84.4067L84.315 107.589H93.3595L93.0446 106.301L89.0744 104.918L88.7954 102.414L92.355 103.474L90.043 93.9817L87.3445 92.5942L87.0096 91.1909L89.5847 92.0959L86.9419 81.2596L85.2836 80.4702V78.6761L86.4037 79.0549L83.47 67.0186L82.6528 70.8539L83.2188 70.4871L82.884 71.6872L82.3339 72.3569L81.5606 75.9929L82.884 75.1318L82.605 76.0807L81.3414 77.0096L79.4958 85.677L81.4371 84.5687V85.8007L79.2407 86.8891L78.9258 88.3483L80.9348 87.4991L80.7116 88.2246L78.7584 89.1377L77.1879 96.5094L79.3165 95.1578V97.8689L76.5302 99.6111L75.8366 102.868L79.0932 100.827V102.904L75.3264 105.249L74.8281 107.589H83.1391L83.1033 112.82Z" fill="url(#paint2_linear_47_9340)"/>
<path d="M98.1408 112.82H99.3645L99.3326 110.982H108.373L108.058 109.694L104.088 108.311L103.809 105.807L107.373 106.867L105.057 97.3745L102.362 95.9871L102.027 94.5798L104.598 95.4887L101.955 84.6525L100.297 83.8631V82.065L101.417 82.4477L98.4876 70.4114L97.6704 74.2468L98.2365 73.88L97.9016 75.08L97.3476 75.7498L96.5742 79.3818L97.9016 78.5207L97.6226 79.4736L96.359 80.4025L94.5135 89.0699L96.4507 87.9615V89.1895L94.2543 90.2819L93.9434 91.7411L95.9484 90.8919L95.7252 91.6175L93.776 92.5305L92.2055 99.9022L94.3341 98.5507V101.258L91.5438 103L90.8502 106.257L94.1109 104.216V106.297L90.344 108.641L89.8457 110.982H98.1568L98.1408 112.82Z" fill="url(#paint3_linear_47_9340)"/>
<path d="M101.733 104.467L101.387 103.048L97.0098 101.525L96.7029 98.762L100.625 99.9301L98.0781 89.4686L95.1045 87.9416L94.7377 86.3907L97.5718 87.3914L94.658 75.4468L92.8324 74.5777V72.5962L94.0681 73.0188L90.8354 59.7505L89.9345 63.9806L90.5563 63.5739L90.1896 64.8975L89.5797 65.6351L88.7267 69.6419L90.1896 68.693L89.8827 69.7376L88.4876 70.7622L86.4546 80.3187L88.5912 79.0947V80.4503L86.1676 81.6503L85.8248 83.261L88.0371 82.3241L87.794 83.1255L85.6415 84.1302L83.9115 92.2554L86.2553 90.7643V93.7505L83.182 95.6721L82.4207 99.2603L86.0122 97.0117V99.3042L81.8587 101.888L81.3086 104.467H90.4686L90.4168 112.026H91.8996L91.7681 104.467H101.733Z" fill="url(#paint4_linear_47_9340)"/>
<path d="M61.5374 107.413L60.9395 110.224H87.5307L87.2198 108.94L81.4599 106.935L81.0573 103.303L86.2192 104.842L82.8669 91.0792L78.9566 89.0738L78.4703 87.0365L82.2013 88.3482L78.3706 72.644L75.967 71.4958V68.8923L77.5933 69.4465L73.3402 52L72.1563 57.5577L72.9774 57.0274L72.4912 58.7657L71.6939 59.7345L70.5698 65.0051L72.4912 63.7572L72.0886 65.1327L70.255 66.4803L67.5803 79.0469L70.3905 77.4401V79.2223L67.2056 80.8011L66.7552 82.9181L69.665 81.6862L69.3421 82.7387L66.512 84.0584L64.2359 94.7471L67.3211 92.7856V96.7127L63.2793 99.2403L62.2708 103.961L66.9983 101.003V104.017L61.5374 107.413Z" fill="url(#paint5_linear_47_9340)"/>
<path d="M58.106 111.161L57.9785 111.671H71.1446L70.8735 110.4L68.159 108.713V107.214L70.5068 108.685L70.0086 106.337L67.9996 105.081V103.128L69.5342 104.104L68.4022 98.7899L66.9951 98.132L66.8356 97.6098L68.2786 98.2197L68.0554 97.1673L66.4729 96.3818V95.4967L67.868 96.2941L66.5406 90.0467L65.6278 89.3769L65.4285 88.6952L66.3812 89.3131L65.8232 86.6938L65.4285 86.2113L65.1854 85.3462L65.5959 85.6133L65.006 82.8464L62.8894 91.5218L63.6986 91.2467V92.5425L62.5027 93.1126L60.6013 100.923L62.4549 100.269L62.2117 101.282L60.2705 102.282L58.6003 109.124L61.1674 108.358L60.9681 110.164L58.106 111.161Z" fill="url(#paint6_linear_47_9340)"/>
<path d="M91.3371 112.82H92.218L92.21 111.604H98.1972L97.8384 109.917L95.1239 108.227V106.728L97.4717 108.199L96.9734 105.851L94.9645 104.595V102.645L96.4991 103.618L95.3671 98.3035L93.96 97.6456L93.7965 97.1233L95.2435 97.7373L95.0203 96.6848L93.4377 95.8994V95.0103L94.8329 95.8117L93.5015 89.5643L92.5927 88.8945L92.3934 88.2087L93.3461 88.8307L92.788 86.2074L92.3934 85.7289L92.1502 84.8637L92.5568 85.1269L91.9709 82.364L89.8543 91.0354L90.6634 90.7643V92.056L89.4676 92.6262L87.5662 100.436L89.4198 99.7826L89.1766 100.795L87.2314 101.796L85.5652 108.637L88.1323 107.876L87.933 109.678L85.0669 110.675L84.8438 111.604H91.361L91.3371 112.82Z" fill="url(#paint7_linear_47_9340)"/>
<path d="M0.00390625 143.635C0.00390625 143.635 14.9996 107.972 78.1912 106.82C141.383 105.668 158.938 118.326 199.564 84.9599C240.19 51.5979 285.771 12.4828 375 56.1987V223.786H0.00390625V143.631V143.635Z" fill="url(#paint8_linear_47_9340)"/>
<path d="M264.544 76.0055L264.025 78.4455H288.305L288.054 77.4009L282.784 75.567L282.413 72.2419L287.137 73.6493L284.067 61.0548L280.492 59.2168L280.046 57.351L283.458 58.5551L279.954 44.1784L277.754 43.1299V40.7457L279.24 41.2521L275.35 25.2847L274.266 30.3719L275.015 29.8855L274.573 31.4763L273.839 32.3653L272.815 37.1854L274.573 36.0452L274.202 37.3051L272.528 38.537L270.076 50.0391L272.647 48.5679V50.1986L269.734 51.6458L269.323 53.5834L271.982 52.4551L271.687 53.42L269.1 54.628L267.015 64.4077L269.837 62.6176V66.2098L266.138 68.5222L265.217 72.8439L269.542 70.1369V72.8958L264.544 76.0055Z" fill="url(#paint9_linear_47_9340)"/>
<path d="M311.925 80.694H313.655L313.531 73.7529H325.53L325.111 72.0465L319.845 70.2086L319.475 66.8875L324.198 68.2909L321.129 55.6964L317.549 53.8584L317.107 51.9926L320.519 53.1966L317.015 38.82L314.815 37.7715V35.3913L316.302 35.8936L312.411 19.9263L311.327 25.0135L312.077 24.5271L311.634 26.1218L310.901 27.0069L309.876 31.831L311.634 30.6868L311.263 31.9467L309.585 33.1826L307.138 44.6807L309.709 43.2095V44.8442L306.795 46.2874L306.38 48.225L309.043 47.1007L308.748 48.0615L306.161 49.2696L304.076 59.0533L306.899 57.2592V60.8514L303.2 63.1638L302.279 67.4855L306.604 64.7785V67.5373L301.605 70.6471L300.943 73.7529H311.969L311.925 80.694Z" fill="url(#paint10_linear_47_9340)"/>
<path d="M331.881 80.6941H333.499L333.455 78.2501H345.453L345.039 76.5438L339.769 74.7098L339.399 71.3848L344.122 72.7921L341.053 60.1976L337.477 58.3597L337.031 56.4938L340.443 57.6979L336.939 43.3212L334.739 42.2727V39.8885L336.226 40.3949L332.335 24.4275L331.251 29.5147L332 29.0283L331.558 30.6191L330.824 31.5082L329.8 36.3283L331.558 35.1881L331.187 36.4479L329.513 37.6799L327.062 49.1819L329.637 47.7108V49.3414L326.719 50.7886L326.308 52.7263L328.967 51.598L328.672 52.5628L326.085 53.7708L324 63.5506L326.822 61.7605V65.3526L323.123 67.665L322.202 71.9868L326.527 69.2797V72.0386L321.529 75.1484L320.871 78.2501H331.897L331.881 80.6941Z" fill="url(#paint11_linear_47_9340)"/>
<path d="M336.64 69.6067L336.182 67.7289L330.374 65.7035L329.968 62.0436L335.173 63.5905L331.789 49.7122L327.847 47.6829L327.357 45.6297L331.12 46.9533L327.257 31.1095L324.83 29.9534V27.326L326.472 27.8841L322.183 10.2861L320.987 15.8917L321.816 15.3574L321.326 17.1116L320.521 18.0884L319.389 23.4029L321.326 22.147L320.919 23.5345L319.07 24.894L316.371 37.5682L319.205 35.9496V37.7476L315.992 39.3384L315.538 41.4753L318.472 40.2314L318.145 41.292L315.291 42.6275L312.995 53.408L316.108 51.4306V55.3935L312.03 57.9411L311.018 62.7014L315.781 59.7192V62.7612L310.272 66.1859L309.547 69.6067H321.696L321.629 79.6376H323.594L323.418 69.6067H336.64Z" fill="url(#paint12_linear_47_9340)"/>
<path d="M283.311 73.5177L282.518 77.2494H317.799L317.384 75.543L309.747 72.8838L309.212 68.0677L316.061 70.105L311.608 51.8491L306.422 49.1859L305.78 46.4828L310.727 48.2251L305.649 27.3857L302.456 25.8668V22.4141L304.613 23.1437L298.972 0L297.402 7.37569L298.49 6.67001L297.848 8.97837L296.784 10.2622L295.297 17.2511L297.848 15.5966L297.31 17.4226L294.878 19.2127L291.331 35.8818L295.058 33.7487V36.117L290.833 38.2101L290.235 41.0168L294.093 39.3862L293.667 40.7816L289.912 42.5318L286.89 56.7131L290.984 54.1137V59.3205L285.623 62.6734L284.287 68.9368L290.554 65.0137V69.0126L283.311 73.5177Z" fill="url(#paint13_linear_47_9340)"/>
<path d="M278.757 78.4893L278.59 79.167H296.057L295.698 77.4846L292.095 75.244V73.2545L295.212 75.2041L294.55 72.0904L291.883 70.4238V67.8324L293.916 69.1281L292.418 62.0754L290.552 61.2023L290.337 60.5125L292.254 61.3218L291.959 59.9264L289.859 58.8859V57.7098L291.712 58.7663L289.946 50.4776L288.738 49.5885L288.471 48.6835L289.739 49.5048L288.998 46.0283L288.471 45.3904L288.152 44.2421L288.691 44.593L287.909 40.925L285.107 52.4351L286.179 52.0684V53.7867L284.593 54.5442L282.066 64.906L284.525 64.0369L284.206 65.3845L281.627 66.7081L279.415 75.7862L282.819 74.7735L282.552 77.1696L278.757 78.4893Z" fill="url(#paint14_linear_47_9340)"/>
<path d="M322.852 80.694H324.016L324.004 79.0794H331.953L331.474 76.8388L327.875 74.5981V72.6127L330.992 74.5622L330.326 71.4485L327.66 69.782V67.1905L329.696 68.4823L328.194 61.4335L326.328 60.5604L326.113 59.8667L328.034 60.68L327.735 59.2846L325.635 58.24V57.0639L327.488 58.1244L325.722 49.8358L324.514 48.9466L324.247 48.0377L325.515 48.8629L324.778 45.3864L324.247 44.7445L323.929 43.6003L324.471 43.9511L323.689 40.2832L320.883 51.7933L321.955 51.4265V53.1448L320.369 53.9023L317.842 64.2642L320.301 63.3951L319.982 64.7426L317.403 66.0662L315.191 75.1443L318.599 74.1317L318.332 76.5238L314.533 77.8474L314.234 79.0794H322.88L322.852 80.694Z" fill="url(#paint15_linear_47_9340)"/>
<path d="M0.00390625 146.011C0.00390625 146.011 14.9996 116.671 78.1912 115.727C141.383 114.782 158.938 140.959 199.564 113.514C240.19 86.0683 285.771 53.8904 375 89.8518V598H0.00390625V146.015V146.011Z" fill="url(#paint16_linear_47_9340)"/>
</svg>
