<svg width="280" height="292" viewBox="0 0 280 292" fill="none" xmlns="http://www.w3.org/2000/svg">
<path d="M143.899 291.865C155.709 292.45 164.3 290.977 166.807 290.414C175.111 289.335 209.637 288.941 225.862 288.879C211.665 288.739 182.987 288.457 181.841 288.455L171.82 288.439C169.554 288.27 167.103 287.531 163.233 287.363C157.262 287.104 157.146 289.053 148.557 288.402C139.969 287.751 132.81 288.377 127.8 287.873C122.791 287.369 109.19 287.631 100.242 288.325C93.083 288.88 57.8904 288.73 41.1889 288.585C54.4308 288.701 82.4176 289.005 88.4297 289.298C95.9449 289.664 103.46 289.888 111.333 290.68C119.205 291.471 123.143 290.699 127.796 290.706C132.448 290.713 132.09 291.28 143.899 291.865Z" fill="#632626" fill-opacity="0.35"/>
<path d="M199.111 256.977L71.2196 257.414L71.284 276.246L199.175 275.808L199.111 256.977Z" fill="#8D7F52"/>
<g opacity="0.5">
<path d="M199.111 256.976L71.2196 257.414L71.284 276.245L199.175 275.807L199.111 256.976Z" fill="black"/>
</g>
<path d="M89.342 288.404C96.136 287.922 101.254 282.004 100.773 275.187C100.293 268.369 94.3954 263.233 87.6014 263.715C80.8074 264.197 75.6895 270.115 76.1701 276.933C76.6508 283.75 82.548 288.886 89.342 288.404Z" fill="#171C1F"/>
<path d="M76.1415 275.892C76.1415 275.892 76.1416 275.913 76.1416 275.924C76.0659 282.758 81.5274 288.36 88.337 288.434C95.1466 288.51 100.729 283.03 100.805 276.196C100.805 276.185 100.805 276.175 100.805 276.164L76.1461 275.892L76.1415 275.892Z" fill="#171C1F"/>
<path d="M79.8138 275.966C79.7611 280.763 83.5941 284.696 88.3752 284.749C93.1562 284.803 97.0755 280.956 97.1283 276.158C97.181 271.361 93.348 267.428 88.567 267.375C83.7859 267.322 79.8666 271.168 79.8138 275.966Z" fill="#FAFAFA"/>
<path d="M88.566 267.374C83.785 267.321 79.8656 271.167 79.8129 275.965L97.1273 276.155C97.1801 271.358 93.347 267.425 88.566 267.372L88.566 267.374Z" fill="#E0E0E0"/>
<path d="M83.1986 276.002C83.1671 278.924 85.5012 281.319 88.415 281.353C91.3265 281.385 93.7158 279.043 93.7473 276.119C93.7788 273.197 91.4447 270.799 88.5309 270.768C85.6194 270.736 83.2324 273.078 83.1986 276.002Z" fill="#171C1F"/>
<path d="M183.534 288.077C190.332 287.658 195.505 281.788 195.087 274.966C194.669 268.144 188.819 262.954 182.021 263.373C175.223 263.792 170.051 269.662 170.469 276.484C170.886 283.305 176.736 288.496 183.534 288.077Z" fill="#171C1F"/>
<path d="M170.444 275.568C170.444 275.568 170.444 275.589 170.444 275.601C170.368 282.434 175.83 288.036 182.64 288.11C189.449 288.186 195.032 282.706 195.108 275.872C195.108 275.861 195.108 275.852 195.107 275.84L170.449 275.568L170.444 275.568Z" fill="#171C1F"/>
<path d="M174.114 275.642C174.062 280.44 177.895 284.373 182.676 284.426C187.457 284.479 191.376 280.632 191.429 275.835C191.482 271.037 187.649 267.104 182.868 267.051C178.087 266.998 174.167 270.844 174.114 275.642Z" fill="#FAFAFA"/>
<path d="M182.869 267.051C178.088 266.998 174.168 270.845 174.115 275.642L191.43 275.833C191.483 271.035 187.65 267.102 182.869 267.049L182.869 267.051Z" fill="#E0E0E0"/>
<path d="M177.499 275.678C177.468 278.6 179.802 280.996 182.716 281.029C185.627 281.061 188.016 278.719 188.048 275.795C188.079 272.873 185.745 270.476 182.831 270.444C179.92 270.412 177.533 272.755 177.499 275.678Z" fill="#171C1F"/>
<path d="M104.536 246.707C104.536 246.707 86.381 248.113 79.6553 249.651C74.9151 250.736 65.7747 252.608 65.9051 258.384L66.6454 262.52C66.6454 262.52 63.2576 264.086 63.2712 268.055C63.2848 272.024 62.4783 278.182 70.3972 278.401C71.702 278.438 74.1821 278.388 74.1821 278.388C74.1821 278.388 72.6029 261.468 88.0983 260.917C103.861 260.359 102.875 278.134 102.875 278.134L168.668 277.909C168.668 277.909 165.909 260.605 182.879 260.523C199.849 260.44 197.327 277.925 197.327 277.925C197.327 277.925 203.571 278.444 206.458 273.17C209.344 267.895 208.575 264.15 208.575 264.15L208.467 260.822C208.431 259.689 207.524 258.778 206.397 258.738C206.397 258.738 207.502 250.354 205.757 248.909C204.012 247.465 194.445 238.749 194.445 238.749L194.899 238.461C195.658 237.98 195.522 236.828 194.671 236.537C191.045 235.3 183.877 232.852 182.192 232.268C181.938 232.181 181.678 232.126 181.41 232.107C180.405 232.034 177.562 231.861 172.341 231.823C165.981 231.778 140.731 231.931 140.731 231.931C140.731 231.931 132.043 232.678 127.21 234.834C122.128 237.1 104.538 246.707 104.538 246.707L104.536 246.707Z" fill="white"/>
<g opacity="0.4">
<path d="M67.8733 267.578C67.2136 267.446 66.2039 267.436 65.7029 267.886C65.3306 268.221 65.2333 268.758 65.1797 269.258C65.1037 269.94 65.0669 270.641 65.2329 271.309C65.3965 271.977 65.7882 272.614 66.391 272.941C66.9938 273.267 67.8211 273.211 68.2873 272.707C68.7145 272.248 68.7606 271.559 68.7469 270.929C68.7277 270.037 68.7965 269.28 68.6299 268.404C68.597 268.237 68.5087 268.025 68.4022 267.896C68.2263 267.683 68.0923 267.594 67.8756 267.581" fill="black"/>
</g>
<path d="M66.6453 262.519C68.5724 262.518 70.4438 262.4 72.3658 262.264C72.5732 262.249 72.799 262.225 72.9507 262.084C73.1345 261.912 73.1474 261.63 73.1488 261.378C73.1545 260.341 73.0997 259.162 72.3137 258.489C71.8328 258.079 71.1754 257.952 70.5482 257.894C69.001 257.753 67.3786 257.879 65.9051 258.379L66.6453 262.515L66.6453 262.519Z" fill="#FAFAFA"/>
<path d="M106.728 277.592C106.728 277.592 106.72 277.536 106.711 277.428C106.704 277.314 106.691 277.153 106.677 276.942C106.652 276.512 106.616 275.883 106.569 275.076C106.52 274.266 106.464 273.274 106.345 272.127C106.221 270.983 106.041 269.679 105.651 268.283C105.259 266.889 104.662 265.406 103.781 263.95C102.895 262.505 101.733 261.061 100.181 259.946C97.061 257.736 92.8545 256.495 88.4608 256.457C84.0533 256.418 79.872 257.83 76.8488 260.17C75.3221 261.315 74.0589 262.652 73.0886 264.048C72.1091 265.439 71.3948 266.869 70.8946 268.226C70.3875 269.583 70.1222 270.877 69.974 272.016C69.8119 273.157 69.8407 274.154 69.8711 274.963C69.9361 275.77 70.0097 276.397 70.1033 276.813C70.1409 277.021 70.1714 277.18 70.1903 277.291C70.2091 277.4 70.2162 277.455 70.2162 277.455C70.2162 277.455 70.2022 277.402 70.1788 277.294C70.1553 277.183 70.1225 277.023 70.078 276.818C69.9775 276.402 69.8969 275.775 69.8227 274.966C69.7854 274.156 69.7497 273.155 69.9048 272.009C70.0484 270.864 70.3067 269.565 70.8115 268.198C71.3117 266.834 72.0236 265.393 73.0054 263.993C73.978 262.587 75.2458 261.239 76.7817 260.084C79.821 257.726 84.0299 256.301 88.4627 256.339C92.8818 256.379 97.1068 257.628 100.247 259.858C101.814 260.986 102.981 262.444 103.868 263.899C104.752 265.364 105.349 266.859 105.737 268.259C106.124 269.664 106.297 270.973 106.414 272.12C106.528 273.269 106.578 274.261 106.617 275.073C106.655 275.883 106.682 276.51 106.702 276.942C106.712 277.152 106.72 277.314 106.725 277.428C106.73 277.536 106.728 277.594 106.728 277.594L106.728 277.592Z" fill="white"/>
<path d="M107.428 277.876C107.428 277.876 107.423 277.83 107.42 277.737C107.418 277.643 107.41 277.506 107.405 277.328C107.392 276.965 107.374 276.428 107.351 275.73C107.307 274.328 107.24 272.274 107.158 269.665C107.077 267.054 106.981 263.883 106.869 260.252C106.841 259.343 106.812 258.406 106.784 257.442C106.75 256.961 106.799 256.468 106.841 255.973C106.875 255.725 106.908 255.477 106.944 255.227C106.994 254.98 107.044 254.732 107.094 254.48C107.323 253.484 107.659 252.486 108.11 251.513C108.563 250.542 109.101 249.583 109.79 248.692L109.794 248.685L109.801 248.681C113.313 246.443 117.132 244.011 121.171 241.438C122.18 240.794 123.204 240.143 124.241 239.483C125.258 238.785 126.358 238.189 127.492 237.646C128.629 237.106 129.81 236.632 131.023 236.216C131.629 236.001 132.248 235.823 132.868 235.636C133.494 235.475 134.118 235.294 134.759 235.163C137.209 234.608 139.679 234.329 142.099 234.208C144.522 234.086 146.898 234.085 149.208 234.206L149.275 234.211L149.262 234.278C148.188 239.176 147.176 243.797 146.248 248.031L146.248 248.04L146.241 248.049C145.67 249 145.215 249.998 144.877 251.006C144.553 252.015 144.345 253.052 144.422 254.063C144.504 255.078 144.535 256.073 144.563 257.035C144.585 257.999 144.607 258.936 144.628 259.843C144.694 263.474 144.718 266.641 144.737 269.252C144.748 271.861 144.757 273.911 144.764 275.313C144.764 276.011 144.764 276.546 144.763 276.911C144.763 277.092 144.762 277.226 144.76 277.321C144.76 277.413 144.755 277.459 144.755 277.459C144.755 277.459 144.753 277.413 144.75 277.321C144.75 277.226 144.747 277.089 144.744 276.911C144.743 276.548 144.737 276.011 144.73 275.313C144.716 273.911 144.697 271.859 144.674 269.252C144.647 266.643 144.613 263.474 144.541 259.845C144.519 258.939 144.495 258.002 144.471 257.037C144.44 256.073 144.407 255.083 144.325 254.07C144.245 253.041 144.454 251.992 144.78 250.973C145.12 249.957 145.573 248.954 146.151 247.992L146.144 248.008C147.067 243.772 148.077 239.151 149.146 234.253L149.2 234.324C146.896 234.203 144.52 234.206 142.104 234.328C139.689 234.449 137.228 234.728 134.784 235.28C134.146 235.41 133.524 235.592 132.9 235.752C132.283 235.939 131.666 236.115 131.063 236.329C129.854 236.743 128.675 237.214 127.543 237.753C126.413 238.293 125.318 238.887 124.308 239.577C123.271 240.238 122.247 240.889 121.238 241.531C117.194 244.101 113.374 246.531 109.859 248.764L109.871 248.752C109.191 249.629 108.653 250.586 108.202 251.55C107.751 252.516 107.418 253.507 107.189 254.496C106.677 256.48 106.944 258.436 106.955 260.247C107.057 263.878 107.146 267.049 107.22 269.661C107.291 272.27 107.346 274.323 107.383 275.725C107.4 276.424 107.413 276.96 107.423 277.323C107.426 277.504 107.429 277.64 107.432 277.733C107.432 277.825 107.432 277.872 107.432 277.872L107.428 277.876Z" fill="#263238"/>
<path d="M149.125 234.6C149.125 234.6 149.162 234.595 149.233 234.592C149.309 234.59 149.413 234.585 149.551 234.58C149.835 234.572 150.245 234.561 150.775 234.545C151.845 234.521 153.391 234.485 155.314 234.44C159.17 234.359 164.541 234.251 170.614 234.126L170.642 234.126L170.66 234.146C171.35 234.988 172.075 235.874 172.813 236.774C174.994 239.438 177.072 241.978 178.961 244.287C179.197 244.575 179.431 244.861 179.66 245.143C179.887 245.429 180.082 245.74 180.235 246.061C180.539 246.708 180.696 247.401 180.701 248.072C180.71 248.743 180.574 249.391 180.336 249.966C180.096 250.533 179.865 251.077 179.643 251.599C178.758 253.672 178.042 255.351 177.544 256.519C177.295 257.096 177.103 257.545 176.968 257.853C176.901 258.002 176.851 258.117 176.814 258.199C176.78 258.277 176.759 258.314 176.759 258.314C176.759 258.314 176.773 258.273 176.803 258.194C176.837 258.111 176.883 257.995 176.944 257.844C177.073 257.531 177.26 257.08 177.5 256.501C177.989 255.331 178.694 253.647 179.565 251.567C179.958 250.52 180.652 249.416 180.599 248.075C180.592 247.418 180.438 246.741 180.138 246.108C179.985 245.794 179.797 245.491 179.573 245.21C179.341 244.929 179.108 244.645 178.872 244.356C176.98 242.05 174.899 239.512 172.717 236.85C171.98 235.951 171.254 235.065 170.564 234.223L170.61 234.244C164.536 234.352 159.166 234.449 155.307 234.518C153.385 234.548 151.838 234.572 150.769 234.587C150.241 234.593 149.828 234.597 149.545 234.6C149.409 234.601 149.303 234.601 149.227 234.601C149.155 234.602 149.118 234.597 149.118 234.597L149.125 234.6Z" fill="#263238"/>
<path d="M141.472 255.044C141.472 255.044 141.536 255.037 141.656 255.016C141.774 254.994 141.949 254.948 142.14 254.82C142.328 254.694 142.53 254.481 142.631 254.175C142.683 254.022 142.699 253.853 142.691 253.666C142.686 253.485 142.639 253.294 142.546 253.116C142.361 252.763 141.959 252.468 141.481 252.469C140.995 252.471 140.474 252.475 139.928 252.479C138.831 252.483 137.63 252.49 136.366 252.496C136.065 252.497 135.77 252.616 135.556 252.816C135.34 253.016 135.203 253.291 135.174 253.574C135.145 253.865 135.185 254.15 135.324 254.39C135.459 254.63 135.676 254.812 135.916 254.913C136.158 255.021 136.421 255.003 136.684 255.005C136.942 255.004 137.196 255.003 137.438 255.005C137.924 255.005 138.376 255.006 138.793 255.007C139.611 255.011 140.28 255.016 140.755 255.019C140.978 255.023 141.156 255.027 141.287 255.028C141.41 255.033 141.474 255.035 141.474 255.039C141.474 255.044 141.41 255.049 141.287 255.052C141.154 255.054 140.976 255.06 140.755 255.065C140.28 255.071 139.612 255.08 138.793 255.09C138.379 255.092 137.924 255.098 137.438 255.102C137.194 255.103 136.942 255.103 136.684 255.107C136.553 255.107 136.426 255.112 136.286 255.106C136.147 255.097 136.006 255.067 135.875 255.012C135.612 254.902 135.374 254.706 135.225 254.443C135.072 254.182 135.027 253.861 135.058 253.558C135.09 253.245 135.241 252.942 135.477 252.724C135.714 252.503 136.036 252.372 136.368 252.371C137.632 252.367 138.835 252.365 139.93 252.364C140.476 252.364 140.997 252.365 141.486 252.365C142 252.368 142.432 252.691 142.622 253.072C142.72 253.263 142.767 253.467 142.767 253.659C142.772 253.846 142.752 254.033 142.693 254.191C142.581 254.513 142.363 254.731 142.165 254.854C141.963 254.98 141.781 255.02 141.659 255.034C141.536 255.048 141.472 255.037 141.472 255.037L141.472 255.044Z" fill="#263238"/>
<path d="M175.571 254.927C175.571 254.927 175.636 254.92 175.756 254.899C175.873 254.878 176.048 254.831 176.239 254.703C176.428 254.577 176.63 254.364 176.73 254.058C176.783 253.905 176.801 253.737 176.791 253.549C176.785 253.369 176.739 253.177 176.646 252.999C176.46 252.646 176.058 252.351 175.581 252.353C175.095 252.354 174.574 252.359 174.027 252.363C172.93 252.366 171.729 252.373 170.466 252.38C170.164 252.381 169.869 252.5 169.656 252.699C169.44 252.899 169.302 253.175 169.273 253.457C169.244 253.748 169.285 254.033 169.424 254.273C169.558 254.513 169.775 254.695 170.016 254.796C170.258 254.904 170.521 254.887 170.783 254.888C171.042 254.887 171.295 254.886 171.537 254.888C172.024 254.889 172.475 254.889 172.893 254.89C173.711 254.894 174.379 254.899 174.854 254.902C175.078 254.906 175.255 254.91 175.387 254.912C175.509 254.916 175.574 254.918 175.574 254.923C175.574 254.927 175.509 254.932 175.387 254.935C175.253 254.938 175.076 254.943 174.855 254.948C174.38 254.955 173.711 254.964 172.893 254.974C172.478 254.975 172.024 254.981 171.538 254.985C171.293 254.986 171.042 254.987 170.784 254.99C170.652 254.99 170.526 254.996 170.385 254.989C170.247 254.98 170.106 254.951 169.974 254.896C169.711 254.786 169.473 254.59 169.325 254.327C169.172 254.066 169.127 253.744 169.158 253.441C169.189 253.129 169.34 252.825 169.577 252.607C169.814 252.386 170.136 252.256 170.468 252.255C171.731 252.25 172.934 252.248 174.029 252.247C174.576 252.247 175.097 252.248 175.585 252.249C176.099 252.252 176.531 252.574 176.722 252.955C176.819 253.147 176.866 253.35 176.867 253.542C176.872 253.729 176.852 253.917 176.792 254.074C176.681 254.396 176.462 254.614 176.265 254.738C176.062 254.863 175.88 254.903 175.758 254.917C175.636 254.932 175.571 254.92 175.571 254.92L175.571 254.927Z" fill="#263238"/>
<path d="M205.453 249.241L198.63 249.264C197.694 249.267 196.838 249.791 196.405 250.623C196.05 251.306 196.025 252.114 196.337 252.818L199.034 258.909L205.866 258.818C205.866 258.818 207.292 251.083 205.453 249.243L205.453 249.241Z" fill="#FAFAFA"/>
<path d="M110.689 248.705L145.893 247.935L168.804 247.436L176.345 243.033C176.955 242.677 177.116 241.862 176.687 241.299L171.964 235.114C171.471 234.468 170.709 234.089 169.899 234.085L144.271 233.964C144.271 233.964 134.617 233.435 127.03 237.734C119.042 242.258 110.689 248.708 110.689 248.708L110.689 248.705Z" fill="#263238"/>
<path d="M126.778 234.662C126.778 234.662 128.547 235.463 127.399 236.217C126.254 236.968 108.456 248.314 108.456 248.314L104.348 246.466C111.598 242.38 118.922 238.413 126.778 234.664L126.778 234.662Z" fill="#455A64"/>
<path d="M109.033 248.593C109.033 248.593 108.996 248.605 108.922 248.621C108.844 248.638 108.736 248.663 108.598 248.694C108.307 248.755 107.886 248.844 107.347 248.957C106.26 249.178 104.684 249.489 102.73 249.831C98.8232 250.52 93.3951 251.325 87.3645 251.871C85.8574 252.008 84.3825 252.122 82.9583 252.219C81.534 252.319 80.1605 252.409 78.8562 252.534C76.2476 252.772 73.9093 253.161 72.0118 253.735C70.1097 254.289 68.6552 254.998 67.7005 255.556C67.2104 255.817 66.8632 256.072 66.6148 256.226C66.4952 256.303 66.4032 256.363 66.3342 256.405C66.2698 256.444 66.2353 256.463 66.2353 256.463C66.2353 256.463 66.2652 256.438 66.3249 256.396C66.3916 256.349 66.4813 256.286 66.5986 256.205C66.8424 256.045 67.1873 255.782 67.675 255.514C68.6251 254.942 70.0795 254.218 71.9862 253.651C73.8882 253.064 76.2311 252.665 78.8443 252.423C80.1509 252.296 81.5244 252.201 82.9486 252.101C84.3729 252.001 85.8454 251.888 87.3525 251.751C93.3809 251.207 98.8067 250.416 102.716 249.748C104.672 249.415 106.248 249.118 107.34 248.911C107.881 248.807 108.303 248.725 108.595 248.668C108.736 248.643 108.844 248.624 108.922 248.607C108.996 248.595 109.035 248.591 109.035 248.591L109.033 248.593Z" fill="#263238"/>
<path d="M208.23 264.073C208.231 264.105 205.884 264.141 202.991 264.151C200.098 264.161 197.749 264.141 197.749 264.109C197.749 264.077 200.096 264.041 202.991 264.031C205.886 264.021 208.23 264.041 208.23 264.073Z" fill="#263238"/>
<path d="M165.325 270.229C165.325 270.262 152.08 270.335 135.743 270.391C119.407 270.447 106.16 270.464 106.16 270.432C106.159 270.4 119.402 270.326 135.743 270.271C152.084 270.215 165.324 270.197 165.325 270.229Z" fill="#263238"/>
<path d="M72.5609 264.736C72.561 264.768 70.6871 264.803 68.3773 264.81C66.0676 264.818 64.1935 264.797 64.1934 264.765C64.1933 264.732 66.0649 264.698 68.3769 264.69C70.6889 264.682 72.5608 264.704 72.5609 264.736Z" fill="#263238"/>
<path d="M194.256 238.509C194.256 238.509 192.69 240.282 193.312 241.575C193.934 242.868 200.335 247.383 200.335 247.383L204.973 248.239L194.253 238.507L194.256 238.509Z" fill="#455A64"/>
<path d="M150.172 235.498L149.169 246.799L167.82 246.2L175.322 241.789L170.434 235.428L150.172 235.498Z" fill="#455A64"/>
<path d="M115.103 247.494C115.103 247.494 126.329 239.299 130.763 237.665C135.043 236.087 137.275 235.686 141.299 235.559C145.146 235.437 147.491 235.535 147.491 235.535L144.556 247.03L115.103 247.499L115.103 247.494Z" fill="#455A64"/>
<path d="M113.457 247.536C113.455 246.821 113.838 246.16 114.457 245.806L117.036 244.34C117.772 243.921 118.601 243.701 119.447 243.698C119.972 243.697 120.491 243.778 120.983 243.938C122.088 244.298 122.827 245.348 122.877 246.513C122.945 248.132 121.656 249.485 120.041 249.491L115.435 249.507C114.347 249.51 113.461 248.627 113.457 247.536Z" fill="white"/>
<path d="M113.457 247.536C113.457 247.536 113.465 247.624 113.488 247.786C113.509 247.948 113.57 248.188 113.716 248.463C113.869 248.733 114.124 249.033 114.512 249.242C114.706 249.343 114.932 249.419 115.177 249.45C115.421 249.479 115.691 249.46 115.972 249.461C117.097 249.453 118.434 249.446 119.916 249.434C120.285 249.433 120.656 249.387 121.012 249.25C121.369 249.114 121.703 248.903 121.985 248.624C122.266 248.346 122.497 248.005 122.639 247.62C122.783 247.236 122.839 246.815 122.808 246.396C122.74 245.554 122.29 244.779 121.636 244.33C121.313 244.1 120.941 243.969 120.568 243.882C120.194 243.793 119.818 243.753 119.452 243.754C118.716 243.757 118.023 243.923 117.429 244.196C117.132 244.331 116.861 244.501 116.592 244.648C116.325 244.799 116.067 244.943 115.823 245.081C115.333 245.355 114.891 245.602 114.5 245.823C114.111 246.035 113.859 246.339 113.712 246.61C113.563 246.883 113.509 247.126 113.486 247.288C113.464 247.453 113.467 247.538 113.46 247.538C113.46 247.538 113.448 247.451 113.463 247.284C113.479 247.12 113.526 246.872 113.673 246.587C113.817 246.307 114.074 245.986 114.47 245.763C114.859 245.54 115.298 245.286 115.784 245.007C116.028 244.867 116.283 244.721 116.548 244.567C116.814 244.418 117.086 244.246 117.39 244.106C117.993 243.824 118.702 243.648 119.453 243.643C119.829 243.642 120.214 243.682 120.597 243.771C120.978 243.858 121.37 243.993 121.708 244.235C122.389 244.702 122.862 245.512 122.93 246.389C122.964 246.826 122.905 247.265 122.754 247.666C122.606 248.067 122.365 248.424 122.071 248.712C121.777 249.002 121.427 249.223 121.057 249.361C120.686 249.503 120.292 249.551 119.919 249.547C118.436 249.548 117.102 249.548 115.974 249.547C115.693 249.543 115.428 249.558 115.17 249.526C114.914 249.493 114.681 249.41 114.482 249.302C114.083 249.079 113.828 248.763 113.677 248.486C113.533 248.202 113.479 247.955 113.465 247.79C113.451 247.624 113.46 247.536 113.46 247.536L113.457 247.536Z" fill="#263238"/>
<path d="M200.259 277.375C200.259 277.375 200.259 277.32 200.265 277.216C200.272 277.107 200.283 276.95 200.296 276.746C200.307 276.54 200.331 276.286 200.344 275.982C200.352 275.679 200.365 275.33 200.375 274.939C200.378 274.546 200.372 274.109 200.364 273.632C200.332 273.156 200.328 272.635 200.261 272.083C200.158 270.973 199.97 269.713 199.582 268.363C199.382 267.693 199.154 266.993 198.84 266.295C198.543 265.591 198.164 264.889 197.72 264.197C196.837 262.807 195.59 261.53 194.104 260.434C192.613 259.343 190.851 258.467 188.925 257.893C187 257.308 184.906 257.1 182.776 257.093C180.644 257.096 178.561 257.392 176.648 258.009C175.692 258.316 174.779 258.7 173.923 259.15C173.069 259.601 172.285 260.141 171.558 260.712C170.112 261.865 168.893 263.155 167.92 264.481C167.44 265.149 167.053 265.844 166.714 266.53C166.394 267.225 166.104 267.899 165.882 268.566C164.958 271.22 164.673 273.5 164.574 275.062C164.54 275.846 164.547 276.457 164.567 276.868C164.579 277.072 164.589 277.229 164.596 277.338C164.601 277.444 164.601 277.497 164.601 277.497C164.601 277.497 164.594 277.444 164.582 277.338C164.573 277.229 164.558 277.072 164.541 276.868C164.512 276.454 164.499 275.844 164.526 275.057C164.611 273.491 164.884 271.202 165.801 268.537C166.023 267.867 166.311 267.189 166.631 266.489C166.97 265.798 167.36 265.099 167.841 264.421C168.816 263.083 170.038 261.784 171.491 260.625C172.222 260.048 173.009 259.504 173.869 259.048C174.732 258.596 175.651 258.207 176.613 257.898C178.538 257.276 180.637 256.976 182.778 256.975C184.918 256.982 187.021 257.192 188.959 257.782C190.897 258.361 192.668 259.243 194.168 260.346C194.919 260.896 195.601 261.497 196.212 262.134C196.823 262.768 197.362 263.441 197.802 264.143C198.25 264.84 198.628 265.549 198.923 266.258C199.237 266.96 199.46 267.665 199.661 268.34C200.046 269.696 200.228 270.963 200.326 272.076C200.39 272.631 200.39 273.153 200.419 273.63C200.42 274.109 200.424 274.546 200.419 274.939C200.402 275.332 200.389 275.679 200.376 275.985C200.359 276.288 200.332 276.542 200.317 276.748C200.299 276.952 200.286 277.107 200.274 277.218C200.263 277.324 200.256 277.378 200.256 277.378L200.259 277.375Z" fill="white"/>
<path d="M144.068 248.59C144.068 248.59 144.049 248.595 144.015 248.598C143.973 248.598 143.92 248.603 143.858 248.605C143.711 248.608 143.51 248.613 143.256 248.621C142.724 248.632 141.97 248.649 141.046 248.668C139.179 248.709 136.602 248.787 133.753 248.876C130.904 248.964 128.325 249.028 126.458 249.046C125.525 249.056 124.769 249.059 124.245 249.054C123.992 249.05 123.791 249.048 123.644 249.047C123.581 249.047 123.531 249.042 123.487 249.043C123.452 249.043 123.434 249.038 123.434 249.036C123.434 249.033 123.452 249.031 123.487 249.029C123.528 249.029 123.581 249.024 123.644 249.021C123.791 249.018 123.992 249.013 124.245 249.005C124.778 248.994 125.531 248.978 126.456 248.958C128.323 248.917 130.902 248.839 133.751 248.751C136.599 248.662 139.179 248.598 141.046 248.58C141.979 248.57 142.735 248.567 143.259 248.572C143.512 248.576 143.713 248.578 143.86 248.58C143.923 248.579 143.973 248.584 144.017 248.584C144.052 248.584 144.07 248.588 144.07 248.59L144.068 248.59Z" fill="white"/>
<path d="M141.024 252.078C141.025 252.111 140.121 252.142 139.005 252.145C137.89 252.149 136.986 252.125 136.986 252.092C136.986 252.06 137.889 252.029 139.005 252.025C140.121 252.021 141.024 252.046 141.024 252.078Z" fill="white"/>
<path d="M141.723 239.698C141.734 239.728 139.232 240.784 136.132 242.056C133.031 243.327 130.508 244.333 130.494 244.303C130.48 244.273 132.985 243.216 136.085 241.945C139.186 240.673 141.709 239.668 141.72 239.698L141.723 239.698Z" fill="white"/>
<path d="M136.645 240.504C136.659 240.534 134.275 241.597 131.322 242.879C128.369 244.162 125.963 245.174 125.952 245.144C125.938 245.114 128.322 244.051 131.275 242.768C134.228 241.488 136.634 240.474 136.645 240.504Z" fill="white"/>
<path d="M168.859 239.168C168.87 239.198 166.368 240.255 163.267 241.526C160.167 242.797 157.644 243.803 157.63 243.773C157.618 243.743 160.12 242.686 163.221 241.415C166.322 240.144 168.845 239.138 168.856 239.168L168.859 239.168Z" fill="white"/>
<path d="M163.783 239.974C163.797 240.004 161.413 241.067 158.46 242.349C155.506 243.632 153.101 244.644 153.089 244.614C153.076 244.584 155.46 243.521 158.413 242.238C161.366 240.958 163.772 239.944 163.783 239.974Z" fill="white"/>
<path d="M169.381 248.501C169.381 248.534 164.395 248.609 158.245 248.667C152.093 248.725 147.11 248.744 147.11 248.712C147.109 248.679 152.093 248.605 158.245 248.547C164.395 248.488 169.381 248.469 169.381 248.501Z" fill="white"/>
<path d="M174.913 251.77C174.913 251.802 173.516 251.849 171.79 251.871C170.063 251.893 168.666 251.884 168.666 251.851C168.666 251.819 170.063 251.773 171.789 251.751C173.514 251.728 174.913 251.738 174.913 251.77Z" fill="white"/>
<path d="M79.4401 250.385C79.4401 250.385 79.3941 250.399 79.3042 250.411C79.2028 250.425 79.0738 250.442 78.9125 250.463C78.742 250.482 78.5346 250.511 78.295 250.551C78.0554 250.591 77.7813 250.627 77.4818 250.688C76.8805 250.794 76.1711 250.956 75.3904 251.167C74.6143 251.387 73.767 251.661 72.9014 252.001C72.0359 252.349 71.2327 252.729 70.5171 253.103C69.8038 253.485 69.1781 253.855 68.6652 254.192C68.4052 254.353 68.1799 254.516 67.9798 254.653C67.7774 254.788 67.6073 254.911 67.4716 255.013C67.3405 255.106 67.2348 255.183 67.152 255.243C67.0784 255.294 67.037 255.32 67.0347 255.318C67.0324 255.315 67.0668 255.283 67.1358 255.225C67.2163 255.16 67.3174 255.078 67.4438 254.976C67.5772 254.867 67.7427 254.739 67.9427 254.597C68.1405 254.456 68.3635 254.288 68.6211 254.121C69.1294 253.774 69.7551 253.395 70.466 253.007C71.1816 252.625 71.9894 252.238 72.8595 251.89C73.732 251.547 74.5817 251.274 75.3647 251.061C76.15 250.854 76.8641 250.702 77.47 250.605C77.7718 250.548 78.0483 250.517 78.2879 250.486C78.5298 250.451 78.7372 250.431 78.9078 250.419C79.0691 250.407 79.1981 250.397 79.3018 250.388C79.3917 250.383 79.4401 250.38 79.4401 250.387L79.4401 250.385Z" fill="white"/>
<path d="M120.584 244.787C120.584 244.787 120.514 244.697 120.362 244.573C120.209 244.45 119.948 244.31 119.6 244.268C119.25 244.222 118.828 244.284 118.372 244.406C117.914 244.523 117.421 244.687 116.922 244.906C115.92 245.342 115.106 245.921 114.566 246.387C114.019 246.852 113.732 247.193 113.714 247.177C113.707 247.172 113.776 247.084 113.906 246.931C114.04 246.78 114.239 246.567 114.508 246.325C115.039 245.838 115.858 245.24 116.873 244.797C117.379 244.576 117.879 244.412 118.344 244.3C118.805 244.182 119.245 244.128 119.611 244.184C119.978 244.241 120.244 244.399 120.394 244.54C120.47 244.609 120.519 244.674 120.549 244.718C120.577 244.764 120.591 244.789 120.586 244.792L120.584 244.787Z" fill="white"/>
<path d="M194.778 238.424C194.778 238.424 194.437 238.529 193.796 238.527C193.478 238.521 193.088 238.483 192.645 238.387C192.202 238.292 191.708 238.141 191.178 237.939C190.644 237.74 190.076 237.485 189.462 237.225C189.153 237.102 188.835 236.973 188.504 236.84C188.174 236.709 187.826 236.597 187.475 236.469C186.058 235.986 184.466 235.554 182.773 235.201C179.384 234.5 176.253 234.215 173.989 234.135C173.422 234.107 172.91 234.108 172.461 234.096C172.013 234.098 171.626 234.099 171.306 234.1C170.995 234.108 170.753 234.113 170.575 234.119C170.497 234.119 170.435 234.119 170.386 234.119C170.342 234.12 170.322 234.12 170.322 234.115C170.322 234.115 170.342 234.11 170.386 234.106C170.434 234.103 170.499 234.098 170.575 234.091C170.75 234.081 170.994 234.066 171.306 234.049C171.626 234.043 172.013 234.035 172.463 234.024C172.915 234.03 173.429 234.021 173.996 234.045C176.264 234.104 179.402 234.375 182.8 235.079C184.498 235.431 186.095 235.87 187.514 236.36C187.867 236.488 188.216 236.603 188.546 236.736C188.876 236.871 189.197 237.002 189.506 237.128C190.12 237.394 190.683 237.652 191.212 237.853C191.738 238.06 192.227 238.215 192.663 238.316C193.102 238.418 193.487 238.458 193.8 238.474C194.116 238.482 194.363 238.465 194.526 238.443C194.602 238.434 194.665 238.427 194.715 238.42C194.757 238.415 194.78 238.415 194.78 238.415L194.778 238.424Z" fill="#263238"/>
<path d="M78.6413 242.456C77.7042 237.398 77.0815 236.623 76.5523 234.883C76.0323 233.164 75.194 232.015 74.1622 231.621C73.4652 231.355 69.994 230.11 68.7852 230.531C67.443 230.998 66.272 231.675 65.4417 232.231C64.6345 232.773 64.024 233.561 63.7021 234.481L61.8644 239.708L65.1211 242.947L66.7366 239.471L68.5165 243.62L68.2704 247.819L78.4084 250.519C79.3254 249.035 79.1744 245.33 78.6413 242.461L78.6413 242.456Z" fill="#FFCC00"/>
<g opacity="0.2">
<path d="M75.9842 236.943C75.546 239.58 75.4758 239.943 75.0377 242.579C74.8863 243.484 74.4439 244.897 73.8031 245.551C73.3299 246.036 72.8635 246.505 72.2048 246.665C71.5898 246.813 70.6586 246.832 70.0792 246.577C69.4997 246.322 69.0049 245.2 69.2403 244.611C70.0984 244.794 70.3668 245.08 71.1051 244.605C71.7492 244.191 72.6635 243.277 73.0115 242.593C74.4793 239.72 74.8846 239.614 75.9796 236.941" fill="black"/>
</g>
<path d="M68.6732 242.074C68.6594 242.084 68.4902 241.814 68.2236 241.375C67.9385 240.911 67.5746 240.322 67.1736 239.671C66.7633 239.025 66.3902 238.443 66.0982 237.984C65.8201 237.553 65.6532 237.285 65.667 237.275C65.6739 237.271 65.7249 237.331 65.8128 237.446C65.9008 237.559 66.0213 237.728 66.1695 237.938C66.466 238.358 66.8599 238.946 67.2748 239.609C67.6897 240.273 68.0468 240.885 68.2949 241.333C68.4202 241.557 68.5176 241.742 68.5826 241.869C68.6476 241.998 68.6801 242.07 68.6732 242.074Z" fill="#010D13"/>
<path d="M75.7562 246.776C75.7562 246.776 75.6733 246.815 75.519 246.867C75.4408 246.892 75.3464 246.923 75.2312 246.949C75.1183 246.975 74.9894 247.01 74.8442 247.031C74.5562 247.085 74.2083 247.119 73.8188 247.127C73.4315 247.128 73.0026 247.1 72.5621 247.023C72.1215 246.941 71.7108 246.82 71.3461 246.682C70.9861 246.54 70.6697 246.386 70.4179 246.234C70.2886 246.165 70.18 246.087 70.083 246.023C69.9859 245.96 69.9051 245.898 69.8426 245.848C69.7132 245.746 69.6462 245.686 69.6507 245.679C69.6645 245.661 69.9488 245.884 70.4592 246.16C70.7132 246.3 71.0272 246.443 71.385 246.578C71.745 246.706 72.1488 246.823 72.5824 246.902C73.0161 246.977 73.4357 247.008 73.8184 247.014C74.201 247.012 74.5444 246.988 74.8301 246.943C75.4038 246.86 75.7469 246.75 75.7538 246.773L75.7562 246.776Z" fill="#010D13"/>
<path d="M71.6661 238.904C71.648 238.994 70.5674 241.172 70.5674 241.172L65.4224 238.474L64.8915 236.255C64.8073 235.908 64.5942 235.608 64.2962 235.415C63.9797 235.21 63.5922 235.147 63.226 235.236L61.7137 235.863C61.5871 235.915 61.4907 236.024 61.4658 236.158C61.4454 236.271 61.4734 236.38 61.667 236.363C62.0426 236.332 62.8261 236.246 62.8261 236.246L62.4731 237.512C62.3798 237.844 62.4179 238.2 62.578 238.504L62.8077 238.941L63.3106 239.751L63.3014 239.758C63.3014 239.758 68.3119 244.888 71.116 245.211C72.8017 245.407 74.6941 240.66 74.6941 240.66L71.6707 238.899L71.6661 238.904Z" fill="#FFDED1"/>
<path d="M62.7797 236.334C62.7797 236.334 62.8187 236.28 62.9038 236.222C62.9889 236.166 63.1246 236.094 63.2929 236.1C63.4659 236.109 63.593 236.222 63.6372 236.321C63.6836 236.425 63.6539 236.495 63.647 236.493C63.6331 236.493 63.6421 236.425 63.5911 236.347C63.5425 236.271 63.4292 236.183 63.2886 236.177C63.1457 236.17 63.0191 236.226 62.9293 236.271C62.8396 236.315 62.7843 236.345 62.7797 236.336L62.7797 236.334Z" fill="#7A4535"/>
<path d="M63.4295 237.12C63.4295 237.12 63.3971 237.078 63.3461 237.016C63.2975 236.956 63.2166 236.88 63.1081 236.839C62.9996 236.795 62.889 236.796 62.813 236.807C62.7346 236.819 62.6886 236.836 62.6816 236.826C62.677 236.819 62.7184 236.782 62.8012 236.754C62.8818 236.728 63.0086 236.719 63.1355 236.767C63.2625 236.817 63.3481 236.91 63.3898 236.986C63.4339 237.062 63.4387 237.115 63.4295 237.12Z" fill="#7A4535"/>
<path d="M72.7055 232.037L71.3382 238.655L75.0316 240.865L76.4331 236.796C76.4331 236.796 75.8307 231.864 72.7055 232.037Z" fill="#FFCC00"/>
<path d="M74.6938 232.146C74.6938 232.146 74.6639 232.17 74.5995 232.207C74.5351 232.242 74.443 232.293 74.3188 232.356C74.0749 232.482 73.7182 232.659 73.2694 232.861C72.3741 233.262 71.0965 233.776 69.6082 234.033C68.12 234.292 66.7273 234.179 65.7767 233.916C65.2991 233.788 64.9252 233.644 64.6758 233.525C64.5489 233.47 64.4565 233.414 64.3918 233.382C64.3272 233.348 64.2948 233.327 64.2971 233.325C64.3017 233.315 64.4402 233.38 64.6941 233.483C64.9481 233.588 65.3219 233.719 65.7972 233.835C66.7431 234.073 68.115 234.172 69.5871 233.915C71.0592 233.66 72.3322 233.165 73.2345 232.785C73.6857 232.594 74.0493 232.428 74.2979 232.317C74.5488 232.202 74.6869 232.142 74.6915 232.151L74.6938 232.146Z" fill="#EBEBEB"/>
<path d="M75.6673 232.874C75.6673 232.874 75.6351 232.904 75.5661 232.95C75.4856 233.004 75.3844 233.069 75.2602 233.148C75.1268 233.234 74.9635 233.336 74.7633 233.439C74.5654 233.544 74.3446 233.674 74.0845 233.788C73.9556 233.849 73.8221 233.909 73.6817 233.975C73.5413 234.04 73.3894 234.094 73.2351 234.154C72.929 234.285 72.5882 234.39 72.2336 234.507C71.5175 234.72 70.7136 234.903 69.8565 235.012C68.9993 235.112 68.1741 235.129 67.4271 235.095C67.0536 235.066 66.6986 235.046 66.3711 234.994C66.2073 234.969 66.0459 234.954 65.896 234.926C65.746 234.897 65.6007 234.87 65.46 234.842C65.1809 234.795 64.9363 234.722 64.7195 234.667C64.5003 234.614 64.318 234.555 64.168 234.502C64.0295 234.454 63.9164 234.415 63.8241 234.383C63.7456 234.356 63.7064 234.337 63.7064 234.335C63.7064 234.333 63.7502 234.339 63.8309 234.36C63.9232 234.385 64.0386 234.417 64.1793 234.456C64.3293 234.502 64.5139 234.554 64.7331 234.6C64.9499 234.647 65.1968 234.716 65.4735 234.757C65.6119 234.782 65.7572 234.807 65.9072 234.834C66.0571 234.859 66.2162 234.872 66.3799 234.895C66.7074 234.942 67.0602 234.959 67.4291 234.984C68.1691 235.011 68.9874 234.992 69.8376 234.892C70.6878 234.783 71.4848 234.604 72.1964 234.401C72.5487 234.286 72.8872 234.185 73.1933 234.062C73.3476 234.001 73.4972 233.95 73.6376 233.889C73.778 233.826 73.9115 233.768 74.0404 233.71C74.3005 233.602 74.5214 233.477 74.7216 233.379C74.9218 233.281 75.0898 233.186 75.2255 233.106C75.3543 233.034 75.4579 232.976 75.5407 232.93C75.6143 232.89 75.6534 232.871 75.6558 232.874L75.6673 232.874Z" fill="#EBEBEB"/>
<path d="M75.0318 240.866C75.0318 240.866 74.9233 240.817 74.7316 240.714C74.5261 240.599 74.2535 240.447 73.9187 240.259C73.2142 239.854 72.2511 239.302 71.1401 238.665L71.1055 238.644L71.1123 238.605C71.2097 238.11 71.3139 237.58 71.4204 237.033C71.5858 236.209 71.7422 235.427 71.885 234.712C71.9598 234.355 72.0209 234.015 72.089 233.698C72.1617 233.381 72.2529 233.087 72.3811 232.836C72.6329 232.329 73.0377 232.052 73.3301 231.956C73.4798 231.907 73.6019 231.895 73.6826 231.897C73.7633 231.897 73.8071 231.906 73.8071 231.911C73.8072 231.927 73.6319 231.895 73.3464 232.003C73.0678 232.108 72.6884 232.384 72.4573 232.875C72.3383 233.119 72.2517 233.406 72.1859 233.718C72.1247 234.038 72.0613 234.376 71.9934 234.732C71.8529 235.447 71.6989 236.232 71.538 237.056C71.4293 237.602 71.3227 238.133 71.2253 238.628L71.1974 238.568C72.2992 239.219 73.2555 239.784 73.953 240.198C74.281 240.399 74.549 240.56 74.7499 240.681C74.9348 240.796 75.0341 240.861 75.0295 240.868L75.0318 240.866Z" fill="#010D13"/>
<path d="M76.1462 236.601C76.16 236.601 76.1655 236.836 76.1299 237.218C76.0943 237.598 76.0154 238.121 75.8698 238.683C75.7242 239.248 75.5392 239.742 75.3859 240.091C75.2327 240.441 75.1158 240.645 75.102 240.638C75.0858 240.631 75.175 240.414 75.3075 240.059C75.4399 239.705 75.6088 239.212 75.7545 238.654C75.8978 238.096 75.9905 237.582 76.0469 237.207C76.1032 236.832 76.1301 236.598 76.1485 236.601L76.1462 236.601Z" fill="#010D13"/>
<path d="M56.2734 273.454L56.244 276.986C56.244 276.986 52.6565 278.144 52.5896 278.796L59.4115 279.099L59.6808 273.597L56.2734 273.456L56.2734 273.454Z" fill="#FF8A6F"/>
<path d="M58.3658 276.782C58.4973 276.824 58.5808 276.978 58.5444 277.11C58.508 277.242 58.3538 277.331 58.2223 277.292C58.0908 277.253 57.9841 277.071 58.0344 276.943C58.0847 276.816 58.2734 276.723 58.3912 276.792" fill="#E0E0E0"/>
<path d="M59.4113 279.096L59.4163 278.541L52.8741 278.459C52.8741 278.459 52.5656 278.578 52.5894 278.796L59.4113 279.099L59.4113 279.096Z" fill="#E0E0E0"/>
<path d="M56.1347 276.947C56.1348 276.98 56.3008 277.002 56.4603 277.118C56.622 277.228 56.7009 277.376 56.7308 277.364C56.7608 277.359 56.7209 277.156 56.5268 277.022C56.3327 276.884 56.13 276.915 56.1347 276.947Z" fill="#010D13"/>
<path d="M55.4083 277.211C55.3991 277.243 55.54 277.305 55.6488 277.453C55.7599 277.596 55.7812 277.751 55.8158 277.751C55.8458 277.758 55.8774 277.563 55.7431 277.383C55.6088 277.203 55.4128 277.181 55.4106 277.211L55.4083 277.211Z" fill="#010D13"/>
<path d="M54.9645 278.052C54.9945 278.062 55.0492 277.895 54.9702 277.71C54.8935 277.523 54.7411 277.442 54.7251 277.47C54.7044 277.496 54.8016 277.6 54.862 277.754C54.9271 277.907 54.9299 278.048 54.9622 278.052L54.9645 278.052Z" fill="#010D13"/>
<path d="M56.232 276.142C56.2436 276.172 56.4002 276.134 56.587 276.155C56.7761 276.172 56.9192 276.241 56.9376 276.214C56.9582 276.19 56.8195 276.061 56.5981 276.039C56.3768 276.017 56.2157 276.114 56.232 276.142Z" fill="#010D13"/>
<g opacity="0.3">
<path d="M56.2691 274.154L56.262 274.784L59.6164 274.902L59.6467 274.335L56.2691 274.154Z" fill="black"/>
</g>
<path d="M56.2506 275.429C56.2506 275.443 56.3798 275.47 56.5918 275.442C56.6978 275.428 56.8221 275.4 56.9534 275.348C57.0201 275.323 57.0869 275.29 57.1536 275.253C57.1858 275.234 57.2249 275.215 57.2594 275.176C57.2984 275.143 57.3235 275.055 57.2818 274.998C57.2493 274.945 57.1893 274.917 57.1386 274.915C57.0879 274.911 57.0464 274.92 57.0095 274.927C56.9335 274.941 56.8598 274.965 56.7931 274.99C56.6596 275.044 56.5515 275.114 56.4687 275.183C56.3032 275.323 56.2437 275.445 56.2553 275.452C56.2691 275.464 56.3518 275.362 56.5173 275.248C56.6001 275.192 56.706 275.134 56.8303 275.09C56.8925 275.068 56.9593 275.05 57.0284 275.038C57.1021 275.022 57.162 275.024 57.1806 275.058C57.1875 275.07 57.1876 275.077 57.1715 275.095C57.1554 275.114 57.1255 275.132 57.0933 275.151C57.0312 275.188 56.9691 275.219 56.9092 275.247C56.7872 275.3 56.6721 275.335 56.573 275.359C56.375 275.406 56.2459 275.408 56.246 275.427L56.2506 275.429Z" fill="#010D13"/>
<path d="M56.2917 275.48C56.3033 275.484 56.3743 275.369 56.3967 275.153C56.4078 275.047 56.4028 274.915 56.3654 274.776C56.3467 274.707 56.3211 274.635 56.2886 274.564C56.2515 274.495 56.2074 274.402 56.0782 274.382C56.0113 274.377 55.9516 274.426 55.931 274.47C55.9058 274.517 55.9013 274.556 55.8899 274.595C55.8741 274.674 55.872 274.753 55.8792 274.827C55.8935 274.972 55.9493 275.097 56.0095 275.187C56.1346 275.369 56.2731 275.417 56.2753 275.406C56.2868 275.39 56.1736 275.321 56.0785 275.145C56.0321 275.06 55.9925 274.947 55.9852 274.819C55.9804 274.755 55.9847 274.688 56.0007 274.623C56.0142 274.551 56.044 274.493 56.0717 274.502C56.1063 274.502 56.1618 274.56 56.1874 274.62C56.2198 274.682 56.2454 274.747 56.2641 274.809C56.3014 274.934 56.3156 275.054 56.316 275.154C56.3167 275.355 56.2756 275.478 56.2941 275.484L56.2917 275.48Z" fill="#010D13"/>
<path d="M70.0868 247.846C70.0868 247.846 59.4196 243.399 56.1203 243.219C54.0522 243.105 52.4916 244.443 52.7802 246.591C52.9245 247.664 55.9111 260.23 55.9111 260.23L60.3944 258.156L58.2071 249.469L66.9718 253.706L70.0867 247.843L70.0868 247.846Z" fill="#010D13"/>
<path d="M56.8558 247.274C56.8213 247.304 57.1755 247.759 57.5487 248.361C57.9242 248.963 58.1749 249.483 58.2164 249.464C58.2555 249.45 58.0646 248.891 57.6821 248.277C57.302 247.661 56.8856 247.244 56.8558 247.272L56.8558 247.274Z" fill="#FF8A6F"/>
<path d="M55.9864 247.775C55.9634 247.815 56.504 248.155 57.1349 248.621C57.7681 249.083 58.2559 249.493 58.2857 249.461C58.3133 249.431 57.8691 248.963 57.2267 248.493C56.5865 248.023 56.0047 247.738 55.9864 247.775Z" fill="#FF8A6F"/>
<path d="M78.4082 250.514C78.4082 250.514 77.0748 252.251 75.7971 252.729C74.1948 253.329 62.3428 258.991 62.3428 258.991C62.3428 258.991 60.2448 275.047 60.4131 274.378L55.4452 274.275L55.934 259.489C55.992 257.595 57.4967 255.418 59.1162 254.445L70.0845 247.845L78.4059 250.514L78.4082 250.514Z" fill="#010D13"/>
<path d="M55.8492 262.194C55.8492 262.194 55.8605 262.124 55.8692 261.99C55.8756 261.842 55.8865 261.648 55.8972 261.409C55.9232 260.905 55.9483 260.172 56.0859 259.283C56.2304 258.401 56.4941 257.336 57.15 256.349C57.4757 255.857 57.9121 255.411 58.4225 255.021C58.9329 254.631 59.508 254.286 60.1039 253.944C62.4896 252.562 64.5478 251.153 66.0705 250.188C66.8295 249.7 67.446 249.311 67.8738 249.046C68.0762 248.921 68.2396 248.818 68.3661 248.739C68.4788 248.667 68.5363 248.628 68.5339 248.623C68.5316 248.618 68.4695 248.649 68.3521 248.711C68.2348 248.774 68.0622 248.867 67.8437 248.993C67.4043 249.242 66.7785 249.617 66.0126 250.094C64.4737 251.036 62.4061 252.431 60.0273 253.808C59.4315 254.15 58.8495 254.497 58.3299 254.899C57.8103 255.298 57.3624 255.76 57.0299 256.268C56.3649 257.288 56.1081 258.374 55.9775 259.265C55.8538 260.165 55.8448 260.901 55.8373 261.405C55.8381 261.646 55.8388 261.838 55.8393 261.988C55.8397 262.122 55.8469 262.191 55.8515 262.191L55.8492 262.194Z" fill="#FF8A6F"/>
<path d="M74.03 252.22C74.0484 252.199 73.9027 252.066 73.7243 251.81C73.546 251.556 73.3464 251.168 73.2503 250.705C73.1565 250.241 73.185 249.806 73.2508 249.503C73.3143 249.197 73.3944 249.016 73.3713 249.005C73.3574 248.996 73.2404 249.163 73.1447 249.475C73.0489 249.786 72.9975 250.246 73.0983 250.738C73.1991 251.228 73.4264 251.632 73.637 251.879C73.8476 252.128 74.0208 252.234 74.03 252.22Z" fill="#FF8A6F"/>
<path d="M57.2708 274.267C57.2708 274.267 57.2776 274.239 57.2867 274.186C57.2934 274.123 57.3046 274.042 57.3158 273.943C57.3381 273.719 57.3716 273.404 57.4117 273.008C57.4896 272.184 57.6008 271.011 57.7365 269.567C57.8032 268.838 57.8765 268.045 57.9543 267.191C58.0343 266.337 58.1165 265.423 58.1801 264.461C58.2505 263.5 58.3393 262.492 58.5086 261.459C58.6849 260.432 58.9487 259.374 59.4109 258.37C59.8639 257.363 60.5086 256.481 61.2044 255.711C61.9118 254.945 62.6771 254.288 63.4474 253.714C64.9879 252.568 66.5087 251.731 67.7625 250.991C69.0209 250.26 70.0238 249.637 70.6906 249.167C71.0264 248.935 71.2793 248.746 71.4494 248.614C71.5276 248.551 71.5897 248.502 71.6403 248.463C71.6816 248.428 71.7046 248.41 71.7023 248.407C71.7023 248.407 71.677 248.419 71.631 248.451C71.5781 248.489 71.5137 248.533 71.4309 248.591C71.2562 248.714 70.9963 248.895 70.6582 249.119C69.9821 249.572 68.9745 250.177 67.7091 250.896C66.4507 251.622 64.9206 252.451 63.364 253.599C62.5868 254.173 61.8123 254.832 61.0934 255.607C60.3861 256.387 59.7322 257.28 59.2701 258.306C58.801 259.328 58.535 260.397 58.3587 261.434C58.1894 262.474 58.103 263.487 58.0371 264.45C57.9782 265.412 57.9006 266.326 57.8275 267.18C57.7566 268.034 57.6902 268.83 57.6304 269.558C57.5155 271.005 57.4204 272.178 57.3541 273.004C57.3255 273.402 57.3035 273.714 57.2881 273.941C57.2816 274.04 57.2772 274.121 57.2752 274.186C57.273 274.242 57.2754 274.269 57.2754 274.269L57.2708 274.267Z" fill="#FF8A6F"/>
<path d="M68.7876 222.389C68.4781 221.518 67.4573 220.971 66.5637 221.198C66.3587 221.25 66.1562 221.338 65.9464 221.335C65.6859 221.331 65.4503 221.188 65.1943 221.138C64.6453 221.029 64.0473 221.422 63.9247 221.971C63.4887 221.882 63.0049 221.946 62.6577 222.227C62.3129 222.508 62.1534 223.034 62.3668 223.426C62.4573 223.595 62.6053 223.729 62.6888 223.902C62.8258 224.186 62.7647 224.528 62.8603 224.829C63.0024 225.275 63.4736 225.548 63.9371 225.6C64.4006 225.652 64.8635 225.523 65.3126 225.396" fill="#010D13"/>
<path d="M66.6838 231.547C66.6246 231.101 66.5843 230.786 66.5843 230.786C66.5843 230.786 65.0998 230.782 64.4942 228.936C64.1937 228.019 63.9901 226.467 63.8659 225.193C63.7536 224.046 64.6146 223.034 65.7623 222.97L69.7079 222.749L69.7953 223.361L70.861 230.973C71.024 232.133 70.214 233.205 69.055 233.361C67.9007 233.518 66.8422 232.703 66.6861 231.547L66.6838 231.547Z" fill="#FFDED1"/>
<path d="M64.4231 226.285C64.4396 226.414 64.5621 226.506 64.6958 226.492C64.8294 226.477 64.9258 226.361 64.9093 226.232C64.8927 226.102 64.7702 226.01 64.6365 226.025C64.5029 226.039 64.4065 226.155 64.4231 226.285Z" fill="#010D13"/>
<path d="M64.3254 225.942C64.3601 225.97 64.5209 225.803 64.7812 225.76C65.0416 225.715 65.254 225.819 65.2769 225.781C65.2884 225.765 65.249 225.712 65.1567 225.666C65.0643 225.618 64.9166 225.584 64.7531 225.61C64.5918 225.638 64.4653 225.719 64.3964 225.794C64.3252 225.868 64.3093 225.931 64.3254 225.942Z" fill="#010D13"/>
<path d="M66.899 225.853C66.9156 225.983 67.0381 226.075 67.1718 226.061C67.3054 226.046 67.4018 225.93 67.3852 225.801C67.3687 225.671 67.2462 225.579 67.1125 225.594C66.9789 225.608 66.8825 225.724 66.899 225.853Z" fill="#010D13"/>
<path d="M66.8932 225.574C66.9279 225.601 67.091 225.434 67.349 225.392C67.6093 225.347 67.8218 225.45 67.8447 225.413C67.8562 225.397 67.8168 225.344 67.7244 225.298C67.632 225.25 67.4844 225.216 67.3208 225.242C67.1596 225.27 67.0331 225.351 66.9642 225.425C66.8953 225.5 66.877 225.562 66.8932 225.574Z" fill="#010D13"/>
<path d="M66.2636 227.665C66.2635 227.649 66.0952 227.649 65.8279 227.657C65.761 227.662 65.6942 227.658 65.6756 227.614C65.6524 227.568 65.6682 227.491 65.6887 227.408C65.725 227.237 65.7636 227.056 65.8021 226.868C65.9585 226.1 66.0601 225.473 66.0278 225.468C65.9979 225.461 65.8455 226.08 65.6891 226.848C65.6529 227.038 65.6166 227.218 65.5826 227.39C65.5691 227.471 65.5394 227.563 65.5904 227.658C65.616 227.704 65.6714 227.734 65.7152 227.739C65.759 227.745 65.7982 227.738 65.8305 227.738C66.0977 227.709 66.2613 227.683 66.259 227.67L66.2636 227.665Z" fill="#010D13"/>
<path d="M66.5847 230.786C66.5847 230.786 67.8682 230.662 69.0014 229.698C69.0014 229.698 68.5982 231.099 66.683 231.23L66.5847 230.786Z" fill="#7A4535"/>
<path d="M67.0574 227.722C67.0136 227.727 67.0583 228.011 66.8517 228.25C66.6428 228.492 66.3362 228.509 66.341 228.548C66.3411 228.567 66.4172 228.592 66.5439 228.575C66.6684 228.559 66.8456 228.489 66.9742 228.343C67.1028 228.194 67.1391 228.02 67.1294 227.902C67.1221 227.782 67.0781 227.718 67.0597 227.722L67.0574 227.722Z" fill="#010D13"/>
<path d="M66.6612 224.561C66.6983 224.628 66.9539 224.551 67.2651 224.538C67.5762 224.518 67.8368 224.568 67.8666 224.499C67.8803 224.466 67.8271 224.406 67.7162 224.354C67.6054 224.301 67.4393 224.262 67.2526 224.272C67.0659 224.282 66.9025 224.338 66.799 224.401C66.6931 224.463 66.6473 224.528 66.6635 224.561L66.6612 224.561Z" fill="#010D13"/>
<path d="M64.2994 225.171C64.3549 225.221 64.5252 225.131 64.7395 225.093C64.9537 225.048 65.1451 225.068 65.1771 224.999C65.1908 224.966 65.1514 224.911 65.0637 224.867C64.976 224.824 64.8376 224.801 64.6901 224.829C64.5427 224.858 64.4231 224.932 64.3588 225.006C64.2922 225.081 64.2763 225.145 64.3017 225.171L64.2994 225.171Z" fill="#010D13"/>
<path d="M63.6658 224.363C63.6658 224.363 64.7112 224.713 65.9071 223.904C66.6913 223.374 67.6445 223.04 67.8824 223.183C68.1203 223.323 68.2777 224.187 69.1426 224.33C69.1426 224.33 69.3005 225.995 69.95 225.85C70.413 225.746 70.137 223.91 69.9398 222.863C69.86 222.445 69.5016 222.136 69.0751 222.121L67.8602 222.079L66.3449 222.51L64.719 222.96L63.483 223.48L63.6635 224.363L63.6658 224.363Z" fill="#010D13"/>
<path d="M69.8038 225.177C69.8291 225.158 70.8346 224.625 71.0251 225.728C71.2156 226.831 70.0721 226.795 70.0651 226.763C70.0581 226.731 69.8038 225.177 69.8038 225.177Z" fill="#FFDED1"/>
<path d="M70.3281 226.286C70.3281 226.286 70.3489 226.295 70.3835 226.304C70.4181 226.313 70.4734 226.313 70.5263 226.283C70.6345 226.22 70.7006 226.018 70.6723 225.817C70.6581 225.715 70.6209 225.625 70.5722 225.551C70.5259 225.478 70.4635 225.429 70.4035 225.429C70.3436 225.425 70.3069 225.469 70.3001 225.502C70.291 225.534 70.3002 225.555 70.2957 225.559C70.2934 225.562 70.2679 225.546 70.2701 225.497C70.27 225.474 70.2791 225.446 70.3021 225.421C70.3251 225.395 70.3619 225.376 70.4034 225.374C70.4886 225.364 70.5787 225.431 70.632 225.51C70.6899 225.59 70.7341 225.692 70.7506 225.805C70.7813 226.03 70.7037 226.257 70.5542 226.329C70.4805 226.361 70.4113 226.35 70.3744 226.329C70.3351 226.309 70.3258 226.283 70.3281 226.281L70.3281 226.286Z" fill="#7A4535"/>
<path d="M64.1811 221.563C64.1811 221.563 64.2205 221.62 64.2968 221.71C64.3732 221.8 64.5119 221.908 64.7127 221.977C64.9135 222.048 65.1694 222.066 65.4458 222.007C65.7222 221.953 66.0146 221.834 66.3323 221.722C66.6477 221.61 66.9725 221.53 67.2745 221.55C67.5765 221.562 67.8398 221.7 67.9902 221.871C68.1475 222.039 68.2104 222.227 68.2108 222.354C68.2159 222.481 68.1838 222.548 68.1792 222.546C68.1677 222.546 68.1836 222.476 68.1648 222.359C68.1482 222.243 68.0808 222.077 67.9305 221.931C67.7824 221.782 67.5492 221.669 67.268 221.663C66.989 221.65 66.6827 221.727 66.3719 221.837C66.0611 221.947 65.7595 222.068 65.4669 222.118C65.1767 222.174 64.8954 222.145 64.6853 222.058C64.4729 221.976 64.3319 221.847 64.2601 221.74C64.1883 221.637 64.1742 221.565 64.1811 221.563Z" fill="#FF8A6F"/>
<path d="M67.8999 222.607C67.8999 222.607 67.8443 222.55 67.7288 222.469C67.6156 222.389 67.424 222.313 67.175 222.307C66.926 222.296 66.6358 222.369 66.3367 222.516C66.0352 222.655 65.7201 222.862 65.3379 222.989C64.5665 223.241 63.8074 223.04 63.3686 222.78C63.1422 222.651 62.9827 222.513 62.8832 222.409C62.7837 222.303 62.7374 222.239 62.7443 222.234C62.7627 222.216 62.9618 222.474 63.4098 222.706C63.8463 222.938 64.5707 223.116 65.3029 222.875C65.6644 222.756 65.9795 222.556 66.2925 222.416C66.6009 222.272 66.9188 222.199 67.1817 222.224C67.4445 222.241 67.65 222.338 67.7587 222.434C67.8719 222.531 67.9068 222.607 67.9022 222.61L67.8999 222.607Z" fill="#FF8A6F"/>
<path d="M64.5474 241.415L59.1793 236.855L57.415 237.262C57.415 237.262 59.2885 241.137 60.6395 242.555C60.6395 242.555 61.9757 244.338 64.1675 243.558C66.3593 242.778 64.5474 241.417 64.5474 241.417L64.5474 241.415Z" fill="#FFDED1"/>
<path d="M58.758 231.814L56.4829 231.821C56.1394 231.823 55.8319 232.224 55.9575 232.552L58.2618 237.015C58.35 237.189 58.5301 237.297 58.7238 237.296L61.4968 237.28C61.8147 237.235 61.9288 236.88 61.7967 236.689L59.5734 232.318C59.4202 232.006 59.1038 231.81 58.758 231.811L58.758 231.814Z" fill="#FF8A6F"/>
<path d="M58.6056 232.085L56.3304 232.093C56.0446 232.094 55.8612 232.395 55.9935 232.649L58.2421 237.016C58.3303 237.189 58.5105 237.297 58.7041 237.296L61.4472 237.287C61.6154 237.287 61.7232 237.11 61.6466 236.96L59.4233 232.589C59.2701 232.277 58.9536 232.082 58.6079 232.083L58.6056 232.085Z" fill="#010D13"/>
<path d="M58.4167 233.916L57.0332 234.476L56.7397 235.596L57.4115 237.259L59.8585 237.607L59.1391 236.874L59.2291 236.233C59.2291 236.233 59.9106 236.016 59.9264 235.911C59.9422 235.807 59.8396 235.456 59.7358 235.438C59.632 235.422 58.916 235.69 58.916 235.69C58.916 235.69 59.762 235.014 59.7363 234.906C59.7128 234.797 59.6197 234.522 59.4513 234.49C59.2829 234.461 57.9159 235.111 57.9159 235.111L57.6964 235.621L57.5 234.809C57.5 234.809 58.7136 234.463 58.412 233.911L58.4167 233.916Z" fill="#FFDED1"/>
<path d="M58.5992 236.54C58.5992 236.54 58.5645 236.492 58.5526 236.402C58.5385 236.312 58.545 236.182 58.5929 236.05C58.6409 235.918 58.7212 235.816 58.7879 235.756C58.8568 235.695 58.9075 235.674 58.9121 235.681C58.926 235.697 58.7466 235.827 58.6599 236.075C58.5685 236.318 58.62 236.536 58.5992 236.54Z" fill="#7A4535"/>
<path d="M57.9418 236.3C57.9418 236.3 57.9829 236.163 57.9959 235.937C58.007 235.823 58.0112 235.682 58.0637 235.534C58.0911 235.46 58.1277 235.383 58.1897 235.318C58.2517 235.253 58.3323 235.209 58.4151 235.174C58.7467 235.053 59.0437 234.955 59.2624 234.882C59.4812 234.812 59.617 234.772 59.6194 234.781C59.6217 234.791 59.4928 234.847 59.2787 234.928C59.0669 235.012 58.7676 235.12 58.443 235.239C58.3648 235.271 58.2934 235.311 58.2406 235.364C58.1878 235.418 58.1511 235.487 58.126 235.554C58.0734 235.691 58.0624 235.828 58.0466 235.941C58.0198 236.172 57.9511 236.305 57.9418 236.3Z" fill="#7A4535"/>
<path d="M57.6215 236.051C57.603 236.048 57.6049 235.926 57.6298 235.778C57.6546 235.63 57.6888 235.512 57.7073 235.516C57.7257 235.518 57.7238 235.641 57.699 235.789C57.6741 235.937 57.6399 236.055 57.6215 236.051Z" fill="#7A4535"/>
<path d="M57.5753 232.931C57.5758 233.09 57.7053 233.222 57.8667 233.221C58.0281 233.221 58.1567 233.091 58.1561 232.929C58.1556 232.767 58.0261 232.638 57.8647 232.638C57.7033 232.639 57.5747 232.769 57.5753 232.931Z" fill="#FAFAFA"/>
<circle cx="246.504" cy="23.9108" r="23.9104" transform="rotate(2.47471 246.504 23.9108)" fill="#FFEC9F"/>
<path d="M112.204 155.251C111.169 157.12 107.65 159.439 106.02 160.366C108.237 159.664 112.919 158.031 113.913 157.118C114.906 156.204 117.139 156.061 118.131 156.104C118.769 155.135 120.403 153.212 121.832 153.274C123.26 153.335 127.706 150.737 129.75 149.43C124.335 151.597 120.772 150.952 119.554 150.783C118.137 150.587 117.251 153.475 116.992 154.86C115.827 154.211 113.239 153.382 112.204 155.251Z" fill="#272323"/>
<path d="M170.306 92.5687C169.453 94.0202 166.542 95.8169 165.193 96.5339C167.028 95.9928 170.904 94.7334 171.725 94.0246C172.547 93.3159 174.396 93.2098 175.218 93.2453C175.745 92.4929 177.094 91.0008 178.278 91.0519C179.461 91.1031 183.139 89.0914 184.83 88.0792C180.348 89.7535 177.395 89.2435 176.385 89.1096C175.211 88.954 174.483 91.1985 174.272 92.275C173.305 91.7681 171.159 91.1172 170.306 92.5687Z" fill="#272323"/>
<path d="M77.7239 39.0848C66.5045 36.494 58.3805 43.4458 56.0135 46.0912C48.1538 51.2067 15.3962 53.425 -8.63568e-05 53.8948C13.4753 54.3898 40.6979 55.3786 41.7848 55.3742L51.2953 55.336C53.4496 56.0962 55.7907 59.5087 59.467 60.2454C65.138 61.382 65.2095 52.3147 73.3732 55.2473C81.537 58.1798 88.3183 55.1872 93.0828 57.4744C97.8473 59.7617 110.749 58.3919 119.227 55.063C126.01 52.3998 159.412 52.7049 175.265 53.1903C162.696 52.8015 136.129 51.7002 130.418 50.4052C123.278 48.7865 116.141 47.8267 108.654 44.2325C101.167 40.6383 97.4454 44.2776 93.0298 44.2953C88.6143 44.3131 88.9433 41.6756 77.7239 39.0848Z" fill="white" fill-opacity="0.62"/>
<path d="M77.7239 39.0848C66.5045 36.494 58.3805 43.4458 56.0135 46.0912C48.1538 51.2067 15.3962 53.425 -8.63568e-05 53.8948C13.4753 54.3898 40.6979 55.3786 41.7848 55.3742L51.2953 55.336C53.4496 56.0962 55.7907 59.5087 59.467 60.2454C65.138 61.382 65.2095 52.3147 73.3732 55.2473C81.537 58.1798 88.3183 55.1872 93.0828 57.4744C97.8473 59.7617 110.749 58.3919 119.227 55.063C126.01 52.3998 159.412 52.7049 175.265 53.1903C162.696 52.8015 136.129 51.7002 130.418 50.4052C123.278 48.7865 116.141 47.8267 108.654 44.2325C101.167 40.6383 97.4454 44.2776 93.0298 44.2953C88.6143 44.3131 88.9433 41.6756 77.7239 39.0848Z" fill="white" fill-opacity="0.26"/>
<path d="M226.672 128.992C234.398 130.469 239.896 126.028 241.491 124.347C246.827 121.055 269.277 119.26 279.835 118.774C270.585 118.634 251.897 118.358 251.151 118.374L244.627 118.517C243.14 118.07 241.497 115.969 238.967 115.556C235.063 114.917 235.114 120.578 229.481 118.85C223.847 117.122 219.228 119.075 215.934 117.707C212.64 116.339 203.803 117.356 198.023 119.54C193.399 121.287 170.479 121.516 159.597 121.412C168.225 121.497 186.464 121.851 190.396 122.587C195.312 123.508 200.219 124.018 205.395 126.167C210.571 128.317 213.085 125.998 216.114 125.932C219.144 125.866 218.947 127.516 226.672 128.992Z" fill="white" fill-opacity="0.62"/>
<path d="M226.672 128.992C234.398 130.469 239.896 126.028 241.491 124.347C246.827 121.055 269.277 119.26 279.835 118.774C270.585 118.634 251.897 118.358 251.151 118.374L244.627 118.517C243.14 118.07 241.497 115.969 238.967 115.556C235.063 114.917 235.114 120.578 229.481 118.85C223.847 117.122 219.228 119.075 215.934 117.707C212.64 116.339 203.803 117.356 198.023 119.54C193.399 121.287 170.479 121.516 159.597 121.412C168.225 121.497 186.464 121.851 190.396 122.587C195.312 123.508 200.219 124.018 205.395 126.167C210.571 128.317 213.085 125.998 216.114 125.932C219.144 125.866 218.947 127.516 226.672 128.992Z" fill="white" fill-opacity="0.26"/>
</svg>
