<svg width="17" height="17" viewBox="0 0 17 17" fill="none" xmlns="http://www.w3.org/2000/svg">
<path d="M3.39857 14.6099C2.59742 15.412 1.80284 16.208 1.01131 17.0005C0.681001 16.6693 0.353035 16.3403 0.0351562 16.0215C5.36144 10.6967 10.695 5.36463 16.0206 0.0402832C16.334 0.354087 16.6636 0.684308 17.0003 1.02157C16.2162 1.80349 15.4177 2.5995 14.6189 3.39573C15.7635 5.12095 16.2026 7.00448 15.9467 9.03928C15.7184 10.8534 14.9313 12.4074 13.6319 13.6896C12.2614 15.0419 10.6091 15.8196 8.68591 15.9784C6.77582 16.136 5.01236 15.6873 3.39834 14.6096L3.39857 14.6099ZM13.0067 7.01198C12.9774 7.00893 12.9549 7.00448 12.9323 7.00448C12.3186 7.00401 11.7052 7.0026 11.0915 7.00682C11.0445 7.00706 10.9871 7.03708 10.9526 7.07132C10.3286 7.69095 9.70758 8.31317 9.08613 8.93514C9.06877 8.9525 9.05564 8.97408 9.03499 9.00081H13.0069V7.01175L13.0067 7.01198Z" fill="url(#paint0_linear_3384_13333)"/>
<path d="M1.39561 12.5803C-0.433311 10.011 -0.761042 5.61444 2.22725 2.48719C5.22821 -0.653198 9.74444 -0.59222 12.6072 1.40318C12.5788 1.4339 12.5523 1.46439 12.5237 1.49324C10.7185 3.2982 8.91255 5.10245 7.10921 6.90929C7.03977 6.97894 6.97174 7.00615 6.87438 7.00591C5.63876 7.00286 4.40337 7.0038 3.16775 7.0038C3.1213 7.0038 3.07508 7.0038 3.01855 7.0038V9.00952H4.96687C3.77277 10.2035 2.5829 11.3931 1.39537 12.5803H1.39561Z" fill="url(#paint1_linear_3384_13333)"/>
<defs>
<linearGradient id="paint0_linear_3384_13333" x1="0.0351562" y1="8.52166" x2="17.0003" y2="8.52166" gradientUnits="userSpaceOnUse">
<stop stop-color="#FF8177"/>
<stop offset="1" stop-color="#B22B5B"/>
</linearGradient>
<linearGradient id="paint1_linear_3384_13333" x1="0" y1="6.29109" x2="12.6072" y2="6.29109" gradientUnits="userSpaceOnUse">
<stop stop-color="#FF8177"/>
<stop offset="1" stop-color="#B22B5B"/>
</linearGradient>
</defs>
</svg>
