<svg width="18" height="18" viewBox="0 0 18 18" fill="none" xmlns="http://www.w3.org/2000/svg">
<path d="M16.7503 16.7501V13.353C16.7503 12.534 16.4208 11.7485 15.8344 11.1693C15.248 10.5901 14.4527 10.2648 13.6234 10.2648H10.4966" stroke="#F27B79" stroke-width="1.25" stroke-linecap="round" stroke-linejoin="round"/>
<path d="M11.6214 7.02206C13.2843 7.02206 14.6324 5.67397 14.6324 4.01103C14.6324 2.34808 13.2843 1 11.6214 1C9.95844 1 8.61035 2.34808 8.61035 4.01103C8.61035 5.67397 9.95844 7.02206 11.6214 7.02206Z" stroke="#F27B79" stroke-width="1.25" stroke-linecap="round" stroke-linejoin="round"/>
<path d="M3.71456 7.48523H7.55015L10.2647 10.1998V14.0354L7.55015 16.7499H3.71456L1 14.0354V10.1998L3.71456 7.48523Z" stroke="#F27B79" stroke-width="1.25" stroke-linecap="round" stroke-linejoin="round"/>
<path d="M7.02258 10.7283L4.24316 13.5077" stroke="#F27B79" stroke-width="1.25" stroke-linecap="round" stroke-linejoin="round"/>
<path d="M4.24316 10.7283L7.02258 13.5077" stroke="#F27B79" stroke-width="1.25" stroke-linecap="round" stroke-linejoin="round"/>
</svg>
