<svg width="18" height="18" viewBox="0 0 18 18" fill="none" xmlns="http://www.w3.org/2000/svg">
<path d="M17.2172 17.217V13.6723C17.2172 12.8177 16.8734 11.998 16.2616 11.3937C15.6497 10.7894 14.8198 10.4499 13.9545 10.4499H10.6918" stroke="#7C7C7C" stroke-width="1.5" stroke-linecap="round" stroke-linejoin="round"/>
<path d="M11.8655 7.0663C13.6007 7.0663 15.0073 5.65964 15.0073 3.92444C15.0073 2.18924 13.6007 0.782587 11.8655 0.782587C10.1303 0.782587 8.7236 2.18924 8.7236 3.92444C8.7236 5.65964 10.1303 7.0663 11.8655 7.0663Z" stroke="#7C7C7C" stroke-width="1.5" stroke-linecap="round" stroke-linejoin="round"/>
<path d="M3.61509 7.54959H7.61733L10.4498 10.3821V14.3843L7.61733 17.2168H3.61509L0.782587 14.3843V10.3821L3.61509 7.54959Z" stroke="#7C7C7C" stroke-width="1.5" stroke-linecap="round" stroke-linejoin="round"/>
<path d="M7.06684 10.9335L4.16666 13.8337" stroke="#7C7C7C" stroke-width="1.5" stroke-linecap="round" stroke-linejoin="round"/>
<path d="M4.16666 10.9335L7.06684 13.8337" stroke="#7C7C7C" stroke-width="1.5" stroke-linecap="round" stroke-linejoin="round"/>
</svg>