<svg width="21" height="21" viewBox="0 0 21 21" fill="none" xmlns="http://www.w3.org/2000/svg">
<defs>
<linearGradient id="paint0_linear_130_4729" x1="1" y1="10.3764" x2="19.75" y2="10.3764" gradientUnits="userSpaceOnUse">
<stop stop-color="#FF8177"/>
<stop offset="1" stop-color="#B22B5B"/>
</linearGradient>
</defs>
<path d="M19.75 9.8542C19.7536 11.2291 19.4324 12.5853 18.8125 13.8125C18.0775 15.2831 16.9477 16.52 15.5494 17.3847C14.1512 18.2494 12.5398 18.7077 10.8958 18.7084C9.52097 18.7119 8.1647 18.3907 6.9375 17.7709L1 19.75L2.97917 13.8125C2.3593 12.5853 2.03808 11.2291 2.04167 9.8542C2.0423 8.21019 2.50064 6.59883 3.36533 5.2006C4.23003 3.80237 5.46693 2.6725 6.9375 1.93753C8.1647 1.31767 9.52097 0.996445 10.8958 1.00003H11.4167C13.5879 1.11981 15.6386 2.03624 17.1762 3.57384C18.7138 5.11144 19.6302 7.16217 19.75 9.33336V9.8542Z" stroke="url(#paint0_linear_130_4729)" stroke-width="2" stroke-linecap="round" stroke-linejoin="round"/>
</svg>
