<svg width="32" height="31" viewBox="0 0 32 31" fill="none" xmlns="http://www.w3.org/2000/svg">
<path d="M28.5712 4.3737L24.8979 3.43632C24.2452 1.44037 22.4214 0 20.2804 0H11.8105C9.61229 0 7.74885 1.51811 7.14313 3.59712L3.33843 4.65568C0.939748 5.32328 -0.489034 7.8908 0.154138 10.3806L4.58219 27.5347C5.1211 29.6214 6.94489 31 8.93314 31C9.31787 31 9.7092 30.9482 10.0976 30.84L12.4662 30.1815H20.3098L22.3362 30.6982C22.696 30.7897 23.0587 30.8354 23.4199 30.8354C24.232 30.8354 25.0308 30.6052 25.7437 30.1579C26.7723 29.5109 27.4978 28.4874 27.7848 27.2749L31.8693 10.0285C32.4618 7.52575 30.9823 4.98948 28.5712 4.3737ZM6.85164 26.9037L2.42359 9.74956C2.27455 9.17265 2.35091 8.57059 2.63872 8.05313C2.92653 7.53566 3.39056 7.16604 3.94636 7.01133L6.93534 6.17988V25.1212C6.93534 26.3603 7.36706 27.4966 8.08219 28.3776C7.49702 28.1162 7.02932 27.5904 6.85164 26.9037ZM22.8061 25.1212C22.8061 26.4754 21.8113 27.5934 20.5403 27.7291C20.4699 27.7367 20.3979 27.7413 20.3259 27.742C20.3105 27.7428 20.2958 27.7428 20.2804 27.7428H11.8105C10.4177 27.7428 9.28483 26.5669 9.28483 25.1212V5.06035C9.28483 4.76923 9.33035 4.48954 9.41478 4.22814C9.75105 3.18939 10.6975 2.43872 11.8105 2.43872H20.2804C21.3524 2.43872 22.2709 3.13529 22.6365 4.11535C22.7459 4.40876 22.8061 4.72732 22.8061 5.06035V25.1212ZM29.5873 9.44701L25.5029 26.6926C25.3656 27.2726 25.019 27.7626 24.5271 28.0712C24.3854 28.1604 24.2371 28.2313 24.0837 28.2839C24.754 27.4166 25.1556 26.3169 25.1556 25.1212V6.01374L28.0102 6.74231C29.1637 7.03648 29.8707 8.24975 29.5873 9.44701Z" fill="white"/>
</svg>
