<svg width="19" height="19" viewBox="0 0 19 19" fill="none" xmlns="http://www.w3.org/2000/svg">
<path fill-rule="evenodd" clip-rule="evenodd" d="M9.5 19C14.7467 19 19 14.7467 19 9.5C19 4.25329 14.7467 0 9.5 0C4.25329 0 0 4.25329 0 9.5C0 14.7467 4.25329 19 9.5 19ZM9.49895 16.8888C13.5797 16.8888 16.8878 13.5806 16.8878 9.49986C16.8878 5.41909 13.5797 2.11098 9.49895 2.11098C5.41817 2.11098 2.11006 5.41909 2.11006 9.49986C2.11006 13.5806 5.41817 16.8888 9.49895 16.8888Z" fill="url(#paint0_linear_1892_383)"/>
<path fill-rule="evenodd" clip-rule="evenodd" d="M9.50042 4.74942C8.97575 4.74942 8.55042 5.17475 8.55042 5.69942V8.54954L5.69463 8.54954C5.16996 8.54954 4.74463 8.97487 4.74463 9.49954C4.74463 10.0242 5.16996 10.4495 5.69463 10.4495H8.55042V13.2994C8.55042 13.8241 8.97575 14.2494 9.50042 14.2494C10.0251 14.2494 10.4504 13.8241 10.4504 13.2994V10.4495H13.2946C13.8193 10.4495 14.2446 10.0242 14.2446 9.49954C14.2446 8.97487 13.8193 8.54954 13.2946 8.54954L10.4504 8.54954V5.69942C10.4504 5.17475 10.0251 4.74942 9.50042 4.74942Z" fill="url(#paint1_linear_1892_383)"/>
<defs>
<linearGradient id="paint0_linear_1892_383" x1="0" y1="9.50144" x2="19" y2="9.50144" gradientUnits="userSpaceOnUse">
<stop stop-color="#FF8177"/>
<stop offset="1" stop-color="#B22B5B"/>
</linearGradient>
<linearGradient id="paint1_linear_1892_383" x1="4.74463" y1="9.50014" x2="14.2446" y2="9.50014" gradientUnits="userSpaceOnUse">
<stop stop-color="#FF8177"/>
<stop offset="1" stop-color="#B22B5B"/>
</linearGradient>
</defs>
</svg>
