<svg width="24" height="20" viewBox="0 0 24 20" fill="none" xmlns="http://www.w3.org/2000/svg">
<path d="M23 16.4249C23 16.9363 22.7893 17.4267 22.4142 17.7883C22.0391 18.1499 21.5304 18.353 21 18.353H3C2.46957 18.353 1.96086 18.1499 1.58579 17.7883C1.21071 17.4267 1 16.9363 1 16.4249V5.82029C1 5.30892 1.21071 4.81849 1.58579 4.4569C1.96086 4.09531 2.46957 3.89217 3 3.89217H7L9 1H15L17 3.89217H21C21.5304 3.89217 22.0391 4.09531 22.4142 4.4569C22.7893 4.81849 23 5.30892 23 5.82029V16.4249Z" stroke="white" stroke-width="2" stroke-linecap="round" stroke-linejoin="round"/>
<path d="M12 14.4969C14.2091 14.4969 16 12.7704 16 10.6407C16 8.51092 14.2091 6.78442 12 6.78442C9.79086 6.78442 8 8.51092 8 10.6407C8 12.7704 9.79086 14.4969 12 14.4969Z" stroke="white" stroke-width="2" stroke-linecap="round" stroke-linejoin="round"/>
</svg>
