<svg width="22" height="21" viewBox="0 0 22 21" fill="none" xmlns="http://www.w3.org/2000/svg">
<path d="M20.1025 9.8542C20.1061 11.2291 19.7849 12.5853 19.165 13.8125C18.4301 15.2831 17.3002 16.52 15.902 17.3847C14.5037 18.2494 12.8924 18.7077 11.2484 18.7084C9.87351 18.7119 8.51724 18.3907 7.29004 17.7709L1.35254 19.75L3.33171 13.8125C2.71184 12.5853 2.39062 11.2291 2.39421 9.8542C2.39484 8.21019 2.85318 6.59883 3.71787 5.2006C4.58257 3.80237 5.81947 2.6725 7.29004 1.93753C8.51724 1.31767 9.87351 0.996445 11.2484 1.00003H11.7692C13.9404 1.11981 15.9911 2.03624 17.5287 3.57384C19.0663 5.11144 19.9828 7.16217 20.1025 9.33336V9.8542Z" stroke="url(#paint0_linear_3924_3616)" stroke-width="2" stroke-linecap="round" stroke-linejoin="round"/>
<defs>
<linearGradient id="paint0_linear_3924_3616" x1="1.35254" y1="10.3764" x2="20.1026" y2="10.3764" gradientUnits="userSpaceOnUse">
<stop stop-color="#FF8177"/>
<stop offset="1" stop-color="#B22B5B"/>
</linearGradient>
</defs>
</svg>
