<svg width="95" height="10" viewBox="0 0 95 91" fill="none" xmlns="http://www.w3.org/2000/svg">
<path d="M22.3188 24.3649H22.3152C22.3152 24.3649 22.3115 24.3613 22.3115 24.3577L22.3188 24.3649Z" fill="url(#paint0_linear_1098_385)"/>
<path d="M24.1723 22.6137L24.1545 22.6316L24.126 22.603C24.1438 22.6066 24.158 22.6066 24.1723 22.6137Z" fill="url(#paint1_linear_1098_385)"/>
<path d="M61.1994 21.5837L59.4873 19.5378C60.1234 20.1603 60.6941 20.8447 61.1994 21.5837Z" fill="url(#paint2_linear_1098_385)"/>
<path d="M23.043 48.1292C19.2153 48.1292 16.0601 51.0342 15.6784 54.7692C15.6493 55.0276 15.6348 55.2861 15.6348 55.5518C15.6348 56.2654 15.7329 56.9534 15.9256 57.605C16.8125 60.7066 19.666 62.9745 23.0466 62.9745C24.119 62.9745 25.1404 62.7452 26.0565 62.3338H26.0601C28.0412 61.4492 29.5643 59.7237 30.1677 57.605C30.3567 56.9534 30.4585 56.2654 30.4585 55.5518C30.4585 51.4528 27.1397 48.1328 23.0466 48.1328L23.043 48.1292ZM25.3658 57.6014C24.7987 58.2457 23.9663 58.6498 23.043 58.6498C22.1197 58.6498 21.2909 58.2457 20.7238 57.6014C20.2404 57.0553 19.9459 56.3382 19.9459 55.5482C19.9459 53.8336 21.3345 52.4503 23.0394 52.4503C24.7442 52.4503 26.1328 53.8372 26.1328 55.5482C26.1328 56.3382 25.842 57.0553 25.3585 57.6014H25.3658Z" fill="#353333"/>
<path d="M4.16254 46.0505C4.16254 46.0505 4.12983 46.076 4.11529 46.0906C4.10802 46.0979 4.09711 46.1015 4.08984 46.1088C4.08984 46.1015 4.10075 46.0979 4.10802 46.0906C4.1262 46.076 4.14437 46.0651 4.16254 46.0505Z" fill="url(#paint3_linear_1098_385)"/>
<path d="M4.24165 45.9778C4.24165 45.9778 4.23074 45.9887 4.22347 45.996C4.20529 46.0142 4.18712 46.0287 4.16895 46.0433C4.18349 46.0287 4.20166 46.0142 4.2162 45.996C4.22347 45.9887 4.23438 45.9814 4.24165 45.9778Z" fill="url(#paint4_linear_1098_385)"/>
<path d="M10.0768 0.822664L9.64062 0.37854C9.80784 0.502312 9.95687 0.651567 10.0768 0.822664Z" fill="url(#paint5_linear_1098_385)"/>
<path d="M0.832637 10.0656C0.647249 9.93822 0.483672 9.7744 0.356445 9.58875L0.832637 10.0656Z" fill="url(#paint6_linear_1098_385)"/>
<path d="M0.861339 6.83655L0.337891 7.36076C0.476023 7.15326 0.654141 6.97488 0.861339 6.83655Z" fill="url(#paint7_linear_1098_385)"/>
<path d="M22.3188 24.3649H22.3152C22.3152 24.3649 22.3115 24.3613 22.3115 24.3577L22.3188 24.3649Z" fill="url(#paint8_linear_1098_385)"/>
<path d="M24.1723 22.6137L24.1545 22.6316L24.126 22.603C24.1438 22.6066 24.158 22.6066 24.1723 22.6137Z" fill="url(#paint9_linear_1098_385)"/>
<path d="M94.2676 52.2574C94.2676 53.5861 93.7841 54.802 92.9808 55.7375C91.9993 56.877 90.5489 57.6014 88.9313 57.6014H87.7936C87.8045 57.5614 87.8117 57.5213 87.8154 57.4813C87.9317 56.8551 87.9899 56.2071 87.9899 55.5482C87.9899 52.7925 86.9575 50.2806 85.2599 48.3767C83.2934 46.167 80.4289 44.7801 77.241 44.7801C71.3049 44.7801 66.4885 49.5999 66.4885 55.5482C66.4885 56.2508 66.5539 56.9389 66.6848 57.6014H45.5978L52.6462 42.1044H57.8952L57.3391 40.124L54.8163 31.0923L41.8828 39.1011L37.0337 42.1008H44.3801L37.3354 57.5978H33.6022C33.733 56.9352 33.7985 56.2472 33.7985 55.5446C33.7985 49.5963 28.9856 44.7764 23.046 44.7764C18.7021 44.7764 14.958 47.3574 13.264 51.0742C12.6388 52.4357 12.2935 53.9465 12.2935 55.5446C12.2935 56.2472 12.3589 56.9352 12.4898 57.5978H5.90668C4.39813 57.5978 3.17676 56.371 3.17676 54.8639V48.1401C3.17676 47.3283 3.53299 46.6002 4.09279 46.1015C4.10006 46.0942 4.11097 46.0906 4.11824 46.0833C4.13278 46.0687 4.15095 46.0542 4.16549 46.0433C4.16549 46.0433 4.16791 46.0408 4.17276 46.036C4.17276 46.036 4.20911 46.0069 4.22729 45.9887C4.23456 45.9814 4.23819 45.9777 4.24546 45.9705C4.47447 45.7593 4.63441 45.4681 4.6853 45.1405C4.69257 45.0968 4.69621 45.0494 4.69984 45.0021L5.17967 40.5973V40.5718C5.17967 40.0294 5.24147 39.5015 5.35415 38.9955C5.9503 36.3636 8.00411 34.2849 10.625 33.6624C10.6977 33.6442 10.7704 33.6296 10.8431 33.6151H10.8504C11.1048 33.5277 11.312 33.3348 11.4174 33.0872C11.4392 33.029 11.4574 32.9707 11.4719 32.9088C12.8605 28.2565 15.6159 24.1938 19.2728 21.1869L22.3153 24.3467C22.3153 24.3467 22.3153 24.354 22.319 24.3576C22.4316 25.1076 23.0714 25.6791 23.8529 25.6791C24.7108 25.6791 25.4051 24.9838 25.4051 24.121C25.4051 23.3747 24.878 22.7486 24.1765 22.603C24.1619 22.5957 24.1474 22.5957 24.1292 22.5921L21.3229 19.6798C25.1034 17.1971 29.6218 15.7518 34.4818 15.7518H41.1013L40.7269 16.5746L34.5073 30.2623H29.3528L32.4389 41.3035L39.7163 36.7968L50.2689 30.2623H42.7734L47.5971 19.6507L49.3347 15.8283C49.6582 15.8028 49.9854 15.7919 50.3161 15.7919C53.8821 15.7919 57.1173 17.2116 59.4874 19.516L59.4983 19.5269L61.2104 21.5728L61.2322 21.6019L69.3675 31.3107C69.6219 31.6748 69.9091 32.0133 70.2181 32.33C71.7484 33.8881 73.8749 34.8528 76.2268 34.8528C76.3722 34.8528 76.5176 34.8492 76.6594 34.8419C76.663 34.8419 76.6666 34.8419 76.6703 34.8419C76.8121 34.8346 76.9502 34.8237 77.0883 34.8091C77.0883 34.8091 77.092 34.8055 77.0956 34.8091C77.4409 34.78 77.7899 34.7691 78.1425 34.7691C85.9179 34.7691 92.3774 40.4189 93.646 47.838C93.6678 47.969 93.6896 48.0964 93.7078 48.2238L94.1731 51.1871V51.2053L94.2458 51.6421C94.2676 51.8424 94.2785 52.0426 94.2785 52.2464L94.2676 52.2574Z" fill="url(#paint10_linear_1098_385)"/>
<path d="M23.8495 24.6999C23.7114 24.6999 23.5878 24.6525 23.4896 24.5652L23.3988 24.4705L23.3806 24.4487L22.8317 23.8808L22.4427 23.4767L19.8255 20.7574L18.8186 19.7126L16.8411 17.6594L16.3431 17.1425L16.0232 16.8076L15.5216 16.287L15.4671 16.2288C15.3871 16.1305 15.3398 16.0103 15.3398 15.8756C15.3398 15.5626 15.5943 15.3077 15.9069 15.3077C16.0123 15.3077 16.1068 15.3369 16.1904 15.3878C16.2014 15.3915 16.2123 15.3987 16.2232 15.406L16.3758 15.5589V15.5662L16.8193 16.0212H16.8229L17.1574 16.3744L17.6481 16.884L19.6074 18.919L20.7379 20.0912L23.2534 22.6977L23.6496 23.1127L24.2239 23.7061L24.2312 23.7133L24.2857 23.7716H24.2893C24.3693 23.8699 24.4166 23.9973 24.4166 24.132C24.4166 24.445 24.1658 24.6999 23.8531 24.6999H23.8495Z" fill="url(#paint11_linear_1098_385)"/>
<path d="M70.211 32.3373C69.902 32.0206 69.6148 31.682 69.3604 31.318L70.211 32.3373Z" fill="url(#paint12_linear_1098_385)"/>
<path d="M84.6492 55.4463C84.6347 54.1066 84.2603 52.858 83.6205 51.7805C82.3301 49.5926 79.9564 48.1328 77.2373 48.1328C73.1479 48.1328 69.8291 51.4528 69.8291 55.5519C69.8291 56.2654 69.9273 56.9534 70.1199 57.605C71.0069 60.7066 73.8604 62.9746 77.241 62.9746C80.6216 62.9746 83.4787 60.7066 84.3657 57.605C84.5547 56.9534 84.6565 56.2654 84.6565 55.5519C84.6565 55.5155 84.6565 55.4827 84.6529 55.4463H84.6492ZM79.5602 57.605C78.9931 58.2494 78.1606 58.6535 77.2373 58.6535C76.314 58.6535 75.4852 58.2494 74.9182 57.605C74.4347 57.059 74.1403 56.3418 74.1403 55.5519C74.1403 53.8373 75.5289 52.4539 77.2337 52.4539C78.9385 52.4539 80.3271 53.8409 80.3271 55.5519C80.3271 56.3418 80.0363 57.059 79.5529 57.605H79.5602Z" fill="#353333"/>
<path d="M19.6075 11.8603V17.9179L17.9026 16.145C17.9135 16.0576 17.9208 15.9703 17.9208 15.8793C17.9208 15.8101 17.9208 15.7373 17.9099 15.6681C17.9026 15.6099 17.8954 15.548 17.8808 15.4897V15.4825C17.6991 14.5578 16.8848 13.8625 15.907 13.8625C15.8706 13.8625 15.8307 13.8625 15.7943 13.8698C14.7329 13.9244 13.8932 14.8017 13.8932 15.8793V15.8902C13.8932 16.8731 14.6057 17.6885 15.5362 17.8596C15.5508 17.8596 15.5653 17.8669 15.5798 17.8669C15.6853 17.8887 15.7943 17.896 15.907 17.896C15.9652 17.896 16.0197 17.8924 16.0778 17.8887L17.8372 19.7162H12.1229C11.0869 19.7162 10.1418 19.3303 9.42933 18.6932L9.06946 18.3329L0.832425 10.0692L0.356234 9.59235C0.13086 9.272 0 8.88248 0 8.46384C0 8.0452 0.123591 7.67752 0.334424 7.36445L0.865145 6.83296L6.9684 0.717151L7.24103 0.444124C7.57909 0.167457 8.01166 0 8.48422 0C8.91679 0 9.32028 0.138334 9.6438 0.378597L10.08 0.822721L18.3897 9.22831C18.4515 9.28656 18.5061 9.34844 18.5606 9.40669C19.1604 10.0656 19.5457 10.9211 19.6111 11.8567L19.6075 11.8603Z" fill="url(#paint13_linear_1098_385)"/>
<path d="M24.4129 24.132C24.4129 24.445 24.1621 24.6999 23.8495 24.6999C23.7114 24.6999 23.5878 24.6525 23.4896 24.5652L23.3988 24.4705L23.3806 24.4487L22.8317 23.8808L22.4427 23.4767L19.8255 20.7574L18.8186 19.7126L16.8411 17.6594L16.3431 17.1425L16.0232 16.8076L15.5216 16.287L15.4671 16.2288C15.3871 16.1305 15.3398 16.0103 15.3398 15.8756C15.3398 15.5626 15.5943 15.3077 15.9069 15.3077C16.0123 15.3077 16.1068 15.3369 16.1904 15.3878C16.2014 15.3915 16.2123 15.3987 16.2232 15.406L16.3758 15.5589V15.5662L16.8193 16.0212H16.8229L17.1574 16.3744L17.6481 16.884L19.6074 18.919L20.7379 20.0912L23.2534 22.6977L23.6496 23.1127L24.2239 23.7061L24.2312 23.7133L24.2857 23.7716H24.2893C24.3693 23.8699 24.4166 23.9973 24.4166 24.132H24.4129Z" fill="#353333"/>
<path d="M19.6183 12.1516C19.6183 12.2499 19.6147 12.3482 19.6074 12.4464V11.8604C19.6147 11.955 19.6183 12.0533 19.6183 12.1516Z" fill="url(#paint14_linear_1098_385)"/>
<path d="M11.1957 85.1699C11.232 85.3592 11.3847 85.7706 11.5701 85.7706C11.8318 85.7706 11.9082 85.3191 11.9445 85.2063L15.5796 72.0682C16.0667 70.3027 17.717 70.2299 18.4658 70.2299C19.4036 70.2299 20.8286 70.4192 21.352 72.0682L25.0234 85.2063C25.0598 85.3556 25.1725 85.7706 25.3615 85.7706C25.5505 85.7706 25.6632 85.432 25.7723 85.1699L29.5563 70.4956H33.7548L29.0329 87.8747C28.4331 90.2009 27.0845 90.5758 25.6232 90.5758C24.5363 90.5758 22.8133 90.3865 22.2135 88.3625L18.7675 75.9015C18.7312 75.7523 18.6548 75.2645 18.4658 75.2645C18.2768 75.2645 18.2041 75.7523 18.1641 75.9015L14.7181 88.3625C14.4163 89.3745 13.5948 90.5758 11.3084 90.5758C8.61116 90.5758 8.19676 88.9632 7.89869 87.8747L3.17676 70.4956H7.37524L11.1993 85.1699H11.1957Z" fill="#353333"/>
<path d="M35.5907 86.9719H46.7575C47.2083 86.9719 47.8081 86.8954 48.2188 86.4076C48.6296 85.9963 48.5932 85.4684 48.5932 85.1699C48.5932 84.6057 48.5169 84.1178 48.0298 83.6701C47.7281 83.3716 47.1683 83.1823 44.4311 82.3923L40.607 81.3402C36.2595 80.4775 35.1726 77.6635 35.3217 75.5594C35.3217 74.5473 35.4707 73.2696 36.2595 72.1811C37.4954 70.5284 39.2948 70.4556 41.0178 70.4556H52.2247V73.8338H41.6939C41.2068 73.8338 40.6434 73.7974 40.1563 74.2088C39.5928 74.6201 39.5928 75.0715 39.5928 75.6358C39.5928 76.2001 39.6292 76.6879 40.229 77.1757C40.7924 77.6271 42.2137 78.0748 42.7008 78.1877L46.972 79.389C49.3711 80.1025 50.9088 80.5903 51.9193 81.6424C53.0062 82.8073 53.1552 84.1943 53.1552 85.2828C53.1552 86.2948 53.0426 88.3225 51.4686 89.5238C50.458 90.2737 49.2948 90.3501 48.2843 90.3501H35.5798V86.9719H35.5907Z" fill="#353333"/>
<path d="M68.6078 70.4556C70.2944 70.4556 71.8321 71.0562 72.7299 71.9954C73.5914 72.8582 74.1912 74.4345 74.1912 76.6879V87.0083C74.1912 87.7218 74.1149 88.8467 73.4024 89.5602C72.69 90.2737 71.6031 90.3501 70.6652 90.3501H61.185C60.0981 90.3501 58.7495 90.3865 57.5863 89.3745C55.976 87.9475 55.8633 85.4721 55.8633 83.9686C55.8633 82.203 56.0523 80.4411 57.5499 79.1269C58.7859 78.0384 60.1345 77.962 61.185 77.962H69.8037V76.575C69.8037 75.9744 69.7274 75.2972 69.2403 74.6966C68.6405 73.9467 67.8153 73.8338 67.1029 73.8338H57.3209V70.4556H68.6005H68.6078ZM62.4973 81.3402C62.1955 81.3402 61.374 81.3767 60.8869 82.0174C60.7379 82.2067 60.3998 82.6945 60.3998 84.1579C60.3998 84.7585 60.4362 85.8106 60.9996 86.3712C61.3013 86.6697 61.8611 86.9719 62.4246 86.9719H68.5351C69.1349 87.1211 70.0327 86.5205 69.811 85.9198V81.3402H62.5045H62.4973Z" fill="#353333"/>
<path d="M85.133 90.3465C83.5953 90.3465 81.0472 90.0443 79.2115 87.9074C77.5611 85.9562 77.4121 83.5172 77.4121 80.6631C77.4121 78.2605 77.4485 74.8822 79.6622 72.5924C80.451 71.8025 82.174 70.4519 85.7327 70.4519H94.2388V73.8302H87.1541C84.1951 73.8302 82.7702 75.2936 82.2831 76.9827C81.9814 78.0712 81.945 80.0989 81.945 80.7359C81.945 81.9008 82.0577 83.812 82.5812 84.8641C83.5917 86.7425 85.7291 86.9646 87.5648 86.9646H94.6859V90.3428H85.1293L85.133 90.3465Z" fill="#353333"/>
<defs>
<linearGradient id="paint0_linear_1098_385" x1="11.2707" y1="23.0947" x2="75.3972" y2="30.4276" gradientUnits="userSpaceOnUse">
<stop stop-color="#FF8177"/>
<stop offset="1" stop-color="#B22B5B"/>
</linearGradient>
<linearGradient id="paint1_linear_1098_385" x1="11.7367" y1="21.1958" x2="80.2649" y2="29.0276" gradientUnits="userSpaceOnUse">
<stop stop-color="#FF8177"/>
<stop offset="1" stop-color="#B22B5B"/>
</linearGradient>
<linearGradient id="paint2_linear_1098_385" x1="12.1881" y1="15.0347" x2="82.0963" y2="23.0313" gradientUnits="userSpaceOnUse">
<stop stop-color="#FF8177"/>
<stop offset="1" stop-color="#B22B5B"/>
</linearGradient>
<linearGradient id="paint3_linear_1098_385" x1="8.57907" y1="46.5893" x2="78.4864" y2="54.5856" gradientUnits="userSpaceOnUse">
<stop stop-color="#FF8177"/>
<stop offset="1" stop-color="#B22B5B"/>
</linearGradient>
<linearGradient id="paint4_linear_1098_385" x1="8.58547" y1="46.5129" x2="78.4964" y2="54.5093" gradientUnits="userSpaceOnUse">
<stop stop-color="#FF8177"/>
<stop offset="1" stop-color="#B22B5B"/>
</linearGradient>
<linearGradient id="paint5_linear_1098_385" x1="13.7882" y1="1.05201" x2="83.6964" y2="9.04862" gradientUnits="userSpaceOnUse">
<stop stop-color="#FF8177"/>
<stop offset="1" stop-color="#B22B5B"/>
</linearGradient>
<linearGradient id="paint6_linear_1098_385" x1="12.6247" y1="11.2087" x2="82.5366" y2="19.2053" gradientUnits="userSpaceOnUse">
<stop stop-color="#FF8177"/>
<stop offset="1" stop-color="#B22B5B"/>
</linearGradient>
<linearGradient id="paint7_linear_1098_385" x1="12.9334" y1="8.51111" x2="82.8419" y2="16.5078" gradientUnits="userSpaceOnUse">
<stop stop-color="#FF8177"/>
<stop offset="1" stop-color="#B22B5B"/>
</linearGradient>
<linearGradient id="paint8_linear_1098_385" x1="11.2707" y1="23.0947" x2="75.3972" y2="30.4276" gradientUnits="userSpaceOnUse">
<stop stop-color="#FF8177"/>
<stop offset="1" stop-color="#B22B5B"/>
</linearGradient>
<linearGradient id="paint9_linear_1098_385" x1="11.7367" y1="21.1958" x2="80.2649" y2="29.0276" gradientUnits="userSpaceOnUse">
<stop stop-color="#FF8177"/>
<stop offset="1" stop-color="#B22B5B"/>
</linearGradient>
<linearGradient id="paint10_linear_1098_385" x1="9.9525" y1="34.5834" x2="79.8609" y2="42.5801" gradientUnits="userSpaceOnUse">
<stop stop-color="#FF8177"/>
<stop offset="1" stop-color="#B22B5B"/>
</linearGradient>
<linearGradient id="paint11_linear_1098_385" x1="11.7266" y1="19.0719" x2="81.635" y2="27.0685" gradientUnits="userSpaceOnUse">
<stop stop-color="#FF8177"/>
<stop offset="1" stop-color="#B22B5B"/>
</linearGradient>
<linearGradient id="paint12_linear_1098_385" x1="11.036" y1="25.0893" x2="80.9479" y2="33.086" gradientUnits="userSpaceOnUse">
<stop stop-color="#FF8177"/>
<stop offset="1" stop-color="#B22B5B"/>
</linearGradient>
<linearGradient id="paint13_linear_1098_385" x1="1.70484" y1="2.42812" x2="17.742" y2="16.9408" gradientUnits="userSpaceOnUse">
<stop stop-color="#FF8177"/>
<stop offset="1" stop-color="#B22B5B"/>
</linearGradient>
<linearGradient id="paint14_linear_1098_385" x1="12.6102" y1="11.3471" x2="82.5158" y2="19.3467" gradientUnits="userSpaceOnUse">
<stop stop-color="#FF8177"/>
<stop offset="1" stop-color="#B22B5B"/>
</linearGradient>
</defs>
</svg>
