<svg width="224" height="211" viewBox="0 0 224 211" fill="none" xmlns="http://www.w3.org/2000/svg">
<defs>
<linearGradient id="paint0_linear_1_61298" x1="58.4086" y1="156.482" x2="58.4086" y2="207.762" gradientUnits="userSpaceOnUse">
<stop stop-color="#B74064"/>
<stop offset="1" stop-color="#741B5B"/>
</linearGradient>
<linearGradient id="paint1_linear_1_61298" x1="57.2428" y1="157.148" x2="57.2428" y2="190.462" gradientUnits="userSpaceOnUse">
<stop stop-color="#B74064"/>
<stop offset="1" stop-color="#741B5B"/>
</linearGradient>
<linearGradient id="paint2_linear_1_61298" x1="102.154" y1="19.5484" x2="172.022" y2="19.5484" gradientUnits="userSpaceOnUse">
<stop stop-color="#FF8177"/>
<stop offset="1" stop-color="#B22B5B"/>
</linearGradient>
<linearGradient id="paint3_linear_1_61298" x1="133.31" y1="48.1131" x2="145.338" y2="48.1131" gradientUnits="userSpaceOnUse">
<stop stop-color="#FF8177"/>
<stop offset="1" stop-color="#B22B5B"/>
</linearGradient>
<linearGradient id="paint4_linear_1_61298" x1="221.102" y1="94.6604" x2="85.0617" y2="92.0832" gradientUnits="userSpaceOnUse">
<stop stop-color="#E9E9E9"/>
<stop offset="1" stop-color="#CECECE"/>
</linearGradient>
<linearGradient id="paint5_linear_1_61298" x1="136.316" y1="144.836" x2="110.863" y2="139.764" gradientUnits="userSpaceOnUse">
<stop stop-color="#E9E9E9"/>
<stop offset="1" stop-color="#CECECE"/>
</linearGradient>
<linearGradient id="paint6_linear_1_61298" x1="220.238" y1="94.6604" x2="126.372" y2="107.951" gradientUnits="userSpaceOnUse">
<stop stop-color="#E9E9E9"/>
<stop offset="1" stop-color="#CECECE"/>
</linearGradient>
<linearGradient id="paint7_linear_1_61298" x1="221.01" y1="94.6604" x2="127.143" y2="107.951" gradientUnits="userSpaceOnUse">
<stop offset="0.798902" stop-color="#E9E9E9"/>
<stop offset="1" stop-color="#CECECE"/>
</linearGradient>
<linearGradient id="paint8_linear_1_61298" x1="221.01" y1="95.2624" x2="127.19" y2="108.713" gradientUnits="userSpaceOnUse">
<stop stop-color="#E9E9E9"/>
<stop offset="1" stop-color="#CECECE"/>
</linearGradient>
</defs>
<path d="M94.3191 139.233C92.535 138.241 85.8093 141.078 89.5681 142.401C93.7177 143.854 96.1032 140.226 94.3191 139.233Z" fill="#FF9566"/>
<path d="M96.8249 136.798C95.0408 135.805 88.3152 138.642 92.0739 139.965C96.2235 141.418 98.6091 137.79 96.8249 136.798Z" fill="#FF9566"/>
<path d="M62.1644 97.6167C77.2895 102.077 85.8394 120.791 87.3228 133.31L73.5608 138.642L62.1543 97.6167H62.1644Z" fill="#773D65"/>
<path d="M79.234 136.447L87.3328 133.31C85.8494 120.791 77.2895 102.077 62.1744 97.6167L63.1968 101.305C72.3581 109.655 77.7305 124.74 79.234 136.447Z" fill="#6D84AA"/>
<path d="M30.5209 147.272C26.3813 125.01 31.6736 95.8727 41.9675 95.131C52.2614 94.3892 64.3996 96.1233 69.4814 101.325C74.5632 106.527 74.934 142.601 74.934 142.601L63.5275 158.348L36.7955 159.831C36.7955 159.831 31.5032 152.604 30.5109 147.272H30.5209Z" fill="#6D84AA"/>
<path d="M73.7313 119.457C73.8716 134.552 70.4337 142.601 61.3325 142.601C50.2969 142.601 39.161 128.659 39.161 108.291C39.161 105.415 34.7308 103.49 35.0615 100.804C29.5688 110.497 26.1909 130.974 29.2681 147.482C30.2604 152.815 36.7955 159.841 36.7955 159.841L63.5276 158.358L76.1068 142.08C76.1068 142.08 74.8038 130.623 73.7313 119.467V119.457Z" fill="#3C5072"/>
<g style="mix-blend-mode:overlay" opacity="0.57">
<path d="M29.3582 124.158L34.2796 128.488L74.463 129.28C74.3226 126.724 74.1322 123.998 73.9017 121.282L29.3883 123.707C29.3783 123.858 29.3682 124.008 29.3582 124.158Z" fill="#FFF3BD"/>
</g>
<path d="M77.7805 127.636C74.6132 130.493 68.6995 136.357 75.0342 144.886L91.1215 139.303C95.1108 126.694 77.7805 127.646 77.7805 127.646V127.636Z" fill="#FFC950"/>
<path d="M79.0737 132.568C82.9627 132.568 86.3907 131.525 88.4454 129.932C84.3259 127.276 77.7807 127.636 77.7807 127.636C76.628 128.679 75.1245 130.112 73.9718 131.926C75.5054 132.337 77.2394 132.578 79.0737 132.578V132.568Z" fill="#FFF297"/>
<path d="M42.5789 95.7524C40.3437 93.8981 32.5356 98.2281 25.5995 109.885C18.6533 121.532 19.1545 145.829 30.8015 152.274L42.0777 132.067C34.8008 126.494 44.8041 97.6067 42.5689 95.7524H42.5789Z" fill="#6D84AA"/>
<path d="M29.298 105.926C30.7714 103.45 32.2849 101.325 33.7683 99.5011C31.1723 101.887 28.3157 105.315 25.5994 109.885C18.6633 121.532 19.1544 145.829 30.8015 152.274L33.3975 147.633C22.8229 140.306 22.5824 117.202 29.2879 105.926H29.298Z" fill="#3C5072"/>
<path d="M22.8029 135.074C17.26 142.07 26.7621 162.517 40.7446 151.833L45.235 133.099C41.2758 127.686 28.3458 128.087 22.8029 135.074Z" fill="#FFC950"/>
<path d="M29.3982 141.017C37.3467 141.017 43.8217 137.048 44.2627 132.057C39.4917 127.787 27.9549 128.579 22.8029 135.084C21.8808 136.246 21.3896 137.77 21.2493 139.474C23.5947 140.456 26.3912 141.027 29.3982 141.027V141.017Z" fill="#FFF297"/>
<path d="M75.4352 148.304C68.4891 144.215 74.0921 131.796 81.0082 131.325C90.1794 130.704 94.1487 137.399 92.1641 142.601C90.1794 147.803 81.2988 151.762 75.4352 148.304Z" fill="#FFB882"/>
<path d="M90.6405 134.633C87.7538 139.103 79.9657 142.07 74.6433 138.933C74.1121 138.622 73.6611 138.251 73.2702 137.85C71.5963 141.669 71.7667 146.139 75.4352 148.304C81.2988 151.762 90.1894 147.813 92.164 142.601C93.1764 139.945 92.6251 136.898 90.6305 134.633H90.6405Z" fill="#FF9566"/>
<path d="M31.6737 154.379L38.1186 170.736C54.9778 167.93 72.4985 163.79 72.4985 163.79L79.4346 144.616C59.7689 145.107 37.868 151.271 31.6737 154.368V154.379Z" fill="#512525"/>
<path d="M33.4979 207.762H93.3268C93.3268 207.762 116.631 189.751 107.209 170.576C97.7872 151.402 78.1215 157.355 78.1215 157.355C78.1215 157.355 50.5174 168.762 40.9352 167.77C31.3529 166.777 11.0257 161.986 7.8784 181.983C4.74111 201.979 16.308 206.279 33.4979 207.762Z" fill="url(#paint0_linear_1_61298)"/>
<path d="M103.57 166.477C93.7676 153.186 77.8306 157.997 77.8306 157.997C77.8306 157.997 50.858 169.143 41.4963 168.171C33.217 167.319 16.7488 163.57 10.9152 176.189C18.9038 184.649 35.5324 190.462 54.7671 190.462C80.7374 190.462 101.967 179.858 103.57 166.467V166.477Z" fill="url(#paint1_linear_1_61298)"/>
<path d="M78.0312 157.365C78.0312 157.365 71.2855 160.272 63.3772 163.059C63.2068 170.777 63.1466 181.672 63.1266 190.903C66.5946 190.583 69.9424 190.071 73.1198 189.37C80.3967 173.062 84.5062 161.996 85.5085 156.483C81.1685 156.373 78.0312 157.355 78.0312 157.355V157.365Z" fill="black"/>
<path d="M41.6967 168C36.7352 167.459 28.8269 165.845 22.0311 167.479C21.9008 168.411 21.8406 169.323 21.8607 170.175C21.981 173.894 28.1954 180.529 39.0005 189.811C44.0021 190.753 49.3746 191.284 54.9676 191.284C55.138 191.284 55.3184 191.284 55.4888 191.284C51.6599 183.626 47.0291 174.866 42.7392 168.06C42.3683 168.06 42.0175 168.04 41.6967 168Z" fill="black"/>
<path d="M30.8116 152.274C20.2671 143.193 29.4284 132.738 36.2642 131.205C43.1001 129.671 52.2514 137.529 60.3702 138.191C63.3371 138.431 58.9068 148.204 58.9068 148.204C58.9068 148.204 36.3344 157.035 30.8216 152.284L30.8116 152.274Z" fill="#FFB882"/>
<path d="M59.2876 132.508L59.8088 131.255L62.3848 130.854L70.4335 139.825L66.805 141.218L59.2876 132.508Z" fill="#FCDFBE"/>
<path d="M58.6862 138.241C63.4974 137.379 65.4118 135.936 67.2662 137.189C69.1205 138.442 68.7797 141.479 68.7797 141.479L57.8242 146.761L58.6862 138.251V138.241Z" fill="#FFB882"/>
<path d="M30.601 142.22C29.1476 140.977 28.035 139.735 27.2031 138.532C25.1683 142.541 25.3588 147.593 30.8014 152.284C36.3243 157.035 58.8866 148.204 58.8866 148.204C60.1997 145.307 57.7039 142.13 54.5766 142.711C46.5881 144.195 34.6003 145.668 30.5909 142.23L30.601 142.22Z" fill="#FF9566"/>
<path d="M49.7155 151.963L94.0485 136.256C92.4648 132.828 73.9919 128.338 49.7155 151.963Z" fill="#EADDBE"/>
<path d="M86.7615 134.061C89.5179 131.966 90.5203 131.104 91.5827 129.651C92.6452 128.198 95.5219 129.571 94.6298 130.864C93.7377 132.157 91.4825 134.422 91.4424 136.106C91.4123 137.79 86.7615 134.061 86.7615 134.061Z" fill="#FFB882"/>
<path d="M82.8523 140.226L94.0483 136.256C92.8555 133.68 82.1106 130.503 66.5344 139.133C75.2647 136.788 81.1884 138.452 82.8523 140.226Z" fill="#F9EACD"/>
<path d="M46.2274 155.672L45.1649 153.637L76.3674 137.74L95.3715 135.204L96.424 137.399L60.701 154.038L46.2274 155.672Z" fill="#DDD4B1"/>
<path d="M46.2274 155.671L45.1649 153.637L76.3674 137.74L79.1438 143.393L60.701 154.038L46.2274 155.671Z" fill="#CEC39F"/>
<path d="M46.2275 155.672L77.9511 141.278L96.424 137.399L60.7011 154.038L46.2275 155.672Z" fill="#BCAE82"/>
<path d="M68.078 203.462C83.0528 173.333 90.2194 155.361 89.6882 150.66C88.8663 143.323 71.8367 141.489 67.8775 150.169C66.9053 152.294 67.1057 203.462 67.1057 203.462H68.088H68.078Z" fill="#6D3535"/>
<path d="M89.6883 150.66C89.538 149.287 88.8063 148.104 87.7037 147.142C86.8417 152.234 79.9758 165.554 67.0858 186.483C67.0658 195.905 67.0858 203.462 67.0858 203.462H68.0681C83.0429 173.333 90.2095 155.361 89.6783 150.66H89.6883Z" fill="#512525"/>
<path d="M64.7204 203.462C39.8426 184.759 24.2764 172.07 24.096 166.426C23.9156 160.854 27.4137 152.494 34.6405 153.396C43.0601 154.439 66.1236 203.473 66.1236 203.473H64.7103L64.7204 203.462Z" fill="#6D3535"/>
<path d="M57.6739 186.513C42.5588 175.077 31.2926 166.066 25.4089 159.741C24.4768 161.946 24.0458 164.372 24.1059 166.416C24.2863 172.06 39.8525 184.749 64.7303 203.452H66.1435C66.1435 203.452 62.5452 195.815 57.6839 186.503L57.6739 186.513Z" fill="#512525"/>
<path d="M153.998 0H120.169C110.557 0 102.658 7.5666 102.298 17.1396L102.167 20.5935C101.776 30.6956 109.895 39.0908 120.039 39.0908H154.128C164.271 39.0908 172.39 30.6956 172.009 20.5935L171.879 17.1396C171.508 7.5666 163.62 0 154.008 0H153.998Z" fill="url(#paint2_linear_1_61298)"/>
<path d="M145.338 57.1327V39.0907L133.31 39.0908L145.338 57.1327Z" fill="url(#paint3_linear_1_61298)"/>
<path d="M182.724 155.18H157.957V157.516H182.724V155.18Z" fill="#7C7C7C"/>
<path d="M212.904 70.2431H127.787C123.901 70.2431 120.75 73.3934 120.75 77.2795V136.106C120.75 139.992 123.901 143.142 127.787 143.142H212.904C216.79 143.142 219.941 139.992 219.941 136.106V77.2795C219.941 73.3934 216.79 70.2431 212.904 70.2431Z" fill="url(#paint4_linear_1_61298)"/>
<path d="M135.595 143.142H178.404L201.939 70.2431H170.065L135.595 143.142Z" fill="#F4E8D0"/>
<path d="M219.289 72.4483C219.409 72.8692 219.48 73.3203 219.48 73.7814V137.048C219.48 139.714 217.325 141.869 214.658 141.869H126.283C123.617 141.869 121.462 139.714 121.462 137.048V73.7814C121.462 73.3203 121.532 72.8793 121.652 72.4483C121.161 73.2 120.881 74.1021 120.881 75.0643V138.331C120.881 140.997 123.036 143.152 125.702 143.152H215.25C217.916 143.152 220.071 140.997 220.071 138.331V75.0643C220.071 74.1021 219.78 73.2 219.299 72.4483H219.289Z" fill="url(#paint5_linear_1_61298)"/>
<path d="M215.12 70.2431H125.562C122.895 70.2431 120.74 72.3981 120.74 75.0643V131.235H219.931V75.0643C219.931 72.3981 217.776 70.2431 215.109 70.2431H215.12Z" fill="#3F3131"/>
<path d="M182.253 131.225L201.939 70.2431H170.065L141.228 131.225H182.253Z" fill="#493A3A"/>
<path d="M125.141 72.1075H215.53C217.465 72.1075 219.139 73.2301 219.921 74.8538C219.81 72.2879 217.706 70.2331 215.11 70.2331H125.562C122.966 70.2331 120.861 72.2879 120.75 74.8538C121.532 73.2301 123.196 72.1075 125.141 72.1075Z" fill="#5B4A4A"/>
<path d="M212.122 70.2431H133.971C130.085 70.2431 126.935 73.3934 126.935 77.2795V136.106C126.935 139.992 130.085 143.142 133.971 143.142H212.122C216.009 143.142 219.159 139.992 219.159 136.106V77.2795C219.159 73.3934 216.009 70.2431 212.122 70.2431Z" fill="url(#paint6_linear_1_61298)"/>
<path d="M214.939 70.2431H132.698C129.941 70.2431 127.706 72.4779 127.706 75.2347V138.151C127.706 140.908 129.941 143.142 132.698 143.142H214.939C217.696 143.142 219.931 140.908 219.931 138.151V75.2347C219.931 72.4779 217.696 70.2431 214.939 70.2431Z" fill="url(#paint7_linear_1_61298)"/>
<path d="M173.653 79.0937C148.184 90.5503 131.024 111.619 127.706 132.448V138.852C127.706 141.218 129.631 143.142 131.996 143.142H215.641C218.006 143.142 219.931 141.218 219.931 138.852V76.668C219.931 74.5932 218.948 72.759 217.425 71.5862C203.813 70.0828 188.498 72.4182 173.653 79.0937Z" fill="url(#paint8_linear_1_61298)"/>
<path d="M162.948 129.411L162.698 143.142H172.641L162.948 129.411Z" fill="#353333"/>
<path d="M163.329 128.829L162.918 129.36L167.148 157.516H189.58L163.329 128.829Z" fill="#7C7C7C"/>
<path d="M181.521 128.889H163.299L169.644 157.516H192.076L181.521 128.889Z" fill="#E4E4E4"/>
<path opacity="0.25" d="M169.644 157.516H192.076L187.205 144.315L164.502 134.322L169.644 157.516Z" fill="#7C7C7C"/>
<path d="M179.797 159.771H185.581L190.773 209.326H189.57L179.797 159.771Z" fill="#BA7158"/>
<path d="M182.674 159.771H188.468L191.334 209.326H190.132L182.674 159.771Z" fill="#A55944"/>
<path d="M196.757 159.771H202.54L207.722 209.326H206.53L196.757 159.771Z" fill="#A55944"/>
<path d="M200.445 159.771H206.229L208.474 209.326H207.281L200.445 159.771Z" fill="#A55944"/>
<path d="M154.459 159.771H148.675L143.493 209.326H144.686L154.459 159.771Z" fill="#A55944"/>
<path d="M157.375 159.771H151.592L144.315 209.326H145.508L157.375 159.771Z" fill="#A55944"/>
<path d="M137.509 159.771H131.716L126.534 209.326H127.727L137.509 159.771Z" fill="#BA7158"/>
<path d="M140.115 159.771H134.322L127.205 209.326H128.408L140.115 159.771Z" fill="#A55944"/>
<path d="M212.914 157.426H119.748V160.703H212.914V157.426Z" fill="#BA7158"/>
<path d="M213.897 157.426H143.924V160.703H213.897V157.426Z" fill="#A55944"/>
<path d="M66.5747 208.093H53.9453C53.9453 208.093 61.2022 205.537 64.6101 203.432C67.0658 201.919 66.5747 208.093 66.5747 208.093Z" fill="#FCDFBE"/>
<path d="M65.2915 206.54L78.8731 208.083C78.8731 208.083 71.115 203.924 68.3185 201.438C66.3039 199.654 65.2915 206.53 65.2915 206.53V206.54Z" fill="#FCDFBE"/>
<path d="M223.92 207.542H0V211H223.92V207.542Z" fill="#0F192B"/>
<path d="M64.4396 98.0477C58.3956 95.4116 49.6653 94.5797 41.9574 95.141C41.5765 95.171 41.1956 95.2512 40.8248 95.3515C50.8982 105.214 52.552 105.114 55.2483 104.994C57.4334 104.904 61.8837 100.664 64.4296 98.0477H64.4396Z" fill="#FFF297"/>
<path d="M46.6783 87.3929C40.3135 76.4876 43.3506 68.1583 43.3506 68.1583C43.3506 68.1583 38.3489 64.6 41.9072 58.5459C45.4655 52.4919 53.1132 50.7478 56.5211 52.4117C56.5211 52.4117 64.1689 46.4278 68.7896 49.2343C73.4104 52.0308 70.1528 56.5814 70.1528 56.5814C70.1528 56.5814 73.8614 59.1574 73.1798 63.317C72.4982 67.4767 65.8328 67.7072 65.8328 67.7072L46.6783 87.3929Z" fill="#93402C"/>
<path d="M65.5521 66.0735C54.8372 66.0735 46.1571 61.9639 46.1571 56.9022C46.1571 55.5891 46.7484 54.3362 47.8109 53.2136C45.5356 54.3061 43.3806 56.0602 41.9072 58.556C38.3489 64.6101 43.3506 68.1683 43.3506 68.1683C43.3506 68.1683 40.3235 76.4977 46.6783 87.403L65.8328 67.7173C65.8328 67.7173 69.8521 67.5669 71.967 65.5523C69.9624 65.883 67.8074 66.0735 65.5621 66.0735H65.5521Z" fill="#723125"/>
<path d="M43.9622 95.7524L47.8212 78.7128L60.7712 80.3767L61.4227 97.6067C61.4227 97.6067 58.7265 101.125 55.0981 101.576C51.4596 102.027 43.9722 95.7424 43.9722 95.7424L43.9622 95.7524Z" fill="#FFB882"/>
<g style="mix-blend-mode:multiply" opacity="0.6">
<path d="M69.7721 101.385C69.4112 101.135 69.0704 100.864 68.6996 100.634C67.5269 99.6313 66.0935 98.7693 64.4397 98.0477C64.0087 97.8572 63.5476 97.6768 63.0865 97.5064C62.9161 97.4463 62.7457 97.3861 62.5653 97.326C62.2346 97.2157 61.9038 97.1055 61.573 96.9952C61.5129 96.9752 61.4527 96.9551 61.3926 96.9351L60.7712 80.3867L47.8211 78.7228L44.1225 95.0206C43.9822 95.0206 43.8418 95.0307 43.7015 95.0407C43.1101 95.0708 42.5288 95.1008 41.9474 95.1409C41.6969 95.161 41.4563 95.2011 41.2057 95.2612C41.0454 95.2913 40.885 95.3414 40.7246 95.3815C39.2412 95.5719 37.1864 96.6244 34.871 98.5388C41.0053 109.885 52.4719 115.729 61.3224 111.689C65.4621 109.795 68.3287 106.066 69.752 101.395L69.7721 101.385Z" fill="#8A8686"/>
</g>
<path d="M47.2798 65.7427C45.2752 70.7543 48.2621 89.8988 48.9437 91.5627C49.6253 93.2265 57.273 97.1657 60.2299 96.4039C63.1868 95.6421 67.0457 92.3144 67.6471 90.8009C68.2485 89.2874 67.5669 65.5122 66.9655 64.0788C66.3641 62.6355 60.5306 59.5383 57.5737 59.9192C54.6169 60.3001 47.8812 64.2392 47.2798 65.7527V65.7427Z" fill="#FFB882"/>
<path d="M47.2897 60.8914C52.8326 61.2923 51.0284 82.0405 51.0284 82.0405L47.3198 81.379C47.3198 81.379 41.7569 60.4905 47.2997 60.8914H47.2897Z" fill="#723125"/>
<path d="M49.2143 76.4275C48.2821 73.7513 44.5434 75.3951 45.3653 78.0212C46.1872 80.6473 47.6907 85.7993 48.9436 84.6466C50.1965 83.4939 49.8056 78.0914 49.2243 76.4275H49.2143Z" fill="#FFB882"/>
<path d="M48.5228 78.0112C48.0116 76.5277 45.9368 77.4398 46.3878 78.8932C46.8389 80.3466 47.6708 83.1932 48.3624 82.5617C49.054 81.9303 48.8335 78.9333 48.5228 78.0112Z" fill="#DB5B3E"/>
<path d="M48.8133 80.2764C48.4424 79.204 46.9489 79.8655 47.2797 80.9079C47.6105 81.9604 48.2018 84.0051 48.703 83.544C49.2042 83.083 49.0438 80.928 48.8133 80.2664V80.2764Z" fill="#FFB882"/>
<path d="M65.3418 74.9841C65.3017 73.7112 64.7003 72.7189 63.9987 72.769C63.297 72.8191 62.7558 73.8916 62.7959 75.1546C62.836 76.4275 63.4374 77.4198 64.139 77.3697C64.8506 77.3196 65.3819 76.2571 65.3418 74.9841Z" fill="#4F3131"/>
<path d="M60.7512 73.3203C61.6032 72.7189 65.1213 82.4916 64.8707 83.7846C64.7505 84.4261 60.24 83.955 60.24 83.955C60.24 83.955 60.5908 73.4306 60.7412 73.3203H60.7512Z" fill="#FFB882"/>
<path d="M61.1319 73.5909C62.2244 75.5555 64.8706 82.5417 64.6501 83.6242C64.5498 84.1154 61.7433 83.935 60.5906 83.8147C60.5906 84.0352 60.5806 84.1655 60.5806 84.1655C60.5806 84.1655 65.3718 84.8671 65.482 84.2357C65.6825 83.0028 62.0641 73.8616 61.1419 73.5909H61.1319Z" fill="#EA7B59"/>
<path d="M57.4734 74.1823C57.4333 72.9093 56.832 71.917 56.1303 71.9672C55.4187 72.0072 54.8874 73.0797 54.9275 74.3527C54.9676 75.6256 55.569 76.618 56.2706 76.5779C56.9723 76.5277 57.5135 75.4552 57.4734 74.1923V74.1823Z" fill="#4F3131"/>
<path d="M58.4557 70.9447C57.1226 72.5084 52.0308 71.7366 51.69 70.7844C51.3492 69.8322 51.2289 68.8599 52.3616 68.4089C53.4942 67.9578 58.4357 66.9354 59.0571 67.7072C59.6886 68.479 59.0571 70.2231 58.4457 70.9447H58.4557Z" fill="#93402C"/>
<path d="M61.8536 70.8145C62.6354 72.4483 66.4843 71.7667 66.8552 70.8044C67.226 69.8322 67.4466 68.8399 66.6647 68.3588C65.8829 67.8676 62.3748 66.7149 61.8135 67.4968C61.2522 68.2686 61.4827 70.0627 61.8435 70.8145H61.8536Z" fill="#93402C"/>
<path d="M58.2753 86.4808C57.1426 85.9696 56.9021 83.0529 56.8419 81.83L56.3007 81.6797C56.3007 81.6797 56.3307 86.1501 57.7039 86.8016C59.2074 87.5032 63.3971 88.295 64.4596 87.6535C64.5298 87.6034 64.61 87.5433 64.6801 87.4831C63.0163 87.7538 59.6184 87.1023 58.2652 86.4908L58.2753 86.4808Z" fill="#EA7B59"/>
<path d="M61.8135 89.0468C61.8336 88.8062 61.3425 88.5657 60.711 88.5156C60.0795 88.4654 59.5583 88.6258 59.5383 88.8664C59.5182 89.1069 60.0094 89.3475 60.6408 89.3976C61.2723 89.4477 61.7935 89.2873 61.8135 89.0468Z" fill="#EA7B59"/>
<path d="M97.0154 136.798C95.8126 135.805 91.2821 138.642 93.818 139.965C96.6145 141.418 98.2182 137.79 97.0154 136.798Z" fill="#FFB882"/>

</svg>
