<svg width="21" height="21" viewBox="0 0 21 21" fill="none" xmlns="http://www.w3.org/2000/svg">
<g id="Group 2624">
<g id="Vector">
<path d="M8.29852 13.3504V17.1504C8.29852 17.9062 8.59879 18.6311 9.13327 19.1656C9.66775 19.7001 10.3927 20.0004 11.1485 20.0004L14.9485 11.4504V1.00034H4.23252C3.77431 0.995163 3.32966 1.15576 2.98051 1.45254C2.63135 1.74932 2.40122 2.16228 2.33252 2.61534L1.02152 11.1654C0.980183 11.4377 0.99855 11.7157 1.07534 11.9802C1.15214 12.2447 1.28552 12.4894 1.46625 12.6972C1.64698 12.9051 1.87074 13.0711 2.12202 13.1839C2.37331 13.2967 2.6461 13.3535 2.92152 13.3504H8.29852ZM14.9485 1.00034H17.485C18.0227 0.990835 18.5451 1.17907 18.9532 1.52932C19.3612 1.87957 19.6265 2.36745 19.6985 2.90035V9.55035C19.6265 10.0832 19.3612 10.5711 18.9532 10.9214C18.5451 11.2716 18.0227 11.4599 17.485 11.4504H14.9485" fill="#2E2E2E"/>
<path d="M14.9485 11.4504L11.1485 20.0004C10.3927 20.0004 9.66775 19.7001 9.13327 19.1656C8.59879 18.6311 8.29852 17.9062 8.29852 17.1504V13.3504H2.92152C2.6461 13.3535 2.37331 13.2967 2.12202 13.1839C1.87074 13.0711 1.64698 12.9051 1.46625 12.6972C1.28552 12.4894 1.15214 12.2447 1.07534 11.9802C0.99855 11.7157 0.980183 11.4377 1.02152 11.1654L2.33252 2.61534C2.40122 2.16228 2.63135 1.74932 2.98051 1.45254C3.32966 1.15576 3.77431 0.995163 4.23252 1.00034H14.9485M14.9485 11.4504V1.00034M14.9485 11.4504H17.485C18.0227 11.4599 18.5451 11.2716 18.9532 10.9214C19.3612 10.5711 19.6265 10.0832 19.6985 9.55035V2.90035C19.6265 2.36745 19.3612 1.87957 18.9532 1.52932C18.5451 1.17907 18.0227 0.990835 17.485 1.00034H14.9485" stroke="white" stroke-linecap="round" stroke-linejoin="round"/>
</g>
</g>
</svg>
