<svg width="16" height="16" viewBox="0 0 16 16" fill="none" xmlns="http://www.w3.org/2000/svg">
<path d="M7.26203 2.47595H2.39156C2.0225 2.47595 1.66855 2.62256 1.40758 2.88353C1.14661 3.1445 1 3.49845 1 3.86751V13.6084C1 13.9775 1.14661 14.3315 1.40758 14.5924C1.66855 14.8534 2.0225 15 2.39156 15H12.1325C12.5016 15 12.8555 14.8534 13.1165 14.5924C13.3774 14.3315 13.5241 13.9775 13.5241 13.6084V8.73798" stroke="#FFEF99" stroke-linecap="round" stroke-linejoin="round"/>
<path d="M12.4793 1.4323C12.7561 1.1555 13.1315 1 13.523 1C13.9144 1 14.2898 1.1555 14.5666 1.4323C14.8434 1.7091 14.9989 2.08452 14.9989 2.47597C14.9989 2.86743 14.8434 3.24285 14.5666 3.51965L7.95671 10.1296L5.17358 10.8253L5.86936 8.04222L12.4793 1.4323Z" stroke="#FFEF99" stroke-linecap="round" stroke-linejoin="round"/>
</svg>
