<svg width="307" height="248" viewBox="0 0 307 248" fill="none" xmlns="http://www.w3.org/2000/svg">
<g clip-path="url(#clip0_4202_2738)">
<path d="M298.6 199.558H26.4434V199.69H298.6V199.558Z" fill="#EBEBEB"/>
<path d="M271.33 208.054H253.303V208.186H271.33V208.054Z" fill="#EBEBEB"/>
<path d="M206.73 209.49H202V209.623H206.73V209.49Z" fill="#EBEBEB"/>
<path d="M252.758 203.154H242.312V203.286H252.758V203.154Z" fill="#EBEBEB"/>
<path d="M78.5069 204.041H54.998V204.173H78.5069V204.041Z" fill="#EBEBEB"/>
<path d="M86.8032 204.041H83.3574V204.173H86.8032V204.041Z" fill="#EBEBEB"/>
<path d="M148.995 206.269H98.0039V206.402H148.995V206.269Z" fill="#EBEBEB"/>
<path d="M155.451 176.008H50.3444C48.6298 176.008 47.2363 174.657 47.2363 172.993V29.6729C47.2363 28.0097 48.6298 26.658 50.3444 26.658H155.451C157.166 26.658 158.559 28.0097 158.559 29.6729V172.993C158.559 174.657 157.166 176.008 155.451 176.008ZM50.3444 26.79C48.706 26.79 47.3724 28.0836 47.3724 29.6729V172.993C47.3724 174.583 48.706 175.876 50.3444 175.876H155.451C157.09 175.876 158.423 174.583 158.423 172.993V29.6729C158.423 28.0836 157.09 26.79 155.451 26.79H50.3444Z" fill="#EBEBEB"/>
<path d="M273.186 176.008H168.079C166.364 176.008 164.971 174.657 164.971 172.993V29.6729C164.971 28.0097 166.364 26.658 168.079 26.658H273.186C274.9 26.658 276.294 28.0097 276.294 29.6729V172.993C276.294 174.657 274.9 176.008 273.186 176.008ZM168.079 26.79C166.44 26.79 165.107 28.0836 165.107 29.6729V172.993C165.107 174.583 166.44 175.876 168.079 175.876H273.186C274.824 175.876 276.158 174.583 276.158 172.993V29.6729C276.158 28.0836 274.824 26.79 273.186 26.79H168.079Z" fill="#EBEBEB"/>
<path d="M240.401 37.8573H81.5762V109.942H240.401V37.8573Z" fill="#E6E6E6"/>
<path d="M242.79 37.8573H82.6914V109.942H242.79V37.8573Z" fill="#F0F0F0"/>
<path d="M240.401 109.943H81.5762V113.618H240.401V109.943Z" fill="#E6E6E6"/>
<path d="M246.775 109.943H86.6758V113.618H246.775V109.943Z" fill="#F0F0F0"/>
<path d="M239.438 106.695V41.1099L86.0392 41.1099V106.695L239.438 106.695Z" fill="#FAFAFA"/>
<path d="M102.5 106.695L111.824 41.1099H126.374L117.05 106.695H102.5Z" fill="white"/>
<path d="M87.5912 103.458C87.4605 103.458 87.3516 103.353 87.3516 103.226V43.222C87.3516 43.0952 87.4605 42.9896 87.5912 42.9896C87.7219 42.9896 87.8309 43.0952 87.8309 43.222V103.226C87.8309 103.353 87.7219 103.458 87.5912 103.458Z" fill="#F0F0F0"/>
<path d="M120.174 106.695L129.498 41.1099H135.17L125.846 106.695H120.174Z" fill="white"/>
<path d="M239.438 106.695V41.1099H239.013V106.695H239.438Z" fill="#E6E6E6"/>
<path opacity="0.6" d="M243.579 46.0046H84.7595L84.4492 42.3718H243.274L243.579 46.0046Z" fill="#EBEBEB"/>
<path opacity="0.6" d="M243.579 51.9713H84.7595L84.4492 48.3333H243.274L243.579 51.9713Z" fill="#EBEBEB"/>
<path opacity="0.6" d="M243.579 57.9326H84.7595L84.4492 54.2998H243.274L243.579 57.9326Z" fill="#EBEBEB"/>
<path opacity="0.6" d="M243.579 63.8992H84.7595L84.4492 60.2611H243.274L243.579 63.8992Z" fill="#EBEBEB"/>
<path opacity="0.6" d="M243.579 69.8606H84.7595L84.4492 66.2278H243.274L243.579 69.8606Z" fill="#EBEBEB"/>
<path opacity="0.6" d="M243.579 75.8271H84.7595L84.4492 72.1891H243.274L243.579 75.8271Z" fill="#EBEBEB"/>
<path d="M265.398 128.064H241.16V199.558H265.398V128.064Z" fill="#E6E6E6"/>
<path d="M258.926 199.558H265.398V189.689H252.139L258.926 199.558Z" fill="#FAFAFA"/>
<path d="M199.312 128.064H175.074V199.558H199.312V128.064Z" fill="#E6E6E6"/>
<path d="M265.397 128.064H193.662V196.163H265.397V128.064Z" fill="#FAFAFA"/>
<path d="M200.134 199.558H193.662V189.689H206.922L200.134 199.558Z" fill="#FAFAFA"/>
<path d="M260.374 153.435H198.682V170.475H260.374V153.435Z" fill="#F0F0F0"/>
<path d="M260.374 174.123H198.682V191.162H260.374V174.123Z" fill="#F0F0F0"/>
<path d="M208.375 151.962H250.679V152.791C250.679 154.154 249.541 155.257 248.137 155.257H210.922C209.518 155.257 208.38 154.154 208.38 152.791V151.962H208.375Z" fill="#FAFAFA"/>
<path d="M260.374 132.753H198.682V149.792H260.374V132.753Z" fill="#F0F0F0"/>
<path d="M208.375 131.28H250.679V132.109C250.679 133.471 249.541 134.575 248.137 134.575H210.922C209.518 134.575 208.38 133.471 208.38 132.109V131.28H208.375Z" fill="#FAFAFA"/>
<path d="M208.375 172.645H250.679V173.474C250.679 174.836 249.541 175.94 248.137 175.94H210.922C209.518 175.94 208.38 174.836 208.38 173.474V172.645H208.375Z" fill="#FAFAFA"/>
<path d="M55.5206 143.303C56.8705 139.543 67.5173 144.654 71.8391 150.89C74.7186 155.041 76.4767 159.471 77.2932 165.421C77.1952 158.631 77.0809 151.334 76.972 144.449C76.0957 142.732 74.1035 138.772 72.6665 135.636C67.8765 125.171 56.4895 121.274 52.5541 114.668C47.3995 106.009 47.4267 93.0247 51.8193 88.3412C55.6349 84.2702 68.2576 111.806 69.6837 114.879C74.577 125.461 75.9977 133.313 76.9176 140.921C76.8142 134.453 76.7107 128.518 76.6291 123.935C76.3624 108.992 76.0249 104.187 75.8725 102.709C75.3445 101.985 74.724 101.146 74.3593 100.692C71.3057 96.874 64.5236 92.333 61.1325 86.7835C56.1847 78.6837 56.9848 68.9893 60.4521 65.3776C64.0827 61.6023 70.4947 70.5258 73.9021 79.3649C77.3095 88.2039 75.8507 96.6628 76.8087 104.008C77.0101 105.449 77.2115 110.914 77.4075 118.502C78.4417 110.338 80.4992 104.873 84.3148 99.7781C89.0068 93.5105 93.0565 85.8806 96.9211 86.8627C100.786 87.8501 98.7064 97.9459 95.6474 105.037C92.9258 111.352 79.4922 117.646 77.5109 122.726C77.7449 133.006 77.9518 146.033 78.0987 158.161C79.1601 151.899 78.4308 151.371 82.7689 141.777C85.349 136.074 95.925 129.041 97.1878 132.959C98.4234 136.803 96.5346 144.28 92.5394 149.47C89.317 153.652 82.1702 153.647 80.5155 156.244C80.129 156.852 78.8553 159.17 78.126 160.506C78.3001 175.311 78.3763 188.385 78.2892 192.842L77.598 192.889C77.6306 191.738 77.549 184.208 77.4129 174.239C75.6765 168.933 63.9956 165.839 60.3868 160.326C56.6093 154.555 53.8931 147.817 55.5152 143.308L55.5206 143.303Z" fill="#E6E6E6"/>
<path d="M66.5052 199.558H88.9309C90.1556 199.558 91.2116 198.718 91.4565 197.557L93.0459 189.943H62.3848L63.9742 197.557C64.2191 198.724 65.2751 199.558 66.4998 199.558H66.5052Z" fill="#F0F0F0"/>
<path d="M61.7471 192.889H93.6874C94.4549 192.889 95.0972 192.329 95.1843 191.595L95.8375 185.967C95.9355 185.101 95.2387 184.346 94.3406 184.346H61.094C60.1958 184.346 59.4991 185.101 59.5971 185.967L60.2503 191.595C60.3374 192.335 60.9797 192.889 61.7471 192.889Z" fill="#F0F0F0"/>
<path d="M123.243 165.353H104.078V199.558H123.243V165.353Z" fill="#E0E0E0"/>
<path d="M172.091 199.558H107.922L101.178 153.145H165.347L172.091 199.558Z" fill="#E6E6E6"/>
<path d="M181.453 199.558H110.469L103.73 153.145H174.709L181.453 199.558Z" fill="#F0F0F0"/>
<path d="M117.421 192.298L111.738 160.4H167.764L173.442 192.298H117.421Z" fill="white"/>
<path d="M141.489 192.298L122.449 160.4H128.42L147.466 192.298H141.489Z" fill="#FAFAFA"/>
<path d="M149.997 192.298L130.951 160.4H141.141L160.181 192.298H149.997Z" fill="#FAFAFA"/>
<path d="M68.5023 114.615C68.3826 114.615 68.2791 114.526 68.2737 114.409L67.0653 100.311C67.0544 100.19 67.147 100.079 67.2776 100.068C67.3974 100.058 67.5171 100.148 67.528 100.274L68.7364 114.372C68.7472 114.494 68.6547 114.605 68.5241 114.615C68.5186 114.615 68.5132 114.615 68.5023 114.615Z" fill="#FFC42B"/>
<path d="M69.2212 122.99C69.1014 122.99 68.998 122.901 68.9925 122.784L68.6278 118.518C68.6169 118.396 68.7095 118.285 68.8401 118.275C68.9599 118.259 69.0796 118.354 69.0905 118.481L69.4552 122.747C69.4661 122.869 69.3736 122.98 69.2429 122.99C69.2375 122.99 69.2321 122.99 69.2212 122.99Z" fill="#FFC42B"/>
<path d="M191.675 163.109H79.2857C76.4171 163.109 73.8752 160.833 73.6357 158.05L67.3053 84.2491C67.0658 81.4664 69.2159 79.1907 72.0844 79.1907H184.469C187.337 79.1907 189.879 81.4664 190.119 84.2491L196.449 158.05C196.689 160.833 194.539 163.109 191.67 163.109H191.675Z" fill="white"/>
<path d="M191.675 163.32H79.2856C76.3027 163.32 73.6683 160.965 73.4233 158.071L67.093 84.2702C66.9732 82.8604 67.4304 81.5351 68.383 80.5318C69.3301 79.5339 70.6473 78.9847 72.0897 78.9847H184.474C187.457 78.9847 190.091 81.3397 190.336 84.2385L196.667 158.04C196.786 159.45 196.329 160.775 195.377 161.778C194.43 162.776 193.112 163.325 191.67 163.325L191.675 163.32ZM72.0897 79.4019C70.7671 79.4019 69.5641 79.9035 68.6987 80.8117C67.8332 81.7252 67.4141 82.9396 67.523 84.228L73.8533 158.029C74.0819 160.712 76.5205 162.892 79.2856 162.892H191.67C192.993 162.892 194.196 162.391 195.061 161.482C195.926 160.569 196.346 159.355 196.237 158.066L189.906 84.2649C189.678 81.5826 187.239 79.4019 184.474 79.4019H72.0897Z" fill="#FFC42B"/>
<path d="M184.475 79.1907H72.0903C69.2217 79.1907 67.0717 81.4664 67.3112 84.2491H190.125C189.885 81.4664 187.343 79.1907 184.475 79.1907Z" fill="#FFC42B"/>
<path d="M74.7193 81.7199C74.7683 82.3219 74.3111 82.813 73.6905 82.813C73.0699 82.813 72.5256 82.3272 72.4711 81.7199C72.4167 81.1126 72.8794 80.6268 73.5 80.6268C74.1206 80.6268 74.6649 81.1126 74.7193 81.7199Z" fill="white"/>
<path d="M79.2916 81.7199C79.3406 82.3219 78.8833 82.813 78.2628 82.813C77.6422 82.813 77.0978 82.3272 77.0434 81.7199C76.989 81.1126 77.4517 80.6268 78.0723 80.6268C78.6928 80.6268 79.2372 81.1126 79.2916 81.7199Z" fill="white"/>
<path d="M83.8639 81.7199C83.9129 82.3219 83.4556 82.813 82.835 82.813C82.2145 82.813 81.6701 82.3272 81.6157 81.7199C81.5612 81.1179 82.0239 80.6268 82.6445 80.6268C83.2651 80.6268 83.8094 81.1126 83.8639 81.7199Z" fill="white"/>
<path d="M181.92 153.435H87.3785C85.0978 153.435 83.0784 151.624 82.8879 149.417L78.4735 97.9406C78.283 95.7282 79.9921 93.9224 82.2728 93.9224H176.809C179.09 93.9224 181.109 95.7335 181.3 97.9406L185.714 149.417C185.905 151.63 184.195 153.435 181.915 153.435H181.92Z" fill="#F0F0F0"/>
<path opacity="0.1" d="M152.681 102.93L123.391 137.136C119.374 141.83 121.916 148.979 128.067 150.273L175.569 160.242C182.128 161.62 187.609 155.326 185.116 149.28L166.904 105.106C164.547 99.3874 156.741 98.1941 152.681 102.93Z" fill="#263238"/>
<path opacity="0.1" d="M87.4927 107.73L77.2923 134.379C75.9315 137.933 78.8763 141.645 82.7681 141.275L112.558 138.44C116.733 138.044 118.796 133.313 116.178 130.129L96.5882 106.315C94.019 103.194 88.9243 103.986 87.4927 107.73Z" fill="#263238"/>
<path d="M162.784 94.3184L135.405 132.885C131.676 138.139 134.98 145.357 141.495 146.202L191.823 152.701C198.806 153.604 204.004 146.576 200.88 140.446L177.932 95.385C174.954 89.5398 166.594 88.9537 162.784 94.3236V94.3184Z" fill="#C2512E"/>
<path d="M142.694 142.743C140.865 142.505 139.27 141.386 138.437 139.749C137.604 138.112 137.697 136.296 138.693 134.891L166.143 96.2298C167.139 94.8253 168.826 94.1336 170.655 94.3659C172.484 94.6035 174.079 95.7229 174.912 97.3598L197.92 142.537C198.753 144.174 198.66 145.99 197.664 147.395C196.668 148.799 194.98 149.491 193.152 149.259L142.694 142.743Z" fill="white"/>
<path d="M168.319 108.036L171.525 108.448C173.588 108.712 175.172 110.534 175.069 112.509L174.856 116.564C174.851 116.712 174.829 116.86 174.802 117.007L172.521 129.231C172.195 130.995 170.535 132.13 168.651 131.887C166.762 131.644 165.244 130.086 165.113 128.259L164.188 115.629C164.177 115.481 164.177 115.339 164.188 115.191L164.406 111.131C164.509 109.15 166.267 107.767 168.33 108.031L168.319 108.036ZM168.063 135.261L168.94 135.372C170.785 135.61 172.2 137.236 172.108 139.005C172.015 140.774 170.442 142.014 168.597 141.777L167.72 141.666C165.875 141.428 164.46 139.802 164.553 138.033C164.645 136.264 166.218 135.023 168.063 135.261Z" fill="#FF8177"/>
<path d="M98.021 100.216L90.5041 127.869C89.508 131.528 92.8011 134.939 96.633 134.216L125.792 128.698C129.891 127.922 131.491 123.064 128.617 120.128L106.975 97.9934C104.123 95.0735 99.077 96.3302 98.0156 100.216H98.021Z" fill="#C2512E" fill-opacity="0.29"/>
<path d="M96.5786 131.977C95.5172 132.177 94.4177 131.818 93.6284 131.011C92.8392 130.208 92.5344 129.125 92.8065 128.117L100.345 100.391C100.617 99.3874 101.418 98.6641 102.474 98.4634C103.535 98.2628 104.634 98.6218 105.424 99.4297L127.12 121.622C127.909 122.425 128.214 123.507 127.942 124.516C127.67 125.519 126.87 126.243 125.814 126.443L96.5786 131.977Z" fill="white"/>
<path d="M103.893 106.906L105.75 106.553C106.942 106.326 108.183 107.096 108.515 108.274L109.2 110.687C109.228 110.777 109.244 110.866 109.26 110.956L110.42 118.539C110.588 119.632 109.892 120.603 108.803 120.814C107.709 121.02 106.561 120.392 106.125 119.346L103.11 112.123C103.077 112.039 103.044 111.954 103.023 111.87L102.337 109.451C102.005 108.274 102.701 107.139 103.893 106.912V106.906ZM109.146 122.895L109.652 122.8C110.719 122.599 111.829 123.285 112.129 124.342C112.428 125.392 111.802 126.411 110.735 126.612L110.229 126.707C109.162 126.908 108.052 126.221 107.753 125.165C107.453 124.114 108.079 123.095 109.146 122.895Z" fill="#FF8177"/>
</g>
<g clip-path="url(#clip1_4202_2738)">
<path d="M234.216 164.395C234.325 160.805 232.997 157.024 230.76 154.357C229.197 152.499 227.102 150.513 227.499 147.99C227.624 147.197 227.995 146.479 228.25 145.724C229.54 141.901 227.946 138.395 226.155 135.064C225.327 133.516 224.114 132.218 223.123 130.75C222.023 129.113 221.022 127.407 219.966 125.744C218.099 122.803 215.987 119.909 213.069 117.982C210.359 116.182 207.071 115.331 203.8 115.231C199.75 115.104 195.673 116.118 192.146 118.093C188.565 120.1 185.81 123.368 183.339 126.562C180.792 129.852 178.783 133.722 178.304 137.878C178.13 139.425 178.168 140.993 178.413 142.53C178.794 144.901 179.676 147.155 180.095 149.521C180.944 154.294 178.446 157.969 176.987 162.315C176.116 164.913 175.773 167.869 177.02 170.309C178.729 173.657 182.789 175.003 186.491 175.79C194.868 177.569 203.495 178.092 212.046 177.543C218.828 177.11 227.45 176.545 232.028 170.779C233.459 168.973 234.14 166.729 234.211 164.4L234.216 164.395Z" fill="#373449"/>
<path d="M238.699 184.93L234.497 174.734C234.432 174.57 234.356 174.406 234.28 174.248C232.962 171.576 230.077 169.971 227.029 169.971L177.9 169.955C174.808 169.955 171.879 171.581 170.546 174.29C170.464 174.454 170.394 174.617 170.323 174.781L165.827 185.69C165.778 185.806 165.805 185.933 165.897 186.023L167.449 187.549L177.589 195.754L177.617 199.434L179.701 221.263L179.767 221.094H225.162L227.002 206.399L227.122 195.749L236.99 187.77L238.395 186.392C238.786 186.007 238.906 185.431 238.699 184.93Z" fill="#B22B5B"/>
<path d="M179.697 221.268L169.42 247.5H179.762H225.484H235.826L225.484 221.099H225.158H179.762L179.697 221.268Z" fill="#343434"/>
<path d="M216.078 178.857L216.095 169.955H188.062V178.857C188.062 183.525 191.198 187.306 195.073 187.306C198.949 187.306 202.084 183.525 202.084 178.857C202.084 183.525 205.219 187.306 209.095 187.306C212.97 187.306 215.833 183.831 216.078 179.433H216.084V179.28C216.089 179.137 216.1 179 216.1 178.857H216.084H216.078Z" fill="white"/>
<path d="M250.559 209.44L238.16 182.554L227.273 195.754L237.784 214.826C239.129 217.825 242.726 219.203 245.818 217.899L247.397 217.234C250.488 215.93 251.909 212.439 250.565 209.44H250.559Z" fill="#F9DCD2"/>
<path opacity="0.1" d="M250.56 209.44L238.161 182.554L224.553 192.058L237.785 214.826C239.129 217.825 242.727 219.203 245.819 217.899L247.398 217.234C250.489 215.93 251.91 212.439 250.565 209.44H250.56Z" fill="#EF929C"/>
<path d="M254.392 171.243C255.856 173.936 259.656 174.369 261.719 172.072L264.184 169.327C264.712 168.809 264.794 168.001 264.38 167.394C263.918 166.708 262.981 166.491 262.247 166.903L258.616 168.931L254.387 171.249L254.392 171.243Z" fill="#F9DCD2"/>
<g opacity="0.21">
<path d="M254.392 171.243C255.856 173.936 259.656 174.369 261.719 172.072L264.184 169.327C264.712 168.809 264.794 168.001 264.38 167.394C263.918 166.708 262.981 166.491 262.247 166.903L258.616 168.931L254.387 171.249L254.392 171.243Z" fill="#EF929C"/>
</g>
<path d="M271.685 167.225C270.656 167.114 269.649 167.584 269.094 168.434C268.027 170.077 266.068 170.969 264.086 170.689C260.859 170.235 256.025 169.892 253.728 171.449L253.75 171.508C253.695 171.544 253.641 171.571 253.587 171.613C252.558 172.368 251.91 174.227 252.03 175.948L251.589 176.925C251.562 176.988 251.524 177.041 251.502 177.105L238.188 211.035C237.061 213.96 238.689 217.202 241.759 218.147C245.71 219.362 249.918 217.165 251.045 213.29L260.913 179.063L267.113 178.118C268.152 178.171 269.143 177.696 269.731 176.862L273.634 171.302C274.777 169.67 273.726 167.442 271.701 167.22L271.685 167.225Z" fill="#F9DCD2"/>
<path d="M233.899 173.313C231.842 168.793 226.339 166.824 221.745 168.957C217.276 171.032 215.371 176.207 217.466 180.563L227.275 195.759L239.538 185.701L233.899 173.319V173.313Z" fill="#B22B5B"/>
<path d="M153.597 209.44L165.996 182.554L176.882 195.754L166.372 214.826C165.027 217.825 161.429 219.203 158.338 217.899L156.759 217.234C153.667 215.93 152.247 212.439 153.591 209.44H153.597Z" fill="#F9DCD2"/>
<path opacity="0.1" d="M153.597 209.44L165.996 182.554L179.604 192.058L166.372 214.826C165.027 217.825 161.429 219.203 158.338 217.899L156.759 217.234C153.667 215.93 152.247 212.439 153.591 209.44H153.597Z" fill="#EF929C"/>
<path d="M149.765 171.243C148.3 173.936 144.501 174.369 142.438 172.072L139.972 169.327C139.444 168.809 139.363 168.001 139.776 167.394C140.239 166.708 141.175 166.491 141.91 166.903L145.541 168.931L149.77 171.249L149.765 171.243Z" fill="#F9DCD2"/>
<g opacity="0.21">
<path d="M149.765 171.243C148.3 173.936 144.501 174.369 142.438 172.072L139.972 169.327C139.444 168.809 139.363 168.001 139.776 167.394C140.239 166.708 141.175 166.491 141.91 166.903L145.541 168.931L149.77 171.249L149.765 171.243Z" fill="#EF929C"/>
</g>
<path d="M165.98 211.035L152.666 177.105C152.638 177.041 152.606 176.988 152.579 176.925L152.138 175.948C152.257 174.227 151.604 172.368 150.581 171.613C150.526 171.571 150.472 171.544 150.418 171.508L150.439 171.449C148.142 169.892 143.309 170.235 140.081 170.689C138.1 170.969 136.14 170.082 135.073 168.434C134.518 167.584 133.511 167.114 132.483 167.225C130.463 167.447 129.407 169.675 130.55 171.307L134.453 176.867C135.041 177.701 136.031 178.176 137.071 178.124L143.271 179.069L153.139 213.295C154.266 217.165 158.468 219.367 162.425 218.153C165.495 217.208 167.123 213.966 165.996 211.04L165.98 211.035Z" fill="#F9DCD2"/>
<path d="M170.258 173.313C172.316 168.793 177.819 166.824 182.413 168.957C186.882 171.032 188.787 176.207 186.691 180.563L176.883 195.759L164.619 185.701L170.258 173.319V173.313Z" fill="#B22B5B"/>
<path d="M177.34 196.06C177.214 195.981 177.171 195.823 177.253 195.696L181.944 188.383C182.026 188.262 182.189 188.219 182.32 188.299C182.451 188.378 182.489 188.536 182.407 188.663L177.715 195.976C177.634 196.097 177.47 196.14 177.34 196.06Z" fill="#373449"/>
<path d="M226.943 196.066C226.812 196.145 226.649 196.103 226.567 195.981L221.897 188.657C221.815 188.531 221.859 188.372 221.984 188.293C222.115 188.214 222.278 188.256 222.36 188.378L227.03 195.701C227.112 195.828 227.068 195.986 226.943 196.066Z" fill="#373449"/>
<path d="M217.784 140.74L216.151 140.719L214.997 145.872C214.997 145.872 210.931 143.918 215.373 137.719L215.623 137.286C206.805 135.935 205.39 130.016 205.178 127.661C205.052 131.721 201.509 134.203 201.52 133.442C201.531 132.629 202.287 126.789 202.287 126.789C201.269 132.877 195.951 137.318 189.763 137.244L188.527 137.228L189.191 138.459C193.475 144.763 189.36 146.617 189.36 146.617L188.336 141.437L186.018 141.41C184.45 142.123 183.372 143.681 183.405 145.471C183.449 147.9 185.512 149.837 188.015 149.801L188.053 151.876C188.146 157.246 191.787 161.739 196.773 163.323L196.964 174.248C197.018 177.316 199.62 179.755 202.783 179.702C205.94 179.649 208.46 177.126 208.405 174.058L208.215 163.138C213.141 161.396 216.624 156.781 216.532 151.411L216.494 149.336H216.516C219.025 149.294 221.023 147.287 220.979 144.858C220.946 142.91 219.613 141.284 217.795 140.729L217.784 140.74Z" fill="#F9DCD2"/>
<g opacity="0.09">
<path d="M217.784 140.74L216.151 140.719L214.997 145.872C215.329 148.074 215.035 150.313 214.159 152.367C213.403 154.125 212.57 156.079 212.091 156.623C206.136 163.387 193.334 163.439 188.043 151.886C188.136 157.256 191.777 161.75 196.763 163.334L196.948 174.095C197.002 177.147 199.621 179.676 202.767 179.713C205.913 179.75 208.449 177.284 208.395 174.227L208.204 163.144C213.13 161.401 216.614 156.786 216.521 151.416L216.483 149.341H216.505C218.443 149.31 220.201 148.111 220.756 146.31C221.545 143.76 220.038 141.421 217.784 140.734V140.74Z" fill="#EF929C"/>
</g>
<path d="M187.162 149.093C187.178 149.98 186.448 150.709 185.534 150.725C184.619 150.741 183.868 150.033 183.852 149.146C183.836 148.259 184.565 147.53 185.479 147.514C186.394 147.498 187.145 148.206 187.162 149.093Z" fill="#EF929C"/>
<path d="M220.685 148.544C220.701 149.431 219.972 150.16 219.057 150.176C218.143 150.192 217.392 149.484 217.375 148.597C217.359 147.71 218.088 146.981 219.003 146.965C219.917 146.949 220.669 147.657 220.685 148.544Z" fill="#EF929C"/>
<path d="M184.707 145.323C184.587 145.323 184.489 145.234 184.489 145.117C184.435 142.134 187.271 142.049 187.303 142.049C187.423 142.049 187.521 142.139 187.521 142.255C187.521 142.371 187.429 142.466 187.309 142.466C187.211 142.466 184.876 142.546 184.919 145.107C184.919 145.223 184.827 145.318 184.707 145.318V145.323Z" fill="#EF929C"/>
<path d="M219.662 144.753C219.543 144.753 219.445 144.663 219.445 144.547C219.401 141.975 217.066 141.981 216.968 141.986C216.848 141.986 216.75 141.896 216.75 141.78C216.75 141.664 216.843 141.569 216.962 141.569C216.99 141.569 219.826 141.558 219.88 144.542C219.88 144.658 219.788 144.753 219.668 144.753H219.662Z" fill="#EF929C"/>
<path opacity="0.37" d="M201.264 164.078C199.806 164.099 198.429 163.793 197.188 163.233L197.242 166.264L205.945 163.297L205.815 163.233C204.672 163.745 203.409 164.041 202.07 164.062L201.259 164.078H201.264Z" fill="#EF929C"/>
<path opacity="0.32" d="M195.309 150.983L192.582 151.062C191.722 151.089 191.003 150.429 190.981 149.594C190.954 148.76 191.634 148.063 192.494 148.042L195.221 147.963C196.081 147.937 196.8 148.597 196.822 149.431C196.849 150.265 196.169 150.962 195.309 150.983Z" fill="#EF929C"/>
<path opacity="0.32" d="M211.66 150.524L208.933 150.603C208.073 150.629 207.355 149.969 207.333 149.135C207.306 148.301 207.986 147.604 208.846 147.583L211.573 147.504C212.433 147.477 213.152 148.137 213.173 148.971C213.2 149.806 212.52 150.503 211.66 150.524Z" fill="#EF929C"/>
<path d="M201.666 158.529C201.623 158.529 201.579 158.518 201.536 158.497C201.405 158.429 201.356 158.265 201.427 158.138C201.835 157.404 202.625 156.934 203.485 156.908C204.361 156.887 205.156 157.309 205.608 158.017C205.689 158.138 205.646 158.302 205.521 158.381C205.39 158.455 205.227 158.418 205.145 158.297C204.797 157.747 204.154 157.415 203.496 157.436C202.831 157.457 202.222 157.821 201.901 158.386C201.852 158.476 201.759 158.524 201.661 158.524L201.666 158.529Z" fill="#EF929C"/>
<path d="M203.81 153.829C203.663 153.829 203.544 153.718 203.538 153.571C203.522 153.053 203.701 152.631 204.077 152.319C205.166 151.406 207.555 151.786 207.659 151.807C207.806 151.833 207.904 151.965 207.882 152.113C207.855 152.256 207.719 152.356 207.566 152.33C207.545 152.33 205.329 151.971 204.436 152.72C204.191 152.926 204.077 153.201 204.088 153.56C204.088 153.708 203.974 153.829 203.821 153.829H203.816H203.81Z" fill="#EF929C"/>
<path d="M195.831 146.342C195.385 146.353 195.009 146.015 194.993 145.577L194.944 143.998C194.933 143.565 195.281 143.2 195.733 143.184C196.179 143.174 196.555 143.512 196.571 143.95L196.62 145.529C196.631 145.962 196.283 146.326 195.831 146.342Z" fill="#33322F"/>
<path d="M192.543 140.275C192.799 140.069 193.185 140.001 193.555 139.911C193.931 139.826 194.307 139.737 194.628 139.647C194.949 139.557 195.319 139.441 195.678 139.314C196.043 139.198 196.408 139.055 196.729 139.098C197.039 139.135 197.252 139.425 197.039 139.921C196.849 140.397 196.168 141.046 195.101 141.347C194.034 141.643 193.114 141.442 192.701 141.136C192.265 140.824 192.292 140.465 192.537 140.27L192.543 140.275Z" fill="#373449"/>
<path d="M195.373 147.06C194.551 147.06 194.007 146.738 193.974 146.717C193.849 146.638 193.806 146.479 193.887 146.353C193.969 146.231 194.132 146.194 194.263 146.268C194.312 146.3 195.352 146.891 196.718 146.184C196.849 146.115 197.017 146.162 197.088 146.289C197.159 146.416 197.11 146.58 196.979 146.648C196.386 146.96 195.836 147.06 195.379 147.06H195.373Z" fill="#EF929C"/>
<path d="M207.887 146.712C207.065 146.712 206.52 146.39 206.488 146.368C206.362 146.289 206.324 146.125 206.401 146.004C206.482 145.883 206.651 145.846 206.776 145.92C206.82 145.946 207.865 146.548 209.231 145.835C209.362 145.766 209.531 145.814 209.601 145.941C209.672 146.067 209.623 146.231 209.492 146.3C208.899 146.611 208.349 146.712 207.892 146.712H207.887Z" fill="#EF929C"/>
<path d="M208.018 145.999C207.572 146.01 207.196 145.672 207.18 145.233L207.131 143.654C207.12 143.221 207.469 142.857 207.92 142.841C208.367 142.831 208.742 143.169 208.759 143.607L208.808 145.186C208.819 145.619 208.47 145.983 208.018 145.999Z" fill="#33322F"/>
<path d="M206.489 137.688C206.816 137.646 207.186 137.778 207.545 137.888C207.91 138.01 208.275 138.121 208.601 138.205C208.928 138.29 209.304 138.38 209.679 138.453C210.049 138.538 210.441 138.601 210.692 138.802C210.937 138.992 210.959 139.346 210.518 139.663C210.098 139.974 209.168 140.18 208.095 139.9C207.023 139.615 206.348 138.976 206.163 138.506C205.961 138.02 206.174 137.725 206.489 137.688Z" fill="#373449"/>
<path d="M201.927 150.339C201.241 150.339 200.593 150.091 200.092 149.631C199.57 149.156 199.27 148.512 199.249 147.815C199.227 147.113 199.798 146.521 200.522 146.5C200.697 146.5 200.86 146.426 200.98 146.3C201.099 146.178 201.165 146.015 201.159 145.846L201.05 142.44C201.05 142.292 201.165 142.171 201.312 142.165C201.453 142.165 201.589 142.276 201.595 142.419L201.703 145.824C201.714 146.136 201.6 146.432 201.377 146.659C201.159 146.886 200.86 147.018 200.539 147.023C200.114 147.034 199.777 147.382 199.793 147.794C199.809 148.348 200.049 148.861 200.462 149.241C200.876 149.621 201.42 149.822 201.992 149.8L204.022 149.742H204.033C204.18 149.742 204.3 149.853 204.305 149.996C204.305 150.144 204.191 150.265 204.044 150.27L202.014 150.328C201.987 150.328 201.959 150.328 201.932 150.328L201.927 150.339Z" fill="#EF929C"/>
</g>
<g clip-path="url(#clip2_4202_2738)">
<g opacity="0.33">
<path d="M302.932 81.2896H251.565C249.85 81.2896 248.457 79.9379 248.457 78.2746V45.7539C248.457 44.0906 249.85 42.7389 251.565 42.7389H302.932C304.646 42.7389 306.034 44.0906 306.034 45.7539V78.2746C306.034 79.9379 304.641 81.2896 302.932 81.2896ZM251.565 43.2722C250.155 43.2722 249.001 44.3863 249.001 45.7592V78.2799C249.001 79.6475 250.15 80.7669 251.565 80.7669H302.932C304.342 80.7669 305.49 79.6527 305.49 78.2799V45.7592C305.49 44.3916 304.342 43.2722 302.932 43.2722H251.565Z" fill="#EF929C"/>
<path d="M306.04 49.2125H248.457V44.7771C248.457 43.6577 249.399 42.7443 250.553 42.7443H303.944C305.098 42.7443 306.04 43.6577 306.04 44.7771V49.2125ZM249.001 48.6845H305.496V44.7771C305.496 43.9481 304.799 43.2723 303.944 43.2723H250.553C249.698 43.2723 249.001 43.9481 249.001 44.7771V48.6845Z" fill="#EF929C"/>
<path d="M293.521 47.0055C292.988 47.0055 292.547 46.583 292.547 46.0602C292.547 45.5374 292.982 45.115 293.521 45.115C294.06 45.115 294.496 45.5374 294.496 46.0602C294.496 46.583 294.06 47.0055 293.521 47.0055ZM293.521 45.6483C293.287 45.6483 293.091 45.8332 293.091 46.0655C293.091 46.2978 293.282 46.4827 293.521 46.4827C293.761 46.4827 293.951 46.2978 293.951 46.0655C293.951 45.8332 293.761 45.6483 293.521 45.6483Z" fill="#EF929C"/>
<path d="M297.369 47.0055C296.83 47.0055 296.395 46.583 296.395 46.0602C296.395 45.5374 296.83 45.115 297.369 45.115C297.908 45.115 298.343 45.5374 298.343 46.0602C298.343 46.583 297.908 47.0055 297.369 47.0055ZM297.369 45.6483C297.135 45.6483 296.939 45.8332 296.939 46.0655C296.939 46.2978 297.129 46.4827 297.369 46.4827C297.608 46.4827 297.799 46.2978 297.799 46.0655C297.799 45.8332 297.608 45.6483 297.369 45.6483Z" fill="#EF929C"/>
<path d="M301.219 47.0055C300.68 47.0055 300.244 46.583 300.244 46.0602C300.244 45.5374 300.68 45.115 301.219 45.115C301.757 45.115 302.193 45.5374 302.193 46.0602C302.193 46.583 301.757 47.0055 301.219 47.0055ZM301.219 45.6483C300.984 45.6483 300.788 45.8332 300.788 46.0655C300.788 46.2978 300.979 46.4827 301.219 46.4827C301.458 46.4827 301.649 46.2978 301.649 46.0655C301.649 45.8332 301.458 45.6483 301.219 45.6483Z" fill="#EF929C"/>
</g>
<g opacity="0.16">
<path d="M263.795 27.9596H238.3C237.374 27.9596 236.623 27.2309 236.623 26.3333V10.1917C236.623 9.2941 237.374 8.56543 238.3 8.56543H263.79C264.715 8.56543 265.466 9.2941 265.466 10.1917V26.328C265.466 27.2256 264.715 27.9543 263.79 27.9543L263.795 27.9596ZM238.3 9.09345C237.674 9.09345 237.167 9.58451 237.167 10.1917V26.328C237.167 26.9352 237.674 27.4263 238.3 27.4263H263.79C264.416 27.4263 264.922 26.9352 264.922 26.328V10.1917C264.922 9.58451 264.416 9.09345 263.79 9.09345H238.3Z" fill="#599AF2"/>
<path d="M265.472 12.0398H236.623V9.70595C236.623 9.07761 237.151 8.56543 237.799 8.56543H264.296C264.944 8.56543 265.472 9.07761 265.472 9.70595V12.0398ZM237.167 11.5118H264.927V9.70595C264.927 9.36802 264.644 9.09345 264.296 9.09345H237.799C237.45 9.09345 237.167 9.36802 237.167 9.70595V11.5118Z" fill="#599AF2"/>
<path d="M259.119 10.9469C258.776 10.9469 258.498 10.6776 258.498 10.3449C258.498 10.0122 258.776 9.74292 259.119 9.74292C259.462 9.74292 259.739 10.0122 259.739 10.3449C259.739 10.6776 259.462 10.9469 259.119 10.9469ZM259.119 10.271C259.075 10.271 259.042 10.3027 259.042 10.3449C259.042 10.4241 259.195 10.4241 259.195 10.3449C259.195 10.3027 259.162 10.271 259.119 10.271Z" fill="#599AF2"/>
<path d="M261.029 10.9469C260.686 10.9469 260.408 10.6776 260.408 10.3449C260.408 10.0122 260.686 9.74292 261.029 9.74292C261.372 9.74292 261.649 10.0122 261.649 10.3449C261.649 10.6776 261.372 10.9469 261.029 10.9469ZM261.029 10.271C260.985 10.271 260.953 10.3027 260.953 10.3449C260.953 10.4241 261.105 10.4241 261.105 10.3449C261.105 10.3027 261.072 10.271 261.029 10.271Z" fill="#599AF2"/>
<path d="M262.939 10.9469C262.596 10.9469 262.318 10.6776 262.318 10.3449C262.318 10.0122 262.596 9.74292 262.939 9.74292C263.282 9.74292 263.559 10.0122 263.559 10.3449C263.559 10.6776 263.282 10.9469 262.939 10.9469ZM262.939 10.271C262.895 10.271 262.863 10.3027 262.863 10.3449C262.863 10.4241 263.015 10.4241 263.015 10.3449C263.015 10.3027 262.982 10.271 262.939 10.271Z" fill="#599AF2"/>
</g>
<g opacity="0.25">
<path d="M292.871 35.3519H273.995C273.195 35.3519 272.547 34.7235 272.547 33.9473V22.0775C272.547 21.3013 273.195 20.673 273.995 20.673H292.871C293.672 20.673 294.319 21.3013 294.319 22.0775V33.9473C294.319 34.7235 293.672 35.3519 292.871 35.3519ZM273.995 21.201C273.494 21.201 273.091 21.5917 273.091 22.0775V33.9473C273.091 34.4331 273.499 34.8238 273.995 34.8238H292.871C293.372 34.8238 293.775 34.4331 293.775 33.9473V22.0775C293.775 21.597 293.367 21.201 292.871 21.201H273.995Z" fill="#EF929C"/>
<path d="M294.319 23.4134H272.547V21.597C272.547 21.0901 272.971 20.673 273.499 20.673H293.372C293.895 20.673 294.325 21.0848 294.325 21.597V23.4134H294.319ZM273.091 22.8854H293.775V21.597C293.775 21.3805 293.595 21.201 293.367 21.201H273.494C273.271 21.201 273.086 21.3752 273.086 21.597V22.8854H273.091Z" fill="#EF929C"/>
<path d="M277.375 22.5898C277.081 22.5898 276.842 22.3575 276.842 22.0723C276.842 21.7872 277.081 21.5548 277.375 21.5548C277.669 21.5548 277.909 21.7872 277.909 22.0723C277.909 22.3575 277.669 22.5898 277.375 22.5898ZM277.375 22.0617L277.386 22.0723C277.386 22.0723 277.386 22.0617 277.375 22.0617Z" fill="#EF929C"/>
<path d="M275.944 22.5898C275.65 22.5898 275.41 22.3575 275.41 22.0723C275.41 21.7872 275.65 21.5548 275.944 21.5548C276.238 21.5548 276.477 21.7872 276.477 22.0723C276.477 22.3575 276.238 22.5898 275.944 22.5898ZM275.944 22.0617L275.955 22.0723C275.955 22.0723 275.955 22.0617 275.944 22.0617Z" fill="#EF929C"/>
<path d="M274.512 22.5898C274.218 22.5898 273.979 22.3575 273.979 22.0723C273.979 21.7872 274.218 21.5548 274.512 21.5548C274.806 21.5548 275.045 21.7872 275.045 22.0723C275.045 22.3575 274.806 22.5898 274.512 22.5898ZM274.512 22.0617L274.523 22.0723C274.523 22.0723 274.523 22.0617 274.512 22.0617Z" fill="#EF929C"/>
</g>
</g>
<g clip-path="url(#clip3_4202_2738)">
<g opacity="0.33">
<path d="M66.3479 73.2242H14.9811C13.2665 73.2242 11.873 71.8724 11.873 70.2092V37.6885C11.873 36.0252 13.2665 34.6735 14.9811 34.6735H66.3479C68.0625 34.6735 69.4505 36.0252 69.4505 37.6885V70.2092C69.4505 71.8724 68.0571 73.2242 66.3479 73.2242ZM14.9811 35.2068C13.5713 35.2068 12.4174 36.3209 12.4174 37.6937V70.2145C12.4174 71.582 13.5659 72.7014 14.9811 72.7014H66.3479C67.7577 72.7014 68.9062 71.5873 68.9062 70.2145V37.6937C68.9062 36.3262 67.7577 35.2068 66.3479 35.2068H14.9811Z" fill="#EF929C"/>
<path d="M69.4559 41.1471H11.873V36.7117C11.873 35.5923 12.8147 34.6788 13.9687 34.6788H67.3603C68.5143 34.6788 69.4559 35.5923 69.4559 36.7117V41.1471ZM12.4174 40.6191H68.9116V36.7117C68.9116 35.8827 68.2149 35.2069 67.3603 35.2069H13.9687C13.1141 35.2069 12.4174 35.8827 12.4174 36.7117V40.6191Z" fill="#EF929C"/>
<path d="M56.9373 38.94C56.4038 38.94 55.9629 38.5176 55.9629 37.9948C55.9629 37.472 56.3984 37.0496 56.9373 37.0496C57.4762 37.0496 57.9117 37.472 57.9117 37.9948C57.9117 38.5176 57.4762 38.94 56.9373 38.94ZM56.9373 37.5829C56.7032 37.5829 56.5072 37.7677 56.5072 38.0001C56.5072 38.2324 56.6978 38.4172 56.9373 38.4172C57.1768 38.4172 57.3673 38.2324 57.3673 38.0001C57.3673 37.7677 57.1768 37.5829 56.9373 37.5829Z" fill="#EF929C"/>
<path d="M60.7849 38.94C60.246 38.94 59.8105 38.5176 59.8105 37.9948C59.8105 37.472 60.246 37.0496 60.7849 37.0496C61.3239 37.0496 61.7593 37.472 61.7593 37.9948C61.7593 38.5176 61.3239 38.94 60.7849 38.94ZM60.7849 37.5829C60.5509 37.5829 60.3549 37.7677 60.3549 38.0001C60.3549 38.2324 60.5454 38.4172 60.7849 38.4172C61.0245 38.4172 61.215 38.2324 61.215 38.0001C61.215 37.7677 61.0245 37.5829 60.7849 37.5829Z" fill="#EF929C"/>
<path d="M64.6346 38.94C64.0956 38.94 63.6602 38.5176 63.6602 37.9948C63.6602 37.472 64.0956 37.0496 64.6346 37.0496C65.1735 37.0496 65.609 37.472 65.609 37.9948C65.609 38.5176 65.1735 38.94 64.6346 38.94ZM64.6346 37.5829C64.4005 37.5829 64.2045 37.7677 64.2045 38.0001C64.2045 38.2324 64.395 38.4172 64.6346 38.4172C64.8741 38.4172 65.0646 38.2324 65.0646 38.0001C65.0646 37.7677 64.8741 37.5829 64.6346 37.5829Z" fill="#EF929C"/>
</g>
<g opacity="0.16">
<path d="M27.2112 19.8941H1.71555C0.790214 19.8941 0.0390625 19.1655 0.0390625 18.2679V2.1263C0.0390625 1.22867 0.790214 0.5 1.71555 0.5H27.2057C28.1311 0.5 28.8822 1.22867 28.8822 2.1263V18.2626C28.8822 19.1602 28.1311 19.8889 27.2057 19.8889L27.2112 19.8941ZM1.71555 1.02802C1.08959 1.02802 0.583376 1.51908 0.583376 2.1263V18.2626C0.583376 18.8698 1.08959 19.3609 1.71555 19.3609H27.2057C27.8317 19.3609 28.3379 18.8698 28.3379 18.2626V2.1263C28.3379 1.51908 27.8317 1.02802 27.2057 1.02802H1.71555Z" fill="#599AF2"/>
<path d="M28.8877 3.97437H0.0390625V1.64052C0.0390625 1.01218 0.567046 0.5 1.21478 0.5H27.7119C28.3597 0.5 28.8877 1.01218 28.8877 1.64052V3.97437ZM0.583376 3.44635H28.3434V1.64052C28.3434 1.30259 28.0603 1.02802 27.7119 1.02802H1.21478C0.866419 1.02802 0.583376 1.30259 0.583376 1.64052V3.44635Z" fill="#599AF2"/>
<path d="M22.5346 2.88147C22.1917 2.88147 21.9141 2.61216 21.9141 2.27948C21.9141 1.9468 22.1917 1.67749 22.5346 1.67749C22.8776 1.67749 23.1552 1.9468 23.1552 2.27948C23.1552 2.61216 22.8776 2.88147 22.5346 2.88147ZM22.5346 2.20555C22.4911 2.20555 22.4584 2.23724 22.4584 2.27948C22.4584 2.35869 22.6108 2.35869 22.6108 2.27948C22.6108 2.23724 22.5782 2.20555 22.5346 2.20555Z" fill="#599AF2"/>
<path d="M24.4448 2.88147C24.1018 2.88147 23.8242 2.61216 23.8242 2.27948C23.8242 1.9468 24.1018 1.67749 24.4448 1.67749C24.7877 1.67749 25.0654 1.9468 25.0654 2.27948C25.0654 2.61216 24.7877 2.88147 24.4448 2.88147ZM24.4448 2.20555C24.4012 2.20555 24.3686 2.23724 24.3686 2.27948C24.3686 2.35869 24.521 2.35869 24.521 2.27948C24.521 2.23724 24.4883 2.20555 24.4448 2.20555Z" fill="#599AF2"/>
<path d="M26.3549 2.88147C26.012 2.88147 25.7344 2.61216 25.7344 2.27948C25.7344 1.9468 26.012 1.67749 26.3549 1.67749C26.6979 1.67749 26.9755 1.9468 26.9755 2.27948C26.9755 2.61216 26.6979 2.88147 26.3549 2.88147ZM26.3549 2.20555C26.3114 2.20555 26.2787 2.23724 26.2787 2.27948C26.2787 2.35869 26.4312 2.35869 26.4312 2.27948C26.4312 2.23724 26.3985 2.20555 26.3549 2.20555Z" fill="#599AF2"/>
</g>
<g opacity="0.25">
<path d="M56.2875 27.2864H37.4108C36.6106 27.2864 35.9629 26.6581 35.9629 25.8819V14.0121C35.9629 13.2359 36.6106 12.6075 37.4108 12.6075H56.2875C57.0876 12.6075 57.7353 13.2359 57.7353 14.0121V25.8819C57.7353 26.6581 57.0876 27.2864 56.2875 27.2864ZM37.4108 13.1356C36.91 13.1356 36.5072 13.5263 36.5072 14.0121V25.8819C36.5072 26.3677 36.9154 26.7584 37.4108 26.7584H56.2875C56.7882 26.7584 57.191 26.3677 57.191 25.8819V14.0121C57.191 13.5316 56.7828 13.1356 56.2875 13.1356H37.4108Z" fill="#EF929C"/>
<path d="M57.7353 15.348H35.9629V13.5316C35.9629 13.0247 36.3875 12.6075 36.9154 12.6075H56.7882C57.3108 12.6075 57.7408 13.0194 57.7408 13.5316V15.348H57.7353ZM36.5072 14.8199H57.191V13.5316C57.191 13.3151 57.0114 13.1356 56.7828 13.1356H36.91C36.6868 13.1356 36.5018 13.3098 36.5018 13.5316V14.8199H36.5072Z" fill="#EF929C"/>
<path d="M40.7913 14.5244C40.4973 14.5244 40.2578 14.292 40.2578 14.0069C40.2578 13.7217 40.4973 13.4894 40.7913 13.4894C41.0852 13.4894 41.3248 13.7217 41.3248 14.0069C41.3248 14.292 41.0852 14.5244 40.7913 14.5244ZM40.7913 13.9963L40.8022 14.0069C40.8022 14.0069 40.8022 13.9963 40.7913 13.9963Z" fill="#EF929C"/>
<path d="M39.3596 14.5244C39.0657 14.5244 38.8262 14.292 38.8262 14.0069C38.8262 13.7217 39.0657 13.4894 39.3596 13.4894C39.6536 13.4894 39.8931 13.7217 39.8931 14.0069C39.8931 14.292 39.6536 14.5244 39.3596 14.5244ZM39.3596 13.9963L39.3705 14.0069C39.3705 14.0069 39.3705 13.9963 39.3596 13.9963Z" fill="#EF929C"/>
<path d="M37.928 14.5244C37.6341 14.5244 37.3945 14.292 37.3945 14.0069C37.3945 13.7217 37.6341 13.4894 37.928 13.4894C38.222 13.4894 38.4615 13.7217 38.4615 14.0069C38.4615 14.292 38.222 14.5244 37.928 14.5244ZM37.928 13.9963L37.9389 14.0069C37.9389 14.0069 37.9389 13.9963 37.928 13.9963Z" fill="#EF929C"/>
</g>
</g>
<defs>
<clipPath id="clip0_4202_2738">
<rect width="272.157" height="196.745" fill="white" transform="translate(26.4434 26.658)"/>
</clipPath>
<clipPath id="clip1_4202_2738">
<rect width="144.014" height="132.279" fill="white" transform="translate(130.072 115.221)"/>
</clipPath>
<clipPath id="clip2_4202_2738">
<rect width="69.4163" height="72.7241" fill="white" transform="translate(236.623 8.56543)"/>
</clipPath>
<clipPath id="clip3_4202_2738">
<rect width="69.4163" height="72.7241" fill="white" transform="translate(0.0390625 0.5)"/>
</clipPath>
</defs>
</svg>
