<svg width="32" height="32" viewBox="0 0 32 32" fill="none" xmlns="http://www.w3.org/2000/svg">
<path d="M16.0349 0C11.8905 0 7.91575 1.64638 4.98517 4.57697C2.05459 7.50755 0.408203 11.4823 0.408203 15.6267C0.408203 19.7712 2.05459 23.7459 4.98517 26.6765C7.91575 29.6071 11.8905 31.2535 16.0349 31.2535C20.1794 31.2535 24.1541 29.6071 27.0847 26.6765C30.0153 23.7459 31.6617 19.7712 31.6617 15.6267C31.6617 11.4823 30.0153 7.50755 27.0847 4.57697C24.1541 1.64638 20.1794 0 16.0349 0Z" fill="#3F51B5"/>
<path d="M19.4747 15.6268H17.2191V23.2169H13.8705V15.6268H11.8613V13.0967H13.8705V11.5724C13.8718 9.35351 14.8476 8.03662 17.6155 8.03662H19.8979V10.5667H18.3663C17.2887 10.5667 17.2191 10.9462 17.2191 11.6565V13.0967H19.8979L19.4747 15.6268Z" fill="white"/>
</svg>
