<svg width="15" height="14" viewBox="0 0 15 14" fill="none" xmlns="http://www.w3.org/2000/svg">
<defs>
<linearGradient id="paint0_linear_2003_130" x1="0" y1="2.67313" x2="14.2545" y2="2.67313" gradientUnits="userSpaceOnUse">
<stop stop-color="#FF8177"/>
<stop offset="1" stop-color="#B22B5B"/>
</linearGradient>
<linearGradient id="paint1_linear_2003_130" x1="0" y1="11.3277" x2="14.2545" y2="11.3277" gradientUnits="userSpaceOnUse">
<stop stop-color="#FF8177"/>
<stop offset="1" stop-color="#B22B5B"/>
</linearGradient>
<linearGradient id="paint2_linear_2003_130" x1="14.2544" y1="7.0004" x2="-0.000151634" y2="7.0004" gradientUnits="userSpaceOnUse">
<stop stop-color="#FF8177"/>
<stop offset="1" stop-color="#B22B5B"/>
</linearGradient>
</defs>
<path fill-rule="evenodd" clip-rule="evenodd" d="M13.3636 1.78182H12.3203C11.9534 0.74374 10.9634 0 9.79963 0C8.6359 0 7.64589 0.74374 7.27898 1.78182H0.890909C0.398874 1.78182 0 2.1807 0 2.67273C0 3.16477 0.398874 3.56364 0.890909 3.56364H7.27899C7.6459 4.60172 8.63591 5.34545 9.79963 5.34545C10.9633 5.34545 11.9534 4.60172 12.3203 3.56364H13.3636C13.8557 3.56364 14.2545 3.16477 14.2545 2.67273C14.2545 2.1807 13.8557 1.78182 13.3636 1.78182ZM9.80006 3.56364C10.2921 3.56364 10.691 3.16477 10.691 2.67273C10.691 2.1807 10.2921 1.78182 9.80006 1.78182C9.30803 1.78182 8.90915 2.1807 8.90915 2.67273C8.90915 3.16477 9.30803 3.56364 9.80006 3.56364Z" fill="url(#paint0_linear_2003_130)"/>
<path fill-rule="evenodd" clip-rule="evenodd" d="M13.3636 10.4363H12.3203C11.9533 9.39827 10.9633 8.65454 9.79963 8.65454C8.63591 8.65454 7.64591 9.39827 7.27899 10.4363H0.890909C0.398874 10.4363 0 10.8352 0 11.3272C0 11.8193 0.398874 12.2182 0.890909 12.2182H7.27897C7.64587 13.2562 8.63589 14 9.79963 14C10.9634 14 11.9534 13.2562 12.3203 12.2182H13.3636C13.8557 12.2182 14.2545 11.8193 14.2545 11.3272C14.2545 10.8352 13.8557 10.4363 13.3636 10.4363ZM9.80006 12.2182C10.2921 12.2182 10.691 11.8193 10.691 11.3273C10.691 10.8352 10.2921 10.4364 9.80006 10.4364C9.30803 10.4364 8.90915 10.8352 8.90915 11.3273C8.90915 11.8193 9.30803 12.2182 9.80006 12.2182Z" fill="url(#paint1_linear_2003_130)"/>
<path fill-rule="evenodd" clip-rule="evenodd" d="M0.890757 6.10909H1.93359C2.3005 5.07101 3.29051 4.32727 4.45424 4.32727C5.61796 4.32727 6.60798 5.07101 6.97489 6.10909H13.3635C13.8555 6.10909 14.2544 6.50797 14.2544 7C14.2544 7.49204 13.8555 7.89091 13.3635 7.89091H6.97488C6.60797 8.92899 5.61796 9.67273 4.45424 9.67273C3.29052 9.67273 2.30051 8.92899 1.9336 7.89091H0.890757C0.398722 7.89091 -0.000152588 7.49204 -0.000152588 7C-0.000152588 6.50797 0.398722 6.10909 0.890757 6.10909ZM4.45427 7.89091C3.96223 7.89091 3.56336 7.49204 3.56336 7.00001C3.56336 6.50797 3.96223 6.1091 4.45427 6.1091C4.9463 6.1091 5.34517 6.50797 5.34517 7.00001C5.34517 7.49204 4.9463 7.89091 4.45427 7.89091Z" fill="url(#paint2_linear_2003_130)"/>
</svg>
