<svg width="32" height="32" viewBox="0 0 32 32" fill="none" xmlns="http://www.w3.org/2000/svg">
<path d="M16.2893 8.28662C18.129 8.28662 19.806 8.96875 21.0944 10.0886L19.2965 11.8865C18.4739 11.2232 17.4295 10.8227 16.2893 10.8227C13.6363 10.8227 11.4853 12.9737 11.4853 15.6268C11.4853 18.2798 13.6363 20.4308 16.2893 20.4308C18.3812 20.4308 20.1547 19.0918 20.8146 17.2282L20.9326 16.8948H20.5789H16.5393V14.3587H22.8705V14.3902H23.1205H23.5237C23.5924 14.7927 23.6295 15.2056 23.6295 15.6268C23.6295 19.6803 20.3429 22.9669 16.2893 22.9669C12.2358 22.9669 8.94922 19.6803 8.94922 15.6268C8.94922 11.5732 12.2358 8.28662 16.2893 8.28662Z" fill="#FFC107" stroke="#E4E4E4" stroke-width="0.5"/>
<path d="M21.0943 10.0886L19.2964 11.8865C18.4738 11.2232 17.4294 10.8227 16.2892 10.8227C14.3845 10.8227 12.7421 11.9317 11.9654 13.5375L9.89848 12.0217C11.1587 9.79227 13.5472 8.28662 16.2892 8.28662C18.1289 8.28662 19.8058 8.96875 21.0943 10.0886Z" fill="#FF3D00" stroke="#E4E4E4" stroke-width="0.5"/>
<path d="M19.0181 19.5758L20.9955 21.2491C19.7205 22.3182 18.0828 22.9666 16.2903 22.9666C13.5122 22.9666 11.0991 21.4197 9.85271 19.1415L11.8992 17.5648C12.6439 19.2508 14.327 20.4306 16.2903 20.4306C17.3053 20.4306 18.244 20.1132 19.0181 19.5758Z" fill="#4CAF50" stroke="#E4E4E4" stroke-width="0.5"/>
<path d="M19.0337 18.9349L19.0146 18.9187L18.8592 19.0741C18.8564 19.0767 18.8536 19.0794 18.8508 19.0821L19.0166 19.2725L18.8672 19.449L19.0337 18.9349ZM19.0337 18.9349C19.5334 18.5192 19.9379 17.9935 20.2088 17.3947H16.2891H16.0391V17.1447V14.1086V13.8586H16.2891H23.1202H23.3702L19.0337 18.9349ZM21.5232 20.7873C21.4698 20.8398 21.4221 20.8846 21.3813 20.9215L19.4207 19.2624C20.0462 18.7224 20.5324 18.0243 20.8143 17.2281L20.9323 16.8947H20.5786H16.5391V14.3586H22.8702V14.3901H23.1202H23.5235C23.5921 14.7926 23.6292 15.2055 23.6292 15.6267C23.6292 17.4629 22.9844 18.8573 22.3595 19.7755C22.0469 20.2348 21.74 20.5737 21.5232 20.7873Z" fill="#1976D2" stroke="#E4E4E4" stroke-width="0.5"/>
<path d="M5.41585 4.75374C8.29955 1.87004 12.2107 0.25 16.2888 0.25C20.367 0.25 24.2781 1.87004 27.1618 4.75374C30.0455 7.63744 31.6656 11.5486 31.6656 15.6267C31.6656 19.7049 30.0455 23.616 27.1618 26.4997C24.2781 29.3834 20.367 31.0035 16.2888 31.0035C12.2107 31.0035 8.29955 29.3834 5.41585 26.4997C2.53215 23.616 0.912109 19.7049 0.912109 15.6267C0.912109 11.5486 2.53215 7.63744 5.41585 4.75374Z" fill="white" stroke="#E4E4E4" stroke-width="0.5"/>
<path d="M23.7299 14.1402H23.1185V14.1087H16.2874V17.1448H20.577C19.9512 18.9121 18.2696 20.1808 16.2874 20.1808C13.7724 20.1808 11.7333 18.1417 11.7333 15.6268C11.7333 13.1118 13.7724 11.0727 16.2874 11.0727C17.4483 11.0727 18.5045 11.5106 19.3086 12.226L21.4555 10.0791C20.0999 8.81575 18.2866 8.03662 16.2874 8.03662C12.0957 8.03662 8.69727 11.4351 8.69727 15.6268C8.69727 19.8184 12.0957 23.2169 16.2874 23.2169C20.479 23.2169 23.8775 19.8184 23.8775 15.6268C23.8775 15.1178 23.8252 14.6211 23.7299 14.1402Z" fill="#FFC107"/>
<path d="M9.57227 12.0939L12.066 13.9228C12.7408 12.2522 14.3749 11.0727 16.2873 11.0727C17.4482 11.0727 18.5043 11.5106 19.3085 12.226L21.4554 10.0791C20.0998 8.81575 18.2865 8.03662 16.2873 8.03662C13.3719 8.03662 10.8436 9.68254 9.57227 12.0939Z" fill="#FF3D00"/>
<path d="M16.2884 23.2169C18.2489 23.2169 20.0303 22.4666 21.3772 21.2465L19.028 19.2586C18.266 19.8359 17.3187 20.1808 16.2884 20.1808C14.3142 20.1808 12.6379 18.922 12.0064 17.1653L9.53125 19.0723C10.7874 21.5304 13.3385 23.2169 16.2884 23.2169Z" fill="#4CAF50"/>
<path d="M23.7296 14.1404H23.1182V14.1089H16.2871V17.1449H20.5767C20.2761 17.9939 19.73 18.726 19.0256 19.2592C19.026 19.2588 19.0264 19.2588 19.0268 19.2584L21.3759 21.2463C21.2097 21.3973 23.8772 19.422 23.8772 15.6269C23.8772 15.118 23.8249 14.6212 23.7296 14.1404Z" fill="#1976D2"/>
</svg>
