<svg width="373" height="199" viewBox="0 0 373 199" fill="none" xmlns="http://www.w3.org/2000/svg">
<defs>
<linearGradient id="paint0_linear_485_2195" x1="47.1826" y1="-13.1465" x2="343.504" y2="224.026" gradientUnits="userSpaceOnUse">
<stop stop-color="#FF8177"/>
<stop offset="1" stop-color="#B22B5B"/>
</linearGradient>
<linearGradient id="paint1_linear_485_2195" x1="445.288" y1="61.6077" x2="136.813" y2="167.599" gradientUnits="userSpaceOnUse">
<stop stop-color="#FF8177"/>
<stop offset="1" stop-color="#B22B5B"/>
</linearGradient>
<linearGradient id="paint2_linear_485_2195" x1="377.663" y1="99.6515" x2="18.278" y2="200.262" gradientUnits="userSpaceOnUse">
<stop stop-color="#FF8177"/>
<stop offset="1" stop-color="#B22B5B"/>
</linearGradient>
</defs>
<path d="M373.151 67.3782C373.151 67.3782 358.228 44.8916 295.348 44.1653C232.469 43.439 214.998 51.4201 174.573 30.3821C134.148 9.34803 88.7902 -15.3173 0 12.2492C0 13.3207 0 130.488 0 130.488H373.151V67.3782Z" fill="url(#paint0_linear_485_2195)"/>
<path d="M0.0078125 119.11C0.0078125 119.11 14.9351 83.6101 77.8386 82.4632C140.742 81.3162 158.217 93.9168 198.658 60.7029C239.099 27.4929 284.472 -11.4438 373.294 32.0728V198.896H0.0078125V119.106V119.11Z" fill="url(#paint1_linear_485_2195)"/>
<path d="M0.0078125 121.475C0.0078125 121.475 14.9351 92.2698 77.8386 91.3292C140.742 90.3886 158.217 116.447 198.658 89.1266C239.099 61.8062 284.472 29.7749 373.294 65.5724V198.9H0.0078125V121.479V121.475Z" fill="url(#paint2_linear_485_2195)"/>
</svg>
