<?xml version="1.0" standalone="no"?>
<!DOCTYPE svg PUBLIC "-//W3C//DTD SVG 20010904//EN"
 "http://www.w3.org/TR/2001/REC-SVG-20010904/DTD/svg10.dtd">
<svg version="1.0" xmlns="http://www.w3.org/2000/svg"
 width="512.000000pt" height="512.000000pt" viewBox="0 0 512.000000 512.000000"
 preserveAspectRatio="xMidYMid meet">

<g transform="translate(0.000000,512.000000) scale(0.100000,-0.100000)"
fill="#000000" stroke="none">
<path d="M1892 3463 c-18 -8 -45 -30 -61 -49 -28 -32 -36 -34 -201 -64 -95
-17 -184 -36 -199 -41 -61 -24 -120 -110 -121 -177 0 -53 219 -1241 235 -1272
22 -43 83 -88 134 -99 40 -8 98 0 428 60 l383 69 209 0 209 0 33 -51 c18 -28
55 -69 83 -91 106 -84 200 -113 343 -106 77 3 100 9 167 41 209 99 318 330
261 552 -22 84 -62 151 -127 218 -64 65 -170 121 -248 132 l-49 7 -3 378 -3
378 -30 44 c-17 23 -49 53 -70 65 l-40 23 -650 0 c-577 0 -654 -2 -683 -17z
m1344 -107 l34 -34 0 -346 c0 -190 -1 -346 -3 -346 -2 0 -52 61 -112 135 -60
75 -120 143 -133 151 -34 22 -106 20 -139 -5 -16 -11 -122 -114 -237 -230
l-209 -209 -81 67 c-96 81 -114 91 -158 91 -45 -1 -59 -10 -197 -127 -66 -57
-122 -103 -125 -103 -12 0 -6 886 5 919 7 18 26 41 43 52 30 18 59 19 654 19
l624 0 34 -34z m-1456 -126 c0 -48 -2 -50 -39 -69 -83 -43 -126 -123 -118
-219 6 -78 39 -132 108 -174 l49 -31 0 -122 0 -122 -101 -124 c-97 -118 -119
-141 -119 -122 0 4 -36 205 -80 447 -74 407 -78 441 -65 472 18 45 53 59 205
88 173 33 160 35 160 -24z m0 -272 l0 -111 -25 23 c-35 33 -49 82 -36 123 10
30 44 77 56 77 3 0 5 -50 5 -112z m1292 -244 c57 -69 104 -129 106 -133 1 -4
-21 -18 -50 -33 -160 -78 -259 -222 -274 -397 -3 -36 -1 -87 4 -113 l9 -48
-456 0 c-344 0 -462 3 -481 13 -43 21 -60 71 -60 172 l0 90 159 135 c87 74
163 136 168 137 5 2 57 -37 117 -87 62 -52 117 -90 130 -90 14 0 96 75 261
240 132 132 245 240 252 240 7 0 59 -57 115 -126z m352 -229 c113 -30 204
-106 254 -213 24 -50 27 -70 27 -157 0 -87 -3 -107 -27 -157 -140 -299 -548
-299 -695 1 -25 50 -28 67 -28 156 0 89 3 106 28 156 38 79 95 140 165 177 99
53 176 63 276 37z m-1614 -497 c30 -44 94 -88 130 -89 22 0 23 -1 5 -8 -11 -5
-68 -17 -126 -27 -163 -27 -187 -11 -215 149 l-17 94 94 114 94 113 5 -154 c5
-144 7 -158 30 -192z"/>
<path d="M2236 3280 c-55 -17 -105 -61 -132 -116 -52 -106 -20 -227 78 -291
33 -23 55 -28 112 -31 64 -3 76 0 123 27 61 36 100 94 109 164 22 160 -135
293 -290 247z m155 -129 c35 -35 39 -44 39 -88 0 -139 -167 -180 -240 -61 -52
85 13 188 119 188 37 0 49 -6 82 -39z"/>
<path d="M3192 2278 c-20 -20 -14 -31 48 -93 33 -33 60 -64 60 -69 0 -6 -28
-38 -61 -72 -42 -43 -60 -67 -56 -78 14 -37 38 -29 101 33 34 33 66 61 71 61
5 0 37 -28 71 -61 63 -62 87 -70 101 -33 4 11 -14 35 -56 78 -33 34 -61 66
-61 71 0 5 28 37 61 71 42 43 60 67 56 78 -14 37 -38 29 -101 -33 -34 -33 -66
-61 -72 -61 -5 0 -36 27 -69 60 -62 62 -73 68 -93 48z"/>
</g>
</svg>
