<svg width="20" height="19" viewBox="0 0 20 19" fill="none" xmlns="http://www.w3.org/2000/svg">
<path d="M15.7143 1.53846C16.1391 1.53846 16.4835 1.19407 16.4835 0.769231C16.4835 0.344396 16.1391 0 15.7143 0V1.53846ZM2.76451 0.769231V0H2.73933L2.7142 0.00164717L2.76451 0.769231ZM0.775355 2.71955L0.00787118 2.66774L0.775355 2.71955ZM19.2308 13.365V14.1343C19.6556 14.1343 20 13.7899 20 13.365H19.2308ZM19.2308 8.89556H20C20 8.47073 19.6556 8.12633 19.2308 8.12633V8.89556ZM15.0431 17.7923L15.0573 17.0232L15.0431 17.7923ZM15.7143 0H2.76451V1.53846H15.7143V0ZM2.7142 0.00164717C2.1532 0.0384194 1.51 0.211055 0.97883 0.64612C0.426908 1.09818 0.0680972 1.77552 0.00787118 2.66774L1.54284 2.77135C1.57719 2.2625 1.76076 1.99432 1.95367 1.83631C2.16733 1.6613 2.47143 1.55932 2.81482 1.53681L2.7142 0.00164717ZM0.00787118 2.66774C-0.0266593 3.1793 0.0526846 3.63569 0.245487 4.02756C0.43894 4.42076 0.725056 4.70504 1.03571 4.90353C1.63264 5.28492 2.32911 5.35784 2.76451 5.35784V3.81938C2.45465 3.81938 2.10243 3.75941 1.86404 3.60709C1.75704 3.53873 1.67884 3.45595 1.62592 3.34839C1.57235 3.2395 1.52326 3.06144 1.54284 2.77135L0.00787118 2.66774ZM2.76451 5.35784H17.0912V3.81938H2.76451V5.35784ZM17.3476 5.61425V8.89556H18.8861V5.61425H17.3476ZM18.1168 8.12633H14.269V9.66479H18.1168V8.12633ZM14.269 8.12633C13.1235 8.12633 11.6698 9.10347 11.6698 11.2302H13.2083C13.2083 9.94389 13.9824 9.66479 14.269 9.66479V8.12633ZM11.6698 11.2302C11.6698 12.8278 12.9452 14.1343 14.4568 14.1343V12.5958C13.8425 12.5958 13.2083 12.0266 13.2083 11.2302H11.6698ZM20 13.365V8.89556H18.4615V13.365H20ZM19.2308 8.12633H18.1168V9.66479H19.2308V8.12633ZM14.4568 14.1343H18.1168V12.5958H14.4568V14.1343ZM18.1168 14.1343H19.2308V12.5958H18.1168V14.1343ZM17.3476 13.365V14.7576H18.8861V13.365H17.3476ZM1.5445 13.4698L1.54459 2.71955L0.00612467 2.71954L0.00604085 13.4698L1.5445 13.4698ZM15.0573 17.0232C12.1096 16.9687 7.88068 16.8723 4.79232 16.7995L4.75609 18.3376C7.84442 18.4103 12.0768 18.5068 15.0289 18.5614L15.0573 17.0232ZM0.00604085 13.4698C0.00602019 16.1129 2.11153 18.2753 4.75609 18.3376L4.79232 16.7995C2.98527 16.757 1.54449 15.2795 1.5445 13.4698L0.00604085 13.4698ZM17.3476 14.7576C17.3476 16.0323 16.3203 17.0465 15.0573 17.0232L15.0289 18.5614C17.164 18.6008 18.8861 16.8816 18.8861 14.7576H17.3476ZM17.0912 5.35784C17.2328 5.35784 17.3476 5.47264 17.3476 5.61425H18.8861C18.8861 4.62297 18.0825 3.81938 17.0912 3.81938V5.35784Z" fill="#9A9A9A"/>
</svg>
