<svg width="27" height="22" viewBox="0 0 27 22" fill="none" xmlns="http://www.w3.org/2000/svg">
<path d="M16.9258 7L16.8857 11.8032" stroke="#9A9A9A" stroke-width="1.5"/>
<path d="M18.9297 18.6141H9.31779" stroke="#9A9A9A" stroke-width="1.5"/>
<path d="M23.5977 18.615C26.6015 18.615 25.9376 15.4105 25.9376 15.4105C26.5384 6.59955 16.2857 5.99608 11.4798 7.99853C10.7411 8.40054 9.89079 9.05389 9.13701 9.76474C8.10407 10.7389 6.91197 11.5704 5.56383 12.0158C3.5514 12.6807 1.50745 13.6376 1.50745 14.8097C1.50745 16.7094 1.49628 18.4999 4.5 18.4999" stroke="#9A9A9A" stroke-width="1.5"/>
<circle cx="2.60322" cy="2.60322" r="1.85322" transform="matrix(-1 0 0 1 23.9355 15.8107)" fill="white" stroke="#9A9A9A" stroke-width="1.5"/>
<circle cx="2.60322" cy="2.60322" r="1.85322" transform="matrix(-1 0 0 1 9.51758 15.8107)" fill="white" stroke="#9A9A9A" stroke-width="1.5"/>
<path d="M25.2969 11.8031L6.47357 11.8031" stroke="#9A9A9A" stroke-width="1.5" stroke-linecap="round" stroke-linejoin="round"/>
<circle cx="20" cy="7" r="6.25" fill="white" stroke="#9A9A9A" stroke-width="1.5"/>
<path d="M17.666 6.11438H18.3383C18.2526 5.98366 18.1768 5.8366 18.1109 5.6732C18.0516 5.5098 18.0219 5.31373 18.0219 5.08497C18.0219 4.81808 18.0747 4.5866 18.1801 4.39052C18.2922 4.189 18.4438 4.02288 18.6349 3.89216C18.8327 3.76144 19.0667 3.6634 19.3369 3.59804C19.6072 3.53268 19.9038 3.5 20.2267 3.5C20.6288 3.5 20.9946 3.53268 21.3242 3.59804C21.6538 3.65795 21.9372 3.7342 22.1745 3.8268L21.7592 4.77451C21.6274 4.7146 21.4461 4.65468 21.2155 4.59477C20.9848 4.52941 20.7079 4.49673 20.3849 4.49673C20.0686 4.49673 19.8214 4.55937 19.6434 4.68464C19.4655 4.80447 19.3765 4.98693 19.3765 5.23203C19.3765 5.41721 19.416 5.57789 19.4951 5.71405C19.5808 5.84477 19.6731 5.97821 19.7719 6.11438H21.166V6.98856H20.1971C20.2169 7.08116 20.2267 7.17375 20.2267 7.26634C20.2267 7.42974 20.1938 7.60131 20.1279 7.78105C20.062 7.96078 19.9598 8.10784 19.8214 8.22222L19.3962 8.47549V8.51634L20.0587 8.39379H22.3327V9.33333H17.666V8.39379H17.6858C17.8901 8.38834 18.0681 8.35839 18.2197 8.30392C18.3779 8.24946 18.5064 8.17865 18.6053 8.0915C18.7107 7.99891 18.7898 7.8927 18.8426 7.77288C18.8953 7.65305 18.9217 7.52778 18.9217 7.39706C18.9217 7.25 18.9019 7.11383 18.8623 6.98856H17.666V6.11438Z" fill="#9A9A9A"/>
</svg>
