<svg width="26" height="15" viewBox="0 0 26 15" fill="none" xmlns="http://www.w3.org/2000/svg">
<path d="M16.1749 0.699716L16.1348 5.50383" stroke="#9A9A9A" stroke-width="1.5"/>
<path d="M18.1772 12.316H8.56354" stroke="#9A9A9A" stroke-width="1.5"/>
<path d="M22.8471 12.3169C25.8514 12.3169 25.1875 9.1118 25.1875 9.1118C25.7884 0.299189 15.5337 -0.304396 10.7269 1.69843C9.98807 2.10052 9.13762 2.75399 8.3837 3.46497C7.35056 4.43927 6.15824 5.27095 4.80985 5.71645C2.79704 6.38146 0.752697 7.3386 0.752697 8.5109C0.752697 10.411 0.552411 12.3164 3.55669 12.3164" stroke="#9A9A9A" stroke-width="1.5"/>
<circle cx="2.60322" cy="2.60322" r="1.85322" transform="matrix(-1.00019 0 0 1.00019 23.185 9.51204)" fill="white" stroke="#9A9A9A" stroke-width="1.5"/>
<circle cx="2.60322" cy="2.60322" r="1.85322" transform="matrix(-1.00019 0 0 1.00019 8.76434 9.51204)" fill="white" stroke="#9A9A9A" stroke-width="1.5"/>
<path d="M24.5466 5.50372L5.71976 5.50372" stroke="#9A9A9A" stroke-width="1.5" stroke-linecap="round" stroke-linejoin="round"/>
</svg>
