<svg width="32" height="32" viewBox="0 0 32 32" fill="none" xmlns="http://www.w3.org/2000/svg">
<defs>
<radialGradient id="paint0_radial_12_1309" cx="0" cy="0" r="1" gradientUnits="userSpaceOnUse" gradientTransform="translate(11.9659 32.1702) scale(41.1848 41.1848)">
<stop stop-color="#FFDD55"/>
<stop offset="0.328" stop-color="#FF543F"/>
<stop offset="0.348" stop-color="#FC5245"/>
<stop offset="0.504" stop-color="#E64771"/>
<stop offset="0.643" stop-color="#D53E91"/>
<stop offset="0.761" stop-color="#CC39A4"/>
<stop offset="0.841" stop-color="#C837AB"/>
</radialGradient>
<radialGradient id="paint1_radial_12_1309" cx="0" cy="0" r="1" gradientUnits="userSpaceOnUse" gradientTransform="translate(5.00013 -1.30556) scale(27.3468 18.2211)">
<stop stop-color="#4168C9"/>
<stop offset="0.999" stop-color="#4168C9" stop-opacity="0"/>
</radialGradient>
</defs>
<path d="M25.3921 32.1289L7.04658 32.1463C3.01056 32.15 -0.294389 28.8515 -0.298975 24.8154L-0.316403 6.46992C-0.320072 2.4339 2.97845 -0.871049 7.01447 -0.875635L25.36 -0.893063C29.396 -0.896732 32.701 2.40179 32.7056 6.43781L32.723 24.7833C32.7276 28.8203 29.4281 32.1252 25.3921 32.1289Z" fill="url(#paint0_radial_12_1309)"/>
<path d="M25.3921 32.1289L7.04658 32.1463C3.01056 32.15 -0.294389 28.8515 -0.298975 24.8154L-0.316403 6.46992C-0.320072 2.4339 2.97845 -0.871049 7.01447 -0.875635L25.36 -0.893063C29.396 -0.896732 32.701 2.40179 32.7056 6.43781L32.723 24.7833C32.7276 28.8203 29.4281 32.1252 25.3921 32.1289Z" fill="url(#paint1_radial_12_1309)"/>
<path d="M16.2027 19.5734C14.0269 19.5734 12.2559 17.803 12.2559 15.6266C12.2559 13.4501 14.0269 11.6797 16.2027 11.6797C18.3786 11.6797 20.1496 13.4501 20.1496 15.6266C20.1496 17.803 18.3786 19.5734 16.2027 19.5734ZM16.2027 12.8074C14.6482 12.8074 13.3835 14.0721 13.3835 15.6266C13.3835 17.1811 14.6482 18.4457 16.2027 18.4457C17.7572 18.4457 19.0219 17.1811 19.0219 15.6266C19.0219 14.0721 17.7572 12.8074 16.2027 12.8074Z" fill="white"/>
<path d="M20.4538 12.287C20.9568 12.287 21.3646 11.8792 21.3646 11.3761C21.3646 10.8731 20.9568 10.4653 20.4538 10.4653C19.9508 10.4653 19.543 10.8731 19.543 11.3761C19.543 11.8792 19.9508 12.287 20.4538 12.287Z" fill="white"/>
<path d="M19.7065 23.2169H12.7003C10.4472 23.2169 8.61328 21.3836 8.61328 19.1299V12.1236C8.61328 9.86993 10.4472 8.03662 12.7003 8.03662H19.7065C21.9596 8.03662 23.7935 9.86993 23.7935 12.1236V19.1299C23.7935 21.3836 21.9596 23.2169 19.7065 23.2169ZM12.7003 9.20433C11.0906 9.20433 9.78099 10.5139 9.78099 12.1236V19.1299C9.78099 20.7396 11.0906 22.0492 12.7003 22.0492H19.7065C21.3162 22.0492 22.6258 20.7396 22.6258 19.1299V12.1236C22.6258 10.5139 21.3162 9.20433 19.7065 9.20433H12.7003Z" fill="white"/>
</svg>
