<svg width="24" height="24" viewBox="0 0 24 24" fill="none" xmlns="http://www.w3.org/2000/svg">
<rect width="24" height="24" rx="12" fill="#353333"/>
<path d="M12 17C14.7614 17 17 14.7614 17 12C17 9.23858 14.7614 7 12 7C9.23858 7 7 9.23858 7 12C7 14.7614 9.23858 17 12 17Z" stroke="white" stroke-linecap="round" stroke-linejoin="round"/>
<path d="M10.5449 10.4998C10.6625 10.1656 10.8945 9.88385 11.1999 9.70436C11.5053 9.52488 11.8644 9.45927 12.2135 9.51915C12.5627 9.57904 12.8793 9.76056 13.1075 10.0316C13.3356 10.3026 13.4604 10.6456 13.4599 10.9998C13.4599 11.9998 11.9599 12.4998 11.9599 12.4998" stroke="white" stroke-linecap="round" stroke-linejoin="round"/>
<path d="M12 14.5H12.005" stroke="white" stroke-linecap="round" stroke-linejoin="round"/>
</svg>
