<svg width="15" height="15" viewBox="0 0 15 15" fill="none" xmlns="http://www.w3.org/2000/svg">
<defs>
<linearGradient id="paint0_linear_1_124" x1="1" y1="7.50099" x2="14.4422" y2="7.50099" gradientUnits="userSpaceOnUse">
<stop stop-color="#FF8177"/>
<stop offset="1" stop-color="#B22B5B"/>
</linearGradient>
</defs>
<path d="M4.41473 6.84996L7.14651 1C7.6899 1 8.21103 1.20544 8.59526 1.57114C8.97949 1.93683 9.19535 2.43282 9.19535 2.94999V5.54997H13.0608C13.2588 5.54784 13.4549 5.5867 13.6356 5.66386C13.8162 5.74103 13.9771 5.85465 14.107 5.99685C14.2369 6.13906 14.3328 6.30645 14.388 6.48743C14.4432 6.66841 14.4564 6.85864 14.4267 7.04496L13.4842 12.8949C13.4349 13.2049 13.2694 13.4875 13.0184 13.6905C12.7674 13.8936 12.4478 14.0035 12.1184 13.9999H4.41473M4.41473 6.84996V13.9999M4.41473 6.84996H2.36589C2.00363 6.84996 1.65621 6.98693 1.40006 7.23072C1.14391 7.47452 1 7.80518 1 8.14995V12.6999C1 13.0447 1.14391 13.3754 1.40006 13.6192C1.65621 13.863 2.00363 13.9999 2.36589 13.9999H4.41473" stroke="url(#paint0_linear_1_124)" stroke-linecap="round" stroke-linejoin="round"/>
</svg>
