<svg width="21" height="21" viewBox="0 0 21 21" fill="none" xmlns="http://www.w3.org/2000/svg">
<g id="Group 2738">
<g id="Vector">
<path d="M12.7015 7.64964L12.7015 3.84964C12.7015 3.09377 12.4012 2.36886 11.8667 1.83438C11.3323 1.29991 10.6073 0.999637 9.85148 0.999637L6.05147 9.54965L6.05147 19.9997L16.7675 19.9997C17.2257 20.0048 17.6703 19.8442 18.0195 19.5475C18.3686 19.2507 18.5988 18.8377 18.6675 18.3847L19.9785 9.83465C20.0198 9.56234 20.0015 9.28429 19.9247 9.01978C19.8479 8.75528 19.7145 8.51063 19.5338 8.30278C19.353 8.09494 19.1293 7.92888 18.878 7.8161C18.6267 7.70332 18.3539 7.64653 18.0785 7.64964L12.7015 7.64964ZM6.05147 19.9997L3.51497 19.9997C2.97731 20.0092 2.45487 19.8209 2.04683 19.4707C1.63878 19.1204 1.37355 18.6325 1.30147 18.0997L1.30147 11.4496C1.37355 10.9168 1.63879 10.4289 2.04683 10.0786C2.45487 9.72837 2.97731 9.54014 3.51497 9.54965L6.05147 9.54965" fill="#2E2E2E"/>
<path d="M6.05147 9.54965L9.85148 0.999637C10.6073 0.999637 11.3323 1.2999 11.8667 1.83438C12.4012 2.36886 12.7015 3.09377 12.7015 3.84964L12.7015 7.64964L18.0785 7.64964C18.3539 7.64653 18.6267 7.70332 18.878 7.8161C19.1293 7.92888 19.353 8.09494 19.5338 8.30278C19.7145 8.51063 19.8479 8.75528 19.9247 9.01979C20.0015 9.28429 20.0198 9.56234 19.9785 9.83465L18.6675 18.3847C18.5988 18.8377 18.3686 19.2507 18.0195 19.5475C17.6703 19.8442 17.2257 20.0048 16.7675 19.9997L6.05147 19.9997M6.05147 9.54965L6.05147 19.9997M6.05147 9.54965L3.51497 9.54965C2.97731 9.54014 2.45487 9.72837 2.04683 10.0786C1.63878 10.4289 1.37355 10.9168 1.30147 11.4496L1.30147 18.0997C1.37355 18.6325 1.63878 19.1204 2.04682 19.4707C2.45487 19.8209 2.97731 20.0092 3.51497 19.9997L6.05147 19.9997" stroke="white" stroke-linecap="round" stroke-linejoin="round"/>
</g>
</g>
</svg>
