<svg width="170" height="99" viewBox="0 0 170 99" fill="none" xmlns="http://www.w3.org/2000/svg">
<defs>
<linearGradient id="paint0_linear_6_827" x1="9.42464" y1="19.1115" x2="58.2109" y2="24.7022" gradientUnits="userSpaceOnUse">
<stop stop-color="#FF8177"/>
<stop offset="1" stop-color="#B22B5B"/>
</linearGradient>
<linearGradient id="paint1_linear_6_827" x1="9.17721" y1="17.5281" x2="65.0257" y2="23.9262" gradientUnits="userSpaceOnUse">
<stop stop-color="#FF8177"/>
<stop offset="1" stop-color="#B22B5B"/>
</linearGradient>
<linearGradient id="paint2_linear_6_827" x1="9.73437" y1="12.6403" x2="65.5836" y2="19.0387" gradientUnits="userSpaceOnUse">
<stop stop-color="#FF8177"/>
<stop offset="1" stop-color="#B22B5B"/>
</linearGradient>
<linearGradient id="paint3_linear_6_827" x1="6.85069" y1="37.8058" x2="62.6999" y2="44.2046" gradientUnits="userSpaceOnUse">
<stop stop-color="#FF8177"/>
<stop offset="1" stop-color="#B22B5B"/>
</linearGradient>
<linearGradient id="paint4_linear_6_827" x1="6.86028" y1="37.7492" x2="62.7095" y2="44.1477" gradientUnits="userSpaceOnUse">
<stop stop-color="#FF8177"/>
<stop offset="1" stop-color="#B22B5B"/>
</linearGradient>
<linearGradient id="paint5_linear_6_827" x1="11.0116" y1="1.48342" x2="66.8609" y2="7.88191" gradientUnits="userSpaceOnUse">
<stop stop-color="#FF8177"/>
<stop offset="1" stop-color="#B22B5B"/>
</linearGradient>
<linearGradient id="paint6_linear_6_827" x1="10.0829" y1="9.58632" x2="65.9322" y2="15.9848" gradientUnits="userSpaceOnUse">
<stop stop-color="#FF8177"/>
<stop offset="1" stop-color="#B22B5B"/>
</linearGradient>
<linearGradient id="paint7_linear_6_827" x1="10.3339" y1="7.43729" x2="66.1832" y2="13.8277" gradientUnits="userSpaceOnUse">
<stop stop-color="#FF8177"/>
<stop offset="1" stop-color="#B22B5B"/>
</linearGradient>
<linearGradient id="paint8_linear_6_827" x1="9.42464" y1="19.1115" x2="58.2109" y2="24.7022" gradientUnits="userSpaceOnUse">
<stop stop-color="#FF8177"/>
<stop offset="1" stop-color="#B22B5B"/>
</linearGradient>
<linearGradient id="paint9_linear_6_827" x1="9.17721" y1="17.5281" x2="65.0257" y2="23.9262" gradientUnits="userSpaceOnUse">
<stop stop-color="#FF8177"/>
<stop offset="1" stop-color="#B22B5B"/>
</linearGradient>
<linearGradient id="paint10_linear_6_827" x1="7.94996" y1="28.2326" x2="63.7993" y2="34.631" gradientUnits="userSpaceOnUse">
<stop stop-color="#FF8177"/>
<stop offset="1" stop-color="#B22B5B"/>
</linearGradient>
<linearGradient id="paint11_linear_6_827" x1="9.3717" y1="15.8557" x2="65.2129" y2="22.2541" gradientUnits="userSpaceOnUse">
<stop stop-color="#FF8177"/>
<stop offset="1" stop-color="#B22B5B"/>
</linearGradient>
<linearGradient id="paint12_linear_6_827" x1="8.8129" y1="20.6543" x2="64.6625" y2="27.0528" gradientUnits="userSpaceOnUse">
<stop stop-color="#FF8177"/>
<stop offset="1" stop-color="#B22B5B"/>
</linearGradient>
<linearGradient id="paint13_linear_6_827" x1="1.36533" y1="2.582" x2="14.1542" y2="14.1752" gradientUnits="userSpaceOnUse">
<stop stop-color="#FF8177"/>
<stop offset="1" stop-color="#B22B5B"/>
</linearGradient>
<linearGradient id="paint14_linear_6_827" x1="10.0753" y1="9.69957" x2="65.9259" y2="16.0983" gradientUnits="userSpaceOnUse">
<stop stop-color="#FF8177"/>
<stop offset="1" stop-color="#B22B5B"/>
</linearGradient>
</defs>
<path d="M90.2559 27.295C90.2882 27.4727 90.4336 27.8686 90.6114 27.8686C90.8618 27.8686 90.9345 27.4404 90.9668 27.3354L94.4327 14.8373C94.8932 13.1569 96.4686 13.0842 97.1795 13.0842C98.0682 13.0842 99.4254 13.262 99.9263 14.8373L103.424 27.3354C103.457 27.4808 103.57 27.8686 103.748 27.8686C103.925 27.8686 104.03 27.5454 104.143 27.295L107.747 13.3347H111.746L107.246 29.8641C106.672 32.0777 105.388 32.4331 103.998 32.4331C102.964 32.4331 101.324 32.2554 100.75 30.3246L97.4623 18.4728C97.4299 18.3274 97.3572 17.8669 97.1795 17.8669C97.0018 17.8669 96.9291 18.3274 96.8967 18.4728L93.6086 30.3246C93.3259 31.2859 92.5341 32.4331 90.3609 32.4331C87.7918 32.4331 87.396 30.8982 87.1132 29.8641L82.6133 13.3347H86.6123L90.2559 27.295Z" fill="#353333"/>
<path d="M113.5 29.0079H124.14C124.568 29.0079 125.141 28.9351 125.529 28.4747C125.925 28.0788 125.885 27.5779 125.885 27.2951C125.885 26.7619 125.812 26.2934 125.352 25.8652C125.069 25.5824 124.527 25.4047 121.926 24.6533L118.283 23.6516C114.138 22.8275 113.104 20.1534 113.249 18.1498C113.249 17.1885 113.395 15.9685 114.138 14.9344C115.318 13.3671 117.03 13.2944 118.67 13.2944H129.351V16.5098H119.317C118.856 16.5098 118.315 16.4775 117.854 16.8653C117.321 17.2612 117.321 17.6893 117.321 18.2226C117.321 18.7558 117.353 19.2243 117.927 19.6848C118.46 20.113 119.817 20.5412 120.286 20.6462L124.358 21.7853C126.644 22.464 128.106 22.9245 129.068 23.9262C130.102 25.033 130.247 26.358 130.247 27.3921C130.247 28.3535 130.142 30.2843 128.64 31.4234C127.678 32.1344 126.571 32.2071 125.602 32.2071H113.5V28.9917V29.0079Z" fill="#353333"/>
<path d="M144.959 13.2945C146.567 13.2945 148.029 13.8681 148.885 14.7567C149.709 15.5808 150.275 17.0754 150.275 19.2163V29.0321C150.275 29.7107 150.202 30.7852 149.524 31.4639C148.845 32.1425 147.811 32.2152 146.914 32.2152H137.882C136.848 32.2152 135.563 32.2475 134.456 31.2861C132.921 29.9289 132.816 27.5698 132.816 26.148C132.816 24.4675 132.994 22.7952 134.424 21.543C135.604 20.5089 136.888 20.4362 137.89 20.4362H146.106V19.1113C146.106 18.5377 146.033 17.8994 145.573 17.3258C144.999 16.6149 144.216 16.5018 143.537 16.5018H134.214V13.2864H144.959V13.2945ZM139.142 23.6516C138.859 23.6516 138.068 23.6839 137.607 24.2979C137.462 24.4756 137.147 24.9442 137.147 26.3338C137.147 26.9074 137.179 27.9011 137.72 28.4424C138.003 28.7251 138.544 29.016 139.078 29.016H144.894C145.468 29.1614 146.324 28.5878 146.106 28.0142V23.6597H139.142V23.6516Z" fill="#353333"/>
<path d="M160.703 32.2232C159.241 32.2232 156.809 31.9405 155.064 29.9046C153.497 28.0464 153.352 25.7278 153.352 23.0133C153.352 20.727 153.384 17.5116 155.492 15.3384C156.244 14.587 157.884 13.3025 161.277 13.3025H169.38V16.5179H162.634C159.815 16.5179 158.457 17.9075 157.989 19.5151C157.706 20.5492 157.666 22.4801 157.666 23.086C157.666 24.1928 157.771 26.0106 158.272 27.0123C159.233 28.7978 161.269 29.0159 163.022 29.0159H169.808V32.2313H160.703V32.2232Z" fill="#353333"/>
<path d="M84.956 44.8747C84.9641 44.9312 85.0125 45.0605 85.0691 45.0605C85.1499 45.0605 85.1741 44.9232 85.1822 44.8909L86.3052 40.8514C86.4587 40.3101 86.9595 40.2859 87.1938 40.2859C87.4847 40.2859 87.9209 40.3424 88.0825 40.8514L89.2135 44.8909C89.2216 44.9393 89.262 45.0605 89.3186 45.0605C89.3751 45.0605 89.4074 44.9555 89.4478 44.8747L90.6112 40.3586H91.9038L90.4496 45.7068C90.2638 46.4258 89.8518 46.5389 89.3994 46.5389C89.0681 46.5389 88.5349 46.4824 88.3491 45.8603L87.2908 42.0309C87.2827 41.9825 87.2585 41.837 87.2019 41.837C87.1454 41.837 87.1211 41.9905 87.113 42.0309L86.0547 45.8603C85.9658 46.1754 85.7073 46.5389 85.0045 46.5389C84.1723 46.5389 84.0431 46.0461 83.9542 45.7068L82.5 40.3586H83.7926L84.9721 44.8747H84.956Z" fill="#7C7C7C"/>
<path d="M94.238 46.4664C93.616 46.4664 92.8646 46.4098 92.3718 45.6908C91.9679 45.101 91.9355 44.2851 91.9355 43.461C91.9355 42.3057 91.984 41.4898 92.6626 40.9C93.3332 40.3264 94.3673 40.3264 94.949 40.3264C95.6761 40.3264 96.4032 40.3587 96.9687 40.7223C97.6715 41.1828 97.8331 41.9341 97.8331 42.7097C97.8331 43.0248 97.8089 43.3641 97.5423 43.6307C97.3565 43.8165 97.1303 43.865 96.8879 43.865H93.3332C93.3332 44.1316 93.3655 44.5194 93.414 44.7052C93.5998 45.3515 94.1492 45.4323 94.6501 45.4323H97.6392V46.4744H94.2461L94.238 46.4664ZM96.1285 42.8147C96.3951 42.8147 96.4274 42.6289 96.4274 42.4592C96.4274 42.0795 96.2335 41.7887 96.0315 41.6433C95.7003 41.3767 95.256 41.3686 94.8763 41.3686C94.4966 41.3686 93.9795 41.3605 93.5917 41.7725C93.317 42.0876 93.3251 42.4188 93.317 42.8228H96.1204L96.1285 42.8147Z" fill="#7C7C7C"/>
<path d="M101.202 45.4322H104.644C104.781 45.4322 104.967 45.408 105.096 45.2625C105.225 45.1333 105.209 44.9717 105.209 44.8828C105.209 44.7132 105.185 44.5597 105.04 44.4223C104.951 44.3335 104.773 44.2688 103.933 44.0265L102.753 43.7033C101.412 43.4367 101.081 42.5723 101.129 41.926C101.129 41.6109 101.178 41.2231 101.42 40.8838C101.8 40.3748 102.357 40.3506 102.883 40.3506H106.332V41.3928H103.085C102.931 41.3928 102.761 41.3847 102.608 41.5059C102.438 41.6351 102.438 41.7725 102.438 41.9421C102.438 42.1118 102.446 42.2653 102.632 42.4188C102.802 42.5561 103.246 42.6935 103.392 42.7339L104.708 43.1055C105.444 43.3236 105.92 43.4771 106.235 43.8003C106.567 44.1557 106.615 44.5839 106.615 44.9232C106.615 45.2383 106.583 45.8604 106.098 46.2239C105.783 46.4582 105.427 46.4744 105.12 46.4744H101.21V45.4322H101.202Z" fill="#7C7C7C"/>
<path d="M109.112 44.8747C109.12 44.9312 109.169 45.0605 109.225 45.0605C109.306 45.0605 109.33 44.9232 109.338 44.8909L110.461 40.8514C110.615 40.3101 111.116 40.2859 111.35 40.2859C111.641 40.2859 112.077 40.3424 112.239 40.8514L113.37 44.8909C113.378 44.9393 113.418 45.0605 113.475 45.0605C113.531 45.0605 113.564 44.9555 113.604 44.8747L114.767 40.3586H116.06L114.606 45.7068C114.42 46.4258 114.008 46.5389 113.556 46.5389C113.224 46.5389 112.691 46.4824 112.505 45.8603L111.447 42.0309C111.439 41.9825 111.415 41.837 111.358 41.837C111.302 41.837 111.277 41.9905 111.269 42.0309L110.211 45.8603C110.122 46.1754 109.864 46.5389 109.161 46.5389C108.329 46.5389 108.199 46.0461 108.11 45.7068L106.656 40.3586H107.949L109.128 44.8747H109.112Z" fill="#7C7C7C"/>
<path d="M120.003 40.3506C120.52 40.3506 120.996 40.5364 121.271 40.8272C121.538 41.0938 121.723 41.5786 121.723 42.2734V45.4484C121.723 45.6665 121.699 46.0139 121.481 46.232C121.263 46.4501 120.924 46.4744 120.641 46.4744H117.716C117.385 46.4744 116.965 46.4825 116.609 46.1755C116.117 45.7392 116.076 44.9717 116.076 44.5112C116.076 43.9699 116.133 43.4286 116.593 43.0247C116.973 42.6935 117.393 42.6692 117.716 42.6692H120.374V42.241C120.374 42.0552 120.35 41.8452 120.204 41.6674C120.019 41.4332 119.768 41.4008 119.55 41.4008H116.537V40.3587H120.011L120.003 40.3506ZM118.12 43.6952C118.031 43.6952 117.773 43.7033 117.627 43.9053C117.579 43.9618 117.474 44.1153 117.474 44.5597C117.474 44.7455 117.482 45.0687 117.66 45.2383C117.749 45.3272 117.926 45.4241 118.096 45.4241H119.978C120.164 45.4726 120.439 45.2868 120.374 45.101V43.6952H118.12Z" fill="#7C7C7C"/>
<path d="M124.002 48.4295H122.652V41.2958C122.652 40.8919 122.846 40.6737 123 40.5445C123.234 40.3748 123.533 40.3506 123.759 40.3506H125.892C126.288 40.3506 127.104 40.4071 127.694 41.0211C128.316 41.6755 128.34 42.6046 128.34 43.2832C128.34 44.0911 128.291 44.9717 127.855 45.5938C127.265 46.434 126.328 46.4744 125.706 46.4744H124.002V48.4375V48.4295ZM125.536 45.4241C126.215 45.4241 126.538 45.101 126.692 44.8586C126.821 44.6728 126.942 44.3012 126.942 43.3963C126.942 42.5642 126.861 42.2572 126.781 42.0795C126.611 41.6755 126.207 41.3847 125.601 41.3847H124.276C124.22 41.3847 124.139 41.4332 124.09 41.4655C124.034 41.522 124.002 41.5947 124.002 41.6755V45.4241H125.536Z" fill="#7C7C7C"/>
<path d="M135.555 40.3506C136.072 40.3506 136.549 40.5364 136.824 40.8272C137.09 41.0938 137.276 41.5786 137.276 42.2734V45.4484C137.276 45.6665 137.252 46.0139 137.034 46.232C136.816 46.4501 136.476 46.4744 136.193 46.4744H133.269C132.938 46.4744 132.518 46.4825 132.162 46.1755C131.669 45.7392 131.629 44.9717 131.629 44.5112C131.629 43.9699 131.685 43.4286 132.146 43.0247C132.526 42.6935 132.946 42.6692 133.269 42.6692H135.927V42.241C135.927 42.0552 135.903 41.8452 135.757 41.6674C135.571 41.4332 135.321 41.4008 135.103 41.4008H132.089V40.3587H135.563L135.555 40.3506ZM133.673 43.6952C133.584 43.6952 133.325 43.7033 133.18 43.9053C133.132 43.9618 133.027 44.1153 133.027 44.5597C133.027 44.7455 133.035 45.0687 133.212 45.2383C133.301 45.3272 133.479 45.4241 133.649 45.4241H135.531C135.717 45.4726 135.992 45.2868 135.927 45.101V43.6952H133.673Z" fill="#7C7C7C"/>
<path d="M138.195 41.2876C138.195 41.1018 138.203 40.8271 138.389 40.6332C138.656 40.3424 139.06 40.3586 139.326 40.3586H141.483C142.13 40.3586 142.695 40.407 143.188 40.8514C143.511 41.1422 143.786 41.6027 143.786 42.4429V46.4743H142.437V42.8469C142.437 42.4429 142.404 42.047 142.186 41.7643C141.992 41.4977 141.71 41.3927 141.217 41.3927H139.843C139.69 41.3361 139.488 41.5462 139.544 41.7158V46.4743H138.195V41.2876Z" fill="#7C7C7C"/>
<path d="M147.147 48.4456H145.774L146.711 46.4501L143.988 40.3586H145.386L147.349 45.0606L149.425 40.3829H150.799L147.147 48.4537V48.4456Z" fill="#7C7C7C"/>
<path d="M155.881 46.4663C155.405 46.4663 154.621 46.3774 154.055 45.715C153.547 45.1171 153.498 44.3658 153.498 43.4852C153.498 42.75 153.506 41.7078 154.193 41.005C154.435 40.7626 154.968 40.3506 156.059 40.3506H158.677V41.3928H156.495C155.582 41.3928 155.146 41.8452 154.993 42.3622C154.904 42.6935 154.888 43.3236 154.888 43.5175C154.888 43.873 154.92 44.4627 155.082 44.7859C155.397 45.3595 156.051 45.4322 156.616 45.4322H158.806V46.4744H155.865L155.881 46.4663Z" fill="#7C7C7C"/>
<path d="M163.354 40.3506C163.871 40.3506 164.348 40.5364 164.622 40.8272C164.889 41.0938 165.075 41.5786 165.075 42.2734V45.4484C165.075 45.6665 165.051 46.0139 164.833 46.232C164.614 46.4501 164.275 46.4744 163.992 46.4744H161.068C160.737 46.4744 160.316 46.4825 159.961 46.1755C159.468 45.7392 159.428 44.9717 159.428 44.5112C159.428 43.9699 159.484 43.4286 159.945 43.0247C160.324 42.6935 160.745 42.6692 161.068 42.6692H163.726V42.241C163.726 42.0552 163.701 41.8452 163.556 41.6674C163.37 41.4332 163.12 41.4008 162.902 41.4008H159.888V40.3587H163.362L163.354 40.3506ZM161.472 43.6952C161.383 43.6952 161.124 43.7033 160.979 43.9053C160.93 43.9618 160.825 44.1153 160.825 44.5597C160.825 44.7455 160.833 45.0687 161.011 45.2383C161.1 45.3272 161.278 45.4241 161.447 45.4241H163.33C163.516 45.4726 163.79 45.2868 163.726 45.101V43.6952H161.472Z" fill="#7C7C7C"/>
<path d="M165.994 42.6611C165.994 41.9825 166.107 41.3362 166.632 40.8838C167.198 40.391 167.998 40.3506 168.466 40.3506H169.379V41.3928H168.814C168.458 41.3928 167.982 41.4412 167.658 41.8209C167.392 42.136 167.343 42.5561 167.343 43.0247V46.4744H165.994V42.6611Z" fill="#7C7C7C"/>
<path d="M17.83 20.0804L17.8223 20.0728L17.83 20.0804Z" fill="url(#paint0_linear_6_827)"/>
<path d="M19.308 18.6834L19.2918 18.6995L19.2676 18.6753C19.2676 18.6753 19.2918 18.6753 19.308 18.6834Z" fill="url(#paint1_linear_6_827)"/>
<path d="M48.8927 17.8592L47.5273 16.2273C48.0363 16.7201 48.4887 17.2695 48.8927 17.8592Z" fill="url(#paint2_linear_6_827)"/>
<path d="M18.4118 39.0339C15.3499 39.0339 12.8374 41.3526 12.5304 44.3337C12.5061 44.5437 12.498 44.7457 12.498 44.9558C12.498 45.5213 12.5788 46.0706 12.7323 46.5958C13.4433 49.0679 15.7215 50.8776 18.4199 50.8776C19.2762 50.8776 20.0922 50.6918 20.8274 50.3686C22.4108 49.6657 23.6307 48.2843 24.1074 46.5958C24.2609 46.0787 24.3417 45.5294 24.3417 44.9558C24.3417 41.6838 21.6918 39.0339 18.4199 39.0339H18.4118ZM20.2699 46.5877C19.8175 47.1047 19.155 47.4198 18.4118 47.4198C17.6685 47.4198 17.0141 47.0967 16.5617 46.5877C16.1739 46.1514 15.9396 45.5778 15.9396 44.9477C15.9396 43.5823 17.0465 42.4755 18.4118 42.4755C19.7771 42.4755 20.8839 43.5823 20.8839 44.9477C20.8839 45.5778 20.6496 46.1514 20.2619 46.5877H20.2699Z" fill="#353333"/>
<path d="M3.3283 37.3777C3.3283 37.3777 3.30407 37.4019 3.28791 37.41C3.28791 37.41 3.27175 37.4181 3.26367 37.4262C3.26367 37.4262 3.27175 37.4181 3.27983 37.41C3.29599 37.4019 3.31215 37.3858 3.32022 37.3777H3.3283Z" fill="url(#paint3_linear_6_827)"/>
<path d="M3.39444 37.321C3.39444 37.321 3.38636 37.3291 3.37828 37.3372C3.36213 37.3534 3.34597 37.3614 3.33789 37.3776C3.34597 37.3695 3.36213 37.3534 3.37828 37.3372C3.37828 37.3372 3.39444 37.3291 3.40252 37.321H3.39444Z" fill="url(#paint4_linear_6_827)"/>
<path d="M8.04661 1.29761L7.69922 0.942139C7.83656 1.03909 7.94966 1.16027 8.04661 1.29761Z" fill="url(#paint5_linear_6_827)"/>
<path d="M0.662911 8.67341C0.517491 8.56838 0.388229 8.43912 0.283203 8.2937L0.662911 8.67341Z" fill="url(#paint6_linear_6_827)"/>
<path d="M0.68768 6.09619L0.267578 6.51629C0.380682 6.35472 0.518023 6.2093 0.68768 6.09619Z" fill="url(#paint7_linear_6_827)"/>
<path d="M17.83 20.0804L17.8223 20.0728L17.83 20.0804Z" fill="url(#paint8_linear_6_827)"/>
<path d="M19.308 18.6834L19.2918 18.6995L19.2676 18.6753C19.2676 18.6753 19.2918 18.6753 19.308 18.6834Z" fill="url(#paint9_linear_6_827)"/>
<path d="M75.3117 42.3302C75.3117 43.3886 74.9239 44.358 74.2857 45.1094C73.502 46.0142 72.3467 46.5959 71.0541 46.5959H70.1493C70.1493 46.5959 70.1654 46.5312 70.1654 46.4989C70.2543 45.998 70.3028 45.481 70.3028 44.9559C70.3028 42.7584 69.4787 40.7548 68.1215 39.236C66.5542 37.4748 64.2598 36.368 61.7149 36.368C56.9726 36.368 53.1271 40.2136 53.1271 44.9559C53.1271 45.5133 53.1755 46.0627 53.2806 46.5959H36.4361L42.0671 34.2352H46.26L45.8157 32.6598L43.796 25.4534L33.4631 31.8438L29.5852 34.2352H35.4585L29.8356 46.5959H26.8545C26.9596 46.0707 27.008 45.5214 27.008 44.9559C27.008 40.2136 23.1625 36.368 18.4202 36.368C14.9463 36.368 11.9571 38.4281 10.6079 41.3931C10.107 42.4756 9.83234 43.6875 9.83234 44.9559C9.83234 45.5133 9.88081 46.0627 9.98584 46.5959H4.71841C3.51465 46.5959 2.53711 45.6183 2.53711 44.4146V39.0502C2.53711 38.4039 2.81987 37.8222 3.27229 37.4263C3.27229 37.4263 3.28845 37.4183 3.29652 37.4102C3.3046 37.4021 3.32076 37.3859 3.33692 37.3779C3.33692 37.3779 3.36923 37.3536 3.37731 37.3375C3.37731 37.3375 3.38539 37.3294 3.39347 37.3213C3.57928 37.1517 3.70047 36.9174 3.74086 36.6588C3.74086 36.6265 3.74894 36.5861 3.74894 36.5457L4.12865 33.0314V33.0072C4.12865 32.5709 4.17712 32.1508 4.26599 31.7469C4.74264 29.6464 6.38266 27.9902 8.47509 27.4893C8.53164 27.4732 8.58819 27.4651 8.65282 27.4489C8.85479 27.3762 9.02445 27.2227 9.10524 27.0288C9.1214 26.9803 9.13755 26.9319 9.14563 26.8834C10.2524 23.1752 12.458 19.9275 15.3825 17.5361L17.8143 20.0567C17.8143 20.0567 17.8143 20.0567 17.8143 20.0648C17.9031 20.6627 18.4121 21.1151 19.0423 21.1151C19.729 21.1151 20.2783 20.5576 20.2783 19.8709C20.2783 19.2731 19.8582 18.7803 19.3008 18.6591C19.2927 18.6591 19.2766 18.6591 19.2604 18.651L17.0145 16.3243C20.036 14.345 23.6472 13.1897 27.5251 13.1897H32.8087L32.5098 13.8441L27.5412 24.7667H23.421L25.8851 33.5727L31.6938 29.9776L40.1201 24.7667H34.1336L37.9872 16.3001L39.3768 13.2462C39.6353 13.222 39.8939 13.2139 40.1605 13.2139C43.0123 13.2139 45.5895 14.345 47.488 16.187H47.4961L48.8614 17.827L48.8776 17.8512L55.3811 25.5989C55.583 25.8897 55.8173 26.1563 56.0597 26.4148C57.2796 27.659 58.9843 28.4265 60.8586 28.4265C60.9717 28.4265 61.0928 28.4265 61.2059 28.4184C61.2059 28.4184 61.2059 28.4184 61.214 28.4184C61.3271 28.4184 61.4402 28.4022 61.5453 28.3942C61.8199 28.3699 62.1027 28.3618 62.3774 28.3618C68.59 28.3618 73.7524 32.8699 74.7623 38.7917C74.7785 38.8967 74.7946 39.0017 74.8108 39.0987L75.1824 41.4658V41.4819L75.239 41.8293C75.2551 41.9909 75.2632 42.1525 75.2632 42.3141L75.3117 42.3302Z" fill="url(#paint10_linear_6_827)"/>
<path d="M19.0502 20.3475C18.9371 20.3475 18.8401 20.3071 18.7594 20.2425L18.6866 20.1698L18.6705 20.1536L18.2342 19.7012L17.9272 19.3781L15.8348 17.2048L15.035 16.3727L13.4596 14.7327L13.0637 14.3207L12.8052 14.0541L12.4013 13.6421L12.3609 13.5936C12.2963 13.5128 12.2559 13.4158 12.2559 13.3108C12.2559 13.0604 12.4578 12.8584 12.7083 12.8584C12.7891 12.8584 12.8699 12.8826 12.9345 12.923C12.9426 12.923 12.9506 12.9311 12.9587 12.9392L13.0799 13.0604L13.4273 13.432L13.6939 13.7148L14.0817 14.1187L15.649 15.7426L16.5538 16.6797L18.5655 18.7641L18.8805 19.0953L19.341 19.5719L19.3814 19.6204C19.4461 19.7012 19.4865 19.7982 19.4865 19.9113C19.4865 20.1617 19.2845 20.3637 19.034 20.3637L19.0502 20.3475Z" fill="url(#paint11_linear_6_827)"/>
<path d="M56.0907 26.4388C55.8403 26.1883 55.6141 25.9136 55.4121 25.6228L56.0907 26.4388Z" fill="url(#paint12_linear_6_827)"/>
<path d="M67.619 44.8749C67.6109 43.8085 67.312 42.8068 66.795 41.9504C65.7609 40.2054 63.8704 39.042 61.6972 39.042C58.4333 39.042 55.7754 41.6919 55.7754 44.9638C55.7754 45.5293 55.8562 46.0787 56.0097 46.6038C56.7206 49.076 58.9989 50.8856 61.6972 50.8856C64.3956 50.8856 66.6819 49.076 67.3847 46.6038C67.5382 46.0868 67.619 45.5374 67.619 44.9638C67.619 44.9315 67.619 44.9073 67.619 44.883V44.8749ZM63.5554 46.5957C63.1029 47.1128 62.4405 47.4279 61.6972 47.4279C60.954 47.4279 60.2996 47.1047 59.8471 46.5957C59.4594 46.1595 59.2251 45.5859 59.2251 44.9557C59.2251 43.5904 60.3319 42.4836 61.6972 42.4836C63.0625 42.4836 64.1693 43.5904 64.1693 44.9557C64.1693 45.5859 63.9351 46.1595 63.5473 46.5957H63.5554Z" fill="#353333"/>
<path d="M15.6649 10.1034V14.9346L14.3077 13.5208C14.3158 13.4481 14.3239 13.3835 14.3239 13.3108C14.3239 13.2542 14.3239 13.1976 14.3158 13.1411C14.3158 13.0926 14.3077 13.0441 14.2915 12.9957C14.1461 12.2524 13.4998 11.695 12.7162 11.695C12.6838 11.695 12.6515 11.695 12.6273 11.695C11.779 11.7354 11.1085 12.4382 11.1085 13.2946C11.1085 14.0863 11.674 14.7407 12.4172 14.87C12.4253 14.87 12.4415 14.87 12.4496 14.87C12.5303 14.8861 12.6192 14.8942 12.7081 14.8942C12.7566 14.8942 12.7969 14.8942 12.8454 14.8942L14.2511 16.3484H9.68658C8.86253 16.3484 8.10312 16.0414 7.52952 15.5324L7.23868 15.2416L0.662468 8.67347L0.282761 8.29377C0.105025 8.03524 0 7.72824 0 7.39701C0 7.06578 0.0969466 6.76686 0.266603 6.52449L0.686705 6.10439L5.56635 1.21667L5.78448 0.998537C6.05108 0.780407 6.39847 0.643066 6.77818 0.643066C7.12557 0.643066 7.44873 0.756171 7.70725 0.941985L8.05464 1.29746L14.6955 8.00293C14.744 8.0514 14.7844 8.09987 14.8328 8.14835C15.3095 8.67347 15.6165 9.3521 15.673 10.1034H15.6649Z" fill="url(#paint13_linear_6_827)"/>
<path d="M19.5026 19.8951C19.5026 20.1455 19.3006 20.3475 19.0502 20.3475C18.9371 20.3475 18.8401 20.3071 18.7594 20.2425L18.6866 20.1698L18.6705 20.1536L18.2342 19.7012L17.9272 19.3781L15.8348 17.2048L15.035 16.3727L13.4596 14.7327L13.0637 14.3207L12.8052 14.0541L12.4013 13.6421L12.3609 13.5936C12.2963 13.5128 12.2559 13.4158 12.2559 13.3108C12.2559 13.0604 12.4578 12.8584 12.7083 12.8584C12.7891 12.8584 12.8699 12.8826 12.9345 12.923C12.9426 12.923 12.9506 12.9311 12.9587 12.9392L13.0799 13.0604L13.4273 13.432L13.6939 13.7148L14.0817 14.1187L15.649 15.7426L16.5538 16.6797L18.5655 18.7641L18.8805 19.0953L19.341 19.5719L19.3814 19.6204C19.4461 19.7012 19.4865 19.7982 19.4865 19.9113L19.5026 19.8951Z" fill="#353333"/>
<path d="M15.6741 10.3378C15.6741 10.4186 15.6741 10.4913 15.666 10.5721V10.1035C15.666 10.1762 15.6741 10.257 15.6741 10.3378Z" fill="url(#paint14_linear_6_827)"/>
<path d="M0.773527 97.1046H5.77435C6.58224 97.1046 6.62264 96.4341 6.62264 96.1271C6.62264 95.7797 6.53377 95.3515 5.75012 95.1091L2.18733 93.9862C2.07423 93.9619 1.45215 93.7519 1.12092 93.3156C0.708896 92.8389 0.652344 92.1199 0.652344 91.611C0.652344 91.0535 0.716975 90.4153 1.23402 89.9386C1.69452 89.4862 2.26812 89.4377 2.71246 89.4377H7.90718V90.795H3.30222C3.05985 90.795 2.80133 90.8111 2.59128 91.005C2.37315 91.2151 2.35699 91.5302 2.35699 91.6998C2.35699 92.0957 2.47009 92.4754 3.19719 92.7178L6.50145 93.7599C7.40629 94.0427 7.88294 94.3416 8.11723 94.8425C8.35152 95.303 8.38383 95.8362 8.38383 96.1432C8.38383 96.7087 8.30304 97.3389 7.93142 97.8155C7.479 98.3972 6.92156 98.4619 6.31564 98.4619H0.773527V97.1046Z" fill="#7C7C7C"/>
<path d="M14.9921 90.2538C15.0972 89.9064 15.2749 89.3247 16.2444 89.3247C17.1169 89.3247 17.3916 89.8498 17.4966 90.2538L19.177 96.4341C19.2174 96.523 19.282 96.6523 19.3709 96.6523C19.4194 96.6523 19.5244 96.6038 19.5809 96.3776L21.3744 89.4297H23.1033L20.922 97.2986C20.7524 97.8802 20.5342 98.5589 19.4678 98.5589C18.4903 98.5589 18.1914 98.0014 18.0217 97.3955L16.4383 91.5545C16.3979 91.3848 16.3332 91.3121 16.2605 91.3121C16.1555 91.3121 16.1313 91.4656 16.0909 91.5545L14.4912 97.3955C14.362 97.8964 14.1196 98.5589 13.0613 98.5589C12.3423 98.5589 11.8656 98.2842 11.5909 97.2986L9.42578 89.4297H11.1547L12.9482 96.3776C12.9886 96.4664 12.9966 96.6523 13.1421 96.6523C13.2309 96.6523 13.2956 96.523 13.336 96.4341L15.0164 90.2538H14.9921Z" fill="#7C7C7C"/>
<path d="M24.5156 98.4538V89.4297H26.2203V98.4538H24.5156Z" fill="#7C7C7C"/>
<path d="M28.7988 98.4538V90.7789C28.7988 90.4315 28.7988 90.0841 29.1058 89.7771C29.4047 89.4782 29.8168 89.4297 30.1238 89.4297H34.4217C34.8984 89.4297 35.6578 89.4136 36.2152 89.971C36.8373 90.5527 36.9019 91.5949 36.9019 92.3462C36.9019 93.0975 36.8212 94.2447 36.1183 94.8183C35.7709 95.093 35.27 95.2546 34.7368 95.2546H30.5035V98.4538H28.7988ZM33.735 93.9054C34.1066 93.9054 34.551 93.9216 34.8418 93.5742C35.1084 93.2672 35.1407 92.6855 35.1407 92.3381C35.1407 91.9423 35.1165 91.3929 34.8176 91.1021C34.5187 90.8112 34.0582 90.7951 33.7593 90.7951H31.0124C30.8993 90.7951 30.7539 90.7708 30.6085 90.9082C30.4954 91.0213 30.4954 91.1829 30.4954 91.3364V93.9135H33.735V93.9054Z" fill="#7C7C7C"/>
<path d="M40.5863 98.4538C40.1824 98.4538 39.8511 98.47 39.5522 98.1711C39.2452 97.8721 39.2129 97.4601 39.2129 97.1127V90.7143C39.2129 90.3507 39.326 89.9952 39.5199 89.769C39.8188 89.4459 40.2551 89.4216 40.6025 89.4216H46.395V90.7789H41.5235C41.37 90.7789 41.2003 90.795 41.063 90.9081C40.9175 91.0536 40.9175 91.2071 40.9175 91.3444V93.1622H46.2658V94.5194H40.9175V96.6361C40.9175 96.8057 40.9579 96.9188 41.0468 96.9835C41.1518 97.0885 41.3538 97.0966 41.6285 97.0966H46.4516V98.4538H40.5863Z" fill="#7C7C7C"/>
<path d="M56.4609 94.3174H61.0659V95.6423H56.4609V94.3174Z" fill="#7C7C7C"/>
<path d="M72.6282 98.4538C72.3293 98.4538 71.9981 98.3892 71.788 98.2195C71.6426 98.1064 71.4648 97.8721 71.4648 97.4682V89.4216H73.1695V96.6038C73.1695 96.7088 73.1453 96.8784 73.2826 96.9915C73.3311 97.0319 73.4361 97.0966 73.7108 97.0966H78.6631V98.4538H72.6282Z" fill="#7C7C7C"/>
<path d="M80.2051 98.4538V89.4297H81.9097V98.4538H80.2051Z" fill="#7C7C7C"/>
<path d="M84.4863 89.4297H86.191V98.4538H84.4863V89.4297ZM90.9737 98.4538L87.2574 94.988C86.805 94.5759 86.6919 94.1235 86.6919 93.8165C86.6919 93.4691 86.8858 93.0571 87.1281 92.8147L90.5455 89.4378H92.646L88.752 93.1379C88.55 93.3318 88.3238 93.5014 88.3238 93.8084C88.3238 94.2043 88.6066 94.4386 88.8489 94.6567L93.1146 98.4619H90.9575L90.9737 98.4538Z" fill="#7C7C7C"/>
<path d="M95.9183 98.4538C95.5144 98.4538 95.1832 98.47 94.8842 98.1711C94.5772 97.8721 94.5449 97.4601 94.5449 97.1127V90.7143C94.5449 90.3507 94.658 89.9952 94.8519 89.769C95.1508 89.4459 95.5871 89.4216 95.9345 89.4216H101.727V90.7789H96.8555C96.702 90.7789 96.5323 90.795 96.395 90.9081C96.2496 91.0536 96.2496 91.2071 96.2496 91.3444V93.1622H101.598V94.5194H96.2496V96.6361C96.2496 96.8057 96.29 96.9188 96.3788 96.9835C96.4839 97.0885 96.6858 97.0966 96.9605 97.0966H101.784V98.4538H95.9183Z" fill="#7C7C7C"/>
<path d="M111.793 94.3174H116.398V95.6423H111.793V94.3174Z" fill="#7C7C7C"/>
<path d="M132.508 96.628C132.92 96.1755 132.937 95.505 132.937 95.0526V89.4297H134.641V95.2869C134.641 96.0624 134.536 96.8865 133.858 97.5974C132.969 98.5265 131.539 98.5669 130.723 98.5669C129.907 98.5669 128.477 98.5265 127.588 97.5974C126.902 96.8865 126.805 96.0624 126.805 95.2869V89.4297H128.509V95.0526C128.509 95.5535 128.525 96.1594 128.946 96.628C129.422 97.145 130.198 97.2096 130.723 97.2096C131.216 97.2096 132.04 97.145 132.516 96.628H132.508Z" fill="#7C7C7C"/>
<path d="M145.853 97.2824C145.853 98.1953 145.247 98.5589 144.512 98.5589C143.955 98.5589 143.454 98.4296 143.058 97.7995L139.253 91.7888C139.107 91.5949 139.083 91.5706 139.043 91.5706C138.978 91.5706 138.865 91.6353 138.865 91.8292V98.4538H137.217V90.5527C137.217 89.7771 137.734 89.3247 138.598 89.3247C139.414 89.3247 139.786 89.6317 140.028 90.0357L143.858 96.0867C143.922 96.1756 143.947 96.3049 144.06 96.3049C144.205 96.3049 144.205 96.1514 144.205 96.0867V89.4297H145.853V97.2824Z" fill="#7C7C7C"/>
<path d="M148.439 98.4538V89.4297H150.144V98.4538H148.439Z" fill="#7C7C7C"/>
<path d="M155.339 98.4538V90.7789H151.816V89.4216H160.574V90.7789H157.043V98.4538H155.339Z" fill="#7C7C7C"/>
<path d="M163.62 98.4538C163.216 98.4538 162.884 98.47 162.585 98.1711C162.278 97.8721 162.246 97.4601 162.246 97.1127V90.7143C162.246 90.3507 162.359 89.9952 162.553 89.769C162.852 89.4459 163.288 89.4216 163.636 89.4216H169.428V90.7789H164.557C164.403 90.7789 164.233 90.795 164.096 90.9081C163.951 91.0536 163.951 91.2071 163.951 91.3444V93.1622H169.299V94.5194H163.951V96.6361C163.951 96.8057 163.991 96.9188 164.08 96.9835C164.185 97.0885 164.387 97.0966 164.662 97.0966H169.485V98.4538H163.62Z" fill="#7C7C7C"/>
<path d="M169.672 69.7092H0.734375V70.3151H169.672V69.7092Z" fill="#7C7C7C"/>
</svg>
