<svg width="33" height="14" viewBox="0 0 33 14" fill="none" xmlns="http://www.w3.org/2000/svg">
<line x1="4.01904" y1="2.5" x2="10.0571" y2="2.5" stroke="#9A9A9A" stroke-linecap="round"/>
<line x1="0.5" y1="6.01901" x2="6.53804" y2="6.01901" stroke="#9A9A9A" stroke-linecap="round"/>
<line x1="0.5" y1="10.4178" x2="6.53804" y2="10.4178" stroke="#9A9A9A" stroke-linecap="round"/>
<path d="M26.2393 5.01518C25.4954 4.10264 24.732 3.2021 23.9883 2.28691C23.3403 1.4903 22.5364 1.01865 21.4923 1.01267C20.0539 1.00592 18.6125 1.00429 17.1713 1.00001C16.5026 0.998812 15.8641 1.13829 15.266 1.4245C15.1004 1.50626 14.94 1.59107 14.7873 1.67906C14.7262 1.71479 14.6677 1.75068 14.6093 1.78659C14.5397 1.82972 14.4727 1.87305 14.4084 1.91655C14.4082 1.9192 14.4056 1.91902 14.4056 1.91902C14.2404 2.03279 14.0884 2.15014 13.9642 2.25077C13.7944 2.39353 13.6692 2.50742 13.6206 2.55467C13.6119 2.56473 13.6034 2.57213 13.5949 2.57953C12.8945 3.26371 12.3827 4.11026 12.0492 5.11311M12.0492 5.11311C12.0224 5.1912 11.9998 5.24826 11.905 5.27098C11.1351 5.45997 10.6503 5.99392 10.5474 6.78362C10.495 7.19305 10.4637 7.60394 10.4166 8.01374C10.4127 8.06944 10.3761 8.13618 10.3337 8.17054C10.1081 8.34941 10.0018 8.57655 10.003 8.86446C10.0048 9.29899 10.0011 9.73581 10 10.1728C9.99968 10.7138 10.3181 11.0397 10.8614 11.0429M12.0492 5.11311H26.2393C26.2393 5.11311 28.6309 5.49526 29.8345 6.04268C31.0381 6.59009 31.5758 7.47567 31.8639 8.73496C31.939 9.07331 31.9946 9.42366 31.9998 9.77047C32.0124 10.5469 31.5111 11.0503 30.7303 11.0893C30.618 11.0948 30.5038 11.0896 30.3786 11.0889M10.8614 11.0429C11.3114 11.0475 11.7591 11.0467 12.2093 11.0486M10.8614 11.0429L12.3532 11.0429M17.0597 11.0854L25.8004 11.0729" stroke="#9A9A9A" stroke-linecap="round" stroke-linejoin="round"/>
<mask id="path-5-inside-1_52_1639" fill="white">
<path d="M13.6784 2.4112C13.6784 2.4112 13.6963 2.39635 13.7055 2.38619C13.6873 2.40378 13.6784 2.4112 13.6784 2.4112Z"/>
</mask>
<path d="M13.6784 2.4112L13.0398 1.64164L14.3168 3.18086L13.6784 2.4112ZM13.7055 2.38619L14.4466 3.05758L13.0096 1.668L13.7055 2.38619ZM13.6784 2.4112C14.317 3.18075 14.317 3.18072 14.317 3.1807C14.317 3.18069 14.3171 3.18066 14.3171 3.18064C14.3171 3.18061 14.3172 3.18057 14.3172 3.18054C14.3173 3.18047 14.3174 3.18039 14.3175 3.18032C14.3177 3.18017 14.3178 3.18001 14.318 3.17985C14.3184 3.17954 14.3188 3.1792 14.3193 3.17884C14.3201 3.17812 14.3211 3.17731 14.3221 3.17643C14.3242 3.17466 14.3267 3.17254 14.3296 3.17012C14.3351 3.16541 14.3428 3.15885 14.3516 3.15104C14.3602 3.14335 14.4024 3.1063 14.4466 3.05758L12.9644 1.71481C12.9858 1.69115 13.003 1.67472 13.0089 1.66908C13.0167 1.66171 13.0225 1.65648 13.0254 1.65397C13.0286 1.65114 13.0311 1.64893 13.033 1.64732C13.0341 1.64644 13.0351 1.64556 13.0362 1.64465C13.0367 1.64419 13.0373 1.64372 13.0379 1.64322C13.0382 1.64297 13.0385 1.64272 13.0388 1.64245C13.039 1.64232 13.0391 1.64219 13.0393 1.64205C13.0394 1.64199 13.0395 1.64192 13.0395 1.64185C13.0396 1.64182 13.0396 1.64178 13.0397 1.64175C13.0397 1.64173 13.0397 1.6417 13.0397 1.6417C13.0398 1.64167 13.0398 1.64164 13.6784 2.4112ZM13.0096 1.668C13.009 1.66859 13.0112 1.66641 13.0163 1.66188C13.0188 1.65962 13.022 1.65676 13.026 1.65335C13.0279 1.65165 13.0301 1.64981 13.0324 1.64784C13.0336 1.64685 13.0348 1.64583 13.036 1.64478C13.0367 1.64426 13.0373 1.64372 13.0379 1.64318C13.0383 1.64291 13.0386 1.64264 13.0389 1.64236C13.0391 1.64223 13.0393 1.64209 13.0394 1.64195C13.0395 1.64188 13.0396 1.64181 13.0397 1.64174C13.0397 1.64171 13.0398 1.64165 13.0398 1.64164C13.0399 1.64159 13.0399 1.64153 13.6784 2.4112C14.3168 3.18086 14.3169 3.18081 14.3169 3.18076C14.317 3.18074 14.317 3.18069 14.3171 3.18065C14.3172 3.18058 14.3172 3.18051 14.3173 3.18044C14.3175 3.1803 14.3177 3.18016 14.3178 3.18002C14.3182 3.17974 14.3185 3.17945 14.3189 3.17917C14.3195 3.1786 14.3202 3.17802 14.3209 3.17744C14.3223 3.17627 14.3237 3.17507 14.3252 3.17385C14.3281 3.17141 14.3311 3.16885 14.3341 3.16617C14.3403 3.16083 14.3469 3.15501 14.354 3.14869C14.368 3.13606 14.3838 3.12138 14.4013 3.10438L13.0096 1.668Z" fill="#9A9A9A" mask="url(#path-5-inside-1_52_1639)"/>
<mask id="path-7-inside-2_52_1639" fill="white">
<path d="M30.843 10.413C30.843 11.8983 29.6389 13.1024 28.1535 13.1024C26.6682 13.1024 25.4641 11.8983 25.4641 10.413C25.4641 8.92767 26.6682 7.72357 28.1535 7.72357C29.6389 7.72357 30.843 8.92767 30.843 10.413Z"/>
</mask>
<path d="M29.843 10.413C29.843 11.346 29.0866 12.1024 28.1535 12.1024V14.1024C30.1912 14.1024 31.843 12.4506 31.843 10.413H29.843ZM28.1535 12.1024C27.2205 12.1024 26.4641 11.346 26.4641 10.413H24.4641C24.4641 12.4506 26.1159 14.1024 28.1535 14.1024V12.1024ZM26.4641 10.413C26.4641 9.47995 27.2205 8.72357 28.1535 8.72357V6.72357C26.1159 6.72357 24.4641 8.37539 24.4641 10.413H26.4641ZM28.1535 8.72357C29.0866 8.72357 29.843 9.47995 29.843 10.413H31.843C31.843 8.37539 30.1912 6.72357 28.1535 6.72357V8.72357Z" fill="#9A9A9A" mask="url(#path-7-inside-2_52_1639)"/>
<mask id="path-9-inside-3_52_1639" fill="white">
<path d="M17.3959 10.413C17.3959 11.8983 16.1918 13.1024 14.7065 13.1024C13.2212 13.1024 12.0171 11.8983 12.0171 10.413C12.0171 8.92767 13.2212 7.72357 14.7065 7.72357C16.1918 7.72357 17.3959 8.92767 17.3959 10.413Z"/>
</mask>
<path d="M16.3959 10.413C16.3959 11.346 15.6396 12.1024 14.7065 12.1024V14.1024C16.7441 14.1024 18.3959 12.4506 18.3959 10.413H16.3959ZM14.7065 12.1024C13.7735 12.1024 13.0171 11.346 13.0171 10.413H11.0171C11.0171 12.4506 12.6689 14.1024 14.7065 14.1024V12.1024ZM13.0171 10.413C13.0171 9.47995 13.7735 8.72357 14.7065 8.72357V6.72357C12.6689 6.72357 11.0171 8.37539 11.0171 10.413H13.0171ZM14.7065 8.72357C15.6396 8.72357 16.3959 9.47995 16.3959 10.413H18.3959C18.3959 8.37539 16.7441 6.72357 14.7065 6.72357V8.72357Z" fill="#9A9A9A" mask="url(#path-9-inside-3_52_1639)"/>
</svg>
