<svg width="15" height="14" viewBox="0 0 15 14" fill="none" xmlns="http://www.w3.org/2000/svg">
<defs>
<linearGradient id="paint0_linear_1_37141" x1="0" y1="10.2064" x2="15" y2="10.2064" gradientUnits="userSpaceOnUse">
<stop stop-color="#FF8177"/>
<stop offset="1" stop-color="#B22B5B"/>
</linearGradient>
<linearGradient id="paint1_linear_1_37141" x1="4.86523" y1="4.20054" x2="13.3534" y2="4.20054" gradientUnits="userSpaceOnUse">
<stop stop-color="#FF8177"/>
<stop offset="1" stop-color="#B22B5B"/>
</linearGradient>
<linearGradient id="paint2_linear_1_37141" x1="9.29883" y1="5.25333" x2="11.1536" y2="5.25333" gradientUnits="userSpaceOnUse">
<stop stop-color="#FF8177"/>
<stop offset="1" stop-color="#B22B5B"/>
</linearGradient>
</defs>
<path d="M3.27349 12.8591C3.15788 13.0853 2.9683 13.1189 2.75135 13.1174C1.99886 13.1122 1.24667 13.116 0.494183 13.1151C0.141528 13.1148 0.000873629 12.9722 0.000873629 12.6195C0.00058242 10.8125 0 9.00575 0 7.19872C0 6.85859 0.145022 6.71482 0.487485 6.71482C1.26909 6.71482 2.05041 6.71453 2.83202 6.71482C3.12556 6.71482 3.26009 6.832 3.28572 7.12479C3.29475 7.22648 3.35008 7.22648 3.4223 7.22648C4.09208 7.22648 4.76215 7.23992 5.43165 7.22444C6.02397 7.21041 6.52193 7.3983 6.94069 7.81879C7.48933 8.3699 8.04613 8.91341 8.5971 9.46218C8.99664 9.86017 9.10293 10.4107 8.88248 10.9118C8.66553 11.4045 8.18678 11.7011 7.63494 11.6757C7.30645 11.6605 7.02602 11.5293 6.79334 11.2955C6.25111 10.7511 5.70742 10.2085 5.16781 9.66176C5.09064 9.58345 5.01376 9.54517 4.90135 9.5478C4.62499 9.55393 4.34805 9.5478 4.0714 9.54517C3.82912 9.54283 3.64886 9.37013 3.64478 9.13987C3.64071 8.90669 3.81223 8.72698 4.0583 8.72347C4.42231 8.71821 4.78632 8.72347 5.15034 8.72172C5.33001 8.72084 5.47009 8.78513 5.59938 8.91721C6.17394 9.50484 6.75781 10.0828 7.33645 10.6664C7.47652 10.8075 7.63377 10.8867 7.83325 10.8262C8.17659 10.7216 8.27473 10.3175 8.01497 10.0559C7.57641 9.61442 7.13056 9.18049 6.68763 8.74334C6.5563 8.6136 6.42438 8.48415 6.29275 8.3547C6.09269 8.15775 5.85099 8.05753 5.5723 8.05636C4.85884 8.05343 4.14508 8.05811 3.43162 8.05285C3.31135 8.05197 3.28572 8.09493 3.28601 8.20568C3.28892 9.30146 3.28659 10.3973 3.28863 11.493C3.28863 11.5521 3.29853 11.6289 3.33523 11.6675C3.66255 12.0126 3.99336 12.3545 4.33058 12.6896C4.45813 12.8165 4.61713 12.8632 4.80642 12.8623C6.12676 12.855 7.4474 12.8419 8.76716 12.8667C9.37375 12.8781 9.90608 12.7037 10.3979 12.3837C11.2078 11.8568 12.0066 11.313 12.8086 10.7739C13.1874 10.5191 13.5631 10.2596 13.9385 10.0001C14.1312 9.86689 14.2014 9.67608 14.1525 9.45166C14.1045 9.22958 13.9516 9.08201 13.7317 9.06623C13.5989 9.05659 13.4399 9.10393 13.3266 9.17786C12.3269 9.83124 11.3348 10.4969 10.3394 11.1573C10.2716 11.2023 10.1982 11.2479 10.121 11.2672C9.91948 11.3174 9.72757 11.2216 9.64778 11.0457C9.561 10.8537 9.61546 10.6448 9.80037 10.5194C10.2867 10.1901 10.7768 9.86601 11.266 9.54049C11.824 9.16909 12.379 8.7936 12.9411 8.42863C13.543 8.03766 14.3718 8.2162 14.7693 8.8126C15.1717 9.4163 15.0372 10.2538 14.4466 10.6576C13.2361 11.4854 12.0206 12.306 10.7966 13.1133C10.202 13.5055 9.54848 13.7284 8.81958 13.6913C8.43722 13.6718 8.05282 13.6872 7.6693 13.6881C6.69375 13.6899 5.7182 13.6881 4.74293 13.6969C4.42726 13.6998 4.14974 13.6095 3.90658 13.4155C3.73214 13.2764 3.56761 13.1247 3.399 12.978C3.35969 12.9439 3.3227 12.907 3.2732 12.8609L3.27349 12.8591ZM0.841305 12.2808C1.3649 12.2808 1.87364 12.2808 2.38239 12.2808C2.48082 12.2808 2.46917 12.2084 2.46917 12.1467C2.46975 10.6567 2.46888 9.16675 2.47121 7.67678C2.47121 7.56866 2.43451 7.53272 2.32764 7.53359C1.87161 7.53768 1.41528 7.53505 0.959245 7.53622C0.92197 7.53622 0.884695 7.54499 0.841014 7.55054V12.2808H0.841305Z" fill="url(#paint0_linear_1_37141)"/>
<path d="M4.86523 3.15142C4.86523 1.58517 5.99775 0.270229 7.55077 0.0341231C8.99284 -0.185327 10.4346 0.672894 10.9364 2.05592C10.976 2.1655 11.0339 2.21576 11.1417 2.24791C12.3345 2.60499 13.2081 3.66746 13.3357 4.90965C13.5113 6.61761 12.3677 8.1149 10.6641 8.3659C9.19232 8.58302 7.81519 7.73882 7.2948 6.36602C7.25082 6.25001 7.19579 6.18952 7.07493 6.15241C5.75546 5.74507 4.86553 4.53153 4.86523 3.15142ZM12.5273 5.25475C12.5273 3.99152 11.4958 2.94278 10.2515 2.94161C8.96489 2.94015 7.92323 3.96639 7.91507 5.24335C7.90692 6.5057 8.9579 7.56583 10.2183 7.56671C11.4873 7.56788 12.527 6.52673 12.5273 5.25475ZM10.0266 2.08865C9.74766 1.41219 8.78113 0.678154 7.62037 0.863999C6.5892 1.0291 5.71877 1.9931 5.69751 3.02109C5.67713 4.02104 6.34749 5.10338 7.06445 5.23984C7.24034 3.41996 8.22696 2.37093 10.0266 2.08865Z" fill="url(#paint1_linear_1_37141)"/>
<path d="M10.398 4.37034C10.398 4.57109 10.3928 4.72625 10.4021 4.88054C10.4041 4.91589 10.4496 4.95914 10.486 4.98018C10.5611 5.02372 10.6458 5.05002 10.7221 5.0921C11.0559 5.27648 11.1939 5.53626 11.1435 5.89801C11.0946 6.24925 10.8843 6.46431 10.5509 6.56133C10.463 6.58675 10.3864 6.60282 10.3861 6.72263C10.3861 6.74922 10.3086 6.79831 10.2687 6.79626C10.2227 6.79393 10.1444 6.7498 10.1412 6.71766C10.1295 6.60633 10.0608 6.6037 9.97955 6.59435C9.76784 6.57039 9.57273 6.50142 9.4146 6.35269C9.28588 6.23171 9.26666 6.10343 9.34616 5.95908C9.43353 5.80012 9.55263 5.77061 9.70901 5.86645C9.83394 5.94301 9.96091 6.01694 10.0867 6.09175C10.1004 6.08181 10.1141 6.07217 10.1278 6.06223C10.1278 5.87522 10.131 5.6882 10.1243 5.50119C10.1234 5.47518 10.0786 5.44362 10.0471 5.42755C9.96964 5.38781 9.88607 5.35976 9.80861 5.32002C9.46003 5.14119 9.33918 4.91998 9.37936 4.54186C9.40877 4.26251 9.61932 4.03868 9.94489 3.94605C10.041 3.91858 10.1484 3.91624 10.145 3.76955C10.1444 3.74881 10.2195 3.7079 10.2582 3.70994C10.3031 3.71199 10.3826 3.74881 10.3843 3.77423C10.3928 3.91303 10.4927 3.8955 10.5803 3.9142C10.698 3.93904 10.8197 3.96037 10.928 4.00946C11.0891 4.08222 11.1234 4.22482 11.0416 4.38904C10.9705 4.53135 10.8689 4.55648 10.6994 4.48109C10.6138 4.4431 10.5232 4.41563 10.3989 4.37005L10.398 4.37034ZM10.3753 6.0599C10.513 6.03944 10.596 5.97223 10.6033 5.83519C10.6103 5.70895 10.5171 5.61486 10.3622 5.58973C10.3622 5.72239 10.3616 5.8536 10.3628 5.98451C10.3628 6.0073 10.3701 6.03009 10.3753 6.0599ZM10.1549 4.41914C9.99498 4.44193 9.92014 4.50475 9.91694 4.61141C9.91344 4.72333 10.0017 4.80602 10.1549 4.83203V4.41914Z" fill="url(#paint2_linear_1_37141)"/>
</svg>
