<svg width="121" height="121" viewBox="0 0 121 121" fill="none" xmlns="http://www.w3.org/2000/svg">
<path d="M60.4985 90.751C64.07 90.751 67.35 91.999 69.926 94.083L60.4985 105.751L51.0705 94.083C53.6465 91.999 56.9265 90.751 60.4985 90.751ZM14.5363 7.71777L102.925 96.106L95.8535 103.177L77.4455 84.773L76.2105 86.304C71.917 82.831 66.4505 80.751 60.4985 80.751C54.548 80.751 49.0836 82.8295 44.7911 86.3L35.3662 74.6305C41.7461 69.4715 49.7443 66.235 58.48 65.801L49.6144 56.939C41.9622 58.6375 34.97 62.0895 29.0809 66.852L19.653 55.1845C24.9953 50.864 31.0362 47.3725 37.5797 44.9065L29.9225 37.246C23.9521 39.9148 18.3945 43.3411 13.372 47.4028L3.94531 35.7343C8.51595 32.038 13.4558 28.7801 18.7009 26.0246L7.4653 14.7889L14.5363 7.71777ZM80.92 60.098L61.5805 40.7628L60.4985 40.7508C75.972 40.7508 90.1825 46.1577 101.345 55.185L91.918 66.8535C88.5795 64.154 84.8865 61.875 80.92 60.098ZM60.4985 15.7508C81.9225 15.7508 101.598 23.2366 117.053 35.7352L107.625 47.403C94.7465 36.9884 78.351 30.7508 60.4985 30.7508C57.64 30.7508 54.819 30.9107 52.0435 31.2221L39.1208 18.305C45.9729 16.6357 53.132 15.7508 60.4985 15.7508Z" fill="#D9D9D9"/>
</svg>
