<svg width="17" height="19" viewBox="0 0 17 19" fill="none" xmlns="http://www.w3.org/2000/svg">
<path d="M13.5 6C13.5 4.67392 12.9732 3.40215 12.0355 2.46447C11.0979 1.52678 9.82608 1 8.5 1C7.17392 1 5.90215 1.52678 4.96447 2.46447C4.02678 3.40215 3.5 4.67392 3.5 6C3.5 11.8333 1 13.5 1 13.5H16C16 13.5 13.5 11.8333 13.5 6Z" stroke="#7C7C7C" stroke-width="1.5" stroke-linecap="round" stroke-linejoin="round"/>
<path d="M9.94193 16.8333C9.79542 17.0859 9.58513 17.2955 9.33212 17.4413C9.0791 17.587 8.79224 17.6637 8.50026 17.6637C8.20828 17.6637 7.92142 17.587 7.6684 17.4413C7.41539 17.2955 7.2051 17.0859 7.05859 16.8333" stroke="#7C7C7C" stroke-width="1.5" stroke-linecap="round" stroke-linejoin="round"/>
</svg>
