<svg width="56" height="40" viewBox="0 0 56 40" fill="none" xmlns="http://www.w3.org/2000/svg">
<defs>
<linearGradient id="paint0_linear_2027_108" x1="17.111" y1="13.6955" x2="38.8889" y2="13.6955" gradientUnits="userSpaceOnUse">
<stop stop-color="#BA973B"/>
<stop offset="0.12" stop-color="#A57D24"/>
<stop offset="0.33" stop-color="#F1DD80"/>
<stop offset="0.61" stop-color="#F1DD80"/>
<stop offset="0.67" stop-color="#D9BF63"/>
<stop offset="0.75" stop-color="#C2A247"/>
<stop offset="0.82" stop-color="#B28D33"/>
<stop offset="0.9" stop-color="#A88128"/>
<stop offset="0.97" stop-color="#A57D24"/>
</linearGradient>
<linearGradient id="paint1_linear_2027_108" x1="18.6382" y1="21.2825" x2="37.4155" y2="21.2825" gradientUnits="userSpaceOnUse">
<stop stop-color="#BA973B"/>
<stop offset="0.12" stop-color="#A57D24"/>
<stop offset="0.26" stop-color="#F1DD80"/>
<stop offset="0.37" stop-color="#F1DD80"/>
<stop offset="0.47" stop-color="#D9BF63"/>
<stop offset="0.6" stop-color="#C2A247"/>
<stop offset="0.73" stop-color="#B28D33"/>
<stop offset="0.85" stop-color="#A88128"/>
<stop offset="0.97" stop-color="#A57D24"/>
</linearGradient>
<linearGradient id="paint2_linear_2027_108" x1="17" y1="13.6952" x2="39" y2="13.6952" gradientUnits="userSpaceOnUse">
<stop offset="0.03" stop-color="#A57D24"/>
<stop offset="0.13" stop-color="#A88128"/>
<stop offset="0.23" stop-color="#B28D33"/>
<stop offset="0.34" stop-color="#C2A247"/>
<stop offset="0.44" stop-color="#D9BF63"/>
<stop offset="0.53" stop-color="#F1DD80"/>
<stop offset="0.74" stop-color="#F1DD80"/>
<stop offset="0.88" stop-color="#A57D24"/>
<stop offset="1" stop-color="#BA973B"/>
</linearGradient>
<linearGradient id="paint3_linear_2027_108" x1="18.5073" y1="21.2826" x2="37.5449" y2="21.2826" gradientUnits="userSpaceOnUse">
<stop offset="0.03" stop-color="#A57D24"/>
<stop offset="0.13" stop-color="#A88128"/>
<stop offset="0.23" stop-color="#B28D33"/>
<stop offset="0.34" stop-color="#C2A247"/>
<stop offset="0.44" stop-color="#D9BF63"/>
<stop offset="0.53" stop-color="#F1DD80"/>
<stop offset="0.74" stop-color="#F1DD80"/>
<stop offset="0.88" stop-color="#A57D24"/>
<stop offset="1" stop-color="#BA973B"/>
</linearGradient>
<clipPath id="clip0_2027_108">
<rect width="22" height="15" fill="white" transform="translate(17 7)"/>
</clipPath>
</defs>
<rect x="0.5" y="0.5" width="55" height="39" rx="4.5" fill="black" fill-opacity="0.21" stroke="#656565"/>
<path d="M7.6 26.07C7.88 26.0167 8.18667 25.9767 8.52 25.95C8.86 25.9167 9.19667 25.9 9.53 25.9C9.87667 25.9 10.2233 25.93 10.57 25.99C10.9233 26.0433 11.24 26.1567 11.52 26.33C11.8 26.4967 12.0267 26.7333 12.2 27.04C12.38 27.34 12.47 27.7333 12.47 28.22C12.47 28.66 12.3933 29.0333 12.24 29.34C12.0867 29.64 11.8833 29.8867 11.63 30.08C11.3767 30.2733 11.0867 30.4133 10.76 30.5C10.44 30.5867 10.1067 30.63 9.76 30.63C9.72667 30.63 9.67333 30.63 9.6 30.63C9.52667 30.63 9.45 30.63 9.37 30.63C9.29 30.6233 9.21 30.6167 9.13 30.61C9.05667 30.6033 9.00333 30.5967 8.97 30.59V33H7.6V26.07ZM9.64 27.08C9.50667 27.08 9.38 27.0867 9.26 27.1C9.14 27.1067 9.04333 27.1167 8.97 27.13V29.4C8.99667 29.4067 9.03667 29.4133 9.09 29.42C9.14333 29.4267 9.2 29.4333 9.26 29.44C9.32 29.44 9.37667 29.44 9.43 29.44C9.49 29.44 9.53333 29.44 9.56 29.44C9.74 29.44 9.91667 29.4233 10.09 29.39C10.27 29.3567 10.43 29.2967 10.57 29.21C10.71 29.1167 10.82 28.99 10.9 28.83C10.9867 28.67 11.03 28.46 11.03 28.2C11.03 27.98 10.99 27.8 10.91 27.66C10.83 27.5133 10.7233 27.3967 10.59 27.31C10.4633 27.2233 10.3167 27.1633 10.15 27.13C9.98333 27.0967 9.81333 27.08 9.64 27.08ZM13.3227 26.07C13.476 26.0433 13.6393 26.02 13.8127 26C13.9927 25.9733 14.1693 25.9533 14.3427 25.94C14.5227 25.9267 14.696 25.9167 14.8627 25.91C15.0293 25.9033 15.1827 25.9 15.3227 25.9C15.6493 25.9 15.9693 25.93 16.2827 25.99C16.6027 26.05 16.886 26.1533 17.1327 26.3C17.386 26.4467 17.586 26.65 17.7327 26.91C17.886 27.1633 17.9627 27.4833 17.9627 27.87C17.9627 28.4433 17.8293 28.91 17.5627 29.27C17.296 29.63 16.9393 29.88 16.4927 30.02L16.9827 30.33L18.5827 33H17.0027L15.4127 30.26L14.6927 30.13V33H13.3227V26.07ZM15.4227 27.12C15.2827 27.12 15.1427 27.1233 15.0027 27.13C14.8693 27.1367 14.766 27.15 14.6927 27.17V29.2H15.2727C15.6527 29.2 15.956 29.1133 16.1827 28.94C16.4093 28.7667 16.5227 28.48 16.5227 28.08C16.5227 27.78 16.4293 27.5467 16.2427 27.38C16.056 27.2067 15.7827 27.12 15.4227 27.12ZM19.3383 26H23.4883V27.22H20.7083V28.85H23.2383V30.07H20.7083V31.78H23.5383V33H19.3383V26ZM29.9929 29.37L30.1429 27.98H30.0829L29.6529 29.1L28.1629 31.71H27.7229L26.1529 29.09L25.7129 27.98H25.6629L25.8629 29.36V33H24.5629V26H25.8129L27.6829 29.2L28.0129 30H28.0529L28.3529 29.18L30.1229 26H31.3629V33H29.9929V29.37ZM32.7009 26H34.0709V33H32.7009V26ZM39.2125 26H40.5125V30.52C40.5125 30.9733 40.4525 31.3633 40.3325 31.69C40.2125 32.0167 40.0458 32.2867 39.8325 32.5C39.6192 32.7133 39.3592 32.87 39.0525 32.97C38.7458 33.07 38.4092 33.12 38.0425 33.12C36.2692 33.12 35.3825 32.31 35.3825 30.69V26H36.7525V30.42C36.7525 30.6933 36.7758 30.9267 36.8225 31.12C36.8758 31.3067 36.9558 31.46 37.0625 31.58C37.1692 31.6933 37.3025 31.7767 37.4625 31.83C37.6225 31.8767 37.8092 31.9 38.0225 31.9C38.4425 31.9 38.7458 31.7833 38.9325 31.55C39.1192 31.3167 39.2125 30.94 39.2125 30.42V26ZM47.112 29.37L47.262 27.98H47.202L46.772 29.1L45.282 31.71H44.842L43.272 29.09L42.832 27.98H42.782L42.982 29.36V33H41.682V26H42.932L44.802 29.2L45.132 30H45.172L45.472 29.18L47.242 26H48.482V33H47.112V29.37Z" fill="#F1DD80"/>
<g clip-path="url(#clip0_2027_108)">
<path d="M38.4031 13.3456C38.1348 13.3456 37.9181 13.5825 37.9181 13.8738C37.9181 14.0362 37.9856 14.181 38.0904 14.2773C37.5965 14.9052 37.0458 15.5556 36.4329 16.2086C35.6485 17.0441 34.8917 17.7456 34.1917 18.3341C33.9599 17.0248 33.7449 15.6159 33.5628 14.1132C33.4465 13.1555 33.3523 12.2288 33.2759 11.3364C33.5424 11.3347 33.7582 11.0987 33.7582 10.8082C33.7582 10.5177 33.5406 10.2799 33.2732 10.2799C33.0059 10.2799 32.7882 10.5168 32.7882 10.8082C32.7882 10.9714 32.8566 11.1179 32.9632 11.215C32.5795 11.9978 32.1442 12.819 31.6495 13.6612C31.1352 14.5368 30.6244 15.3196 30.1341 16.0144C29.7628 14.7704 29.3959 13.4469 29.0442 12.0471C28.7617 10.9237 28.3593 9.10876 28.1461 8.13767C28.3424 8.06986 28.4845 7.86978 28.4845 7.63371C28.4845 7.34154 28.2669 7.10547 27.9995 7.10547C27.7322 7.10547 27.5145 7.34238 27.5145 7.63371C27.5145 7.86978 27.6567 8.06986 27.853 8.13767C27.6398 9.10876 27.2374 10.9229 26.9549 12.0471C26.6032 13.4469 26.2363 14.7704 25.865 16.0144C25.3747 15.3187 24.8639 14.536 24.3496 13.6612C23.8673 12.8408 23.4418 12.0405 23.066 11.2761C23.2197 11.1874 23.3254 11.0116 23.3254 10.809C23.3254 10.5168 23.1078 10.2808 22.8404 10.2808C22.573 10.2808 22.3554 10.5177 22.3554 10.809C22.3554 11.0576 22.5126 11.2653 22.7249 11.3222C22.6485 12.2196 22.5535 13.1513 22.4371 14.1149C22.255 15.6167 22.0401 17.0257 21.8082 18.3358C21.1083 17.7473 20.3515 17.0458 19.5671 16.2103C18.9551 15.559 18.4052 14.9102 17.9131 14.2832C18.0171 14.1861 18.0828 14.0429 18.0828 13.8822C18.0828 13.59 17.8652 13.3539 17.5978 13.3539C17.3304 13.3539 17.1128 13.5908 17.1128 13.8822C17.1128 14.1735 17.3304 14.4104 17.5978 14.4104C17.636 14.4104 17.6733 14.4054 17.7088 14.3962C17.8856 15.2425 18.0535 16.15 18.2045 17.1161C18.3786 18.2362 18.5083 19.2977 18.6042 20.2889H37.3984C37.4943 19.2977 37.624 18.2362 37.7981 17.1161C37.9491 16.1475 38.1179 15.2384 38.2947 14.3895C38.3302 14.3987 38.3666 14.4037 38.4039 14.4037C38.6722 14.4037 38.8889 14.1668 38.8889 13.8755C38.8889 13.5841 38.6713 13.3472 38.4039 13.3472L38.4031 13.3456Z" fill="url(#paint0_linear_2027_108)"/>
<path d="M37.2121 21.8945H18.8407L18.6382 20.6697H37.4155L37.2121 21.8945Z" fill="url(#paint1_linear_2027_108)"/>
<path d="M37.4988 20.3916H18.5012L18.4923 20.2961C18.3902 19.238 18.2551 18.1723 18.0926 17.1292C17.9567 16.2577 17.7977 15.3779 17.6191 14.5131C17.2807 14.5282 17 14.2377 17 13.8803C17 13.5228 17.2674 13.2465 17.596 13.2465C17.9247 13.2465 18.1921 13.5303 18.1921 13.8803C18.1921 14.0293 18.1423 14.1724 18.0535 14.2854C18.5669 14.9351 19.1034 15.5579 19.6488 16.138C20.3151 16.8471 21.015 17.516 21.7301 18.1271C21.9619 16.7985 22.1618 15.4449 22.3252 14.1004C22.4336 13.2089 22.5278 12.2972 22.6059 11.3897C22.3883 11.2918 22.2426 11.0649 22.2426 10.8071C22.2426 10.458 22.51 10.1734 22.8387 10.1734C23.1673 10.1734 23.4347 10.4572 23.4347 10.8071C23.4347 11.0055 23.3476 11.1888 23.2037 11.3077C23.5955 12.0988 24.013 12.8723 24.4456 13.6082C24.8808 14.3491 25.3436 15.0732 25.8224 15.763C26.1866 14.5324 26.5303 13.2742 26.8457 12.0209C27.137 10.8607 27.5625 8.93355 27.7251 8.19518C27.5288 8.08803 27.4017 7.87288 27.4017 7.63178C27.4017 7.28269 27.6691 6.9989 27.9978 6.9989C28.3264 6.9989 28.5938 7.28269 28.5938 7.63178C28.5938 7.87288 28.4668 8.08803 28.2705 8.19518C28.433 8.93355 28.8585 10.8607 29.1499 12.0209C29.4652 13.275 29.809 14.5324 30.1732 15.763C30.652 15.0732 31.1147 14.3491 31.55 13.6082C31.9959 12.8489 32.4267 12.0494 32.8291 11.2324C32.7305 11.1168 32.6746 10.9653 32.6746 10.8071C32.6746 10.458 32.9419 10.1734 33.2706 10.1734C33.5993 10.1734 33.8666 10.4572 33.8666 10.8071C33.8666 11.111 33.6623 11.3663 33.3923 11.4266C33.4705 12.3215 33.5637 13.2206 33.6703 14.1004C33.8338 15.4457 34.0336 16.7994 34.2655 18.1271C34.9814 17.5151 35.6805 16.8471 36.3467 16.138C36.893 15.5562 37.4304 14.9325 37.9447 14.2821C37.8541 14.1682 37.8035 14.0242 37.8035 13.8727C37.8035 13.5236 38.0709 13.239 38.3995 13.239C38.7282 13.239 38.9956 13.5228 38.9956 13.8727C38.9956 14.2226 38.7282 14.5056 38.3995 14.5056C38.3924 14.5056 38.3853 14.5056 38.3782 14.5056C38.1988 15.372 38.0389 16.2544 37.903 17.1284C37.7404 18.1715 37.6063 19.2372 37.5033 20.2953L37.4944 20.3907L37.4988 20.3916ZM18.7046 20.1823H37.2954C37.3967 19.1518 37.529 18.1154 37.6871 17.0991C37.8292 16.1883 37.9962 15.2691 38.1846 14.3675L38.1943 14.3214L38.1801 14.3398C37.6454 15.0196 37.0858 15.6717 36.5164 16.2778C35.7978 17.043 35.0409 17.7604 34.2655 18.4117L34.1154 18.5381L34.0825 18.3506C33.8355 16.9584 33.6241 15.537 33.4527 14.1247C33.3417 13.2097 33.2448 12.2746 33.1658 11.3445L33.156 11.2324H33.2759C33.4811 11.2307 33.6481 11.0406 33.6481 10.8079C33.6481 10.5752 33.4802 10.3843 33.2742 10.3843C33.0681 10.3843 32.9002 10.5744 32.9002 10.8079C32.9002 10.9368 32.9517 11.0574 33.0414 11.1386L33.0983 11.1905L33.0654 11.2583C32.6515 12.1021 32.2082 12.9276 31.7481 13.7111C31.2693 14.5257 30.7577 15.3201 30.2282 16.0719L30.0941 16.2619L30.0284 16.0418C29.6393 14.7383 29.2716 13.4022 28.9367 12.0703C28.6329 10.8623 28.1852 8.82723 28.0378 8.15835L28.0182 8.06961L28.1079 8.03864C28.2643 7.98422 28.3735 7.81763 28.3735 7.63346C28.3735 7.39989 28.2056 7.20986 27.9996 7.20986C27.7935 7.20986 27.6256 7.39989 27.6256 7.63346C27.6256 7.81847 27.7348 7.98506 27.8912 8.03864L27.9809 8.06961L27.9614 8.15835C27.8139 8.82723 27.3662 10.8623 27.0624 12.0703C26.7275 13.4014 26.3607 14.7383 25.9716 16.0418L25.9059 16.2619L25.7718 16.0719C25.2423 15.3201 24.7307 14.5257 24.2519 13.7111C23.8024 12.9468 23.3698 12.1423 22.9648 11.3194L22.923 11.2349L23.0074 11.1863C23.1345 11.1135 23.2135 10.9687 23.2135 10.8079C23.2135 10.5744 23.0456 10.3843 22.8395 10.3843C22.6335 10.3843 22.4656 10.5744 22.4656 10.8079C22.4656 11.0055 22.5846 11.1746 22.7543 11.2198L22.8422 11.2432L22.8351 11.3295C22.7552 12.2646 22.6583 13.2055 22.5464 14.1255C22.375 15.5378 22.1636 16.9593 21.9166 18.3515L21.8838 18.539L21.7336 18.4126C20.9591 17.7613 20.2014 17.0438 19.4827 16.2787C18.9142 15.6734 18.3555 15.023 17.8225 14.3449L17.8057 14.3231L17.8163 14.3758C18.0038 15.2758 18.1708 16.1925 18.3129 17.1008C18.471 18.1162 18.6025 19.1534 18.7046 20.184V20.1823ZM17.596 13.4567C17.39 13.4567 17.2221 13.6467 17.2221 13.8803C17.2221 14.1138 17.39 14.3038 17.596 14.3038C17.6227 14.3038 17.6493 14.3005 17.6778 14.293L17.7648 14.2704L17.8332 14.2059C17.9203 14.1247 17.97 14.0058 17.97 13.8794C17.97 13.6458 17.8021 13.4558 17.596 13.4558V13.4567ZM38.2361 14.2653L38.3222 14.2871C38.3498 14.2938 38.3773 14.298 38.4031 14.298C38.6092 14.298 38.777 14.108 38.777 13.8744C38.777 13.6408 38.6092 13.4508 38.4031 13.4508C38.197 13.4508 38.0291 13.6408 38.0291 13.8744C38.0291 14.0025 38.0797 14.1222 38.1677 14.2034L38.2361 14.2662V14.2653Z" fill="url(#paint2_linear_2027_108)"/>
<path d="M37.3077 22H18.7454L18.5073 20.5651H37.5449L37.3069 22H37.3077ZM18.9364 21.7907H37.1177L37.2864 20.7752H18.7676L18.9364 21.7907Z" fill="url(#paint3_linear_2027_108)"/>
</g>
</svg>
