<svg width="21" height="16" viewBox="0 0 21 16" fill="none" xmlns="http://www.w3.org/2000/svg">
<path d="M18.8524 2.58937C17.7252 2.58937 16.8081 3.46055 16.8081 4.53138C16.8081 4.74983 16.8469 4.95974 16.9172 5.15589L13.5568 7.58175L11.7962 3.40026C12.2226 3.04409 12.4925 2.5226 12.4925 1.94201C12.4925 0.871187 11.5755 0 10.4483 0C9.32111 0 8.40406 0.871187 8.40406 1.94201C8.40406 2.5226 8.67396 3.04409 9.10043 3.40026L7.33981 7.58175L3.97945 5.15589C4.04974 4.95974 4.08847 4.74983 4.08847 4.53138C4.08847 3.46055 3.17143 2.58937 2.04423 2.58937C0.917042 2.58937 0 3.46055 0 4.53138C0 5.54013 0.813865 6.37142 1.85053 6.4644L3.89713 14.2414H3.40704C3.03074 14.2414 2.72562 14.5312 2.72562 14.8888C2.72562 15.2463 3.0307 15.5361 3.40704 15.5361C4.29017 15.5361 16.6055 15.5361 17.4895 15.5361C17.8658 15.5361 18.1709 15.2463 18.1709 14.8888C18.1709 14.5312 17.8659 14.2414 17.4895 14.2414H16.9994L19.046 6.4644C20.0827 6.37138 20.8966 5.54013 20.8966 4.53138C20.8966 3.46055 19.9796 2.58937 18.8524 2.58937ZM10.4483 1.29466C10.824 1.29466 11.1297 1.58507 11.1297 1.94201C11.1297 2.29896 10.824 2.58937 10.4483 2.58937C10.0726 2.58937 9.76687 2.29896 9.76687 1.94201C9.76687 1.58507 10.0726 1.29466 10.4483 1.29466ZM2.04423 5.17869C1.6685 5.17869 1.36281 4.88828 1.36281 4.53134C1.36281 4.1744 1.6685 3.88399 2.04423 3.88399C2.41996 3.88399 2.72566 4.1744 2.72566 4.53134C2.72566 4.88832 2.41996 5.17869 2.04423 5.17869ZM15.5947 14.2415H5.30194L4.77793 12.2502H8.52924C8.79342 13.0016 9.54048 13.5449 10.4192 13.5449C11.2978 13.5449 12.0448 13.0016 12.3091 12.2502H16.1188L15.5947 14.2415ZM9.6859 11.6521C9.6859 11.268 10.0148 10.9555 10.4192 10.9555C10.8235 10.9555 11.1524 11.2679 11.1524 11.6521C11.1524 12.0362 10.8235 12.3487 10.4192 12.3487C10.0148 12.3486 9.6859 12.0362 9.6859 11.6521ZM16.4335 11.054H12.309C12.0448 10.3026 11.2978 9.75931 10.4191 9.75931C9.54044 9.75931 8.79338 10.3026 8.52916 11.054H4.4631L3.18861 6.2111L7.22777 9.12704C7.58701 9.38636 8.10608 9.24778 8.27268 8.85207L10.3653 3.88209C10.4351 3.88477 10.4614 3.88477 10.5312 3.88209L12.6238 8.85207C12.7909 9.24895 13.3107 9.38547 13.6687 9.12704L17.7079 6.2111L16.4335 11.054ZM18.8524 5.17869C18.4766 5.17869 18.1709 4.88828 18.1709 4.53134C18.1709 4.1744 18.4766 3.88399 18.8524 3.88399C19.2281 3.88399 19.5338 4.1744 19.5338 4.53134C19.5338 4.88832 19.2281 5.17869 18.8524 5.17869Z" fill="white"/>
</svg>
