<svg width="9" height="11" viewBox="0 0 9 11" fill="none" xmlns="http://www.w3.org/2000/svg">
<path d="M1.77734 1C1.77734 1.34513 1.77734 2.1469 1.77734 2.59292C1.77734 3.15044 2.15782 3.9469 3.04559 4.74336C3.48947 5.14159 3.36265 5.85841 3.04559 6.09734C2.72853 6.33628 1.77734 7.21239 1.77734 8.16814C1.77734 8.93274 1.77734 9.70796 1.77734 10" stroke="white" stroke-linecap="round"/>
<path d="M7.26074 1.23047C7.26074 1.56045 7.26074 2.32702 7.26074 2.75346C7.26074 3.2865 6.87099 4.04799 5.96156 4.80949C5.50685 5.19023 5.63677 5.87558 5.96156 6.10403C6.28636 6.33247 7.26074 7.17012 7.26074 8.08391C7.26074 8.81494 7.26074 9.55613 7.26074 9.83534" stroke="white" stroke-linecap="round"/>
<path d="M1 1H8" stroke="white" stroke-linecap="round"/>
<path d="M1 10H8" stroke="white" stroke-linecap="round"/>
</svg>
