<svg width="28" height="28" viewBox="0 0 28 28" fill="none" xmlns="http://www.w3.org/2000/svg">
<circle cx="14" cy="14" r="14" fill="#F6F6F6"/>
<path d="M17.2071 11.5234C18.2241 11.5234 19.0485 10.7346 19.0485 9.76168C19.0485 8.78873 18.2241 8 17.2071 8C16.1901 8 15.3657 8.78873 15.3657 9.76168C15.3657 10.7346 16.1901 11.5234 17.2071 11.5234Z" stroke="black" stroke-linecap="round" stroke-linejoin="round"/>
<path d="M9.84138 15.6342C10.8583 15.6342 11.6828 14.8455 11.6828 13.8725C11.6828 12.8996 10.8583 12.1108 9.84138 12.1108C8.82441 12.1108 8 12.8996 8 13.8725C8 14.8455 8.82441 15.6342 9.84138 15.6342Z" stroke="black" stroke-linecap="round" stroke-linejoin="round"/>
<path d="M17.2071 19.7441C18.2241 19.7441 19.0485 18.9553 19.0485 17.9824C19.0485 17.0094 18.2241 16.2207 17.2071 16.2207C16.1901 16.2207 15.3657 17.0094 15.3657 17.9824C15.3657 18.9553 16.1901 19.7441 17.2071 19.7441Z" stroke="black" stroke-linecap="round" stroke-linejoin="round"/>
<path d="M11.4307 14.7588L15.6229 17.0959" stroke="black" stroke-linecap="round" stroke-linejoin="round"/>
<path d="M15.6167 10.6484L11.4307 12.9856" stroke="black" stroke-linecap="round" stroke-linejoin="round"/>
</svg>
