<svg width="18" height="20" viewBox="0 0 18 20" fill="none" xmlns="http://www.w3.org/2000/svg">
<defs>
<linearGradient id="paint0_linear_173_14757" x1="0" y1="10.0015" x2="18" y2="10.0015" gradientUnits="userSpaceOnUse">
<stop stop-color="#FF8177"/>
<stop offset="1" stop-color="#B22B5B"/>
</linearGradient>
</defs>
<path fill-rule="evenodd" clip-rule="evenodd" d="M14 8C16.2091 8 18 6.20914 18 4C18 1.79086 16.2091 0 14 0C11.7909 0 10 1.79086 10 4C10 4.5173 10.0982 5.01166 10.277 5.46546L6.95234 7.30113C6.22097 6.50151 5.16905 6 4 6C1.79086 6 0 7.79086 0 10C0 12.2091 1.79086 14 4 14C5.08236 14 6.06431 13.5701 6.78443 12.8718L10.1972 14.7561C10.0692 15.1476 10 15.5657 10 16C10 18.2091 11.7909 20 14 20C16.2091 20 18 18.2091 18 16C18 13.7909 16.2091 12 14 12C12.8156 12 11.7514 12.5148 11.019 13.3328L7.70746 11.5044C7.89609 11.04 8 10.5321 8 10C8 9.65719 7.95687 9.32445 7.87575 9.00691L11.4151 7.05269C12.1123 7.64361 13.0145 8 14 8ZM12.1573 15.2211L12.3576 14.8584C12.7189 14.3395 13.3198 14 14 14C15.1046 14 16 14.8954 16 16C16 17.1046 15.1046 18 14 18C12.8954 18 12 17.1046 12 16C12 15.7237 12.056 15.4605 12.1573 15.2211ZM14 6C15.1046 6 16 5.10457 16 4C16 2.89543 15.1046 2 14 2C12.8954 2 12 2.89543 12 4C12 5.10457 12.8954 6 14 6ZM4 12C5.10457 12 6 11.1046 6 10C6 8.89543 5.10457 8 4 8C2.89543 8 2 8.89543 2 10C2 11.1046 2.89543 12 4 12Z" fill="url(#paint0_linear_173_14757)"/>
</svg>
