<svg width="227" height="109" viewBox="0 0 227 109" fill="none" xmlns="http://www.w3.org/2000/svg">
<ellipse cx="113.5" cy="104" rx="113.5" ry="5" fill="#353333" fill-opacity="0.25"/>
<defs>
<linearGradient id="paint0_linear_48_20825" x1="94.6796" y1="89.2493" x2="117.319" y2="99.329" gradientUnits="userSpaceOnUse">
<stop stop-color="#F46444"/>
<stop offset="1" stop-color="#F48E19"/>
</linearGradient>
<linearGradient id="paint1_linear_48_20825" x1="120.846" y1="87.9634" x2="140.339" y2="94.2732" gradientUnits="userSpaceOnUse">
<stop stop-color="#F46444"/>
<stop offset="1" stop-color="#F48E19"/>
</linearGradient>
<linearGradient id="paint2_linear_48_20825" x1="212.097" y1="21.7222" x2="200.348" y2="8.22242" gradientUnits="userSpaceOnUse">
<stop stop-color="#343A44"/>
<stop offset="0.3" stop-color="#232C3D"/>
<stop offset="0.64" stop-color="#172339"/>
<stop offset="1" stop-color="#142138"/>
</linearGradient>
<linearGradient id="paint3_linear_48_20825" x1="168.676" y1="41.8563" x2="202.389" y2="41.8563" gradientUnits="userSpaceOnUse">
<stop stop-color="#FF8177"/>
<stop offset="1" stop-color="#B22B5B"/>
</linearGradient>
<linearGradient id="paint4_linear_48_20825" x1="149.516" y1="45.1129" x2="204.312" y2="45.1129" gradientUnits="userSpaceOnUse">
<stop stop-color="#343A44"/>
<stop offset="0.3" stop-color="#232C3D"/>
<stop offset="0.64" stop-color="#172339"/>
<stop offset="1" stop-color="#142138"/>
</linearGradient>
<linearGradient id="paint5_linear_48_20825" x1="200.191" y1="54.0088" x2="207.328" y2="54.0088" gradientUnits="userSpaceOnUse">
<stop stop-color="#FF8177"/>
<stop offset="1" stop-color="#B22B5B"/>
</linearGradient>
<linearGradient id="paint6_linear_48_20825" x1="194.908" y1="45.9289" x2="208.046" y2="45.9289" gradientUnits="userSpaceOnUse">
<stop stop-color="#FF8177"/>
<stop offset="1" stop-color="#B22B5B"/>
</linearGradient>
<linearGradient id="paint7_linear_48_20825" x1="198.588" y1="72.8273" x2="204.495" y2="72.8273" gradientUnits="userSpaceOnUse">
<stop stop-color="#FF8177"/>
<stop offset="1" stop-color="#B22B5B"/>
</linearGradient>
</defs>
<path d="M180.092 63.4538L198.893 104L201.01 103.994L184.755 60.8223L180.092 63.4538Z" fill="#DCA86E"/>
<path d="M112.868 95.312L103.313 103.658L92.0469 95.7458C92.0469 95.7458 95.8804 94.4614 102.455 96.2082L109.183 90.5684L112.868 95.312Z" fill="url(#paint0_linear_48_20825)"/>
<path d="M168.191 49.2915C168.191 49.2915 147.073 60.0917 139.606 63.3226C132.145 66.5535 106.758 91.9156 106.758 91.9156C106.758 91.9156 110.008 98.5201 111.633 97.3613C125.965 87.1377 139.171 77.9873 147.656 74.7963C164.461 68.4772 169.141 67.1015 173.45 62.1238C173.45 62.1238 170.926 56.1415 168.191 49.2915Z" fill="black"/>
<path d="M135.28 91.0535L132.528 103.423L118.756 103.697C118.756 103.697 121.085 100.398 127.424 97.9263L129.501 89.4038L135.286 91.0535H135.28Z" fill="url(#paint1_linear_48_20825)"/>
<path d="M168.7 46.5515C168.7 46.5515 149.051 48.6636 141.888 52.5167C134.724 56.3698 129.025 91.653 129.025 91.653C129.025 91.653 134.587 94.667 135.279 92.7947C140.835 77.7018 146.997 65.8799 146.997 65.8799C154.058 64.5955 170.405 72.5301 182.226 60.9194C182.226 60.9194 172.007 53.156 168.7 46.5572V46.5515Z" fill="#353333"/>
<path d="M160.645 64.3214L141.838 104L139.721 103.994L155.982 63.4194L160.645 64.3214Z" fill="#DCA86E"/>
<path d="M202.555 22.7248C202.555 22.7248 201.136 25.0709 200.243 28.005L192.164 27.2629C192.164 27.2629 196.335 20.9552 196.015 17.1306L202.555 22.7305V22.7248Z" fill="#FEC4AD"/>
<path d="M200.814 9.69271C200.357 9.57284 198.629 9.09905 198.28 9.23605C197.793 9.43584 198.36 10.0695 198.016 10.4519C197.467 11.0798 196.357 11.0913 195.648 11.4737C194.784 11.9361 194.126 12.5412 193.731 13.2319C193.073 14.385 195.47 16.9594 195.842 18.8888C196.626 22.9246 201.741 23.524 205.895 22.2853C207.383 21.8457 208.745 20.51 209.557 19.2199C210.507 17.7015 209.975 15.1613 209.174 13.6486C208.693 12.741 207.749 11.9589 206.919 11.3881C206.17 10.8743 205.964 8.72801 205.06 8.57959C205.06 8.57959 201.838 9.961 200.809 9.68701L200.814 9.69271Z" fill="#FEC4AD"/>
<path d="M212.42 20.5329C212.42 20.5329 212.282 19.8536 213.449 18.7519C217.329 15.1099 213.18 7.98595 208.952 6.74724C206.789 6.11362 205.41 6.78149 204.632 4.64087C204.69 4.79499 203.757 5.18887 203.665 5.26308C203.156 5.6912 202.916 5.99374 202.899 6.70157C202.83 9.81261 205.622 12.7124 207.733 14.6761C208.683 15.5552 206.343 14.9501 205.405 15.1271C204.793 15.2469 203.202 16.9195 202.859 17.1764C203.745 18.2781 204.535 17.2848 205.731 17.8157C206.835 18.3066 206.137 19.7109 205.107 19.8764C203.511 20.1333 202.864 19.0829 202.864 19.0829C202.132 19.4768 202.017 21.8401 201.445 22.4566C202.235 22.8904 206.858 23.701 207.939 23.6896C210.251 23.661 211.676 22.3823 212.42 20.5329Z" fill="url(#paint2_linear_48_20825)"/>
<path d="M202.291 23.9749C203.985 42.8295 182.226 60.9078 182.226 60.9078C182.226 60.9078 168.019 61.4387 168.699 46.5456C168.699 46.5456 169.804 43.8399 178.604 35.8825C184.48 30.568 188.611 22.6392 192.742 22.799C204.037 23.2328 202.291 23.9749 202.291 23.9749Z" fill="url(#paint3_linear_48_20825)"/>
<path d="M149.516 61.9524C149.516 61.9524 162.618 66.8273 180.087 60.2171C197.555 53.6069 202.315 22.7419 202.315 22.7419L204.312 23.7523C204.312 23.7523 202.367 57.8082 179.371 65.2119C161.794 70.8688 149.516 64.133 149.516 64.133V61.9467V61.9524Z" fill="url(#paint4_linear_48_20825)"/>
<path d="M200.191 42.8123C200.191 42.8123 202.286 50.0448 202.4 53.6524C202.514 57.2601 200.97 69.4988 200.97 69.4988L204.3 69.9212C204.3 69.9212 207.258 55.3307 207.326 50.5699C207.395 45.8092 204.643 38.0916 204.643 38.0916L200.191 42.8123Z" fill="url(#paint5_linear_48_20825)"/>
<path d="M199.986 43.1206C202.401 53.6524 201.4 67.7748 201.4 67.7748L205.01 68.0032C208.969 59.7375 208.597 41.4252 206.503 33.7247C205.273 29.198 204.546 24.637 201.48 23.9292C199.563 23.4896 195.615 24.8882 195.083 26.7834C193.933 30.8876 198.796 37.9488 199.981 43.1206H199.986Z" fill="url(#paint6_linear_48_20825)"/>
<path d="M199.483 71.3197C198.688 72.8324 198.328 73.9456 198.797 74.328C199.123 74.5906 199.644 73.1236 200.273 72.5984C200.456 73.2092 200.485 74.3565 200.09 75.3213C199.644 76.4115 199.684 77.3477 200.513 77.4276C201.343 77.5075 202.699 77.4562 202.997 76.7655C203.3 76.0805 203.981 73.2092 204.353 72.2559C204.725 71.3026 204.232 70.2066 204.375 69.6586C204.519 69.1106 201.921 68.1973 201.921 68.1973C201.778 68.4142 200.977 69.5045 200.977 69.5045C200.977 69.5045 200.302 70.3093 200.073 70.4578C199.838 70.6062 199.489 71.3254 199.489 71.3254L199.483 71.3197Z" fill="url(#paint7_linear_48_20825)"/>
<path d="M41.9922 16.4171C41.9922 16.4171 42.8733 14.2708 44.4697 12.3528C46.066 10.4405 48.452 7.24951 48.452 7.24951C48.452 7.24951 47.2905 9.51572 45.7113 12.0788C44.1321 14.6418 41.9922 16.4114 41.9922 16.4114V16.4171Z" fill="#50CC85"/>
<path d="M43.6406 12.6782C43.6406 12.6782 45.4086 11.2911 46.4729 8.35705C47.5371 5.42297 48.5041 3.1853 48.5041 3.1853C48.5041 3.1853 46.2097 6.46188 45.2198 8.72809C44.2357 11 43.6406 12.6782 43.6406 12.6782Z" fill="#50CC85"/>
<path d="M42.1072 16.0004C42.1072 16.0004 43.0341 12.6439 43.2172 9.96102C43.4003 7.2781 43.3774 5.59985 43.3774 5.59985C43.3774 5.59985 42.2102 10.4633 41.8555 12.5298C41.5007 14.5962 42.1072 16.0004 42.1072 16.0004Z" fill="#50CC85"/>
<path d="M41.3179 18.2267C41.3179 18.2267 41.6154 14.7675 40.637 11.6735C39.6643 8.57963 39.6071 6.61597 39.6071 6.61597C39.6071 6.61597 39.1379 9.85259 39.6929 12.644C40.2479 15.4353 41.3122 18.221 41.3122 18.221L41.3179 18.2267Z" fill="#50CC85"/>
<path d="M41.6034 17.4619C41.6034 17.4619 44.0637 15.367 45.311 14.8703C46.5584 14.3794 48.2863 12.9409 48.2863 12.9409C48.2863 12.9409 46.1464 15.6752 44.9506 16.2118C43.7547 16.7541 41.5977 17.4619 41.5977 17.4619H41.6034Z" fill="#50CC85"/>
<path d="M40.7566 20.4017C40.7566 20.4017 40.9969 18.5122 39.8926 15.835C38.794 13.1578 38.5365 11.8335 38.5365 11.8335C38.5365 11.8335 38.4736 15.464 39.1945 16.8283C39.9212 18.1926 40.7508 20.396 40.7508 20.396L40.7566 20.4017Z" fill="#50CC85"/>
<path d="M40.9863 19.0258C40.9863 19.0258 42.3996 18.0839 43.7671 17.8955C45.1345 17.7072 45.495 17.5188 45.495 17.5188C45.495 17.5188 44.8027 18.7746 43.1205 18.9858C41.4383 19.197 40.9863 19.0258 40.9863 19.0258Z" fill="#50CC85"/>
<path d="M40.0586 22.1998C40.3618 21.0125 40.7566 19.1744 41.1629 17.9528C42.0612 15.2471 44.1896 11.7593 44.1896 11.7593C42.8908 14.6363 41.9353 16.2574 41.283 18.7406C41.0256 19.7224 40.5735 21.0924 40.3332 21.9829C40.2932 22.2283 40.0986 22.4338 40.0586 22.1998Z" fill="#50CC85"/>
<path d="M40.6898 17.3819C40.6898 17.3819 40.5525 14.9216 39.6084 12.4442C38.6643 9.96675 37.377 5.94238 37.377 5.94238C37.377 5.94238 37.7603 8.6253 38.4526 11.742C39.1507 14.8645 40.6898 17.3819 40.6898 17.3819Z" fill="#77E6A6"/>
<path d="M40.3229 13.055C40.3229 13.055 39.0241 11.0514 38.9726 7.73484C38.9211 4.4183 38.7266 1.83813 38.7266 1.83813C38.7266 1.83813 39.8995 5.9253 40.0998 8.54542C40.3057 11.1655 40.3172 13.0607 40.3172 13.0607L40.3229 13.055Z" fill="#77E6A6"/>
<path d="M40.7129 16.9252C40.7129 16.9252 40.9475 13.2319 41.6913 10.4748C42.4408 7.71765 43.0416 6.03369 43.0416 6.03369C43.0416 6.03369 42.5267 11.3253 42.1662 13.523C41.8057 15.7207 40.7129 16.9252 40.7129 16.9252Z" fill="#77E6A6"/>
<path d="M40.7344 19.4368C40.7344 19.4368 41.6384 15.8577 43.6868 13.0834C45.7408 10.3092 46.4732 8.35693 46.4732 8.35693C46.4732 8.35693 45.8209 11.7762 44.2933 14.3906C42.7656 17.005 40.7344 19.4425 40.7344 19.4425V19.4368Z" fill="#77E6A6"/>
<path d="M40.712 18.5692C40.712 18.5692 38.9669 15.6123 37.8855 14.6876C36.8041 13.7628 35.5625 11.7192 35.5625 11.7192C35.5625 11.7192 36.7641 15.2013 37.7768 16.1603C38.7895 17.1193 40.712 18.5749 40.712 18.5749V18.5692Z" fill="#77E6A6"/>
<path d="M40.5469 21.8115C40.5469 21.8115 40.9646 19.8307 42.9958 17.5188C45.0269 15.207 45.7422 13.9683 45.7422 13.9683C45.7422 13.9683 44.5463 17.6444 43.3505 18.7633C42.1489 19.8821 40.5469 21.8115 40.5469 21.8115Z" fill="#77E6A6"/>
<path d="M40.7921 20.3502C40.7921 20.3502 39.6993 18.9174 38.389 18.2496C37.0845 17.5874 36.7812 17.2734 36.7812 17.2734C36.7812 17.2734 37.0387 18.7747 38.658 19.5682C40.2772 20.3616 40.7921 20.3445 40.7921 20.3445V20.3502Z" fill="#77E6A6"/>
<path d="M40.62 23.8666C40.723 22.5651 40.9633 20.5843 40.9805 19.2143C41.0205 16.1832 40.0879 11.9419 40.0879 11.9419C40.3969 15.287 40.7917 17.2392 40.5857 19.9621C40.5056 21.041 40.4827 22.5708 40.414 23.5469C40.3683 23.8038 40.4941 24.0778 40.6143 23.8609L40.62 23.8666Z" fill="#50CC85"/>
<path d="M38.8172 17.89C38.8172 17.89 37.9361 15.7437 36.3397 13.8257C34.7434 11.9134 32.3574 8.72241 32.3574 8.72241C32.3574 8.72241 33.5189 10.9886 35.0981 13.5517C36.6773 16.1147 38.8172 17.8843 38.8172 17.8843V17.89Z" fill="#50CC85"/>
<path d="M37.1642 14.1568C37.1642 14.1568 35.3962 12.7696 34.332 9.83556C33.2677 6.90148 32.3008 4.66382 32.3008 4.66382C32.3008 4.66382 34.5952 7.9404 35.585 10.2066C36.5692 12.4785 37.1642 14.1568 37.1642 14.1568Z" fill="#50CC85"/>
<path d="M38.6969 17.4789C38.6969 17.4789 37.77 14.1224 37.5869 11.4395C37.4038 8.75662 37.4267 7.07837 37.4267 7.07837C37.4267 7.07837 38.5939 11.9419 38.9487 14.0083C39.3034 16.0747 38.6969 17.4789 38.6969 17.4789Z" fill="#50CC85"/>
<path d="M39.4882 19.7052C39.4882 19.7052 39.1906 16.246 40.1633 13.1521C41.136 10.0581 41.1932 8.09448 41.1932 8.09448C41.1932 8.09448 41.6624 11.3311 41.1074 14.1225C40.5524 16.9138 39.4882 19.6995 39.4882 19.6995V19.7052Z" fill="#50CC85"/>
<path d="M39.2005 18.9404C39.2005 18.9404 36.7402 16.8455 35.4929 16.3488C34.2455 15.8579 32.5176 14.4194 32.5176 14.4194C32.5176 14.4194 34.6575 17.1537 35.8533 17.6903C37.0491 18.2326 39.2062 18.9404 39.2062 18.9404H39.2005Z" fill="#50CC85"/>
<path d="M40.0533 21.8802C40.0533 21.8802 39.813 19.9908 40.9173 17.3135C42.0159 14.6363 42.2734 13.312 42.2734 13.312C42.2734 13.312 42.3363 16.9425 41.6154 18.3068C40.8887 19.6711 40.0591 21.8745 40.0591 21.8745L40.0533 21.8802Z" fill="#50CC85"/>
<path d="M39.8192 20.5043C39.8192 20.5043 38.406 19.5624 37.0385 19.3741C35.6767 19.1857 35.3105 18.9973 35.3105 18.9973C35.3105 18.9973 36.0029 20.2531 37.685 20.4644C39.3672 20.6756 39.8192 20.5043 39.8192 20.5043Z" fill="#50CC85"/>
<path d="M40.7463 23.6783C40.443 22.491 40.0482 20.6529 39.642 19.4313C38.7494 16.7256 36.6152 13.2378 36.6152 13.2378C37.9141 16.1148 38.8696 17.736 39.5218 20.2191C39.7793 21.2009 40.2313 22.5709 40.4716 23.4614C40.5117 23.7069 40.7062 23.9124 40.7463 23.6783Z" fill="#50CC85"/>
<path d="M43.8755 31.9723H37.1983L35.1328 20.2417H46.1757L43.8755 31.9723Z" fill="#D2DCEB"/>
<path d="M120.141 35.1918L131.149 103.869L133.266 103.863L124.558 35.1804L120.141 35.1918Z" fill="#DCA86E"/>
<path d="M44.2483 35.2261L29.9098 103.966L27.0547 103.971L38.2978 35.2375L44.2483 35.2261Z" fill="#DCA86E"/>
<path d="M140.138 31.179H21.6816V36.4706H140.138V31.179Z" fill="#DCA86E"/>
<path d="M145.813 31.179H16V34.6896H145.813V31.179Z" fill="#F3BA7A"/>
<path d="M109.509 29.3294H104.903L100.297 0H103.799L109.509 29.3294Z" fill="#A6AEBA"/>
<path d="M108.187 29.3294H90.2036L85.5977 0H103.581L108.187 29.3294Z" fill="#D2DCEB"/>
<path d="M109.508 28.6616H89.9629V30.8479H109.508V28.6616Z" fill="#D2DCEB"/>
<path d="M134.151 28.6616H109.508V30.8479H134.151V28.6616Z" fill="#A6AEBA"/>
<path d="M98.3104 16.0917C98.8311 18.3351 98.4649 20.7611 97.4922 21.5089C96.5195 22.2567 95.3123 21.0408 94.7916 18.7917C94.2709 16.5427 94.6371 14.1223 95.6098 13.3745C96.5825 12.6267 97.7897 13.8426 98.3104 16.0917Z" fill="#A6AEBA"/>
<path d="M70.3379 30.7451H67.786C66.7332 30.7451 65.8349 29.9802 65.6747 28.9412L64.6562 22.3938H73.4676L72.4492 28.9412C72.289 29.9802 71.3907 30.7451 70.3379 30.7451Z" fill="#A6AEBA"/>
<path d="M72.7007 29.3523C72.6092 29.3523 72.5176 29.3523 72.4203 29.3409L72.3002 29.3294L72.2029 29.2552C72.14 29.2096 70.6523 28.0451 70.6523 26.3782C70.6523 24.7114 71.7852 23.29 73.1813 23.29C74.0224 23.29 74.772 23.6097 75.2354 24.1577C75.5673 24.5516 75.9163 25.2708 75.7046 26.4467C75.367 28.302 74.2799 29.3409 72.7007 29.3409V29.3523ZM72.6034 28.5531C74.2112 28.6045 74.7205 27.3715 74.9093 26.3155C75.0352 25.6133 74.9379 25.0653 74.6117 24.6829C74.3028 24.3118 73.7764 24.1006 73.1756 24.1006C72.2258 24.1006 71.4477 25.1281 71.4477 26.3897C71.4477 27.4514 72.3116 28.302 72.5977 28.5531H72.6034Z" fill="#A6AEBA"/>
<path d="M63.7813 31.3216H74.95L76.7294 29.3579H61.9961L63.7813 31.3216Z" fill="#D2DCEB"/>
</svg>
