<svg width="202" height="32" viewBox="0 0 202 32" fill="none" xmlns="http://www.w3.org/2000/svg">
<path d="M0.137861 30.2527H6.1248C7.09536 30.2527 7.14261 29.4482 7.14261 29.0768C7.14261 28.6582 7.03356 28.1486 6.09208 27.8573L1.8318 26.514C1.69366 26.4849 0.952113 26.2374 0.552257 25.7095C0.0578897 25.138 -0.00390625 24.2716 -0.00390625 23.6709C-0.00390625 23.0047 0.0724299 22.233 0.690389 21.6614C1.24655 21.119 1.92631 21.0571 2.4643 21.0571H8.68751V22.6807H3.16223C2.86779 22.6807 2.55881 22.6953 2.31526 22.9283C2.05353 23.1758 2.03899 23.5617 2.03899 23.7619C2.03899 24.2425 2.17713 24.6902 3.04227 24.9814L6.99357 26.2337C8.07319 26.5723 8.64389 26.929 8.92379 27.5333C9.20005 28.0903 9.24731 28.7237 9.24731 29.095C9.24731 29.7758 9.15643 30.533 8.70569 31.1045C8.16406 31.7998 7.50248 31.8763 6.77547 31.8763H0.137861V30.2527Z" fill="#ADA3A3"/>
<path d="M17.1606 22.0473C17.2842 21.6287 17.4986 20.9333 18.6582 20.9333C19.7087 20.9333 20.0323 21.5668 20.1558 22.0473L22.1624 29.4482C22.2097 29.5574 22.286 29.7103 22.395 29.7103C22.4568 29.7103 22.5804 29.6484 22.6422 29.3863L24.7869 21.0571H26.8552L24.2489 30.482C24.049 31.1773 23.7873 31.9964 22.5041 31.9964C21.33 31.9964 20.9774 31.3302 20.7774 30.6058L18.8799 23.6054C18.8327 23.4052 18.7563 23.3105 18.6655 23.3105C18.5419 23.3105 18.5128 23.4962 18.4655 23.6054L16.5535 30.6058C16.4008 31.2101 16.1064 31.9964 14.8414 31.9964C13.9763 31.9964 13.4055 31.6724 13.082 30.482L10.4902 21.0571H12.5586L14.7033 29.3863C14.7505 29.4955 14.7651 29.7103 14.9359 29.7103C15.045 29.7103 15.1213 29.5574 15.1685 29.4482L17.1751 22.0473H17.1606Z" fill="#ADA3A3"/>
<path d="M28.5488 31.8763V21.0608H30.5845V31.8763H28.5488Z" fill="#ADA3A3"/>
<path d="M33.6719 31.8763V22.6808C33.6719 22.2621 33.6719 21.8471 34.0427 21.4758C34.3989 21.119 34.8896 21.0572 35.2604 21.0572H40.4004C40.9711 21.0572 41.8835 21.0426 42.545 21.7051C43.2866 22.4004 43.3629 23.6527 43.3629 24.5483C43.3629 25.4438 43.2721 26.8199 42.4215 27.5152C42.0034 27.8392 41.4036 28.0394 40.7711 28.0394H35.7111V31.8727H33.6755L33.6719 31.8763ZM39.5825 26.4231C40.0296 26.4231 40.553 26.4376 40.9093 26.0226C41.2328 25.6513 41.2655 24.956 41.2655 24.5373C41.2655 24.0568 41.2364 23.4088 40.8802 23.0521C40.524 22.6953 39.9714 22.6808 39.6152 22.6808H36.3291C36.191 22.6808 36.0201 22.6516 35.8493 22.8191C35.7111 22.9574 35.7111 23.1431 35.7111 23.3287V26.4194H39.5861L39.5825 26.4231Z" fill="#ADA3A3"/>
<path d="M47.7744 31.8763C47.2946 31.8763 46.8948 31.8908 46.5385 31.5377C46.1678 31.181 46.1387 30.6895 46.1387 30.2709V22.6043C46.1387 22.1711 46.2768 21.7379 46.5094 21.4758C46.8657 21.0899 47.3891 21.0571 47.8072 21.0571H54.7356V22.6807H48.9013C48.7159 22.6807 48.516 22.6953 48.3451 22.8336C48.1743 23.0047 48.1743 23.1904 48.1743 23.3578V25.5384H54.5793V27.162H48.1743V29.6957C48.1743 29.8959 48.2216 30.0343 48.327 30.1143C48.4506 30.2381 48.6978 30.2527 49.0213 30.2527H54.7937V31.8763H47.7744Z" fill="#ADA3A3"/>
<path d="M66.7715 26.9146H72.2786V28.5054H66.7715V26.9146Z" fill="#ADA3A3"/>
<path d="M86.1073 31.8763C85.7511 31.8763 85.3512 31.7999 85.1041 31.5996C84.9332 31.4613 84.7188 31.181 84.7188 30.7041V21.0608H86.7544V29.6666C86.7544 29.7904 86.7253 29.9906 86.8925 30.1289C86.9543 30.1763 87.0779 30.2527 87.4014 30.2527H93.3266V31.8763H86.1037H86.1073Z" fill="#ADA3A3"/>
<path d="M95.1836 31.8763V21.0608H97.2192V31.8763H95.1836Z" fill="#ADA3A3"/>
<path d="M100.305 21.0571H102.34V31.8726H100.305V21.0571ZM108.066 31.8726L103.62 27.7154C103.078 27.2203 102.94 26.6815 102.94 26.3102C102.94 25.8915 103.173 25.4001 103.464 25.1052L107.553 21.0571H110.068L105.408 25.4911C105.161 25.7241 104.899 25.9243 104.899 26.2956C104.899 26.7761 105.237 27.0528 105.532 27.3149L110.639 31.8726H108.062H108.066Z" fill="#ADA3A3"/>
<path d="M113.981 31.8763C113.502 31.8763 113.102 31.8908 112.746 31.5377C112.375 31.181 112.346 30.6895 112.346 30.2709V22.6043C112.346 22.1711 112.484 21.7379 112.716 21.4758C113.073 21.0899 113.596 21.0571 114.014 21.0571H120.943V22.6807H115.108C114.923 22.6807 114.723 22.6953 114.552 22.8336C114.381 23.0047 114.381 23.1904 114.381 23.3578V25.5384H120.786V27.162H114.381V29.6957C114.381 29.8959 114.429 30.0343 114.534 30.1143C114.658 30.2381 114.905 30.2527 115.228 30.2527H121.001V31.8763H113.981Z" fill="#ADA3A3"/>
<path d="M132.975 26.9146H138.482V28.5054H132.975V26.9146Z" fill="#ADA3A3"/>
<path d="M157.757 29.6811C158.252 29.1387 158.266 28.3379 158.266 27.7954V21.0571H160.302V28.0721C160.302 29.0004 160.178 29.9869 159.36 30.8388C158.295 31.9527 156.583 31.9964 155.609 31.9964C154.635 31.9964 152.923 31.9491 151.857 30.8388C151.04 29.9906 150.916 29.0004 150.916 28.0721V21.0571H152.952V27.7954C152.952 28.3997 152.966 29.1242 153.475 29.6811C154.046 30.3 154.973 30.3765 155.605 30.3765C156.19 30.3765 157.179 30.3 157.75 29.6811H157.757Z" fill="#ADA3A3"/>
<path d="M173.731 30.4675C173.731 31.5632 173.004 31.9964 172.124 31.9964C171.459 31.9964 170.859 31.8435 170.379 31.0863L165.828 23.8857C165.657 23.6527 165.628 23.6236 165.581 23.6236C165.505 23.6236 165.366 23.7 165.366 23.933V31.8763H163.393V22.4041C163.393 21.4758 164.011 20.937 165.043 20.937C166.013 20.937 166.464 21.3083 166.755 21.7852L171.339 29.0332C171.415 29.1424 171.448 29.2953 171.586 29.2953C171.757 29.2953 171.757 29.1096 171.757 29.0332V21.0608H173.731V30.4711V30.4675Z" fill="#ADA3A3"/>
<path d="M176.816 31.8763V21.0608H178.852V31.8763H176.816Z" fill="#ADA3A3"/>
<path d="M185.07 31.8763V22.6807H180.857V21.0571H191.334V22.6807H187.106V31.8763H185.07Z" fill="#ADA3A3"/>
<path d="M194.98 31.8763C194.5 31.8763 194.1 31.8908 193.744 31.5377C193.373 31.181 193.344 30.6895 193.344 30.2709V22.6043C193.344 22.1711 193.482 21.7379 193.715 21.4758C194.071 21.0899 194.594 21.0571 195.012 21.0571H201.941V22.6807H196.106C195.921 22.6807 195.721 22.6953 195.55 22.8336C195.379 23.0047 195.379 23.1904 195.379 23.3578V25.5384H201.784V27.162H195.379V29.6957C195.379 29.8959 195.427 30.0343 195.532 30.1143C195.656 30.2381 195.903 30.2527 196.226 30.2527H201.999V31.8763H194.98Z" fill="#ADA3A3"/>
<g opacity="0.24">
<path d="M201.915 0.754883H0.0898438V1.02791H201.915V0.754883Z" fill="#353535"/>
</g>
</svg>
