<svg width="373" height="223" viewBox="0 0 373 223" fill="none" xmlns="http://www.w3.org/2000/svg">
<defs>
<linearGradient id="paint0_linear_5_294" x1="47.1826" y1="10.9534" x2="343.504" y2="248.126" gradientUnits="userSpaceOnUse">
<stop stop-color="#FF8177"/>
<stop offset="1" stop-color="#B22B5B"/>
</linearGradient>
<linearGradient id="paint1_linear_5_294" x1="102.695" y1="59.0342" x2="80.2574" y2="110.826" gradientUnits="userSpaceOnUse">
<stop offset="0.16" stop-color="#FF8F66"/>
<stop offset="0.39" stop-color="#B16958"/>
<stop offset="0.61" stop-color="#6F494C"/>
<stop offset="0.79" stop-color="#3F3244"/>
<stop offset="0.92" stop-color="#21243E"/>
<stop offset="1" stop-color="#171F3D"/>
</linearGradient>
<linearGradient id="paint2_linear_5_294" x1="130.644" y1="55.0771" x2="108.207" y2="106.865" gradientUnits="userSpaceOnUse">
<stop offset="0.16" stop-color="#FF8F66"/>
<stop offset="0.39" stop-color="#B16958"/>
<stop offset="0.61" stop-color="#6F494C"/>
<stop offset="0.79" stop-color="#3F3244"/>
<stop offset="0.92" stop-color="#21243E"/>
<stop offset="1" stop-color="#171F3D"/>
</linearGradient>
<linearGradient id="paint3_linear_5_294" x1="145.594" y1="58.4506" x2="123.156" y2="110.243" gradientUnits="userSpaceOnUse">
<stop offset="0.16" stop-color="#FF8F66"/>
<stop offset="0.39" stop-color="#B16958"/>
<stop offset="0.61" stop-color="#6F494C"/>
<stop offset="0.79" stop-color="#3F3244"/>
<stop offset="0.92" stop-color="#21243E"/>
<stop offset="1" stop-color="#171F3D"/>
</linearGradient>
<linearGradient id="paint4_linear_5_294" x1="139.802" y1="46.8421" x2="115.074" y2="103.924" gradientUnits="userSpaceOnUse">
<stop offset="0.16" stop-color="#FF8F66"/>
<stop offset="0.39" stop-color="#B16958"/>
<stop offset="0.61" stop-color="#6F494C"/>
<stop offset="0.79" stop-color="#3F3244"/>
<stop offset="0.92" stop-color="#21243E"/>
<stop offset="1" stop-color="#171F3D"/>
</linearGradient>
<linearGradient id="paint5_linear_5_294" x1="128.448" y1="35.6505" x2="95.9206" y2="110.722" gradientUnits="userSpaceOnUse">
<stop offset="0.16" stop-color="#FF8F66"/>
<stop offset="0.39" stop-color="#B16958"/>
<stop offset="0.61" stop-color="#6F494C"/>
<stop offset="0.79" stop-color="#3F3244"/>
<stop offset="0.92" stop-color="#21243E"/>
<stop offset="1" stop-color="#171F3D"/>
</linearGradient>
<linearGradient id="paint6_linear_5_294" x1="108.627" y1="66.5428" x2="88.3842" y2="117.835" gradientUnits="userSpaceOnUse">
<stop offset="0.16" stop-color="#FF8F66"/>
<stop offset="0.28" stop-color="#C9745C"/>
<stop offset="0.42" stop-color="#935B52"/>
<stop offset="0.55" stop-color="#66454B"/>
<stop offset="0.68" stop-color="#443444"/>
<stop offset="0.8" stop-color="#2B2840"/>
<stop offset="0.91" stop-color="#1C213D"/>
<stop offset="1" stop-color="#171F3D"/>
</linearGradient>
<linearGradient id="paint7_linear_5_294" x1="135.578" y1="66.1023" x2="115.335" y2="117.395" gradientUnits="userSpaceOnUse">
<stop offset="0.16" stop-color="#FF8F66"/>
<stop offset="0.28" stop-color="#C9745C"/>
<stop offset="0.42" stop-color="#935B52"/>
<stop offset="0.55" stop-color="#66454B"/>
<stop offset="0.68" stop-color="#443444"/>
<stop offset="0.8" stop-color="#2B2840"/>
<stop offset="0.91" stop-color="#1C213D"/>
<stop offset="1" stop-color="#171F3D"/>
</linearGradient>
<linearGradient id="paint8_linear_5_294" x1="445.288" y1="85.7076" x2="136.813" y2="191.699" gradientUnits="userSpaceOnUse">
<stop stop-color="#FF8177"/>
<stop offset="1" stop-color="#B22B5B"/>
</linearGradient>
<linearGradient id="paint9_linear_5_294" x1="297.671" y1="12.3187" x2="267.898" y2="81.0323" gradientUnits="userSpaceOnUse">
<stop offset="0.16" stop-color="#FF8F66"/>
<stop offset="0.39" stop-color="#B16958"/>
<stop offset="0.61" stop-color="#6F494C"/>
<stop offset="0.79" stop-color="#3F3244"/>
<stop offset="0.92" stop-color="#21243E"/>
<stop offset="1" stop-color="#171F3D"/>
</linearGradient>
<linearGradient id="paint10_linear_5_294" x1="334.75" y1="7.06805" x2="304.977" y2="75.7817" gradientUnits="userSpaceOnUse">
<stop offset="0.16" stop-color="#FF8F66"/>
<stop offset="0.39" stop-color="#B16958"/>
<stop offset="0.61" stop-color="#6F494C"/>
<stop offset="0.79" stop-color="#3F3244"/>
<stop offset="0.92" stop-color="#21243E"/>
<stop offset="1" stop-color="#171F3D"/>
</linearGradient>
<linearGradient id="paint11_linear_5_294" x1="354.582" y1="11.5488" x2="324.813" y2="80.2624" gradientUnits="userSpaceOnUse">
<stop offset="0.16" stop-color="#FF8F66"/>
<stop offset="0.39" stop-color="#B16958"/>
<stop offset="0.61" stop-color="#6F494C"/>
<stop offset="0.79" stop-color="#3F3244"/>
<stop offset="0.92" stop-color="#21243E"/>
<stop offset="1" stop-color="#171F3D"/>
</linearGradient>
<linearGradient id="paint12_linear_5_294" x1="346.905" y1="-3.85764" x2="314.092" y2="71.8761" gradientUnits="userSpaceOnUse">
<stop offset="0.16" stop-color="#FF8F66"/>
<stop offset="0.39" stop-color="#B16958"/>
<stop offset="0.61" stop-color="#6F494C"/>
<stop offset="0.79" stop-color="#3F3244"/>
<stop offset="0.92" stop-color="#21243E"/>
<stop offset="1" stop-color="#171F3D"/>
</linearGradient>
<linearGradient id="paint13_linear_5_294" x1="331.835" y1="-18.7046" x2="288.682" y2="80.8955" gradientUnits="userSpaceOnUse">
<stop offset="0.16" stop-color="#FF8F66"/>
<stop offset="0.39" stop-color="#B16958"/>
<stop offset="0.61" stop-color="#6F494C"/>
<stop offset="0.79" stop-color="#3F3244"/>
<stop offset="0.92" stop-color="#21243E"/>
<stop offset="1" stop-color="#171F3D"/>
</linearGradient>
<linearGradient id="paint14_linear_5_294" x1="305.538" y1="22.28" x2="278.682" y2="90.3315" gradientUnits="userSpaceOnUse">
<stop offset="0.16" stop-color="#FF8F66"/>
<stop offset="0.28" stop-color="#C9745C"/>
<stop offset="0.42" stop-color="#935B52"/>
<stop offset="0.55" stop-color="#66454B"/>
<stop offset="0.68" stop-color="#443444"/>
<stop offset="0.8" stop-color="#2B2840"/>
<stop offset="0.91" stop-color="#1C213D"/>
<stop offset="1" stop-color="#171F3D"/>
</linearGradient>
<linearGradient id="paint15_linear_5_294" x1="341.294" y1="21.7007" x2="314.439" y2="89.7482" gradientUnits="userSpaceOnUse">
<stop offset="0.16" stop-color="#FF8F66"/>
<stop offset="0.28" stop-color="#C9745C"/>
<stop offset="0.42" stop-color="#935B52"/>
<stop offset="0.55" stop-color="#66454B"/>
<stop offset="0.68" stop-color="#443444"/>
<stop offset="0.8" stop-color="#2B2840"/>
<stop offset="0.91" stop-color="#1C213D"/>
<stop offset="1" stop-color="#171F3D"/>
</linearGradient>
<linearGradient id="paint16_linear_5_294" x1="377.663" y1="123.751" x2="18.278" y2="224.361" gradientUnits="userSpaceOnUse">
<stop stop-color="#FF8177"/>
<stop offset="1" stop-color="#B22B5B"/>
</linearGradient>
<linearGradient id="paint17_linear_5_294" x1="78.8082" y1="147.579" x2="57.5292" y2="93.0682" gradientUnits="userSpaceOnUse">
<stop offset="0.16" stop-color="#FF8F66"/>
<stop offset="0.39" stop-color="#B16958"/>
<stop offset="0.61" stop-color="#6F494C"/>
<stop offset="0.79" stop-color="#3F3244"/>
<stop offset="0.92" stop-color="#21243E"/>
<stop offset="1" stop-color="#171F3D"/>
</linearGradient>
<linearGradient id="paint18_linear_5_294" x1="71.942" y1="150.179" x2="50.6937" y2="95.7457" gradientUnits="userSpaceOnUse">
<stop offset="0.16" stop-color="#FF8F66"/>
<stop offset="0.39" stop-color="#B16958"/>
<stop offset="0.61" stop-color="#6F494C"/>
<stop offset="0.79" stop-color="#3F3244"/>
<stop offset="0.92" stop-color="#21243E"/>
<stop offset="1" stop-color="#171F3D"/>
</linearGradient>
<linearGradient id="paint19_linear_5_294" x1="245.056" y1="122.666" x2="236.975" y2="64.7071" gradientUnits="userSpaceOnUse">
<stop offset="0.16" stop-color="#FF8F66"/>
<stop offset="0.39" stop-color="#B16958"/>
<stop offset="0.61" stop-color="#6F494C"/>
<stop offset="0.79" stop-color="#3F3244"/>
<stop offset="0.92" stop-color="#21243E"/>
<stop offset="1" stop-color="#171F3D"/>
</linearGradient>
<linearGradient id="paint20_linear_5_294" x1="252.274" y1="121.159" x2="244.285" y2="63.7468" gradientUnits="userSpaceOnUse">
<stop offset="0.16" stop-color="#FF8F66"/>
<stop offset="0.39" stop-color="#B16958"/>
<stop offset="0.61" stop-color="#6F494C"/>
<stop offset="0.79" stop-color="#3F3244"/>
<stop offset="0.92" stop-color="#21243E"/>
<stop offset="1" stop-color="#171F3D"/>
</linearGradient>
</defs>
<path d="M373.151 91.478C373.151 91.478 358.228 68.9914 295.348 68.2651C232.469 67.5389 214.998 75.5199 174.573 54.4819C134.148 33.4479 88.7902 8.78254 0 36.349C0 37.4206 0 154.588 0 154.588H373.151V91.478Z" fill="url(#paint0_linear_5_294)"/>
<path d="M76.8245 106.944L76.4316 108.778H94.6523L94.4619 107.996L90.5059 106.619L90.2281 104.122L93.7754 105.178L91.4701 95.7286L88.7878 94.3515L88.4544 92.9506L91.0138 93.8515L88.383 83.0646L86.7324 82.2788V80.4929L87.8474 80.8699L84.9309 68.8884L84.1175 72.7063L84.681 72.3412L84.3477 73.5357L83.7961 74.2025L83.0263 77.8219L84.3477 76.9647L84.0699 77.9092L82.8121 78.8339L80.9749 87.4619L82.9033 86.3586V87.5849L80.717 88.6683L80.4075 90.1209L82.4034 89.2795L82.1812 89.9978L80.2408 90.9067L78.6775 98.2448L80.7964 96.8994V99.5981L78.0188 101.332L77.3284 104.575L80.5742 102.543V104.615L76.8245 106.944Z" fill="url(#paint1_linear_5_294)"/>
<path d="M112.372 110.464H113.67L113.578 105.253H122.578L122.264 103.975L118.312 102.598L118.034 100.106L121.582 101.157L119.276 91.7081L116.594 90.3309L116.261 88.93L118.82 89.8349L116.189 79.048L114.539 78.2582V76.4723L115.654 76.8493L112.737 64.8718L111.924 68.6897L112.487 68.3246L112.154 69.5191L111.602 70.1819L110.833 73.8014L112.154 72.9441L111.876 73.8887L110.618 74.8134L108.781 83.4452L110.71 82.342V83.5643L108.523 84.6517L108.214 86.1043L110.21 85.259L109.987 85.9812L108.047 86.8861L106.484 94.2282L108.603 92.8828V95.5775L105.825 97.3118L105.135 100.554L108.38 98.5223V100.594L104.631 102.924L104.135 105.253H112.408L112.372 110.464Z" fill="url(#paint2_linear_5_294)"/>
<path d="M127.345 110.464H128.559L128.528 108.631H137.527L137.217 107.353L133.261 105.976L132.984 103.479L136.531 104.535L134.226 95.0856L131.543 93.7085L131.21 92.3075L133.769 93.2084L131.143 82.4215L129.488 81.6357V79.8498L130.607 80.2268L127.686 68.2454L126.873 72.0632L127.436 71.6981L127.103 72.8927L126.556 73.5594L125.782 77.1789L127.103 76.3216L126.825 77.2662L125.568 78.1909L123.73 86.8188L125.659 85.7155V86.9418L123.473 88.0253L123.163 89.4778L125.159 88.6325L124.941 89.3548L122.996 90.2636L121.433 97.6017L123.552 96.2563V98.955L120.774 100.689L120.084 103.932L123.33 101.9V103.971L119.58 106.301L119.084 108.631H127.357L127.345 110.464Z" fill="url(#paint3_linear_5_294)"/>
<path d="M130.914 102.146L130.568 100.737L126.212 99.2169L125.906 96.4705L129.814 97.6333L127.275 87.2155L124.315 85.6955L123.95 84.1557L126.771 85.1479L123.875 73.2617L122.053 72.3925V70.4241L123.283 70.8408L120.065 57.637L119.169 61.8438L119.792 61.4429L119.422 62.7566L118.819 63.4908L117.97 67.4793L119.422 66.5347L119.117 67.5785L117.732 68.5985L115.705 78.1074L117.831 76.8891V78.2423L115.423 79.4369L115.082 81.0363L117.284 80.1077L117.038 80.9014L114.895 81.9015L113.173 89.9897L115.51 88.5093V91.4779L112.451 93.3908L111.689 96.9666L115.264 94.7243V97.0103L111.13 99.578L110.586 102.146H119.7L119.653 109.67H121.125L120.994 102.146H130.914Z" fill="url(#paint4_linear_5_294)"/>
<path d="M90.9038 105.079L90.3086 107.877H116.779L116.469 106.599L110.739 104.602L110.335 100.991L115.473 102.519L112.136 88.823L108.244 86.8228L107.763 84.7948L111.473 86.1045L107.66 70.4678L105.268 69.3248V66.7373L106.887 67.2849L102.653 49.918L101.474 55.4543L102.292 54.9264L101.808 56.6568L101.014 57.6212L99.8951 62.8638L101.808 61.6216L101.407 62.9948L99.5856 64.3362L96.9192 76.8416L99.7165 75.2422V77.0162L96.5462 78.5877L96.0978 80.6951L98.9944 79.4728L98.673 80.5166L95.8558 81.8341L93.5901 92.4702L96.6612 90.5216V94.4268L92.6378 96.9429L91.6379 101.642L96.3398 98.6971V101.697L90.9038 105.079Z" fill="url(#paint5_linear_5_294)"/>
<path d="M87.4863 108.809L87.3633 109.321H100.465L100.2 108.055L97.4934 106.373V104.88L99.8345 106.345L99.3345 104.007L97.3347 102.757V100.816L98.8623 101.785L97.7354 96.4945L96.3348 95.8397L96.176 95.3198L97.6164 95.931L97.3902 94.8832L95.815 94.1014V93.2164L97.2077 94.0141L95.8824 87.7952L94.9738 87.1284L94.7754 86.4458L95.7277 87.0649L95.1722 84.4535L94.7754 83.9733L94.5333 83.1161L94.942 83.378L94.3548 80.6277L92.2518 89.2596L93.0533 88.9897V90.2756L91.8629 90.8431L89.9702 98.6178L91.8153 97.9669L91.5732 98.9749L89.6409 99.9711L87.9783 106.781L90.5337 106.019L90.3353 107.817L87.4863 108.809Z" fill="url(#paint6_linear_5_294)"/>
<path d="M120.571 110.464H121.444L121.436 109.25H127.4L127.039 107.571L124.337 105.892V104.4L126.678 105.865L126.178 103.527L124.178 102.277V100.332L125.706 101.301L124.579 96.0143L123.178 95.3595L123.019 94.8396L124.46 95.4468L124.234 94.3991L122.658 93.6172V92.7362L124.051 93.5299L122.726 87.311L121.817 86.6443L121.619 85.9617L122.571 86.5807L122.016 83.9733L121.619 83.4931L121.377 82.6319L121.785 82.8939L121.198 80.1436L119.095 88.7794L119.897 88.5056V89.7954L118.706 90.3629L116.814 98.1376L118.659 97.4867L118.417 98.4947L116.484 99.4869L114.822 106.301L117.377 105.539L117.179 107.337L114.33 108.329L114.104 109.25H120.591L120.571 110.464Z" fill="url(#paint7_linear_5_294)"/>
<path d="M0.0078125 143.21C0.0078125 143.21 14.9351 107.71 77.8386 106.563C140.742 105.416 158.217 118.017 198.658 84.8027C239.099 51.5928 284.472 12.656 373.294 56.1726V222.996H0.0078125V143.206V143.21Z" fill="url(#paint8_linear_5_294)"/>
<path d="M263.344 75.8851L262.824 78.3179H286.997L286.743 77.2781L281.497 75.4486L281.128 72.1426L285.83 73.5396L282.775 61.0025L279.216 59.173L278.771 57.3156L282.168 58.5142L278.68 44.2031L276.49 43.1593V40.786L277.97 41.2901L274.097 25.3955L273.018 30.4596L273.768 29.9753L273.323 31.5588L272.597 32.4439L271.573 37.246L273.323 36.107L272.954 37.3611L271.288 38.5914L268.848 50.0371L271.411 48.5726V50.1998L268.506 51.6364L268.098 53.5652L270.748 52.446L270.455 53.4025L267.875 54.605L265.8 64.3442L268.613 62.5583V66.134L264.931 68.4359L264.015 72.7379L268.316 70.0432V72.7895L263.344 75.8851Z" fill="url(#paint9_linear_5_294)"/>
<path d="M310.506 80.5522H312.228L312.105 73.6427H324.048L323.636 71.9441L318.39 70.1185L318.021 66.8087L322.723 68.2096L319.668 55.6725L316.108 53.843L315.664 51.9856L319.061 53.1841L315.573 38.8731L313.383 37.8254V35.4561L314.863 35.9601L310.99 20.0615L309.911 25.1295L310.657 24.6454L310.216 26.2289L309.486 27.1099L308.466 31.912L310.216 30.777L309.847 32.0311L308.181 33.2574L305.74 44.707L308.304 43.2426V44.8658L305.399 46.3064L304.99 48.2312L307.641 47.1121L307.343 48.0686L304.768 49.275L302.693 59.0102L305.506 57.2283V60.804L301.82 63.1059L300.903 67.404L305.209 64.7092V67.4595L300.237 70.5511L299.578 73.6427H310.553L310.506 80.5522Z" fill="url(#paint10_linear_5_294)"/>
<path d="M330.37 80.5523H331.981L331.941 78.1234H343.88L343.468 76.4248L338.222 74.5953L337.853 71.2894L342.559 72.6863L339.5 60.1493L335.941 58.3197L335.496 56.4623L338.897 57.6609L335.405 43.3498L333.215 42.3061V39.9368L334.695 40.4368L330.822 24.5422L329.743 29.6063L330.493 29.1221L330.048 30.7096L329.322 31.5906L328.298 36.3927L330.048 35.2537L329.679 36.5078L328.013 37.7381L325.572 49.1838L328.136 47.7194V49.3465L325.231 50.7832L324.822 52.7119L327.473 51.5928L327.179 52.5492L324.6 53.7517L322.525 63.4909L325.338 61.705V65.2808L321.656 67.5826L320.739 71.8847L325.041 69.1899V71.9362L320.069 75.0318L319.41 78.1234H330.385L330.37 80.5523Z" fill="url(#paint11_linear_5_294)"/>
<path d="M335.109 69.5193L334.652 67.6461L328.871 65.634L328.466 61.9868L333.648 63.5306L330.284 49.7116L326.355 47.6955L325.871 45.6477L329.613 46.9693L325.768 31.1938L323.356 30.0428V27.4315L324.986 27.9831L320.717 10.4653L319.527 16.0492L320.352 15.5135L319.864 17.2597L319.062 18.232L317.935 23.5262L319.864 22.2722L319.459 23.6533L317.618 25.0065L314.932 37.627L317.753 36.0117V37.8016L314.555 39.3891L314.102 41.5123L317.023 40.2781L316.701 41.3337L313.86 42.6593L311.575 53.3906L314.67 51.4261V55.367L310.611 57.903L309.603 62.6456L314.345 59.673V62.7011L308.865 66.1102L308.139 69.5193H320.237L320.169 79.5006H322.122L321.947 69.5193H335.109Z" fill="url(#paint12_linear_5_294)"/>
<path d="M282.026 73.4086L281.232 77.1233H316.356L315.94 75.4287L308.337 72.7776L307.806 67.9834L314.622 70.0154L310.194 51.8428L305.032 49.1877L304.389 46.497L309.313 48.2352L304.258 27.4869L301.08 25.9749V22.538L303.227 23.2683L297.612 0.226074L296.049 7.56814L297.132 6.86568L296.493 9.16356L295.438 10.4415L293.954 17.4026L296.493 15.7555L295.957 17.5732L293.541 19.3511L290.005 35.9442L293.715 33.825V36.1784L289.51 38.2659L288.914 41.0559L292.755 39.4327L292.331 40.8218L288.593 42.5679L285.589 56.6806L289.66 54.093V59.2801L284.323 62.6138L282.998 68.8486L289.236 64.9434V68.924L282.026 73.4086Z" fill="url(#paint13_linear_5_294)"/>
<path d="M277.489 78.3615L277.322 79.0362H294.71L294.353 77.3574L290.77 75.127V73.1466L293.872 75.0913L293.21 71.9878L290.555 70.3289V67.7532L292.583 69.0391L291.087 62.0184L289.23 61.1533L289.016 60.4627L290.928 61.2684L290.631 59.8794L288.54 58.8435V57.6728L290.385 58.7284L288.627 50.4775L287.425 49.5925L287.159 48.6876L288.421 49.5052L287.687 46.0445L287.159 45.4095L286.841 44.2665L287.381 44.6158L286.603 40.9646L283.81 52.4222L284.877 52.061V53.7676L283.298 54.5216L280.782 64.8362L283.231 63.975L282.913 65.3125L280.346 66.63L278.144 75.6667L281.536 74.6587L281.27 77.0439L277.489 78.3615Z" fill="url(#paint14_linear_5_294)"/>
<path d="M321.383 80.5523H322.542L322.53 78.9449H330.442L329.97 76.7185L326.383 74.4881V72.5077L329.486 74.4484L328.823 71.3489L326.169 69.69V67.1143L328.196 68.4002L326.7 61.3795L324.843 60.5144L324.633 59.8238L326.542 60.6294L326.244 59.2404L324.153 58.2046V57.0338L326.002 58.0895L324.244 49.8346L323.038 48.9496L322.776 48.0487L324.034 48.8663L323.3 45.4056L322.776 44.7706L322.455 43.6276L322.994 43.9769L322.217 40.3257L319.423 51.7833L320.491 51.4221V53.1287L318.911 53.8827L316.4 64.1973L318.848 63.3361L318.53 64.6736L315.963 65.9911L313.757 75.0278L317.15 74.0198L316.884 76.405L313.102 77.7226L312.805 78.9449H321.411L321.383 80.5523Z" fill="url(#paint15_linear_5_294)"/>
<path d="M0.0078125 145.575C0.0078125 145.575 14.9351 116.37 77.8386 115.429C140.742 114.488 158.217 140.547 198.658 113.226C239.099 85.906 284.472 53.8748 373.294 89.6723V223H0.0078125V145.579V145.575Z" fill="url(#paint16_linear_5_294)"/>
<path d="M81.312 110.921C81.2683 110.405 81.1493 109.889 81.0025 109.393C80.443 107.547 79.332 106.178 77.4829 105.487C76.2965 105.047 75.0625 104.952 73.8166 105.051C73.1738 105.098 72.6778 104.9 72.2413 104.436C71.039 103.154 69.809 101.892 68.6067 100.606C67.5592 99.4868 66.3132 98.8677 64.7578 98.9669C62.6151 99.1058 60.4685 99.2526 58.3218 99.3955C57.3259 99.463 56.3895 99.7368 55.5284 100.225C55.2903 100.364 55.0602 100.507 54.842 100.654C54.7547 100.713 54.6714 100.773 54.588 100.832C54.4888 100.904 54.3936 100.975 54.3023 101.046C54.3023 101.05 54.2984 101.05 54.2984 101.05C54.0643 101.237 53.85 101.427 53.6754 101.59C53.4373 101.82 53.2627 102.003 53.1953 102.078C53.1834 102.094 53.1715 102.106 53.1596 102.118C52.1874 103.209 51.5129 104.523 51.1201 106.051C51.0883 106.17 51.0605 106.257 50.9217 106.301C49.7948 106.662 49.1282 107.508 49.0567 108.694C49.021 109.309 49.0171 109.924 48.9893 110.54C48.9893 110.623 48.9417 110.726 48.8822 110.782C48.5647 111.071 48.4298 111.421 48.4616 111.849C48.5092 112.496 48.5488 113.147 48.5925 113.798C48.648 114.604 49.1559 115.056 49.9654 115.004C50.636 114.965 51.3026 114.917 51.9732 114.873C52.0367 114.865 52.1001 114.854 52.1676 114.842C51.5843 112.603 53.1318 110.456 55.2665 110.151C56.2744 110.008 57.2069 110.214 58.0282 110.817C59.2107 111.69 59.6987 112.889 59.5836 114.346L71.6144 113.544C70.9954 111.254 72.7016 109.027 74.8919 108.829C75.9553 108.734 76.9076 109.008 77.717 109.698C78.7368 110.571 79.1495 111.702 79.0344 113.052C79.2209 113.04 79.3915 113.036 79.5582 113.016C80.7168 112.877 81.4112 112.075 81.312 110.921ZM58.7901 105.737C58.3814 105.765 57.9687 105.781 57.56 105.805C57.1513 105.829 56.7386 105.86 56.3299 105.888V105.872C55.5165 105.928 54.7071 105.987 53.8936 106.031C53.7548 106.039 53.604 106.011 53.477 105.956C53.2588 105.864 53.1913 105.71 53.231 105.475C53.3857 104.475 53.8302 103.626 54.473 102.884C54.5245 102.82 54.5801 102.761 54.6356 102.701C54.6475 102.686 54.6594 102.674 54.6753 102.662C55.1197 102.201 55.6038 101.84 55.7665 101.721C55.8062 101.697 55.826 101.681 55.826 101.681C56.6315 101.162 57.5402 100.876 58.5758 100.868C59.0162 100.864 59.2424 101.05 59.2741 101.491C59.3535 102.638 59.4289 103.785 59.5003 104.932C59.5321 105.44 59.3019 105.698 58.7901 105.737ZM69.9399 104.761C69.8566 104.972 69.6701 105.011 69.4677 105.027C68.1663 105.114 66.8608 105.202 65.5554 105.289V105.229C64.2817 105.317 63.0119 105.404 61.7382 105.483C61.1708 105.519 60.9962 105.364 60.9565 104.801C60.8772 103.666 60.8018 102.531 60.7304 101.396C60.6947 100.896 60.8613 100.713 61.3692 100.677C62.4961 100.598 63.623 100.523 64.7499 100.451C65.6188 100.396 66.3767 100.654 66.9878 101.281C67.9322 102.249 68.8606 103.237 69.7971 104.217C69.9399 104.372 70.0232 104.551 69.9399 104.761Z" fill="url(#paint17_linear_5_294)"/>
<path d="M75.4605 115.231C73.9884 115.33 72.7186 114.223 72.6194 112.754C72.5202 111.282 73.6313 110.02 75.1034 109.92C76.5794 109.821 77.8452 110.929 77.9444 112.397C78.0436 113.865 76.9326 115.131 75.4565 115.231H75.4605Z" fill="#171F3D"/>
<path d="M53.1683 114.052C53.0691 112.576 54.1761 111.318 55.6522 111.222C57.1283 111.127 58.394 112.23 58.4893 113.703C58.5845 115.175 57.4814 116.437 56.0053 116.532C54.5293 116.632 53.2675 115.528 53.1683 114.052Z" fill="#171F3D"/>
<path d="M54.7133 113.949C54.6736 113.334 55.1339 112.806 55.7489 112.766C56.3679 112.726 56.8917 113.187 56.9354 113.802C56.975 114.417 56.5148 114.945 55.8958 114.985C55.2807 115.024 54.753 114.564 54.7133 113.949Z" fill="white"/>
<path d="M74.1684 112.647C74.1287 112.032 74.589 111.504 75.204 111.464C75.823 111.425 76.3468 111.885 76.3904 112.5C76.4301 113.115 75.9698 113.643 75.3508 113.683C74.7358 113.722 74.2081 113.262 74.1684 112.647Z" fill="white"/>
<path d="M53.1582 102.118C53.1582 102.118 53.182 102.094 53.1939 102.078C53.1701 102.106 53.1582 102.118 53.1582 102.118Z" fill="url(#paint18_linear_5_294)"/>
<path d="M227.293 92.2719C227.448 92.2084 227.598 92.129 227.769 92.0456C227.011 90.9265 226.817 89.7359 227.281 88.4778C227.65 87.4777 228.348 86.7752 229.321 86.3387C231.328 85.4417 233.904 86.549 234.483 88.8509L245.371 83.6717C244.557 82.4573 244.399 81.1714 245.006 79.834C245.426 78.9053 246.141 78.2703 247.089 77.9012C249.101 77.1234 251.501 78.2425 252.085 80.4809C252.148 80.4571 252.212 80.4373 252.271 80.4135C252.878 80.1237 253.481 79.838 254.088 79.5483C254.818 79.199 255.041 78.5561 254.695 77.8259C254.414 77.2385 254.132 76.6511 253.858 76.0598C253.676 75.6708 253.39 75.4327 252.969 75.3335C252.89 75.3137 252.803 75.2462 252.759 75.1748C252.434 74.6509 252.132 74.1151 251.799 73.5992C251.156 72.5991 250.16 72.1864 249.001 72.4245C248.859 72.4562 248.791 72.3927 248.708 72.3014C247.617 71.1624 246.387 70.3449 245.006 69.8686C244.99 69.8647 244.974 69.8607 244.954 69.8527C244.859 69.821 244.617 69.7456 244.295 69.6623C244.065 69.6067 243.784 69.5432 243.49 69.4956C243.49 69.4956 243.49 69.4956 243.486 69.4956C243.371 69.4797 243.252 69.4639 243.133 69.448C243.03 69.4361 242.931 69.4241 242.823 69.4162C242.562 69.3964 242.292 69.3845 242.014 69.3765C241.026 69.3725 240.074 69.5908 239.173 70.0194C237.229 70.9441 235.284 71.8649 233.348 72.7896C231.943 73.4643 231.158 74.6112 230.793 76.0995C230.372 77.81 229.916 79.5125 229.491 81.2191C229.336 81.8382 229.003 82.2549 228.416 82.5248C227.281 83.0486 226.249 83.7352 225.432 84.6996C224.154 86.2077 223.857 87.942 224.269 89.8272C224.384 90.3312 224.531 90.8392 224.746 91.3114C225.222 92.3671 226.222 92.7282 227.301 92.2838L227.293 92.2719ZM240.843 75.4129C240.343 74.377 239.851 73.3412 239.359 72.3014C239.173 71.9006 239.276 71.6268 239.665 71.4164C240.574 70.9164 241.506 70.7219 242.462 70.7814C242.462 70.7814 242.486 70.7854 242.534 70.7854C242.732 70.8092 243.331 70.8886 243.946 71.0712C243.966 71.0712 243.982 71.0791 244.002 71.087C244.081 71.1109 244.157 71.1346 244.232 71.1664C245.157 71.4998 245.958 72.0237 246.581 72.8214C246.732 73.0079 246.748 73.1746 246.601 73.3611C246.518 73.4722 246.398 73.5714 246.275 73.6309C245.545 73.9921 244.807 74.3334 244.073 74.6826L244.081 74.6946C243.712 74.8692 243.335 75.0438 242.966 75.2224C242.597 75.401 242.232 75.5875 241.859 75.7661C241.395 75.9804 241.066 75.8693 240.847 75.4089L240.843 75.4129ZM231.511 79.8221C231.848 78.5085 232.177 77.1948 232.527 75.8852C232.753 75.0398 233.288 74.4446 234.074 74.0675C235.094 73.5794 236.114 73.0952 237.133 72.611C237.594 72.3927 237.828 72.4721 238.042 72.9245C238.534 73.9485 239.022 74.9763 239.51 76.0042C239.752 76.5162 239.673 76.7345 239.161 76.9805C238.01 77.5322 236.86 78.0799 235.709 78.6236L235.733 78.6791C234.55 79.2427 233.368 79.8023 232.189 80.3619C232.007 80.4452 231.824 80.5047 231.646 80.3619C231.471 80.219 231.455 80.0245 231.503 79.8181L231.511 79.8221Z" fill="url(#paint19_linear_5_294)"/>
<path d="M231.95 92.2004C233.284 91.5693 233.851 89.9819 233.216 88.6484C232.585 87.3149 230.998 86.7553 229.665 87.3903C228.328 88.0253 227.764 89.6088 228.395 90.9423C229.026 92.2718 230.613 92.8314 231.95 92.2004Z" fill="#171F3D"/>
<path d="M250.824 80.2746C250.19 78.9411 248.61 78.3815 247.273 79.0205C245.936 79.6595 245.372 81.239 246.011 82.5685C246.646 83.902 248.229 84.4616 249.563 83.8226C250.9 83.1876 251.459 81.6081 250.824 80.2746Z" fill="#171F3D"/>
<path d="M249.42 80.9453C249.154 80.3857 248.496 80.1555 247.936 80.4214C247.377 80.6873 247.143 81.3501 247.408 81.9057C247.674 82.4613 248.333 82.6954 248.892 82.4295C249.452 82.1636 249.686 81.5048 249.42 80.9453Z" fill="white"/>
<path d="M231.813 89.319C231.547 88.7594 230.888 88.5293 230.329 88.7952C229.769 89.0611 229.535 89.7238 229.801 90.2794C230.067 90.8351 230.725 91.0692 231.285 90.8033C231.844 90.5374 232.079 89.8786 231.813 89.319Z" fill="white"/>
<path d="M245 69.8605C245 69.8605 244.969 69.8526 244.949 69.8447C244.985 69.8565 245 69.8605 245 69.8605Z" fill="url(#paint20_linear_5_294)"/>
</svg>
