<svg width="95" height="108" viewBox="0 0 95 108" fill="none" xmlns="http://www.w3.org/2000/svg">
<defs>
<linearGradient id="paint0_linear_24_5745" x1="11.2716" y1="23.0947" x2="75.3982" y2="30.4276" gradientUnits="userSpaceOnUse">
<stop stop-color="#FF8177"/>
<stop offset="1" stop-color="#B22B5B"/>
</linearGradient>
<linearGradient id="paint1_linear_24_5745" x1="11.7357" y1="21.1958" x2="80.2639" y2="29.0276" gradientUnits="userSpaceOnUse">
<stop stop-color="#FF8177"/>
<stop offset="1" stop-color="#B22B5B"/>
</linearGradient>
<linearGradient id="paint2_linear_24_5745" x1="12.189" y1="15.0347" x2="82.0973" y2="23.0313" gradientUnits="userSpaceOnUse">
<stop stop-color="#FF8177"/>
<stop offset="1" stop-color="#B22B5B"/>
</linearGradient>
<linearGradient id="paint3_linear_24_5745" x1="8.57907" y1="46.5893" x2="78.4864" y2="54.5856" gradientUnits="userSpaceOnUse">
<stop stop-color="#FF8177"/>
<stop offset="1" stop-color="#B22B5B"/>
</linearGradient>
<linearGradient id="paint4_linear_24_5745" x1="8.58645" y1="46.5129" x2="78.4974" y2="54.5093" gradientUnits="userSpaceOnUse">
<stop stop-color="#FF8177"/>
<stop offset="1" stop-color="#B22B5B"/>
</linearGradient>
<linearGradient id="paint5_linear_24_5745" x1="13.7882" y1="1.05213" x2="83.6964" y2="9.04875" gradientUnits="userSpaceOnUse">
<stop stop-color="#FF8177"/>
<stop offset="1" stop-color="#B22B5B"/>
</linearGradient>
<linearGradient id="paint6_linear_24_5745" x1="12.6238" y1="11.2086" x2="82.5356" y2="19.2052" gradientUnits="userSpaceOnUse">
<stop stop-color="#FF8177"/>
<stop offset="1" stop-color="#B22B5B"/>
</linearGradient>
<linearGradient id="paint7_linear_24_5745" x1="12.9334" y1="8.51123" x2="82.8419" y2="16.5079" gradientUnits="userSpaceOnUse">
<stop stop-color="#FF8177"/>
<stop offset="1" stop-color="#B22B5B"/>
</linearGradient>
<linearGradient id="paint8_linear_24_5745" x1="11.2716" y1="23.0947" x2="75.3982" y2="30.4276" gradientUnits="userSpaceOnUse">
<stop stop-color="#FF8177"/>
<stop offset="1" stop-color="#B22B5B"/>
</linearGradient>
<linearGradient id="paint9_linear_24_5745" x1="11.7357" y1="21.1958" x2="80.2639" y2="29.0276" gradientUnits="userSpaceOnUse">
<stop stop-color="#FF8177"/>
<stop offset="1" stop-color="#B22B5B"/>
</linearGradient>
<linearGradient id="paint10_linear_24_5745" x1="9.95348" y1="34.5835" x2="79.8618" y2="42.5802" gradientUnits="userSpaceOnUse">
<stop stop-color="#FF8177"/>
<stop offset="1" stop-color="#B22B5B"/>
</linearGradient>
<linearGradient id="paint11_linear_24_5745" x1="11.7266" y1="19.0718" x2="81.635" y2="27.0684" gradientUnits="userSpaceOnUse">
<stop stop-color="#FF8177"/>
<stop offset="1" stop-color="#B22B5B"/>
</linearGradient>
<linearGradient id="paint12_linear_24_5745" x1="11.037" y1="25.0895" x2="80.9489" y2="33.0861" gradientUnits="userSpaceOnUse">
<stop stop-color="#FF8177"/>
<stop offset="1" stop-color="#B22B5B"/>
</linearGradient>
<linearGradient id="paint13_linear_24_5745" x1="1.70484" y1="2.42812" x2="17.742" y2="16.9408" gradientUnits="userSpaceOnUse">
<stop stop-color="#FF8177"/>
<stop offset="1" stop-color="#B22B5B"/>
</linearGradient>
<linearGradient id="paint14_linear_24_5745" x1="12.6102" y1="11.3471" x2="82.5158" y2="19.3467" gradientUnits="userSpaceOnUse">
<stop stop-color="#FF8177"/>
<stop offset="1" stop-color="#B22B5B"/>
</linearGradient>
</defs>
<path d="M11.1967 85.1698C11.233 85.3591 11.3857 85.7704 11.5711 85.7704C11.8328 85.7704 11.9091 85.319 11.9455 85.2062L15.5805 72.0681C16.0676 70.3025 17.718 70.2297 18.4668 70.2297C19.4046 70.2297 20.8296 70.419 21.353 72.0681L25.0244 85.2062C25.0608 85.3554 25.1735 85.7704 25.3625 85.7704C25.5515 85.7704 25.6642 85.4319 25.7732 85.1698L29.5573 70.4955H33.7558L29.0339 87.8746C28.4341 90.2008 27.0855 90.5757 25.6242 90.5757C24.5373 90.5757 22.8143 90.3864 22.2145 88.3624L18.7685 75.9014C18.7321 75.7522 18.6558 75.2644 18.4668 75.2644C18.2778 75.2644 18.205 75.7522 18.1651 75.9014L14.719 88.3624C14.4173 89.3744 13.5958 90.5757 11.3094 90.5757C8.61214 90.5757 8.19774 88.963 7.89967 87.8746L3.17773 70.4955H7.37622L11.2003 85.1698H11.1967Z" fill="#353333"/>
<path d="M35.5907 86.9716H46.7575C47.2083 86.9716 47.8081 86.8952 48.2188 86.4074C48.6296 85.996 48.5932 85.4682 48.5932 85.1697C48.5932 84.6054 48.5169 84.1176 48.0298 83.6698C47.7281 83.3713 47.1683 83.182 44.4311 82.3921L40.607 81.34C36.2595 80.4772 35.1726 77.6632 35.3217 75.5591C35.3217 74.5471 35.4707 73.2693 36.2595 72.1809C37.4954 70.5281 39.2948 70.4553 41.0178 70.4553H52.2247V73.8336H41.6939C41.2068 73.8336 40.6434 73.7972 40.1563 74.2085C39.5928 74.6199 39.5928 75.0713 39.5928 75.6356C39.5928 76.1998 39.6292 76.6876 40.229 77.1754C40.7924 77.6268 42.2137 78.0746 42.7008 78.1874L46.972 79.3888C49.3711 80.1023 50.9088 80.5901 51.9193 81.6422C53.0062 82.8071 53.1552 84.194 53.1552 85.2825C53.1552 86.2945 53.0426 88.3222 51.4686 89.5235C50.458 90.2734 49.2948 90.3499 48.2843 90.3499H35.5798V86.9716H35.5907Z" fill="#353333"/>
<path d="M68.6078 70.4553C70.2944 70.4553 71.8321 71.056 72.7299 71.9952C73.5914 72.858 74.1912 74.4342 74.1912 76.6876V87.008C74.1912 87.7216 74.1149 88.8464 73.4024 89.5599C72.69 90.2734 71.6031 90.3499 70.6652 90.3499H61.185C60.0981 90.3499 58.7495 90.3863 57.5863 89.3743C55.976 87.9473 55.8633 85.4718 55.8633 83.9683C55.8633 82.2028 56.0523 80.4408 57.5499 79.1267C58.7859 78.0382 60.1345 77.9617 61.185 77.9617H69.8037V76.5748C69.8037 75.9741 69.7274 75.297 69.2403 74.6963C68.6405 73.9464 67.8153 73.8336 67.1029 73.8336H57.3209V70.4553H68.6005H68.6078ZM62.4973 81.34C62.1955 81.34 61.374 81.3764 60.8869 82.0171C60.7379 82.2064 60.3998 82.6942 60.3998 84.1576C60.3998 84.7583 60.4362 85.8104 60.9996 86.371C61.3013 86.6695 61.8611 86.9716 62.4246 86.9716H68.5351C69.1349 87.1209 70.0327 86.5202 69.811 85.9196V81.34H62.5045H62.4973Z" fill="#353333"/>
<path d="M85.133 90.3465C83.5953 90.3465 81.0472 90.0443 79.2115 87.9074C77.5611 85.9562 77.4121 83.5172 77.4121 80.6631C77.4121 78.2605 77.4485 74.8822 79.6622 72.5924C80.451 71.8025 82.174 70.4519 85.7327 70.4519H94.2388V73.8302H87.1541C84.1951 73.8302 82.7702 75.2936 82.2831 76.9827C81.9814 78.0712 81.945 80.0989 81.945 80.7359C81.945 81.9008 82.0577 83.812 82.5812 84.8641C83.5917 86.7425 85.7291 86.9646 87.5648 86.9646H94.6859V90.3428H85.1293L85.133 90.3465Z" fill="#353333"/>
<path d="M5.63867 103.648C5.64957 103.71 5.70046 103.841 5.75862 103.841C5.84223 103.841 5.86768 103.696 5.87858 103.659L7.0527 99.411C7.20901 98.8395 7.74336 98.8176 7.98691 98.8176C8.28862 98.8176 8.75027 98.8795 8.92112 99.411L10.1098 103.659C10.1207 103.707 10.157 103.841 10.2188 103.841C10.2806 103.841 10.317 103.732 10.3533 103.648L11.5783 98.905H12.9342L11.4075 104.522C11.2148 105.276 10.7786 105.396 10.3061 105.396C9.95348 105.396 9.39731 105.334 9.20465 104.679L8.08869 100.649C8.07779 100.601 8.05234 100.441 7.99055 100.441C7.92875 100.441 7.90694 100.598 7.8924 100.649L6.77644 104.679C6.67829 105.006 6.41293 105.396 5.67502 105.396C4.8026 105.396 4.66811 104.875 4.5736 104.522L3.04688 98.905H4.40275L5.63867 103.648Z" fill="#7C7C7C"/>
<path d="M15.3797 105.323C14.7253 105.323 13.9365 105.261 13.4167 104.511C12.9914 103.892 12.9551 103.03 12.9551 102.17C12.9551 100.958 13.0023 100.095 13.7184 99.4766C14.42 98.8687 15.5105 98.8687 16.1176 98.8687C16.8809 98.8687 17.6443 98.9051 18.2368 99.28C18.9747 99.7642 19.1456 100.554 19.1456 101.366C19.1456 101.694 19.1201 102.058 18.8439 102.338C18.6512 102.531 18.4077 102.582 18.1532 102.582H14.42C14.42 102.862 14.4564 103.273 14.5036 103.466C14.6963 104.147 15.2779 104.231 15.8013 104.231H18.9384V105.323H15.376H15.3797ZM17.368 101.49C17.6479 101.49 17.6843 101.297 17.6843 101.115C17.6843 100.714 17.4771 100.412 17.2735 100.252C16.9209 99.9717 16.4629 99.9608 16.0631 99.9608C15.6632 99.9608 15.1179 99.9498 14.7181 100.387C14.4273 100.714 14.4382 101.067 14.4273 101.49H17.3717H17.368Z" fill="#7C7C7C"/>
<path d="M22.687 104.231H26.2966C26.4421 104.231 26.6347 104.205 26.7692 104.049C26.9037 103.914 26.8892 103.747 26.8892 103.648C26.8892 103.466 26.8637 103.31 26.7074 103.164C26.6093 103.066 26.4275 103.008 25.5442 102.753L24.3083 102.414C22.9015 102.134 22.5525 101.224 22.5998 100.547C22.5998 100.219 22.6471 99.8078 22.9015 99.4547C23.3014 98.9195 23.883 98.8977 24.4391 98.8977H28.0633V99.9898H24.6572C24.5009 99.9898 24.3192 99.9789 24.1592 100.11C23.9775 100.245 23.9775 100.39 23.9775 100.572C23.9775 100.754 23.9884 100.911 24.1847 101.071C24.3664 101.217 24.8281 101.362 24.9844 101.399L26.3657 101.788C27.14 102.017 27.638 102.178 27.9651 102.516C28.3177 102.891 28.365 103.343 28.365 103.692C28.365 104.02 28.3286 104.675 27.8197 105.064C27.4926 105.308 27.1182 105.33 26.791 105.33H22.6834V104.238L22.687 104.231Z" fill="#7C7C7C"/>
<path d="M30.9863 103.648C30.9972 103.71 31.0481 103.841 31.1063 103.841C31.1899 103.841 31.2153 103.696 31.2262 103.659L32.4004 99.411C32.5567 98.8395 33.091 98.8176 33.3346 98.8176C33.6363 98.8176 34.0979 98.8795 34.2688 99.411L35.4574 103.659C35.4683 103.707 35.5047 103.841 35.5665 103.841C35.6283 103.841 35.6646 103.732 35.701 103.648L36.926 98.905H38.2819L36.7552 104.522C36.5625 105.276 36.1263 105.396 35.6537 105.396C35.3011 105.396 34.745 105.334 34.5523 104.679L33.4364 100.649C33.4254 100.601 33.4 100.441 33.3382 100.441C33.2764 100.441 33.2546 100.598 33.2401 100.649L32.1241 104.679C32.0259 105.006 31.7606 105.396 31.0227 105.396C30.1503 105.396 30.0158 104.875 29.9213 104.522L28.3945 98.905H29.7504L30.9863 103.648Z" fill="#7C7C7C"/>
<path d="M42.4215 98.8904C42.9668 98.8904 43.4648 99.0833 43.7556 99.3891C44.0355 99.6694 44.2281 100.179 44.2281 100.907V104.245C44.2281 104.475 44.2027 104.839 43.9737 105.072C43.7447 105.305 43.3921 105.327 43.0904 105.327H40.026C39.6734 105.327 39.2372 105.337 38.8628 105.01C38.343 104.547 38.3066 103.747 38.3066 103.262C38.3066 102.691 38.3684 102.123 38.8519 101.697C39.2518 101.344 39.688 101.322 40.026 101.322H42.8141V100.874C42.8141 100.681 42.7887 100.463 42.6324 100.266C42.4397 100.023 42.1707 99.9861 41.9417 99.9861H38.7792V98.894H42.4252L42.4215 98.8904ZM40.4477 102.411C40.3495 102.411 40.0842 102.422 39.9279 102.629C39.8806 102.691 39.7716 102.847 39.7716 103.321C39.7716 103.514 39.7825 103.856 39.9642 104.038C40.0624 104.136 40.2441 104.231 40.4259 104.231H42.3997C42.5924 104.278 42.8832 104.085 42.8105 103.892V102.411H40.4477Z" fill="#7C7C7C"/>
<path d="M46.6169 107.383H45.1992V99.8842C45.1992 99.4583 45.4064 99.2289 45.5627 99.0942C45.8063 98.9122 46.1189 98.8867 46.3624 98.8867H48.6053C49.016 98.8867 49.8775 98.9486 50.4955 99.5893C51.1498 100.281 51.1752 101.253 51.1752 101.966C51.1752 102.815 51.128 103.739 50.6663 104.395C50.0484 105.279 49.0669 105.316 48.4126 105.316H46.6205V107.38L46.6169 107.383ZM48.2272 104.227C48.9433 104.227 49.2814 103.889 49.4377 103.634C49.5722 103.441 49.703 103.051 49.703 102.094C49.703 101.22 49.6194 100.893 49.5322 100.711C49.3504 100.285 48.9251 99.9825 48.2963 99.9825H46.9041C46.8423 99.9825 46.7586 100.03 46.7114 100.066C46.6496 100.128 46.6132 100.201 46.6132 100.285V104.227H48.2236H48.2272Z" fill="#7C7C7C"/>
<path d="M58.7438 98.8904C59.289 98.8904 59.787 99.0833 60.0778 99.3891C60.3577 99.6694 60.5504 100.179 60.5504 100.907V104.245C60.5504 104.475 60.525 104.839 60.296 105.072C60.0669 105.305 59.7143 105.327 59.4126 105.327H56.3483C55.9957 105.327 55.5595 105.337 55.1851 105.01C54.6653 104.547 54.6289 103.747 54.6289 103.262C54.6289 102.691 54.6907 102.123 55.1742 101.697C55.574 101.344 56.0102 101.322 56.3483 101.322H59.1364V100.874C59.1364 100.681 59.1109 100.463 58.9546 100.266C58.762 100.023 58.493 99.9861 58.264 99.9861H55.1015V98.894H58.7474L58.7438 98.8904ZM56.7699 102.411C56.6718 102.411 56.4064 102.422 56.2501 102.629C56.2029 102.691 56.0938 102.847 56.0938 103.321C56.0938 103.514 56.1047 103.856 56.2865 104.038C56.3846 104.136 56.5664 104.231 56.7481 104.231H58.722C58.9146 104.278 59.2054 104.085 59.1327 103.892V102.411H56.7699Z" fill="#7C7C7C"/>
<path d="M61.5173 99.8733C61.5173 99.6804 61.5282 99.3892 61.7245 99.1817C62.0044 98.8795 62.4261 98.8904 62.706 98.8904H64.9706C65.6504 98.8904 66.2429 98.9378 66.7627 99.411C67.1008 99.7131 67.3916 100.201 67.3916 101.086V105.319H65.9739V101.508C65.9739 101.082 65.9375 100.671 65.7085 100.368C65.5013 100.088 65.2105 99.9789 64.6907 99.9789H63.2476C63.0913 99.917 62.8732 100.135 62.9314 100.317V105.316H61.5137V99.866L61.5173 99.8733Z" fill="#7C7C7C"/>
<path d="M70.9064 107.398H69.4633L70.4448 105.297L67.584 98.8904H69.0489L71.11 103.83L73.291 98.9159H74.7341L70.9064 107.398Z" fill="#7C7C7C"/>
<path d="M80.0774 105.323C79.5794 105.323 78.7578 105.225 78.1617 104.533C77.6273 103.903 77.5801 103.113 77.5801 102.192C77.5801 101.417 77.591 100.325 78.3071 99.582C78.5615 99.3272 79.1177 98.8904 80.27 98.8904H83.0218V99.9825H80.7317C79.7757 99.9825 79.314 100.456 79.1577 101.002C79.0595 101.355 79.0486 102.01 79.0486 102.214C79.0486 102.589 79.085 103.208 79.2558 103.55C79.583 104.158 80.2737 104.231 80.8662 104.231H83.1672V105.323H80.0774Z" fill="#7C7C7C"/>
<path d="M87.9176 98.8904C88.4629 98.8904 88.9609 99.0833 89.2517 99.3891C89.5316 99.6694 89.7242 100.179 89.7242 100.907V104.245C89.7242 104.475 89.6988 104.839 89.4698 105.072C89.2408 105.305 88.8882 105.327 88.5865 105.327H85.5221C85.1695 105.327 84.7333 105.337 84.3589 105.01C83.8391 104.547 83.8027 103.747 83.8027 103.262C83.8027 102.691 83.8645 102.123 84.348 101.697C84.7478 101.344 85.1841 101.322 85.5221 101.322H88.3102V100.874C88.3102 100.681 88.2848 100.463 88.1284 100.266C87.9358 100.023 87.6668 99.9861 87.4378 99.9861H84.2753V98.894H87.9213L87.9176 98.8904ZM85.9438 102.411C85.8456 102.411 85.5803 102.422 85.424 102.629C85.3767 102.691 85.2677 102.847 85.2677 103.321C85.2677 103.514 85.2786 103.856 85.4603 104.038C85.5585 104.136 85.7402 104.231 85.922 104.231H87.8958C88.0885 104.278 88.3793 104.085 88.3066 103.892V102.411H85.9438Z" fill="#7C7C7C"/>
<path d="M90.6914 101.319C90.6914 100.601 90.8114 99.9243 91.3566 99.451C91.9491 98.9304 92.7852 98.894 93.2832 98.894H94.2392V99.9862H93.6467C93.2723 99.9862 92.7743 100.033 92.4362 100.434C92.1563 100.762 92.1091 101.209 92.1091 101.697V105.327H90.6914V101.322V101.319Z" fill="#7C7C7C"/>
<path d="M22.3198 24.3649H22.3161C22.3161 24.3649 22.3125 24.3613 22.3125 24.3577L22.3198 24.3649Z" fill="url(#paint0_linear_24_5745)"/>
<path d="M24.1713 22.6137L24.1535 22.6316L24.125 22.603C24.1428 22.6066 24.1571 22.6066 24.1713 22.6137Z" fill="url(#paint1_linear_24_5745)"/>
<path d="M61.2004 21.5837L59.4883 19.5378C60.1244 20.1603 60.6951 20.8447 61.2004 21.5837Z" fill="url(#paint2_linear_24_5745)"/>
<path d="M23.043 48.1292C19.2153 48.1292 16.0601 51.0342 15.6784 54.7692C15.6493 55.0276 15.6348 55.2861 15.6348 55.5518C15.6348 56.2654 15.7329 56.9534 15.9256 57.605C16.8125 60.7066 19.666 62.9745 23.0466 62.9745C24.119 62.9745 25.1404 62.7452 26.0565 62.3338H26.0601C28.0412 61.4492 29.5643 59.7237 30.1677 57.605C30.3567 56.9534 30.4585 56.2654 30.4585 55.5518C30.4585 51.4528 27.1397 48.1328 23.0466 48.1328L23.043 48.1292ZM25.3658 57.6014C24.7987 58.2457 23.9663 58.6498 23.043 58.6498C22.1197 58.6498 21.2909 58.2457 20.7238 57.6014C20.2404 57.0553 19.9459 56.3382 19.9459 55.5482C19.9459 53.8336 21.3345 52.4503 23.0394 52.4503C24.7442 52.4503 26.1328 53.8372 26.1328 55.5482C26.1328 56.3382 25.842 57.0553 25.3585 57.6014H25.3658Z" fill="#353333"/>
<path d="M4.16254 46.0505C4.16254 46.0505 4.12983 46.076 4.11529 46.0906C4.10802 46.0979 4.09711 46.1015 4.08984 46.1088C4.08984 46.1015 4.10075 46.0979 4.10802 46.0906C4.1262 46.076 4.14437 46.0651 4.16254 46.0505Z" fill="url(#paint3_linear_24_5745)"/>
<path d="M4.24262 45.9778C4.24262 45.9778 4.23172 45.9887 4.22445 45.996C4.20627 46.0142 4.1881 46.0287 4.16992 46.0433C4.18446 46.0287 4.20264 46.0142 4.21718 45.996C4.22445 45.9887 4.23535 45.9814 4.24262 45.9778Z" fill="url(#paint4_linear_24_5745)"/>
<path d="M10.0768 0.822786L9.64062 0.378662C9.80784 0.502434 9.95687 0.651689 10.0768 0.822786Z" fill="url(#paint5_linear_24_5745)"/>
<path d="M0.83166 10.0655C0.646272 9.9381 0.482696 9.77428 0.355469 9.58862L0.83166 10.0655Z" fill="url(#paint6_linear_24_5745)"/>
<path d="M0.861339 6.83667L0.337891 7.36088C0.476023 7.15338 0.654141 6.975 0.861339 6.83667Z" fill="url(#paint7_linear_24_5745)"/>
<path d="M22.3198 24.3649H22.3161C22.3161 24.3649 22.3125 24.3613 22.3125 24.3577L22.3198 24.3649Z" fill="url(#paint8_linear_24_5745)"/>
<path d="M24.1713 22.6137L24.1535 22.6316L24.125 22.603C24.1428 22.6066 24.1571 22.6066 24.1713 22.6137Z" fill="url(#paint9_linear_24_5745)"/>
<path d="M94.2686 52.2575C94.2686 53.5862 93.7851 54.8021 92.9818 55.7377C92.0003 56.8771 90.5499 57.6015 88.9323 57.6015H87.7945C87.8054 57.5615 87.8127 57.5214 87.8163 57.4814C87.9327 56.8553 87.9908 56.2073 87.9908 55.5484C87.9908 52.7926 86.9585 50.2808 85.2609 48.3769C83.2943 46.1672 80.4299 44.7802 77.242 44.7802C71.3059 44.7802 66.4895 49.6 66.4895 55.5484C66.4895 56.251 66.5549 56.939 66.6858 57.6015H45.5988L52.6472 42.1045H57.8962L57.34 40.1242L54.8173 31.0924L41.8838 39.1012L37.0346 42.1009H44.3811L37.3363 57.5979H33.6031C33.734 56.9353 33.7994 56.2473 33.7994 55.5447C33.7994 49.5964 28.9866 44.7765 23.0469 44.7765C18.703 44.7765 14.9589 47.3576 13.265 51.0744C12.6398 52.4359 12.2944 53.9466 12.2944 55.5447C12.2944 56.2473 12.3599 56.9353 12.4907 57.5979H5.90766C4.39911 57.5979 3.17773 56.3711 3.17773 54.864V48.1402C3.17773 47.3284 3.53397 46.6004 4.09376 46.1016C4.10103 46.0944 4.11194 46.0907 4.11921 46.0834C4.13375 46.0689 4.15193 46.0543 4.16647 46.0434C4.16647 46.0434 4.16889 46.041 4.17374 46.0361C4.17374 46.0361 4.21009 46.007 4.22826 45.9888C4.23554 45.9815 4.23917 45.9779 4.24644 45.9706C4.47544 45.7594 4.63539 45.4682 4.68628 45.1406C4.69355 45.0969 4.69718 45.0496 4.70082 45.0022L5.18065 40.5974V40.5719C5.18065 40.0295 5.24244 39.5017 5.35513 38.9957C5.95128 36.3637 8.00508 34.285 10.626 33.6625C10.6987 33.6443 10.7714 33.6298 10.8441 33.6152H10.8513C11.1058 33.5278 11.313 33.3349 11.4184 33.0873C11.4402 33.0291 11.4584 32.9709 11.4729 32.909C12.8615 28.2566 15.6169 24.1939 19.2738 21.187L22.3163 24.3468C22.3163 24.3468 22.3163 24.3541 22.3199 24.3578C22.4326 25.1077 23.0724 25.6792 23.8539 25.6792C24.7118 25.6792 25.4061 24.9839 25.4061 24.1211C25.4061 23.3749 24.879 22.7487 24.1774 22.6031C24.1629 22.5958 24.1484 22.5958 24.1302 22.5922L21.3239 19.6799C25.1044 17.1972 29.6228 15.752 34.4828 15.752H41.1023L40.7278 16.5747L34.5083 30.2624H29.3538L32.4399 41.3036L39.7173 36.7969L50.2699 30.2624H42.7744L47.5981 19.6508L49.3357 15.8284C49.6592 15.8029 49.9863 15.792 50.3171 15.792C53.8831 15.792 57.1183 17.2117 59.4884 19.5161L59.4993 19.527L61.2114 21.5729L61.2332 21.602L69.3684 31.3109C69.6229 31.6749 69.9101 32.0134 70.219 32.3302C71.7494 33.8882 73.8759 34.8529 76.2278 34.8529C76.3732 34.8529 76.5186 34.8493 76.6604 34.842C76.664 34.842 76.6676 34.842 76.6713 34.842C76.813 34.8347 76.9512 34.8238 77.0893 34.8092C77.0893 34.8092 77.0929 34.8056 77.0966 34.8092C77.4419 34.7801 77.7909 34.7692 78.1435 34.7692C85.9188 34.7692 92.3783 40.419 93.647 47.8381C93.6688 47.9691 93.6906 48.0965 93.7088 48.224L94.174 51.1872V51.2054L94.2468 51.6423C94.2686 51.8425 94.2795 52.0427 94.2795 52.2466L94.2686 52.2575Z" fill="url(#paint10_linear_24_5745)"/>
<path d="M23.8495 24.6997C23.7114 24.6997 23.5878 24.6524 23.4896 24.5651L23.3988 24.4704L23.3806 24.4486L22.8317 23.8807L22.4427 23.4766L19.8255 20.7572L18.8186 19.7125L16.8411 17.6593L16.3431 17.1424L16.0232 16.8074L15.5216 16.2869L15.4671 16.2286C15.3871 16.1303 15.3398 16.0102 15.3398 15.8755C15.3398 15.5624 15.5943 15.3076 15.9069 15.3076C16.0123 15.3076 16.1068 15.3367 16.1904 15.3877C16.2014 15.3913 16.2123 15.3986 16.2232 15.4059L16.3758 15.5588V15.5661L16.8193 16.0211H16.8229L17.1574 16.3742L17.6481 16.8839L19.6074 18.9189L20.7379 20.0911L23.2534 22.6975L23.6496 23.1126L24.2239 23.7059L24.2312 23.7132L24.2857 23.7715H24.2893C24.3693 23.8697 24.4166 23.9972 24.4166 24.1319C24.4166 24.4449 24.1658 24.6997 23.8531 24.6997H23.8495Z" fill="url(#paint11_linear_24_5745)"/>
<path d="M70.2119 32.3374C69.9029 32.0207 69.6158 31.6822 69.3613 31.3181L70.2119 32.3374Z" fill="url(#paint12_linear_24_5745)"/>
<path d="M84.6502 55.4463C84.6357 54.1066 84.2612 52.858 83.6215 51.7805C82.331 49.5926 79.9573 48.1328 77.2383 48.1328C73.1489 48.1328 69.8301 51.4528 69.8301 55.5519C69.8301 56.2654 69.9282 56.9534 70.1209 57.605C71.0078 60.7066 73.8614 62.9746 77.242 62.9746C80.6226 62.9746 83.4797 60.7066 84.3667 57.605C84.5557 56.9534 84.6575 56.2654 84.6575 55.5519C84.6575 55.5155 84.6575 55.4827 84.6538 55.4463H84.6502ZM79.5611 57.605C78.9941 58.2494 78.1616 58.6535 77.2383 58.6535C76.315 58.6535 75.4862 58.2494 74.9192 57.605C74.4357 57.059 74.1413 56.3418 74.1413 55.5519C74.1413 53.8373 75.5298 52.4539 77.2347 52.4539C78.9395 52.4539 80.3281 53.8409 80.3281 55.5519C80.3281 56.3418 80.0373 57.059 79.5539 57.605H79.5611Z" fill="#353333"/>
<path d="M19.6075 11.8603V17.9179L17.9026 16.145C17.9135 16.0576 17.9208 15.9703 17.9208 15.8793C17.9208 15.8101 17.9208 15.7373 17.9099 15.6681C17.9026 15.6099 17.8954 15.548 17.8808 15.4897V15.4825C17.6991 14.5578 16.8848 13.8625 15.907 13.8625C15.8706 13.8625 15.8307 13.8625 15.7943 13.8698C14.7329 13.9244 13.8932 14.8017 13.8932 15.8793V15.8902C13.8932 16.8731 14.6057 17.6885 15.5362 17.8596C15.5508 17.8596 15.5653 17.8669 15.5798 17.8669C15.6853 17.8887 15.7943 17.896 15.907 17.896C15.9652 17.896 16.0197 17.8924 16.0778 17.8887L17.8372 19.7162H12.1229C11.0869 19.7162 10.1418 19.3303 9.42933 18.6932L9.06946 18.3329L0.832425 10.0692L0.356234 9.59235C0.13086 9.272 0 8.88248 0 8.46384C0 8.0452 0.123591 7.67752 0.334424 7.36445L0.865145 6.83296L6.9684 0.717151L7.24103 0.444124C7.57909 0.167457 8.01166 0 8.48422 0C8.91679 0 9.32028 0.138334 9.6438 0.378597L10.08 0.822721L18.3897 9.22831C18.4515 9.28656 18.5061 9.34844 18.5606 9.40669C19.1604 10.0656 19.5457 10.9211 19.6111 11.8567L19.6075 11.8603Z" fill="url(#paint13_linear_24_5745)"/>
<path d="M24.4129 24.1319C24.4129 24.4449 24.1621 24.6997 23.8495 24.6997C23.7114 24.6997 23.5878 24.6524 23.4896 24.5651L23.3988 24.4704L23.3806 24.4486L22.8317 23.8807L22.4427 23.4766L19.8255 20.7572L18.8186 19.7125L16.8411 17.6593L16.3431 17.1424L16.0232 16.8074L15.5216 16.2869L15.4671 16.2286C15.3871 16.1303 15.3398 16.0102 15.3398 15.8755C15.3398 15.5624 15.5943 15.3076 15.9069 15.3076C16.0123 15.3076 16.1068 15.3367 16.1904 15.3877C16.2014 15.3913 16.2123 15.3986 16.2232 15.4059L16.3758 15.5588V15.5661L16.8193 16.0211H16.8229L17.1574 16.3742L17.6481 16.8839L19.6074 18.9189L20.7379 20.0911L23.2534 22.6975L23.6496 23.1126L24.2239 23.7059L24.2312 23.7132L24.2857 23.7715H24.2893C24.3693 23.8697 24.4166 23.9972 24.4166 24.1319H24.4129Z" fill="#353333"/>
<path d="M19.6183 12.1516C19.6183 12.2499 19.6147 12.3482 19.6074 12.4464V11.8604C19.6147 11.955 19.6183 12.0533 19.6183 12.1516Z" fill="url(#paint14_linear_24_5745)"/>
</svg>
