<svg width="339" height="215" viewBox="0 0 339 215" fill="none" xmlns="http://www.w3.org/2000/svg">
<path d="M338.87 163.78C338.87 163.78 325.32 143.36 268.21 142.7C211.11 142.04 195.24 149.29 158.53 130.18C121.82 111.08 80.63 88.6799 0 113.72V215.46H338.87V163.79V163.78Z" fill="url(#paint0_linear_28_8939)"/>
<path d="M0 210.76C0 210.76 13.56 178.52 70.68 177.48C127.81 176.44 143.67 187.88 180.4 157.72C217.13 127.56 258.33 92.1999 339 131.72V215.46H0V210.76Z" fill="url(#paint1_linear_28_8939)"/>
<path d="M213.63 116.612H135.582V178.847H213.63V116.612Z" fill="#E0E0E0"/>
<defs>
<linearGradient id="paint0_linear_28_8939" x1="44.05" y1="88.8299" x2="310.29" y2="301.93" gradientUnits="userSpaceOnUse">
<stop stop-color="#FF8177"/>
<stop offset="1" stop-color="#B22B5B"/>
</linearGradient>
<linearGradient id="paint1_linear_28_8939" x1="390.99" y1="129.28" x2="127.53" y2="219.81" gradientUnits="userSpaceOnUse">
<stop stop-color="#FF8177"/>
<stop offset="1" stop-color="#B22B5B"/>
</linearGradient>
<linearGradient id="paint2_linear_28_8939" x1="134.187" y1="65.8818" x2="214.376" y2="65.8818" gradientUnits="userSpaceOnUse">
<stop stop-color="#FF8177"/>
<stop offset="1" stop-color="#B22B5B"/>
</linearGradient>
<linearGradient id="paint3_linear_28_8939" x1="126" y1="64.7302" x2="153.344" y2="64.7302" gradientUnits="userSpaceOnUse">
<stop stop-color="#FF8177"/>
<stop offset="1" stop-color="#B22B5B"/>
</linearGradient>
<linearGradient id="paint4_linear_28_8939" x1="334.4" y1="161.62" x2="24.63" y2="248.34" gradientUnits="userSpaceOnUse">
<stop stop-color="#FF8177"/>
<stop offset="1" stop-color="#B22B5B"/>
</linearGradient>
</defs>
<g opacity="0.3">
<path d="M141.264 116.74C150.449 120.015 160.59 120.714 170.45 120.902C172.488 120.936 174.561 120.936 176.539 121.448C178.518 121.959 180.428 123.068 181.443 124.842C182.552 126.77 182.433 129.183 181.802 131.324C181.17 133.456 180.087 135.426 179.303 137.507C177.921 141.158 177.494 145.158 178.074 149.021C178.322 150.659 178.757 152.314 179.703 153.67C180.65 155.034 182.177 156.066 183.831 156.092C186.799 156.135 188.829 153.218 190.296 150.642C196.326 140.075 202.851 128.066 206.714 116.526L141.264 116.74Z" fill="black"/>
</g>
<path d="M162.176 178.515C162.099 178.515 162.039 164.723 162.039 147.708C162.039 130.693 162.099 116.902 162.176 116.902C162.252 116.902 162.312 130.693 162.312 147.708C162.312 164.723 162.252 178.515 162.176 178.515Z" fill="#353333"/>
<path d="M193.736 70.4959C193.505 68.9436 188.866 63.8092 188.866 63.8092C188.866 63.8092 186.546 54.5042 185.846 51.7579C185.676 51.0756 185.301 50.2909 184.84 49.5063C183.219 46.76 180.848 44.5339 178.068 42.9731L171.646 39.3654L170.111 35.9453L154.682 28.022L150.503 35.3995C150.503 35.3995 140.345 38.6234 139.006 40.9347C137.658 43.2375 139.671 74.1377 139.671 74.1377C139.671 74.1377 135.424 91.9717 134.528 95.6562C133.632 99.3492 134.818 103.75 134.818 103.75L142.383 94.2574C144.737 91.3064 149.897 89.9503 153.599 90.0015L185.275 90.138L184.013 81.2679L209.625 86.2488C209.625 86.2488 214.034 77.6517 214.376 77.4811C214.725 77.3105 193.736 70.4959 193.736 70.4959Z" fill="url(#paint2_linear_28_8939)"/>
<path d="M154.026 38.2991C153.805 38.0689 155.818 44.8664 158.342 51.7919C159.707 55.519 160.389 59.4764 160.389 63.4594V88.5173L175.579 87.4853L173.31 70.9819C173.31 70.9819 171.46 60.3293 170.939 56.2866C170.462 52.5765 168.833 42.521 168.833 42.521C168.833 42.521 160.389 44.7811 154.035 38.3077L154.026 38.2991Z" fill="white"/>
<path d="M187.732 76.7221C187.732 76.7221 187.706 76.5856 187.732 76.3383C187.749 76.0909 187.809 75.7413 187.928 75.3148C188.159 74.4705 188.704 73.3276 189.66 72.3638C190.623 71.4 191.758 70.8542 192.602 70.6239C193.029 70.5045 193.378 70.4448 193.626 70.4192C193.873 70.3936 194.009 70.4022 194.009 70.4192C194.009 70.4704 193.481 70.5216 192.662 70.803C191.852 71.0759 190.777 71.6303 189.856 72.5515C188.935 73.4726 188.389 74.5557 188.107 75.366C187.826 76.1762 187.766 76.7136 187.724 76.7136L187.732 76.7221Z" fill="#102027"/>
<path d="M188.509 70.7092C188.475 70.6495 189.472 70.1463 190.829 70.0354C192.185 69.916 193.251 70.2572 193.225 70.3169C193.208 70.4021 192.151 70.1975 190.854 70.3083C189.549 70.4107 188.543 70.786 188.517 70.7092H188.509Z" fill="#102027"/>
<g opacity="0.3">
<path d="M138.134 84.3811L136.812 85.8737C138.228 87.5197 140.062 88.8929 142.16 89.4132C144.267 89.9334 146.45 89.9931 148.616 90.0016C149.495 90.0016 150.382 90.0016 151.226 89.7543C152.088 89.507 152.889 89.0208 153.776 88.9611C154.374 88.927 154.962 89.0891 155.55 89.217C156.139 89.3449 156.753 89.4302 157.325 89.2426C157.896 89.0549 158.391 88.5347 158.357 87.9291C151.772 86.0101 144.975 84.8161 138.126 84.3811H138.134Z" fill="black"/>
</g>
<path d="M181.496 86.3L177.768 82.3426L170.101 80.4065C170.101 80.4065 163.073 82.5131 162.911 82.5046C162.741 82.5046 156.796 80.8841 156.796 80.8841L154.715 88.509L165.419 89.2424L177.641 88.7563C177.641 88.7563 178.28 88.1593 177.896 87.7584C177.521 87.349 179.943 88.4407 180.225 88.4578C180.506 88.4748 181.061 88.6881 181.444 88.236C181.7 87.9205 182.05 86.9226 181.479 86.317L181.496 86.3Z" fill="#FFBE9D"/>
<path d="M177.914 87.7414C177.914 87.7414 177.436 87.6305 176.694 87.3917C175.952 87.1529 174.92 86.8373 173.777 86.5474C172.626 86.2574 171.577 86.0356 170.809 85.8821C170.041 85.7286 169.572 85.6348 169.572 85.5921C169.572 85.558 170.058 85.5836 170.835 85.6859C171.611 85.7883 172.677 85.9845 173.837 86.2744C174.997 86.573 176.02 86.9226 176.754 87.2041C177.487 87.4855 177.922 87.6988 177.905 87.7329L177.914 87.7414Z" fill="#EB996E"/>
<path d="M181.497 86.3001C181.497 86.3001 180.841 86.104 179.8 85.7543C178.76 85.4046 177.301 84.9696 175.681 84.5176C174.06 84.04 172.619 83.5538 171.527 83.4941C170.436 83.4003 169.77 83.6135 169.762 83.5624C169.762 83.5453 169.915 83.4771 170.222 83.4088C170.529 83.3321 170.981 83.2809 171.536 83.298C172.662 83.315 174.154 83.7756 175.758 84.2532C177.378 84.7052 178.836 85.1658 179.868 85.5667C180.389 85.7628 180.798 85.9419 181.08 86.0699C181.361 86.1978 181.515 86.2831 181.506 86.3001H181.497Z" fill="#EB996E"/>
<path d="M139.007 40.9346C139.007 40.9346 133.48 44.7811 132.133 50.3078C130.785 55.8431 124.96 78.4362 126.162 81.8221C127.356 85.1996 150.589 88.5173 150.589 88.5173L153.344 76.901L141.549 73.677C141.549 73.677 141.702 62.9136 141.847 58.4615C141.992 54.0094 139.007 40.9346 139.007 40.9346Z" fill="url(#paint3_linear_28_8939)"/>
<path d="M153.189 78.6326L156.993 79.5708L154.699 88.3385L150.963 87.7414L153.189 78.6326Z" fill="white"/>
<path d="M126.077 80.628C126.077 80.628 126.068 80.8242 126.137 81.1739C126.213 81.5236 126.435 82.0268 126.947 82.4959C127.953 83.4341 129.881 84.2187 132.329 84.6622H132.337C133.454 85.029 134.725 85.3189 136.09 85.626C137.454 85.933 138.913 86.2401 140.465 86.5556C143.553 87.1868 146.981 87.852 150.598 88.5343L150.444 88.6367C150.708 87.562 150.981 86.4192 151.263 85.2678C151.911 82.5982 152.542 80.0225 153.148 77.5747L153.241 77.7368C149.335 76.6195 145.779 75.6045 142.751 74.7431C141.147 74.0864 139.561 73.8476 138.179 73.9414C136.789 74.0011 135.629 74.3764 134.725 74.7516C133.821 75.1354 133.173 75.5619 132.738 75.8519C132.542 75.9969 132.38 76.1163 132.26 76.2015C132.149 76.2783 132.09 76.321 132.09 76.3124C132.09 76.3124 132.141 76.2613 132.243 76.176C132.346 76.0907 132.499 75.9542 132.704 75.8007C133.13 75.4936 133.77 75.0501 134.674 74.6408C135.578 74.2399 136.755 73.8476 138.162 73.7708C139.561 73.6599 141.19 73.8902 142.828 74.5469H142.819C145.847 75.3913 149.412 76.3892 153.318 77.4894L153.438 77.5235L153.404 77.6515C152.806 80.0993 152.175 82.6835 151.527 85.3531C151.246 86.5045 150.964 87.6473 150.7 88.722L150.666 88.8499L150.538 88.8243C146.913 88.142 143.493 87.4682 140.405 86.82C138.862 86.4959 137.395 86.1804 136.03 85.8648C134.666 85.5492 133.403 85.2422 132.26 84.8584H132.277C129.804 84.3893 127.868 83.579 126.853 82.5897C126.341 82.1035 126.12 81.5662 126.06 81.208C126.009 80.8413 126.06 80.6536 126.06 80.6536L126.077 80.628Z" fill="#102027"/>
<path d="M142.179 74.4449C142.179 74.4449 141.753 74.1208 141.045 73.6432C140.337 73.1656 139.288 72.6112 138.043 72.2445C136.798 71.8862 135.612 71.7924 134.759 71.818C133.906 71.8351 133.378 71.9289 133.369 71.8862C133.369 71.8607 133.881 71.6986 134.751 71.6219C135.612 71.5451 136.84 71.6133 138.12 71.9801C139.399 72.3553 140.465 72.9609 141.156 73.4897C141.847 74.0185 142.197 74.4279 142.179 74.4534V74.4449Z" fill="#102027"/>
<path d="M143.733 55.519C143.733 55.519 143.75 55.7749 143.733 56.2269C143.724 56.679 143.682 57.3442 143.622 58.1545C143.494 59.775 143.247 62.0181 142.829 64.4659C142.411 66.9222 141.882 69.1141 141.362 70.6664C141.234 71.0502 141.097 71.3999 140.987 71.6984C140.859 71.9798 140.748 72.2357 140.645 72.4574C140.424 72.8583 140.304 73.0801 140.287 73.0715C140.27 73.063 140.364 72.8242 140.552 72.4148C140.637 72.1845 140.731 71.9287 140.842 71.6387C140.944 71.3316 141.063 70.9819 141.174 70.5981C141.635 69.0459 142.138 66.854 142.556 64.4147C142.982 61.9754 143.247 59.7409 143.426 58.1289C143.503 57.3613 143.571 56.7216 143.622 56.2184C143.665 55.7664 143.699 55.519 143.724 55.519H143.733Z" fill="#102027"/>
<path d="M157.207 49.5233C157.207 49.5233 157.156 49.3783 157.028 49.1309C156.9 48.8921 156.661 48.5424 156.235 48.261C155.817 47.9795 155.177 47.7834 154.512 48.0136C153.864 48.2269 153.224 48.8324 153.062 49.6597L152.986 50.035L152.823 49.6853C152.269 48.4913 151.698 47.1011 151.211 45.6C150.316 42.8792 149.932 40.2694 150.017 38.3845C150.017 37.9154 150.086 37.489 150.111 37.1222C150.18 36.7555 150.222 36.4314 150.282 36.1755C150.418 35.6638 150.495 35.3909 150.512 35.3909C150.58 35.4079 150.197 36.5167 150.214 38.3845C150.18 40.2438 150.589 42.811 151.476 45.5061C151.962 46.9902 152.516 48.3719 153.054 49.5659L152.815 49.5915C153.011 48.6618 153.728 48.0136 154.444 47.8004C155.186 47.5701 155.885 47.8175 156.312 48.1245C156.755 48.4401 156.986 48.8239 157.096 49.0798C157.148 49.2162 157.182 49.3186 157.199 49.3953C157.216 49.4721 157.216 49.5062 157.207 49.5062V49.5233Z" fill="#102027"/>
<path d="M170.094 50.7174C170.094 50.7174 170.043 50.4956 169.975 50.0862C169.915 49.6769 169.787 49.0798 169.864 48.3122C169.966 47.5617 170.324 46.6491 171.134 45.9668C171.535 45.6342 172.09 45.4124 172.67 45.4124C173.25 45.4124 173.881 45.6342 174.29 46.1374L174.06 46.2738C173.898 45.8644 173.727 45.4465 173.557 45.0116C172.567 42.5211 171.689 40.261 171.066 38.6234C170.776 37.8387 170.529 37.182 170.341 36.6788C170.179 36.2183 170.094 35.9539 170.111 35.9539C170.128 35.9539 170.247 36.1927 170.444 36.6447C170.657 37.1479 170.921 37.7876 171.254 38.5637C171.919 40.1842 172.832 42.4358 173.813 44.9263C173.983 45.3612 174.154 45.7877 174.316 46.1885L174.64 47.0073L174.085 46.325C173.736 45.8986 173.19 45.6939 172.678 45.6939C172.158 45.6939 171.672 45.873 171.297 46.1715C170.537 46.777 170.171 47.647 170.051 48.3464C169.949 49.0713 170.051 49.6683 170.085 50.0777C170.128 50.4871 170.128 50.7174 170.111 50.7174H170.094Z" fill="#102027"/>
<path d="M179.902 52.0308C179.979 52.0222 181.173 60.0565 182.572 69.9841C183.971 79.9118 185.045 87.963 184.968 87.9716C184.892 87.9801 183.698 79.9459 182.299 70.0182C180.9 60.0906 179.826 52.0393 179.902 52.0308Z" fill="#102027"/>
<g opacity="0.3">
<path d="M151.365 45.6853C151.433 47.7408 151.877 49.7792 152.679 51.6555C153.25 50.9476 153.89 50.1971 154.768 49.9839C155.86 49.7195 156.969 50.4018 157.753 51.2206C157.583 50.4018 157.31 49.5915 156.798 48.9433C156.286 48.2951 155.51 47.8261 154.7 47.8516C153.89 47.8772 153.08 48.4657 152.935 49.293L151.416 45.7365" fill="black"/>
</g>
<path d="M142.435 51.5019C142.384 51.5019 142.401 50.9475 142.239 50.0861C142.077 49.2247 141.693 48.0562 140.951 46.939C140.576 46.3846 140.158 45.907 139.74 45.5061C139.313 45.1138 138.904 44.7897 138.529 44.5594C137.787 44.0903 137.267 43.9112 137.284 43.86C137.284 43.843 137.42 43.8771 137.659 43.9538C137.778 43.988 137.923 44.0391 138.085 44.1159C138.247 44.1926 138.435 44.2694 138.631 44.3888C139.032 44.602 139.467 44.9176 139.919 45.3099C140.354 45.7193 140.798 46.2055 141.181 46.7769C141.949 47.9283 142.316 49.1565 142.427 50.0435C142.486 50.487 142.495 50.8537 142.478 51.1011C142.461 51.3484 142.444 51.4849 142.427 51.4849L142.435 51.5019Z" fill="#102027"/>
<path d="M173.123 13.7703C172.5 7.90239 167.468 3.49295 161.566 3.64647L160.977 3.66352C154.666 4.19232 151.587 9.85551 152.295 16.1498L154.026 38.2994L154.76 39.2035C158.154 43.3741 163.928 44.7302 168.824 42.5212L168.338 35.3996C168.338 35.3996 174.393 34.2993 174.308 28.2182C174.265 25.2843 173.694 19.2373 173.114 13.7788L173.123 13.7703Z" fill="#FFBE9D"/>
<path d="M168.389 35.3825C168.389 35.3825 164.517 35.7151 160.363 33.2588C160.363 33.2588 162.351 37.5829 168.398 36.8836V35.391L168.389 35.3825Z" fill="#EB996E"/>
<path d="M174.896 8.38859C174.777 7.83421 174.24 7.37365 173.677 7.45041C173.975 7.34806 174.282 7.23718 174.513 7.02396C174.751 6.81074 174.896 6.47811 174.803 6.1796C174.649 5.71051 174.043 5.61669 173.566 5.48023C172.943 5.30112 172.38 4.92585 171.979 4.42265C171.4 3.68916 171.178 2.74245 170.683 1.95779C170.035 0.942853 168.918 0.243483 167.715 0.107021C166.521 -0.0209127 165.267 0.414061 164.414 1.26695C163.485 0.311715 162.086 -0.157375 160.773 0.0473185C159.459 0.252012 158.256 1.11343 157.659 2.29895C156.048 1.62517 154.077 1.90662 152.713 2.99832C151.348 4.09002 150.64 5.94932 150.939 7.67216L154.726 9.99202C154.785 8.82356 156.09 7.89391 157.216 8.21801C158.359 8.55064 159.092 9.87261 160.278 9.9579C161.199 10.0261 161.984 9.30971 162.879 9.0709C163.962 8.78092 165.114 9.21589 166.095 9.77027C167.075 10.3246 168.005 11.007 169.097 11.2799C170.376 11.604 171.732 11.3225 172.952 10.8193C173.472 10.6061 173.992 10.3417 174.376 9.93232C174.768 9.52293 175.007 8.94296 174.888 8.38859H174.896Z" fill="#102027"/>
<path d="M155.383 8.20093L172.723 8.09858C172.151 6.92159 171.162 5.98341 170.096 5.22434C167.793 3.57826 164.995 2.58891 162.172 2.6145C159.341 2.64008 153.686 6.24781 151.69 8.2521C150.095 9.85554 150.147 11.2031 150.147 11.2031C149.95 13.4547 151.281 15.9793 151.835 18.1712C152.125 19.3056 152.714 22.7257 152.714 22.7257C153.669 22.7001 154.002 21.9239 153.831 20.9858L153.55 17.2842C153.55 17.2842 156.731 14.8876 155.076 10.7084C154.82 10.3758 154.249 8.84913 155.375 8.1924L155.383 8.20093Z" fill="#102027"/>
<path d="M153.285 17.0541C152.406 13.9837 151.596 10.6915 152.526 7.63815C152.355 7.63815 152.184 7.62109 152.014 7.62109L151.801 7.77461C150.828 7.45052 149.668 7.81726 149.071 8.64456C148.466 9.47187 148.474 10.6915 149.071 11.5103C148.048 11.4591 147.058 12.3205 146.965 13.344C146.896 14.0519 147.203 14.7342 147.519 15.3653C147.835 16.005 148.176 16.6617 148.176 17.3696C148.176 18.0775 147.724 18.8537 147.024 18.9304C147.34 19.6554 148.218 20.0903 148.986 19.8857C148.739 20.4827 148.321 21.0115 147.792 21.3867C148.918 22.1543 150.47 21.8899 151.698 21.2929C152.423 20.9347 153.14 20.4315 153.438 19.681C153.771 18.8451 153.515 17.9069 153.268 17.0455L153.285 17.0541Z" fill="#102027"/>
<path d="M153.003 20.6275C152.901 20.5849 148.799 19.5017 149.037 23.6553C149.276 27.8089 153.396 26.7086 153.396 26.5892C153.396 26.4698 153.003 20.6275 153.003 20.6275Z" fill="#FFBE9D"/>
<path d="M152.398 25.0797C152.398 25.0797 152.33 25.1309 152.21 25.1991C152.091 25.2588 151.895 25.31 151.673 25.2418C151.221 25.1053 150.812 24.4315 150.752 23.681C150.718 23.3057 150.777 22.939 150.897 22.6319C151.008 22.3249 151.187 22.0946 151.409 22.0434C151.622 21.9837 151.792 22.1031 151.844 22.214C151.903 22.3249 151.886 22.4102 151.903 22.4187C151.912 22.4272 151.989 22.3419 151.946 22.1713C151.92 22.0861 151.869 21.9922 151.767 21.924C151.664 21.8473 151.511 21.8131 151.357 21.8387C151.042 21.8814 150.769 22.1884 150.641 22.5296C150.496 22.8707 150.419 23.2801 150.453 23.698C150.53 24.5339 150.999 25.2929 151.613 25.4294C151.912 25.4891 152.151 25.3867 152.27 25.2844C152.389 25.1735 152.406 25.0797 152.398 25.0712V25.0797Z" fill="#EB996E"/>
<path d="M148.697 17.182C148.697 17.182 148.578 17.0284 148.621 16.6958C148.663 16.3802 148.885 15.9197 149.397 15.6126C149.9 15.3056 150.591 15.2288 151.299 15.1521C151.998 15.0753 152.791 14.8791 153.192 14.1883C153.593 13.5145 153.601 12.6957 153.516 12.0049C153.414 11.3055 153.235 10.6744 153.141 10.1285C152.919 9.02832 153.132 8.32895 153.166 8.34601C153.218 8.34601 153.09 9.02832 153.363 10.0859C153.482 10.6147 153.687 11.2288 153.806 11.9623C153.908 12.6872 153.926 13.5657 153.465 14.3504C153.235 14.7342 152.868 15.0327 152.476 15.1862C152.083 15.3482 151.691 15.3994 151.324 15.4421C150.599 15.5018 149.96 15.5529 149.499 15.8088C149.047 16.0476 148.808 16.4399 148.731 16.7129C148.655 16.9943 148.714 17.1649 148.68 17.1734L148.697 17.182Z" fill="#353333"/>
<path d="M147.69 15.3737C147.69 15.3737 147.597 15.2542 147.562 14.9984C147.528 14.7425 147.545 14.3502 147.767 13.9323C147.878 13.7276 148.04 13.5144 148.262 13.3438C148.484 13.1647 148.774 13.0453 149.055 12.9685C149.336 12.8832 149.635 12.815 149.84 12.6444C150.053 12.4738 150.147 12.2009 150.155 11.8853C150.164 11.5698 150.121 11.2371 150.13 10.9045C150.13 10.5719 150.172 10.2563 150.232 9.9578C150.36 9.36078 150.573 8.8661 150.829 8.47377C151.076 8.07291 151.477 7.87675 151.75 7.88528C152.023 7.88528 152.142 8.01321 152.125 8.02174C152.117 8.04733 151.989 7.97056 151.759 8.01321C151.528 8.0388 151.23 8.2179 151.025 8.59318C150.82 8.95992 150.633 9.45459 150.53 10.0175C150.479 10.299 150.445 10.5975 150.445 10.9045C150.445 11.2115 150.488 11.5356 150.479 11.8939C150.479 12.2435 150.351 12.6615 150.044 12.8917C149.746 13.122 149.413 13.1817 149.14 13.2585C148.569 13.3694 148.194 13.6849 147.972 14.0517C147.528 14.7937 147.759 15.3822 147.699 15.3822L147.69 15.3737Z" fill="#353333"/>
<path d="M171.989 4.42268C171.989 4.42268 171.673 4.65296 171.128 4.39709C170.863 4.27769 170.599 4.03035 170.343 3.73184C170.087 3.4248 169.797 3.10923 169.379 2.87895C168.569 2.41839 167.255 2.29898 166.249 3.08364C165.737 3.45891 165.277 3.97918 164.68 4.41415C164.381 4.62737 164.032 4.81501 163.639 4.89177C163.247 4.96853 162.829 4.91736 162.454 4.78089C161.703 4.50797 161.115 4.05594 160.466 3.81713C159.827 3.56979 159.153 3.45891 158.513 3.46744C157.234 3.46744 156.125 3.95359 155.366 4.55061C154.599 5.14764 154.147 5.81289 153.882 6.29051C153.626 6.77666 153.532 7.06664 153.507 7.05811C153.498 7.05811 153.507 6.98135 153.55 6.83636C153.592 6.69137 153.66 6.48667 153.771 6.23081C154.01 5.7276 154.445 5.01117 155.23 4.37151C155.997 3.72331 157.166 3.18599 158.513 3.16893C159.187 3.15187 159.895 3.26275 160.577 3.51862C161.277 3.77448 161.874 4.23504 162.556 4.47385C162.897 4.59326 163.238 4.6359 163.571 4.5762C163.904 4.5165 164.211 4.35445 164.484 4.14975C165.038 3.7489 165.507 3.22863 166.061 2.8363C166.607 2.42692 167.273 2.23075 167.878 2.23928C168.484 2.23928 169.038 2.40986 169.482 2.67425C169.934 2.93012 170.232 3.30539 170.471 3.61243C170.71 3.91947 170.94 4.15828 171.17 4.28622C171.648 4.55061 171.972 4.39709 171.972 4.43121L171.989 4.42268Z" fill="#353333"/>
<path d="M218.369 107.725C216.8 106.326 214.625 105.678 212.527 105.797L208.953 117.149C211.571 117.26 214.181 118.616 216.714 117.925C218.744 117.371 220.28 115.46 220.569 113.379C220.851 111.298 219.947 109.123 218.378 107.725H218.369Z" fill="#552C26"/>
<path d="M212.586 105.533C212.586 105.439 212.978 105.371 213.669 105.379C214.36 105.396 215.384 105.473 216.595 105.934C217.806 106.386 219.128 107.298 220.151 108.697C220.663 109.396 221.089 110.224 221.337 111.162C221.584 112.091 221.635 113.132 221.422 114.138C221.217 115.145 220.774 116.091 220.126 116.851C219.477 117.61 218.65 118.138 217.823 118.445C216.16 119.068 214.556 118.974 213.328 118.735C212.091 118.488 211.162 118.13 210.531 117.865C209.9 117.593 209.575 117.396 209.601 117.303C209.627 117.209 210.01 117.234 210.684 117.354C211.349 117.456 212.305 117.669 213.473 117.772C214.625 117.874 216.023 117.84 217.354 117.268C218.011 116.987 218.625 116.561 219.102 115.981C219.58 115.401 219.921 114.659 220.083 113.857C220.424 112.245 219.938 110.633 219.119 109.422C218.3 108.194 217.217 107.315 216.211 106.821C215.187 106.309 214.249 106.087 213.601 105.908C212.953 105.737 212.586 105.626 212.595 105.533H212.586Z" fill="#F5F5F5"/>
<path d="M179.477 148.117L171.707 169.892L198.752 179.7C199.528 177.056 187.426 166.796 187.426 166.796L192.978 153.047L179.485 148.109L179.477 148.117Z" fill="#552C26"/>
<g opacity="0.6">
<path d="M179.484 162.599C178.913 162.557 178.333 163.009 178.265 163.58C178.196 164.152 178.657 164.74 179.228 164.8C179.8 164.86 180.508 164.331 180.516 163.751C180.516 163.171 179.945 162.514 179.373 162.591" fill="white"/>
</g>
<path d="M171.707 169.892L172.492 167.691L198.181 177.934C198.181 177.934 199.196 178.898 198.752 179.691L171.707 169.883V169.892Z" fill="white"/>
<path d="M187.903 166.821C187.852 166.949 187.17 166.77 186.368 166.958C185.558 167.128 185.02 167.572 184.918 167.478C184.807 167.41 185.285 166.693 186.266 166.48C187.238 166.258 187.98 166.71 187.912 166.821H187.903Z" fill="#102027"/>
<path d="M190.316 169.022C190.299 169.158 189.643 169.175 188.994 169.576C188.329 169.952 187.997 170.514 187.869 170.463C187.741 170.438 187.928 169.636 188.747 169.158C189.557 168.672 190.359 168.902 190.316 169.03V169.022Z" fill="#102027"/>
<path d="M190.702 173.005C190.574 172.988 190.625 172.263 191.23 171.666C191.827 171.06 192.552 171 192.569 171.128C192.604 171.265 192.066 171.504 191.58 172.007C191.085 172.493 190.847 173.039 190.71 173.005H190.702Z" fill="#102027"/>
<path d="M188.824 163.555C188.722 163.657 188.185 163.256 187.417 163.034C186.658 162.796 185.984 162.838 185.959 162.702C185.916 162.582 186.658 162.292 187.562 162.565C188.458 162.83 188.927 163.478 188.824 163.555Z" fill="#102027"/>
<path d="M189.345 160.109C189.328 160.16 188.774 160.058 187.989 159.614C187.597 159.393 187.162 159.077 186.727 158.668C186.514 158.463 186.3 158.233 186.096 157.977C186.002 157.849 185.882 157.721 185.806 157.508C185.712 157.32 185.754 156.936 186.002 156.783C186.215 156.629 186.497 156.621 186.693 156.689C186.897 156.757 187.042 156.851 187.179 156.945C187.452 157.124 187.699 157.329 187.912 157.542C188.347 157.968 188.654 158.412 188.868 158.813C189.285 159.623 189.32 160.194 189.268 160.203C189.192 160.228 189.038 159.7 188.569 158.992C188.339 158.634 188.023 158.241 187.605 157.874C187.401 157.687 187.17 157.516 186.914 157.354C186.659 157.175 186.411 157.081 186.292 157.184C186.249 157.226 186.241 157.243 186.266 157.346C186.3 157.448 186.386 157.567 186.479 157.687C186.659 157.926 186.855 158.156 187.042 158.352C187.426 158.762 187.818 159.077 188.168 159.333C188.868 159.828 189.362 160.049 189.337 160.126L189.345 160.109Z" fill="#102027"/>
<path d="M189.106 160.237C189.055 160.237 188.961 159.674 189.225 158.796C189.353 158.361 189.583 157.866 189.95 157.38C190.129 157.141 190.342 156.902 190.59 156.68C190.846 156.467 191.17 156.186 191.698 156.314C191.971 156.399 192.116 156.689 192.125 156.894C192.151 157.107 192.108 157.269 192.082 157.439C192.014 157.772 191.903 158.079 191.75 158.352C191.46 158.898 191.05 159.29 190.667 159.538C189.882 160.049 189.276 160.007 189.285 159.955C189.268 159.87 189.814 159.785 190.47 159.256C190.786 159 191.127 158.625 191.357 158.139C191.477 157.9 191.571 157.627 191.613 157.346C191.673 157.039 191.647 156.774 191.536 156.766C191.4 156.714 191.093 156.851 190.905 157.039C190.675 157.235 190.479 157.439 190.3 157.653C189.95 158.079 189.711 158.523 189.549 158.906C189.225 159.683 189.182 160.228 189.106 160.228V160.237Z" fill="#102027"/>
<path d="M153.276 89.959C149.174 90.0528 145.285 90.6328 142.462 93.6093C138.718 97.5582 134.078 103.179 133.813 107.076C133.421 112.902 136.935 114.633 139.502 116.057C140.637 116.689 141.933 116.97 143.229 116.919L190.641 116.561L192.134 108.526L161.464 100.97L162.735 89.4302L153.276 89.959Z" fill="#102027"/>
<path d="M162.735 89.4301L177.652 88.7393C177.652 88.7393 203.418 90.1721 208.911 95.2127C214.403 100.253 213.721 105.976 211.887 111.469C210.053 116.961 193.908 152.118 193.908 152.118C193.908 152.118 195.213 154.352 194.48 156.587C193.337 160.041 190.266 160.595 190.266 160.595L175.929 155.324C175.929 155.324 173.985 154.634 175.358 152.808C176.731 150.975 177.644 150.633 177.644 150.633V146.966C177.644 146.966 182.684 137.806 183.136 136.544C183.597 135.281 188.424 116.637 188.424 116.637L191.631 111.128C191.631 111.128 183.87 107.477 177.149 104.833L161.447 100.961L162.718 89.4216L162.735 89.4301Z" fill="#102027"/>
<path d="M186.932 154.659C186.932 154.659 186.454 154.335 185.67 153.832C184.893 153.329 183.776 152.706 182.454 152.203C181.132 151.7 179.887 151.427 178.974 151.29C178.062 151.145 177.482 151.12 177.49 151.069C177.49 151.035 178.07 151 179 151.094C179.93 151.188 181.217 151.435 182.556 151.947C183.896 152.459 185.021 153.124 185.78 153.67C186.539 154.224 186.949 154.634 186.932 154.659Z" fill="#353333"/>
<path d="M194.096 152.143C194.096 152.143 193.746 151.836 193.26 151.265C192.774 150.693 192.134 149.892 191.461 148.979C190.787 148.058 190.207 147.205 189.815 146.574C189.414 145.943 189.192 145.542 189.226 145.516C189.26 145.499 189.542 145.866 189.977 146.463C190.48 147.154 191.051 147.938 191.691 148.808C192.331 149.67 192.919 150.454 193.422 151.137C193.866 151.734 194.13 152.109 194.105 152.135L194.096 152.143Z" fill="#353333"/>
<path d="M199.349 106.096C199.349 106.138 198.82 106.258 197.993 106.531C197.157 106.804 196.04 107.273 194.905 107.981C193.771 108.689 192.858 109.49 192.253 110.121C191.639 110.744 191.306 111.179 191.263 111.153C191.238 111.136 191.519 110.659 192.108 109.993C192.688 109.32 193.609 108.475 194.76 107.75C195.92 107.034 197.08 106.582 197.933 106.352C198.794 106.121 199.34 106.07 199.349 106.104V106.096Z" fill="#353333"/>
<path d="M184.688 130.991C184.688 130.991 184.696 130.88 184.747 130.684C184.807 130.454 184.875 130.164 184.969 129.814C185.182 129.021 185.472 127.938 185.83 126.616C186.589 123.887 187.621 120.185 188.764 116.091C189.361 114.036 189.873 112.083 190.445 110.309C191.11 108.552 192.167 107.196 193.148 106.189C194.138 105.183 195.059 104.509 195.715 104.074C196.048 103.861 196.304 103.707 196.492 103.605C196.671 103.503 196.773 103.46 196.773 103.469C196.781 103.486 196.415 103.716 195.775 104.159C195.144 104.611 194.248 105.311 193.293 106.317C192.346 107.324 191.323 108.671 190.692 110.386C190.137 112.134 189.634 114.113 189.037 116.16C187.869 120.245 186.803 123.946 186.027 126.659C185.634 127.972 185.319 129.047 185.08 129.831C184.969 130.181 184.884 130.463 184.807 130.693C184.739 130.889 184.705 130.991 184.696 130.991H184.688Z" fill="#353333"/>
<path d="M171.494 104.134C171.417 104.134 171.102 101.353 170.795 97.9077C170.488 94.462 170.291 91.6645 170.368 91.656C170.445 91.656 170.761 94.4364 171.068 97.8821C171.375 101.328 171.571 104.125 171.494 104.134Z" fill="#353333"/>
<path d="M146.665 111.58C146.665 111.58 146.392 111.145 145.923 110.488C145.463 109.823 144.729 108.97 143.757 108.211C142.785 107.452 141.778 106.948 141.028 106.658C140.277 106.368 139.783 106.249 139.791 106.206C139.791 106.181 140.311 106.223 141.096 106.479C141.881 106.727 142.93 107.221 143.936 107.997C144.934 108.782 145.668 109.678 146.094 110.386C146.529 111.085 146.7 111.571 146.674 111.588L146.665 111.58Z" fill="#353333"/>
<path d="M155.802 101.456C155.802 101.456 155.145 101.089 154.045 100.594C152.953 100.091 151.375 99.5453 149.558 99.2809C147.742 99.0251 146.07 99.1018 144.885 99.2809C143.691 99.4515 142.974 99.6647 142.957 99.6136C142.957 99.5965 143.128 99.5283 143.452 99.4259C143.776 99.3151 144.253 99.1957 144.85 99.0848C146.044 98.863 147.75 98.7436 149.601 99.008C151.452 99.2724 153.047 99.8694 154.138 100.415C154.684 100.688 155.111 100.936 155.384 101.132C155.665 101.319 155.819 101.439 155.802 101.447V101.456Z" fill="#353333"/>
<path d="M191.52 108.518C191.52 108.518 191.392 108.509 191.145 108.458C190.88 108.398 190.531 108.322 190.096 108.228C189.149 108.014 187.836 107.724 186.232 107.358C182.966 106.624 178.454 105.643 173.447 104.654C168.441 103.665 163.895 102.846 160.594 102.283C158.965 102.002 157.643 101.78 156.688 101.609C156.253 101.532 155.895 101.464 155.63 101.422C155.392 101.379 155.264 101.345 155.264 101.336C155.264 101.328 155.392 101.336 155.639 101.37C155.912 101.405 156.262 101.456 156.705 101.507C157.635 101.635 158.974 101.831 160.62 102.087C163.929 102.607 168.483 103.392 173.49 104.381C178.496 105.37 183.008 106.385 186.266 107.162C187.895 107.554 189.209 107.878 190.113 108.117C190.539 108.236 190.889 108.321 191.153 108.398C191.392 108.466 191.512 108.501 191.512 108.518H191.52Z" fill="#353333"/>
<path d="M161.465 102.326C161.413 102.343 161.303 101.703 160.808 100.808C160.561 100.364 160.202 99.8779 159.725 99.4088C159.256 98.9312 158.676 98.4536 158.062 97.976C156.825 97.0293 155.563 96.3555 154.667 95.8693C153.763 95.3832 153.2 95.0761 153.217 95.042C153.234 95.0079 153.823 95.2467 154.752 95.6902C155.682 96.1423 156.961 96.7905 158.232 97.7542C158.855 98.2404 159.435 98.7265 159.904 99.2297C160.381 99.7244 160.74 100.253 160.978 100.714C161.209 101.183 161.337 101.592 161.405 101.874C161.465 102.155 161.482 102.317 161.465 102.326Z" fill="#353333"/>
<path d="M214.275 109.499C214.334 109.558 213.541 110.36 212.927 111.58C212.296 112.791 212.108 113.9 212.023 113.891C211.955 113.891 212.023 112.723 212.68 111.46C213.328 110.19 214.232 109.448 214.275 109.507V109.499Z" fill="#102027"/>
<g opacity="0.3">
<path d="M180.596 55.4426L183.99 79.3491L184.161 79.7329C184.962 71.5111 183.726 63.0931 180.596 55.4426Z" fill="black"/>
</g>
<path d="M198.873 69.1741L187.836 88.475L160.646 89.0635L160.578 90.2917L186.907 90.0955L187.743 90.0699L215.547 90.1211L221.167 80.4323L228.349 70.1464C228.818 69.4726 228.332 68.5515 227.513 68.5515L199.76 68.6539C199.393 68.6539 199.061 68.85 198.881 69.1656L198.873 69.1741Z" fill="#E0E0E0"/>
<path d="M221.16 80.4407C221.16 80.4407 222.593 81.7456 222.362 82.8629C222.141 83.9716 222.209 84.7989 221.16 84.8757C221.16 84.8757 221.237 86.3086 219.727 86.5303C219.727 86.5303 220.051 88.2702 218.021 88.5772C218.021 88.5772 217.399 90.4451 216.119 89.993C214.84 89.541 214.013 89.0122 214.013 89.0122L213.637 88.3384C213.637 88.3384 211.752 87.6305 212.221 86.5644C212.503 85.9162 213.475 85.7542 213.475 85.7542C213.475 85.7542 213.066 84.8075 213.595 84.0996C214.047 83.494 215.514 83.9972 215.514 83.9972C215.514 83.9972 215.428 83.2126 215.983 82.5558C216.486 81.9588 218.823 83.5793 218.823 83.5793L220.102 82.0526L221.16 80.4492V80.4407Z" fill="#FFBE9D"/>
<path d="M218.022 88.5773C217.979 88.6455 216.93 88.0656 215.676 87.2809C214.423 86.5048 213.433 85.8139 213.476 85.7542C213.519 85.686 214.568 86.266 215.821 87.0506C217.075 87.8268 218.064 88.5176 218.022 88.5773Z" fill="#EB996E"/>
<path d="M219.736 86.5305C219.693 86.5988 218.721 86.0785 217.561 85.3791C216.401 84.6798 215.488 84.0572 215.522 83.9889C215.565 83.9207 216.537 84.441 217.697 85.1403C218.857 85.8397 219.77 86.4623 219.736 86.5305Z" fill="#EB996E"/>
<path d="M217.407 82.7092C217.45 82.6325 218.32 83.093 219.335 83.7327C220.35 84.3809 221.169 84.8841 221.151 84.9353C221.109 85.0291 220.205 84.6112 219.19 83.963C218.166 83.3148 217.373 82.7604 217.407 82.7007V82.7092Z" fill="#EB996E"/>
<path d="M228.341 69.2934C228.341 69.2934 228.298 69.3019 228.205 69.3104C228.102 69.3104 227.974 69.3104 227.812 69.3275C227.445 69.3275 226.942 69.3445 226.311 69.3531C224.981 69.3616 223.104 69.3787 220.793 69.3957C216.111 69.4042 209.68 69.4213 202.575 69.4384C202.132 69.4384 201.688 69.4384 201.253 69.4384C200.835 69.4042 200.46 69.5919 200.238 69.916C199.82 70.6665 199.411 71.4171 199.002 72.142C198.191 73.609 197.407 75.0248 196.656 76.3724C195.164 79.059 193.807 81.4812 192.673 83.5281C191.539 85.5409 190.618 87.187 189.969 88.3384C189.654 88.8843 189.407 89.3192 189.219 89.6433C189.134 89.7798 189.074 89.8907 189.014 89.976C188.972 90.0527 188.946 90.0868 188.938 90.0868C188.938 90.0868 188.955 90.0442 188.989 89.9674C189.04 89.8736 189.091 89.7627 189.168 89.6177C189.338 89.2936 189.577 88.8501 189.867 88.2872C190.498 87.1188 191.394 85.4642 192.494 83.4343C193.62 81.3788 194.95 78.9481 196.426 76.253C197.168 74.9054 197.944 73.4811 198.754 72.0141C199.164 71.2806 199.573 70.5301 199.999 69.771C200.255 69.3616 200.776 69.1313 201.236 69.1654C201.68 69.1654 202.115 69.1654 202.558 69.1654C209.663 69.1825 216.094 69.1996 220.776 69.2081C223.087 69.2251 224.972 69.2422 226.294 69.2507C226.925 69.2593 227.428 69.2678 227.795 69.2763C227.957 69.2763 228.085 69.2848 228.188 69.2934C228.273 69.2934 228.324 69.3019 228.324 69.3104L228.341 69.2934Z" fill="#102027"/>
<path d="M208.774 78.9995C208.279 79.5453 208.271 80.33 208.748 80.7649C209.226 81.1914 210.011 81.1061 210.497 80.5602C210.992 80.0144 211 79.2297 210.522 78.7948C210.045 78.3683 209.26 78.4536 208.774 78.9995Z" fill="white"/>
<g opacity="0.3">
<path d="M131.587 71.5281C131.348 71.6219 131.084 71.7839 131.084 72.0313C131.084 72.236 131.272 72.4066 131.476 72.4492C131.681 72.4918 132.406 72.1933 132.602 72.1507C135.459 71.5196 137.813 72.1251 140.543 73.1912L140.628 73.0974C139.545 70.8031 134.666 70.2914 131.587 71.5281Z" fill="black"/>
</g>
<path d="M258.89 136.63C261.12 135.48 263.74 135.33 266.21 135.74C267.54 135.96 268.92 136.36 269.83 137.35C270.73 138.35 270.9 140.1 269.87 140.96C269.25 141.47 268.39 141.55 267.59 141.54C265.66 141.52 263.51 141.18 261.96 142.34C261.08 143 260.49 144.11 259.44 144.44C258.41 144.76 257.24 144.15 256.7 143.22C256.15 142.29 256.13 141.13 256.39 140.08C256.39 140.08 256.66 137.79 258.9 136.64L258.89 136.63Z" fill="#FF725E"/>
<path d="M253.79 126.78C255.15 128.72 257.8 128.08 259.02 126.89C260.25 125.7 260.77 123.98 261.24 122.34C262.32 118.59 263.41 114.66 262.6 110.84C262.36 109.7 261.93 108.56 261.13 107.71C260.33 106.86 259.1 106.36 257.97 106.66C256.64 107.01 255.81 108.32 255.21 109.56C253.45 113.21 252.52 117.26 252.5 121.32C252.5 123.21 252.72 125.2 253.79 126.76" fill="#FF725E"/>
<path d="M250.05 129.57C251.53 127.82 251.81 125.26 251.15 123.06C250.49 120.86 249.01 118.99 247.29 117.47C245.28 115.68 242.92 114.29 240.38 113.4C239.38 113.05 238.33 112.77 237.27 112.87C236.22 112.97 235.16 113.51 234.66 114.45C233.93 115.84 234.63 117.52 235.38 118.89C236.71 121.31 238.23 123.62 239.92 125.8C241.28 127.55 242.84 129.28 244.91 130.07C246.98 130.86 249.13 130.77 250.23 129.33" fill="#FF725E"/>
<path d="M253.7 156.11C253.7 156.11 253.77 155.8 253.82 155.23C253.88 154.59 253.96 153.78 254.05 152.82C254.16 151.81 254.31 150.6 254.59 149.28C254.87 147.97 255.31 146.55 255.88 145.11C256.46 143.68 257.18 142.37 258.01 141.33C258.84 140.28 259.8 139.53 260.7 139.09C261.6 138.64 262.41 138.46 262.97 138.38C263.53 138.32 263.85 138.28 263.85 138.25C263.85 138.22 263.53 138.22 262.95 138.24C262.38 138.28 261.53 138.42 260.58 138.86C259.63 139.28 258.61 140.05 257.74 141.12C256.86 142.18 256.13 143.51 255.53 144.97C254.96 146.44 254.52 147.87 254.25 149.21C253.98 150.55 253.86 151.77 253.78 152.79C253.7 153.81 253.67 154.64 253.66 155.22C253.65 155.79 253.66 156.11 253.68 156.11H253.7Z" fill="#102027"/>
<path d="M253.869 154.25C253.869 154.25 253.889 154.11 253.889 153.84C253.889 153.53 253.889 153.14 253.889 152.67C253.889 151.65 253.889 150.18 253.939 148.36C254.029 144.72 254.339 140.81 254.949 135.29C255.519 130.1 256.289 124.06 257.099 120.14C257.269 119.25 257.449 118.44 257.609 117.74C257.769 117.03 257.899 116.43 258.029 115.94C258.139 115.48 258.229 115.1 258.299 114.8C258.359 114.54 258.379 114.4 258.369 114.4C258.359 114.4 258.309 114.53 258.229 114.78C258.139 115.08 258.029 115.45 257.889 115.9C257.739 116.39 257.579 116.99 257.409 117.69C257.229 118.39 257.029 119.19 256.839 120.08C256.039 123.64 255.189 128.61 254.579 134.14C253.969 139.67 253.699 144.7 253.679 148.35C253.659 150.17 253.699 151.65 253.739 152.67C253.769 153.15 253.789 153.53 253.809 153.84C253.829 154.11 253.849 154.25 253.859 154.25H253.869Z" fill="#102027"/>
<path d="M253.89 144.54C253.89 144.54 253.91 144.1 253.89 143.32C253.84 142.53 253.74 141.4 253.51 140C253.28 138.61 252.95 136.96 252.43 135.17C252.21 134.35 251.68 132.39 250.41 129.45C248.73 125.47 246.46 122.22 244.47 120.21C244.01 119.68 243.49 119.29 243.07 118.91C242.86 118.73 242.67 118.55 242.47 118.4C242.28 118.27 242.1 118.14 241.93 118.03C241.28 117.58 240.91 117.35 240.9 117.37C240.84 117.45 242.36 118.34 244.28 120.38C246.19 122.42 248.41 125.65 250.07 129.59C251 131.73 251.64 133.64 252.1 135.26C252.63 137.04 252.98 138.67 253.25 140.05C253.5 141.43 253.65 142.56 253.74 143.34C253.81 144.12 253.87 144.55 253.89 144.55V144.54Z" fill="#102027"/>
<path d="M244.51 161.67L245.48 175H262.6L263.58 161.67H244.51Z" fill="#102027"/>
<path d="M265.62 156.42H242.85V161.67H265.62V156.42Z" fill="#102027"/>
<path d="M242.85 174.49V175.95H243.92H265.24V174.49H242.85Z" fill="#353333"/>
<path d="M244.97 178.51L243.92 175.95H264.43L263.2 178.51H244.97Z" fill="#353333"/>
<path d="M263.259 166.03C263.259 166.03 263.239 166.07 263.179 166.15C263.109 166.24 263.029 166.35 262.919 166.49C262.679 166.8 262.339 167.23 261.919 167.77L261.879 167.83L261.839 167.77C261.209 166.9 260.379 165.74 259.389 164.38H259.529C258.799 165.41 257.989 166.56 257.119 167.8L257.039 167.91L256.959 167.81C256.069 166.75 255.099 165.6 254.099 164.41H254.259C254.209 164.47 254.159 164.54 254.099 164.61C253.209 165.72 252.349 166.8 251.539 167.82L251.449 167.93L251.369 167.82C250.499 166.59 249.689 165.44 248.959 164.4H249.099C247.909 165.76 246.899 166.91 246.129 167.79L246.079 167.85L246.039 167.78C245.649 167.12 245.339 166.6 245.109 166.22C245.009 166.05 244.929 165.91 244.869 165.8C244.819 165.7 244.789 165.65 244.799 165.65C244.799 165.65 244.839 165.69 244.899 165.78C244.969 165.89 245.059 166.02 245.159 166.18C245.399 166.55 245.729 167.07 246.139 167.72H246.049C246.809 166.82 247.799 165.66 248.979 164.28L249.049 164.19L249.119 164.28C249.859 165.31 250.679 166.46 251.559 167.68H251.399C252.209 166.66 253.069 165.58 253.949 164.46C253.999 164.39 254.059 164.32 254.109 164.26L254.189 164.16L254.269 164.26C255.269 165.46 256.239 166.61 257.119 167.67H256.959C257.839 166.45 258.659 165.3 259.399 164.28L259.469 164.18L259.539 164.28C260.509 165.66 261.329 166.83 261.939 167.71H261.849C262.289 167.18 262.629 166.77 262.889 166.46C262.999 166.33 263.089 166.22 263.169 166.14C263.229 166.07 263.269 166.03 263.269 166.04L263.259 166.03Z" fill="#E0E0E0"/>
<path d="M263.81 161.58C263.81 161.64 259.52 161.69 254.23 161.69C248.94 161.69 244.65 161.64 244.65 161.58C244.65 161.52 248.94 161.47 254.23 161.47C259.52 161.47 263.81 161.52 263.81 161.58Z" fill="#353333"/>
<path d="M264.679 176.09C264.679 176.15 260.019 176.2 254.269 176.2C248.519 176.2 243.859 176.15 243.859 176.09C243.859 176.03 248.519 175.98 254.269 175.98C260.019 175.98 264.679 176.03 264.679 176.09Z" fill="#102027"/>
<path d="M95.7706 133.57C95.7206 133.63 95.3306 133.39 94.9006 133.04C94.4606 132.69 94.1506 132.36 94.2006 132.3C94.2506 132.24 94.6406 132.48 95.0706 132.83C95.5106 133.18 95.8206 133.51 95.7706 133.57Z" fill="#102027"/>
<path d="M107.64 115.82C107.71 114.16 107.76 112.46 107.24 110.89C106.72 109.31 105.5 107.87 103.88 107.53C102.02 107.15 100.12 108.32 99.0797 109.9C98.0397 111.48 97.6797 113.41 97.3797 115.28C95.2597 128.16 94.4797 141.26 95.0497 154.3L102.64 155.36C105.97 141.74 107.04 129.83 107.64 115.82Z" fill="#353333"/>
<path d="M102.82 107.47C102.82 107.47 102.82 107.51 102.79 107.59C102.76 107.68 102.71 107.8 102.66 107.93C102.54 108.25 102.37 108.69 102.15 109.24C102.04 109.53 101.9 109.84 101.79 110.19C101.68 110.54 101.55 110.93 101.42 111.34C101.29 111.75 101.14 112.19 100.99 112.66C100.87 113.14 100.74 113.64 100.6 114.17C100.03 116.27 99.5505 118.83 99.1305 121.68C98.7205 124.53 98.4505 127.7 98.2405 131.02C97.8505 137.67 97.7905 143.71 97.6205 148.07C97.5405 150.25 97.4605 152.02 97.3805 153.24C97.3405 153.83 97.3105 154.3 97.2805 154.64C97.2705 154.79 97.2605 154.91 97.2505 155C97.2505 155.08 97.2305 155.12 97.2305 155.12C97.2305 155.12 97.2305 155.08 97.2305 154.99C97.2305 154.89 97.2305 154.77 97.2305 154.62C97.2405 154.28 97.2605 153.81 97.2705 153.21C97.3205 151.99 97.3705 150.22 97.4205 148.04C97.5405 143.67 97.5705 137.64 97.9605 130.98C98.1705 127.65 98.4505 124.48 98.8805 121.62C99.3105 118.76 99.8105 116.2 100.41 114.09C100.55 113.56 100.69 113.06 100.82 112.58C100.98 112.11 101.13 111.67 101.27 111.26C101.41 110.85 101.54 110.47 101.66 110.11C101.78 109.76 101.93 109.45 102.04 109.17C102.27 108.62 102.46 108.19 102.59 107.88C102.65 107.75 102.7 107.64 102.74 107.55C102.78 107.48 102.8 107.44 102.8 107.44L102.82 107.47Z" fill="#102027"/>
<path d="M103.52 107.47C103.52 107.47 103.99 107.95 104.45 109.04C104.93 110.12 105.23 111.85 105.14 113.95C104.94 118.14 104.56 123.92 104.06 130.31C103.56 136.69 103 142.46 102.55 146.63C102.33 148.72 102.13 150.4 101.99 151.57C101.92 152.13 101.86 152.58 101.82 152.91C101.8 153.05 101.78 153.16 101.77 153.26C101.76 153.34 101.75 153.38 101.74 153.38C101.74 153.38 101.74 153.34 101.74 153.26C101.74 153.16 101.75 153.05 101.76 152.91C101.79 152.58 101.83 152.13 101.88 151.56C101.99 150.37 102.16 148.69 102.35 146.62C102.75 142.45 103.27 136.68 103.78 130.3C104.28 123.92 104.68 118.14 104.94 113.96C105.05 111.87 104.78 110.18 104.34 109.1C103.92 108.01 103.48 107.51 103.51 107.49L103.52 107.47Z" fill="#102027"/>
<path d="M108.79 127.12C108.76 127.19 108.12 127.02 107.35 126.75C106.58 126.47 105.98 126.19 106 126.12C106.03 126.05 106.67 126.22 107.44 126.49C108.21 126.77 108.81 127.05 108.79 127.12Z" fill="#102027"/>
<path d="M109.701 119.38C109.731 119.45 109.121 119.79 108.331 120.14C107.541 120.49 106.881 120.72 106.851 120.65C106.821 120.58 107.431 120.24 108.221 119.89C109.011 119.54 109.671 119.31 109.701 119.38Z" fill="#102027"/>
<path d="M109.23 113.07C109.23 113.14 108.72 113.17 108.1 113.13C107.48 113.09 106.98 112.99 106.99 112.92C106.99 112.85 107.5 112.82 108.12 112.86C108.74 112.9 109.24 113 109.23 113.07Z" fill="#102027"/>
<path d="M101.39 109.02C101.33 109.06 100.99 108.65 100.65 108.09C100.3 107.54 100.07 107.06 100.14 107.02C100.2 106.98 100.54 107.39 100.88 107.95C101.23 108.5 101.46 108.98 101.39 109.02Z" fill="#102027"/>
<path d="M98.8004 112.84C98.8004 112.91 98.3204 112.97 97.7204 112.95C97.1304 112.94 96.6504 112.87 96.6504 112.79C96.6504 112.72 97.1304 112.66 97.7304 112.68C98.3204 112.69 98.8004 112.76 98.8004 112.84Z" fill="#102027"/>
<path d="M96.9504 120.48C96.9204 120.55 96.4104 120.41 95.8204 120.17C95.2204 119.93 94.7605 119.68 94.7905 119.61C94.8205 119.54 95.3304 119.68 95.9204 119.92C96.5204 120.16 96.9804 120.41 96.9504 120.48Z" fill="#102027"/>
<path d="M96.7504 126.9C96.7704 126.97 96.3304 127.13 95.7804 127.24C95.2304 127.36 94.7704 127.39 94.7604 127.32C94.7404 127.25 95.1804 127.09 95.7304 126.98C96.2804 126.86 96.7404 126.83 96.7504 126.9Z" fill="#102027"/>
<path d="M95.8697 137.41C95.8797 137.48 95.4197 137.63 94.8397 137.73C94.2597 137.83 93.7797 137.86 93.7697 137.78C93.7597 137.71 94.2197 137.56 94.7997 137.46C95.3797 137.36 95.8597 137.33 95.8697 137.41Z" fill="#102027"/>
<path d="M95.2899 143.21C95.3299 143.28 94.9399 143.55 94.4399 143.82C93.9299 144.09 93.4899 144.25 93.4599 144.19C93.4199 144.12 93.8099 143.85 94.3199 143.58C94.8299 143.31 95.2699 143.15 95.2999 143.21H95.2899Z" fill="#102027"/>
<path d="M100.03 149.8C99.9696 149.84 99.6296 149.38 99.2796 148.77C98.9296 148.16 98.7096 147.64 98.7696 147.61C98.8296 147.57 99.1696 148.03 99.5196 148.64C99.8696 149.25 100.09 149.77 100.03 149.8Z" fill="#102027"/>
<path d="M101.399 138.85C101.449 138.9 101.079 139.35 100.569 139.85C100.059 140.35 99.5994 140.71 99.5494 140.66C99.4994 140.61 99.8694 140.16 100.379 139.66C100.889 139.16 101.349 138.8 101.399 138.85Z" fill="#102027"/>
<path d="M101.091 133.11C101.041 133.16 100.691 132.88 100.321 132.48C99.9508 132.08 99.6908 131.71 99.7508 131.66C99.8008 131.61 100.151 131.89 100.521 132.29C100.891 132.69 101.151 133.06 101.091 133.11Z" fill="#102027"/>
<path d="M102.031 125.78C102.091 125.83 101.781 126.27 101.341 126.76C100.901 127.25 100.501 127.6 100.451 127.55C100.391 127.5 100.701 127.06 101.141 126.57C101.581 126.08 101.981 125.73 102.031 125.78Z" fill="#102027"/>
<path d="M102.559 120.45C102.509 120.5 102.079 120.16 101.589 119.69C101.109 119.22 100.759 118.79 100.809 118.74C100.859 118.69 101.289 119.03 101.779 119.5C102.259 119.97 102.609 120.4 102.559 120.45Z" fill="#102027"/>
<path d="M103.599 113.26C103.659 113.3 103.449 113.78 103.119 114.34C102.789 114.9 102.469 115.32 102.399 115.28C102.339 115.24 102.549 114.76 102.879 114.2C103.209 113.64 103.529 113.22 103.599 113.26Z" fill="#102027"/>
<path d="M105.559 106.59C105.629 106.63 105.429 107.11 105.129 107.67C104.829 108.23 104.529 108.66 104.459 108.62C104.389 108.58 104.589 108.1 104.889 107.54C105.189 106.98 105.489 106.55 105.559 106.59Z" fill="#102027"/>
<path d="M107.769 109.62C107.799 109.69 107.499 109.9 107.089 110.09C106.679 110.28 106.329 110.39 106.289 110.32C106.259 110.25 106.559 110.04 106.969 109.85C107.379 109.66 107.729 109.55 107.769 109.62Z" fill="#102027"/>
<path d="M107.831 133.57C107.821 133.64 107.131 133.55 106.351 133.21C105.571 132.88 105.021 132.45 105.061 132.39C105.101 132.32 105.701 132.64 106.451 132.96C107.211 133.28 107.851 133.49 107.831 133.57Z" fill="#102027"/>
<path d="M106.92 138.64C106.93 138.71 106.48 138.86 105.9 138.98C105.32 139.09 104.84 139.12 104.83 139.05C104.82 138.98 105.27 138.83 105.85 138.71C106.43 138.6 106.91 138.57 106.92 138.64Z" fill="#102027"/>
<path d="M105.809 147.34C105.769 147.4 105.189 147 104.649 146.33C104.109 145.66 103.859 145 103.929 144.97C103.999 144.93 104.349 145.51 104.869 146.16C105.379 146.81 105.859 147.28 105.809 147.34Z" fill="#102027"/>
<path d="M93.6108 151.32C93.5608 151.26 93.8708 150.92 94.3008 150.55C94.7308 150.18 95.1208 149.93 95.1708 149.99C95.2208 150.05 94.9108 150.39 94.4808 150.76C94.0508 151.13 93.6608 151.38 93.6108 151.32Z" fill="#102027"/>
<path d="M90.0996 132.33C89.6096 130.79 88.6796 128.99 87.0596 128.97C86.0996 128.96 85.2296 129.65 84.7796 130.49C84.3296 131.34 84.1396 132.32 84.1596 133.28C84.3496 139.63 85.4396 146.89 87.6396 153.5H93.5696C93.4896 146.15 92.3396 139.32 90.0996 132.33Z" fill="#353333"/>
<path d="M79.3785 122.62C78.5485 119.31 76.0785 117.52 73.2085 117.35C70.5885 117.81 69.5685 120.39 69.2585 123.03C68.9485 125.67 69.7685 128.3 70.5785 130.83C73.1785 138.96 75.7785 147.1 78.3785 155.23C80.8385 154.96 83.2985 154.69 85.7485 154.42C83.4185 143.52 82.0785 133.42 79.3685 122.61L79.3785 122.62Z" fill="#353333"/>
<path d="M87.0594 128.97C87.0594 128.97 86.8194 129.24 86.5594 129.81C86.2994 130.39 86.1794 131.3 86.2794 132.43C86.3894 133.56 86.5194 134.91 86.7094 136.4C86.8994 137.89 87.1694 139.52 87.4994 141.22C88.1694 144.63 88.9294 147.68 89.3994 149.91C89.6394 151.02 89.8294 151.93 89.9394 152.55C89.9894 152.84 90.0294 153.08 90.0594 153.27C90.0894 153.44 90.0894 153.52 90.0894 153.53C90.0894 153.54 90.0494 153.45 90.0094 153.29C89.9594 153.1 89.9094 152.86 89.8394 152.58C89.6794 151.92 89.4694 151.03 89.2094 149.96C88.6794 147.75 87.8994 144.7 87.2294 141.28C86.8994 139.57 86.6294 137.93 86.4494 136.44C86.3594 135.69 86.2894 134.98 86.2294 134.31C86.1794 133.65 86.0994 133.03 86.0694 132.45C85.9894 131.31 86.1494 130.35 86.4394 129.77C86.7394 129.19 87.0394 128.98 87.0394 128.98L87.0594 128.97Z" fill="#102027"/>
<path d="M73.3101 117.14C73.3101 117.14 72.9201 117.51 72.4201 118.34C71.9201 119.15 71.4001 120.48 71.3001 122.2C71.1901 123.92 71.5701 125.95 72.2101 128.14C72.8601 130.33 73.5701 132.74 74.3101 135.27C75.7801 140.32 77.1101 144.9 78.0801 148.24C78.5401 149.88 78.9201 151.22 79.1901 152.18C79.3101 152.63 79.4101 152.98 79.4801 153.26C79.5401 153.51 79.5701 153.64 79.5601 153.64C79.5601 153.64 79.5001 153.52 79.4201 153.28C79.3301 153.01 79.2201 152.66 79.0801 152.22C78.7901 151.27 78.3801 149.94 77.8801 148.3C76.8901 144.96 75.5301 140.4 74.0301 135.35C73.2901 132.82 72.5901 130.41 71.9501 128.21C71.3201 126.01 70.9501 123.94 71.0901 122.19C71.2101 120.44 71.7801 119.1 72.3101 118.29C72.8401 117.47 73.2901 117.15 73.2901 117.15L73.3101 117.14Z" fill="#102027"/>
<path d="M84.1486 153.64C84.1486 153.64 84.0786 153.52 83.9786 153.29C83.8786 153.05 83.7286 152.71 83.5586 152.25C83.2086 151.34 82.7586 150.01 82.2886 148.33C81.8186 146.66 81.3586 144.64 80.9186 142.38C80.4886 140.12 80.0186 137.65 79.5286 135.05C79.0186 132.45 78.4486 130 77.7786 127.81C77.1186 125.62 76.3786 123.69 75.6286 122.13C74.8886 120.57 74.1786 119.36 73.6386 118.55C73.3886 118.14 73.1586 117.84 73.0186 117.62C72.8786 117.41 72.8086 117.29 72.8086 117.29C72.8086 117.29 72.8986 117.39 73.0586 117.59C73.2086 117.8 73.4586 118.08 73.7186 118.49C74.2786 119.28 75.0186 120.49 75.7886 122.05C76.5586 123.61 77.3286 125.54 78.0086 127.74C78.6886 129.94 79.2686 132.4 79.7786 135C80.2586 137.6 80.7286 140.08 81.1486 142.34C81.5786 144.59 82.0186 146.61 82.4586 148.28C82.8986 149.96 83.3186 151.29 83.6386 152.21C83.7886 152.67 83.9286 153.02 84.0086 153.26C84.0886 153.5 84.1286 153.63 84.1286 153.63L84.1486 153.64Z" fill="#102027"/>
<path d="M70.7103 129.62C70.7303 129.69 70.3303 129.85 69.8103 129.98C69.3003 130.1 68.8703 130.15 68.8503 130.07C68.8303 130 69.2303 129.84 69.7503 129.71C70.2603 129.59 70.6903 129.54 70.7103 129.62Z" fill="#102027"/>
<path d="M69.9295 124.59C69.9295 124.67 69.3695 124.7 68.6895 124.72C68.0095 124.75 67.4495 124.76 67.4395 124.68C67.4395 124.61 67.9795 124.47 68.6795 124.45C69.3795 124.42 69.9395 124.51 69.9295 124.59Z" fill="#102027"/>
<path d="M70.7597 119.99C70.7097 120.05 70.3097 119.79 69.8697 119.41C69.4197 119.03 69.0997 118.68 69.1497 118.62C69.1997 118.56 69.5997 118.82 70.0397 119.2C70.4897 119.58 70.8097 119.93 70.7597 119.99Z" fill="#102027"/>
<path d="M73.0094 115.73C73.0794 115.75 73.0594 116.11 73.0494 116.54C73.0394 116.97 73.0394 117.33 72.9594 117.34C72.8894 117.35 72.7594 116.99 72.7794 116.53C72.7894 116.07 72.9394 115.71 73.0094 115.73Z" fill="#102027"/>
<path d="M77.6097 117.74C77.6697 117.78 77.4897 118.15 77.2097 118.55C76.9297 118.96 76.6497 119.25 76.5897 119.21C76.5297 119.17 76.7097 118.8 76.9897 118.4C77.2697 117.99 77.5497 117.7 77.6097 117.74Z" fill="#102027"/>
<path d="M80.589 122.92C80.619 122.99 80.239 123.21 79.739 123.41C79.239 123.61 78.809 123.72 78.779 123.65C78.749 123.58 79.129 123.36 79.629 123.16C80.129 122.96 80.559 122.85 80.589 122.92Z" fill="#102027"/>
<path d="M82.399 128.25C82.429 128.32 81.919 128.6 81.229 128.76C80.539 128.92 79.959 128.88 79.959 128.8C79.959 128.72 80.509 128.64 81.169 128.49C81.839 128.34 82.369 128.17 82.399 128.24V128.25Z" fill="#102027"/>
<path d="M74.09 126.74C74.02 126.72 74.07 126.35 74.21 125.92C74.35 125.49 74.51 125.16 74.58 125.18C74.65 125.2 74.6 125.57 74.46 126C74.32 126.43 74.16 126.76 74.09 126.74Z" fill="#102027"/>
<path d="M75.2496 133.43C75.1796 133.4 75.3296 132.9 75.5796 132.32C75.8296 131.74 76.0896 131.29 76.1596 131.32C76.2296 131.35 76.0796 131.85 75.8296 132.43C75.5796 133.01 75.3196 133.46 75.2496 133.43Z" fill="#102027"/>
<path d="M72.3885 135.26C72.3585 135.33 71.8885 135.2 71.3285 135.03C70.7585 134.85 70.3085 134.69 70.3185 134.62C70.3385 134.55 70.8285 134.59 71.4085 134.77C71.9885 134.95 72.4185 135.19 72.3885 135.26Z" fill="#102027"/>
<path d="M74.0403 140.72C74.0803 140.78 73.7703 141.08 73.3303 141.39C72.9003 141.7 72.5103 141.9 72.4703 141.84C72.4303 141.78 72.7403 141.48 73.1803 141.17C73.6103 140.86 74.0003 140.66 74.0403 140.72Z" fill="#102027"/>
<path d="M75.3596 146.16C75.3796 146.23 74.9896 146.39 74.4896 146.51C73.9896 146.63 73.5696 146.67 73.5496 146.6C73.5296 146.53 73.9196 146.37 74.4196 146.25C74.9196 146.13 75.3396 146.09 75.3596 146.16Z" fill="#102027"/>
<path d="M82.55 132.8C82.59 132.86 82.25 133.13 81.77 133.31C81.28 133.49 80.86 133.51 80.84 133.44C80.83 133.36 81.21 133.23 81.67 133.05C82.13 132.88 82.51 132.73 82.55 132.79V132.8Z" fill="#102027"/>
<path d="M83.5694 141.26C83.5394 141.33 83.1394 141.21 82.6794 140.99C82.2194 140.77 81.8694 140.54 81.9094 140.48C81.9394 140.41 82.3394 140.53 82.7994 140.75C83.2594 140.97 83.6094 141.2 83.5694 141.26Z" fill="#102027"/>
<path d="M85.3795 147.32C85.3495 147.39 84.8295 147.25 84.2095 147.01C83.5895 146.77 83.1095 146.51 83.1295 146.44C83.1595 146.37 83.6795 146.51 84.2995 146.75C84.9195 146.99 85.3995 147.25 85.3695 147.32H85.3795Z" fill="#102027"/>
<path d="M75.6488 152.07C75.6088 152 76.0988 151.68 76.6588 151.24C77.2188 150.8 77.6488 150.41 77.7088 150.46C77.7588 150.51 77.4088 151 76.8288 151.45C76.2488 151.91 75.6888 152.14 75.6588 152.07H75.6488Z" fill="#102027"/>
<path d="M80.4404 148.99C80.3604 148.99 80.2604 148.59 80.0704 148.12C79.8904 147.65 79.6904 147.27 79.7604 147.23C79.8204 147.19 80.1304 147.51 80.3304 148.02C80.5304 148.53 80.5204 148.98 80.4404 148.99Z" fill="#102027"/>
<path d="M79.17 141.7C79.13 141.76 78.82 141.61 78.48 141.37C78.14 141.13 77.9 140.88 77.95 140.82C77.99 140.76 78.3 140.91 78.64 141.15C78.98 141.39 79.22 141.64 79.17 141.7Z" fill="#102027"/>
<path d="M90.3395 130.28C90.3795 130.34 90.0795 130.64 89.6695 130.95C89.2495 131.26 88.8795 131.46 88.8395 131.4C88.7995 131.34 89.0995 131.04 89.5095 130.74C89.9295 130.43 90.2995 130.23 90.3395 130.29V130.28Z" fill="#102027"/>
<path d="M92.0194 134.88C92.0194 134.95 91.5594 135.05 90.9694 134.99C90.3894 134.93 89.9494 134.73 89.9694 134.66C89.9894 134.59 90.4394 134.66 90.9994 134.72C91.5594 134.78 92.0094 134.81 92.0194 134.88Z" fill="#102027"/>
<path d="M84.7892 135.92C84.8092 135.99 84.3692 136.15 83.7992 136.18C83.2392 136.22 82.7792 136.12 82.7892 136.05C82.7892 135.97 83.2392 135.95 83.7792 135.91C84.3192 135.87 84.7692 135.84 84.7792 135.91L84.7892 135.92Z" fill="#102027"/>
<path d="M85.4094 131.57C85.4094 131.64 84.9594 131.65 84.4794 131.43C83.9994 131.21 83.7194 130.87 83.7694 130.82C83.8194 130.76 84.1494 130.99 84.5994 131.19C85.0394 131.39 85.4294 131.5 85.4194 131.58L85.4094 131.57Z" fill="#102027"/>
<path d="M92.6387 139.82C92.5987 139.88 92.1487 139.67 91.6287 139.34C91.1087 139.01 90.7187 138.7 90.7587 138.64C90.7987 138.58 91.2487 138.79 91.7687 139.12C92.2887 139.45 92.6787 139.76 92.6387 139.82Z" fill="#102027"/>
<path d="M110.289 152.73H71.6992V159.57H110.289V152.73Z" fill="#FF725E"/>
<path d="M74.5781 158.21L79.2681 178.65H102.268L107.408 158.21H74.5781Z" fill="#FF725E"/>
<path d="M110.269 159.58C110.269 159.65 101.569 159.72 90.8287 159.72C80.0887 159.72 71.3887 159.66 71.3887 159.58C71.3887 159.5 80.0887 159.44 90.8287 159.44C101.569 159.44 110.269 159.5 110.269 159.58Z" fill="#102027"/>
<path d="M88.8102 136.07C88.7502 136.11 88.4803 135.8 88.2203 135.38C87.9603 134.96 87.8003 134.59 87.8603 134.55C87.9203 134.51 88.1902 134.82 88.4502 135.24C88.7102 135.66 88.8702 136.03 88.8102 136.07Z" fill="#102027"/>
<path d="M88.8187 141.57C88.7487 141.55 88.8387 141.08 89.0187 140.53C89.1987 139.98 89.4087 139.55 89.4787 139.58C89.5487 139.6 89.4587 140.07 89.2787 140.62C89.0987 141.17 88.8887 141.6 88.8187 141.57Z" fill="#102027"/>
<path d="M90.6996 147.34C90.6296 147.37 90.3396 146.91 90.0596 146.31C89.7696 145.71 89.5896 145.19 89.6596 145.16C89.7296 145.13 90.0196 145.59 90.2996 146.19C90.5896 146.79 90.7696 147.31 90.6996 147.34Z" fill="#102027"/>
<path d="M86.6287 151.99C86.5687 151.94 86.7987 151.58 87.1387 151.19C87.4787 150.8 87.7987 150.52 87.8587 150.57C87.9187 150.62 87.6887 150.98 87.3487 151.37C87.0087 151.76 86.6887 152.04 86.6287 151.99Z" fill="#102027"/>
<path d="M85.769 143.55C85.759 143.62 85.389 143.62 84.939 143.55C84.489 143.47 84.139 143.35 84.159 143.27C84.169 143.2 84.539 143.2 84.989 143.27C85.429 143.35 85.789 143.47 85.769 143.55Z" fill="#102027"/>
<path d="M0 212.91C0 212.91 13.56 186.39 70.68 185.53C127.81 184.68 143.67 208.34 180.4 183.53C217.13 158.72 258.33 129.63 339 162.14V215.46H0V212.91Z" fill="url(#paint4_linear_28_8939)"/>
</svg>
