<svg width="18" height="21" viewBox="0 0 18 21" fill="none" xmlns="http://www.w3.org/2000/svg">
<path d="M2.76807 12.25V7.75C2.76807 5.95979 3.47922 4.2429 4.7451 2.97703C6.01097 1.71116 7.72786 1 9.51807 1C11.3083 1 13.0252 1.71116 14.291 2.97703C15.5569 4.2429 16.2681 5.95979 16.2681 7.75V12.25" stroke="#7C7C7C" stroke-width="1.5" stroke-linecap="round" stroke-linejoin="round"/>
<path d="M16.2681 13C16.2681 13.3978 16.11 13.7794 15.8287 14.0607C15.5474 14.342 15.1659 14.5 14.7681 14.5H14.0181C13.6202 14.5 13.2387 14.342 12.9574 14.0607C12.6761 13.7794 12.5181 13.3978 12.5181 13V10.75C12.5181 10.3522 12.6761 9.97064 12.9574 9.68934C13.2387 9.40804 13.6202 9.25 14.0181 9.25H16.2681V13ZM2.76807 13C2.76807 13.3978 2.9261 13.7794 3.20741 14.0607C3.48871 14.342 3.87024 14.5 4.26807 14.5H5.01807C5.41589 14.5 5.79742 14.342 6.07873 14.0607C6.36003 13.7794 6.51807 13.3978 6.51807 13V10.75C6.51807 10.3522 6.36003 9.97064 6.07873 9.68934C5.79742 9.40804 5.41589 9.25 5.01807 9.25H2.76807V13Z" stroke="#7C7C7C" stroke-width="1.5" stroke-linecap="round" stroke-linejoin="round"/>
<path d="M2.76849 10.9998C0.268097 10.9998 -0.732161 19.9999 7.76744 18.9999M7.76744 18.9999V18.4999C7.76744 17.9476 8.21515 17.4999 8.76744 17.4999H9.268C9.82028 17.4999 10.268 17.9476 10.268 18.4999V18.9999C10.268 19.5522 9.82028 19.9999 9.268 19.9999H8.76744C8.21537 19.9999 7.76774 19.552 7.76744 18.9999V18.9999Z" stroke="#7C7C7C"/>
</svg>
