<svg width="295" height="160" viewBox="0 0 295 160" fill="none" xmlns="http://www.w3.org/2000/svg">
<defs>
<linearGradient id="paint0_linear_47_9467" x1="37.1606" y1="-7.55451" x2="270.541" y2="179.244" gradientUnits="userSpaceOnUse">
<stop stop-color="#F46444"/>
<stop offset="1" stop-color="#F48E19"/>
</linearGradient>
<linearGradient id="paint1_linear_47_9467" x1="122.443" y1="47.319" x2="111.813" y2="71.8542" gradientUnits="userSpaceOnUse">
<stop offset="0.16" stop-color="#FF8F66"/>
<stop offset="0.39" stop-color="#B16958"/>
<stop offset="0.61" stop-color="#6F494C"/>
<stop offset="0.79" stop-color="#3F3244"/>
<stop offset="0.92" stop-color="#21243E"/>
<stop offset="1" stop-color="#171F3D"/>
</linearGradient>
<linearGradient id="paint2_linear_47_9467" x1="135.684" y1="45.4424" x2="125.052" y2="69.9795" gradientUnits="userSpaceOnUse">
<stop offset="0.16" stop-color="#FF8F66"/>
<stop offset="0.39" stop-color="#B16958"/>
<stop offset="0.61" stop-color="#6F494C"/>
<stop offset="0.79" stop-color="#3F3244"/>
<stop offset="0.92" stop-color="#21243E"/>
<stop offset="1" stop-color="#171F3D"/>
</linearGradient>
<linearGradient id="paint3_linear_47_9467" x1="142.766" y1="47.0425" x2="132.136" y2="71.5797" gradientUnits="userSpaceOnUse">
<stop offset="0.16" stop-color="#FF8F66"/>
<stop offset="0.39" stop-color="#B16958"/>
<stop offset="0.61" stop-color="#6F494C"/>
<stop offset="0.79" stop-color="#3F3244"/>
<stop offset="0.92" stop-color="#21243E"/>
<stop offset="1" stop-color="#171F3D"/>
</linearGradient>
<linearGradient id="paint4_linear_47_9467" x1="140.023" y1="41.5411" x2="128.306" y2="68.5844" gradientUnits="userSpaceOnUse">
<stop offset="0.16" stop-color="#FF8F66"/>
<stop offset="0.39" stop-color="#B16958"/>
<stop offset="0.61" stop-color="#6F494C"/>
<stop offset="0.79" stop-color="#3F3244"/>
<stop offset="0.92" stop-color="#21243E"/>
<stop offset="1" stop-color="#171F3D"/>
</linearGradient>
<linearGradient id="paint5_linear_47_9467" x1="134.643" y1="36.2406" x2="119.233" y2="71.8046" gradientUnits="userSpaceOnUse">
<stop offset="0.16" stop-color="#FF8F66"/>
<stop offset="0.39" stop-color="#B16958"/>
<stop offset="0.61" stop-color="#6F494C"/>
<stop offset="0.79" stop-color="#3F3244"/>
<stop offset="0.92" stop-color="#21243E"/>
<stop offset="1" stop-color="#171F3D"/>
</linearGradient>
<linearGradient id="paint6_linear_47_9467" x1="125.254" y1="50.8761" x2="115.663" y2="75.1747" gradientUnits="userSpaceOnUse">
<stop offset="0.16" stop-color="#FF8F66"/>
<stop offset="0.28" stop-color="#C9745C"/>
<stop offset="0.42" stop-color="#935B52"/>
<stop offset="0.55" stop-color="#66454B"/>
<stop offset="0.68" stop-color="#443444"/>
<stop offset="0.8" stop-color="#2B2840"/>
<stop offset="0.91" stop-color="#1C213D"/>
<stop offset="1" stop-color="#171F3D"/>
</linearGradient>
<linearGradient id="paint7_linear_47_9467" x1="138.021" y1="50.6674" x2="128.431" y2="74.9679" gradientUnits="userSpaceOnUse">
<stop offset="0.16" stop-color="#FF8F66"/>
<stop offset="0.28" stop-color="#C9745C"/>
<stop offset="0.42" stop-color="#935B52"/>
<stop offset="0.55" stop-color="#66454B"/>
<stop offset="0.68" stop-color="#443444"/>
<stop offset="0.8" stop-color="#2B2840"/>
<stop offset="0.91" stop-color="#1C213D"/>
<stop offset="1" stop-color="#171F3D"/>
</linearGradient>
<linearGradient id="paint8_linear_47_9467" x1="190.443" y1="10.319" x2="179.813" y2="34.8542" gradientUnits="userSpaceOnUse">
<stop offset="0.16" stop-color="#FF8F66"/>
<stop offset="0.39" stop-color="#B16958"/>
<stop offset="0.61" stop-color="#6F494C"/>
<stop offset="0.79" stop-color="#3F3244"/>
<stop offset="0.92" stop-color="#21243E"/>
<stop offset="1" stop-color="#171F3D"/>
</linearGradient>
<linearGradient id="paint9_linear_47_9467" x1="203.684" y1="8.4424" x2="193.052" y2="32.9795" gradientUnits="userSpaceOnUse">
<stop offset="0.16" stop-color="#FF8F66"/>
<stop offset="0.39" stop-color="#B16958"/>
<stop offset="0.61" stop-color="#6F494C"/>
<stop offset="0.79" stop-color="#3F3244"/>
<stop offset="0.92" stop-color="#21243E"/>
<stop offset="1" stop-color="#171F3D"/>
</linearGradient>
<linearGradient id="paint10_linear_47_9467" x1="210.766" y1="10.0425" x2="200.136" y2="34.5797" gradientUnits="userSpaceOnUse">
<stop offset="0.16" stop-color="#FF8F66"/>
<stop offset="0.39" stop-color="#B16958"/>
<stop offset="0.61" stop-color="#6F494C"/>
<stop offset="0.79" stop-color="#3F3244"/>
<stop offset="0.92" stop-color="#21243E"/>
<stop offset="1" stop-color="#171F3D"/>
</linearGradient>
<linearGradient id="paint11_linear_47_9467" x1="208.023" y1="4.5411" x2="196.306" y2="31.5844" gradientUnits="userSpaceOnUse">
<stop offset="0.16" stop-color="#FF8F66"/>
<stop offset="0.39" stop-color="#B16958"/>
<stop offset="0.61" stop-color="#6F494C"/>
<stop offset="0.79" stop-color="#3F3244"/>
<stop offset="0.92" stop-color="#21243E"/>
<stop offset="1" stop-color="#171F3D"/>
</linearGradient>
<linearGradient id="paint12_linear_47_9467" x1="202.643" y1="-0.759359" x2="187.233" y2="34.8046" gradientUnits="userSpaceOnUse">
<stop offset="0.16" stop-color="#FF8F66"/>
<stop offset="0.39" stop-color="#B16958"/>
<stop offset="0.61" stop-color="#6F494C"/>
<stop offset="0.79" stop-color="#3F3244"/>
<stop offset="0.92" stop-color="#21243E"/>
<stop offset="1" stop-color="#171F3D"/>
</linearGradient>
<linearGradient id="paint13_linear_47_9467" x1="193.254" y1="13.8761" x2="183.663" y2="38.1747" gradientUnits="userSpaceOnUse">
<stop offset="0.16" stop-color="#FF8F66"/>
<stop offset="0.28" stop-color="#C9745C"/>
<stop offset="0.42" stop-color="#935B52"/>
<stop offset="0.55" stop-color="#66454B"/>
<stop offset="0.68" stop-color="#443444"/>
<stop offset="0.8" stop-color="#2B2840"/>
<stop offset="0.91" stop-color="#1C213D"/>
<stop offset="1" stop-color="#171F3D"/>
</linearGradient>
<linearGradient id="paint14_linear_47_9467" x1="206.021" y1="13.6674" x2="196.431" y2="37.9679" gradientUnits="userSpaceOnUse">
<stop offset="0.16" stop-color="#FF8F66"/>
<stop offset="0.28" stop-color="#C9745C"/>
<stop offset="0.42" stop-color="#935B52"/>
<stop offset="0.55" stop-color="#66454B"/>
<stop offset="0.68" stop-color="#443444"/>
<stop offset="0.8" stop-color="#2B2840"/>
<stop offset="0.91" stop-color="#1C213D"/>
<stop offset="1" stop-color="#171F3D"/>
</linearGradient>
<linearGradient id="paint15_linear_47_9467" x1="350.703" y1="51.3213" x2="107.751" y2="134.802" gradientUnits="userSpaceOnUse">
<stop stop-color="#EED704"/>
<stop offset="1" stop-color="#FF8948"/>
</linearGradient>
<linearGradient id="paint16_linear_47_9467" x1="243.646" y1="7.11538" x2="226.128" y2="47.5466" gradientUnits="userSpaceOnUse">
<stop offset="0.16" stop-color="#FF8F66"/>
<stop offset="0.39" stop-color="#B16958"/>
<stop offset="0.61" stop-color="#6F494C"/>
<stop offset="0.79" stop-color="#3F3244"/>
<stop offset="0.92" stop-color="#21243E"/>
<stop offset="1" stop-color="#171F3D"/>
</linearGradient>
<linearGradient id="paint17_linear_47_9467" x1="265.463" y1="4.02576" x2="247.945" y2="44.457" gradientUnits="userSpaceOnUse">
<stop offset="0.16" stop-color="#FF8F66"/>
<stop offset="0.39" stop-color="#B16958"/>
<stop offset="0.61" stop-color="#6F494C"/>
<stop offset="0.79" stop-color="#3F3244"/>
<stop offset="0.92" stop-color="#21243E"/>
<stop offset="1" stop-color="#171F3D"/>
</linearGradient>
<linearGradient id="paint18_linear_47_9467" x1="277.133" y1="6.65989" x2="259.614" y2="47.0911" gradientUnits="userSpaceOnUse">
<stop offset="0.16" stop-color="#FF8F66"/>
<stop offset="0.39" stop-color="#B16958"/>
<stop offset="0.61" stop-color="#6F494C"/>
<stop offset="0.79" stop-color="#3F3244"/>
<stop offset="0.92" stop-color="#21243E"/>
<stop offset="1" stop-color="#171F3D"/>
</linearGradient>
<linearGradient id="paint19_linear_47_9467" x1="272.615" y1="-2.40278" x2="253.309" y2="42.1568" gradientUnits="userSpaceOnUse">
<stop offset="0.16" stop-color="#FF8F66"/>
<stop offset="0.39" stop-color="#B16958"/>
<stop offset="0.61" stop-color="#6F494C"/>
<stop offset="0.79" stop-color="#3F3244"/>
<stop offset="0.92" stop-color="#21243E"/>
<stop offset="1" stop-color="#171F3D"/>
</linearGradient>
<linearGradient id="paint20_linear_47_9467" x1="263.749" y1="-11.1388" x2="238.358" y2="47.4661" gradientUnits="userSpaceOnUse">
<stop offset="0.16" stop-color="#FF8F66"/>
<stop offset="0.39" stop-color="#B16958"/>
<stop offset="0.61" stop-color="#6F494C"/>
<stop offset="0.79" stop-color="#3F3244"/>
<stop offset="0.92" stop-color="#21243E"/>
<stop offset="1" stop-color="#171F3D"/>
</linearGradient>
<linearGradient id="paint21_linear_47_9467" x1="248.272" y1="12.9767" x2="232.47" y2="53.0183" gradientUnits="userSpaceOnUse">
<stop offset="0.16" stop-color="#FF8F66"/>
<stop offset="0.28" stop-color="#C9745C"/>
<stop offset="0.42" stop-color="#935B52"/>
<stop offset="0.55" stop-color="#66454B"/>
<stop offset="0.68" stop-color="#443444"/>
<stop offset="0.8" stop-color="#2B2840"/>
<stop offset="0.91" stop-color="#1C213D"/>
<stop offset="1" stop-color="#171F3D"/>
</linearGradient>
<linearGradient id="paint22_linear_47_9467" x1="269.314" y1="12.6334" x2="253.512" y2="52.675" gradientUnits="userSpaceOnUse">
<stop offset="0.16" stop-color="#FF8F66"/>
<stop offset="0.28" stop-color="#C9745C"/>
<stop offset="0.42" stop-color="#935B52"/>
<stop offset="0.55" stop-color="#66454B"/>
<stop offset="0.68" stop-color="#443444"/>
<stop offset="0.8" stop-color="#2B2840"/>
<stop offset="0.91" stop-color="#1C213D"/>
<stop offset="1" stop-color="#171F3D"/>
</linearGradient>
<linearGradient id="paint23_linear_47_9467" x1="297.445" y1="81.2874" x2="14.3934" y2="160.524" gradientUnits="userSpaceOnUse">
<stop stop-color="#FA9C45"/>
<stop offset="1" stop-color="#E15F36"/>
</linearGradient>
<linearGradient id="paint24_linear_47_9467" x1="196.035" y1="72.7567" x2="170.056" y2="50.5151" gradientUnits="userSpaceOnUse">
<stop offset="0.16" stop-color="#FF8F66"/>
<stop offset="0.39" stop-color="#B16958"/>
<stop offset="0.61" stop-color="#6F494C"/>
<stop offset="0.79" stop-color="#3F3244"/>
<stop offset="0.92" stop-color="#21243E"/>
<stop offset="1" stop-color="#171F3D"/>
</linearGradient>
<linearGradient id="paint25_linear_47_9467" x1="193.586" y1="76.3281" x2="167.198" y2="53.7585" gradientUnits="userSpaceOnUse">
<stop offset="0.16" stop-color="#FF8F66"/>
<stop offset="0.39" stop-color="#B16958"/>
<stop offset="0.61" stop-color="#6F494C"/>
<stop offset="0.79" stop-color="#3F3244"/>
<stop offset="0.92" stop-color="#21243E"/>
<stop offset="1" stop-color="#171F3D"/>
</linearGradient>
<linearGradient id="paint26_linear_47_9467" x1="203.133" y1="69.7503" x2="203.42" y2="35.0645" gradientUnits="userSpaceOnUse">
<stop offset="0.16" stop-color="#FF8F66"/>
<stop offset="0.39" stop-color="#B16958"/>
<stop offset="0.61" stop-color="#6F494C"/>
<stop offset="0.79" stop-color="#3F3244"/>
<stop offset="0.92" stop-color="#21243E"/>
<stop offset="1" stop-color="#171F3D"/>
</linearGradient>
<linearGradient id="paint27_linear_47_9467" x1="207.484" y1="69.2785" x2="207.763" y2="35.1612" gradientUnits="userSpaceOnUse">
<stop offset="0.16" stop-color="#FF8F66"/>
<stop offset="0.39" stop-color="#B16958"/>
<stop offset="0.61" stop-color="#6F494C"/>
<stop offset="0.79" stop-color="#3F3244"/>
<stop offset="0.92" stop-color="#21243E"/>
<stop offset="1" stop-color="#171F3D"/>
</linearGradient>
</defs>
<path d="M293.891 55.8691C293.891 55.8691 282.137 38.1589 232.614 37.5869C183.09 37.0149 169.331 43.3007 137.492 26.7313C105.654 10.162 69.9304 -9.26115 0 12.45C0 13.2939 0 105.574 0 105.574H293.891V55.8691Z" fill="url(#paint0_linear_47_9467)"/>
<path d="M110.184 70.0169L110 70.8855H118.63L118.54 70.5132L116.668 69.8608L116.536 68.68L118.215 69.1802L117.125 64.7034L115.852 64.0491L115.694 63.3872L116.908 63.8141L115.662 58.7037L114.88 58.3314V57.4834L115.408 57.6639L114.025 51.9875L113.639 53.7963L113.906 53.6233L113.748 54.1893L113.489 54.5051L113.124 56.218L113.748 55.8138L113.619 56.2613L113.023 56.6993L112.151 60.7869L113.066 60.2642V60.8452L112.03 61.3585L111.884 62.0467L112.829 61.6462L112.724 61.9884L111.803 62.419L111.062 65.8955L112.066 65.2581V66.5347L110.752 67.3564L110.425 68.8925L111.961 67.9298V68.9113L110.184 70.0169Z" fill="url(#paint1_linear_47_9467)"/>
<path d="M127.026 71.6826H127.64L127.597 69.2158H131.862L131.714 68.6085L129.842 67.956L129.71 66.7753L131.389 67.2754L130.298 62.7986L129.026 62.1443L128.868 61.4825L130.082 61.9093L128.836 56.7989L128.054 56.4266V55.5805L128.582 55.7591L127.199 50.0828L126.813 51.8915L127.08 51.7185L126.922 52.2845L126.663 52.6003L126.298 54.3151L126.922 53.909L126.791 54.3565L126.195 54.7946L125.324 58.8821L126.24 58.3594V58.9404L125.204 59.4537L125.056 60.1419L126.003 59.7414L125.898 60.0836L124.977 60.5142L124.236 63.9907L125.24 63.3533V64.6318L123.926 65.4535L123.599 66.9896L125.134 66.0269V67.0065L123.358 68.1121L123.123 69.2158H127.043L127.026 71.6826Z" fill="url(#paint2_linear_47_9467)"/>
<path d="M134.119 71.6827H134.696L134.681 70.8159H138.945L138.796 70.2086L136.924 69.5562L136.792 68.3754L138.473 68.8755L137.381 64.3987L136.11 63.7444L135.952 63.0807L137.164 63.5094L135.918 58.399L135.136 58.0267V57.1787L135.664 57.3592L134.283 51.6829L133.897 53.4916L134.164 53.3187L134.006 53.8846L133.745 54.2005L133.38 55.9133L134.006 55.5072L133.875 55.9566L133.279 56.3947L132.408 60.4823L133.322 59.9596V60.5387L132.286 61.0538L132.14 61.742L133.085 61.3415L132.98 61.6837L132.061 62.1143L131.32 65.5908L132.324 64.9534V66.2301L131.008 67.0517L130.681 68.5878L132.218 67.6252V68.6066L130.442 69.7122L130.207 70.8159H134.127L134.119 71.6827Z" fill="url(#paint3_linear_47_9467)"/>
<path d="M135.812 67.7437L135.648 67.0744L133.584 66.3561L133.44 65.0532L135.289 65.604L134.088 60.6704L132.686 59.9503L132.513 59.2189L133.849 59.6908L132.475 54.0577L131.614 53.6478V52.7133L132.197 52.9126L130.673 46.6553L130.248 48.6502L130.541 48.4584L130.368 49.0826L130.08 49.4305L129.678 51.3201L130.368 50.8726L130.223 51.3652L129.565 51.8484L128.607 56.3553L129.614 55.7781V56.4173L128.471 56.9833L128.31 57.7429L129.353 57.301L129.238 57.679L128.223 58.1528L127.407 61.9846L128.513 61.2814V62.6897L127.063 63.596L126.704 65.2882L128.398 64.2277V65.3089L126.439 66.5272L126.18 67.7437H130.5L130.475 71.3086H131.174L131.112 67.7437H135.812Z" fill="url(#paint4_linear_47_9467)"/>
<path d="M116.856 69.133L116.574 70.4586H129.115L128.968 69.8532L126.252 68.9074L126.062 67.1945L128.496 67.9203L126.915 61.4298L125.071 60.4841L124.842 59.5233L126.601 60.1419L124.795 52.7357L123.661 52.1942V50.9665L124.428 51.2278L122.422 43L121.864 45.621L122.251 45.3709L122.022 46.1907L121.646 46.6476L121.116 49.1332L122.022 48.5447L121.832 49.1934L120.967 49.8289L119.706 55.7553L121.031 54.9976V55.8381L119.529 56.5826L119.317 57.581L120.689 57L120.537 57.4964L119.202 58.1188L118.129 63.1596L119.584 62.2346V64.0866L117.678 65.2786L117.202 67.5048L119.432 66.1097V67.5311L116.856 69.133Z" fill="url(#paint5_linear_47_9467)"/>
<path d="M115.238 70.9004L115.178 71.1411H121.387L121.259 70.5413L119.979 69.7459V69.039L121.086 69.7328L120.851 68.6253L119.904 68.0331V67.1118L120.627 67.5724L120.094 65.0661L119.43 64.7558L119.355 64.5095L120.035 64.7972L119.93 64.3008L119.184 63.9304V63.513L119.842 63.8891L119.216 60.9428L118.785 60.6269L118.691 60.3054L119.14 60.5968L118.877 59.3615L118.691 59.134L118.576 58.726L118.77 58.852L118.492 57.5471L117.494 61.6385L117.875 61.5087V62.1198L117.311 62.3887L116.415 66.072L117.289 65.7636L117.174 66.2412L116.259 66.7131L115.471 69.9396L116.682 69.5786L116.588 70.4303L115.238 70.9004Z" fill="url(#paint6_linear_47_9467)"/>
<path d="M130.91 71.6825H131.325L131.322 71.109H134.145L133.976 70.3137L132.696 69.5165V68.8095L133.803 69.5033L133.568 68.3959L132.621 67.8036V66.8842L133.344 67.343L132.81 64.8367L132.147 64.5264L132.07 64.2801L132.752 64.5697L132.647 64.0733L131.901 63.7029V63.2836L132.559 63.6615L131.931 60.7152L131.502 60.3994L131.408 60.076L131.857 60.3693L131.594 59.1321L131.408 58.9065L131.293 58.4985L131.485 58.6226L131.209 57.3196L130.211 61.409L130.592 61.2812V61.8904L130.028 62.1592L129.132 65.8426L130.006 65.5342L129.891 66.0118L128.974 66.4837L128.188 69.7101L129.399 69.351L129.305 70.2009L127.953 70.671L127.848 71.109H130.921L130.91 71.6825Z" fill="url(#paint7_linear_47_9467)"/>
<g opacity="0.5">
<path d="M178.184 33.0169L178 33.8855H186.63L186.54 33.5132L184.668 32.8608L184.536 31.68L186.215 32.1802L185.125 27.7034L183.852 27.0491L183.694 26.3872L184.908 26.8141L183.662 21.7037L182.88 21.3314V20.4834L183.408 20.6639L182.025 14.9875L181.639 16.7963L181.906 16.6233L181.748 17.1893L181.489 17.5051L181.124 19.218L181.748 18.8138L181.619 19.2613L181.023 19.6993L180.151 23.7869L181.066 23.2642V23.8452L180.03 24.3585L179.884 25.0467L180.829 24.6462L180.724 24.9884L179.803 25.419L179.062 28.8955L180.066 28.2581V29.5347L178.752 30.3564L178.425 31.8925L179.961 30.9298V31.9113L178.184 33.0169Z" fill="url(#paint8_linear_47_9467)"/>
<path d="M195.026 34.6826H195.64L195.597 32.2158H199.862L199.714 31.6085L197.842 30.956L197.71 29.7753L199.389 30.2754L198.298 25.7986L197.026 25.1443L196.868 24.4825L198.082 24.9093L196.836 19.7989L196.054 19.4266V18.5805L196.582 18.7591L195.199 13.0828L194.813 14.8915L195.08 14.7185L194.922 15.2845L194.663 15.6003L194.298 17.3151L194.922 16.909L194.791 17.3565L194.195 17.7946L193.324 21.8821L194.24 21.3594V21.9404L193.204 22.4537L193.056 23.1419L194.003 22.7414L193.898 23.0836L192.977 23.5142L192.236 26.9907L193.24 26.3533V27.6318L191.926 28.4535L191.599 29.9896L193.134 29.0269V30.0065L191.358 31.1121L191.123 32.2158H195.043L195.026 34.6826Z" fill="url(#paint9_linear_47_9467)"/>
<path d="M202.119 34.6827H202.696L202.681 33.8159H206.945L206.796 33.2086L204.924 32.5562L204.792 31.3754L206.473 31.8755L205.381 27.3987L204.11 26.7444L203.952 26.0807L205.164 26.5094L203.918 21.399L203.136 21.0267V20.1787L203.664 20.3592L202.283 14.6829L201.897 16.4916L202.164 16.3187L202.006 16.8846L201.745 17.2005L201.38 18.9133L202.006 18.5072L201.875 18.9566L201.279 19.3947L200.408 23.4823L201.322 22.9596V23.5387L200.286 24.0538L200.14 24.742L201.085 24.3415L200.98 24.6837L200.061 25.1143L199.32 28.5908L200.324 27.9534V29.2301L199.008 30.0517L198.681 31.5878L200.218 30.6252V31.6066L198.442 32.7122L198.207 33.8159H202.127L202.119 34.6827Z" fill="url(#paint10_linear_47_9467)"/>
<path d="M203.812 30.7437L203.648 30.0744L201.584 29.3561L201.44 28.0532L203.289 28.604L202.088 23.6704L200.686 22.9503L200.513 22.2189L201.849 22.6908L200.475 17.0577L199.614 16.6478V15.7133L200.197 15.9126L198.673 9.65527L198.248 11.6502L198.541 11.4584L198.368 12.0826L198.08 12.4305L197.678 14.3201L198.368 13.8726L198.223 14.3652L197.565 14.8484L196.607 19.3553L197.614 18.7781V19.4173L196.471 19.9833L196.31 20.7429L197.353 20.301L197.238 20.679L196.223 21.1528L195.407 24.9846L196.513 24.2814V25.6897L195.063 26.596L194.704 28.2882L196.398 27.2277V28.3089L194.439 29.5272L194.18 30.7437H198.5L198.475 34.3086H199.174L199.112 30.7437H203.812Z" fill="url(#paint11_linear_47_9467)"/>
<path d="M184.856 32.133L184.574 33.4586H197.115L196.968 32.8532L194.252 31.9074L194.062 30.1945L196.496 30.9203L194.915 24.4298L193.071 23.4841L192.842 22.5233L194.601 23.1419L192.795 15.7357L191.661 15.1942V13.9665L192.428 14.2278L190.422 6L189.864 8.621L190.251 8.37094L190.022 9.19071L189.646 9.64761L189.116 12.1332L190.022 11.5447L189.832 12.1934L188.967 12.8289L187.706 18.7553L189.031 17.9976V18.8381L187.529 19.5826L187.317 20.581L188.689 20L188.537 20.4964L187.202 21.1188L186.129 26.1596L187.584 25.2346V27.0866L185.678 28.2786L185.202 30.5048L187.432 29.1097V30.5311L184.856 32.133Z" fill="url(#paint12_linear_47_9467)"/>
<path d="M183.238 33.9004L183.178 34.1411H189.387L189.259 33.5413L187.979 32.7459V32.039L189.086 32.7328L188.851 31.6253L187.904 31.0331V30.1118L188.627 30.5724L188.094 28.0661L187.43 27.7558L187.355 27.5095L188.035 27.7972L187.93 27.3008L187.184 26.9304V26.513L187.842 26.8891L187.216 23.9428L186.785 23.6269L186.691 23.3054L187.14 23.5968L186.877 22.3615L186.691 22.134L186.576 21.726L186.77 21.852L186.492 20.5471L185.494 24.6385L185.875 24.5087V25.1198L185.311 25.3887L184.415 29.072L185.289 28.7636L185.174 29.2412L184.259 29.7131L183.471 32.9396L184.682 32.5786L184.588 33.4303L183.238 33.9004Z" fill="url(#paint13_linear_47_9467)"/>
<path d="M198.91 34.6825H199.325L199.322 34.109H202.145L201.976 33.3137L200.696 32.5165V31.8095L201.803 32.5033L201.568 31.3959L200.621 30.8036V29.8842L201.344 30.343L200.81 27.8367L200.147 27.5264L200.07 27.2801L200.752 27.5697L200.647 27.0733L199.901 26.7029V26.2836L200.559 26.6615L199.931 23.7152L199.502 23.3994L199.408 23.076L199.857 23.3693L199.594 22.1321L199.408 21.9065L199.293 21.4985L199.485 21.6226L199.209 20.3196L198.211 24.409L198.592 24.2812V24.8904L198.028 25.1592L197.132 28.8426L198.006 28.5342L197.891 29.0118L196.974 29.4837L196.188 32.7101L197.399 32.351L197.305 33.2009L195.953 33.671L195.848 34.109H198.921L198.91 34.6825Z" fill="url(#paint14_linear_47_9467)"/>
</g>
<path d="M0.00390625 96.6096C0.00390625 96.6096 11.7606 68.6502 61.3028 67.7468C110.845 66.8435 124.608 76.7676 156.459 50.6086C188.31 24.4527 224.046 -6.21353 294.001 28.0598V159.449H0.00390625V96.6065V96.6096Z" fill="url(#paint15_linear_47_9467)"/>
<path d="M223.446 44.518L223.143 45.9472H237.363L237.216 45.3353L234.13 44.2611L233.913 42.3136L236.679 43.1379L234.882 35.7611L232.787 34.6846L232.526 33.5917L234.524 34.2969L232.472 25.8763L231.183 25.2621V23.8657L232.054 24.1622L229.776 14.8098L229.141 17.7895L229.579 17.5046L229.32 18.4364L228.891 18.9571L228.291 21.7803L229.32 21.1125L229.103 21.8504L228.123 22.572L226.687 29.309L228.193 28.4473V29.4024L226.486 30.25L226.245 31.3849L227.803 30.7241L227.63 31.2892L226.115 31.9968L224.894 37.725L226.547 36.6765V38.7805L224.38 40.1349L223.841 42.6662L226.374 41.0806V42.6966L223.446 44.518Z" fill="url(#paint16_linear_47_9467)"/>
<path d="M251.198 47.264H252.211L252.139 43.1984H259.166L258.921 42.199L255.837 41.1225L255.62 39.1772L258.386 39.9992L256.589 32.6224L254.492 31.5459L254.233 30.453L256.232 31.1582L254.179 22.7376L252.891 22.1234V20.7293L253.761 21.0235L251.483 11.6711L250.848 14.6508L251.287 14.3659L251.027 15.3L250.598 15.8184L249.998 18.644L251.027 17.9738L250.81 18.7117L249.827 19.4356L248.394 26.1703L249.9 25.3086V26.266L248.193 27.1114L247.95 28.2463L249.51 27.5877L249.337 28.1505L247.822 28.8581L246.601 34.5886L248.254 33.5378V35.6418L246.087 36.9962L245.548 39.5275L248.081 37.9419V39.5579L245.153 41.3793L244.766 43.1984H251.224L251.198 47.264Z" fill="url(#paint17_linear_47_9467)"/>
<path d="M262.886 47.2641H263.834L263.808 45.8326H270.836L270.593 44.8331L267.506 43.7589L267.289 41.8114L270.056 42.6357L268.258 35.2589L266.164 34.1824L265.903 33.0895L267.901 33.7947L265.849 25.3741L264.56 24.7599V23.3635L265.431 23.66L263.152 14.3076L262.517 17.2873L262.956 17.0024L262.697 17.9342L262.267 18.4549L261.667 21.2782L262.697 20.6103L262.48 21.3482L261.499 22.0698L260.063 28.8068L261.572 27.9451V28.9002L259.863 29.7478L259.622 30.8828L261.179 30.2219L261.007 30.787L259.491 31.4946L258.27 37.2228L259.923 36.1743V38.2783L257.757 39.6327L257.217 42.164L259.751 40.5784V42.1944L256.823 44.0158L256.438 45.8326H262.895L262.886 47.2641Z" fill="url(#paint18_linear_47_9467)"/>
<path d="M265.676 40.7701L265.407 39.6702L262.006 38.4839L261.767 36.3403L264.817 37.2463L262.834 29.1175L260.525 27.9289L260.238 26.7263L262.442 27.5016L260.18 18.2216L258.758 17.5444V16.0055L259.72 16.3324L257.208 6.0249L256.507 9.30818L256.993 8.99525L256.706 10.0227L256.234 10.5949L255.571 13.7077L256.706 12.9721L256.468 13.7847L255.384 14.581L253.804 22.0046L255.464 21.0565V22.1096L253.582 23.0414L253.316 24.293L255.034 23.5645L254.843 24.1856L253.171 24.9679L251.826 31.2822L253.65 30.124V32.4452L251.261 33.9374L250.668 36.7255L253.458 34.9788V36.7606L250.232 38.7665L249.807 40.7701H256.923L256.883 46.6454H258.034L257.932 40.7701H265.676Z" fill="url(#paint19_linear_47_9467)"/>
<path d="M234.439 43.0608L233.975 45.2465H254.639L254.397 44.247L249.923 42.6895L249.61 39.8686L253.621 41.0619L251.014 30.369L247.976 28.8092L247.6 27.2259L250.498 28.2464L247.523 16.0404L245.653 15.1507V13.1284L246.916 13.5557L243.612 0L242.693 4.32009L243.33 3.90676L242.954 5.25881L242.331 6.01076L241.46 10.1043L242.954 9.13523L242.639 10.2047L241.215 11.2532L239.137 21.0166L241.32 19.7673V21.1544L238.845 22.3804L238.495 24.0244L240.755 23.0693L240.505 23.8866L238.306 24.9117L236.536 33.218L238.934 31.6954V34.7452L235.793 36.7091L235.011 40.3776L238.681 38.0798V40.422L234.439 43.0608Z" fill="url(#paint20_linear_47_9467)"/>
<path d="M231.77 45.9728L231.672 46.3698H241.903L241.693 45.3843L239.582 44.072V42.9067L241.408 44.0486L241.02 42.2248L239.458 41.2487V39.7309L240.649 40.4898L239.771 36.3589L238.678 35.8475L238.552 35.4435L239.675 35.9175L239.503 35.1002L238.272 34.4907V33.8018L239.358 34.4206L238.324 29.5658L237.616 29.0451L237.46 28.515L238.202 28.996L237.768 26.9597L237.46 26.5861L237.273 25.9136L237.588 26.1191L237.13 23.9707L235.489 30.7124L236.117 30.4976V31.504L235.188 31.9477L233.708 38.0168L235.148 37.5078L234.962 38.2971L233.451 39.0723L232.155 44.3896L234.149 43.7964L233.993 45.1999L231.77 45.9728Z" fill="url(#paint21_linear_47_9467)"/>
<path d="M257.598 47.2641H258.28L258.273 46.3184H262.929L262.649 45.006L260.54 43.6937V42.5307L262.366 43.6726L261.976 41.8489L260.414 40.8727V39.3549L261.607 40.1115L260.727 35.9829L259.634 35.4715L259.508 35.0651L260.634 35.5415L260.459 34.7242L259.228 34.1124V33.4235L260.314 34.0447L259.279 29.1898L258.572 28.6691L258.416 28.1367L259.158 28.62L258.726 26.5838L258.416 26.2078L258.229 25.5376L258.546 25.7431L258.089 23.5947L256.445 30.3364L257.073 30.1216V31.128L256.144 31.5717L254.664 37.6409L256.104 37.1318L255.917 37.9211L254.407 38.6964L253.111 44.0136L255.107 43.4204L254.951 44.8215L252.726 45.5968L252.551 46.3184H257.615L257.598 47.2641Z" fill="url(#paint22_linear_47_9467)"/>
<path d="M0.00390625 98.4725C0.00390625 98.4725 11.7606 75.4704 61.3028 74.7296C110.845 73.9888 124.608 94.5122 156.459 72.9949C188.31 51.4775 224.046 26.25 294.001 54.4438V159.452H0.00390625V98.4756V98.4725Z" fill="url(#paint23_linear_47_9467)"/>
<path d="M187.231 53.1703C187.067 52.9164 186.863 52.6832 186.651 52.4678C185.854 51.6705 184.905 51.2706 183.761 51.4237C183.028 51.5232 182.366 51.8139 181.751 52.2081C181.433 52.4096 181.123 52.4438 180.77 52.3246C179.797 51.9948 178.815 51.6829 177.842 51.351C176.993 51.0625 176.181 51.0863 175.406 51.5657C174.34 52.2273 173.274 52.894 172.206 53.5587C171.711 53.8677 171.304 54.2666 170.995 54.7553C170.91 54.8925 170.831 55.0295 170.759 55.1653C170.73 55.22 170.704 55.2736 170.677 55.3273C170.646 55.3914 170.616 55.4544 170.589 55.5164C170.59 55.5184 170.588 55.5195 170.588 55.5195C170.518 55.6801 170.46 55.8373 170.415 55.9693C170.356 56.1535 170.316 56.2957 170.302 56.3531C170.3 56.3646 170.298 56.374 170.295 56.3834C170.094 57.2137 170.108 58.0766 170.326 58.9724C170.343 59.0425 170.352 59.0952 170.293 59.1559C169.811 59.6524 169.7 60.2717 169.99 60.9031C170.141 61.23 170.308 61.5483 170.463 61.873C170.486 61.916 170.49 61.9823 170.475 62.0273C170.391 62.2641 170.418 62.4813 170.552 62.6935C170.755 63.0139 170.954 63.3384 171.156 63.6619C171.406 64.062 171.793 64.1554 172.196 63.9059C172.531 63.7008 172.861 63.4928 173.195 63.2857C173.225 63.2641 173.255 63.2404 173.286 63.2157C172.369 62.2224 172.576 60.6895 173.592 59.9443C174.073 59.5931 174.61 59.4428 175.2 59.5276C176.05 59.6522 176.631 60.1357 176.973 60.9182L182.954 57.1926C182.005 56.1825 182.271 54.565 183.346 53.8597C183.868 53.5178 184.434 53.3968 185.041 53.5299C185.807 53.6993 186.332 54.1687 186.644 54.896C186.737 54.8385 186.824 54.7895 186.904 54.7334C187.463 54.3428 187.6 53.7384 187.231 53.1703ZM174.194 56.6991C173.991 56.826 173.782 56.9477 173.578 57.0725C173.374 57.1973 173.17 57.3273 172.967 57.4542L172.963 57.446C172.559 57.6986 172.158 57.9521 171.75 58.1986C171.681 58.2409 171.596 58.2681 171.515 58.2744C171.377 58.2874 171.3 58.2262 171.256 58.0946C171.06 57.5364 171.056 56.9762 171.183 56.4167C171.192 56.3697 171.204 56.3238 171.216 56.2778C171.218 56.2663 171.221 56.2569 171.226 56.2464C171.328 55.8867 171.478 55.5673 171.529 55.4611C171.543 55.4379 171.549 55.4242 171.549 55.4242C171.821 54.9344 172.211 54.537 172.743 54.2478C172.969 54.1245 173.137 54.1583 173.274 54.3767C173.631 54.9461 173.986 55.5166 174.338 56.0882C174.494 56.3414 174.447 56.5377 174.194 56.6991ZM179.673 53.126C179.688 53.2574 179.603 53.3292 179.503 53.3931C178.856 53.7964 178.207 54.2009 177.558 54.6053L177.542 54.5746C176.909 54.9703 176.278 55.3649 175.644 55.7565C175.361 55.9311 175.228 55.8994 175.053 55.6198C174.699 55.0565 174.348 54.4921 173.999 53.9267C173.843 53.6787 173.878 53.5387 174.13 53.3805C174.689 53.0293 175.249 52.6802 175.811 52.3331C176.243 52.0652 176.705 51.9895 177.193 52.1445C177.946 52.3837 178.697 52.6375 179.45 52.8851C179.566 52.9255 179.658 52.9946 179.673 53.126Z" fill="url(#paint24_linear_47_9467)"/>
<path d="M185.402 57.0024C184.671 57.4588 183.711 57.2376 183.256 56.5079C182.799 55.7762 183.025 54.8197 183.756 54.3633C184.49 53.9057 185.447 54.128 185.902 54.8577C186.358 55.5874 186.134 56.5459 185.4 57.0035L185.402 57.0024Z" fill="#171F3D"/>
<path d="M173.587 62.532C173.129 61.7982 173.353 60.8449 174.088 60.3894C174.823 59.9339 175.779 60.1542 176.233 60.887C176.688 61.6198 176.467 62.5741 175.732 63.0296C174.998 63.4871 174.044 63.2658 173.587 62.532Z" fill="#171F3D"/>
<path d="M174.357 62.0526C174.167 61.7464 174.259 61.3476 174.565 61.1578C174.873 60.9669 175.27 61.0601 175.462 61.3652C175.652 61.6714 175.56 62.0702 175.252 62.2611C174.945 62.4509 174.547 62.3588 174.357 62.0526Z" fill="white"/>
<path d="M184.027 56.0255C183.837 55.7193 183.929 55.3205 184.235 55.1307C184.543 54.9398 184.94 55.033 185.132 55.3381C185.322 55.6443 185.23 56.0431 184.921 56.234C184.615 56.4238 184.217 56.3317 184.027 56.0255Z" fill="white"/>
<path d="M170.294 56.3836C170.294 56.3836 170.3 56.3644 170.302 56.3528C170.297 56.374 170.294 56.3836 170.294 56.3836Z" fill="url(#paint25_linear_47_9467)"/>
<path d="M195.35 50.4092C195.446 50.3854 195.542 50.3519 195.649 50.3179C195.302 49.5959 195.291 48.8809 195.672 48.1835C195.975 47.6291 196.446 47.2778 197.054 47.1061C198.309 46.7543 199.723 47.6268 199.863 49.0268L206.696 46.9341C206.324 46.1515 206.343 45.3838 206.815 44.6522C207.142 44.1441 207.616 43.8337 208.204 43.6995C209.451 43.4179 210.762 44.2823 210.91 45.6454C210.949 45.6369 210.988 45.6308 211.025 45.622C211.406 45.5047 211.784 45.3895 212.165 45.2723C212.624 45.1308 212.81 44.7731 212.671 44.3149C212.556 43.9461 212.442 43.5773 212.333 43.2068C212.26 42.9629 212.113 42.7985 211.875 42.7039C211.83 42.6854 211.785 42.6382 211.765 42.5925C211.62 42.2572 211.489 41.9169 211.339 41.5854C211.049 40.9433 210.5 40.6149 209.8 40.654C209.714 40.6602 209.68 40.6172 209.639 40.5564C209.098 39.7939 208.447 39.2079 207.679 38.8089C207.67 38.8052 207.661 38.8015 207.65 38.7951C207.597 38.7682 207.462 38.703 207.281 38.6263C207.15 38.5738 206.991 38.5121 206.823 38.4587C206.823 38.4587 206.823 38.4587 206.82 38.4583C206.754 38.4391 206.686 38.4194 206.617 38.3998C206.558 38.3839 206.501 38.3683 206.439 38.3544C206.287 38.32 206.13 38.2896 205.967 38.2609C205.388 38.1729 204.811 38.2183 204.246 38.3915C203.026 38.7651 201.806 39.1364 200.59 39.5107C199.708 39.7845 199.148 40.3889 198.805 41.2299C198.41 42.1964 197.995 43.1551 197.598 44.1189C197.453 44.4685 197.222 44.684 196.854 44.7913C196.143 45.0001 195.479 45.3132 194.916 45.8078C194.036 46.5813 193.711 47.5724 193.789 48.7135C193.813 49.019 193.855 49.3297 193.94 49.6252C194.127 50.2855 194.682 50.5839 195.354 50.4169L195.35 50.4092ZM204.758 41.6989C204.554 41.0481 204.356 40.3981 204.157 39.7458C204.083 39.4945 204.167 39.3429 204.413 39.2533C204.989 39.0389 205.553 39.0057 206.109 39.1235C206.109 39.1235 206.122 39.1279 206.15 39.1321C206.264 39.1632 206.609 39.2618 206.954 39.4221C206.965 39.4239 206.974 39.4299 206.985 39.4362C207.029 39.4571 207.071 39.4776 207.113 39.5028C207.626 39.7784 208.051 40.1551 208.347 40.6768C208.419 40.7993 208.414 40.8984 208.312 40.995C208.253 41.053 208.175 41.1008 208.097 41.1251C207.638 41.2735 207.176 41.4097 206.715 41.5508L206.718 41.5584C206.487 41.6288 206.251 41.6985 206.019 41.7713C205.787 41.844 205.557 41.9217 205.323 41.9941C205.032 42.0795 204.848 41.9857 204.76 41.6969L204.758 41.6989ZM198.903 43.4749C199.215 42.7339 199.522 41.9922 199.84 41.2546C200.046 40.7785 200.412 40.4759 200.905 40.323C201.545 40.1252 202.185 39.9297 202.825 39.7342C203.114 39.6461 203.244 39.713 203.331 39.9969C203.531 40.6399 203.728 41.2849 203.925 41.93C204.022 42.2512 203.957 42.3723 203.635 42.4722C202.913 42.6958 202.19 42.9172 201.469 43.1362L201.478 43.1709C200.736 43.3988 199.994 43.6243 199.254 43.8503C199.14 43.8833 199.028 43.9024 198.935 43.8031C198.845 43.7042 198.853 43.5888 198.899 43.4719L198.903 43.4749Z" fill="url(#paint26_linear_47_9467)"/>
<path d="M198.089 50.7711C198.926 50.5167 199.396 49.6351 199.139 48.7981C198.885 47.9615 198.003 47.4958 197.166 47.7525C196.327 48.0089 195.859 48.8885 196.114 49.7251C196.368 50.5594 197.25 51.0252 198.089 50.7711Z" fill="#171F3D"/>
<path d="M210.189 45.4152C209.932 44.5782 209.055 44.1132 208.215 44.3719C207.376 44.6306 206.908 45.5079 207.168 46.3429C207.424 47.1798 208.304 47.6452 209.141 47.3862C209.98 47.1298 210.445 46.2521 210.189 45.4152Z" fill="#171F3D"/>
<path d="M209.306 45.6845C209.199 45.3333 208.832 45.1412 208.481 45.2486C208.13 45.356 207.935 45.7243 208.043 46.0732C208.151 46.422 208.517 46.6165 208.868 46.5091C209.219 46.4017 209.413 46.0357 209.306 45.6845Z" fill="white"/>
<path d="M198.257 49.0698C198.15 48.7186 197.784 48.5265 197.432 48.6339C197.081 48.7413 196.887 49.1096 196.994 49.4584C197.102 49.8073 197.468 50.0017 197.819 49.8943C198.17 49.7869 198.365 49.4209 198.257 49.0698Z" fill="white"/>
<path d="M207.677 38.8038C207.677 38.8038 207.659 38.7965 207.648 38.7903C207.668 38.8002 207.677 38.8038 207.677 38.8038Z" fill="url(#paint27_linear_47_9467)"/>
</svg>
