<svg width="19" height="19" viewBox="0 0 19 19" fill="none" xmlns="http://www.w3.org/2000/svg">
<path d="M7.8789 12.669L7.8789 16.269C7.87889 16.9851 8.16794 17.6718 8.68246 18.1782C9.19697 18.6845 9.8948 18.969 10.6224 18.969L14.2805 10.869L14.2805 0.969108L3.96479 0.969107C3.52369 0.9642 3.09566 1.11634 2.75955 1.3975C2.42344 1.67866 2.20191 2.06989 2.13576 2.4991L0.87374 10.599C0.833953 10.857 0.851632 11.1204 0.925557 11.371C0.999482 11.6216 1.12788 11.8534 1.30186 12.0503C1.47584 12.2472 1.69124 12.4045 1.93313 12.5113C2.17503 12.6182 2.43764 12.672 2.70276 12.669L7.8789 12.669ZM14.2805 0.969108L17.024 0.969108C17.5091 0.969108 17.9743 1.15875 18.3173 1.49631C18.6603 1.83388 18.853 2.29171 18.853 2.7691L18.853 9.06906C18.853 9.54644 18.6603 10.0043 18.3173 10.3418C17.9743 10.6794 17.5091 10.869 17.024 10.869L14.2805 10.869" fill="#CF2B2B"/>
</svg>
