<svg width="19" height="19" viewBox="0 0 19 19" fill="none" xmlns="http://www.w3.org/2000/svg">
<path d="M11.8272 7.26895V3.66898C11.8272 2.9529 11.5381 2.26615 11.0236 1.7598C10.5091 1.25346 9.81126 0.968994 9.08363 0.968994L5.42558 9.06894V18.9689H15.7413C16.1824 18.9738 16.6104 18.8216 16.9465 18.5405C17.2826 18.2593 17.5042 17.8681 17.5703 17.4389L18.8323 9.33894C18.8721 9.08096 18.8544 8.81756 18.7805 8.56697C18.7066 8.31639 18.5782 8.08461 18.4042 7.88771C18.2302 7.69081 18.0148 7.53349 17.7729 7.42665C17.531 7.31981 17.2684 7.266 17.0033 7.26895H11.8272ZM5.42558 18.9689H2.68205C2.19696 18.9689 1.73174 18.7792 1.38874 18.4417C1.04573 18.1041 0.853027 17.6463 0.853027 17.1689V10.8689C0.853027 10.3915 1.04573 9.93371 1.38874 9.59615C1.73174 9.25858 2.19696 9.06894 2.68205 9.06894H5.42558" fill="#2CBD55"/>
</svg>
