<svg width="340" height="466" viewBox="0 0 340 466" fill="none" xmlns="http://www.w3.org/2000/svg">
<defs>
<linearGradient id="paint0_linear_879_1506" x1="339" y1="198.316" x2="263.465" y2="72.7056" gradientUnits="userSpaceOnUse">
<stop stop-color="#60CF1C"/>
<stop offset="1" stop-color="#A5DAC7"/>
</linearGradient>
<linearGradient id="paint1_linear_879_1506" x1="117" y1="242.534" x2="216.401" y2="326.972" gradientUnits="userSpaceOnUse">
<stop stop-color="#60CF1C"/>
<stop offset="1" stop-color="#C8CC00"/>
</linearGradient>
<linearGradient id="paint2_linear_879_1506" x1="27.7679" y1="197.212" x2="282.13" y2="443.355" gradientUnits="userSpaceOnUse">
<stop stop-color="#00C6A2"/>
<stop offset="1" stop-color="#C8CC00"/>
</linearGradient>
<linearGradient id="paint3_linear_879_1506" x1="171.668" y1="87.2614" x2="171.668" y2="99.9436" gradientUnits="userSpaceOnUse">
<stop stop-color="#40B9B9"/>
<stop offset="1" stop-color="#025CC7"/>
</linearGradient>
<linearGradient id="paint4_linear_879_1506" x1="173.512" y1="44.4641" x2="173.512" y2="99.7233" gradientUnits="userSpaceOnUse">
<stop stop-color="#40B9B9"/>
<stop offset="1" stop-color="#025CC7"/>
</linearGradient>
</defs>
<path d="M338.88 193.775C338.88 193.775 325.33 174.357 268.22 173.73C211.12 173.102 195.25 179.996 158.54 161.824C121.83 143.652 80.64 122.361 0 146.163V242.909H338.88V193.775Z" fill="url(#paint0_linear_879_1506)"/>
<path d="M85.9367 189.431H58.6094V193H85.9367V189.431Z" fill="#263238"/>
<path d="M85.9808 193.05H58.5645V189.389H85.9808V193.05ZM58.6535 192.958H85.8843V189.474H58.6535V192.958Z" fill="#263238"/>
<path d="M61.1465 191.815L65.0779 210.268H79.6317L83.4371 193L61.1465 191.815Z" fill="#263238"/>
<path d="M61.1465 208.519L63.2457 211.263H80.9298L83.4371 208.519H61.1465Z" fill="#455A64"/>
<path d="M71.2497 192.351C71.1978 192.351 71.1236 183.802 71.0939 173.264C71.0643 162.719 71.0791 154.169 71.1384 154.169C71.1904 154.169 71.2645 162.719 71.2942 173.264C71.3239 183.809 71.3091 192.351 71.2497 192.351Z" fill="#263238"/>
<path d="M77.3409 170.964C77.3409 170.964 77.3187 171.035 77.2667 171.162C77.2 171.31 77.1184 171.493 77.022 171.712C76.97 171.832 76.9107 171.966 76.8439 172.107C76.7846 172.255 76.7252 172.418 76.6585 172.594C76.5917 172.77 76.525 172.954 76.4508 173.151C76.3766 173.349 76.3173 173.56 76.2505 173.786C75.9538 174.675 75.7164 175.761 75.4865 176.967C75.2862 178.18 75.1378 179.528 75.0636 180.946C74.9301 183.781 75.1007 186.356 75.2788 188.211C75.3678 189.142 75.4568 189.89 75.5236 190.405C75.5532 190.644 75.5755 190.842 75.5903 191.004C75.6052 191.138 75.6052 191.216 75.5977 191.216C75.5977 191.216 75.5755 191.145 75.5458 191.011C75.5161 190.856 75.4865 190.659 75.442 190.419C75.3529 189.904 75.2417 189.156 75.1378 188.225C74.9227 186.37 74.7298 183.788 74.8634 180.938C74.9375 179.514 75.0933 178.159 75.301 176.939C75.5384 175.726 75.7906 174.632 76.1096 173.751C76.1837 173.525 76.2505 173.313 76.3247 173.116C76.4063 172.918 76.4805 172.735 76.5472 172.559C76.614 172.389 76.6807 172.227 76.7475 172.079C76.8143 171.931 76.881 171.804 76.9404 171.684C77.0516 171.465 77.1481 171.282 77.2148 171.141C77.2816 171.021 77.3187 170.957 77.3261 170.957L77.3409 170.964Z" fill="#263238"/>
<path d="M76.6348 164.045C76.6348 164.045 76.6125 164.143 76.5458 164.327C76.4716 164.524 76.3826 164.792 76.2639 165.124C76.1971 165.3 76.1304 165.491 76.0562 165.695C75.9894 165.907 75.9153 166.14 75.8337 166.386C75.6705 166.88 75.485 167.445 75.3218 168.072C75.2328 168.39 75.1438 168.714 75.0474 169.06C74.9658 169.405 74.8768 169.765 74.7877 170.139C74.5949 170.88 74.4614 171.691 74.2833 172.537C73.9792 174.237 73.7196 176.114 73.5341 178.089C73.3635 180.071 73.2893 181.961 73.2597 183.682C73.2597 185.403 73.2745 186.955 73.3487 188.26C73.3709 188.909 73.4154 189.502 73.4525 190.017C73.4822 190.532 73.5193 190.976 73.5564 191.343C73.5861 191.695 73.6083 191.971 73.6231 192.182C73.638 192.373 73.638 192.471 73.6306 192.478C73.6306 192.478 73.6083 192.38 73.5786 192.189C73.5564 191.985 73.5193 191.702 73.4748 191.357C73.4303 190.997 73.3858 190.553 73.3413 190.031C73.2968 189.516 73.2448 188.923 73.2077 188.274C73.1187 186.969 73.0816 185.418 73.0742 183.689C73.0891 181.961 73.1632 180.064 73.3338 178.075C73.5193 176.092 73.7863 174.209 74.0979 172.509C74.2759 171.663 74.4243 170.852 74.6245 170.111C74.7136 169.737 74.81 169.377 74.8916 169.032C74.988 168.686 75.0845 168.362 75.1809 168.044C75.3515 167.409 75.5518 166.852 75.7224 166.358C75.804 166.111 75.8856 165.886 75.9598 165.674C76.0414 165.47 76.1155 165.279 76.1823 165.103C76.3158 164.778 76.4197 164.517 76.5013 164.32C76.5754 164.143 76.6199 164.052 76.6274 164.052L76.6348 164.045Z" fill="#263238"/>
<path d="M69.5221 193.868C69.5221 193.868 69.5147 193.833 69.5073 193.769C69.5073 193.692 69.4925 193.593 69.4851 193.473C69.4628 193.198 69.4406 192.824 69.4035 192.344C69.3367 191.35 69.2477 189.925 69.129 188.183C68.8916 184.67 68.5504 179.81 67.9273 174.47C67.6083 171.797 67.2375 169.265 66.8591 166.965C66.6589 165.815 66.4734 164.722 66.2583 163.706C66.0654 162.69 65.8577 161.745 65.6649 160.885C65.4868 160.024 65.2866 159.248 65.1234 158.564C64.9676 157.88 64.8118 157.294 64.6857 156.822C64.567 156.356 64.4706 155.982 64.4038 155.721C64.3742 155.601 64.3519 155.51 64.3371 155.432C64.3222 155.369 64.3148 155.333 64.3222 155.333C64.3222 155.333 64.3371 155.362 64.3593 155.425C64.3816 155.496 64.4113 155.594 64.4483 155.707C64.5225 155.968 64.6338 156.335 64.7673 156.801C64.9083 157.273 65.0714 157.859 65.2421 158.536C65.4127 159.22 65.6204 159.989 65.8132 160.849C66.0135 161.71 66.2286 162.655 66.4289 163.671C66.644 164.687 66.8369 165.78 67.0446 166.93C67.4377 169.229 67.816 171.769 68.1276 174.442C68.7507 179.789 69.0697 184.649 69.2774 188.169C69.3812 189.925 69.448 191.35 69.4925 192.337C69.5147 192.817 69.5221 193.198 69.537 193.473C69.537 193.593 69.537 193.692 69.537 193.769C69.537 193.833 69.537 193.868 69.537 193.868H69.5221Z" fill="#263238"/>
<path d="M71.0272 158.282C70.9085 157.069 69.6178 156.159 68.342 156.144C67.0661 156.13 65.8718 156.864 65.0855 157.823C64.3067 158.783 63.869 159.961 63.5204 161.132C62.6599 163.981 62.1852 166.979 62.5561 169.928C62.927 172.876 64.1806 175.775 66.4059 177.863C66.7694 178.202 67.2367 178.54 67.7337 178.441C68.0082 178.385 68.2307 178.209 68.431 178.032C72.8001 174.28 75.3222 168.658 75.1515 163.057C75.1145 161.936 74.9587 160.772 74.3059 159.834C73.6531 158.895 72.1325 157.908 71.0198 158.282" fill="#455A64"/>
<path d="M71.1375 154.169C65.7225 151.129 60.3075 148.089 54.8924 145.056C54.7293 144.964 54.5438 144.851 54.4993 144.675C54.4325 144.449 54.618 144.224 54.7886 144.054C57.0214 141.861 60.2704 140.591 63.4675 140.81C66.672 141.028 69.7504 142.785 71.3155 145.451C72.8807 148.117 72.9326 151.637 71.1375 154.169Z" fill="#455A64"/>
<path d="M57.2295 142.143C57.2295 142.143 57.3037 142.129 57.4446 142.114C57.5855 142.114 57.7932 142.086 58.0603 142.086C58.5944 142.072 59.3732 142.107 60.3153 142.256C61.2574 142.404 62.3701 142.693 63.5272 143.18C64.6844 143.666 65.8787 144.379 66.9765 145.303C68.0595 146.241 68.92 147.306 69.5431 148.35C70.1736 149.394 70.5816 150.417 70.8338 151.299C71.086 152.18 71.1973 152.907 71.2344 153.415C71.264 153.669 71.2492 153.732 71.2566 153.866C71.2566 154 71.1379 154.205 71.1305 154.205C71.1157 154.205 71.2195 153.923 71.1528 153.422C71.0934 152.921 70.9599 152.201 70.6929 151.334C70.181 149.613 68.9868 147.292 66.8356 145.444C64.6844 143.596 62.1401 142.7 60.2856 142.383C59.351 142.22 58.587 142.164 58.0529 142.157C57.5188 142.143 57.2295 142.157 57.2295 142.136V142.143Z" fill="#263238"/>
<path d="M68.9351 147.878C68.9351 147.878 68.631 148.04 68.1117 148.23C67.5925 148.428 66.8729 148.675 66.0644 148.914C65.2559 149.161 64.5141 149.352 63.9726 149.479C63.4311 149.606 63.0898 149.662 63.0898 149.641C63.0898 149.613 63.4088 149.514 63.9355 149.352C64.5363 149.175 65.2336 148.964 66.0051 148.738C66.7765 148.505 67.4738 148.287 68.0672 148.103C68.5939 147.941 68.9277 147.849 68.9351 147.87V147.878Z" fill="#263238"/>
<path d="M66.3761 141.346C66.428 141.346 66.5467 142.115 66.569 143.067C66.5987 144.026 66.5245 144.802 66.4651 144.795C66.4132 144.795 66.3984 144.019 66.3687 143.067C66.3464 142.115 66.3168 141.346 66.3687 141.339L66.3761 141.346Z" fill="#263238"/>
<path d="M54.7451 144.88C54.7451 144.88 55.1902 144.703 55.9246 144.485C56.6663 144.266 57.69 143.991 58.8398 143.73C59.9895 143.469 61.0354 143.264 61.7921 143.137C62.5561 143.01 63.0308 142.954 63.0308 142.975C63.0308 143.003 62.5709 143.102 61.8217 143.264C61.0725 143.427 60.0266 143.645 58.8843 143.906C57.7419 144.167 56.7108 144.421 55.9616 144.605C55.2124 144.788 54.7525 144.901 54.7451 144.873V144.88Z" fill="#263238"/>
<path d="M64.2852 155.651C62.8907 154.642 61.4071 154.444 59.6565 154.508C57.9059 154.571 56.1998 155.079 54.5901 155.749C51.8529 156.892 49.2789 158.571 47.6396 160.955C46.0003 163.332 45.4365 166.485 46.6604 169.081C46.7791 169.342 46.9423 169.61 47.2168 169.723C47.5061 169.843 47.8325 169.751 48.1366 169.659C51.2521 168.693 54.3898 167.72 57.2531 166.203C60.1164 164.687 62.7275 162.585 64.263 159.834C64.6339 159.171 64.938 158.465 64.9973 157.717C65.0567 156.97 64.8416 156.18 64.2852 155.651Z" fill="#455A64"/>
<path d="M64.3154 155.34C64.3154 155.34 64.2412 155.376 64.0929 155.425C63.9223 155.481 63.7072 155.552 63.4401 155.637C63.2992 155.679 63.136 155.735 62.9654 155.785C62.7948 155.841 62.6093 155.919 62.4165 155.989C62.0233 156.144 61.5634 156.293 61.0813 156.518C60.8365 156.624 60.5843 156.737 60.3172 156.85C60.0502 156.963 59.7905 157.111 59.5087 157.245C58.9449 157.506 58.3737 157.844 57.7655 158.19C56.5712 158.91 55.3102 159.77 54.0788 160.793C52.8623 161.823 51.7941 162.909 50.8966 163.939C50.4663 164.468 50.0361 164.969 49.6949 165.463C49.5168 165.709 49.3314 165.942 49.183 166.175C49.0273 166.408 48.8789 166.633 48.738 166.852C48.4413 167.275 48.2261 167.692 48.0184 168.044C47.9146 168.221 47.8182 168.383 47.7366 168.538C47.655 168.693 47.5882 168.834 47.5214 168.961C47.3953 169.201 47.2915 169.399 47.2173 169.547C47.1431 169.681 47.1061 169.751 47.0986 169.744C47.0986 169.744 47.1209 169.667 47.1802 169.525C47.2544 169.37 47.3434 169.166 47.4547 168.919C47.514 168.785 47.5808 168.644 47.655 168.482C47.7366 168.326 47.8256 168.157 47.922 167.981C48.1223 167.621 48.33 167.205 48.6193 166.767C48.7602 166.549 48.9012 166.316 49.0569 166.076C49.2127 165.836 49.3907 165.604 49.5688 165.35C49.91 164.842 50.3328 164.341 50.7705 163.805C51.668 162.754 52.7362 161.661 53.9675 160.624C55.2063 159.594 56.4822 158.733 57.6913 158.014C58.307 157.675 58.8856 157.337 59.4567 157.083C59.7386 156.949 60.0057 156.808 60.2727 156.695C60.5398 156.582 60.7994 156.476 61.0442 156.37C61.5337 156.152 61.9936 156.01 62.3942 155.869C62.5945 155.799 62.7799 155.735 62.9505 155.679C63.1212 155.63 63.2843 155.587 63.4327 155.545C63.7072 155.467 63.9297 155.411 64.1003 155.362C64.2561 155.319 64.3303 155.305 64.3377 155.312L64.3154 155.34Z" fill="#263238"/>
<path d="M53.3962 160.962C53.411 161.012 51.8904 161.477 49.9988 162.006C48.1073 162.535 46.5569 162.916 46.5421 162.867C46.5273 162.817 48.0479 162.352 49.9395 161.823C51.831 161.294 53.3813 160.913 53.3962 160.962Z" fill="#263238"/>
<path d="M53.2552 168.093C53.2552 168.093 53.1959 167.713 53.181 167.085C53.1662 166.464 53.1588 165.603 53.181 164.651C53.2107 163.699 53.2626 162.838 53.3146 162.218C53.3665 161.597 53.4184 161.216 53.4481 161.216C53.4778 161.216 53.4703 161.604 53.4481 162.225C53.4258 162.909 53.3962 163.734 53.3665 164.651C53.3442 165.568 53.322 166.393 53.2997 167.078C53.2849 167.698 53.2626 168.086 53.2404 168.086L53.2552 168.093Z" fill="#263238"/>
<path d="M59.679 164.976C59.6271 164.976 59.4564 163.233 59.3007 161.068C59.1449 158.909 59.0633 157.153 59.1152 157.146C59.1671 157.139 59.3378 158.888 59.4935 161.054C59.6493 163.212 59.7309 164.969 59.679 164.969V164.976Z" fill="#263238"/>
<path d="M51.6822 156.984C51.6822 156.984 52.0976 156.949 52.7726 156.956C53.4477 156.956 54.3749 156.977 55.3986 157.012C56.4222 157.047 57.3495 157.083 58.0171 157.125C58.6847 157.16 59.1001 157.195 59.1001 157.224C59.1001 157.252 58.6847 157.259 58.0096 157.252C57.3346 157.245 56.4074 157.231 55.3837 157.195C54.3601 157.16 53.4328 157.125 52.7578 157.083C52.0902 157.047 51.6748 157.012 51.6748 156.984H51.6822Z" fill="#263238"/>
<path d="M67.1031 178.265C67.1031 178.265 67.0882 178.195 67.0808 178.061C67.0734 177.905 67.066 177.708 67.0511 177.468C67.0289 176.953 67.0215 176.205 67.0437 175.281C67.0585 174.357 67.1253 173.257 67.244 172.044C67.3701 170.83 67.5555 169.49 67.8152 168.108C68.0822 166.718 68.4086 165.406 68.7424 164.228C69.0836 163.05 69.4322 161.992 69.7586 161.124C70.085 160.25 70.3669 159.552 70.582 159.072C70.6859 158.846 70.7675 158.67 70.8268 158.522C70.8861 158.395 70.9158 158.331 70.9232 158.338C70.9232 158.338 70.9084 158.409 70.8639 158.536C70.8046 158.684 70.7378 158.867 70.6488 159.093C70.4559 159.58 70.1963 160.285 69.8922 161.16C69.5806 162.034 69.2542 163.085 68.9204 164.27C68.6015 165.448 68.2825 166.76 68.0154 168.143C67.7558 169.526 67.563 170.859 67.4294 172.065C67.3033 173.278 67.2217 174.371 67.1847 175.296C67.1476 176.22 67.1327 176.96 67.1327 177.475C67.1327 177.715 67.1327 177.912 67.1253 178.068C67.1253 178.202 67.1179 178.272 67.1105 178.272L67.1031 178.265Z" fill="#263238"/>
<path d="M67.9645 168.15C67.9645 168.15 67.7346 168.425 67.3192 168.827C66.8963 169.222 66.3029 169.758 65.6205 170.33C64.938 170.894 64.3001 171.388 63.8328 171.733C63.3655 172.079 63.0613 172.276 63.0465 172.255C63.0317 172.234 63.2987 172.001 63.7512 171.635C64.2482 171.225 64.8416 170.732 65.4944 170.196C66.1471 169.652 66.7331 169.152 67.2227 168.735C67.6678 168.362 67.9423 168.136 67.9645 168.157V168.15Z" fill="#263238"/>
<path d="M73.1051 172.086C73.1051 172.086 72.8232 171.747 72.4153 171.176C71.9702 170.562 71.4213 169.794 70.813 168.947C70.1899 168.108 69.6262 167.353 69.1737 166.739C68.7508 166.175 68.4986 165.822 68.5209 165.808C68.5431 165.794 68.8399 166.119 69.2849 166.662C69.7374 167.205 70.3383 167.974 70.9762 168.841C71.6141 169.709 72.1556 170.513 72.5339 171.106C72.9123 171.698 73.1274 172.072 73.1051 172.086Z" fill="#263238"/>
<path d="M70.412 159.7C70.4417 159.742 68.7356 160.835 66.5992 162.14C64.4629 163.445 62.7049 164.468 62.6752 164.426C62.6455 164.383 64.3516 163.29 66.488 161.985C68.6243 160.68 70.3823 159.657 70.4046 159.7H70.412Z" fill="#263238"/>
<path d="M75.2255 164.644C75.1884 164.68 74.0312 163.664 72.6441 162.373C71.257 161.082 70.1591 160.01 70.1962 159.968C70.2333 159.932 71.3905 160.948 72.7776 162.239C74.1648 163.53 75.2626 164.602 75.2255 164.644Z" fill="#263238"/>
<path d="M76.4351 164.546L77.9039 164.433C78.9424 164.348 79.9586 164.059 80.8636 163.572C81.3161 163.332 81.7686 163.093 82.2433 162.916C84.0533 162.225 86.0783 162.345 88.0292 162.253C91.2115 162.098 94.3641 161.336 97.2348 160.017C97.398 159.94 97.5463 159.827 97.6353 159.671C97.9395 159.149 97.3757 158.684 96.8935 158.402C94.4234 156.956 91.9088 155.489 89.1048 154.769C86.3009 154.05 83.126 154.17 80.7301 155.735C77.9261 157.569 76.9025 161.343 76.4277 164.553" fill="#455A64"/>
<path d="M97.6734 159.488C97.6734 159.488 97.5844 159.453 97.4212 159.375C97.2432 159.29 97.0132 159.171 96.7239 159.029C96.1231 158.726 95.2552 158.282 94.1574 157.781C93.0595 157.287 91.7317 156.73 90.1814 156.328C88.6385 155.919 86.8656 155.707 85.0334 155.933C83.2086 156.159 81.5248 156.836 80.3379 157.851C79.1437 158.86 78.4093 160.08 77.89 161.117C77.3782 162.161 77.0593 163.05 76.8293 163.657C76.718 163.946 76.6364 164.179 76.5697 164.362C76.5103 164.524 76.4732 164.609 76.4658 164.602C76.4658 164.602 76.4807 164.51 76.5326 164.348C76.5919 164.165 76.6661 163.932 76.7625 163.636C76.9702 163.022 77.2669 162.119 77.7714 161.061C78.2758 160.01 79.0027 158.761 80.2192 157.725C81.4284 156.681 83.1493 155.982 85.0112 155.749C86.873 155.524 88.683 155.749 90.2333 156.166C91.7911 156.582 93.1263 157.16 94.2167 157.668C95.3071 158.183 96.1676 158.649 96.761 158.966C97.0429 159.121 97.2654 159.248 97.436 159.34C97.5918 159.424 97.666 159.474 97.666 159.481L97.6734 159.488Z" fill="#263238"/>
<path d="M94.1491 161.287C94.1194 161.329 92.1982 160.151 89.869 158.649C87.5324 157.153 85.6631 155.905 85.6927 155.862C85.7224 155.82 87.6436 156.998 89.9728 158.501C92.3094 159.996 94.1787 161.245 94.1491 161.287Z" fill="#263238"/>
<path d="M92.1088 155.771C92.1162 155.813 91.5006 155.947 90.7143 156.011C89.928 156.074 89.29 156.032 89.29 155.997C89.29 155.954 89.9206 155.919 90.6994 155.862C91.4709 155.806 92.1014 155.736 92.1088 155.778V155.771Z" fill="#263238"/>
<path d="M83.713 154.734C83.7575 154.755 83.4757 155.171 83.0825 155.665C82.6894 156.159 82.3333 156.547 82.2888 156.526C82.2443 156.504 82.5262 156.088 82.9193 155.587C83.3125 155.094 83.6685 154.706 83.713 154.727V154.734Z" fill="#263238"/>
<path d="M85.4257 162.366C85.4257 162.366 85.0548 162.211 84.5059 161.893C83.9495 161.576 83.2003 161.103 82.4066 160.553C81.6055 160.003 80.9008 159.481 80.3964 159.093C79.892 158.712 79.5804 158.465 79.6027 158.444C79.6175 158.423 79.9513 158.635 80.4854 158.987C81.064 159.382 81.7613 159.869 82.5327 160.398C83.3264 160.948 84.0608 161.435 84.5949 161.781C85.129 162.126 85.4554 162.345 85.4405 162.366H85.4257Z" fill="#263238"/>
<path d="M78.6006 170.471C77.1987 170.118 75.5371 171.416 75.2478 172.763C74.9585 174.11 75.4926 175.493 76.1157 176.734C77.4954 179.485 79.3943 182.032 81.9016 183.929C84.4088 185.827 87.5465 187.04 90.7436 187.026C90.1502 184.416 90.8994 181.686 90.573 179.034C90.2837 176.72 89.1488 174.505 87.4056 172.862C85.6624 171.218 83.3258 170.167 80.8853 169.913C79.9952 169.822 78.9567 169.688 78.6006 170.471Z" fill="#455A64"/>
<path d="M90.7367 187.019C90.7367 187.019 90.6625 186.998 90.5364 186.934C90.4103 186.871 90.2248 186.765 90.0097 186.603C89.572 186.285 89.0676 185.672 88.63 184.846C88.4074 184.437 88.1552 183.986 87.9179 183.492C87.6805 182.998 87.4283 182.469 87.1687 181.912C86.9016 181.355 86.6049 180.783 86.2414 180.219C85.878 179.655 85.4477 179.104 84.9656 178.575C84.0087 177.503 82.9776 176.579 82.0875 175.697C81.1899 174.816 80.4407 173.969 79.8918 173.193C79.3429 172.425 79.009 171.733 78.8236 171.247C78.7346 171 78.6678 170.809 78.6382 170.675C78.6011 170.541 78.5862 170.471 78.5937 170.471C78.6085 170.471 78.6901 170.746 78.8978 171.218C79.1055 171.691 79.4541 172.361 80.0105 173.116C80.5668 173.871 81.316 174.703 82.221 175.571C83.1185 176.445 84.1496 177.369 85.1139 178.448C85.5961 178.992 86.0337 179.549 86.3972 180.12C86.7681 180.692 87.0574 181.277 87.3244 181.834C87.5841 182.392 87.8289 182.921 88.0588 183.421C88.2962 183.915 88.5336 184.367 88.7487 184.783C89.1715 185.615 89.6388 186.215 90.0542 186.546C90.4622 186.885 90.7366 187.005 90.7292 187.026L90.7367 187.019Z" fill="#263238"/>
<path d="M83.5029 184.846C83.5029 184.846 83.5252 184.501 83.629 183.95C83.7403 183.4 83.9183 182.652 84.1631 181.834C84.4079 181.016 84.6675 180.282 84.8752 179.76C85.0829 179.238 85.2313 178.921 85.2535 178.935C85.2832 178.942 85.1719 179.274 85.0013 179.803C84.8307 180.332 84.5934 181.065 84.3486 181.884C84.1038 182.702 83.9109 183.442 83.7626 183.979C83.6216 184.515 83.5252 184.853 83.5029 184.846Z" fill="#263238"/>
<path d="M90.4691 178.441C90.4691 178.441 90.0834 178.378 89.4825 178.223C88.8817 178.075 88.0509 177.87 87.1237 177.673C86.1964 177.475 85.3508 177.32 84.7425 177.207C84.1269 177.094 83.7485 177.024 83.756 177.002C83.756 176.981 84.1491 177.002 84.7648 177.08C85.3879 177.158 86.2335 177.292 87.1682 177.489C88.0954 177.687 88.9336 177.912 89.527 178.096C90.1205 178.279 90.4839 178.413 90.4765 178.434L90.4691 178.441Z" fill="#263238"/>
<path d="M78.3111 180.303C78.3111 180.303 78.3408 179.901 78.4595 179.267C78.5856 178.632 78.7785 177.757 79.0381 176.805C79.2977 175.853 79.5796 174.999 79.7947 174.385C80.0172 173.772 80.173 173.405 80.1953 173.412C80.2249 173.419 80.1137 173.807 79.9282 174.428C79.7428 175.048 79.4906 175.902 79.2235 176.854C78.9639 177.806 78.7488 178.667 78.593 179.295C78.4372 179.923 78.3334 180.311 78.3037 180.303H78.3111Z" fill="#263238"/>
<path d="M87.2647 172.855C87.2647 172.904 85.5141 172.77 83.363 172.551C81.2118 172.333 79.476 172.121 79.4834 172.065C79.4834 172.015 81.234 172.149 83.3852 172.368C85.5364 172.587 87.2722 172.798 87.2647 172.855Z" fill="#263238"/>
<path d="M85.9808 192.986C85.9808 193.036 79.8462 193.078 72.2726 193.078C64.699 193.078 58.5645 193.036 58.5645 192.986C58.5645 192.937 64.699 192.895 72.2726 192.895C79.8462 192.895 85.9808 192.937 85.9808 192.986Z" fill="#455A64"/>
<path d="M81.7165 200.499C81.7165 200.548 77.5848 200.59 72.4813 200.59C67.3778 200.59 63.2461 200.548 63.2461 200.499C63.2461 200.449 67.3778 200.407 72.4813 200.407C77.5848 200.407 81.7165 200.449 81.7165 200.499Z" fill="#455A64"/>
<path d="M81.5532 201.571C81.5532 201.62 77.4882 201.662 72.4812 201.662C67.4742 201.662 63.4092 201.62 63.4092 201.571C63.4092 201.521 67.4742 201.479 72.4812 201.479C77.4882 201.479 81.5532 201.521 81.5532 201.571Z" fill="#455A64"/>
<path d="M81.872 199.61C81.872 199.659 77.5919 199.701 72.3178 199.701C67.0438 199.701 62.7637 199.659 62.7637 199.61C62.7637 199.56 67.0438 199.518 72.3178 199.518C77.5919 199.518 81.872 199.56 81.872 199.61Z" fill="#455A64"/>
<path d="M259.405 132.991H281.215V135.838H259.405V132.991Z" fill="#263238"/>
<path d="M259.37 135.877H281.251V132.957H259.37V135.877ZM281.18 135.804H259.447V133.025H281.18V135.804Z" fill="#263238"/>
<path d="M279.19 134.892L276.053 149.611H264.437L261.4 135.838L279.19 134.892Z" fill="#263238"/>
<path d="M279.19 148.215L277.515 150.404H263.401L261.4 148.215H279.19Z" fill="#455A64"/>
<path d="M271.127 135.32C271.168 135.32 271.227 128.501 271.251 120.096C271.275 111.684 271.263 104.866 271.215 104.866C271.174 104.866 271.115 111.684 271.091 120.096C271.067 128.507 271.079 135.32 271.127 135.32Z" fill="#263238"/>
<path d="M266.267 118.261C266.267 118.261 266.285 118.318 266.326 118.419C266.379 118.537 266.444 118.683 266.521 118.858C266.563 118.953 266.61 119.06 266.663 119.173C266.711 119.291 266.758 119.42 266.811 119.561C266.865 119.702 266.918 119.848 266.977 120.005C267.036 120.163 267.084 120.332 267.137 120.512C267.374 121.221 267.563 122.087 267.747 123.049C267.907 124.017 268.025 125.092 268.084 126.222C268.191 128.484 268.055 130.538 267.913 132.017C267.842 132.76 267.771 133.356 267.717 133.767C267.694 133.958 267.676 134.116 267.664 134.245C267.652 134.352 267.652 134.414 267.658 134.414C267.658 134.414 267.676 134.358 267.699 134.251C267.723 134.127 267.747 133.97 267.782 133.778C267.853 133.368 267.942 132.771 268.025 132.029C268.197 130.549 268.351 128.49 268.244 126.217C268.185 125.08 268.061 124 267.895 123.027C267.705 122.059 267.504 121.187 267.25 120.484C267.19 120.304 267.137 120.135 267.078 119.977C267.013 119.82 266.954 119.674 266.9 119.533C266.847 119.398 266.794 119.268 266.74 119.15C266.687 119.032 266.634 118.931 266.586 118.835C266.498 118.661 266.421 118.515 266.367 118.402C266.314 118.306 266.285 118.256 266.279 118.256L266.267 118.261Z" fill="#263238"/>
<path d="M266.829 112.742C266.829 112.742 266.847 112.821 266.9 112.967C266.959 113.125 267.03 113.339 267.125 113.603C267.178 113.744 267.232 113.896 267.291 114.059C267.344 114.228 267.403 114.413 267.469 114.61C267.599 115.004 267.747 115.454 267.877 115.955C267.948 116.208 268.019 116.467 268.096 116.742C268.161 117.018 268.232 117.305 268.303 117.603C268.457 118.194 268.564 118.841 268.706 119.516C268.949 120.872 269.156 122.369 269.304 123.944C269.44 125.525 269.499 127.033 269.523 128.405C269.523 129.778 269.511 131.016 269.452 132.057C269.434 132.574 269.399 133.047 269.369 133.458C269.345 133.868 269.316 134.223 269.286 134.515C269.262 134.797 269.245 135.016 269.233 135.185C269.221 135.337 269.221 135.416 269.227 135.421C269.227 135.421 269.245 135.343 269.268 135.191C269.286 135.027 269.316 134.802 269.351 134.527C269.387 134.24 269.422 133.885 269.458 133.469C269.493 133.058 269.535 132.586 269.564 132.068C269.635 131.027 269.665 129.789 269.671 128.411C269.659 127.033 269.6 125.519 269.464 123.933C269.316 122.352 269.103 120.849 268.854 119.494C268.712 118.818 268.593 118.171 268.434 117.581C268.363 117.283 268.286 116.996 268.22 116.72C268.143 116.444 268.067 116.185 267.99 115.932C267.853 115.426 267.694 114.981 267.557 114.588C267.492 114.391 267.427 114.211 267.368 114.042C267.303 113.879 267.244 113.727 267.19 113.586C267.084 113.327 267.001 113.119 266.936 112.962C266.877 112.821 266.841 112.748 266.835 112.748L266.829 112.742Z" fill="#263238"/>
<path d="M272.505 136.53C272.505 136.53 272.511 136.501 272.517 136.451C272.517 136.389 272.529 136.31 272.534 136.214C272.552 135.995 272.57 135.697 272.6 135.314C272.653 134.521 272.724 133.385 272.819 131.995C273.008 129.193 273.28 125.317 273.778 121.058C274.032 118.925 274.328 116.905 274.63 115.071C274.79 114.154 274.938 113.282 275.11 112.472C275.264 111.662 275.429 110.908 275.583 110.222C275.725 109.535 275.885 108.916 276.016 108.371C276.14 107.825 276.264 107.358 276.365 106.981C276.46 106.61 276.536 106.311 276.59 106.103C276.613 106.008 276.631 105.934 276.643 105.873C276.655 105.822 276.661 105.794 276.655 105.794C276.655 105.794 276.643 105.816 276.625 105.867C276.608 105.923 276.584 106.002 276.554 106.092C276.495 106.3 276.406 106.593 276.3 106.964C276.187 107.341 276.057 107.808 275.921 108.348C275.785 108.894 275.619 109.507 275.465 110.193C275.305 110.88 275.133 111.634 274.974 112.444C274.802 113.254 274.648 114.126 274.482 115.043C274.168 116.877 273.866 118.903 273.618 121.035C273.121 125.3 272.866 129.176 272.7 131.984C272.617 133.385 272.564 134.521 272.529 135.309C272.511 135.691 272.505 135.995 272.493 136.214C272.493 136.31 272.493 136.389 272.493 136.451C272.493 136.501 272.493 136.53 272.493 136.53H272.505Z" fill="#263238"/>
<path d="M271.304 108.145C271.399 107.178 272.429 106.452 273.448 106.441C274.466 106.43 275.419 107.015 276.047 107.78C276.668 108.545 277.017 109.485 277.296 110.418C277.982 112.691 278.361 115.083 278.065 117.434C277.769 119.786 276.769 122.098 274.993 123.764C274.703 124.034 274.33 124.304 273.933 124.225C273.714 124.18 273.536 124.039 273.377 123.899C269.89 120.906 267.877 116.422 268.013 111.954C268.042 111.06 268.167 110.132 268.688 109.383C269.209 108.635 270.422 107.847 271.31 108.145" fill="#455A64"/>
<path d="M271.217 104.866C275.538 102.441 279.86 100.016 284.182 97.5965C284.312 97.5234 284.46 97.4334 284.496 97.2927C284.549 97.1127 284.401 96.9326 284.265 96.7976C282.483 95.0479 279.89 94.0352 277.338 94.2096C274.781 94.384 272.324 95.7849 271.075 97.9116C269.825 100.038 269.784 102.846 271.217 104.866Z" fill="#455A64"/>
<path d="M282.316 95.273C282.316 95.273 282.257 95.2617 282.145 95.2505C282.032 95.2505 281.866 95.228 281.653 95.228C281.227 95.2167 280.605 95.2448 279.854 95.363C279.102 95.4811 278.214 95.7118 277.29 96.1C276.367 96.4882 275.413 97.0565 274.537 97.7935C273.673 98.5418 272.986 99.3913 272.489 100.224C271.986 101.057 271.66 101.872 271.459 102.576C271.257 103.279 271.169 103.858 271.139 104.264C271.115 104.466 271.127 104.517 271.121 104.624C271.121 104.731 271.216 104.894 271.222 104.894C271.234 104.894 271.151 104.669 271.204 104.269C271.251 103.87 271.358 103.296 271.571 102.604C271.98 101.231 272.933 99.3801 274.65 97.906C276.367 96.4319 278.397 95.7174 279.877 95.4642C280.623 95.3348 281.233 95.2898 281.659 95.2842C282.086 95.273 282.316 95.2842 282.316 95.2673V95.273Z" fill="#263238"/>
<path d="M272.975 99.8471C272.975 99.8471 273.218 99.9765 273.633 100.128C274.047 100.286 274.621 100.483 275.267 100.674C275.912 100.871 276.504 101.023 276.936 101.124C277.368 101.225 277.641 101.271 277.641 101.254C277.641 101.231 277.386 101.152 276.966 101.023C276.486 100.882 275.93 100.714 275.314 100.533C274.698 100.348 274.142 100.173 273.668 100.027C273.248 99.8977 272.981 99.8246 272.975 99.8415V99.8471Z" fill="#263238"/>
<path d="M275.018 94.6371C274.976 94.6371 274.882 95.2503 274.864 96.0099C274.84 96.775 274.9 97.3939 274.947 97.3883C274.988 97.3883 275 96.7694 275.024 96.0099C275.042 95.2503 275.065 94.6371 275.024 94.6315L275.018 94.6371Z" fill="#263238"/>
<path d="M284.3 97.4559C284.3 97.4559 283.945 97.3153 283.358 97.1409C282.766 96.9665 281.949 96.747 281.032 96.5389C280.114 96.3307 279.279 96.1675 278.676 96.0663C278.066 95.965 277.687 95.92 277.687 95.9369C277.687 95.9594 278.054 96.0381 278.652 96.1675C279.25 96.2969 280.085 96.4714 280.996 96.6795C281.908 96.8877 282.731 97.0902 283.329 97.2365C283.927 97.3828 284.294 97.4728 284.3 97.4503V97.4559Z" fill="#263238"/>
<path d="M276.686 106.047C277.799 105.242 278.983 105.085 280.38 105.136C281.777 105.186 283.139 105.591 284.423 106.126C286.608 107.037 288.662 108.376 289.971 110.278C291.279 112.174 291.729 114.689 290.752 116.759C290.657 116.967 290.527 117.181 290.308 117.271C290.077 117.367 289.817 117.294 289.574 117.221C287.088 116.45 284.583 115.673 282.298 114.464C280.013 113.254 277.929 111.578 276.703 109.383C276.407 108.854 276.165 108.292 276.117 107.695C276.07 107.099 276.242 106.469 276.686 106.047Z" fill="#455A64"/>
<path d="M276.662 105.8C276.662 105.8 276.722 105.828 276.84 105.867C276.976 105.912 277.148 105.968 277.361 106.036C277.474 106.07 277.604 106.115 277.74 106.154C277.876 106.199 278.024 106.261 278.178 106.317C278.492 106.441 278.859 106.559 279.244 106.739C279.439 106.824 279.64 106.914 279.853 107.004C280.067 107.094 280.274 107.212 280.499 107.319C280.949 107.527 281.405 107.797 281.89 108.073C282.843 108.646 283.85 109.333 284.832 110.149C285.803 110.97 286.656 111.836 287.372 112.658C287.716 113.08 288.059 113.479 288.331 113.873C288.473 114.07 288.621 114.256 288.74 114.441C288.864 114.627 288.982 114.807 289.095 114.981C289.332 115.319 289.503 115.651 289.669 115.932C289.752 116.073 289.829 116.202 289.894 116.326C289.959 116.45 290.013 116.562 290.066 116.664C290.167 116.855 290.249 117.012 290.309 117.131C290.368 117.238 290.397 117.294 290.403 117.288C290.403 117.288 290.386 117.226 290.338 117.114C290.279 116.99 290.208 116.827 290.119 116.63C290.072 116.523 290.019 116.411 289.959 116.281C289.894 116.157 289.823 116.022 289.746 115.882C289.586 115.595 289.421 115.263 289.19 114.914C289.077 114.74 288.965 114.554 288.84 114.363C288.716 114.171 288.574 113.986 288.432 113.783C288.16 113.378 287.822 112.979 287.473 112.551C286.756 111.713 285.904 110.841 284.921 110.014C283.933 109.192 282.914 108.506 281.949 107.932C281.458 107.662 280.996 107.392 280.54 107.189C280.315 107.082 280.102 106.97 279.889 106.88C279.676 106.79 279.469 106.705 279.273 106.621C278.883 106.447 278.515 106.334 278.196 106.222C278.036 106.165 277.888 106.115 277.752 106.07C277.616 106.03 277.485 105.996 277.367 105.963C277.148 105.901 276.97 105.856 276.834 105.816C276.71 105.783 276.651 105.771 276.645 105.777L276.662 105.8Z" fill="#263238"/>
<path d="M285.377 110.284C285.365 110.323 286.579 110.694 288.089 111.116C289.598 111.538 290.836 111.842 290.848 111.803C290.859 111.763 289.646 111.392 288.136 110.97C286.626 110.548 285.389 110.244 285.377 110.284Z" fill="#263238"/>
<path d="M285.488 115.972C285.488 115.972 285.536 115.668 285.547 115.167C285.559 114.672 285.565 113.986 285.547 113.226C285.524 112.467 285.482 111.78 285.441 111.285C285.399 110.79 285.358 110.486 285.334 110.486C285.311 110.486 285.316 110.796 285.334 111.291C285.352 111.836 285.376 112.495 285.399 113.226C285.417 113.957 285.435 114.616 285.453 115.161C285.464 115.657 285.482 115.966 285.5 115.966L285.488 115.972Z" fill="#263238"/>
<path d="M280.362 113.485C280.403 113.485 280.539 112.095 280.664 110.368C280.788 108.646 280.853 107.245 280.812 107.24C280.77 107.234 280.634 108.629 280.51 110.357C280.386 112.078 280.32 113.479 280.362 113.479V113.485Z" fill="#263238"/>
<path d="M286.743 107.11C286.743 107.11 286.412 107.082 285.873 107.088C285.334 107.088 284.594 107.105 283.777 107.133C282.96 107.161 282.22 107.189 281.687 107.223C281.154 107.251 280.823 107.279 280.823 107.302C280.823 107.324 281.154 107.33 281.693 107.324C282.232 107.318 282.972 107.307 283.789 107.279C284.606 107.251 285.346 107.223 285.885 107.189C286.417 107.161 286.749 107.133 286.749 107.11H286.743Z" fill="#263238"/>
<path d="M274.438 124.085C274.438 124.085 274.45 124.028 274.456 123.922C274.462 123.798 274.468 123.64 274.479 123.449C274.497 123.038 274.503 122.442 274.485 121.705C274.474 120.968 274.42 120.09 274.326 119.122C274.225 118.155 274.077 117.086 273.87 115.983C273.657 114.875 273.396 113.828 273.13 112.889C272.857 111.949 272.579 111.105 272.319 110.413C272.058 109.715 271.833 109.158 271.661 108.776C271.579 108.596 271.513 108.455 271.466 108.337C271.419 108.236 271.395 108.185 271.389 108.191C271.389 108.191 271.401 108.247 271.436 108.348C271.484 108.466 271.537 108.613 271.608 108.793C271.762 109.181 271.969 109.744 272.212 110.441C272.461 111.139 272.721 111.977 272.988 112.922C273.242 113.862 273.497 114.908 273.71 116.011C273.917 117.114 274.071 118.177 274.178 119.139C274.278 120.107 274.343 120.979 274.373 121.716C274.402 122.453 274.414 123.044 274.414 123.455C274.414 123.646 274.414 123.803 274.42 123.927C274.42 124.034 274.426 124.09 274.432 124.09L274.438 124.085Z" fill="#263238"/>
<path d="M273.748 116.017C273.748 116.017 273.932 116.236 274.263 116.557C274.601 116.872 275.074 117.299 275.619 117.755C276.164 118.205 276.673 118.599 277.046 118.875C277.419 119.15 277.662 119.308 277.673 119.291C277.685 119.274 277.472 119.088 277.111 118.796C276.714 118.47 276.241 118.076 275.72 117.648C275.199 117.215 274.731 116.816 274.34 116.484C273.985 116.185 273.766 116.005 273.748 116.022V116.017Z" fill="#263238"/>
<path d="M269.647 119.156C269.647 119.156 269.872 118.886 270.197 118.43C270.553 117.941 270.991 117.328 271.476 116.652C271.974 115.983 272.423 115.381 272.785 114.891C273.122 114.441 273.323 114.16 273.306 114.149C273.288 114.138 273.051 114.396 272.696 114.83C272.335 115.263 271.855 115.876 271.346 116.568C270.837 117.26 270.405 117.901 270.103 118.374C269.801 118.847 269.629 119.145 269.647 119.156Z" fill="#263238"/>
<path d="M271.796 109.276C271.772 109.31 273.134 110.182 274.839 111.223C276.544 112.264 277.947 113.08 277.97 113.046C277.994 113.012 276.632 112.14 274.927 111.099C273.222 110.058 271.819 109.243 271.802 109.276H271.796Z" fill="#263238"/>
<path d="M267.954 113.22C267.984 113.248 268.907 112.438 270.014 111.409C271.121 110.379 271.998 109.524 271.968 109.49C271.938 109.462 271.015 110.272 269.908 111.302C268.801 112.331 267.925 113.187 267.954 113.22Z" fill="#263238"/>
<path d="M266.989 113.142L265.817 113.052C264.988 112.984 264.177 112.754 263.455 112.365C263.094 112.174 262.733 111.983 262.354 111.842C260.909 111.291 259.293 111.386 257.736 111.313C255.196 111.19 252.68 110.582 250.389 109.53C250.259 109.468 250.14 109.378 250.069 109.254C249.826 108.838 250.276 108.466 250.661 108.241C252.633 107.088 254.64 105.918 256.877 105.344C259.115 104.77 261.649 104.866 263.561 106.115C265.799 107.578 266.616 110.588 266.995 113.147" fill="#455A64"/>
<path d="M250.04 109.108C250.04 109.108 250.111 109.08 250.241 109.018C250.383 108.95 250.567 108.855 250.798 108.742C251.277 108.5 251.97 108.146 252.846 107.746C253.722 107.352 254.782 106.908 256.019 106.587C257.251 106.261 258.666 106.092 260.128 106.272C261.584 106.452 262.928 106.992 263.875 107.802C264.829 108.607 265.415 109.58 265.829 110.407C266.238 111.24 266.492 111.949 266.676 112.433C266.765 112.663 266.83 112.849 266.883 112.995C266.93 113.125 266.96 113.192 266.966 113.187C266.966 113.187 266.954 113.114 266.913 112.984C266.865 112.838 266.806 112.652 266.729 112.416C266.563 111.926 266.326 111.206 265.924 110.362C265.521 109.524 264.941 108.528 263.97 107.701C263.005 106.869 261.632 106.312 260.146 106.126C258.66 105.946 257.215 106.126 255.978 106.458C254.735 106.79 253.669 107.251 252.799 107.656C251.928 108.067 251.242 108.438 250.768 108.691C250.543 108.815 250.365 108.916 250.229 108.99C250.105 109.057 250.046 109.096 250.046 109.102L250.04 109.108Z" fill="#263238"/>
<path d="M252.851 110.542C252.875 110.576 254.408 109.637 256.267 108.438C258.132 107.246 259.624 106.25 259.6 106.216C259.577 106.182 258.043 107.122 256.184 108.32C254.319 109.513 252.828 110.509 252.851 110.542Z" fill="#263238"/>
<path d="M254.479 106.143C254.473 106.177 254.964 106.284 255.592 106.334C256.219 106.385 256.729 106.351 256.729 106.323C256.729 106.289 256.225 106.261 255.604 106.216C254.988 106.171 254.485 106.115 254.479 106.149V106.143Z" fill="#263238"/>
<path d="M261.182 105.316C261.146 105.333 261.371 105.665 261.685 106.059C261.999 106.452 262.283 106.762 262.319 106.745C262.354 106.728 262.129 106.396 261.815 105.997C261.502 105.603 261.217 105.293 261.182 105.31V105.316Z" fill="#263238"/>
<path d="M259.814 111.403C259.814 111.403 260.11 111.28 260.548 111.026C260.992 110.773 261.59 110.396 262.223 109.957C262.863 109.519 263.425 109.102 263.828 108.793C264.23 108.489 264.479 108.292 264.461 108.275C264.449 108.258 264.183 108.427 263.757 108.708C263.295 109.023 262.738 109.412 262.123 109.834C261.489 110.272 260.903 110.661 260.477 110.936C260.05 111.212 259.79 111.386 259.802 111.403H259.814Z" fill="#263238"/>
<path d="M265.26 117.868C266.379 117.586 267.705 118.622 267.936 119.696C268.166 120.771 267.74 121.873 267.243 122.864C266.142 125.058 264.626 127.089 262.625 128.602C260.624 130.116 258.12 131.083 255.568 131.072C256.042 128.991 255.444 126.813 255.704 124.698C255.935 122.852 256.841 121.086 258.232 119.775C259.624 118.464 261.488 117.626 263.436 117.423C264.147 117.35 264.975 117.243 265.26 117.868Z" fill="#455A64"/>
<path d="M255.573 131.067C255.573 131.067 255.632 131.05 255.733 130.999C255.833 130.948 255.981 130.864 256.153 130.735C256.502 130.481 256.905 129.992 257.254 129.334C257.432 129.007 257.633 128.647 257.822 128.253C258.012 127.86 258.213 127.438 258.42 126.993C258.633 126.549 258.87 126.093 259.16 125.643C259.45 125.193 259.794 124.754 260.179 124.332C260.942 123.477 261.765 122.74 262.476 122.037C263.192 121.333 263.79 120.658 264.228 120.039C264.666 119.426 264.933 118.875 265.081 118.486C265.152 118.29 265.205 118.138 265.229 118.031C265.258 117.924 265.27 117.868 265.264 117.868C265.252 117.868 265.187 118.087 265.021 118.464C264.856 118.841 264.577 119.375 264.133 119.977C263.689 120.579 263.091 121.243 262.369 121.935C261.653 122.633 260.83 123.37 260.06 124.231C259.675 124.664 259.326 125.108 259.036 125.564C258.74 126.02 258.509 126.487 258.296 126.931C258.089 127.376 257.893 127.798 257.71 128.197C257.52 128.591 257.331 128.951 257.159 129.283C256.822 129.947 256.449 130.425 256.117 130.69C255.792 130.96 255.573 131.055 255.579 131.072L255.573 131.067Z" fill="#263238"/>
<path d="M261.347 129.334C261.347 129.334 261.329 129.058 261.246 128.619C261.157 128.18 261.015 127.584 260.82 126.931C260.624 126.279 260.417 125.694 260.251 125.277C260.086 124.861 259.967 124.608 259.95 124.619C259.926 124.625 260.015 124.889 260.151 125.311C260.287 125.733 260.476 126.318 260.672 126.971C260.867 127.623 261.021 128.214 261.139 128.642C261.252 129.069 261.329 129.339 261.347 129.334Z" fill="#263238"/>
<path d="M255.789 124.225C255.789 124.225 256.096 124.175 256.576 124.051C257.056 123.933 257.719 123.769 258.459 123.612C259.199 123.454 259.874 123.331 260.359 123.241C260.85 123.151 261.152 123.094 261.146 123.077C261.146 123.061 260.833 123.077 260.341 123.139C259.844 123.201 259.169 123.308 258.423 123.466C257.683 123.623 257.014 123.803 256.54 123.949C256.067 124.096 255.777 124.203 255.783 124.22L255.789 124.225Z" fill="#263238"/>
<path d="M265.491 125.71C265.491 125.71 265.467 125.39 265.373 124.883C265.272 124.377 265.118 123.679 264.911 122.92C264.704 122.16 264.479 121.479 264.307 120.99C264.129 120.5 264.005 120.208 263.987 120.214C263.964 120.219 264.053 120.529 264.201 121.024C264.349 121.519 264.55 122.2 264.763 122.959C264.97 123.719 265.142 124.405 265.266 124.906C265.391 125.406 265.473 125.716 265.497 125.71H265.491Z" fill="#263238"/>
<path d="M258.344 119.769C258.344 119.808 259.742 119.702 261.458 119.527C263.175 119.353 264.561 119.184 264.555 119.139C264.555 119.1 263.157 119.206 261.441 119.381C259.724 119.555 258.338 119.724 258.344 119.769Z" fill="#263238"/>
<path d="M259.371 135.826C259.371 135.866 264.267 135.899 270.311 135.899C276.356 135.899 281.252 135.866 281.252 135.826C281.252 135.787 276.356 135.753 270.311 135.753C264.267 135.753 259.371 135.787 259.371 135.826Z" fill="#455A64"/>
<path d="M262.773 141.818C262.773 141.857 266.071 141.891 270.144 141.891C274.217 141.891 277.515 141.857 277.515 141.818C277.515 141.779 274.217 141.745 270.144 141.745C266.071 141.745 262.773 141.779 262.773 141.818Z" fill="#455A64"/>
<path d="M262.903 142.673C262.903 142.713 266.147 142.747 270.143 142.747C274.139 142.747 277.384 142.713 277.384 142.673C277.384 142.634 274.139 142.6 270.143 142.6C266.147 142.6 262.903 142.634 262.903 142.673Z" fill="#455A64"/>
<path d="M262.65 141.109C262.65 141.149 266.066 141.182 270.275 141.182C274.484 141.182 277.9 141.149 277.9 141.109C277.9 141.07 274.484 141.036 270.275 141.036C266.066 141.036 262.65 141.07 262.65 141.109Z" fill="#455A64"/>
<path d="M0.00976562 238.44C0.00976562 238.44 13.5698 207.782 70.6898 206.793C127.82 205.804 143.68 216.683 180.41 188.003C217.14 159.323 258.34 125.699 339.01 163.279V242.909H0.00976562V238.44Z" fill="url(#paint1_linear_879_1506)"/>
<path d="M0 224.27C0 224.27 13.56 206.175 70.68 205.588C127.81 205.008 143.67 221.152 180.4 204.224C217.13 187.296 258.33 167.447 339 189.629V466H0V224.27Z" fill="url(#paint2_linear_879_1506)"/>
<path d="M159.741 30.386C157.227 31.9155 154.235 32.7264 151.25 32.6909C150.3 32.6766 149.342 32.5842 148.4 32.6624C147.45 32.7407 146.485 33.011 145.789 33.6299C145.093 34.2488 144.742 35.266 145.116 36.0983C145.654 37.265 147.39 37.7274 147.652 38.9794C147.839 39.8757 147.136 40.7365 146.343 41.2558C145.55 41.7751 144.615 42.1236 143.949 42.7852C143.148 43.5748 142.834 44.7913 143.163 45.8441C143.492 46.8969 144.45 47.7506 145.58 47.9995C146.26 48.1489 147.091 48.1489 147.457 48.7109C147.712 49.1022 147.622 49.6072 147.555 50.0625C147.42 51.0229 147.472 52.0472 147.944 52.908C148.415 53.7688 149.365 54.4446 150.382 54.409C150.779 54.3948 151.175 54.2809 151.572 54.2881C151.968 54.2952 152.41 54.473 152.529 54.8358C152.612 55.0848 152.522 55.3551 152.492 55.6183C152.35 56.8917 153.681 57.8876 154.976 58.2575C157.564 58.9902 160.452 58.286 162.628 56.7707C164.805 55.2555 166.339 53.0218 167.356 50.6458C168.374 48.2699 168.927 45.7374 169.473 43.2263" fill="#263238"/>
<path d="M188.633 93.9542C188.371 93.2641 187.884 92.6737 187.353 92.1402C183.935 88.6758 178.75 87.0254 173.761 87.2886C168.771 87.5589 163.998 89.6219 160.116 92.6097C158.043 94.2031 155.26 97.2763 154.527 99.7091C157.565 100.406 162.098 99.4388 164.963 98.2508C167.828 97.0628 170.656 95.6259 173.768 95.3271C177.366 94.9785 180.905 96.195 184.451 96.8779C185.161 97.0131 185.895 97.134 186.613 97.0415C187.331 96.9561 188.057 96.636 188.461 96.0598C188.887 95.448 188.894 94.6371 188.633 93.9471V93.9542Z" fill="url(#paint3_linear_879_1506)"/>
<g opacity="0.3">
<path d="M188.105 94.1773C187.843 93.4873 187.357 92.8968 186.826 92.3633C183.407 88.8989 178.223 87.2486 173.233 87.5118C168.244 87.7821 163.471 89.8451 159.588 92.8328C157.516 94.4263 154.733 97.4994 154 99.9323C157.037 100.629 161.571 99.662 164.436 98.474C167.301 97.286 170.129 95.849 173.241 95.5502C176.839 95.2017 180.377 96.4181 183.923 97.101C184.634 97.2362 185.367 97.3571 186.085 97.2646C186.804 97.1793 187.529 96.8592 187.933 96.2829C188.36 95.6712 188.367 94.8602 188.105 94.1702V94.1773Z" fill="black"/>
</g>
<path d="M186.147 135.192L194.818 129.85C194.818 129.85 203.436 136.437 205.141 135.598L194.855 119.244L180.993 127.04L186.155 135.192H186.147Z" fill="#FF725E"/>
<path d="M190.891 125.219C190.787 124.849 191.019 124.422 191.4 124.301C191.782 124.18 192.245 124.408 192.358 124.778C192.47 125.141 192.208 125.667 191.812 125.745C191.415 125.824 190.891 125.532 190.869 125.148" fill="#E0E0E0"/>
<g opacity="0.6">
<path d="M194.857 119.244L193.495 120.083L203.871 135.449C203.871 135.449 204.664 135.989 205.15 135.598L194.864 119.244H194.857Z" fill="white"/>
</g>
<path d="M194.892 130.163C194.974 130.113 194.765 129.694 194.787 129.146C194.795 128.598 195.034 128.193 194.952 128.136C194.892 128.072 194.466 128.477 194.443 129.139C194.421 129.8 194.825 130.227 194.892 130.163Z" fill="#263238"/>
<path d="M196.718 131.458C196.808 131.429 196.733 131.002 196.92 130.533C197.092 130.056 197.429 129.765 197.377 129.693C197.339 129.608 196.816 129.836 196.599 130.426C196.374 131.017 196.636 131.507 196.718 131.465V131.458Z" fill="#263238"/>
<path d="M199.493 131.202C199.463 131.116 198.977 131.244 198.648 131.714C198.311 132.176 198.371 132.66 198.461 132.653C198.558 132.653 198.655 132.276 198.932 131.899C199.201 131.515 199.538 131.287 199.501 131.209L199.493 131.202Z" fill="#263238"/>
<path d="M192.776 131.173C192.828 131.095 192.484 130.796 192.23 130.327C191.968 129.864 191.908 129.423 191.811 129.416C191.721 129.402 191.624 129.921 191.93 130.476C192.23 131.024 192.731 131.251 192.776 131.173Z" fill="#263238"/>
<path opacity="0.3" d="M187.525 123.362L191.467 131.913L190.143 132.802L185.595 124.465L187.525 123.362Z" fill="black"/>
<path d="M182.364 89.821C182.004 89.821 170.349 89.5791 164.058 93.5272L159.076 96.202L159.21 101.004C159.21 101.004 158.14 102.697 158.38 103.714C158.619 104.731 158.342 109.021 158.342 109.021C158.342 109.021 156.48 109.135 156.24 112.179C156.24 112.179 153.652 113.197 152.515 115.003C151.378 116.81 139.738 137.134 139.027 140.414C138.316 143.693 137.837 149.448 140.448 151.369C143.059 153.289 148.879 152.614 148.879 152.614C148.879 152.614 149.71 154.982 154.819 155.096C159.928 155.21 167.761 149.562 167.761 149.562L191.273 134.317L185.715 122.992L177.501 127.773L186.291 118.062C186.291 118.062 190.331 111.511 189.141 104.625C188.258 99.5099 182.371 89.8352 182.371 89.8352L182.364 89.821Z" fill="#263238"/>
<path d="M184.376 93.3352C184.376 93.3352 184.279 93.3495 184.1 93.3495C183.89 93.3495 183.628 93.3495 183.307 93.3495C182.618 93.3495 181.623 93.3281 180.397 93.3495C179.17 93.3637 177.711 93.4064 176.095 93.57C174.487 93.7336 172.721 94.0181 170.956 94.5943C167.41 95.7325 164.552 97.5465 162.525 98.8341C161.537 99.4886 160.722 100.022 160.131 100.406C159.862 100.577 159.652 100.719 159.48 100.833C159.331 100.926 159.248 100.975 159.241 100.968C159.233 100.961 159.308 100.904 159.45 100.797C159.615 100.677 159.824 100.527 160.079 100.335C160.625 99.9367 161.425 99.3748 162.428 98.699C164.44 97.3758 167.298 95.5262 170.881 94.3738C172.669 93.7976 174.449 93.5131 176.073 93.3566C177.696 93.2072 179.162 93.1787 180.389 93.1858C181.616 93.1858 182.611 93.2285 183.299 93.2641C183.621 93.2854 183.883 93.2997 184.092 93.3068C184.272 93.321 184.369 93.3281 184.369 93.3352H184.376Z" fill="#455A64"/>
<path d="M160.385 96.8564C160.385 96.8564 160.093 97.0414 160.011 97.5038C159.974 97.7243 160.034 98.0089 160.258 98.2009C160.475 98.393 160.849 98.4997 161.163 98.3788C161.477 98.2578 161.672 97.9377 161.694 97.6532C161.717 97.3615 161.552 97.1196 161.365 96.9845C160.976 96.6999 160.625 96.7995 160.625 96.7568C160.625 96.7426 160.692 96.707 160.849 96.6928C160.999 96.6786 161.23 96.7071 161.462 96.8564C161.694 96.9916 161.926 97.2904 161.904 97.6603C161.896 98.016 161.664 98.4143 161.245 98.5851C160.819 98.7416 160.363 98.5993 160.101 98.3503C159.817 98.0942 159.772 97.7243 159.839 97.4753C159.899 97.2121 160.049 97.0414 160.168 96.956C160.288 96.8636 160.37 96.8493 160.378 96.8564H160.385Z" fill="#455A64"/>
<path d="M164.567 97.4398C164.567 97.4398 164.38 97.3473 164.148 97.1197C163.923 96.8921 163.602 96.5506 163.475 96.0455C163.362 95.5405 163.49 95.0994 163.587 94.8006C163.691 94.5019 163.781 94.3311 163.811 94.3382C163.841 94.3454 163.811 94.5374 163.744 94.8433C163.691 95.1421 163.602 95.5689 163.699 95.9957C163.811 96.4297 164.08 96.7711 164.268 97.013C164.462 97.262 164.582 97.4114 164.559 97.4398H164.567Z" fill="#455A64"/>
<path d="M165.554 96.8707C165.554 96.8707 165.374 96.7925 165.157 96.579C164.948 96.3656 164.701 96.0171 164.566 95.5831C164.312 94.701 164.499 93.9754 164.544 93.9897C164.626 93.9897 164.559 94.7081 164.798 95.5191C165.053 96.3301 165.621 96.8138 165.561 96.8707H165.554Z" fill="#455A64"/>
<path d="M178.137 93.3352C178.137 93.3352 178.092 93.136 178.055 92.8159C178.017 92.5029 177.965 92.0618 177.771 91.6279C177.584 91.1869 177.284 90.8525 177.06 90.6178C176.835 90.383 176.686 90.2407 176.708 90.2123C176.731 90.1909 176.91 90.2905 177.18 90.5039C177.441 90.7174 177.786 91.0588 177.988 91.5425C178.197 92.0192 178.227 92.4887 178.219 92.8159C178.212 93.1431 178.16 93.3423 178.137 93.3423V93.3352Z" fill="#455A64"/>
<path d="M179.664 93.3067C179.664 93.3067 179.626 93.1075 179.626 92.7874C179.626 92.4744 179.656 92.0334 179.522 91.5994C179.372 91.1655 179.095 90.8098 178.931 90.5395C178.759 90.2692 178.654 90.0913 178.684 90.0771C178.706 90.0629 178.856 90.198 179.065 90.447C179.267 90.696 179.574 91.0446 179.746 91.5354C179.903 92.0334 179.828 92.4886 179.791 92.8016C179.746 93.1218 179.694 93.3067 179.664 93.3067Z" fill="#455A64"/>
<path d="M159.562 142.42C159.562 142.42 159.614 142.235 159.771 141.915C159.928 141.595 160.175 141.125 160.497 140.52C161.14 139.318 162.098 137.582 163.287 135.448C165.666 131.18 168.995 125.297 172.698 118.817C173.626 117.195 174.531 115.615 175.406 114.086C176.274 112.564 176.895 110.991 177.321 109.455C178.181 106.375 178.174 103.444 177.792 101.075C177.411 98.6919 176.685 96.8423 176.117 95.6117C175.825 94.9928 175.578 94.5304 175.406 94.2103C175.324 94.0609 175.256 93.9471 175.211 93.8546C175.167 93.7763 175.144 93.7336 175.152 93.7265C175.152 93.7265 175.182 93.7621 175.234 93.8403C175.286 93.9257 175.361 94.0466 175.451 94.1889C175.638 94.4948 175.9 94.9572 176.206 95.5761C176.805 96.7996 177.56 98.6492 177.964 101.047C178.368 103.437 178.391 106.389 177.538 109.505C177.119 111.063 176.491 112.649 175.615 114.193C174.74 115.722 173.842 117.301 172.915 118.923C169.219 125.397 165.875 131.266 163.444 135.527C162.247 137.646 161.275 139.361 160.586 140.563C160.257 141.146 160.003 141.609 159.823 141.936C159.741 142.085 159.681 142.206 159.629 142.299C159.591 142.377 159.569 142.427 159.569 142.427L159.562 142.42Z" fill="#455A64"/>
<path d="M185.789 127.794C185.789 127.794 185.707 127.858 185.535 127.965C185.34 128.078 185.093 128.228 184.779 128.413C184.098 128.811 183.156 129.366 181.996 130.049C179.647 131.429 176.408 133.35 172.869 135.534C169.331 137.718 166.159 139.731 163.862 141.189C162.733 141.908 161.805 142.491 161.139 142.911C160.833 143.103 160.586 143.252 160.391 143.373C160.219 143.48 160.13 143.529 160.122 143.522C160.122 143.522 160.204 143.451 160.361 143.337C160.548 143.209 160.788 143.046 161.08 142.839C161.738 142.405 162.643 141.801 163.765 141.054C166.039 139.56 169.204 137.525 172.742 135.342C176.281 133.158 179.535 131.258 181.906 129.914C183.096 129.238 184.061 128.704 184.734 128.342C185.056 128.171 185.31 128.036 185.512 127.929C185.692 127.837 185.789 127.794 185.789 127.801V127.794Z" fill="#455A64"/>
<path d="M189.47 135.47C189.47 135.47 189.38 135.313 189.253 135.021C189.096 134.687 188.909 134.275 188.685 133.791C188.191 132.759 187.495 131.344 186.71 129.779C185.939 128.242 185.243 126.848 184.705 125.781C184.473 125.297 184.271 124.892 184.114 124.564C183.979 124.273 183.912 124.109 183.927 124.102C183.942 124.102 184.039 124.244 184.196 124.522C184.361 124.799 184.585 125.205 184.862 125.71C185.408 126.72 186.149 128.121 186.934 129.686C187.72 131.251 188.393 132.681 188.849 133.734C189.074 134.26 189.246 134.694 189.35 134.993C189.448 135.299 189.5 135.47 189.485 135.47H189.47Z" fill="#455A64"/>
<path d="M159.561 142.42C159.516 142.37 163.541 138.991 168.538 134.872C173.543 130.746 177.635 127.445 177.672 127.495C177.71 127.545 173.693 130.924 168.688 135.043C163.683 139.162 159.599 142.47 159.554 142.42H159.561Z" fill="#455A64"/>
<path d="M154.587 150.337C154.587 150.337 155.058 150.031 155.552 149.313C156.038 148.594 156.636 147.542 157.302 146.396C157.968 145.244 158.544 144.184 158.963 143.423C159.382 142.654 159.644 142.185 159.674 142.199C159.703 142.213 159.494 142.711 159.113 143.494C158.731 144.276 158.177 145.351 157.512 146.51C156.838 147.662 156.217 148.701 155.686 149.412C155.409 149.761 155.14 150.017 154.931 150.159C154.721 150.302 154.587 150.359 154.579 150.344L154.587 150.337Z" fill="#455A64"/>
<path d="M158.844 151.568C158.844 151.568 159.068 151.077 159.352 150.266C159.637 149.455 159.928 148.303 160.093 147.008C160.243 145.713 160.243 144.525 160.078 143.686C160.011 143.266 159.876 142.946 159.771 142.733C159.644 142.533 159.562 142.427 159.569 142.413C159.569 142.405 159.689 142.491 159.846 142.683C159.981 142.889 160.145 143.216 160.235 143.65C160.452 144.504 160.475 145.713 160.325 147.029C160.16 148.345 159.839 149.505 159.51 150.316C159.337 150.721 159.195 151.041 159.061 151.248C158.934 151.461 158.859 151.568 158.844 151.561V151.568Z" fill="#455A64"/>
<path d="M153.922 144.995C153.922 144.995 154.259 144.874 154.812 144.724C155.358 144.575 156.121 144.355 156.907 144.013C158.485 143.316 159.518 142.348 159.57 142.42C159.592 142.441 159.353 142.697 158.912 143.053C158.47 143.408 157.812 143.864 157.004 144.219C156.196 144.575 155.418 144.767 154.849 144.881C154.281 144.995 153.929 145.03 153.922 145.002V144.995Z" fill="#455A64"/>
<path d="M159.928 113.595C159.928 113.595 159.913 113.631 159.869 113.688C159.816 113.759 159.749 113.837 159.667 113.944C159.487 114.164 159.233 114.498 158.926 114.94C158.305 115.822 157.52 117.166 156.771 118.923C156.023 120.68 155.35 122.85 154.692 125.276C154.018 127.702 153.345 130.398 152.186 133.101C151.011 135.79 149.567 138.194 148.632 140.535C147.69 142.868 147.203 145.109 147.218 146.994C147.218 147.94 147.346 148.787 147.525 149.519C147.705 150.252 147.951 150.857 148.176 151.34C148.408 151.817 148.61 152.187 148.759 152.422C148.827 152.535 148.879 152.628 148.924 152.699C148.961 152.763 148.976 152.799 148.976 152.799C148.976 152.799 148.946 152.77 148.909 152.713C148.857 152.642 148.797 152.557 148.722 152.45C148.557 152.222 148.34 151.86 148.094 151.383C147.862 150.899 147.592 150.295 147.398 149.555C147.203 148.822 147.069 147.961 147.054 147.001C147.016 145.087 147.495 142.818 148.438 140.463C149.373 138.102 150.809 135.683 151.976 133.015C153.128 130.341 153.802 127.645 154.49 125.226C155.163 122.8 155.851 120.623 156.622 118.866C157.385 117.109 158.208 115.765 158.851 114.897C159.165 114.456 159.442 114.136 159.629 113.922C159.719 113.823 159.786 113.744 159.846 113.68C159.898 113.623 159.921 113.602 159.928 113.602V113.595Z" fill="#455A64"/>
<path d="M160.7 99.9581C160.7 99.9581 160.61 100.15 160.461 100.485C160.311 100.819 160.116 101.324 160.012 101.971C159.914 102.619 159.929 103.401 160.094 104.255C160.229 105.116 160.61 106.005 160.865 106.994C160.992 107.484 161.044 108.004 160.999 108.487C160.962 108.971 160.872 109.426 160.767 109.853C160.558 110.714 160.296 111.461 160.064 112.087C159.832 112.713 159.63 113.211 159.481 113.552C159.338 113.894 159.249 114.086 159.234 114.079C159.219 114.079 159.279 113.873 159.398 113.524C159.533 113.133 159.705 112.628 159.907 112.037C160.116 111.404 160.363 110.657 160.558 109.811C160.745 108.964 160.917 108.011 160.64 107.043C160.393 106.076 160.012 105.165 159.885 104.283C159.727 103.415 159.727 102.604 159.847 101.943C159.974 101.281 160.199 100.776 160.378 100.449C160.468 100.285 160.543 100.157 160.603 100.079C160.655 99.9937 160.692 99.9581 160.7 99.9581Z" fill="#455A64"/>
<path d="M161.252 112.962C161.207 112.933 161.947 112.393 162.396 111.127C162.621 110.501 162.763 109.711 162.755 108.836C162.748 107.961 162.583 106.994 162.381 105.99C162.179 104.987 161.955 104.027 161.88 103.131C161.805 102.234 161.835 101.431 161.925 100.755C162.015 100.086 162.179 99.5526 162.321 99.1969C162.396 99.0191 162.464 98.891 162.516 98.7986C162.568 98.7132 162.598 98.6705 162.606 98.6705C162.628 98.6776 162.531 98.8697 162.411 99.2254C162.291 99.5811 162.164 100.107 162.089 100.769C162.015 101.431 162.007 102.227 162.089 103.109C162.172 103.984 162.404 104.938 162.606 105.948C162.815 106.958 162.972 107.933 162.965 108.836C162.965 109.732 162.8 110.543 162.546 111.184C162.299 111.824 161.962 112.286 161.7 112.571C161.566 112.713 161.454 112.813 161.371 112.877C161.289 112.941 161.244 112.969 161.244 112.969L161.252 112.962Z" fill="#455A64"/>
<path d="M172.773 109.554C172.773 109.554 172.579 109.604 172.227 109.654C171.876 109.697 171.359 109.775 170.731 109.874C169.474 110.081 167.746 110.451 165.906 111.055C164.066 111.66 162.465 112.378 161.343 112.955C160.781 113.239 160.325 113.481 160.018 113.659C159.712 113.83 159.532 113.915 159.525 113.908C159.517 113.894 159.674 113.78 159.974 113.588C160.265 113.389 160.707 113.125 161.268 112.82C162.382 112.208 163.983 111.454 165.839 110.849C167.694 110.244 169.444 109.896 170.716 109.725C171.352 109.64 171.868 109.59 172.227 109.569C172.586 109.547 172.781 109.547 172.788 109.561L172.773 109.554Z" fill="#455A64"/>
<path d="M173.513 104.838C173.513 104.881 172.84 104.874 171.785 105.03C171.254 105.101 170.633 105.244 169.953 105.436C169.279 105.642 168.554 105.912 167.828 106.275C167.11 106.638 166.459 107.05 165.898 107.463C165.344 107.883 164.873 108.288 164.507 108.665C163.766 109.405 163.399 109.939 163.362 109.91C163.347 109.903 163.437 109.768 163.601 109.526C163.766 109.284 164.028 108.95 164.387 108.559C164.746 108.167 165.21 107.74 165.771 107.307C166.332 106.88 166.99 106.46 167.731 106.083C168.471 105.72 169.212 105.45 169.9 105.251C170.596 105.066 171.232 104.938 171.77 104.881C172.309 104.824 172.75 104.803 173.057 104.817C173.364 104.824 173.528 104.838 173.528 104.852L173.513 104.838Z" fill="#455A64"/>
<path d="M174.531 114.726C174.531 114.726 174.352 114.804 174.022 114.911C173.686 115.018 173.207 115.174 172.616 115.374C171.434 115.772 169.818 116.377 168.105 117.18C166.392 117.984 164.903 118.831 163.848 119.485C163.325 119.812 162.898 120.076 162.607 120.268C162.315 120.453 162.15 120.552 162.143 120.538C162.135 120.524 162.278 120.403 162.554 120.197C162.831 119.983 163.235 119.699 163.759 119.357C164.791 118.674 166.28 117.792 168.008 116.981C169.736 116.17 171.374 115.587 172.571 115.224C173.17 115.046 173.663 114.911 174.007 114.833C174.352 114.755 174.539 114.712 174.546 114.733L174.531 114.726Z" fill="#455A64"/>
<path d="M188.857 103.422C188.857 103.422 188.699 103.38 188.423 103.273C188.138 103.173 187.727 103.024 187.196 102.853C186.134 102.512 184.57 102.121 182.655 101.907L182.767 101.808C182.82 103.664 182.805 105.877 182.633 108.231C182.445 110.778 182.094 113.133 181.675 115.06V115.018C182.206 116.64 182.752 117.963 183.186 118.859C183.396 119.307 183.598 119.649 183.732 119.876C183.874 120.104 183.949 120.225 183.942 120.232C183.934 120.232 183.844 120.125 183.68 119.912C183.53 119.691 183.313 119.357 183.081 118.909C182.618 118.02 182.042 116.711 181.48 115.082V115.06V115.039C181.869 113.111 182.214 110.764 182.401 108.231C182.573 105.884 182.595 103.686 182.565 101.829V101.715L182.677 101.729C184.607 101.964 186.171 102.391 187.233 102.761C187.764 102.946 188.176 103.109 188.445 103.23C188.722 103.351 188.864 103.422 188.857 103.43V103.422Z" fill="#455A64"/>
<path d="M189.23 105.293C189.23 105.293 188.856 105.208 188.273 105.044C187.689 104.881 186.881 104.667 185.976 104.461C184.166 104.056 182.677 103.799 182.685 103.728C182.685 103.7 183.066 103.728 183.672 103.814C184.278 103.899 185.116 104.034 186.029 104.24C187.861 104.639 189.26 105.229 189.23 105.286V105.293Z" fill="#455A64"/>
<path d="M187.047 98.642C187.047 98.642 186.493 98.5211 185.603 98.3219C184.712 98.1227 183.478 97.9022 182.094 97.7884C180.71 97.6817 179.453 97.703 178.541 97.7457C177.628 97.7884 177.067 97.831 177.06 97.7955C177.06 97.7812 177.194 97.7528 177.449 97.7101C177.703 97.6674 178.069 97.6247 178.526 97.5821C179.438 97.5038 180.71 97.454 182.109 97.5607C183.508 97.6745 184.757 97.9235 185.64 98.1583C186.081 98.2792 186.433 98.3859 186.672 98.4784C186.912 98.5638 187.047 98.6207 187.039 98.6349L187.047 98.642Z" fill="#455A64"/>
<path d="M177.8 100.591C177.8 100.591 177.591 100.669 177.202 100.769C176.805 100.869 176.237 100.99 175.518 101.11C174.09 101.338 172.077 101.551 169.855 101.381C168.763 101.281 167.663 101.167 166.811 100.655C166.392 100.399 166.063 100.058 165.861 99.6806C165.659 99.3036 165.636 98.8767 165.696 98.5353C165.816 97.8381 166.04 97.3188 166.205 96.9632C166.377 96.6075 166.519 96.4367 166.526 96.4439C166.541 96.451 166.429 96.6359 166.287 96.9987C166.152 97.3544 165.95 97.8879 165.861 98.5566C165.816 98.891 165.838 99.2538 166.033 99.6023C166.22 99.9438 166.526 100.257 166.923 100.484C167.716 100.947 168.786 101.061 169.87 101.16C172.062 101.331 174.06 101.146 175.488 100.961C176.207 100.861 176.775 100.762 177.179 100.691C177.576 100.62 177.8 100.584 177.8 100.598V100.591Z" fill="#455A64"/>
<path d="M176.641 23.1229C174.471 18.6484 169.092 19.5305 166.519 20.7185C163.946 21.9065 162.001 23.7774 160.834 26.445C160.078 28.1736 159.48 30.1441 157.953 31.1898C157.288 31.6451 156.502 31.8799 155.791 32.2569C155.081 32.641 154.408 33.2528 154.28 34.078C154.056 35.5648 155.627 36.5963 156.951 37.2009C156.166 37.7131 155.956 38.8655 156.233 39.7903C156.51 40.7151 157.16 41.4549 157.789 42.1663C159.726 44.3431 163.198 47.0249 165.674 48.4904C168.15 49.9558 169.758 50.1336 172.429 49.0737C173.514 48.6469 174.524 47.9426 175.676 47.8146C177.015 47.6723 178.301 48.3267 179.626 48.5828C180.95 48.8389 182.625 48.4832 183.059 47.153C183.224 46.6408 183.171 46.0859 183.239 45.5524C183.314 45.0189 183.583 44.4427 184.092 44.3217C184.503 44.2221 184.907 44.4569 185.311 44.5849C186.268 44.8908 187.712 51.656 188.632 51.2434C188.632 51.2434 189.972 39.769 187.391 33.0607C186.568 30.9195 184.817 26.3525 183.411 24.5741C181.488 22.1341 176.865 22.6747 176.633 23.1087" fill="#263238"/>
<path d="M173.881 23.87C170.463 22.7318 165.847 25.2287 164.8 28.5295C163.633 32.193 162.368 36.7102 162.144 39.5841C161.695 45.3676 166.019 47.082 166.019 47.082L164.261 56.1306L179.096 51.5707L184.272 30.2581L184.751 28.4654L173.881 23.87Z" fill="#FFBE9D"/>
<path d="M164.799 32.9896C164.851 33.1105 165.554 32.9327 166.325 33.2244C167.103 33.5018 167.514 34.0922 167.634 34.0353C167.694 34.014 167.664 33.8148 167.492 33.5516C167.32 33.2884 166.976 32.9683 166.489 32.7904C166.003 32.6126 165.532 32.6268 165.225 32.7193C164.918 32.8047 164.769 32.9327 164.799 32.9896Z" fill="#263238"/>
<path d="M172.475 34.9104C172.565 35.0099 173.179 34.64 174.009 34.6969C174.839 34.7396 175.415 35.1878 175.513 35.0953C175.557 35.0526 175.475 34.8748 175.221 34.6756C174.974 34.4764 174.54 34.2701 174.024 34.2417C173.508 34.2132 173.059 34.3626 172.797 34.5333C172.528 34.7041 172.43 34.8677 172.475 34.9175V34.9104Z" fill="#263238"/>
<path d="M169.027 38.1471C169.042 38.1044 168.555 37.9124 167.77 37.6278C167.568 37.5638 167.381 37.4784 167.381 37.3361C167.366 37.1796 167.508 36.9876 167.665 36.7813C167.979 36.3473 168.301 35.8992 168.645 35.4226C170.022 33.4805 171.069 31.8657 170.987 31.8159C170.904 31.7661 169.722 33.2956 168.346 35.2376C168.009 35.7142 167.695 36.1766 167.388 36.6105C167.254 36.8168 167.059 37.0374 167.089 37.3575C167.111 37.514 167.231 37.6563 167.358 37.7203C167.478 37.7914 167.598 37.8199 167.695 37.8483C168.503 38.076 169.012 38.1898 169.027 38.1471Z" fill="#263238"/>
<path d="M166.019 47.1032C166.019 47.1032 170.111 48.2628 174.57 46.8969C174.57 46.8969 171.689 50.3827 165.742 48.5118L166.019 47.0961V47.1032Z" fill="#EB996E"/>
<path d="M168.584 40.7365C168.502 40.6377 168.622 40.8493 168.584 40.7365V40.7365Z" fill="#EB996E"/>
<path d="M171.225 40.3595C171.06 40.0038 170.709 39.7335 170.327 39.6055C169.774 39.4205 169.153 39.5201 168.726 39.8544C168.442 40.1319 168.547 40.6156 168.584 40.7365C168.868 41.0851 168.898 41.3768 169.302 41.5902C169.706 41.8036 170.724 41.6684 171.045 41.3981C171.337 41.1562 171.389 40.7152 171.225 40.3595Z" fill="#EB996E"/>
<path d="M171.278 39.2141C171.151 39.1786 170.942 40.0109 170.044 40.4377C169.146 40.8645 168.233 40.5586 168.196 40.6796C168.174 40.7293 168.368 40.8858 168.757 40.9854C169.139 41.085 169.737 41.0921 170.291 40.8361C170.837 40.5728 171.158 40.1318 171.271 39.7975C171.39 39.456 171.346 39.2284 171.286 39.2212L171.278 39.2141Z" fill="#263238"/>
<path d="M174.143 30.8342C174.098 31.0548 174.779 31.2824 175.459 31.759C176.155 32.2143 176.619 32.7549 176.806 32.634C176.896 32.5771 176.888 32.3423 176.754 32.0364C176.619 31.7306 176.335 31.3678 175.923 31.0832C175.512 30.8058 175.063 30.6777 174.726 30.6635C174.39 30.6493 174.165 30.7275 174.143 30.8342Z" fill="#263238"/>
<path d="M165.293 30.0232C165.473 30.1868 166.094 29.945 166.857 29.8667C167.62 29.7671 168.286 29.8596 168.42 29.6604C168.48 29.5608 168.353 29.3972 168.054 29.2478C167.755 29.1056 167.276 29.006 166.752 29.07C166.228 29.134 165.787 29.3332 165.54 29.5466C165.286 29.7529 165.218 29.945 165.301 30.0303L165.293 30.0232Z" fill="#263238"/>
<path d="M185.582 28.4511C185.38 27.9959 184.901 27.7255 184.445 27.4908C181.497 25.9542 178.438 24.6026 175.303 23.4431L174.009 24.1402C173.628 26.5162 174.937 29.0558 177.144 30.2296C178.026 30.6991 179.171 31.133 179.283 32.0862C179.403 33.075 178.311 33.7509 177.697 34.5547C176.942 35.5435 176.897 36.9734 177.592 37.9977C177.989 38.581 178.587 39.0221 178.954 39.6268C179.433 40.4235 179.44 41.4408 179.074 42.2873C178.707 43.1409 178.094 44.2862 177.271 44.77C179.478 45.3177 182.066 44.2578 183.218 42.3869C183.906 41.27 183.959 39.9184 184.056 38.6308C184.265 35.6929 184.759 32.7692 185.522 29.9166C185.649 29.4328 185.791 28.9064 185.582 28.444V28.4511Z" fill="#263238"/>
<path d="M175.506 23.5783C174.66 24.5315 173.785 25.5061 172.67 26.1677C171.556 26.8292 170.127 27.1422 168.908 26.6727C169.214 26.3526 169.521 26.0325 169.828 25.7124C167.658 27.1209 165.182 28.0955 162.594 28.5579C164.225 26.6799 165.9 24.7592 168.122 23.5427C170.344 22.3263 173.254 21.9564 175.431 23.251" fill="#263238"/>
<path d="M185.879 34.5119L178.952 39.6266C179.745 40.4518 179.438 42.5504 178.66 43.3898C177.882 44.2292 176.843 44.9335 176.536 46.0147C176.199 47.1956 176.857 48.4192 176.88 49.6427C176.91 51.3713 175.683 52.8581 174.74 54.3378C173.798 55.8174 173.117 57.795 174.172 59.2035C175.354 60.797 178.047 60.5694 179.67 59.3743C181.294 58.1863 182.221 56.3509 183.426 54.7788C184.63 53.1996 186.515 51.9974 188.55 52.1965C189.216 46.2993 188.243 40.0037 185.894 34.5119H185.879Z" fill="#263238"/>
<path d="M187.038 48.7748C186.993 48.7037 187.405 48.4191 188.108 47.8856C188.796 47.3521 189.806 46.5625 190.726 45.3602C191.183 44.7627 191.602 44.0584 191.901 43.2475C192.2 42.4436 192.372 41.5331 192.312 40.6012C192.26 39.6693 191.923 38.716 191.362 37.8411C190.786 36.9661 189.993 36.1693 189.058 35.4793C187.188 34.0993 184.988 33.3096 183.021 32.4987C181.046 31.7019 179.243 30.8483 177.934 29.8453C176.61 28.8707 175.772 27.8036 175.346 27.014C174.927 26.2173 174.852 25.7193 174.919 25.698C175.009 25.6695 175.226 26.1035 175.735 26.7864C176.251 27.4622 177.119 28.3656 178.42 29.205C179.714 30.0658 181.435 30.7985 183.425 31.5383C184.42 31.9153 185.475 32.3066 186.559 32.7832C187.637 33.2598 188.751 33.8289 189.776 34.5901C190.794 35.3442 191.691 36.2405 192.342 37.2649C192.985 38.2892 193.36 39.4416 193.397 40.5443C193.434 41.654 193.195 42.6855 192.813 43.5747C192.439 44.4639 191.923 45.2251 191.385 45.844C190.3 47.0818 189.155 47.8074 188.37 48.2484C187.569 48.6823 187.083 48.8388 187.046 48.7748H187.038Z" fill="#263238"/>
<path d="M187.174 33.2385C187.174 33.2385 186.957 33.1887 186.568 33.0535C186.186 32.9184 185.633 32.7192 184.967 32.4489C183.635 31.9082 181.765 31.1115 180.014 29.767C178.264 28.4225 177.149 26.7152 176.723 25.3779C176.506 24.7092 176.416 24.1472 176.401 23.7559C176.386 23.5639 176.401 23.4074 176.401 23.3078C176.401 23.2082 176.409 23.1513 176.424 23.1513C176.483 23.1513 176.409 24.0263 176.887 25.3281C177.344 26.6228 178.451 28.2731 180.164 29.5963C181.885 30.9123 183.717 31.7304 185.034 32.3066C185.662 32.5769 186.194 32.7975 186.605 32.9753C186.979 33.1318 187.181 33.2314 187.174 33.2456V33.2385Z" fill="#455A64"/>
<path d="M187.39 39.8045C187.39 39.8045 187.502 39.5484 187.577 39.0575C187.652 38.5738 187.599 37.8411 187.21 37.0372C186.829 36.2405 186.118 35.4011 185.108 34.7395C184.113 34.0566 182.879 33.5088 181.637 32.8046C180.403 32.1003 179.34 31.2325 178.54 30.3219C177.725 29.4185 177.149 28.4937 176.737 27.6827C176.333 26.8718 176.101 26.1746 175.982 25.6909C175.907 25.449 175.884 25.257 175.854 25.1289C175.832 25.0009 175.824 24.9297 175.832 24.9297C175.854 24.9297 175.922 25.1929 176.071 25.6695C176.221 26.1462 176.475 26.822 176.894 27.6187C177.321 28.4083 177.897 29.3118 178.712 30.1939C179.512 31.0831 180.552 31.9225 181.764 32.6196C182.984 33.3097 184.225 33.8716 185.235 34.5759C186.26 35.2588 186.986 36.148 187.36 36.9803C187.741 37.8126 187.771 38.5809 187.667 39.0789C187.614 39.3278 187.547 39.5128 187.487 39.6337C187.427 39.7547 187.397 39.8187 187.39 39.8116V39.8045Z" fill="#455A64"/>
<path d="M149.088 35.4082C149.088 35.4082 149.095 35.3797 149.132 35.3371C149.162 35.2944 149.207 35.2232 149.282 35.145C149.424 34.9885 149.664 34.7609 150.053 34.6044C150.442 34.4479 150.965 34.3838 151.549 34.3554C152.132 34.3198 152.806 34.2842 153.546 34.2771C154.287 34.2629 155.095 34.2558 155.933 34.0708C156.763 33.8859 157.593 33.459 158.326 32.8686C159.06 32.2711 159.71 31.5099 160.279 30.6634C160.855 29.8168 161.334 28.8778 161.842 27.9175C162.351 26.9571 162.86 26.0181 163.473 25.1787C164.079 24.3322 164.812 23.5995 165.62 23.0588C167.251 21.9562 169.069 21.5649 170.55 21.5294C172.054 21.4867 173.243 21.8068 174.006 22.1056C174.193 22.1838 174.365 22.255 174.515 22.319C174.65 22.3901 174.769 22.4542 174.867 22.5111C175.054 22.6178 175.151 22.6747 175.151 22.6818C175.151 22.6818 175.039 22.6462 174.844 22.5537C174.739 22.504 174.62 22.447 174.485 22.383C174.335 22.3261 174.163 22.2621 173.976 22.191C173.206 21.9206 172.031 21.629 170.558 21.6859C169.106 21.7428 167.326 22.1412 165.747 23.2295C164.962 23.7631 164.259 24.4816 163.668 25.3068C163.069 26.1319 162.561 27.0638 162.052 28.0242C161.543 28.9845 161.057 29.9307 160.473 30.7914C159.89 31.6451 159.224 32.4204 158.469 33.0322C157.706 33.6369 156.845 34.0708 155.977 34.2558C155.11 34.4407 154.287 34.4407 153.546 34.4407C152.806 34.4336 152.14 34.4621 151.549 34.4834C150.965 34.4976 150.457 34.5474 150.075 34.6826C149.694 34.8249 149.454 35.0241 149.305 35.1734C149.155 35.3228 149.088 35.4082 149.08 35.4011L149.088 35.4082Z" fill="#455A64"/>
<path d="M146.305 29.5893C143.574 23.0447 139.961 16.621 139.445 11.741L134.014 11.9544C134.133 13.8395 134.844 29.5608 138.689 35.7782C142.542 41.9956 155.394 56.5288 155.394 56.5288L159.912 45.467C159.912 45.467 149.043 36.1481 146.305 29.5964V29.5893Z" fill="#FFBE9D"/>
<path d="M137.253 1.57552H134.874C134.874 1.57552 135.106 2.90578 136.183 2.97692C137.26 3.04805 137.051 2.82041 137.051 2.82041L136.812 3.02671L135.33 3.30415C135.33 3.30415 135.405 4.39966 136.385 4.5775L137.821 3.30415L137.253 1.5684V1.57552Z" fill="#FFBE9D"/>
<path d="M143.761 1.37639C143.544 3.07657 143.522 2.96986 143.522 2.96986L141.352 4.67715L140.799 2.16601C140.724 1.82456 140.417 1.57558 140.051 1.55424L139.063 1.49733C139.063 1.49733 139.445 0.19552 138.211 0.30934C138.211 0.30934 137.53 0.131497 136.976 2.30117C136.378 4.67004 133.789 10.2472 134.014 12.111L139.52 12.3173C139.46 10.5815 140.963 8.74618 141.704 7.94945C141.928 7.70758 142.093 7.42304 142.168 7.11715C142.243 6.80415 142.415 6.3631 142.789 5.96473C143.47 5.24625 144.898 3.95867 144.898 3.95867V0.017678C144.898 0.017678 143.978 -0.259756 143.769 1.38351L143.761 1.37639ZM139.333 5.18934L138.203 5.68018L138.39 4.58467L139.333 4.49931V5.19645V5.18934Z" fill="#FFBE9D"/>
<path d="M138.15 5.79401C138.15 5.79401 138.15 5.62328 138.202 5.33162C138.255 5.03284 138.337 4.61313 138.442 4.08672C138.554 3.54608 138.681 2.92007 138.823 2.24427C138.891 1.8957 138.995 1.5329 139.01 1.17011C139.018 0.821534 138.876 0.416053 138.479 0.394712C138.105 0.330689 137.791 0.629464 137.604 0.935353C137.499 1.08474 137.454 1.25547 137.387 1.43331C137.327 1.61115 137.267 1.78188 137.208 1.9455C136.991 2.60707 136.789 3.21174 136.617 3.73815C136.437 4.25034 136.28 4.65582 136.153 4.92614C136.026 5.20357 135.943 5.34585 135.928 5.34585C135.913 5.34585 135.966 5.18223 136.063 4.89768C136.16 4.61313 136.302 4.20054 136.452 3.68835C136.609 3.15483 136.796 2.55016 136.998 1.88148C137.05 1.71075 137.11 1.54002 137.17 1.36217C137.23 1.19145 137.29 0.992263 137.402 0.821534C137.507 0.643691 137.641 0.480076 137.828 0.344916C138.008 0.209756 138.27 0.131505 138.509 0.167074C138.636 0.188415 138.741 0.21687 138.853 0.280893C138.966 0.35203 139.04 0.444508 139.1 0.5441C139.212 0.743283 139.242 0.963808 139.242 1.17011C139.227 1.5827 139.108 1.93127 139.04 2.27984C138.883 2.95564 138.734 3.57453 138.614 4.11518C138.487 4.63448 138.382 5.05418 138.307 5.34585C138.232 5.63751 138.18 5.79401 138.165 5.79401H138.15Z" fill="#EB996E"/>
<path d="M139.281 5.2036C139.214 5.19649 139.266 4.62739 139.214 3.93025C139.199 3.75952 139.184 3.58879 139.169 3.43941C139.154 3.2829 139.132 3.1762 139.064 3.1264C138.907 3.0197 138.72 3.01258 138.735 2.97701C138.735 2.96279 138.773 2.94856 138.847 2.94145C138.915 2.94145 139.027 2.92722 139.162 2.99836C139.311 3.07661 139.364 3.26868 139.386 3.41095C139.416 3.56745 139.438 3.73818 139.453 3.91602C139.506 4.64162 139.341 5.21072 139.281 5.2036Z" fill="#EB996E"/>
<path d="M141.974 4.23604C141.974 4.23604 141.824 4.42811 141.525 4.66997C141.226 4.91184 140.792 5.23907 140.231 5.48093C139.67 5.72991 139.109 5.79394 138.72 5.82239C138.323 5.84373 138.084 5.83662 138.076 5.80816C138.076 5.77259 138.316 5.72991 138.697 5.66589C139.079 5.59475 139.61 5.50939 140.133 5.27464C140.665 5.047 141.098 4.74822 141.42 4.54192C141.742 4.32851 141.951 4.20758 141.966 4.22892L141.974 4.23604Z" fill="#EB996E"/>
<path d="M185.169 53.3276C185.169 53.3276 191.28 53.1569 194.946 52.1183C198.612 51.0868 212.691 47.8999 212.691 47.8999L235.245 44.3217L235.687 49.8704C235.687 49.8704 214.725 55.6965 210.648 57.0268C206.571 58.357 187.959 64.425 184.45 63.6567L182.273 59.3885L185.169 53.3205V53.3276Z" fill="#FFBE9D"/>
<path d="M246.093 37.7913C245.726 37.7131 243.893 38.5027 243.893 38.5027C244.514 37.7629 243.931 37.0657 243.931 37.0657L241.424 38.2395C241.424 38.2395 240.153 39.4559 239.33 40.0464C238.507 40.6368 236.18 43.1906 236.128 43.3329L234.632 44.6561L235.559 49.906C235.559 49.906 236.749 50.0056 237.519 49.657C238.297 49.3155 239.427 47.9355 239.427 47.9355L241.567 47.7647C241.813 47.7434 242.06 47.6651 242.247 47.5086C242.891 46.9822 242.778 46.1215 242.778 46.1215C244.118 45.3816 243.347 44.4498 243.347 44.4498C243.347 44.4498 244.125 44.3573 244.447 43.8735C244.709 43.4823 244.641 43.1764 244.379 42.7354C244.118 42.2943 242.158 42.4437 242.158 42.4437L242.053 41.9031C242.053 41.9031 245.053 39.6338 245.726 39.1429C246.399 38.6521 246.429 37.8482 246.085 37.7771L246.093 37.7913Z" fill="#FFBE9D"/>
<path d="M243.931 38.453C243.931 38.453 243.684 38.9438 243.01 39.4987C242.689 39.7832 242.277 40.1033 241.911 40.5159C241.544 40.9285 241.305 41.4834 241.11 42.0952C240.923 42.707 240.721 43.3045 240.437 43.8025C240.16 44.3004 239.831 44.7059 239.524 45.0189C239.218 45.3319 238.941 45.5524 238.739 45.6876C238.537 45.8299 238.417 45.8868 238.402 45.8726C238.38 45.8441 238.829 45.5453 239.397 44.9122C239.674 44.5921 239.981 44.1937 240.242 43.7029C240.512 43.2191 240.691 42.6429 240.886 42.024C241.08 41.4123 241.342 40.8147 241.746 40.3808C242.143 39.9468 242.569 39.6481 242.898 39.3777C243.586 38.8584 243.901 38.4316 243.931 38.453Z" fill="#EB996E"/>
<path d="M242.831 46.1144C242.831 46.1144 242.479 46.3492 241.828 46.5626C241.499 46.6693 241.103 46.7618 240.639 46.7974C240.407 46.8116 240.167 46.8116 239.913 46.7902C239.659 46.7618 239.382 46.7049 239.15 46.5413C238.918 46.3776 238.746 46.1144 238.769 45.8299C238.813 45.5311 239.008 45.3604 239.173 45.2039C239.337 45.0545 239.562 44.9264 239.764 44.8909C239.958 44.8411 240.145 44.7984 240.31 44.7699C240.975 44.6348 241.409 44.6134 241.409 44.649C241.409 44.6704 241.005 44.7486 240.347 44.9193C240.182 44.962 240.003 45.0118 239.816 45.0687C239.629 45.1185 239.479 45.2181 239.315 45.3604C239.165 45.4955 239.008 45.6805 238.993 45.8512C238.978 46.0362 239.105 46.2425 239.285 46.3634C239.666 46.6124 240.19 46.6053 240.624 46.5982C241.065 46.5768 241.454 46.4986 241.776 46.4203C242.427 46.2496 242.816 46.0931 242.831 46.1215V46.1144Z" fill="#EB996E"/>
<path d="M243.414 44.4639C243.414 44.4639 243.138 44.6062 242.644 44.6845C242.397 44.72 242.098 44.7485 241.769 44.7414C241.447 44.7271 241.013 44.6916 240.721 44.3572C240.444 44.0158 240.512 43.5747 240.676 43.2831C240.848 42.9772 241.125 42.8064 241.342 42.6997C241.806 42.4934 242.113 42.465 242.12 42.4863C242.135 42.5219 241.836 42.6073 241.424 42.8349C241.222 42.9558 240.998 43.1194 240.871 43.3755C240.744 43.6245 240.706 43.9731 240.908 44.215C241.11 44.4568 241.469 44.5137 241.776 44.528C242.09 44.5422 242.382 44.528 242.629 44.5137C243.115 44.4782 243.414 44.4141 243.422 44.4497L243.414 44.4639Z" fill="#EB996E"/>
<path d="M241.941 47.7079C241.941 47.7079 241.702 47.8004 241.313 47.8929C240.924 47.9782 240.363 48.1134 239.719 48.0778C239.57 48.0778 239.345 48.028 239.233 47.8786C239.121 47.7364 239.083 47.5799 239.091 47.4305C239.113 47.1388 239.285 46.9112 239.472 46.7902C239.869 46.5626 240.161 46.6978 240.146 46.7191C240.146 46.7547 239.869 46.6978 239.577 46.9183C239.442 47.025 239.315 47.2171 239.315 47.4376C239.315 47.5443 239.345 47.6581 239.412 47.7364C239.48 47.8146 239.577 47.8431 239.734 47.8502C240.333 47.8857 240.879 47.7862 241.283 47.7364C241.687 47.6866 241.941 47.6795 241.941 47.7079Z" fill="#EB996E"/>
<path d="M174.785 71.7522C174.785 71.7522 174.643 71.8518 174.359 71.987C174.074 72.1221 173.648 72.2858 173.109 72.4423C172.032 72.7553 170.424 72.9544 168.711 72.6486C166.99 72.3427 165.584 71.5815 164.708 70.9057C164.267 70.5714 163.938 70.2583 163.728 70.0307C163.519 69.8031 163.422 69.6679 163.429 69.6608C163.459 69.6323 163.908 70.1445 164.806 70.7776C165.696 71.4108 167.08 72.1221 168.755 72.4209C170.424 72.7268 171.995 72.549 173.064 72.2858C174.149 72.0225 174.77 71.7095 174.785 71.7522Z" fill="#FF725E"/>
<path d="M164.461 55.7678C164.461 55.7678 178.839 51.3929 179.377 51.2577C179.916 51.1225 192.596 52.1967 192.596 52.1967C192.596 52.1967 192.05 60.1854 195.259 62.7748L185.931 65.9759L182.991 73.673C182.991 73.673 181.352 76.8101 182.654 79.7552C185.123 85.3252 189.409 94.1177 188.773 95.1208C188.706 95.2275 188.34 92.0761 182.235 90.4328C180.395 89.9349 177.036 89.9278 174.006 90.5111C160.96 93.008 155.925 98.7416 154.444 99.7233C154.444 99.7233 157.129 79.684 155.858 76.554C154.586 73.424 153.247 71.3823 154.287 68.5938C155.334 65.8052 156.905 61.3591 156.905 61.3591L151.766 55.8176L158.947 44.4641L165.515 49.6429L164.461 55.7678Z" fill="url(#paint4_linear_879_1506)"/>
<path d="M169.24 74.3345C169.24 74.3345 169.061 74.3629 168.747 74.3558C168.425 74.3487 167.969 74.306 167.408 74.1922C166.293 73.9717 164.767 73.3883 163.488 72.2359C162.201 71.0835 161.528 69.6465 161.273 68.5937C161.146 68.0602 161.094 67.6262 161.094 67.3203C161.086 67.0145 161.101 66.8508 161.116 66.8508C161.161 66.8508 161.139 67.5266 161.438 68.551C161.73 69.5683 162.403 70.9554 163.652 72.0723C164.894 73.1891 166.368 73.7796 167.445 74.0357C168.537 74.2989 169.24 74.2918 169.24 74.3345Z" fill="#263238"/>
<path d="M155.738 57.3897C155.775 57.3541 156.524 58.3216 156.741 59.7443C156.972 61.167 156.554 62.3052 156.501 62.2768C156.426 62.2625 156.733 61.1457 156.501 59.7799C156.292 58.4069 155.663 57.4252 155.731 57.3897H155.738Z" fill="#263238"/>
<path d="M186.26 59.7585C186.26 59.7585 185.961 59.9862 185.527 60.3917C185.093 60.79 184.562 61.416 184.188 62.2128C183.814 63.0095 183.687 63.8062 183.679 64.3824C183.672 64.9586 183.739 65.3143 183.702 65.3214C183.679 65.3214 183.545 64.98 183.515 64.3824C183.477 63.792 183.589 62.9526 183.978 62.1203C184.367 61.288 184.943 60.6477 185.422 60.2707C185.901 59.8866 186.253 59.7372 186.268 59.7585H186.26Z" fill="#263238"/>
<g opacity="0.3">
<path d="M167.109 74.0357C165.538 73.7014 164.633 73.1536 163.511 72.1008C162.905 71.5317 162.359 70.8844 161.947 70.0521C161.618 71.4108 163.6 73.8152 165.538 74.6973C167.476 75.5794 169.892 75.5225 171.777 74.5337C170.161 74.4981 168.68 74.3701 167.101 74.0357H167.109Z" fill="black"/>
</g>
<path d="M184.718 83.9664C184.718 83.9664 184.337 83.7245 183.596 83.3973C182.855 83.0771 181.703 82.7499 180.237 82.7286C178.778 82.7001 177.035 82.9775 175.255 83.6889C173.467 84.3932 171.657 85.4745 169.801 86.6624C166.106 89.0953 162.463 90.8738 159.755 91.9621C158.4 92.5099 157.286 92.9083 156.508 93.1644C156.119 93.2924 155.812 93.3849 155.61 93.4489C155.401 93.5129 155.296 93.5414 155.288 93.5343C155.281 93.5272 155.393 93.4845 155.595 93.4062C155.82 93.328 156.111 93.2142 156.478 93.0861C157.241 92.8087 158.348 92.389 159.695 91.8199C162.38 90.6959 165.986 88.9033 169.674 86.4775C171.537 85.2895 173.362 84.194 175.18 83.4968C176.99 82.7855 178.771 82.5223 180.252 82.565C181.741 82.6076 182.908 82.9633 183.648 83.3119C184.389 83.6605 184.733 83.9592 184.733 83.9592L184.718 83.9664Z" fill="white"/>
<path d="M182.116 76.803C182.116 76.803 181.847 76.5256 181.256 76.1628C180.672 75.8 179.707 75.4158 178.45 75.3233C177.201 75.2166 175.697 75.487 174.149 76.0774C172.6 76.6607 170.992 77.5215 169.279 78.3822C167.573 79.2572 165.927 80.0611 164.356 80.6373C162.785 81.2206 161.304 81.5763 160.04 81.7328C158.776 81.8964 157.736 81.8537 157.025 81.7826C156.674 81.7399 156.397 81.6972 156.217 81.6545C156.038 81.619 155.94 81.5976 155.94 81.5834C155.94 81.5621 156.329 81.6332 157.033 81.6901C157.736 81.7328 158.761 81.7541 160.01 81.5692C161.259 81.3913 162.718 81.0285 164.267 80.4381C165.815 79.8477 167.453 79.0438 169.159 78.1759C170.865 77.3152 172.488 76.4615 174.059 75.8782C175.63 75.2949 177.171 75.0317 178.45 75.1597C179.73 75.2736 180.71 75.6933 181.293 76.0845C181.884 76.4758 182.108 76.7959 182.108 76.7959L182.116 76.803Z" fill="white"/>
<path d="M162.919 71.361C162.919 71.361 162.822 71.4535 162.628 71.5886C162.53 71.6598 162.411 71.738 162.261 71.8163C162.112 71.8945 161.947 71.9941 161.745 72.0723C161.356 72.2573 160.87 72.4138 160.316 72.5561C159.763 72.677 159.134 72.7695 158.468 72.7837C157.81 72.7837 157.182 72.7197 156.621 72.613C156.06 72.4921 155.566 72.3427 155.177 72.1719C154.975 72.1008 154.803 72.0012 154.653 71.9301C154.504 71.8589 154.376 71.7807 154.279 71.7167C154.077 71.5886 153.972 71.5104 153.98 71.5032C154.002 71.4677 154.451 71.738 155.244 72.0297C155.641 72.1791 156.119 72.3071 156.673 72.4138C157.219 72.5063 157.833 72.5703 158.476 72.5632C159.119 72.549 159.725 72.4707 160.271 72.364C160.817 72.2431 161.296 72.1008 161.685 71.9372C162.463 71.6242 162.905 71.3396 162.927 71.3752L162.919 71.361Z" fill="white"/>
<path d="M184.284 70.2726C184.284 70.2726 184.225 70.3295 184.105 70.422C183.985 70.5144 183.791 70.6354 183.536 70.7634C183.02 71.0266 182.205 71.3183 181.157 71.4108C180.11 71.5104 178.838 71.4108 177.499 71.0906C176.153 70.7848 174.724 70.2726 173.198 69.8671C170.146 69.0419 167.213 69.0917 165.171 69.3762C164.146 69.5185 163.323 69.7035 162.762 69.8458C162.201 69.988 161.894 70.0805 161.887 70.0592C161.887 70.052 161.962 70.0236 162.104 69.9667C162.246 69.9169 162.455 69.8386 162.74 69.7533C163.293 69.5825 164.116 69.3762 165.148 69.2055C167.206 68.8783 170.176 68.8 173.265 69.6395C174.806 70.052 176.22 70.5642 177.552 70.8772C178.876 71.2116 180.118 71.3183 181.142 71.24C182.175 71.1689 182.983 70.9057 183.499 70.6709C184.023 70.4291 184.277 70.237 184.292 70.2583L184.284 70.2726Z" fill="white"/>
<path d="M183.911 63.7849C183.911 63.7849 183.814 63.8062 183.62 63.8275C183.425 63.8489 183.148 63.8773 182.782 63.9058C182.056 63.9058 180.986 63.9129 179.692 63.6995C178.398 63.5003 176.887 63.1375 175.226 62.7036C173.565 62.2839 171.732 61.8072 169.765 61.6223C169.271 61.6081 168.785 61.544 168.306 61.5796C168.067 61.5867 167.827 61.5796 167.596 61.6009C167.364 61.6294 167.132 61.6507 166.9 61.6792C165.98 61.7859 165.112 62.0349 164.304 62.2981C162.688 62.8458 161.274 63.4647 160.032 63.8631C158.798 64.2757 157.743 64.4535 157.01 64.4962C156.644 64.5247 156.359 64.5105 156.165 64.4962C155.97 64.4891 155.873 64.4749 155.873 64.4678C155.873 64.4607 155.978 64.4535 156.165 64.4464C156.359 64.4464 156.636 64.4464 156.995 64.3966C157.713 64.3326 158.746 64.1263 159.965 63.6995C161.192 63.2869 162.591 62.6467 164.214 62.0847C165.03 61.8144 165.905 61.5583 166.847 61.4444C167.079 61.416 167.319 61.3875 167.558 61.3591C167.798 61.3449 168.044 61.3449 168.284 61.3377C168.77 61.3093 169.264 61.3662 169.765 61.3804C171.762 61.5654 173.603 62.0491 175.263 62.483C176.924 62.9241 178.42 63.3011 179.7 63.5217C180.979 63.7564 182.034 63.7777 182.752 63.7991C183.096 63.7849 183.373 63.7777 183.59 63.7635C183.784 63.7635 183.881 63.7635 183.881 63.7635L183.911 63.7849Z" fill="white"/>
<path d="M188.444 52.1895C188.489 52.2108 188.017 52.8439 187.584 53.9892C187.142 55.1274 186.806 56.8276 187.142 58.6629C187.479 60.4912 188.399 61.9922 189.199 62.9312C190.007 63.8773 190.658 64.3326 190.628 64.3681C190.621 64.3752 190.449 64.2757 190.172 64.0551C189.888 63.8417 189.499 63.5003 189.08 63.0308C188.227 62.106 187.262 60.5836 186.918 58.6985C186.574 56.8205 186.948 55.0705 187.434 53.9323C187.673 53.3561 187.928 52.9151 188.122 52.6234C188.317 52.3318 188.444 52.1824 188.451 52.1895H188.444Z" fill="white"/>
<path d="M164.452 53.5482C164.452 53.5482 164.31 53.598 164.048 53.6335C163.787 53.6762 163.405 53.726 162.926 53.7473C162.447 53.7687 161.871 53.7687 161.251 53.6264C160.622 53.4912 159.971 53.1498 159.455 52.6518C158.931 52.161 158.528 51.6203 158.124 51.1793C157.72 50.7382 157.301 50.3897 156.897 50.1691C156.089 49.7068 155.46 49.8206 155.468 49.7708C155.468 49.7637 155.61 49.721 155.879 49.721C156.149 49.7281 156.545 49.8064 156.971 50.0269C157.398 50.2403 157.854 50.5889 158.281 51.0441C158.707 51.4923 159.111 52.0187 159.612 52.4953C160.113 52.9719 160.704 53.2921 161.295 53.4272C161.886 53.5766 162.447 53.5908 162.919 53.5908C163.854 53.5766 164.445 53.5126 164.445 53.5482H164.452Z" fill="white"/>
<path d="M163.541 185.18C163.473 185.18 163.421 180.649 163.421 175.064C163.421 169.48 163.473 164.949 163.541 164.949C163.608 164.949 163.66 169.48 163.66 175.064C163.66 180.649 163.608 185.18 163.541 185.18Z" fill="#263238"/>
<path d="M165.552 179.98C165.485 179.98 165.433 175.449 165.433 169.864C165.433 164.28 165.485 159.749 165.552 159.749C165.62 159.749 165.672 164.28 165.672 169.864C165.672 175.449 165.62 179.98 165.552 179.98Z" fill="#263238"/>
</svg>
