<svg width="339" height="233" viewBox="0 0 339 233" fill="none" xmlns="http://www.w3.org/2000/svg">
<path d="M338.88 181.725C338.88 181.725 325.33 161.305 268.22 160.645C211.12 159.985 195.25 167.235 158.54 148.125C121.83 129.015 80.64 106.625 0 131.655V233.395H338.88V181.725Z" fill="url(#paint0_linear_28_12159)"/>
<path d="M85.9367 177.157H58.6094V180.91H85.9367V177.157Z" fill="#263238"/>
<path d="M85.9808 180.962H58.5645V177.112H85.9808V180.962ZM58.6535 180.866H85.8843V177.201H58.6535V180.866Z" fill="#263238"/>
<path d="M61.1465 179.664L65.0779 199.069H79.6317L83.4371 180.91L61.1465 179.664Z" fill="#263238"/>
<path d="M61.1465 197.229L63.2457 200.115H80.9298L83.4371 197.229H61.1465Z" fill="#455A64"/>
<path d="M71.2507 180.228C71.1988 180.228 71.1246 171.237 71.0949 160.155C71.0652 149.065 71.0801 140.075 71.1394 140.075C71.1913 140.075 71.2655 149.065 71.2952 160.155C71.3249 171.245 71.31 180.228 71.2507 180.228Z" fill="#263238"/>
<path d="M77.3399 157.737C77.3399 157.737 77.3177 157.811 77.2658 157.944C77.199 158.1 77.1174 158.293 77.021 158.523C76.9691 158.649 76.9097 158.79 76.843 158.938C76.7836 159.094 76.7243 159.265 76.6575 159.45C76.5907 159.636 76.524 159.829 76.4498 160.036C76.3756 160.244 76.3163 160.467 76.2495 160.704C75.9528 161.639 75.7154 162.781 75.4855 164.049C75.2852 165.325 75.1369 166.742 75.0627 168.233C74.9292 171.215 75.0998 173.923 75.2778 175.873C75.3668 176.853 75.4558 177.639 75.5226 178.18C75.5523 178.433 75.5745 178.64 75.5893 178.811C75.6042 178.952 75.6042 179.033 75.5968 179.033C75.5968 179.033 75.5745 178.959 75.5448 178.818C75.5152 178.655 75.4855 178.447 75.441 178.195C75.352 177.654 75.2407 176.867 75.1368 175.888C74.9217 173.937 74.7289 171.222 74.8624 168.226C74.9366 166.727 75.0923 165.303 75.3 164.02C75.5374 162.744 75.7896 161.594 76.1086 160.667C76.1828 160.429 76.2495 160.207 76.3237 159.999C76.4053 159.792 76.4795 159.599 76.5462 159.413C76.613 159.235 76.6798 159.065 76.7465 158.909C76.8133 158.753 76.88 158.62 76.9394 158.493C77.0507 158.263 77.1471 158.071 77.2138 157.922C77.2806 157.796 77.3177 157.729 77.3251 157.729L77.3399 157.737Z" fill="#263238"/>
<path d="M76.6348 150.46C76.6348 150.46 76.6125 150.564 76.5458 150.757C76.4716 150.964 76.3826 151.246 76.2639 151.595C76.1971 151.78 76.1304 151.981 76.0562 152.196C75.9894 152.418 75.9153 152.663 75.8337 152.923C75.6705 153.442 75.485 154.035 75.3218 154.695C75.2328 155.029 75.1438 155.37 75.0474 155.734C74.9658 156.097 74.8768 156.476 74.7877 156.869C74.5949 157.648 74.4614 158.501 74.2833 159.391C73.9792 161.179 73.7196 163.152 73.5341 165.229C73.3635 167.313 73.2893 169.301 73.2597 171.111C73.2597 172.921 73.2745 174.553 73.3487 175.925C73.3709 176.608 73.4154 177.231 73.4525 177.772C73.4822 178.314 73.5193 178.781 73.5564 179.167C73.5861 179.538 73.6083 179.827 73.6231 180.05C73.638 180.25 73.638 180.354 73.6306 180.361C73.6306 180.361 73.6083 180.257 73.5786 180.057C73.5564 179.842 73.5193 179.545 73.4748 179.182C73.4303 178.803 73.3858 178.336 73.3413 177.787C73.2968 177.246 73.2448 176.623 73.2077 175.94C73.1187 174.568 73.0816 172.936 73.0742 171.119C73.0891 169.301 73.1632 167.306 73.3338 165.214C73.5193 163.13 73.7863 161.149 74.0979 159.361C74.2759 158.471 74.4243 157.618 74.6245 156.839C74.7136 156.446 74.81 156.068 74.8916 155.704C74.988 155.341 75.0845 155 75.1809 154.666C75.3515 153.998 75.5518 153.412 75.7224 152.893C75.804 152.633 75.8856 152.396 75.9598 152.173C76.0414 151.958 76.1155 151.758 76.1823 151.573C76.3158 151.231 76.4197 150.957 76.5013 150.749C76.5754 150.564 76.6199 150.467 76.6274 150.467L76.6348 150.46Z" fill="#263238"/>
<path d="M69.5231 181.823C69.5231 181.823 69.5157 181.785 69.5083 181.719C69.5083 181.637 69.4935 181.533 69.486 181.407C69.4638 181.118 69.4415 180.725 69.4044 180.22C69.3377 179.174 69.2487 177.676 69.13 175.844C68.8926 172.15 68.5514 167.039 67.9283 161.424C67.6093 158.612 67.2384 155.949 66.8601 153.531C66.6598 152.322 66.4744 151.172 66.2593 150.104C66.0664 149.036 65.8587 148.042 65.6658 147.137C65.4878 146.232 65.2875 145.416 65.1243 144.696C64.9686 143.977 64.8128 143.361 64.6867 142.864C64.568 142.375 64.4716 141.981 64.4048 141.707C64.3751 141.581 64.3529 141.484 64.3381 141.403C64.3232 141.336 64.3158 141.299 64.3232 141.299C64.3232 141.299 64.3381 141.329 64.3603 141.395C64.3826 141.47 64.4122 141.573 64.4493 141.692C64.5235 141.967 64.6348 142.352 64.7683 142.842C64.9092 143.339 65.0724 143.955 65.243 144.667C65.4136 145.386 65.6213 146.195 65.8142 147.1C66.0145 148.005 66.2296 148.999 66.4299 150.067C66.645 151.135 66.8379 152.285 67.0456 153.494C67.4387 155.912 67.817 158.583 68.1286 161.394C68.7517 167.017 69.0706 172.127 69.2783 175.829C69.3822 177.676 69.4489 179.174 69.4935 180.213C69.5157 180.717 69.5231 181.118 69.538 181.407C69.538 181.533 69.538 181.637 69.538 181.719C69.538 181.785 69.538 181.823 69.538 181.823H69.5231Z" fill="#263238"/>
<path d="M71.0282 144.4C70.9095 143.124 69.6188 142.167 68.3429 142.152C67.0671 142.137 65.8728 142.909 65.0865 143.917C64.3076 144.926 63.87 146.165 63.5214 147.396C62.6609 150.393 62.1861 153.546 62.557 156.646C62.9279 159.747 64.1815 162.796 66.4069 164.991C66.7704 165.348 67.2377 165.704 67.7347 165.6C68.0091 165.54 68.2317 165.355 68.432 165.169C72.8011 161.223 75.3231 155.311 75.1525 149.421C75.1154 148.242 74.9597 147.018 74.3069 146.031C73.6541 145.045 72.1335 144.006 71.0208 144.4" fill="#455A64"/>
<path d="M71.1385 140.075C65.7235 136.878 60.3084 133.681 54.8934 130.491C54.7302 130.395 54.5448 130.276 54.5003 130.091C54.4335 129.853 54.619 129.616 54.7896 129.438C57.0223 127.131 60.2714 125.796 63.4684 126.026C66.6729 126.256 69.7513 128.103 71.3165 130.907C72.8817 133.71 72.9336 137.412 71.1385 140.075Z" fill="#455A64"/>
<path d="M57.2305 127.427C57.2305 127.427 57.3046 127.413 57.4456 127.398C57.5865 127.398 57.7942 127.368 58.0613 127.368C58.5954 127.353 59.3742 127.39 60.3163 127.546C61.2584 127.702 62.371 128.006 63.5282 128.518C64.6854 129.03 65.8797 129.779 66.9775 130.751C68.0605 131.737 68.921 132.857 69.5441 133.955C70.1746 135.053 70.5826 136.129 70.8348 137.056C71.087 137.983 71.1983 138.747 71.2353 139.281C71.265 139.548 71.2502 139.615 71.2576 139.756C71.2576 139.897 71.1389 140.112 71.1315 140.112C71.1167 140.112 71.2205 139.815 71.1537 139.289C71.0944 138.762 70.9609 138.005 70.6938 137.093C70.182 135.283 68.9877 132.842 66.8366 130.899C64.6854 128.956 62.1411 128.013 60.2866 127.68C59.352 127.509 58.5879 127.45 58.0538 127.442C57.5198 127.427 57.2305 127.442 57.2305 127.42V127.427Z" fill="#263238"/>
<path d="M68.9351 133.458C68.9351 133.458 68.631 133.629 68.1117 133.829C67.5925 134.037 66.8729 134.297 66.0644 134.549C65.2559 134.808 64.5141 135.009 63.9726 135.142C63.4311 135.276 63.0898 135.335 63.0898 135.313C63.0898 135.283 63.4088 135.179 63.9355 135.009C64.5363 134.823 65.2336 134.601 66.0051 134.363C66.7765 134.119 67.4738 133.889 68.0672 133.696C68.5939 133.525 68.9277 133.429 68.9351 133.451V133.458Z" fill="#263238"/>
<path d="M66.3761 126.589C66.428 126.589 66.5467 127.398 66.569 128.399C66.5987 129.408 66.5245 130.224 66.4651 130.217C66.4132 130.217 66.3984 129.401 66.3687 128.399C66.3464 127.398 66.3168 126.589 66.3687 126.582L66.3761 126.589Z" fill="#263238"/>
<path d="M54.7461 130.306C54.7461 130.306 55.1912 130.12 55.9255 129.89C56.6673 129.66 57.691 129.371 58.8407 129.097C59.9905 128.822 61.0364 128.607 61.793 128.474C62.5571 128.34 63.0318 128.281 63.0318 128.303C63.0318 128.333 62.5719 128.436 61.8227 128.607C61.0735 128.778 60.0276 129.008 58.8852 129.282C57.7429 129.557 56.7118 129.824 55.9626 130.016C55.2134 130.209 54.7535 130.328 54.7461 130.298V130.306Z" fill="#263238"/>
<path d="M64.2852 141.633C62.8907 140.572 61.4071 140.364 59.6565 140.431C57.9059 140.498 56.1998 141.032 54.5901 141.737C51.8529 142.938 49.2789 144.704 47.6396 147.211C46.0003 149.711 45.4365 153.026 46.6604 155.756C46.7791 156.031 46.9423 156.313 47.2168 156.431C47.5061 156.557 47.8325 156.461 48.1366 156.364C51.2521 155.348 54.3898 154.325 57.2531 152.73C60.1164 151.135 62.7275 148.924 64.263 146.031C64.6339 145.334 64.938 144.592 64.9973 143.806C65.0567 143.02 64.8416 142.189 64.2852 141.633Z" fill="#455A64"/>
<path d="M64.3145 141.306C64.3145 141.306 64.2403 141.343 64.0919 141.395C63.9213 141.455 63.7062 141.529 63.4391 141.618C63.2982 141.662 63.135 141.722 62.9644 141.774C62.7938 141.833 62.6084 141.915 62.4155 141.989C62.0223 142.152 61.5624 142.308 61.0803 142.545C60.8355 142.656 60.5833 142.775 60.3162 142.894C60.0492 143.012 59.7896 143.168 59.5077 143.309C58.9439 143.584 58.3728 143.94 57.7645 144.303C56.5702 145.06 55.3092 145.965 54.0778 147.04C52.8613 148.123 51.7931 149.266 50.8956 150.349C50.4654 150.905 50.0351 151.432 49.6939 151.951C49.5159 152.21 49.3304 152.455 49.1821 152.7C49.0263 152.945 48.8779 153.182 48.737 153.412C48.4403 153.857 48.2252 154.295 48.0175 154.666C47.9136 154.851 47.8172 155.022 47.7356 155.185C47.654 155.348 47.5872 155.497 47.5205 155.63C47.3944 155.882 47.2905 156.09 47.2163 156.246C47.1422 156.387 47.1051 156.461 47.0977 156.453C47.0977 156.453 47.1199 156.372 47.1793 156.224C47.2534 156.06 47.3424 155.845 47.4537 155.586C47.5131 155.445 47.5798 155.296 47.654 155.126C47.7356 154.963 47.8246 154.784 47.921 154.599C48.1213 154.221 48.329 153.783 48.6183 153.323C48.7593 153.093 48.9002 152.848 49.056 152.596C49.2117 152.344 49.3898 152.099 49.5678 151.832C49.909 151.298 50.3318 150.771 50.7695 150.208C51.667 149.102 52.7352 147.953 53.9666 146.862C55.2053 145.779 56.4812 144.874 57.6903 144.118C58.306 143.762 58.8846 143.406 59.4558 143.138C59.7376 142.998 60.0047 142.849 60.2717 142.73C60.5388 142.612 60.7984 142.501 61.0432 142.389C61.5328 142.159 61.9927 142.011 62.3932 141.863C62.5935 141.788 62.779 141.722 62.9496 141.662C63.1202 141.61 63.2834 141.566 63.4317 141.521C63.7062 141.44 63.9287 141.38 64.0993 141.329C64.2551 141.284 64.3293 141.269 64.3367 141.277L64.3145 141.306Z" fill="#263238"/>
<path d="M53.3952 147.218C53.41 147.27 51.8894 147.76 49.9978 148.316C48.1063 148.873 46.556 149.273 46.5411 149.221C46.5263 149.169 48.0469 148.68 49.9385 148.123C51.83 147.567 53.3804 147.166 53.3952 147.218Z" fill="#263238"/>
<path d="M53.2562 154.718C53.2562 154.718 53.1968 154.317 53.182 153.657C53.1672 153.004 53.1598 152.099 53.182 151.098C53.2117 150.096 53.2636 149.191 53.3155 148.539C53.3675 147.886 53.4194 147.485 53.4491 147.485C53.4787 147.485 53.4713 147.893 53.4491 148.546C53.4268 149.266 53.3971 150.133 53.3675 151.098C53.3452 152.062 53.323 152.93 53.3007 153.649C53.2859 154.302 53.2636 154.71 53.2414 154.71L53.2562 154.718Z" fill="#263238"/>
<path d="M59.679 151.439C59.6271 151.439 59.4564 149.607 59.3007 147.33C59.1449 145.06 59.0633 143.213 59.1152 143.205C59.1671 143.198 59.3378 145.037 59.4935 147.315C59.6493 149.585 59.7309 151.432 59.679 151.432V151.439Z" fill="#263238"/>
<path d="M51.6832 143.035C51.6832 143.035 52.0986 142.998 52.7736 143.005C53.4486 143.005 54.3759 143.027 55.3995 143.064C56.4232 143.101 57.3504 143.139 58.018 143.183C58.6856 143.22 59.101 143.257 59.101 143.287C59.101 143.317 58.6856 143.324 58.0106 143.317C57.3356 143.309 56.4084 143.294 55.3847 143.257C54.361 143.22 53.4338 143.183 52.7588 143.139C52.0912 143.101 51.6758 143.064 51.6758 143.035H51.6832Z" fill="#263238"/>
<path d="M67.1021 165.414C67.1021 165.414 67.0872 165.34 67.0798 165.199C67.0724 165.036 67.065 164.828 67.0502 164.576C67.0279 164.035 67.0205 163.248 67.0427 162.277C67.0576 161.305 67.1243 160.148 67.243 158.872C67.3691 157.596 67.5546 156.187 67.8142 154.733C68.0812 153.271 68.4076 151.892 68.7414 150.653C69.0826 149.414 69.4313 148.301 69.7577 147.389C70.084 146.469 70.3659 145.735 70.581 145.23C70.6849 144.993 70.7665 144.808 70.8258 144.652C70.8852 144.518 70.9148 144.452 70.9223 144.459C70.9223 144.459 70.9074 144.533 70.8629 144.667C70.8036 144.822 70.7368 145.015 70.6478 145.253C70.4549 145.764 70.1953 146.506 69.8912 147.426C69.5796 148.346 69.2532 149.451 68.9194 150.697C68.6005 151.936 68.2815 153.316 68.0145 154.77C67.7548 156.224 67.562 157.626 67.4285 158.894C67.3024 160.17 67.2208 161.32 67.1837 162.291C67.1466 163.263 67.1317 164.042 67.1317 164.584C67.1317 164.836 67.1317 165.043 67.1243 165.207C67.1243 165.348 67.1169 165.422 67.1095 165.422L67.1021 165.414Z" fill="#263238"/>
<path d="M67.9655 154.777C67.9655 154.777 67.7355 155.066 67.3201 155.489C66.8973 155.905 66.3039 156.468 65.6215 157.069C64.939 157.663 64.3011 158.182 63.8338 158.545C63.3664 158.909 63.0623 159.117 63.0475 159.094C63.0326 159.072 63.2997 158.827 63.7522 158.442C64.2491 158.011 64.8426 157.492 65.4953 156.928C66.1481 156.357 66.7341 155.83 67.2237 155.393C67.6688 155 67.9432 154.762 67.9655 154.785V154.777Z" fill="#263238"/>
<path d="M73.1051 158.916C73.1051 158.916 72.8232 158.56 72.4153 157.959C71.9702 157.314 71.4213 156.506 70.813 155.615C70.1899 154.733 69.6262 153.939 69.1737 153.294C68.7508 152.7 68.4986 152.329 68.5209 152.314C68.5431 152.3 68.8399 152.641 69.2849 153.212C69.7374 153.783 70.3383 154.592 70.9762 155.504C71.6141 156.416 72.1556 157.262 72.5339 157.885C72.9123 158.508 73.1274 158.901 73.1051 158.916Z" fill="#263238"/>
<path d="M70.413 145.891C70.4426 145.935 68.7365 147.085 66.6002 148.457C64.4639 149.829 62.7058 150.905 62.6762 150.861C62.6465 150.816 64.3526 149.666 66.4889 148.294C68.6253 146.922 70.3833 145.846 70.4055 145.891H70.413Z" fill="#263238"/>
<path d="M75.2255 151.09C75.1884 151.127 74.0312 150.059 72.6441 148.702C71.257 147.344 70.1591 146.217 70.1962 146.172C70.2333 146.135 71.3905 147.203 72.7776 148.561C74.1648 149.918 75.2626 151.046 75.2255 151.09Z" fill="#263238"/>
<path d="M76.4351 150.987L77.9039 150.868C78.9424 150.779 79.9586 150.475 80.8636 149.963C81.3161 149.711 81.7686 149.459 82.2433 149.273C84.0533 148.546 86.0783 148.672 88.0292 148.576C91.2115 148.413 94.3641 147.612 97.2348 146.224C97.398 146.143 97.5463 146.024 97.6353 145.861C97.9395 145.312 97.3757 144.822 96.8935 144.526C94.4234 143.005 91.9088 141.462 89.1048 140.706C86.3009 139.949 83.126 140.075 80.7301 141.722C77.9261 143.65 76.9025 147.619 76.4277 150.994" fill="#455A64"/>
<path d="M97.6724 145.668C97.6724 145.668 97.5834 145.631 97.4202 145.549C97.2422 145.46 97.0123 145.334 96.723 145.186C96.1221 144.867 95.2542 144.4 94.1564 143.873C93.0585 143.354 91.7308 142.768 90.1804 142.345C88.6375 141.915 86.8647 141.692 85.0324 141.929C83.2077 142.167 81.5238 142.879 80.337 143.947C79.1427 145.008 78.4083 146.291 77.8891 147.382C77.3772 148.479 77.0583 149.414 76.8283 150.052C76.7171 150.356 76.6355 150.601 76.5687 150.794C76.5094 150.964 76.4723 151.053 76.4648 151.046C76.4648 151.046 76.4797 150.95 76.5316 150.779C76.5909 150.586 76.6651 150.341 76.7616 150.03C76.9693 149.384 77.266 148.435 77.7704 147.322C78.2748 146.217 79.0017 144.904 80.2183 143.814C81.4274 142.716 83.1483 141.981 85.0102 141.737C86.8721 141.499 88.682 141.737 90.2323 142.174C91.7901 142.612 93.1253 143.22 94.2157 143.754C95.3061 144.296 96.1666 144.785 96.76 145.119C97.0419 145.282 97.2645 145.416 97.4351 145.512C97.5908 145.601 97.665 145.653 97.665 145.661L97.6724 145.668Z" fill="#263238"/>
<path d="M94.15 147.56C94.1204 147.604 92.1991 146.365 89.8699 144.785C87.5333 143.213 85.664 141.9 85.6937 141.855C85.7234 141.811 87.6446 143.05 89.9738 144.63C92.3104 146.202 94.1797 147.515 94.15 147.56Z" fill="#263238"/>
<path d="M92.1098 141.759C92.1172 141.803 91.5015 141.944 90.7152 142.011C89.9289 142.078 89.291 142.033 89.291 141.996C89.291 141.952 89.9215 141.915 90.7004 141.855C91.4719 141.796 92.1024 141.722 92.1098 141.766V141.759Z" fill="#263238"/>
<path d="M83.712 140.669C83.7566 140.691 83.4747 141.128 83.0815 141.648C82.6884 142.167 82.3323 142.575 82.2878 142.553C82.2433 142.53 82.5252 142.093 82.9183 141.566C83.3115 141.047 83.6675 140.639 83.712 140.661V140.669Z" fill="#263238"/>
<path d="M85.4257 148.695C85.4257 148.695 85.0548 148.531 84.5059 148.198C83.9495 147.864 83.2003 147.367 82.4066 146.788C81.6055 146.21 80.9008 145.661 80.3964 145.253C79.892 144.852 79.5804 144.593 79.6027 144.57C79.6175 144.548 79.9513 144.771 80.4854 145.141C81.064 145.557 81.7613 146.069 82.5327 146.625C83.3264 147.204 84.0608 147.715 84.5949 148.079C85.129 148.442 85.4554 148.672 85.4405 148.695H85.4257Z" fill="#263238"/>
<path d="M78.6016 157.218C77.1996 156.847 75.538 158.212 75.2487 159.628C74.9594 161.045 75.4935 162.499 76.1166 163.805C77.4963 166.698 79.3953 169.375 81.9025 171.371C84.4098 173.366 87.5475 174.642 90.7446 174.627C90.1512 171.883 90.9004 169.012 90.574 166.223C90.2847 163.79 89.1498 161.461 87.4066 159.732C85.6634 158.004 83.3268 156.899 80.8863 156.632C79.9962 156.535 78.9577 156.394 78.6016 157.218Z" fill="#455A64"/>
<path d="M90.7386 174.62C90.7386 174.62 90.6644 174.598 90.5383 174.531C90.4122 174.464 90.2268 174.353 90.0117 174.182C89.574 173.848 89.0696 173.203 88.6319 172.335C88.4094 171.905 88.1572 171.43 87.9198 170.911C87.6825 170.392 87.4302 169.835 87.1706 169.249C86.9036 168.663 86.6069 168.063 86.2434 167.469C85.8799 166.876 85.4497 166.297 84.9675 165.741C84.0106 164.613 82.9795 163.641 82.0894 162.714C81.1918 161.787 80.4426 160.897 79.8937 160.081C79.3448 159.272 79.011 158.545 78.8256 158.034C78.7365 157.774 78.6698 157.574 78.6401 157.433C78.603 157.292 78.5882 157.218 78.5956 157.218C78.6104 157.218 78.692 157.507 78.8997 158.004C79.1074 158.501 79.4561 159.206 80.0124 159.999C80.5687 160.793 81.3179 161.668 82.2229 162.581C83.1205 163.501 84.1516 164.472 85.1159 165.607C85.598 166.178 86.0357 166.764 86.3992 167.365C86.7701 167.966 87.0594 168.582 87.3264 169.168C87.586 169.754 87.8308 170.31 88.0608 170.837C88.2981 171.356 88.5355 171.831 88.7506 172.268C89.1734 173.144 89.6408 173.774 90.0562 174.123C90.4641 174.479 90.7386 174.605 90.7312 174.627L90.7386 174.62Z" fill="#263238"/>
<path d="M83.5039 172.335C83.5039 172.335 83.5262 171.972 83.63 171.393C83.7413 170.814 83.9193 170.028 84.1641 169.168C84.4089 168.307 84.6685 167.536 84.8762 166.987C85.0839 166.438 85.2323 166.104 85.2545 166.119C85.2842 166.126 85.1729 166.475 85.0023 167.031C84.8317 167.588 84.5943 168.359 84.3495 169.22C84.1048 170.08 83.9119 170.859 83.7635 171.423C83.6226 171.986 83.5262 172.342 83.5039 172.335Z" fill="#263238"/>
<path d="M90.4691 165.6C90.4691 165.6 90.0834 165.533 89.4825 165.37C88.8817 165.214 88.0509 164.999 87.1237 164.791C86.1964 164.583 85.3508 164.42 84.7425 164.302C84.1269 164.183 83.7485 164.109 83.756 164.086C83.756 164.064 84.1491 164.086 84.7648 164.168C85.3879 164.25 86.2335 164.391 87.1682 164.598C88.0954 164.806 88.9336 165.043 89.527 165.236C90.1205 165.429 90.4839 165.57 90.4765 165.592L90.4691 165.6Z" fill="#263238"/>
<path d="M78.3121 167.558C78.3121 167.558 78.3418 167.135 78.4605 166.467C78.5866 165.8 78.7794 164.88 79.0391 163.879C79.2987 162.877 79.5806 161.98 79.7957 161.334C80.0182 160.689 80.174 160.303 80.1962 160.311C80.2259 160.318 80.1146 160.726 79.9292 161.379C79.7437 162.032 79.4915 162.929 79.2245 163.931C78.9649 164.932 78.7498 165.837 78.594 166.497C78.4382 167.157 78.3344 167.565 78.3047 167.558H78.3121Z" fill="#263238"/>
<path d="M87.2657 159.725C87.2657 159.777 85.5151 159.636 83.3639 159.406C81.2128 159.176 79.477 158.953 79.4844 158.894C79.4844 158.842 81.235 158.983 83.3862 159.213C85.5374 159.443 87.2731 159.665 87.2657 159.725Z" fill="#263238"/>
<path d="M85.9808 180.895C85.9808 180.947 79.8462 180.992 72.2726 180.992C64.699 180.992 58.5645 180.947 58.5645 180.895C58.5645 180.843 64.699 180.799 72.2726 180.799C79.8462 180.799 85.9808 180.843 85.9808 180.895Z" fill="#455A64"/>
<path d="M81.7165 188.795C81.7165 188.847 77.5848 188.892 72.4813 188.892C67.3778 188.892 63.2461 188.847 63.2461 188.795C63.2461 188.743 67.3778 188.699 72.4813 188.699C77.5848 188.699 81.7165 188.743 81.7165 188.795Z" fill="#455A64"/>
<path d="M81.5542 189.923C81.5542 189.975 77.4892 190.019 72.4822 190.019C67.4751 190.019 63.4102 189.975 63.4102 189.923C63.4102 189.871 67.4751 189.826 72.4822 189.826C77.4892 189.826 81.5542 189.871 81.5542 189.923Z" fill="#455A64"/>
<path d="M81.872 187.861C81.872 187.913 77.5919 187.957 72.3178 187.957C67.0438 187.957 62.7637 187.913 62.7637 187.861C62.7637 187.809 67.0438 187.764 72.3178 187.764C77.5919 187.764 81.872 187.809 81.872 187.861Z" fill="#455A64"/>
<path d="M259.407 117.803H281.217V120.797H259.407V117.803Z" fill="#263238"/>
<path d="M259.371 120.838H281.252V117.768H259.371V120.838ZM281.181 120.761H259.448V117.839H281.181V120.761Z" fill="#263238"/>
<path d="M279.191 119.803L276.054 135.281H264.438L261.401 120.797L279.191 119.803Z" fill="#263238"/>
<path d="M279.191 133.813L277.516 136.115H263.402L261.401 133.813H279.191Z" fill="#455A64"/>
<path d="M271.126 120.253C271.167 120.253 271.226 113.082 271.25 104.242C271.274 95.3972 271.262 88.2263 271.214 88.2263C271.173 88.2263 271.114 95.3972 271.09 104.242C271.066 113.088 271.078 120.253 271.126 120.253Z" fill="#263238"/>
<path d="M266.267 102.314C266.267 102.314 266.285 102.373 266.326 102.479C266.379 102.603 266.444 102.757 266.521 102.941C266.563 103.041 266.61 103.154 266.663 103.272C266.711 103.396 266.758 103.532 266.811 103.68C266.865 103.828 266.918 103.982 266.977 104.148C267.036 104.313 267.084 104.491 267.137 104.68C267.374 105.426 267.563 106.337 267.747 107.349C267.907 108.366 268.025 109.496 268.084 110.685C268.191 113.064 268.055 115.223 267.913 116.78C267.842 117.56 267.771 118.188 267.717 118.62C267.694 118.821 267.676 118.986 267.664 119.122C267.652 119.235 267.652 119.3 267.658 119.3C267.658 119.3 267.676 119.241 267.699 119.128C267.723 118.998 267.747 118.833 267.782 118.631C267.853 118.199 267.942 117.572 268.025 116.791C268.197 115.235 268.351 113.07 268.244 110.68C268.185 109.484 268.061 108.348 267.895 107.325C267.705 106.307 267.504 105.39 267.25 104.651C267.19 104.461 267.137 104.284 267.078 104.118C267.013 103.952 266.954 103.799 266.9 103.651C266.847 103.509 266.794 103.373 266.74 103.248C266.687 103.124 266.634 103.018 266.586 102.917C266.498 102.734 266.421 102.58 266.367 102.461C266.314 102.361 266.285 102.308 266.279 102.308L266.267 102.314Z" fill="#263238"/>
<path d="M266.83 96.5095C266.83 96.5095 266.848 96.5924 266.901 96.7462C266.96 96.9119 267.031 97.1367 267.126 97.4148C267.179 97.5627 267.233 97.7224 267.292 97.894C267.345 98.0715 267.404 98.2667 267.47 98.4738C267.6 98.888 267.748 99.3613 267.878 99.8879C267.949 100.154 268.02 100.426 268.097 100.716C268.162 101.006 268.233 101.308 268.304 101.621C268.458 102.243 268.565 102.923 268.707 103.633C268.95 105.059 269.157 106.633 269.305 108.289C269.441 109.952 269.5 111.538 269.524 112.981C269.524 114.425 269.512 115.726 269.453 116.821C269.435 117.365 269.4 117.862 269.37 118.294C269.346 118.726 269.317 119.099 269.287 119.407C269.263 119.702 269.246 119.933 269.234 120.111C269.222 120.27 269.222 120.353 269.228 120.359C269.228 120.359 269.246 120.276 269.269 120.117C269.287 119.945 269.317 119.708 269.352 119.418C269.388 119.117 269.423 118.744 269.459 118.306C269.494 117.874 269.536 117.377 269.565 116.833C269.636 115.738 269.666 114.437 269.672 112.987C269.66 111.538 269.601 109.946 269.465 108.278C269.317 106.615 269.104 105.035 268.855 103.609C268.713 102.899 268.594 102.219 268.435 101.598C268.364 101.284 268.287 100.982 268.221 100.693C268.144 100.403 268.067 100.13 267.991 99.8642C267.854 99.3317 267.695 98.8643 267.558 98.4502C267.493 98.2431 267.428 98.0537 267.369 97.8763C267.304 97.7047 267.245 97.5449 267.191 97.397C267.085 97.1248 267.002 96.9059 266.937 96.7403C266.878 96.5924 266.842 96.5154 266.836 96.5154L266.83 96.5095Z" fill="#263238"/>
<path d="M272.506 121.525C272.506 121.525 272.512 121.495 272.518 121.442C272.518 121.377 272.529 121.294 272.535 121.193C272.553 120.963 272.571 120.649 272.601 120.247C272.654 119.412 272.725 118.217 272.82 116.756C273.009 113.809 273.281 109.733 273.779 105.254C274.033 103.012 274.329 100.888 274.631 98.9589C274.791 97.9945 274.939 97.0774 275.111 96.2255C275.265 95.3735 275.43 94.5807 275.584 93.8588C275.726 93.137 275.886 92.4862 276.016 91.9123C276.141 91.3384 276.265 90.8473 276.366 90.4509C276.461 90.0604 276.537 89.7468 276.591 89.5279C276.614 89.4273 276.632 89.3504 276.644 89.2853C276.656 89.2321 276.662 89.2025 276.656 89.2025C276.656 89.2025 276.644 89.2262 276.626 89.2794C276.609 89.3386 276.585 89.4214 276.555 89.5161C276.496 89.735 276.407 90.0427 276.301 90.4332C276.188 90.8296 276.058 91.3206 275.922 91.8886C275.786 92.4625 275.62 93.1074 275.466 93.8293C275.306 94.5511 275.134 95.3439 274.975 96.1959C274.803 97.0479 274.649 97.9649 274.483 98.9293C274.169 100.858 273.867 102.988 273.619 105.23C273.122 109.715 272.867 113.792 272.701 116.744C272.618 118.217 272.565 119.412 272.529 120.241C272.512 120.643 272.506 120.963 272.494 121.193C272.494 121.294 272.494 121.377 272.494 121.442C272.494 121.495 272.494 121.525 272.494 121.525H272.506Z" fill="#263238"/>
<path d="M271.303 91.6756C271.398 90.6579 272.428 89.8947 273.447 89.8829C274.465 89.871 275.418 90.4863 276.046 91.291C276.667 92.0957 277.016 93.0837 277.295 94.0659C277.981 96.4562 278.36 98.9707 278.064 101.444C277.768 103.917 276.768 106.349 274.992 108.1C274.702 108.384 274.329 108.668 273.932 108.585C273.713 108.538 273.535 108.39 273.376 108.242C269.889 105.094 267.876 100.379 268.012 95.6811C268.041 94.7403 268.166 93.7641 268.687 92.9772C269.208 92.1903 270.421 91.362 271.309 91.6756" fill="#455A64"/>
<path d="M271.216 88.2263C275.537 85.6763 279.859 83.1263 284.181 80.5822C284.311 80.5052 284.459 80.4106 284.495 80.2627C284.548 80.0733 284.4 79.884 284.264 79.742C282.482 77.902 279.889 76.837 277.337 77.0204C274.78 77.2038 272.323 78.677 271.074 80.9135C269.824 83.1499 269.783 86.1023 271.216 88.2263Z" fill="#455A64"/>
<path d="M282.316 78.1386C282.316 78.1386 282.257 78.1268 282.145 78.1149C282.032 78.1149 281.866 78.0913 281.653 78.0913C281.227 78.0794 280.605 78.109 279.854 78.2333C279.102 78.3575 278.214 78.6001 277.29 79.0083C276.367 79.4166 275.413 80.0141 274.537 80.7892C273.673 81.5761 272.986 82.4695 272.489 83.3452C271.986 84.2208 271.66 85.0787 271.459 85.8183C271.257 86.5578 271.169 87.1673 271.139 87.5932C271.115 87.8062 271.127 87.8595 271.121 87.9719C271.121 88.0843 271.216 88.2559 271.222 88.2559C271.234 88.2559 271.151 88.0192 271.204 87.5992C271.251 87.1791 271.358 86.5756 271.571 85.8479C271.98 84.4042 272.933 82.4577 274.65 80.9075C276.367 79.3574 278.397 78.606 279.877 78.3398C280.623 78.2037 281.233 78.1563 281.659 78.1504C282.086 78.1386 282.316 78.1504 282.316 78.1327V78.1386Z" fill="#263238"/>
<path d="M272.974 82.9489C272.974 82.9489 273.216 83.0849 273.631 83.2447C274.045 83.4104 274.619 83.6174 275.265 83.8186C275.91 84.0257 276.502 84.1854 276.934 84.2919C277.366 84.3984 277.639 84.4458 277.639 84.428C277.639 84.4043 277.384 84.3215 276.964 84.1854C276.484 84.0375 275.928 83.86 275.312 83.6707C274.696 83.4754 274.14 83.292 273.666 83.1382C273.246 83.0021 272.979 82.9252 272.974 82.943V82.9489Z" fill="#263238"/>
<path d="M275.016 77.4699C274.975 77.4699 274.88 78.1148 274.862 78.9135C274.838 79.7182 274.898 80.369 274.945 80.3631C274.986 80.3631 274.998 79.7123 275.022 78.9135C275.04 78.1148 275.063 77.4699 275.022 77.464L275.016 77.4699Z" fill="#263238"/>
<path d="M284.299 80.4342C284.299 80.4342 283.944 80.2863 283.358 80.1029C282.765 79.9195 281.948 79.6888 281.031 79.4699C280.113 79.2509 279.278 79.0794 278.675 78.9729C278.065 78.8664 277.686 78.819 277.686 78.8368C277.686 78.8604 278.053 78.9433 278.651 79.0794C279.249 79.2154 280.084 79.3989 280.995 79.6178C281.907 79.8367 282.73 80.0497 283.328 80.2035C283.926 80.3573 284.293 80.452 284.299 80.4283V80.4342Z" fill="#263238"/>
<path d="M276.686 89.4688C277.799 88.6228 278.983 88.4571 280.38 88.5104C281.777 88.5636 283.139 88.9896 284.423 89.5517C286.608 90.5101 288.662 91.9183 289.971 93.9181C291.279 95.912 291.729 98.5567 290.752 100.734C290.657 100.953 290.527 101.178 290.308 101.272C290.077 101.373 289.817 101.296 289.574 101.219C287.088 100.409 284.583 99.5921 282.298 98.32C280.013 97.0479 277.929 95.2848 276.703 92.9774C276.407 92.4212 276.165 91.8295 276.117 91.2024C276.07 90.5752 276.242 89.9126 276.686 89.4688Z" fill="#455A64"/>
<path d="M276.661 89.2087C276.661 89.2087 276.721 89.2383 276.839 89.2797C276.975 89.327 277.147 89.3862 277.36 89.4572C277.473 89.4927 277.603 89.54 277.739 89.5815C277.875 89.6288 278.023 89.6939 278.177 89.753C278.491 89.8832 278.858 90.0074 279.243 90.1968C279.438 90.2855 279.639 90.3802 279.852 90.4749C280.066 90.5695 280.273 90.6938 280.498 90.8062C280.948 91.0251 281.404 91.3091 281.889 91.599C282.842 92.2025 283.849 92.9243 284.831 93.7822C285.802 94.646 286.655 95.5572 287.371 96.421C287.715 96.8647 288.058 97.2848 288.33 97.699C288.472 97.906 288.62 98.1013 288.739 98.2965C288.863 98.4918 288.981 98.6811 289.094 98.8645C289.331 99.2195 289.502 99.5686 289.668 99.8644C289.751 100.012 289.828 100.148 289.893 100.279C289.958 100.409 290.012 100.527 290.065 100.634C290.166 100.835 290.248 101 290.308 101.125C290.367 101.237 290.396 101.296 290.402 101.29C290.402 101.29 290.385 101.225 290.337 101.107C290.278 100.977 290.207 100.805 290.118 100.598C290.071 100.486 290.018 100.367 289.958 100.231C289.893 100.101 289.822 99.9591 289.745 99.8112C289.585 99.5094 289.42 99.1603 289.189 98.7935C289.076 98.6101 288.964 98.4149 288.839 98.2137C288.715 98.0125 288.573 97.8173 288.431 97.6043C288.159 97.1783 287.821 96.7582 287.472 96.3086C286.755 95.427 285.903 94.5099 284.92 93.6402C283.932 92.7764 282.913 92.0546 281.948 91.4511C281.457 91.1671 280.995 90.8831 280.539 90.6701C280.314 90.5577 280.101 90.4394 279.888 90.3447C279.675 90.25 279.468 90.1613 279.272 90.0725C278.882 89.8891 278.515 89.7708 278.195 89.6525C278.035 89.5933 277.887 89.54 277.751 89.4927C277.615 89.4513 277.484 89.4158 277.366 89.3803C277.147 89.3152 276.969 89.2679 276.833 89.2265C276.709 89.191 276.65 89.1791 276.644 89.185L276.661 89.2087Z" fill="#263238"/>
<path d="M285.377 93.9241C285.365 93.9656 286.579 94.356 288.089 94.7998C289.598 95.2435 290.836 95.563 290.848 95.5216C290.859 95.4802 289.646 95.0897 288.136 94.646C286.626 94.2022 285.389 93.8827 285.377 93.9241Z" fill="#263238"/>
<path d="M285.488 99.9057C285.488 99.9057 285.536 99.5862 285.547 99.0597C285.559 98.539 285.565 97.8172 285.547 97.0184C285.524 96.2197 285.482 95.4979 285.441 94.9772C285.399 94.4566 285.358 94.1371 285.334 94.1371C285.311 94.1371 285.316 94.4625 285.334 94.9832C285.352 95.5571 285.376 96.2493 285.399 97.0184C285.417 97.7876 285.435 98.4798 285.453 99.0537C285.464 99.5744 285.482 99.8998 285.5 99.8998L285.488 99.9057Z" fill="#263238"/>
<path d="M280.362 97.2905C280.403 97.2905 280.539 95.8292 280.664 94.0128C280.788 92.2023 280.853 90.7291 280.812 90.7232C280.77 90.7172 280.634 92.1846 280.51 94.0009C280.386 95.8114 280.32 97.2846 280.362 97.2846V97.2905Z" fill="#263238"/>
<path d="M286.744 90.5871C286.744 90.5871 286.413 90.5575 285.874 90.5634C285.335 90.5634 284.595 90.5812 283.778 90.6107C282.961 90.6403 282.221 90.6699 281.688 90.7054C281.155 90.735 280.824 90.7646 280.824 90.7882C280.824 90.8119 281.155 90.8178 281.694 90.8119C282.233 90.806 282.973 90.7941 283.79 90.7646C284.607 90.735 285.347 90.7054 285.886 90.6699C286.418 90.6403 286.75 90.6107 286.75 90.5871H286.744Z" fill="#263238"/>
<path d="M274.438 108.437C274.438 108.437 274.45 108.378 274.456 108.266C274.462 108.136 274.468 107.97 274.479 107.769C274.497 107.337 274.503 106.71 274.485 105.935C274.474 105.16 274.42 104.237 274.326 103.219C274.225 102.201 274.077 101.077 273.87 99.9175C273.657 98.752 273.396 97.6515 273.13 96.6634C272.857 95.6754 272.579 94.7879 272.319 94.0601C272.058 93.3265 271.833 92.7408 271.661 92.3384C271.579 92.1491 271.513 92.0012 271.466 91.8769C271.419 91.7704 271.395 91.7172 271.389 91.7231C271.389 91.7231 271.401 91.7823 271.436 91.8888C271.484 92.013 271.537 92.1668 271.608 92.3562C271.762 92.7644 271.969 93.3561 272.212 94.0897C272.461 94.8234 272.721 95.7049 272.988 96.6989C273.242 97.687 273.497 98.7875 273.71 99.9471C273.917 101.107 274.071 102.225 274.178 103.237C274.278 104.254 274.343 105.171 274.373 105.946C274.402 106.722 274.414 107.343 274.414 107.775C274.414 107.976 274.414 108.142 274.42 108.272C274.42 108.384 274.426 108.443 274.432 108.443L274.438 108.437Z" fill="#263238"/>
<path d="M273.748 99.953C273.748 99.953 273.932 100.184 274.263 100.521C274.601 100.852 275.074 101.302 275.619 101.781C276.164 102.255 276.673 102.669 277.046 102.959C277.419 103.249 277.662 103.414 277.673 103.396C277.685 103.379 277.472 103.183 277.111 102.876C276.714 102.533 276.241 102.118 275.72 101.669C275.199 101.213 274.731 100.793 274.34 100.444C273.985 100.131 273.766 99.9412 273.748 99.9589V99.953Z" fill="#263238"/>
<path d="M269.647 103.254C269.647 103.254 269.872 102.97 270.197 102.491C270.553 101.976 270.991 101.332 271.476 100.622C271.974 99.9175 272.423 99.2844 272.785 98.7696C273.122 98.2963 273.323 98.0005 273.306 97.9887C273.288 97.9768 273.051 98.249 272.696 98.7046C272.335 99.1601 271.855 99.805 271.346 100.533C270.837 101.261 270.405 101.935 270.103 102.432C269.801 102.929 269.629 103.243 269.647 103.254Z" fill="#263238"/>
<path d="M271.796 92.8648C271.772 92.9003 273.134 93.8174 274.839 94.912C276.544 96.0065 277.947 96.8644 277.97 96.8289C277.994 96.7934 276.632 95.8764 274.927 94.7818C273.222 93.6872 271.819 92.8293 271.802 92.8648H271.796Z" fill="#263238"/>
<path d="M267.954 97.0123C267.984 97.0419 268.907 96.1899 270.014 95.1072C271.121 94.0244 271.998 93.1251 271.968 93.0896C271.938 93.06 271.015 93.912 269.908 94.9947C268.801 96.0775 267.925 96.9768 267.954 97.0123Z" fill="#263238"/>
<path d="M266.99 96.9298L265.818 96.8351C264.989 96.7641 264.178 96.5216 263.456 96.1133C263.095 95.9122 262.734 95.711 262.355 95.5631C260.91 94.9833 259.294 95.0838 257.737 95.0069C255.197 94.8768 252.681 94.2378 250.39 93.1314C250.26 93.0663 250.141 92.9716 250.07 92.8415C249.827 92.4036 250.277 92.0131 250.662 91.7765C252.634 90.5636 254.641 89.333 256.878 88.7295C259.116 88.126 261.65 88.2266 263.562 89.54C265.8 91.0783 266.617 94.2437 266.996 96.9357" fill="#455A64"/>
<path d="M250.041 92.6876C250.041 92.6876 250.112 92.658 250.242 92.5929C250.384 92.5219 250.568 92.4213 250.799 92.303C251.278 92.0486 251.971 91.6758 252.847 91.2558C253.723 90.8416 254.783 90.3742 256.02 90.0369C257.252 89.6938 258.667 89.5163 260.129 89.7056C261.585 89.8949 262.929 90.4629 263.876 91.3149C264.83 92.161 265.416 93.1845 265.83 94.0543C266.239 94.9299 266.493 95.6754 266.677 96.1842C266.766 96.4268 266.831 96.6221 266.884 96.7759C266.931 96.912 266.961 96.983 266.967 96.9771C266.967 96.9771 266.955 96.9001 266.914 96.7641C266.866 96.6102 266.807 96.415 266.73 96.1665C266.564 95.6518 266.327 94.8944 265.925 94.0069C265.522 93.1254 264.942 92.0782 263.971 91.2084C263.006 90.3328 261.633 89.747 260.147 89.5518C258.661 89.3625 257.216 89.5518 255.979 89.9009C254.736 90.2499 253.67 90.7351 252.8 91.1611C251.929 91.593 251.243 91.9835 250.769 92.2497C250.544 92.3799 250.366 92.4864 250.23 92.5633C250.106 92.6343 250.047 92.6757 250.047 92.6816L250.041 92.6876Z" fill="#263238"/>
<path d="M252.852 94.1964C252.876 94.2319 254.409 93.2438 256.268 91.9836C258.133 90.7293 259.625 89.6821 259.601 89.6466C259.578 89.6111 258.044 90.5991 256.185 91.8594C254.32 93.1137 252.829 94.1609 252.852 94.1964Z" fill="#263238"/>
<path d="M254.481 89.5697C254.475 89.6052 254.966 89.7176 255.594 89.7709C256.221 89.8241 256.73 89.7886 256.73 89.7591C256.73 89.7236 256.227 89.694 255.606 89.6466C254.99 89.5993 254.487 89.5401 254.481 89.5756V89.5697Z" fill="#263238"/>
<path d="M261.182 88.7C261.146 88.7177 261.371 89.0668 261.685 89.481C261.999 89.8951 262.283 90.2205 262.319 90.2028C262.354 90.185 262.129 89.8359 261.815 89.4159C261.502 89.0017 261.217 88.6763 261.182 88.6941V88.7Z" fill="#263238"/>
<path d="M259.815 95.1016C259.815 95.1016 260.111 94.9714 260.549 94.7052C260.993 94.439 261.591 94.0425 262.224 93.5811C262.864 93.1196 263.426 92.6817 263.829 92.3563C264.231 92.0368 264.48 91.8298 264.462 91.812C264.45 91.7943 264.184 91.9717 263.757 92.2676C263.296 92.5989 262.739 93.0071 262.124 93.4509C261.49 93.9124 260.904 94.3206 260.478 94.6105C260.051 94.9004 259.791 95.0839 259.803 95.1016H259.815Z" fill="#263238"/>
<path d="M265.26 101.899C266.379 101.604 267.705 102.692 267.936 103.822C268.166 104.952 267.74 106.112 267.243 107.153C266.142 109.461 264.626 111.597 262.625 113.188C260.624 114.78 258.12 115.797 255.568 115.786C256.042 113.596 255.444 111.307 255.704 109.082C255.935 107.141 256.841 105.284 258.232 103.905C259.624 102.527 261.488 101.645 263.436 101.432C264.147 101.355 264.975 101.243 265.26 101.899Z" fill="#455A64"/>
<path d="M255.573 115.78C255.573 115.78 255.632 115.762 255.733 115.709C255.833 115.655 255.981 115.567 256.153 115.43C256.502 115.164 256.905 114.649 257.254 113.957C257.432 113.614 257.633 113.235 257.822 112.821C258.012 112.407 258.213 111.963 258.42 111.496C258.633 111.029 258.87 110.549 259.16 110.076C259.45 109.603 259.794 109.141 260.179 108.697C260.942 107.798 261.765 107.023 262.476 106.283C263.192 105.544 263.79 104.834 264.228 104.183C264.666 103.538 264.933 102.958 265.081 102.55C265.152 102.343 265.205 102.183 265.229 102.071C265.258 101.958 265.27 101.899 265.264 101.899C265.252 101.899 265.187 102.13 265.021 102.526C264.856 102.923 264.577 103.485 264.133 104.118C263.689 104.751 263.091 105.449 262.369 106.177C261.653 106.911 260.83 107.686 260.06 108.591C259.675 109.046 259.326 109.514 259.036 109.993C258.74 110.472 258.509 110.963 258.296 111.431C258.089 111.898 257.893 112.342 257.71 112.762C257.52 113.176 257.331 113.555 257.159 113.904C256.822 114.602 256.449 115.105 256.117 115.383C255.792 115.667 255.573 115.768 255.579 115.785L255.573 115.78Z" fill="#263238"/>
<path d="M261.348 113.957C261.348 113.957 261.33 113.667 261.247 113.206C261.158 112.744 261.016 112.117 260.821 111.431C260.625 110.745 260.418 110.129 260.252 109.691C260.087 109.254 259.968 108.987 259.95 108.999C259.927 109.005 260.016 109.283 260.152 109.727C260.288 110.171 260.477 110.786 260.673 111.472C260.868 112.159 261.022 112.78 261.14 113.229C261.253 113.679 261.33 113.963 261.348 113.957Z" fill="#263238"/>
<path d="M255.789 108.585C255.789 108.585 256.096 108.532 256.576 108.402C257.056 108.277 257.719 108.106 258.459 107.94C259.199 107.774 259.874 107.644 260.359 107.55C260.85 107.455 261.152 107.396 261.146 107.378C261.146 107.36 260.833 107.378 260.341 107.443C259.844 107.508 259.169 107.621 258.423 107.786C257.683 107.952 257.014 108.141 256.54 108.295C256.067 108.449 255.777 108.561 255.783 108.579L255.789 108.585Z" fill="#263238"/>
<path d="M265.49 110.147C265.49 110.147 265.466 109.81 265.372 109.277C265.271 108.745 265.117 108.011 264.91 107.212C264.703 106.414 264.478 105.698 264.306 105.183C264.129 104.668 264.004 104.361 263.986 104.366C263.963 104.372 264.052 104.698 264.2 105.218C264.348 105.739 264.549 106.455 264.762 107.254C264.969 108.052 265.141 108.774 265.265 109.301C265.39 109.827 265.472 110.153 265.496 110.147H265.49Z" fill="#263238"/>
<path d="M258.344 103.899C258.344 103.94 259.742 103.828 261.458 103.645C263.175 103.461 264.561 103.284 264.555 103.236C264.555 103.195 263.157 103.307 261.441 103.491C259.724 103.674 258.338 103.852 258.344 103.899Z" fill="#263238"/>
<path d="M259.371 120.785C259.371 120.826 264.267 120.862 270.311 120.862C276.356 120.862 281.252 120.826 281.252 120.785C281.252 120.744 276.356 120.708 270.311 120.708C264.267 120.708 259.371 120.744 259.371 120.785Z" fill="#455A64"/>
<path d="M262.774 127.086C262.774 127.128 266.072 127.163 270.145 127.163C274.218 127.163 277.516 127.128 277.516 127.086C277.516 127.045 274.218 127.009 270.145 127.009C266.072 127.009 262.774 127.045 262.774 127.086Z" fill="#455A64"/>
<path d="M262.904 127.986C262.904 128.027 266.148 128.063 270.144 128.063C274.14 128.063 277.385 128.027 277.385 127.986C277.385 127.944 274.14 127.909 270.144 127.909C266.148 127.909 262.904 127.944 262.904 127.986Z" fill="#455A64"/>
<path d="M262.65 126.341C262.65 126.382 266.066 126.418 270.275 126.418C274.484 126.418 277.9 126.382 277.9 126.341C277.9 126.299 274.484 126.264 270.275 126.264C266.066 126.264 262.65 126.299 262.65 126.341Z" fill="#455A64"/>
<path d="M159.74 31.9543C157.226 33.5627 154.234 34.4155 151.249 34.3781C150.299 34.3632 149.341 34.2659 148.399 34.3482C147.449 34.4305 146.484 34.7148 145.788 35.3656C145.092 36.0164 144.741 37.0862 145.115 37.9615C145.653 39.1883 147.389 39.6746 147.651 40.9912C147.838 41.9338 147.135 42.839 146.342 43.3851C145.549 43.9312 144.614 44.2978 143.948 44.9935C143.147 45.8239 142.833 47.1031 143.162 48.2102C143.491 49.3174 144.449 50.2151 145.579 50.4769C146.259 50.634 147.09 50.634 147.456 51.225C147.711 51.6365 147.621 52.1676 147.554 52.6464C147.419 53.6563 147.471 54.7336 147.943 55.6387C148.414 56.5439 149.364 57.2546 150.381 57.2172C150.778 57.2022 151.174 57.0825 151.571 57.09C151.967 57.0975 152.409 57.2845 152.528 57.666C152.611 57.9279 152.521 58.2122 152.491 58.4889C152.349 59.828 153.68 60.8753 154.975 61.2643C157.563 62.0349 160.451 61.2943 162.627 59.7008C164.804 58.1074 166.338 55.7584 167.355 53.2598C168.373 50.7612 168.926 48.098 169.472 45.4573" fill="#263238"/>
<path d="M188.633 98.8034C188.371 98.0778 187.884 97.4569 187.353 96.8958C183.935 93.2526 178.75 91.5171 173.761 91.7938C168.771 92.0781 163.998 94.2476 160.116 97.3895C158.043 99.0652 155.26 102.297 154.527 104.855C157.565 105.589 162.098 104.571 164.963 103.322C167.828 102.073 170.656 100.561 173.768 100.247C177.366 99.8806 180.905 101.16 184.451 101.878C185.161 102.02 185.895 102.147 186.613 102.05C187.331 101.96 188.057 101.624 188.461 101.018C188.887 100.374 188.894 99.5216 188.633 98.7959V98.8034Z" fill="#FF725E"/>
<g opacity="0.3">
<path d="M188.633 98.8034C188.371 98.0778 187.884 97.4569 187.353 96.8958C183.935 93.2526 178.75 91.5171 173.761 91.7938C168.771 92.0781 163.998 94.2476 160.116 97.3895C158.043 99.0652 155.26 102.297 154.527 104.855C157.565 105.589 162.098 104.571 164.963 103.322C167.828 102.073 170.656 100.561 173.768 100.247C177.366 99.8806 180.905 101.16 184.451 101.878C185.161 102.02 185.895 102.147 186.613 102.05C187.331 101.96 188.057 101.624 188.461 101.018C188.887 100.374 188.894 99.5216 188.633 98.7959V98.8034Z" fill="black"/>
</g>
<path d="M186.148 142.17L194.819 136.552C194.819 136.552 203.437 143.479 205.142 142.597L194.856 125.398L180.994 133.597L186.156 142.17H186.148Z" fill="#FF725E"/>
<path d="M190.892 131.682C190.788 131.293 191.02 130.844 191.401 130.717C191.783 130.59 192.246 130.829 192.359 131.218C192.471 131.6 192.209 132.153 191.813 132.236C191.416 132.318 190.892 132.011 190.87 131.607" fill="#E0E0E0"/>
<g opacity="0.6">
<path d="M194.858 125.398L193.496 126.281L203.872 142.44C203.872 142.44 204.665 143.008 205.151 142.597L194.865 125.398H194.858Z" fill="white"/>
</g>
<path d="M194.893 136.881C194.975 136.829 194.766 136.387 194.788 135.811C194.796 135.235 195.035 134.809 194.953 134.749C194.893 134.682 194.467 135.108 194.444 135.804C194.422 136.5 194.826 136.949 194.893 136.881Z" fill="#263238"/>
<path d="M196.72 138.243C196.81 138.213 196.735 137.764 196.922 137.27C197.094 136.769 197.431 136.462 197.379 136.387C197.341 136.298 196.817 136.537 196.601 137.158C196.376 137.779 196.638 138.295 196.72 138.25V138.243Z" fill="#263238"/>
<path d="M199.493 137.973C199.463 137.884 198.977 138.018 198.648 138.512C198.311 138.998 198.371 139.507 198.461 139.5C198.558 139.5 198.655 139.103 198.932 138.707C199.201 138.303 199.538 138.063 199.501 137.981L199.493 137.973Z" fill="#263238"/>
<path d="M192.777 137.943C192.829 137.861 192.485 137.547 192.231 137.053C191.969 136.567 191.909 136.103 191.812 136.096C191.722 136.081 191.625 136.627 191.931 137.21C192.231 137.786 192.732 138.026 192.777 137.943Z" fill="#263238"/>
<path opacity="0.3" d="M187.526 129.729L191.468 138.721L190.144 139.656L185.596 130.889L187.526 129.729Z" fill="black"/>
<path d="M182.364 94.457C182.005 94.457 170.35 94.2027 164.059 98.3545L159.077 101.167L159.211 106.217C159.211 106.217 158.141 107.997 158.381 109.067C158.62 110.137 158.343 114.648 158.343 114.648C158.343 114.648 156.481 114.768 156.241 117.969C156.241 117.969 153.653 119.039 152.516 120.939C151.379 122.839 139.739 144.212 139.028 147.661C138.317 151.11 137.838 157.162 140.449 159.181C143.06 161.201 148.88 160.491 148.88 160.491C148.88 160.491 149.711 162.982 154.82 163.101C159.929 163.221 167.762 157.281 167.762 157.281L191.274 141.25L185.716 129.34L177.502 134.367L186.292 124.156C186.292 124.156 190.332 117.266 189.142 110.025C188.259 104.646 182.372 94.472 182.372 94.472L182.364 94.457Z" fill="#263238"/>
<path d="M184.376 98.1525C184.376 98.1525 184.279 98.1675 184.1 98.1675C183.89 98.1675 183.628 98.1675 183.307 98.1675C182.618 98.1675 181.623 98.145 180.397 98.1675C179.17 98.1824 177.711 98.2273 176.095 98.3994C174.487 98.5715 172.721 98.8707 170.956 99.4766C167.41 100.674 164.552 102.581 162.525 103.935C161.537 104.623 160.722 105.185 160.131 105.588C159.862 105.768 159.652 105.918 159.48 106.037C159.331 106.135 159.248 106.187 159.241 106.179C159.233 106.172 159.308 106.112 159.45 106C159.615 105.873 159.824 105.716 160.079 105.514C160.625 105.095 161.425 104.504 162.428 103.793C164.44 102.402 167.298 100.457 170.881 99.2447C172.669 98.6388 174.449 98.3396 176.073 98.175C177.696 98.0179 179.162 97.9879 180.389 97.9954C181.616 97.9954 182.611 98.0403 183.299 98.0777C183.621 98.1002 183.883 98.1151 184.092 98.1226C184.272 98.1376 184.369 98.1451 184.369 98.1525H184.376Z" fill="#455A64"/>
<path d="M160.386 101.856C160.386 101.856 160.094 102.05 160.012 102.536C159.975 102.768 160.035 103.067 160.259 103.269C160.476 103.471 160.85 103.584 161.164 103.456C161.478 103.329 161.673 102.993 161.695 102.693C161.718 102.387 161.553 102.132 161.366 101.99C160.977 101.691 160.626 101.796 160.626 101.751C160.626 101.736 160.693 101.698 160.85 101.683C161 101.669 161.231 101.698 161.463 101.856C161.695 101.998 161.927 102.312 161.905 102.701C161.897 103.075 161.665 103.494 161.246 103.673C160.82 103.838 160.364 103.688 160.102 103.427C159.818 103.157 159.773 102.768 159.84 102.506C159.9 102.23 160.049 102.05 160.169 101.96C160.289 101.863 160.371 101.848 160.379 101.856H160.386Z" fill="#455A64"/>
<path d="M164.568 102.469C164.568 102.469 164.381 102.372 164.149 102.132C163.924 101.893 163.603 101.534 163.476 101.003C163.363 100.472 163.49 100.008 163.588 99.6936C163.692 99.3794 163.782 99.1999 163.812 99.2074C163.842 99.2149 163.812 99.4168 163.745 99.7385C163.692 100.053 163.603 100.502 163.7 100.95C163.812 101.407 164.081 101.766 164.268 102.02C164.463 102.282 164.583 102.439 164.56 102.469H164.568Z" fill="#455A64"/>
<path d="M165.554 101.871C165.554 101.871 165.374 101.788 165.157 101.564C164.948 101.339 164.701 100.973 164.566 100.516C164.312 99.5889 164.499 98.8258 164.544 98.8408C164.626 98.8408 164.559 99.5964 164.798 100.449C165.053 101.302 165.621 101.811 165.561 101.871H165.554Z" fill="#455A64"/>
<path d="M178.138 98.1526C178.138 98.1526 178.093 97.9431 178.056 97.6064C178.018 97.2773 177.966 96.8135 177.772 96.3571C177.585 95.8933 177.285 95.5417 177.061 95.2949C176.836 95.048 176.687 94.8984 176.709 94.8685C176.732 94.846 176.911 94.9507 177.181 95.1752C177.442 95.3996 177.787 95.7587 177.988 96.2674C178.198 96.7686 178.228 97.2623 178.22 97.6064C178.213 97.9506 178.161 98.16 178.138 98.16V98.1526Z" fill="#455A64"/>
<path d="M179.665 98.1226C179.665 98.1226 179.627 97.9131 179.627 97.5765C179.627 97.2473 179.657 96.7835 179.523 96.3272C179.373 95.8709 179.096 95.4968 178.932 95.2125C178.76 94.9283 178.655 94.7413 178.685 94.7263C178.707 94.7113 178.857 94.8535 179.066 95.1153C179.268 95.3771 179.575 95.7437 179.747 96.2599C179.904 96.7835 179.829 97.2623 179.792 97.5915C179.747 97.9281 179.695 98.1226 179.665 98.1226Z" fill="#455A64"/>
<path d="M159.562 149.771C159.562 149.771 159.615 149.576 159.772 149.239C159.929 148.903 160.176 148.409 160.498 147.773C161.141 146.509 162.099 144.684 163.288 142.439C165.667 137.951 168.996 131.764 172.699 124.949C173.627 123.243 174.532 121.583 175.407 119.974C176.275 118.373 176.896 116.72 177.322 115.104C178.182 111.865 178.175 108.783 177.793 106.292C177.412 103.786 176.686 101.841 176.118 100.547C175.826 99.8957 175.579 99.4094 175.407 99.0728C175.325 98.9157 175.257 98.796 175.212 98.6987C175.168 98.6165 175.145 98.5716 175.153 98.5641C175.153 98.5641 175.183 98.6015 175.235 98.6838C175.287 98.7736 175.362 98.9007 175.452 99.0503C175.639 99.372 175.901 99.8583 176.207 100.509C176.806 101.796 177.561 103.741 177.965 106.262C178.369 108.775 178.392 111.88 177.539 115.157C177.12 116.795 176.492 118.463 175.616 120.087C174.741 121.695 173.843 123.356 172.916 125.061C169.22 131.869 165.876 138.041 163.445 142.522C162.248 144.751 161.276 146.554 160.587 147.818C160.258 148.431 160.004 148.918 159.824 149.262C159.742 149.419 159.682 149.546 159.63 149.643C159.592 149.726 159.57 149.778 159.57 149.778L159.562 149.771Z" fill="#455A64"/>
<path d="M185.79 134.39C185.79 134.39 185.708 134.457 185.536 134.569C185.341 134.689 185.094 134.846 184.78 135.041C184.099 135.46 183.157 136.043 181.997 136.761C179.648 138.212 176.409 140.232 172.87 142.529C169.332 144.826 166.16 146.943 163.863 148.476C162.734 149.232 161.806 149.845 161.14 150.287C160.834 150.489 160.587 150.646 160.392 150.773C160.22 150.885 160.131 150.937 160.123 150.93C160.123 150.93 160.205 150.855 160.362 150.735C160.549 150.601 160.789 150.429 161.081 150.212C161.739 149.755 162.644 149.12 163.766 148.334C166.04 146.763 169.205 144.624 172.743 142.327C176.282 140.03 179.536 138.033 181.907 136.619C183.097 135.908 184.062 135.347 184.735 134.966C185.057 134.786 185.311 134.644 185.513 134.532C185.693 134.435 185.79 134.39 185.79 134.397V134.39Z" fill="#455A64"/>
<path d="M189.471 142.462C189.471 142.462 189.381 142.297 189.254 141.99C189.097 141.639 188.91 141.205 188.686 140.696C188.192 139.612 187.496 138.123 186.711 136.477C185.94 134.861 185.244 133.395 184.706 132.273C184.474 131.764 184.272 131.338 184.115 130.994C183.98 130.687 183.913 130.515 183.928 130.507C183.943 130.507 184.04 130.657 184.197 130.949C184.362 131.24 184.586 131.667 184.863 132.198C185.409 133.26 186.15 134.734 186.935 136.38C187.721 138.026 188.394 139.529 188.85 140.636C189.075 141.19 189.247 141.646 189.351 141.961C189.449 142.282 189.501 142.462 189.486 142.462H189.471Z" fill="#455A64"/>
<path d="M159.562 149.771C159.517 149.718 163.542 146.165 168.539 141.833C173.544 137.494 177.636 134.023 177.673 134.076C177.711 134.128 173.693 137.681 168.689 142.013C163.684 146.344 159.6 149.823 159.555 149.771H159.562Z" fill="#455A64"/>
<path d="M154.588 158.097C154.588 158.097 155.059 157.775 155.553 157.019C156.039 156.264 156.637 155.157 157.303 153.952C157.969 152.74 158.545 151.626 158.964 150.825C159.383 150.017 159.645 149.524 159.675 149.539C159.704 149.554 159.495 150.077 159.113 150.9C158.732 151.723 158.178 152.853 157.513 154.072C156.839 155.284 156.218 156.376 155.687 157.124C155.41 157.491 155.141 157.76 154.932 157.91C154.722 158.059 154.588 158.119 154.58 158.104L154.588 158.097Z" fill="#455A64"/>
<path d="M158.846 159.391C158.846 159.391 159.07 158.875 159.354 158.022C159.639 157.169 159.93 155.957 160.095 154.596C160.245 153.234 160.245 151.985 160.08 151.102C160.013 150.661 159.878 150.324 159.773 150.1C159.646 149.89 159.564 149.778 159.571 149.763C159.571 149.755 159.691 149.845 159.848 150.047C159.983 150.264 160.147 150.608 160.237 151.065C160.454 151.962 160.477 153.234 160.327 154.618C160.162 156.002 159.841 157.221 159.511 158.074C159.339 158.501 159.197 158.837 159.063 159.054C158.935 159.279 158.861 159.391 158.846 159.383V159.391Z" fill="#455A64"/>
<path d="M153.922 152.478C153.922 152.478 154.259 152.351 154.812 152.194C155.358 152.037 156.121 151.805 156.907 151.446C158.485 150.713 159.518 149.696 159.57 149.77C159.592 149.793 159.353 150.062 158.912 150.436C158.47 150.81 157.812 151.289 157.004 151.663C156.196 152.037 155.418 152.239 154.849 152.359C154.281 152.478 153.929 152.516 153.922 152.486V152.478Z" fill="#455A64"/>
<path d="M159.929 119.458C159.929 119.458 159.914 119.495 159.869 119.555C159.817 119.63 159.75 119.712 159.667 119.825C159.488 120.056 159.234 120.408 158.927 120.872C158.306 121.8 157.52 123.213 156.772 125.061C156.024 126.909 155.351 129.191 154.693 131.742C154.019 134.293 153.346 137.128 152.187 139.971C151.012 142.798 149.568 145.327 148.633 147.788C147.691 150.242 147.204 152.598 147.219 154.581C147.219 155.576 147.347 156.466 147.526 157.236C147.706 158.007 147.952 158.643 148.177 159.151C148.409 159.653 148.611 160.042 148.76 160.289C148.828 160.408 148.88 160.505 148.925 160.58C148.962 160.648 148.977 160.685 148.977 160.685C148.977 160.685 148.947 160.655 148.91 160.595C148.858 160.52 148.798 160.431 148.723 160.318C148.558 160.079 148.341 159.698 148.095 159.196C147.863 158.688 147.593 158.052 147.399 157.274C147.204 156.503 147.07 155.598 147.055 154.588C147.017 152.576 147.496 150.189 148.439 147.713C149.374 145.23 150.81 142.686 151.977 139.881C153.129 137.068 153.803 134.233 154.491 131.689C155.164 129.138 155.852 126.849 156.623 125.001C157.386 123.154 158.209 121.74 158.852 120.827C159.166 120.363 159.443 120.027 159.63 119.802C159.72 119.697 159.787 119.615 159.847 119.548C159.899 119.488 159.922 119.465 159.929 119.465V119.458Z" fill="#455A64"/>
<path d="M160.701 105.117C160.701 105.117 160.611 105.319 160.462 105.671C160.312 106.022 160.117 106.554 160.013 107.234C159.915 107.915 159.93 108.738 160.095 109.636C160.23 110.541 160.611 111.476 160.866 112.516C160.993 113.032 161.045 113.578 161 114.087C160.963 114.596 160.873 115.074 160.768 115.523C160.559 116.428 160.297 117.214 160.065 117.872C159.833 118.53 159.631 119.054 159.482 119.413C159.339 119.772 159.25 119.974 159.235 119.967C159.22 119.967 159.28 119.75 159.399 119.383C159.534 118.972 159.706 118.441 159.908 117.82C160.117 117.154 160.364 116.369 160.559 115.478C160.746 114.588 160.918 113.586 160.641 112.568C160.394 111.551 160.013 110.593 159.886 109.666C159.728 108.753 159.728 107.9 159.848 107.204C159.975 106.509 160.2 105.978 160.379 105.633C160.469 105.461 160.544 105.327 160.604 105.244C160.656 105.155 160.693 105.117 160.701 105.117Z" fill="#455A64"/>
<path d="M161.254 118.792C161.209 118.762 161.949 118.194 162.398 116.862C162.623 116.204 162.765 115.373 162.757 114.453C162.75 113.533 162.585 112.516 162.383 111.461C162.181 110.406 161.957 109.396 161.882 108.454C161.807 107.511 161.837 106.666 161.927 105.955C162.017 105.252 162.181 104.691 162.323 104.317C162.398 104.13 162.465 103.995 162.518 103.898C162.57 103.808 162.6 103.763 162.608 103.763C162.63 103.771 162.533 103.973 162.413 104.347C162.293 104.721 162.166 105.274 162.091 105.97C162.017 106.666 162.009 107.504 162.091 108.431C162.174 109.351 162.406 110.354 162.608 111.416C162.817 112.478 162.974 113.503 162.967 114.453C162.967 115.396 162.802 116.249 162.548 116.922C162.301 117.595 161.964 118.082 161.702 118.381C161.568 118.53 161.456 118.635 161.373 118.702C161.291 118.77 161.246 118.8 161.246 118.8L161.254 118.792Z" fill="#455A64"/>
<path d="M172.774 115.209C172.774 115.209 172.58 115.261 172.228 115.313C171.877 115.358 171.36 115.441 170.732 115.545C169.475 115.762 167.747 116.151 165.907 116.787C164.067 117.423 162.466 118.179 161.344 118.785C160.782 119.084 160.326 119.338 160.019 119.525C159.713 119.705 159.533 119.795 159.526 119.787C159.518 119.772 159.675 119.652 159.975 119.45C160.266 119.241 160.708 118.964 161.269 118.642C162.383 117.999 163.984 117.206 165.839 116.57C167.695 115.934 169.445 115.568 170.717 115.388C171.353 115.299 171.869 115.246 172.228 115.224C172.587 115.201 172.782 115.201 172.789 115.216L172.774 115.209Z" fill="#455A64"/>
<path d="M173.514 110.249C173.514 110.294 172.841 110.286 171.786 110.451C171.255 110.526 170.634 110.676 169.954 110.877C169.28 111.094 168.555 111.379 167.829 111.76C167.111 112.142 166.46 112.576 165.899 113.01C165.345 113.451 164.874 113.877 164.508 114.274C163.767 115.052 163.4 115.613 163.363 115.583C163.348 115.575 163.438 115.433 163.602 115.179C163.767 114.925 164.029 114.573 164.388 114.162C164.747 113.75 165.211 113.301 165.772 112.845C166.333 112.396 166.991 111.955 167.732 111.558C168.472 111.177 169.213 110.892 169.901 110.683C170.597 110.488 171.233 110.354 171.771 110.294C172.31 110.234 172.751 110.212 173.058 110.227C173.365 110.234 173.529 110.249 173.529 110.264L173.514 110.249Z" fill="#455A64"/>
<path d="M174.533 120.648C174.533 120.648 174.354 120.73 174.024 120.842C173.688 120.954 173.209 121.119 172.618 121.328C171.436 121.747 169.82 122.383 168.107 123.228C166.394 124.074 164.905 124.964 163.85 125.652C163.327 125.996 162.9 126.273 162.609 126.475C162.317 126.67 162.152 126.774 162.145 126.759C162.137 126.744 162.279 126.617 162.556 126.4C162.833 126.176 163.237 125.877 163.761 125.518C164.793 124.799 166.282 123.872 168.01 123.019C169.738 122.166 171.376 121.553 172.573 121.171C173.172 120.984 173.665 120.842 174.009 120.76C174.354 120.678 174.541 120.633 174.548 120.655L174.533 120.648Z" fill="#455A64"/>
<path d="M188.859 108.76C188.859 108.76 188.701 108.716 188.425 108.603C188.14 108.499 187.729 108.342 187.198 108.162C186.136 107.803 184.572 107.391 182.657 107.167L182.769 107.062C182.821 109.015 182.807 111.341 182.634 113.818C182.447 116.496 182.096 118.972 181.677 120.999V120.954C182.208 122.66 182.754 124.051 183.188 124.994C183.398 125.465 183.6 125.824 183.734 126.064C183.876 126.303 183.951 126.43 183.944 126.438C183.936 126.438 183.846 126.326 183.682 126.101C183.532 125.869 183.315 125.518 183.083 125.046C182.62 124.111 182.043 122.735 181.482 121.022V120.999V120.977C181.871 118.949 182.216 116.481 182.403 113.818C182.575 111.349 182.597 109.037 182.567 107.085V106.965L182.679 106.98C184.609 107.227 186.173 107.676 187.235 108.065C187.766 108.259 188.178 108.431 188.447 108.559C188.724 108.686 188.866 108.76 188.859 108.768V108.76Z" fill="#455A64"/>
<path d="M189.231 110.728C189.231 110.728 188.857 110.638 188.274 110.466C187.69 110.294 186.882 110.07 185.977 109.853C184.167 109.426 182.678 109.157 182.686 109.082C182.686 109.052 183.067 109.082 183.673 109.172C184.279 109.262 185.117 109.404 186.03 109.621C187.862 110.04 189.261 110.661 189.231 110.72V110.728Z" fill="#455A64"/>
<path d="M187.047 103.733C187.047 103.733 186.494 103.606 185.604 103.397C184.713 103.187 183.479 102.955 182.095 102.836C180.711 102.723 179.454 102.746 178.542 102.791C177.629 102.836 177.068 102.88 177.061 102.843C177.061 102.828 177.195 102.798 177.45 102.753C177.704 102.708 178.07 102.663 178.527 102.619C179.439 102.536 180.711 102.484 182.11 102.596C183.509 102.716 184.758 102.978 185.641 103.225C186.082 103.352 186.434 103.464 186.673 103.561C186.913 103.651 187.047 103.711 187.04 103.726L187.047 103.733Z" fill="#455A64"/>
<path d="M177.801 105.783C177.801 105.783 177.592 105.865 177.203 105.97C176.806 106.075 176.238 106.202 175.519 106.329C174.091 106.568 172.078 106.793 169.856 106.613C168.764 106.509 167.664 106.389 166.812 105.85C166.393 105.581 166.064 105.222 165.862 104.825C165.66 104.429 165.637 103.98 165.697 103.621C165.817 102.888 166.041 102.342 166.206 101.968C166.378 101.594 166.52 101.414 166.527 101.422C166.542 101.429 166.43 101.624 166.288 102.005C166.153 102.379 165.951 102.94 165.862 103.643C165.817 103.995 165.839 104.377 166.034 104.743C166.221 105.102 166.527 105.431 166.924 105.671C167.717 106.157 168.787 106.277 169.871 106.381C172.063 106.561 174.061 106.366 175.489 106.172C176.208 106.067 176.776 105.962 177.18 105.888C177.577 105.813 177.801 105.775 177.801 105.79V105.783Z" fill="#455A64"/>
<path d="M176.642 24.3163C174.472 19.6108 169.093 20.5385 166.52 21.7878C163.947 23.0371 162.002 25.0045 160.835 27.8098C160.079 29.6277 159.481 31.6999 157.954 32.7996C157.289 33.2783 156.503 33.5252 155.792 33.9217C155.082 34.3257 154.409 34.969 154.281 35.8368C154.057 37.4003 155.628 38.485 156.952 39.1209C156.167 39.6595 155.957 40.8714 156.234 41.8439C156.511 42.8164 157.161 43.5945 157.79 44.3425C159.727 46.6317 163.199 49.452 165.675 50.993C168.151 52.5341 169.759 52.7211 172.43 51.6064C173.515 51.1576 174.525 50.417 175.677 50.2823C177.016 50.1327 178.302 50.821 179.626 51.0903C180.951 51.3596 182.626 50.9855 183.06 49.5866C183.225 49.048 183.172 48.4645 183.24 47.9034C183.315 47.3424 183.584 46.7364 184.093 46.6092C184.504 46.5045 184.908 46.7514 185.312 46.886C186.269 47.2077 187.713 54.322 188.633 53.8881C188.633 53.8881 189.972 41.8215 187.392 34.767C186.569 32.5153 184.818 27.7126 183.412 25.8424C181.489 23.2764 176.866 23.845 176.634 24.3013" fill="#263238"/>
<path d="M173.883 25.1019C170.465 23.905 165.849 26.5308 164.802 30.0019C163.635 33.8545 162.37 38.6049 162.146 41.6271C161.697 47.7091 166.021 49.512 166.021 49.512L164.263 59.0276L179.098 54.2324L184.274 31.8197L184.753 29.9346L173.883 25.1019Z" fill="#FFBE9D"/>
<path d="M164.801 34.6922C164.853 34.8194 165.556 34.6323 166.327 34.9391C167.105 35.2308 167.516 35.8517 167.636 35.7919C167.696 35.7694 167.666 35.56 167.494 35.2832C167.322 35.0064 166.978 34.6698 166.491 34.4827C166.005 34.2957 165.534 34.3107 165.227 34.4079C164.92 34.4977 164.771 34.6323 164.801 34.6922Z" fill="#263238"/>
<path d="M172.477 36.7121C172.567 36.8169 173.181 36.4279 174.011 36.4877C174.841 36.5326 175.417 37.0039 175.515 36.9066C175.559 36.8617 175.477 36.6747 175.223 36.4653C174.976 36.2558 174.542 36.0389 174.026 36.0089C173.51 35.979 173.061 36.1361 172.799 36.3156C172.53 36.4952 172.432 36.6672 172.477 36.7196V36.7121Z" fill="#263238"/>
<path d="M169.029 40.1159C169.043 40.071 168.557 39.869 167.772 39.5698C167.57 39.5024 167.383 39.4127 167.383 39.2631C167.368 39.0985 167.51 38.8965 167.667 38.6795C167.981 38.2232 168.303 37.7519 168.647 37.2507C170.023 35.2084 171.071 33.5103 170.989 33.4579C170.906 33.4055 169.724 35.0139 168.348 37.0562C168.011 37.5574 167.697 38.0437 167.39 38.5C167.256 38.717 167.061 38.9489 167.091 39.2855C167.113 39.4501 167.233 39.5997 167.36 39.667C167.48 39.7418 167.6 39.7718 167.697 39.8017C168.505 40.0411 169.014 40.1608 169.029 40.1159Z" fill="#263238"/>
<path d="M166.021 49.5343C166.021 49.5343 170.113 50.7537 174.572 49.3174C174.572 49.3174 171.691 52.983 165.744 51.0155L166.021 49.5268V49.5343Z" fill="#EB996E"/>
<path d="M168.588 42.8392C168.506 42.7344 168.626 42.9588 168.588 42.8392V42.8392Z" fill="#EB996E"/>
<path d="M171.228 42.4425C171.063 42.0685 170.712 41.7842 170.33 41.6496C169.777 41.4551 169.156 41.5598 168.729 41.9114C168.445 42.2031 168.55 42.7118 168.587 42.839C168.871 43.2056 168.901 43.5123 169.305 43.7367C169.709 43.9611 170.727 43.819 171.048 43.5347C171.34 43.2804 171.392 42.8166 171.228 42.4425Z" fill="#EB996E"/>
<path d="M171.279 41.2381C171.152 41.2007 170.943 42.076 170.045 42.5248C169.147 42.9737 168.234 42.652 168.197 42.7792C168.175 42.8315 168.369 42.9961 168.758 43.1008C169.14 43.2056 169.738 43.213 170.292 42.9437C170.838 42.6669 171.159 42.2031 171.272 41.8515C171.391 41.4924 171.346 41.2531 171.287 41.2456L171.279 41.2381Z" fill="#263238"/>
<path d="M174.145 32.4257C174.1 32.6576 174.781 32.897 175.461 33.3982C176.157 33.877 176.621 34.4455 176.808 34.3183C176.898 34.2585 176.89 34.0116 176.755 33.6899C176.621 33.3683 176.337 32.9867 175.925 32.6875C175.514 32.3958 175.065 32.2611 174.728 32.2461C174.392 32.2312 174.167 32.3135 174.145 32.4257Z" fill="#263238"/>
<path d="M165.295 31.5727C165.475 31.7448 166.096 31.4904 166.859 31.4081C167.622 31.3034 168.288 31.4006 168.422 31.1912C168.482 31.0865 168.355 30.9144 168.056 30.7573C167.756 30.6077 167.278 30.5029 166.754 30.5703C166.23 30.6376 165.789 30.8471 165.542 31.0715C165.288 31.2884 165.22 31.4904 165.303 31.5802L165.295 31.5727Z" fill="#263238"/>
<path d="M185.584 29.9195C185.382 29.4407 184.903 29.1564 184.447 28.9096C181.499 27.2937 178.44 25.8723 175.305 24.653L174.011 25.3861C173.63 27.8847 174.939 30.5554 177.146 31.7897C178.028 32.2834 179.173 32.7398 179.285 33.7422C179.405 34.782 178.313 35.4927 177.699 36.3381C176.944 37.3779 176.899 38.8815 177.594 39.9588C177.991 40.5722 178.589 41.036 178.956 41.6719C179.435 42.5098 179.442 43.5795 179.076 44.4697C178.709 45.3674 178.096 46.5719 177.273 47.0806C179.48 47.6566 182.068 46.5419 183.22 44.5745C183.908 43.4 183.961 41.9786 184.058 40.6246C184.267 37.535 184.761 34.4604 185.524 31.4605C185.651 30.9518 185.793 30.3983 185.584 29.912V29.9195Z" fill="#263238"/>
<path d="M175.508 24.7952C174.662 25.7976 173.787 26.8225 172.672 27.5182C171.558 28.2139 170.129 28.5431 168.91 28.0493C169.216 27.7127 169.523 27.3761 169.83 27.0394C167.66 28.5206 165.184 29.5455 162.596 30.0318C164.227 28.0568 165.902 26.037 168.124 24.7577C170.346 23.4785 173.256 23.0895 175.433 24.451" fill="#263238"/>
<path d="M185.879 36.2931L178.952 41.6718C179.745 42.5396 179.438 44.7465 178.66 45.6292C177.882 46.5119 176.843 47.2525 176.536 48.3896C176.199 49.6315 176.857 50.9182 176.88 52.2049C176.91 54.0227 175.683 55.5862 174.74 57.1422C173.798 58.6983 173.117 60.7779 174.172 62.2591C175.354 63.9349 178.047 63.6955 179.67 62.4387C181.294 61.1894 182.221 59.2593 183.426 57.6061C184.63 55.9453 186.515 54.681 188.55 54.8905C189.216 48.6889 188.243 42.0683 185.894 36.2931H185.879Z" fill="#263238"/>
<path d="M187.039 51.2922C186.994 51.2174 187.406 50.9182 188.109 50.3571C188.797 49.7961 189.807 48.9657 190.727 47.7014C191.184 47.073 191.602 46.3324 191.902 45.4796C192.201 44.6343 192.373 43.6767 192.313 42.6967C192.261 41.7167 191.924 40.7143 191.363 39.7942C190.787 38.874 189.994 38.0362 189.059 37.3105C187.189 35.8592 184.989 35.0289 183.022 34.176C181.047 33.3382 179.244 32.4405 177.935 31.3857C176.611 30.3608 175.773 29.2387 175.347 28.4083C174.928 27.5704 174.853 27.0468 174.92 27.0243C175.01 26.9944 175.227 27.4507 175.736 28.1689C176.252 28.8796 177.12 29.8297 178.421 30.7124C179.715 31.6176 181.436 32.3881 183.426 33.1661C184.421 33.5626 185.476 33.9741 186.56 34.4753C187.638 34.9765 188.752 35.575 189.777 36.3754C190.795 37.1684 191.692 38.111 192.343 39.1882C192.986 40.2655 193.36 41.4774 193.398 42.6369C193.435 43.8039 193.196 44.8886 192.814 45.8237C192.44 46.7588 191.924 47.5593 191.386 48.2101C190.301 49.5118 189.156 50.2748 188.371 50.7387C187.57 51.195 187.084 51.3596 187.047 51.2922H187.039Z" fill="#263238"/>
<path d="M187.174 34.954C187.174 34.954 186.957 34.9017 186.568 34.7595C186.186 34.6174 185.633 34.4079 184.967 34.1237C183.635 33.5551 181.765 32.7173 180.014 31.3034C178.264 29.8895 177.149 28.0941 176.723 26.6877C176.506 25.9845 176.416 25.3935 176.401 24.9821C176.386 24.7801 176.401 24.6155 176.401 24.5108C176.401 24.406 176.409 24.3462 176.424 24.3462C176.483 24.3462 176.409 25.2663 176.887 26.6353C177.344 27.9969 178.451 29.7324 180.164 31.1238C181.885 32.5078 183.717 33.3681 185.034 33.9741C185.662 34.2583 186.194 34.4902 186.605 34.6773C186.979 34.8418 187.181 34.9466 187.174 34.9615V34.954Z" fill="#455A64"/>
<path d="M187.389 41.8588C187.389 41.8588 187.501 41.5895 187.576 41.0733C187.651 40.5646 187.598 39.7941 187.209 38.9487C186.828 38.1109 186.117 37.2281 185.107 36.5324C184.112 35.8142 182.878 35.2382 181.636 34.4976C180.402 33.757 179.339 32.8443 178.539 31.8868C177.724 30.9367 177.148 29.9642 176.736 29.1114C176.332 28.2586 176.1 27.5255 175.981 27.0168C175.906 26.7624 175.883 26.5604 175.853 26.4258C175.831 26.2911 175.823 26.2163 175.831 26.2163C175.853 26.2163 175.921 26.4931 176.07 26.9943C176.22 27.4955 176.474 28.2062 176.893 29.0441C177.32 29.8744 177.896 30.8245 178.711 31.7521C179.512 32.6873 180.551 33.57 181.763 34.3031C182.983 35.0288 184.224 35.6197 185.234 36.3604C186.259 37.0785 186.985 38.0136 187.359 38.8889C187.74 39.7641 187.77 40.5721 187.666 41.0957C187.613 41.3576 187.546 41.5521 187.486 41.6792C187.426 41.8064 187.396 41.8737 187.389 41.8663V41.8588Z" fill="#455A64"/>
<path d="M149.088 37.2357C149.088 37.2357 149.095 37.2057 149.132 37.1609C149.162 37.116 149.207 37.0412 149.282 36.9589C149.424 36.7943 149.664 36.5549 150.053 36.3903C150.442 36.2258 150.965 36.1584 151.549 36.1285C152.132 36.0911 152.806 36.0537 153.546 36.0462C154.287 36.0313 155.095 36.0238 155.933 35.8293C156.763 35.6348 157.593 35.1859 158.326 34.565C159.06 33.9366 159.71 33.1362 160.279 32.2459C160.855 31.3557 161.334 30.3682 161.842 29.3583C162.351 28.3484 162.86 27.3609 163.473 26.4782C164.079 25.588 164.812 24.8174 165.62 24.2489C167.251 23.0894 169.069 22.6779 170.55 22.6405C172.054 22.5956 173.243 22.9323 174.006 23.2465C174.193 23.3288 174.365 23.4036 174.515 23.4709C174.65 23.5457 174.769 23.613 174.867 23.6729C175.054 23.7851 175.151 23.8449 175.151 23.8524C175.151 23.8524 175.039 23.815 174.844 23.7178C174.739 23.6654 174.62 23.6056 174.485 23.5382C174.335 23.4784 174.163 23.411 173.976 23.3362C173.206 23.052 172.031 22.7453 170.558 22.8051C169.106 22.8649 167.326 23.2839 165.747 24.4284C164.962 24.9895 164.259 25.7451 163.668 26.6129C163.069 27.4806 162.561 28.4606 162.052 29.4705C161.543 30.4805 161.057 31.4754 160.473 32.3806C159.89 33.2783 159.224 34.0937 158.469 34.7371C157.706 35.3729 156.845 35.8293 155.977 36.0238C155.11 36.2183 154.287 36.2183 153.546 36.2183C152.806 36.2108 152.14 36.2407 151.549 36.2632C150.965 36.2781 150.457 36.3305 150.075 36.4726C149.694 36.6222 149.454 36.8317 149.305 36.9888C149.155 37.1459 149.088 37.2357 149.08 37.2282L149.088 37.2357Z" fill="#455A64"/>
<path d="M146.305 31.1165C143.574 24.2341 139.961 17.4789 139.445 12.347L134.014 12.5715C134.133 14.5539 134.844 31.0866 138.689 37.6249C142.542 44.1631 155.394 59.4465 155.394 59.4465L159.912 47.8138C159.912 47.8138 149.043 38.0139 146.305 31.124V31.1165Z" fill="#FFBE9D"/>
<path d="M137.252 1.65677H134.873C134.873 1.65677 135.105 3.05569 136.182 3.1305C137.259 3.20531 137.05 2.96592 137.05 2.96592L136.811 3.18287L135.329 3.47462C135.329 3.47462 135.404 4.62667 136.384 4.81369L137.821 3.47462L137.252 1.64929V1.65677Z" fill="#FFBE9D"/>
<path d="M143.761 1.44743C143.544 3.23536 143.522 3.12315 143.522 3.12315L141.352 4.91855L140.799 2.27781C140.724 1.91873 140.417 1.6569 140.051 1.63446L139.063 1.57461C139.063 1.57461 139.445 0.205612 138.211 0.325305C138.211 0.325305 137.53 0.138284 136.976 2.41995C136.378 4.91107 133.789 10.7761 134.014 12.736L139.52 12.953C139.46 11.1277 140.963 9.1976 141.704 8.35975C141.928 8.1054 142.093 7.80616 142.168 7.48448C142.243 7.15533 142.415 6.69151 142.789 6.27259C143.47 5.51702 144.898 4.16298 144.898 4.16298V0.0185904C144.898 0.0185904 143.978 -0.273163 143.769 1.45491L143.761 1.44743ZM139.333 5.45717L138.203 5.97335L138.39 4.8213L139.333 4.73153V5.46465V5.45717Z" fill="#FFBE9D"/>
<path d="M138.15 6.09311C138.15 6.09311 138.15 5.91357 138.202 5.60686C138.255 5.29266 138.337 4.85129 138.442 4.29771C138.554 3.72916 138.681 3.07085 138.823 2.36017C138.891 1.99361 138.995 1.61208 139.01 1.23056C139.018 0.863996 138.876 0.437587 138.479 0.415145C138.105 0.347817 137.791 0.662013 137.604 0.98369C137.499 1.14079 137.454 1.32033 137.387 1.50735C137.327 1.69437 137.267 1.87391 137.208 2.04597C136.991 2.74169 136.789 3.37756 136.617 3.93115C136.437 4.46977 136.28 4.89618 136.153 5.18045C136.026 5.4722 135.943 5.62182 135.928 5.62182C135.913 5.62182 135.966 5.44976 136.063 5.15053C136.16 4.85129 136.302 4.4174 136.452 3.87878C136.609 3.31772 136.796 2.68184 136.998 1.97864C137.05 1.7991 137.11 1.61956 137.17 1.43254C137.23 1.253 137.29 1.04354 137.402 0.863996C137.507 0.676975 137.641 0.504915 137.828 0.362779C138.008 0.220643 138.27 0.138353 138.509 0.175758C138.636 0.1982 138.741 0.228124 138.853 0.295451C138.966 0.37026 139.04 0.467511 139.1 0.572243C139.212 0.781707 139.242 1.01361 139.242 1.23056C139.227 1.66445 139.108 2.03101 139.04 2.39757C138.883 3.10825 138.734 3.75909 138.614 4.32763C138.487 4.87374 138.382 5.31511 138.307 5.62182C138.232 5.92854 138.18 6.09311 138.165 6.09311H138.15Z" fill="#EB996E"/>
<path d="M139.281 5.47218C139.214 5.46469 139.266 4.86623 139.214 4.1331C139.199 3.95356 139.184 3.77402 139.169 3.61692C139.154 3.45234 139.132 3.34013 139.064 3.28776C138.907 3.17555 138.72 3.16807 138.735 3.13067C138.735 3.11571 138.773 3.10074 138.847 3.09326C138.915 3.09326 139.027 3.0783 139.162 3.15311C139.311 3.2354 139.364 3.43738 139.386 3.587C139.416 3.75158 139.438 3.93112 139.453 4.11814C139.506 4.88119 139.341 5.47966 139.281 5.47218Z" fill="#EB996E"/>
<path d="M141.974 4.45461C141.974 4.45461 141.824 4.65659 141.525 4.91094C141.226 5.16529 140.792 5.50941 140.231 5.76376C139.67 6.02559 139.109 6.09292 138.72 6.12284C138.323 6.14528 138.084 6.1378 138.076 6.10788C138.076 6.07047 138.316 6.02559 138.697 5.95826C139.079 5.88345 139.61 5.79368 140.133 5.54681C140.665 5.30743 141.098 4.99323 141.42 4.77629C141.742 4.55186 141.951 4.42468 141.966 4.44713L141.974 4.45461Z" fill="#EB996E"/>
<path d="M185.169 56.0799C185.169 56.0799 191.28 55.9004 194.946 54.8081C198.612 53.7234 212.691 50.372 212.691 50.372L235.245 46.6091L235.687 52.4442C235.687 52.4442 214.725 58.571 210.648 59.9699C206.571 61.3689 187.959 67.75 184.45 66.9421L182.273 62.4536L185.169 56.0724V56.0799Z" fill="#FFBE9D"/>
<path d="M246.092 39.7418C245.725 39.6595 243.892 40.4899 243.892 40.4899C244.513 39.7119 243.93 38.9788 243.93 38.9788L241.423 40.2131C241.423 40.2131 240.152 41.4923 239.329 42.1132C238.506 42.7341 236.179 45.4198 236.127 45.5694L234.631 46.9608L235.558 52.4817C235.558 52.4817 236.748 52.5864 237.518 52.2199C238.296 51.8608 239.426 50.4095 239.426 50.4095L241.566 50.23C241.812 50.2075 242.059 50.1252 242.246 49.9607C242.89 49.4071 242.778 48.5019 242.778 48.5019C244.117 47.7239 243.346 46.7439 243.346 46.7439C243.346 46.7439 244.124 46.6466 244.446 46.1379C244.708 45.7265 244.64 45.4048 244.378 44.941C244.117 44.4772 242.157 44.6343 242.157 44.6343L242.052 44.0657C242.052 44.0657 245.052 41.6793 245.725 41.1632C246.398 40.647 246.428 39.8017 246.084 39.7268L246.092 39.7418Z" fill="#FFBE9D"/>
<path d="M243.93 40.4376C243.93 40.4376 243.683 40.9538 243.009 41.5373C242.688 41.8365 242.276 42.1731 241.91 42.607C241.543 43.0409 241.304 43.6244 241.109 44.2678C240.922 44.9111 240.72 45.5395 240.436 46.0632C240.159 46.5868 239.83 47.0132 239.523 47.3424C239.217 47.6716 238.94 47.9035 238.738 48.0456C238.536 48.1952 238.416 48.2551 238.401 48.2401C238.379 48.2102 238.828 47.896 239.396 47.2302C239.673 46.8936 239.98 46.4746 240.241 45.9584C240.511 45.4497 240.69 44.8438 240.885 44.193C241.079 43.5496 241.341 42.9212 241.745 42.4649C242.142 42.0086 242.568 41.6944 242.897 41.4101C243.585 40.864 243.9 40.4151 243.93 40.4376Z" fill="#EB996E"/>
<path d="M242.83 48.4945C242.83 48.4945 242.478 48.7413 241.827 48.9658C241.498 49.078 241.102 49.1752 240.638 49.2126C240.406 49.2276 240.167 49.2276 239.912 49.2052C239.658 49.1752 239.381 49.1154 239.149 48.9433C238.917 48.7713 238.745 48.4945 238.768 48.1952C238.812 47.881 239.007 47.7015 239.172 47.5369C239.336 47.3798 239.561 47.2452 239.763 47.2078C239.957 47.1554 240.144 47.1105 240.309 47.0806C240.974 46.9385 241.408 46.916 241.408 46.9534C241.408 46.9759 241.004 47.0581 240.346 47.2377C240.181 47.2826 240.002 47.3349 239.815 47.3948C239.628 47.4472 239.478 47.5519 239.314 47.7015C239.164 47.8436 239.007 48.0381 238.992 48.2177C238.977 48.4122 239.104 48.6291 239.284 48.7563C239.665 49.0181 240.189 49.0107 240.623 49.0032C241.064 48.9807 241.453 48.8984 241.775 48.8161C242.426 48.6366 242.815 48.472 242.83 48.5019V48.4945Z" fill="#EB996E"/>
<path d="M243.414 46.7588C243.414 46.7588 243.138 46.9084 242.644 46.9907C242.397 47.0281 242.098 47.058 241.769 47.0505C241.447 47.0356 241.013 46.9982 240.721 46.6466C240.444 46.2875 240.512 45.8237 240.676 45.517C240.848 45.1953 241.125 45.0157 241.342 44.9035C241.806 44.6866 242.113 44.6567 242.12 44.6791C242.135 44.7165 241.836 44.8063 241.424 45.0457C241.222 45.1728 240.998 45.3449 240.871 45.6142C240.744 45.876 240.706 46.2426 240.908 46.4969C241.11 46.7513 241.469 46.8111 241.776 46.8261C242.09 46.8411 242.382 46.8261 242.629 46.8111C243.115 46.7737 243.414 46.7064 243.422 46.7438L243.414 46.7588Z" fill="#EB996E"/>
<path d="M241.939 50.1701C241.939 50.1701 241.7 50.2674 241.311 50.3646C240.922 50.4544 240.361 50.5965 239.717 50.5591C239.568 50.5591 239.343 50.5068 239.231 50.3497C239.119 50.2 239.081 50.0355 239.089 49.8784C239.111 49.5717 239.283 49.3323 239.47 49.2051C239.867 48.9657 240.159 49.1078 240.144 49.1303C240.144 49.1677 239.867 49.1078 239.575 49.3397C239.44 49.452 239.313 49.6539 239.313 49.8859C239.313 49.9981 239.343 50.1178 239.41 50.2C239.478 50.2823 239.575 50.3123 239.732 50.3197C240.331 50.3571 240.877 50.2524 241.281 50.2C241.685 50.1477 241.939 50.1402 241.939 50.1701Z" fill="#EB996E"/>
<path d="M174.784 75.4556C174.784 75.4556 174.642 75.5603 174.358 75.7024C174.073 75.8446 173.647 76.0166 173.108 76.1812C172.031 76.5104 170.423 76.7198 168.71 76.3982C166.989 76.0765 165.583 75.276 164.707 74.5653C164.266 74.2137 163.937 73.8846 163.727 73.6452C163.518 73.4058 163.421 73.2637 163.428 73.2562C163.458 73.2263 163.907 73.7649 164.805 74.4307C165.695 75.0965 167.079 75.8446 168.755 76.1588C170.423 76.4804 171.994 76.2934 173.063 76.0166C174.148 75.7398 174.769 75.4107 174.784 75.4556Z" fill="#FF725E"/>
<path d="M164.461 58.6461C164.461 58.6461 178.839 54.0454 179.377 53.9033C179.916 53.7611 192.596 54.8907 192.596 54.8907C192.596 54.8907 192.05 63.2917 195.259 66.0148L185.931 69.3811L182.991 77.4754C182.991 77.4754 181.352 80.7745 182.654 83.8716C185.123 89.7291 189.409 98.9754 188.773 100.03C188.706 100.142 188.34 96.8284 182.235 95.1003C180.395 94.5767 177.036 94.5692 174.006 95.1826C160.96 97.8084 155.925 103.838 154.444 104.87C154.444 104.87 157.129 83.7968 155.858 80.5052C154.586 77.2136 153.247 75.0666 154.287 72.1341C155.334 69.2016 156.905 64.5261 156.905 64.5261L151.766 58.6985L158.947 46.759L165.515 52.2051L164.461 58.6461Z" fill="url(#paint1_linear_28_12159)"/>
<path d="M169.24 78.171C169.24 78.171 169.061 78.2009 168.747 78.1934C168.425 78.186 167.969 78.1411 167.408 78.0214C166.293 77.7895 164.767 77.1761 163.488 75.9642C162.201 74.7523 161.528 73.2411 161.273 72.134C161.146 71.5729 161.094 71.1166 161.094 70.7949C161.086 70.4732 161.101 70.3011 161.116 70.3011C161.161 70.3011 161.139 71.0118 161.438 72.0891C161.73 73.1588 162.403 74.6176 163.652 75.7921C164.894 76.9666 166.368 77.5875 167.445 77.8568C168.537 78.1336 169.24 78.1261 169.24 78.171Z" fill="#263238"/>
<path d="M155.737 60.3517C155.775 60.3143 156.523 61.3317 156.74 62.8279C156.971 64.324 156.553 65.521 156.5 65.4911C156.425 65.4761 156.732 64.3016 156.5 62.8653C156.291 61.4215 155.662 60.3891 155.73 60.3517H155.737Z" fill="#263238"/>
<path d="M186.26 62.8429C186.26 62.8429 185.961 63.0823 185.527 63.5087C185.093 63.9276 184.562 64.5859 184.188 65.4238C183.814 66.2617 183.687 67.0995 183.679 67.7055C183.672 68.3114 183.739 68.6855 183.702 68.6929C183.679 68.6929 183.545 68.3339 183.515 67.7055C183.477 67.0846 183.589 66.2018 183.978 65.3266C184.367 64.4513 184.943 63.778 185.422 63.3815C185.901 62.9776 186.253 62.8205 186.268 62.8429H186.26Z" fill="#263238"/>
<g opacity="0.3">
<path d="M167.11 77.857C165.539 77.5054 164.634 76.9294 163.512 75.8222C162.906 75.2237 162.36 74.543 161.948 73.6677C161.619 75.0966 163.601 77.6251 165.539 78.5527C167.477 79.4803 169.893 79.4205 171.778 78.3807C170.162 78.3433 168.681 78.2086 167.102 77.857H167.11Z" fill="black"/>
</g>
<path d="M184.719 88.3002C184.719 88.3002 184.338 88.0458 183.597 87.7017C182.856 87.365 181.704 87.0209 180.238 86.9985C178.779 86.9686 177.036 87.2603 175.256 88.0084C173.468 88.749 171.658 89.8861 169.802 91.1354C166.107 93.6939 162.464 95.5641 159.755 96.7086C158.401 97.2847 157.287 97.7036 156.509 97.9729C156.12 98.1076 155.813 98.2048 155.611 98.2721C155.402 98.3395 155.297 98.3694 155.289 98.3619C155.282 98.3544 155.394 98.3095 155.596 98.2272C155.821 98.145 156.112 98.0253 156.479 97.8906C157.242 97.5989 158.349 97.1575 159.696 96.559C162.381 95.377 165.987 93.4919 169.675 90.9409C171.538 89.6916 173.363 88.5395 175.181 87.8064C176.991 87.0583 178.772 86.7815 180.253 86.8264C181.742 86.8713 182.909 87.2454 183.649 87.6119C184.39 87.9785 184.734 88.2927 184.734 88.2927L184.719 88.3002Z" fill="white"/>
<path d="M182.115 80.767C182.115 80.767 181.846 80.4752 181.255 80.0937C180.671 79.7122 179.706 79.3082 178.449 79.2109C177.2 79.0987 175.696 79.383 174.148 80.0039C172.599 80.6173 170.991 81.5225 169.278 82.4277C167.572 83.3479 165.926 84.1932 164.355 84.7991C162.784 85.4126 161.303 85.7866 160.039 85.9512C158.775 86.1233 157.735 86.0784 157.024 86.0036C156.673 85.9587 156.396 85.9138 156.216 85.8689C156.037 85.8315 155.939 85.8091 155.939 85.7941C155.939 85.7717 156.328 85.8465 157.032 85.9063C157.735 85.9512 158.76 85.9736 160.009 85.7791C161.258 85.5921 162.717 85.2106 164.266 84.5897C165.814 83.9688 167.452 83.1234 169.158 82.2108C170.864 81.3056 172.487 80.4079 174.058 79.7944C175.629 79.181 177.17 78.9042 178.449 79.0389C179.729 79.1586 180.709 79.5999 181.292 80.0114C181.883 80.4228 182.107 80.7595 182.107 80.7595L182.115 80.767Z" fill="white"/>
<path d="M162.919 75.0441C162.919 75.0441 162.821 75.1413 162.627 75.2835C162.53 75.3583 162.41 75.4406 162.26 75.5228C162.111 75.6051 161.946 75.7099 161.744 75.7922C161.355 75.9867 160.869 76.1512 160.315 76.3009C159.762 76.428 159.133 76.5253 158.467 76.5402C157.809 76.5402 157.181 76.4729 156.62 76.3607C156.059 76.2335 155.565 76.0764 155.176 75.8969C154.974 75.8221 154.802 75.7173 154.652 75.6425C154.503 75.5677 154.375 75.4854 154.278 75.4181C154.076 75.2835 153.971 75.2012 153.979 75.1937C154.001 75.1563 154.45 75.4406 155.243 75.7473C155.64 75.9044 156.118 76.039 156.672 76.1512C157.218 76.2485 157.832 76.3158 158.475 76.3083C159.118 76.2934 159.724 76.2111 160.27 76.0989C160.816 75.9717 161.295 75.8221 161.684 75.65C162.462 75.3209 162.904 75.0216 162.926 75.059L162.919 75.0441Z" fill="white"/>
<path d="M184.284 73.8996C184.284 73.8996 184.225 73.9595 184.105 74.0567C183.985 74.154 183.791 74.2811 183.536 74.4158C183.02 74.6926 182.205 74.9993 181.157 75.0965C180.11 75.2013 178.838 75.0965 177.499 74.7599C176.153 74.4382 174.724 73.8996 173.198 73.4732C170.146 72.6054 167.213 72.6578 165.171 72.957C164.146 73.1066 163.323 73.3011 162.762 73.4508C162.201 73.6004 161.894 73.6976 161.887 73.6752C161.887 73.6677 161.962 73.6378 162.104 73.5779C162.246 73.5256 162.455 73.4433 162.74 73.3535C163.293 73.174 164.116 72.957 165.148 72.7775C167.206 72.4334 170.176 72.3511 173.265 73.2338C174.806 73.6677 176.22 74.2063 177.552 74.5355C178.876 74.8871 180.118 74.9993 181.142 74.917C182.175 74.8422 182.983 74.5654 183.499 74.3185C184.023 74.0642 184.277 73.8622 184.292 73.8846L184.284 73.8996Z" fill="white"/>
<path d="M183.911 67.077C183.911 67.077 183.814 67.0995 183.62 67.1219C183.425 67.1444 183.148 67.1743 182.782 67.2042C182.056 67.2042 180.986 67.2117 179.692 66.9873C178.398 66.7778 176.887 66.3963 175.226 65.9399C173.565 65.4986 171.732 64.9974 169.765 64.8029C169.271 64.7879 168.785 64.7206 168.306 64.758C168.067 64.7655 167.827 64.758 167.596 64.7804C167.364 64.8103 167.132 64.8328 166.9 64.8627C165.98 64.9749 165.112 65.2367 164.304 65.5135C162.688 66.0896 161.274 66.7404 160.032 67.1593C158.798 67.5932 157.743 67.7802 157.01 67.8251C156.644 67.855 156.359 67.8401 156.165 67.8251C155.97 67.8176 155.873 67.8027 155.873 67.7952C155.873 67.7877 155.978 67.7802 156.165 67.7728C156.359 67.7728 156.636 67.7728 156.995 67.7204C157.713 67.6531 158.746 67.4361 159.965 66.9873C161.192 66.5534 162.591 65.8801 164.214 65.2891C165.03 65.0048 165.905 64.7355 166.847 64.6158C167.079 64.5859 167.319 64.556 167.558 64.5261C167.798 64.5111 168.044 64.5111 168.284 64.5036C168.77 64.4737 169.264 64.5335 169.765 64.5485C171.762 64.743 173.603 65.2517 175.263 65.708C176.924 66.1719 178.42 66.5683 179.7 66.8002C180.979 67.0471 182.034 67.0696 182.752 67.092C183.096 67.077 183.373 67.0696 183.59 67.0546C183.784 67.0546 183.881 67.0546 183.881 67.0546L183.911 67.077Z" fill="white"/>
<path d="M188.443 54.8832C188.488 54.9056 188.016 55.5714 187.583 56.7758C187.141 57.9728 186.805 59.7607 187.141 61.6908C187.478 63.6133 188.398 65.1918 189.198 66.1793C190.006 67.1742 190.657 67.653 190.627 67.6904C190.62 67.6979 190.448 67.5932 190.171 67.3613C189.887 67.1368 189.498 66.7778 189.079 66.284C188.226 65.3115 187.261 63.7106 186.917 61.7282C186.573 59.7532 186.947 57.9129 187.433 56.716C187.672 56.11 187.927 55.6462 188.121 55.3395C188.316 55.0328 188.443 54.8757 188.45 54.8832H188.443Z" fill="white"/>
<path d="M164.453 56.3119C164.453 56.3119 164.311 56.3643 164.049 56.4017C163.788 56.4466 163.406 56.499 162.927 56.5214C162.448 56.5438 161.872 56.5438 161.252 56.3942C160.623 56.2521 159.972 55.893 159.456 55.3693C158.932 54.8532 158.528 54.2846 158.125 53.8208C157.721 53.357 157.302 52.9904 156.898 52.7585C156.09 52.2723 155.461 52.392 155.469 52.3396C155.469 52.3321 155.611 52.2872 155.88 52.2872C156.15 52.2947 156.546 52.377 156.972 52.6089C157.399 52.8333 157.855 53.1999 158.282 53.6787C158.708 54.15 159.112 54.7035 159.613 55.2048C160.114 55.706 160.705 56.0426 161.296 56.1848C161.887 56.3419 162.448 56.3568 162.92 56.3568C163.855 56.3419 164.446 56.2745 164.446 56.3119H164.453Z" fill="white"/>
<path d="M163.54 194.738C163.472 194.738 163.42 189.972 163.42 184.1C163.42 178.227 163.472 173.462 163.54 173.462C163.607 173.462 163.659 178.227 163.659 184.1C163.659 189.972 163.607 194.738 163.54 194.738Z" fill="#263238"/>
<path d="M165.553 189.269C165.486 189.269 165.434 184.504 165.434 178.632C165.434 172.759 165.486 167.994 165.553 167.994C165.621 167.994 165.673 172.759 165.673 178.632C165.673 184.504 165.621 189.269 165.553 189.269Z" fill="#263238"/>
<path d="M0.00976562 228.695C0.00976562 228.695 13.5698 196.455 70.6898 195.415C127.82 194.375 143.68 205.815 180.41 175.655C217.14 145.495 258.34 110.135 339.01 149.655V233.395H0.00976562V228.695Z" fill="url(#paint2_linear_28_12159)"/>
<path d="M0 232.215C0 232.215 13.56 205.695 70.68 204.835C127.81 203.985 143.67 227.645 180.4 202.835C217.13 178.025 258.33 148.935 339 181.445V234.765H0V232.215Z" fill="url(#paint3_linear_28_12159)"/>
<defs>
<linearGradient id="paint0_linear_28_12159" x1="44.06" y1="106.765" x2="310.3" y2="319.865" gradientUnits="userSpaceOnUse">
<stop stop-color="#FF8177"/>
<stop offset="1" stop-color="#B22B5B"/>
</linearGradient>
<linearGradient id="paint1_linear_28_12159" x1="151.766" y1="75.8147" x2="195.259" y2="75.8147" gradientUnits="userSpaceOnUse">
<stop stop-color="#FF8177"/>
<stop offset="1" stop-color="#B22B5B"/>
</linearGradient>
<linearGradient id="paint2_linear_28_12159" x1="391" y1="147.225" x2="127.54" y2="237.755" gradientUnits="userSpaceOnUse">
<stop stop-color="#FF8177"/>
<stop offset="1" stop-color="#B22B5B"/>
</linearGradient>
<linearGradient id="paint3_linear_28_12159" x1="334.4" y1="180.935" x2="24.63" y2="267.655" gradientUnits="userSpaceOnUse">
<stop stop-color="#FF8177"/>
<stop offset="1" stop-color="#B22B5B"/>
</linearGradient>
</defs>
</svg>
