<svg width="56" height="53" viewBox="0 0 56 53" fill="none" xmlns="http://www.w3.org/2000/svg">
<defs>
<linearGradient id="paint0_linear_1_158580" x1="0" y1="26.504" x2="55.2083" y2="26.504" gradientUnits="userSpaceOnUse">
<stop stop-color="#FF8177"/>
<stop offset="1" stop-color="#B22B5B"/>
</linearGradient>
</defs>
<ellipse cx="27.6042" cy="26.5" rx="27.6042" ry="26.5" fill="url(#paint0_linear_1_158580)"/>
<path d="M28.0859 22.2397H28.8179C30.78 22.2397 32.7517 22.3505 34.7042 22.2157C38.0078 21.9874 38.4536 24.2956 37.6556 26.4477C36.7172 28.9789 35.4596 31.4006 34.3134 33.8571C33.9639 34.6074 33.2993 34.9892 32.449 34.9918C29.5279 35.0012 26.6067 35.0079 23.6856 34.9905C22.4128 34.9825 21.4896 34.0747 21.4841 32.8331C21.4703 29.5997 21.4483 26.3663 21.5102 23.1342C21.5199 22.5908 21.8391 21.9927 22.1762 21.5295C22.6743 20.8473 23.2783 20.2265 23.9057 19.6484C24.7506 18.8688 25.2693 17.9636 25.3931 16.8355C25.4262 16.5298 25.5184 16.2281 25.5982 15.929C25.8197 15.1093 26.4623 14.7983 27.2782 15.132C28.4656 15.6166 29.2196 16.4911 29.1151 17.742C29.0119 18.9622 28.6473 20.1611 28.3831 21.3666C28.3225 21.6416 28.2014 21.9046 28.0859 22.237V22.2397Z" fill="white"/>
<path d="M19.2885 28.6131C19.2885 30.139 19.294 31.6636 19.2871 33.1896C19.2816 34.2749 18.6074 34.9985 17.6319 34.9905C16.6591 34.9825 16.0055 34.2603 16.0041 33.1629C15.9986 30.1337 15.9986 27.1059 16.0041 24.0767C16.0055 22.9766 16.6522 22.2544 17.625 22.2424C18.6212 22.229 19.2844 22.9659 19.2885 24.1021C19.294 25.6053 19.2885 27.1085 19.2885 28.6118V28.6131Z" fill="white"/>
</svg>
