<svg width="22" height="21" viewBox="0 0 22 21" fill="none" xmlns="http://www.w3.org/2000/svg">
<path d="M12.0869 7.24034H12.819C14.7813 7.24034 16.7532 7.35116 18.7058 7.21631C22.0098 6.988 22.4556 9.29646 21.6575 11.4487C20.719 13.9801 19.4613 16.4021 18.315 18.8588C17.9655 19.6091 17.3009 19.991 16.4505 19.9936C13.5291 20.003 10.6077 20.0096 7.68627 19.9923C6.41341 19.9843 5.49007 19.0764 5.48457 17.8347C5.47081 14.601 5.44879 11.3673 5.51071 8.13489C5.52034 7.59148 5.83959 6.99334 6.17673 6.53004C6.67486 5.84779 7.27896 5.22694 7.90645 4.64883C8.75135 3.8691 9.27013 2.96388 9.39397 1.83568C9.427 1.52993 9.5192 1.22819 9.59901 0.929118C9.82056 0.109341 10.4632 -0.201748 11.2792 0.132038C12.4667 0.616695 13.2208 1.49121 13.1162 2.74224C13.013 3.96256 12.6484 5.16152 12.3842 6.36716C12.3236 6.6422 12.2025 6.90522 12.0869 7.23767V7.24034Z" fill="#353333"/>
<path d="M3.2888 13.6143C3.2888 15.1404 3.29431 16.6651 3.28743 18.1912C3.28192 19.2767 2.60765 20.0003 1.63202 19.9923C0.659137 19.9843 0.00550427 19.262 0.0041282 18.1645C-0.00137607 15.135 -0.00137607 12.1069 0.0041282 9.0775C0.00550427 7.97734 0.652256 7.25503 1.62514 7.24301C2.62141 7.22966 3.28467 7.96666 3.2888 9.10286C3.29431 10.6062 3.2888 12.1096 3.2888 13.613V13.6143Z" fill="#353333"/>
</svg>
