<svg width="22" height="21" viewBox="0 0 22 21" fill="none" xmlns="http://www.w3.org/2000/svg">
<path d="M12.0859 7.2397H12.8179C14.78 7.2397 16.7517 7.3505 18.7042 7.21567C22.0078 6.98738 22.4536 9.29563 21.6556 11.4477C20.7172 13.9789 19.4596 16.4006 18.3134 18.8571C17.9639 19.6074 17.2993 19.9892 16.449 19.9918C13.5279 20.0012 10.6067 20.0079 7.68559 19.9905C6.41284 19.9825 5.48958 19.0747 5.48408 17.8331C5.47032 14.5997 5.4483 11.3663 5.51022 8.13416C5.51985 7.59081 5.83907 6.99272 6.17618 6.52946C6.67427 5.84727 7.27831 5.22648 7.90574 4.64841C8.75057 3.86876 9.26931 2.96361 9.39314 1.83552C9.42616 1.5298 9.51835 1.22808 9.59816 0.929036C9.81968 0.109331 10.4623 -0.20173 11.2782 0.132026C12.4656 0.61664 13.2196 1.49108 13.1151 2.742C13.0119 3.96221 12.6473 5.16106 12.3831 6.36659C12.3225 6.64161 12.2014 6.90461 12.0859 7.23703V7.2397Z" fill="white"/>
<path d="M3.28851 13.6131C3.28851 15.139 3.29401 16.6636 3.28713 18.1896C3.28163 19.2749 2.60742 19.9985 1.63187 19.9905C0.659078 19.9825 0.00550378 19.2603 0.00412784 18.1629C-0.00137595 15.1337 -0.00137595 12.1059 0.00412784 9.07669C0.00550378 7.97663 0.652198 7.25438 1.62499 7.24237C2.62118 7.22902 3.28438 7.96595 3.28851 9.10205C3.29401 10.6053 3.28851 12.1085 3.28851 13.6118V13.6131Z" fill="white"/>
</svg>
