<svg width="21" height="20" viewBox="0 0 21 20" fill="none" xmlns="http://www.w3.org/2000/svg">
<path d="M5.92509 9.09995L9.58314 1C10.3108 1 11.0086 1.28446 11.5231 1.79081C12.0376 2.29715 12.3267 2.9839 12.3267 3.69998V7.29996H17.5028C17.7679 7.29701 18.0305 7.35081 18.2724 7.45765C18.5143 7.5645 18.7297 7.72182 18.9037 7.91872C19.0777 8.11562 19.2061 8.34739 19.28 8.59798C19.3539 8.84856 19.3716 9.11197 19.3318 9.36995L18.0698 17.4699C18.0037 17.8991 17.7821 18.2903 17.446 18.5715C17.1099 18.8527 16.6819 19.0048 16.2408 18.9999H5.92509M5.92509 9.09995V18.9999M5.92509 9.09995H3.18156C2.69647 9.09995 2.23126 9.28959 1.88825 9.62715C1.54524 9.96472 1.35254 10.4226 1.35254 10.8999V17.1999C1.35254 17.6773 1.54524 18.1351 1.88825 18.4727C2.23126 18.8102 2.69647 18.9999 3.18156 18.9999H5.92509" stroke="url(#paint0_linear_3924_3609)" stroke-width="1.5" stroke-linecap="round" stroke-linejoin="round"/>
<defs>
<linearGradient id="paint0_linear_3924_3609" x1="1.35254" y1="10.0014" x2="19.3525" y2="10.0014" gradientUnits="userSpaceOnUse">
<stop stop-color="#FF8177"/>
<stop offset="1" stop-color="#B22B5B"/>
</linearGradient>
</defs>
</svg>
