<svg width="32" height="32" viewBox="0 0 32 32" fill="none" xmlns="http://www.w3.org/2000/svg">
<path d="M31.5782 15.7107C31.5782 24.3866 24.5483 31.4178 15.874 31.4178C7.19976 31.4178 0.169922 24.3866 0.169922 15.7107C0.169922 7.03475 7.20332 0 15.874 0C24.5448 0 31.5782 7.03475 31.5782 15.7107Z" fill="#212121"/>
<path fill-rule="evenodd" clip-rule="evenodd" d="M18.889 13.7195C19.9054 14.4457 21.1507 14.8726 22.4954 14.8726V12.2858C22.2407 12.2858 21.9872 12.2594 21.7383 12.2065V14.2425C20.3936 14.2425 19.1489 13.8149 18.1319 13.0894V18.3675C18.1319 21.0078 15.9901 23.1483 13.3484 23.1483C12.363 23.1483 11.4466 22.8503 10.6855 22.3396C11.5543 23.227 12.7654 23.7777 14.1056 23.7777C16.7472 23.7777 18.889 21.6372 18.889 18.9969V13.7195ZM19.8235 11.1101C19.3043 10.5432 18.9632 9.80996 18.889 8.99929V8.6665H18.1712C18.3518 9.69645 18.9683 10.5768 19.8235 11.1101ZM12.3565 20.3139C12.0663 19.9333 11.9096 19.4684 11.9103 18.9898C11.9103 17.7819 12.8899 16.8029 14.0985 16.8029C14.3236 16.8029 14.5474 16.8371 14.7621 16.9054V14.2612C14.5112 14.227 14.2584 14.2122 14.005 14.2174V16.2753C13.7902 16.207 13.5664 16.1728 13.3407 16.1728C12.1321 16.1728 11.1525 17.1518 11.1525 18.3597C11.1531 19.2143 11.6426 19.954 12.3565 20.3139Z" fill="#EC407A"/>
<path fill-rule="evenodd" clip-rule="evenodd" d="M18.1307 13.0894C19.1471 13.8156 20.3924 14.2425 21.7371 14.2425V12.2065C20.9864 12.0466 20.3221 11.6544 19.8223 11.1095C18.9671 10.5761 18.3512 9.69645 18.1706 8.6665H16.2855V18.9969C16.281 20.201 15.3033 21.1761 14.0973 21.1761C13.3866 21.1761 12.7552 20.8375 12.3553 20.3132C11.6414 19.9533 11.1519 19.2136 11.1519 18.3597C11.1519 17.1518 12.1316 16.1728 13.3401 16.1728C13.5717 16.1728 13.7948 16.2089 14.0044 16.2753V14.218C11.4092 14.2715 9.32227 16.3908 9.32227 18.9976C9.32227 20.299 9.84207 21.4786 10.6856 22.3402C11.4466 22.851 12.3631 23.1489 13.3485 23.1489C15.9901 23.1489 18.1319 21.0084 18.1319 18.3681L18.1307 13.0894Z" fill="white"/>
<path fill-rule="evenodd" clip-rule="evenodd" d="M21.7357 12.2074V11.6566C21.0586 11.6579 20.3956 11.4683 19.821 11.1097C20.3292 11.6663 20.9986 12.05 21.7357 12.2074ZM18.1687 8.66671C18.1512 8.56804 18.1384 8.46937 18.1293 8.3694V8.03662H15.5264V18.3677C15.5225 19.5718 14.5442 20.5469 13.3382 20.5469C12.9841 20.5469 12.65 20.463 12.354 20.3134C12.7539 20.8377 13.3853 21.1763 14.096 21.1763C15.302 21.1763 16.2797 20.2012 16.2842 18.9971V8.66671H18.1687ZM14.0024 14.2182V13.632C13.7851 13.6023 13.5658 13.5875 13.3459 13.5875C10.7037 13.5875 8.5625 15.728 8.5625 18.3683C8.5625 20.0238 9.40413 21.4827 10.683 22.3404C9.83945 21.4788 9.31964 20.2992 9.31964 18.9978C9.31964 16.391 11.4073 14.2718 14.0024 14.2182Z" fill="#81D4FA"/>
</svg>
