<svg width="19" height="21" viewBox="0 0 19 21" fill="none" xmlns="http://www.w3.org/2000/svg">
<path d="M16.2879 4.82222V18.2C16.2879 18.7069 16.0866 19.193 15.7282 19.5514C15.3698 19.9098 14.8837 20.1111 14.3768 20.1111H4.82127C4.31441 20.1111 3.82831 19.9098 3.46991 19.5514C3.1115 19.193 2.91016 18.7069 2.91016 18.2V4.82222M5.77682 4.82222V2.91111C5.77682 2.40425 5.97817 1.91815 6.33657 1.55975C6.69498 1.20135 7.18108 1 7.68793 1H11.5102C12.017 1 12.5031 1.20135 12.8615 1.55975C13.2199 1.91815 13.4213 2.40425 13.4213 2.91111V4.82222" stroke="#7C7C7C" stroke-width="1.3" stroke-linecap="round" stroke-linejoin="round"/>
<path d="M7.68799 9.59998V15.3333" stroke="#7C7C7C" stroke-width="1.3" stroke-linecap="round" stroke-linejoin="round"/>
<path d="M11.5103 9.59998V15.3333" stroke="#7C7C7C" stroke-width="1.3" stroke-linecap="round" stroke-linejoin="round"/>
<path d="M1 4.8222H2.91111H18.2" stroke="#7C7C7C" stroke-width="1.3" stroke-linecap="round" stroke-linejoin="round"/>
</svg>
