<svg width="33" height="32" viewBox="0 0 33 32" fill="none" xmlns="http://www.w3.org/2000/svg">
<path d="M16.5428 0C12.3983 0 8.42356 1.64638 5.49298 4.57697C2.5624 7.50755 0.916016 11.4823 0.916016 15.6267C0.916016 19.7712 2.5624 23.7459 5.49298 26.6765C8.42356 29.6071 12.3983 31.2535 16.5428 31.2535C20.6872 31.2535 24.6619 29.6071 27.5925 26.6765C30.5231 23.7459 32.1695 19.7712 32.1695 15.6267C32.1695 11.4823 30.5231 7.50755 27.5925 4.57697C24.6619 1.64638 20.6872 0 16.5428 0Z" fill="#03A9F4"/>
<path d="M24.1334 11.2174C23.5755 11.4747 22.869 11.7161 22.2359 11.7964C22.8797 11.399 23.9013 10.5713 24.1334 9.82251C23.5319 10.1903 22.4439 10.5831 21.7343 10.7252C21.1675 10.1002 20.3592 9.82251 19.4636 9.82251C17.7431 9.82251 16.5433 11.3391 16.5433 13.1123V14.4283C14.0132 14.4283 11.5464 12.4235 10.0113 10.4805C9.74123 10.9549 9.58943 11.5102 9.58943 12.0971C9.58943 13.2939 10.6464 14.5086 11.4832 15.0863C10.9727 15.0698 10.0063 14.6645 9.58564 14.4283C9.58564 14.4388 9.58564 14.452 9.58564 14.4658C9.58564 16.0232 10.6362 17.0806 12.06 17.3753C11.8001 17.4497 11.4832 17.7181 10.2637 17.7181C10.6596 18.9913 12.6502 19.6644 14.0132 19.692C12.9468 20.552 11.0455 21.008 9.58564 21.008C9.33326 21.008 9.19664 21.0224 8.95312 20.9928C10.3307 21.9008 12.2548 22.3239 14.0132 22.3239C19.7419 22.3239 22.8684 17.7721 22.8684 13.5269C22.8684 13.3874 22.8639 12.9202 22.857 12.7834C23.4692 12.3346 23.7172 11.8648 24.1334 11.2174Z" fill="white"/>
<path d="M16.5428 0C12.3983 0 8.42356 1.64638 5.49298 4.57697C2.5624 7.50755 0.916016 11.4823 0.916016 15.6267C0.916016 19.7712 2.5624 23.7459 5.49298 26.6765C8.42356 29.6071 12.3983 31.2535 16.5428 31.2535C20.6872 31.2535 24.6619 29.6071 27.5925 26.6765C30.5231 23.7459 32.1695 19.7712 32.1695 15.6267C32.1695 11.4823 30.5231 7.50755 27.5925 4.57697C24.6619 1.64638 20.6872 0 16.5428 0Z" fill="black"/>
<g clip-path="url(#clip0_1098_554)">
<path d="M17.9715 14.4842L23.5565 8.12671H22.2335L17.382 13.6457L13.51 8.12671H9.04297L14.8995 16.4732L9.04297 23.1392H10.366L15.486 17.3097L19.576 23.1392H24.043M10.8435 9.10371H12.876L22.2325 22.2102H20.1995" fill="white"/>
</g>
<defs>
<clipPath id="clip0_1098_554">
<rect width="15" height="15" fill="white" transform="translate(9.04297 8.12671)"/>
</clipPath>
</defs>
</svg>
