<svg width="15" height="16" viewBox="0 0 15 16" fill="none" xmlns="http://www.w3.org/2000/svg">
<path d="M6.18085 0C6.07088 0.0921043 5.94624 0.177124 5.8436 0.283398C5.04444 1.04857 4.25262 1.82083 3.45347 2.59309C3.17486 2.86232 3.17486 3.03944 3.45347 3.30867C4.27462 4.10927 5.1031 4.90987 5.92424 5.71047C5.95357 5.73881 5.9829 5.77423 6.01956 5.79549C6.14419 5.89467 6.2835 5.93718 6.43746 5.86633C6.5841 5.80257 6.66474 5.68213 6.66474 5.51917C6.66474 5.15076 6.66474 4.78234 6.66474 4.41392C6.66474 4.35724 6.66474 4.30056 6.66474 4.2368C7.1413 4.13761 7.61053 4.13761 8.07243 4.19429C9.28215 4.35016 10.2939 4.86736 11.0857 5.76006C11.9216 6.69527 12.3101 7.79344 12.2222 9.02622C12.1195 10.507 11.423 11.6831 10.1693 12.5191C8.97422 13.3197 7.63986 13.5464 6.24684 13.1567C4.47257 12.6679 3.35082 11.5201 2.8816 9.79848C2.79362 9.47966 2.77895 9.13958 2.74963 8.81367C2.7203 8.50193 2.58833 8.36732 2.27307 8.36732C1.67187 8.36732 1.06334 8.36732 0.462144 8.36732C0.146882 8.36732 -0.00708199 8.5161 0.000249863 8.82076C0.000249863 11.8177 2.08245 14.6517 5.02245 15.5727C8.09442 16.5363 10.7851 15.8632 13.0213 13.6243C14.1357 12.5191 14.7443 11.1588 14.9422 9.62844C15.3235 6.6811 13.7911 3.84713 11.1517 2.42305C9.84669 1.71456 8.43901 1.41699 6.94335 1.53035C6.8627 1.53035 6.77472 1.53743 6.67208 1.54452C6.67208 1.1761 6.67208 0.828939 6.67208 0.481776C6.67941 0.247973 6.60609 0.0850193 6.37148 0C6.30549 0 6.24684 0 6.18085 0Z" fill="url(#paint0_linear_1892_420)"/>
<defs>
<linearGradient id="paint0_linear_1892_420" x1="15" y1="8.00121" x2="0" y2="8.00121" gradientUnits="userSpaceOnUse">
<stop stop-color="#FF8177"/>
<stop offset="1" stop-color="#B22B5B"/>
</linearGradient>
</defs>
</svg>
