<svg width="35" height="35" viewBox="0 0 35 35" fill="none" xmlns="http://www.w3.org/2000/svg">
<mask id="mask0_130_4758" style="mask-type:alpha" maskUnits="userSpaceOnUse" x="0" y="0" width="35" height="35">
<rect width="35" height="35" rx="17.5" fill="#EACE76"/>
</mask>
<defs>
<linearGradient id="paint0_linear_130_4758" x1="-1" y1="17.0027" x2="35" y2="17.0027" gradientUnits="userSpaceOnUse">
<stop stop-color="#FF8177"/>
<stop offset="1" stop-color="#B22B5B"/>
</linearGradient>
</defs>
<g mask="url(#mask0_130_4758)">
<path d="M18.6195 21.2561H14.8811V24.918H18.6195V21.2561Z" fill="#FBC88C"/>
<g style="mix-blend-mode:multiply">
<path d="M15.214 23.9013C16.2352 23.0061 17.7647 23.249 18.6195 22.0973V21.2561H14.8811V24.3062C14.9711 24.1532 15.079 24.0183 15.214 23.9013Z" fill="#C6C6C6"/>
</g>
<path d="M22.2718 13.9143C22.1368 14.9085 22.5372 15.7813 23.1625 15.8622C23.7878 15.9432 24.3996 15.2099 24.5301 14.2157C24.6605 13.2215 24.2647 12.3488 23.6394 12.2678C23.0141 12.1869 22.4022 12.9201 22.2718 13.9143Z" fill="#FBC88C"/>
<g style="mix-blend-mode:multiply">
<path d="M23.0367 13.6174C23.0367 13.6174 23.0412 13.5634 23.0592 13.4689C23.0772 13.379 23.1177 13.2485 23.1851 13.109C23.2526 12.9741 23.3696 12.8211 23.527 12.8121C23.563 12.8121 23.608 12.8121 23.6485 12.8256C23.6575 12.8256 23.698 12.8436 23.707 12.8481C23.7205 12.8616 23.7385 12.8616 23.7565 12.8796C23.824 12.9291 23.8779 13.0056 23.9184 13.0911C23.9634 13.1765 23.9904 13.2755 24.0084 13.37C24.0264 13.4644 24.0399 13.5679 24.0309 13.6534C24.0174 13.7524 24.0174 13.8558 24.0039 13.9413C23.9904 14.0313 23.9769 14.1122 23.9634 14.1887C23.9409 14.2652 23.9274 14.3372 23.9139 14.4047C23.9004 14.4676 23.8779 14.5216 23.8689 14.5666C23.8419 14.6566 23.8284 14.7106 23.8284 14.7106C23.8284 14.7106 23.8554 14.6656 23.9049 14.5801C23.9274 14.5396 23.9589 14.4901 23.9859 14.4271C24.0129 14.3687 24.0444 14.2967 24.0759 14.2202C24.1029 14.1437 24.1299 14.0538 24.1568 13.9593C24.1838 13.8648 24.1973 13.7703 24.2108 13.6714C24.2288 13.5589 24.2243 13.4464 24.2063 13.334C24.1838 13.2215 24.1568 13.109 24.1029 13.0011C24.0534 12.8931 23.9769 12.7896 23.8689 12.7132C23.8464 12.6952 23.8105 12.6772 23.7745 12.6637C23.7385 12.6502 23.7295 12.6502 23.689 12.6367C23.626 12.6277 23.563 12.6232 23.5045 12.6367C23.3786 12.6547 23.2751 12.7357 23.2121 12.8166C23.1447 12.8976 23.1087 12.9876 23.0817 13.0686C23.0277 13.2305 23.0232 13.37 23.0232 13.4689C23.0232 13.5679 23.0367 13.6174 23.0367 13.6174Z" fill="#C6C6C6"/>
</g>
<g style="mix-blend-mode:multiply">
<path d="M23.0366 13.6175C23.0366 13.6175 22.9736 13.514 23.3785 13.478C23.3785 13.478 23.8374 13.5365 23.599 14.0359C23.5495 14.1438 23.5045 14.2518 23.4865 14.3688C23.4595 14.5352 23.545 14.7556 23.446 14.9041C23.3155 15.0975 22.9511 14.9941 22.9152 14.7781C22.8882 14.6117 23.0816 14.3238 23.1671 14.2068C23.1671 14.2068 23.437 13.8424 23.0366 13.613V13.6175Z" fill="#C6C6C6"/>
</g>
<g style="mix-blend-mode:multiply">
<path d="M22.9152 14.7646C22.9152 14.7646 22.9017 14.7736 22.8882 14.7916C22.8702 14.8096 22.8477 14.8411 22.8343 14.8861C22.8253 14.9086 22.8208 14.9311 22.8163 14.9581C22.8163 14.9851 22.8073 15.0121 22.8163 15.0391C22.8163 15.0661 22.8253 15.0975 22.8297 15.129C22.8387 15.156 22.8567 15.183 22.8702 15.21C22.8882 15.237 22.8972 15.264 22.9197 15.282C22.9422 15.3045 22.9647 15.3225 22.9827 15.3405C23.0232 15.381 23.0682 15.399 23.1132 15.408C23.1941 15.4349 23.2526 15.4349 23.2526 15.4349C23.2526 15.4349 23.2256 15.3765 23.1806 15.318C23.1671 15.3 23.1582 15.2865 23.1447 15.273C23.1357 15.255 23.1267 15.237 23.1132 15.219C23.0997 15.201 23.0907 15.183 23.0772 15.1695C23.0637 15.1515 23.0592 15.1335 23.0457 15.1155C23.0187 15.0796 23.0052 15.0436 22.9917 15.0076C22.9827 14.9896 22.9782 14.9716 22.9692 14.9536C22.9692 14.9356 22.9557 14.9176 22.9512 14.8996C22.9332 14.8321 22.9197 14.7691 22.9197 14.7691L22.9152 14.7646Z" fill="#C6C6C6"/>
</g>
<path d="M11.228 13.9143C11.3584 14.9085 10.9626 15.7813 10.3373 15.8622C9.71645 15.9432 9.10013 15.2099 8.96967 14.2157C8.83921 13.2215 9.23509 12.3488 9.8604 12.2678C10.4857 12.1869 11.0975 12.9201 11.228 13.9143Z" fill="#FBC88C"/>
<g style="mix-blend-mode:multiply">
<path d="M10.4632 13.6174C10.4632 13.6174 10.4632 13.5634 10.4407 13.4689C10.4227 13.379 10.3822 13.2485 10.3147 13.109C10.2473 12.9741 10.1303 12.8211 9.97283 12.8121C9.93684 12.8121 9.89186 12.8121 9.85137 12.8256C9.84238 12.8256 9.80189 12.8436 9.78839 12.8481C9.7749 12.8616 9.7614 12.8616 9.7434 12.8796C9.67592 12.9291 9.61744 13.0056 9.58145 13.0911C9.54096 13.1765 9.50948 13.2755 9.49148 13.37C9.47349 13.4644 9.45999 13.5679 9.46899 13.6534C9.47798 13.7524 9.47798 13.8558 9.49598 13.9413C9.50947 14.0313 9.52747 14.1122 9.54097 14.1887C9.55896 14.2652 9.57696 14.3372 9.59045 14.4047C9.60395 14.4676 9.62194 14.5216 9.63543 14.5666C9.65793 14.6566 9.67142 14.7106 9.67142 14.7106C9.67142 14.7106 9.64443 14.6656 9.59495 14.5801C9.57245 14.5396 9.54097 14.4901 9.51398 14.4271C9.48698 14.3687 9.45549 14.2967 9.424 14.2202C9.39251 14.1437 9.37002 14.0538 9.34303 13.9593C9.31603 13.8648 9.30704 13.7703 9.28904 13.6714C9.27105 13.5589 9.27555 13.4464 9.29354 13.334C9.31153 13.2215 9.34302 13.109 9.39701 13.0011C9.44649 12.8931 9.52297 12.7896 9.63094 12.7132C9.65343 12.6952 9.68942 12.6772 9.72091 12.6637C9.7569 12.6502 9.7659 12.6502 9.80638 12.6367C9.86936 12.6277 9.93234 12.6232 9.99532 12.6367C10.1213 12.6547 10.2248 12.7357 10.2877 12.8166C10.3552 12.8976 10.3912 12.9876 10.4182 13.0686C10.4722 13.2305 10.4722 13.37 10.4722 13.4689C10.4722 13.5679 10.4587 13.6174 10.4587 13.6174H10.4632Z" fill="#C6C6C6"/>
</g>
<g style="mix-blend-mode:multiply">
<path d="M10.4629 13.6175C10.4629 13.6175 10.5303 13.514 10.121 13.478C10.121 13.478 9.66211 13.5365 9.89604 14.0359C9.95002 14.1438 9.99051 14.2518 10.013 14.3688C10.0445 14.5352 9.95452 14.7556 10.0535 14.9041C10.184 15.0975 10.5483 14.9941 10.5843 14.7781C10.6113 14.6117 10.4179 14.3238 10.3324 14.2068C10.3324 14.2068 10.0625 13.8424 10.4629 13.613V13.6175Z" fill="#C6C6C6"/>
</g>
<g style="mix-blend-mode:multiply">
<path d="M10.5845 14.7646C10.5845 14.7646 10.598 14.7736 10.616 14.7916C10.634 14.8096 10.6564 14.8411 10.6699 14.8861C10.6834 14.9086 10.6834 14.9311 10.6879 14.9581C10.6879 14.9851 10.6969 15.0121 10.6879 15.0391C10.6834 15.0661 10.6789 15.0975 10.6699 15.129C10.6609 15.156 10.643 15.183 10.6295 15.21C10.6115 15.237 10.6025 15.264 10.58 15.282C10.562 15.3045 10.535 15.3225 10.517 15.3405C10.4765 15.381 10.4315 15.399 10.3865 15.408C10.3056 15.4349 10.2471 15.4349 10.2471 15.4349C10.2471 15.4349 10.2741 15.3765 10.319 15.318C10.328 15.3 10.3415 15.2865 10.355 15.273C10.364 15.255 10.373 15.237 10.3865 15.219C10.4 15.201 10.409 15.183 10.4225 15.1695C10.4405 15.1515 10.4405 15.1335 10.454 15.1155C10.481 15.0796 10.4945 15.0436 10.508 15.0076C10.517 14.9896 10.526 14.9716 10.5305 14.9536C10.5305 14.9356 10.5485 14.9176 10.5485 14.8996C10.571 14.8321 10.58 14.7691 10.58 14.7691L10.5845 14.7646Z" fill="#C6C6C6"/>
</g>
<path d="M16.7703 2.67212C16.7703 2.67212 16.7524 2.67212 16.7479 2.67212C16.7389 2.67212 16.7344 2.67212 16.7254 2.67212C15.2318 2.75759 8.71332 3.69331 10.2743 13.7342L10.6567 17.936C10.6567 17.936 10.9896 18.8807 12.1593 19.7669C12.1593 19.7669 14.1746 21.4629 15.8661 22.2141C15.8661 22.2141 16.235 22.3221 16.7344 22.5021V22.5201C16.7344 22.5201 16.7479 22.5156 16.7569 22.5111C16.7658 22.5111 16.7703 22.5156 16.7793 22.5201V22.5021C17.2787 22.3221 17.6431 22.2141 17.6431 22.2141C19.3346 21.4629 21.3455 19.7669 21.3455 19.7669C22.5151 18.8762 22.5691 17.9315 22.5691 17.9315L23.2259 13.7297C24.7824 3.68431 18.2639 2.75309 16.7703 2.67212Z" fill="#FBC88C"/>
<g style="mix-blend-mode:multiply">
<path d="M16.7345 22.5156V22.5021C16.3251 22.3221 16.0237 22.2141 16.0237 22.2141C14.6381 21.4629 12.9872 19.7669 12.9872 19.7669C12.0289 18.8762 11.7545 17.9315 11.7545 17.9315L11.4396 13.7297C10.162 3.68881 15.5064 2.75309 16.73 2.67212C15.2365 2.75759 8.71795 3.69331 10.279 13.7342L10.6614 17.936C10.6614 17.936 10.9943 18.8807 12.1639 19.7669C12.1639 19.7669 14.1793 21.4629 15.8708 22.2141C15.8708 22.2141 16.2397 22.3221 16.739 22.5021V22.5201L16.7345 22.5156Z" fill="#EDEDED"/>
<path d="M16.7704 2.67222C17.994 2.7577 23.3384 3.68891 22.0652 13.7298L21.5254 17.9316C21.5254 17.9316 21.4804 18.8763 20.5222 19.767C20.5222 19.767 18.8712 21.463 17.4857 22.2143C17.4857 22.2143 17.1842 22.3222 16.7749 22.5022V22.5157V22.4977C17.2742 22.3177 17.6386 22.2098 17.6386 22.2098C19.3301 21.4585 21.341 19.7625 21.341 19.7625C22.5106 18.8718 22.5646 17.9271 22.5646 17.9271L23.2214 13.7253C24.7779 3.67992 18.2594 2.7487 16.7659 2.66772L16.7704 2.67222Z" fill="#EDEDED"/>
</g>
<path d="M9.43298 35.9756H24.067L25.0207 29.2681C25.5111 27.2213 23.9186 26.2316 23.9186 26.2316L18.4617 24.0632H15.0428L9.58594 26.2316C9.58594 26.2316 7.99792 27.2213 8.48377 29.2681L9.43749 35.9756H9.43298Z" fill="#FBC88C"/>
<path d="M8.76265 35.9756H24.7193L25.0162 29.2681C25.5065 27.2212 23.914 26.2315 23.914 26.2315L18.6101 24.1217L16.7207 24.8954L14.8853 24.1172L9.5769 26.2315C9.5769 26.2315 7.98889 27.2212 8.47474 29.2681L8.75365 35.9756H8.76265Z" fill="white"/>
<path d="M4.45762 35.9754H9.16319C9.54107 33.6316 10.3148 28.1478 9.58606 26.2449L6.28406 27.6439C5.1819 28.3187 5.30786 30.1497 5.30786 30.1497L4.45312 35.9754H4.45762Z" fill="#AFDFF9"/>
<path d="M29.5464 35.9756L27.9764 29.5831C27.9764 29.5831 27.8549 27.9546 26.5908 27.3427L23.8106 26.2046C23.0819 28.1075 23.8601 33.6228 24.2425 35.9756H29.5464Z" fill="#AFDFF9"/>
<path d="M22.677 3.86882C24.7419 6.74794 23.8107 12.2992 23.8107 12.2992L23.3428 13.6083L23.1764 14.7825H22.8525C22.8525 14.7825 23.4868 10.9182 22.2497 9.78451C22.2497 9.78451 22.1507 6.50501 20.7021 6.26658C20.7021 6.26658 18.1109 5.86171 16.7209 6.02366C15.7896 6.01016 14.4356 5.96968 12.8745 6.45553C11.507 6.84691 11.2685 9.78451 11.2685 9.78451C10.0314 10.9182 10.6657 14.7825 10.6657 14.7825H10.3418L10.1709 13.6083L9.70301 12.4207C9.70301 12.4207 9.0687 6.74794 10.9311 4.00827C10.9311 4.00827 12.1727 2.01538 16.208 1.89392C16.208 1.89392 19.7529 2.26281 18.4708 0C18.4708 0 20.4907 0.368887 20.4907 2.07836C20.4907 2.07836 21.8358 2.07836 21.5929 0.49035C21.5929 0.49035 23.8197 2.05587 22.677 3.86882Z" fill="#432918"/>
<path d="M16.7208 6.02808C16.6848 6.03257 16.7208 6.02808 16.7208 6.02808V6.02808Z" fill="#432918"/>
<path d="M4.45762 35.9754H9.16319C9.54107 33.6316 10.3148 28.1478 9.58606 26.2449L6.28406 27.6439C5.1819 28.3187 5.30786 30.1497 5.30786 30.1497L4.45312 35.9754H4.45762Z" fill="#163D47"/>
<path d="M29.7262 35.9755L29.2943 30.2622C29.2943 30.2622 29.1729 28.3188 27.9088 27.707L23.806 26.209C23.0772 28.1119 23.8555 33.6272 24.2379 35.98H29.7217L29.7262 35.9755Z" fill="#163D47"/>
<path d="M17.9215 35.9755L17.4672 27.3472H16.0186L15.5732 35.9755H17.9215Z" fill="#F39200"/>
<path d="M15.1597 25.0259H18.3402L17.4855 27.3472H16.0189L15.1597 25.0259Z" fill="#B16D00"/>
<path d="M19.9645 17.1398C21.494 16.9374 22.1868 15.7138 22.8481 14.7375H23.1855L22.5737 17.9361C22.5737 17.9361 22.5197 18.8808 21.35 19.7715C21.35 19.7715 19.3392 21.4675 17.6477 22.2188C17.6477 22.2188 17.2788 22.3267 16.7839 22.5067V22.5247C16.7839 22.5247 16.7704 22.5202 16.7614 22.5157C16.7524 22.5157 16.7479 22.5202 16.7389 22.5247V22.5067C16.2396 22.3267 15.8707 22.2188 15.8707 22.2188C14.1792 21.4675 12.1638 19.7715 12.1638 19.7715C10.9942 18.8808 10.6613 17.9406 10.6613 17.9406L10.3374 14.742H10.6568C10.9807 15.2909 12.5462 17.0633 13.7833 17.1083C13.7833 17.1083 15.7672 17.0229 16.8244 17.7966C16.8244 17.7966 17.7826 17.0813 19.9645 17.1443V17.1398Z" fill="#432918"/>
<path d="M15.7761 16.1907C15.7761 16.1907 15.8076 16.1907 15.8616 16.2042C15.9155 16.2177 15.9965 16.2132 16.0865 16.2222C16.181 16.2312 16.2844 16.2537 16.4014 16.2492C16.5184 16.2492 16.6443 16.2492 16.7658 16.2492C16.8917 16.2627 17.0132 16.2627 17.1302 16.2492C17.2471 16.2402 17.3551 16.2312 17.4496 16.2222C17.6385 16.2132 17.7645 16.2132 17.7645 16.2132L17.787 16.3166C17.787 16.3166 17.787 16.3346 17.7735 16.3661C17.7645 16.3976 17.7555 16.4561 17.733 16.5056C17.6925 16.6135 17.634 16.753 17.5395 16.8745C17.4496 17.0094 17.3326 17.1219 17.1976 17.2029C17.1302 17.2434 17.0582 17.2838 16.9862 17.3018C16.9097 17.3198 16.8333 17.3243 16.7568 17.3243C16.6803 17.3198 16.6038 17.3153 16.5274 17.2928C16.4509 17.2748 16.3789 17.2434 16.3114 17.2119C16.1765 17.1399 16.037 17.0139 15.9515 16.879C15.8571 16.7575 15.8031 16.6135 15.7761 16.5011C15.7581 16.4516 15.7536 16.3886 15.7446 16.3571C15.7401 16.3211 15.7356 16.3031 15.7356 16.3031L15.7626 16.1997L15.7761 16.1907Z" fill="#D7AD7A"/>
<path d="M19.9644 12.9382C19.9644 13.2846 19.6855 13.559 19.3391 13.559C18.9927 13.559 18.7183 13.2801 18.7183 12.9382C18.7183 12.5963 18.9972 12.3174 19.3391 12.3174C19.681 12.3174 19.9644 12.5963 19.9644 12.9382Z" fill="#502A0C"/>
<path d="M19.6273 12.9383C19.6273 13.0958 19.5014 13.2262 19.3394 13.2262C19.1775 13.2262 19.0515 13.0958 19.0515 12.9383C19.0515 12.7809 19.182 12.6504 19.3394 12.6504C19.4969 12.6504 19.6273 12.7809 19.6273 12.9383Z" fill="#281000"/>
<path d="M19.8522 12.7672C19.8522 12.8931 19.7487 12.9921 19.6273 12.9921C19.5058 12.9921 19.4023 12.8886 19.4023 12.7672C19.4023 12.6457 19.5013 12.5422 19.6273 12.5422C19.7532 12.5422 19.8522 12.6412 19.8522 12.7672Z" fill="white"/>
<path d="M19.3932 12.6142C19.3932 12.6907 19.3347 12.7492 19.2583 12.7492C19.1818 12.7492 19.1233 12.6907 19.1233 12.6142C19.1233 12.5377 19.1818 12.4792 19.2583 12.4792C19.3347 12.4792 19.3932 12.5377 19.3932 12.6142Z" fill="white"/>
<path d="M17.9759 10.7158C17.9759 10.7158 21.1969 10.1849 21.4803 11.7369C21.4803 11.7369 20.6256 11.3681 19.4019 11.4085L17.8544 11.4895C17.8544 11.4895 17.6925 10.9587 17.9759 10.7158Z" fill="#432918"/>
<path d="M13.5403 12.9382C13.5403 13.2846 13.8192 13.559 14.1611 13.559C14.503 13.559 14.7864 13.2801 14.7864 12.9382C14.7864 12.5963 14.5075 12.3174 14.1611 12.3174C13.8147 12.3174 13.5403 12.5963 13.5403 12.9382Z" fill="#502A0C"/>
<path d="M13.8777 12.9383C13.8777 13.0958 14.0081 13.2262 14.1656 13.2262C14.323 13.2262 14.4535 13.0958 14.4535 12.9383C14.4535 12.7809 14.323 12.6504 14.1656 12.6504C14.0081 12.6504 13.8777 12.7809 13.8777 12.9383Z" fill="#281000"/>
<path d="M13.6482 12.7672C13.6482 12.8931 13.7472 12.9921 13.8731 12.9921C13.9991 12.9921 14.0981 12.8886 14.0981 12.7672C14.0981 12.6457 13.9991 12.5422 13.8731 12.5422C13.7472 12.5422 13.6482 12.6412 13.6482 12.7672Z" fill="white"/>
<path d="M14.1069 12.6142C14.1069 12.6907 14.1654 12.7492 14.2419 12.7492C14.3184 12.7492 14.3769 12.6907 14.3769 12.6142C14.3769 12.5377 14.3184 12.4792 14.2419 12.4792C14.1654 12.4792 14.1069 12.5377 14.1069 12.6142Z" fill="white"/>
<path d="M15.5242 10.7158C15.5242 10.7158 12.3032 10.1849 12.0198 11.7369C12.0198 11.7369 12.8745 11.3681 14.0981 11.4085L15.6502 11.4895C15.6502 11.4895 15.8121 10.9587 15.5287 10.7158H15.5242Z" fill="#432918"/>
<path d="M18.7588 18.2915C16.7524 18.4085 16.0686 18.2915 14.7505 18.3185C14.7505 18.3185 16.4735 20.7118 18.7588 18.2915Z" fill="white"/>
<path d="M18.6417 18.332L17.76 18.4175C17.4271 18.458 17.0897 18.4625 16.7523 18.485C16.4149 18.5029 16.082 18.503 15.7446 18.5119L14.7504 18.5524L14.9394 18.179C14.9888 18.2375 15.0563 18.305 15.1193 18.368C15.1823 18.431 15.2543 18.4895 15.3217 18.5434C15.4612 18.6514 15.6142 18.7504 15.7716 18.8268C15.9246 18.9078 16.0865 18.9663 16.2485 19.0068C16.4104 19.0473 16.5724 19.0743 16.7388 19.0743C17.0717 19.0878 17.4136 18.9978 17.751 18.8493C17.9175 18.7774 18.0839 18.6829 18.2504 18.5884C18.3853 18.5119 18.5158 18.4175 18.6462 18.332H18.6417ZM18.7767 18.3095C18.6732 18.4805 18.5473 18.6379 18.4168 18.7954C18.2773 18.9438 18.1289 19.0878 17.9579 19.2092C17.6205 19.4567 17.2067 19.6321 16.7568 19.6681C16.5319 19.6816 16.3069 19.6636 16.091 19.6051C15.8751 19.5466 15.6726 19.4522 15.4882 19.3397C15.3038 19.2227 15.1373 19.0878 14.9844 18.9438C14.9079 18.8718 14.8359 18.7954 14.7639 18.7144C14.6919 18.6334 14.629 18.5569 14.5615 18.458L14.548 18.44C14.476 18.3365 14.503 18.1925 14.6065 18.1206C14.6514 18.0891 14.7009 18.0801 14.7459 18.0801L15.7581 18.1296C16.091 18.1521 16.4284 18.179 16.7568 18.1925C17.0897 18.2105 17.4181 18.242 17.7555 18.242L18.7587 18.26C18.7587 18.26 18.7902 18.2735 18.7857 18.2915C18.7857 18.296 18.7857 18.3005 18.7857 18.305L18.7767 18.3095Z" fill="#D7AD7A"/>
<path d="M16.145 19.8616C16.145 19.8616 16.7523 20.0415 17.3597 19.8616C17.3597 19.8616 16.7253 20.6173 16.145 19.8616Z" fill="#D7AD7A"/>
<path d="M8.49277 35.9755H14.404V24.3196L9.58594 26.2315C9.58594 26.2315 7.99792 27.2212 8.48377 29.2681L8.49277 35.9755Z" fill="#163D47"/>
<path d="M25.0117 35.9755L25.0207 29.268C25.511 27.2211 23.9185 26.2315 23.9185 26.2315L18.925 24.2476V35.971H25.0072L25.0117 35.9755Z" fill="#163D47"/>
<path d="M11.588 33.3033L12.4877 35.9755H14.3996V24.3196L9.26221 26.1505L13.1175 31.8953L11.588 33.3033Z" fill="#22515E"/>
<path d="M20.819 35.9754L21.7412 33.2312L20.2117 31.8276L24.0625 26.0784L18.925 24.252V35.9754H20.819Z" fill="#22515E"/>
<path d="M16.7566 24.8999L18.619 23.4739L20.8188 25.0034L18.637 27.7836L16.7566 24.8999Z" fill="#D6EEFD"/>
<path d="M16.7255 24.8999L14.8585 23.4739L12.6587 25.0034L14.845 27.7836L16.7255 24.8999Z" fill="#D6EEFD"/>
<rect x="-1" y="-1" width="36" height="36" rx="18" fill="url(#paint0_linear_130_4758)"/>
<mask id="mask1_130_4758" style="mask-type:alpha" maskUnits="userSpaceOnUse" x="-1" y="-1" width="36" height="36">
<rect x="-1" y="-1" width="36" height="36" rx="18" fill="#EACE76"/>
</mask>
<g mask="url(#mask1_130_4758)">
<path d="M24.6768 26.3623V10.9309H9.05322V26.3623C9.05322 26.3623 16.2908 22.0819 24.6768 26.3623Z" fill="#432918"/>
<path d="M16.7421 24.4644C16.7824 24.4644 16.8267 24.4644 16.867 24.4644C18.4104 24.4644 20.107 24.6721 21.8962 25.2301V10.9309H11.8337V25.2219C13.1273 24.8269 14.8077 24.4807 16.7421 24.4644Z" fill="#251403"/>
<path d="M22.6498 35.0003H25.5714L24.435 28.9564V28.9361C24.427 28.9157 24.4229 28.8913 24.4189 28.8709C24.2174 28.0238 23.3752 27.4984 22.5329 27.702C21.6947 27.9057 21.1749 28.7569 21.3764 29.604L22.6498 35.0003Z" fill="#BD7544"/>
<path d="M11.4146 34.9996C11.4629 34.6534 11.5072 34.3154 11.5475 33.9936C11.9022 31.2853 12.1359 29.4811 12.1359 29.4811C12.2487 28.6136 11.6443 27.8235 10.7899 27.7095C9.93159 27.5955 9.1498 28.2064 9.03697 29.0698L9.02891 29.1227C9.02891 29.1227 9.01279 29.2367 8.98861 29.4485C8.9604 29.6603 8.9201 29.9698 8.87578 30.3649C8.83145 30.7599 8.77906 31.2405 8.72264 31.7903C8.65414 32.3401 8.60578 32.9633 8.54533 33.6434C8.50503 34.071 8.46877 34.5231 8.42847 34.9914H11.4146V34.9996Z" fill="#BD7544"/>
<path d="M18.483 26.8215H14.7312L15.3236 22.7407H17.9389L18.483 26.8215Z" fill="#BD7544"/>
<g style="mix-blend-mode:multiply">
<path d="M16.0651 24.3576C16.7663 24.2558 17.7213 24.1499 18.0719 23.5512L17.9389 22.7407H15.3236L15.0334 24.7567C15.3397 24.5571 15.6782 24.4146 16.0651 24.3576Z" fill="#C6C6C6"/>
</g>
<path d="M10.52 35.0002H22.7586L23.5001 31.848C24.5438 28.8057 23.1576 27.6368 23.1576 27.6368L18.3782 25.6208H14.8964L10.1171 27.6368C10.1171 27.6368 8.73483 28.8057 9.77856 31.848L10.52 35.0002Z" fill="#BD7544"/>
<path d="M22.7546 34.9999L23.484 31.8965C22.2025 30.9232 22.0856 28.8094 23.1253 27.6284L18.8618 25.7957L16.6212 26.0522L14.3443 25.8486L10.1856 27.6121C11.2615 28.8094 11.1326 30.9802 9.79468 31.9373L10.516 35.004H22.7586L22.7546 34.9999Z" fill="#E74645"/>
<path d="M22.6057 15.2878C22.4727 16.2979 22.8757 17.1857 23.5043 17.2712C24.133 17.3568 24.7536 16.6033 24.8825 15.5933C25.0155 14.5833 24.6125 13.6954 23.9839 13.6099C23.3552 13.5244 22.7387 14.2778 22.6057 15.2878Z" fill="#BD7544"/>
<g style="mix-blend-mode:multiply">
<path d="M23.3755 14.9865C23.3755 14.9865 23.3795 14.9294 23.3997 14.8358C23.4158 14.7421 23.4601 14.6118 23.5246 14.4692C23.5931 14.3348 23.71 14.176 23.8671 14.1638C23.9074 14.1638 23.9477 14.1638 23.988 14.176C23.9961 14.176 24.0364 14.1923 24.0485 14.2004C24.0606 14.2127 24.0767 14.2167 24.0928 14.233C24.1613 14.2819 24.2177 14.3593 24.258 14.4489C24.3024 14.5344 24.3306 14.6362 24.3507 14.734C24.3668 14.8317 24.3829 14.9335 24.3749 15.0231C24.3628 15.1249 24.3628 15.2268 24.3467 15.3163C24.3306 15.4059 24.3185 15.4915 24.3064 15.5689C24.2862 15.6503 24.2701 15.7236 24.258 15.7888C24.2459 15.8539 24.2258 15.911 24.2137 15.9558C24.1895 16.0494 24.1734 16.1024 24.1734 16.1024C24.1734 16.1024 24.2016 16.0535 24.25 15.968C24.2701 15.9232 24.3024 15.8743 24.3306 15.8132C24.3588 15.7521 24.387 15.6788 24.4192 15.6014C24.4474 15.5241 24.4716 15.4304 24.4998 15.3367C24.528 15.239 24.5401 15.1453 24.5562 15.0435C24.5724 14.9254 24.5683 14.8154 24.5482 14.6973C24.528 14.5833 24.4958 14.4692 24.4474 14.3593C24.395 14.2493 24.3185 14.1434 24.2137 14.066C24.1895 14.0457 24.1532 14.0294 24.121 14.0172C24.0847 14.0049 24.0767 14.0009 24.0324 13.9887C23.9719 13.9764 23.9074 13.9764 23.843 13.9887C23.714 14.0049 23.6133 14.0905 23.5488 14.1719C23.4803 14.2575 23.444 14.3471 23.4158 14.4285C23.3634 14.5955 23.3594 14.738 23.3594 14.8358C23.3594 14.9335 23.3755 14.9905 23.3755 14.9905V14.9865Z" fill="#C6C6C6"/>
</g>
<g style="mix-blend-mode:multiply">
<path d="M23.3754 14.9861C23.3754 14.9861 23.3109 14.8802 23.722 14.8477C23.722 14.8477 24.1854 14.9087 23.9476 15.4178C23.8952 15.5237 23.8549 15.6378 23.8308 15.7559C23.7985 15.9269 23.8872 16.1509 23.7864 16.3057C23.6575 16.5012 23.2908 16.3993 23.2545 16.1794C23.2263 16.0124 23.4197 15.7192 23.5084 15.597C23.5084 15.597 23.7784 15.2264 23.3754 14.9943V14.9861Z" fill="#C6C6C6"/>
</g>
<g style="mix-blend-mode:multiply">
<path d="M23.2544 16.1508C23.2544 16.1508 23.2424 16.1589 23.2262 16.1793C23.2061 16.1997 23.1859 16.2323 23.1738 16.273C23.1618 16.2933 23.1618 16.3178 23.1577 16.3463C23.1537 16.3748 23.1497 16.4033 23.1577 16.4318C23.1618 16.4603 23.1658 16.4929 23.1738 16.5214C23.1819 16.5499 23.198 16.5784 23.2101 16.6029C23.2262 16.6273 23.2383 16.6599 23.2625 16.6762C23.2827 16.6965 23.3068 16.7169 23.327 16.7332C23.3713 16.7739 23.4156 16.7943 23.4559 16.8024C23.5406 16.8309 23.597 16.8269 23.597 16.8269C23.597 16.8269 23.5688 16.7658 23.5244 16.7047C23.5124 16.6884 23.5003 16.6721 23.4841 16.6599C23.4721 16.6395 23.464 16.6192 23.4519 16.6029C23.4398 16.5866 23.4277 16.5662 23.4156 16.5499C23.3995 16.5336 23.3955 16.5133 23.3834 16.4929C23.3592 16.4603 23.3431 16.4196 23.327 16.3829C23.3189 16.3667 23.3109 16.3463 23.3068 16.33C23.3068 16.3137 23.2907 16.2933 23.2907 16.2771C23.2706 16.2078 23.2585 16.1467 23.2585 16.1467L23.2544 16.1508Z" fill="#C6C6C6"/>
</g>
<path d="M10.7782 15.2878C10.9112 16.2979 10.5082 17.1857 9.87953 17.2712C9.25087 17.3568 8.63028 16.6033 8.4973 15.5933C8.36431 14.5833 8.7673 13.6954 9.39595 13.6099C10.0246 13.5244 10.6412 14.2778 10.7741 15.2878H10.7782Z" fill="#BD7544"/>
<g style="mix-blend-mode:multiply">
<path d="M10.0084 14.9865C10.0084 14.9865 10.0004 14.9294 9.98425 14.8358C9.96813 14.7421 9.92783 14.6118 9.85933 14.4692C9.79082 14.3348 9.67396 14.176 9.51679 14.1638C9.4765 14.1638 9.4362 14.1638 9.3959 14.176C9.38784 14.176 9.34754 14.1923 9.33545 14.2004C9.31933 14.2127 9.30724 14.2167 9.28709 14.233C9.21859 14.2819 9.16217 14.3593 9.12187 14.4489C9.08157 14.5344 9.04933 14.6362 9.02918 14.734C9.01307 14.8317 8.99695 14.9335 9.00904 15.0231C9.02113 15.1249 9.02113 15.2268 9.03724 15.3163C9.05336 15.4059 9.06545 15.4915 9.08157 15.5689C9.10172 15.6503 9.11381 15.7236 9.12993 15.7888C9.14202 15.8539 9.16217 15.911 9.17426 15.9558C9.19844 16.0494 9.21456 16.1024 9.21456 16.1024C9.21456 16.1024 9.18635 16.0535 9.13799 15.968C9.11784 15.9232 9.0856 15.8743 9.05739 15.8132C9.02918 15.7521 8.99695 15.6788 8.96874 15.6014C8.94053 15.5241 8.91635 15.4304 8.88814 15.3367C8.85993 15.239 8.84784 15.1453 8.83172 15.0435C8.8156 14.9254 8.81963 14.8154 8.83978 14.6973C8.85993 14.5833 8.89217 14.4692 8.94053 14.3593C8.99292 14.2493 9.06948 14.1434 9.17426 14.066C9.19844 14.0457 9.23471 14.0294 9.26694 14.0172C9.29918 14.0049 9.31127 14.0009 9.35157 13.9887C9.41202 13.9764 9.4765 13.9764 9.54097 13.9887C9.66993 14.0049 9.77067 14.0905 9.83515 14.1719C9.90366 14.2575 9.93992 14.3471 9.96813 14.4285C10.0205 14.5955 10.0246 14.738 10.0246 14.8358C10.0246 14.9335 10.0084 14.9905 10.0084 14.9905V14.9865Z" fill="#C6C6C6"/>
</g>
<g style="mix-blend-mode:multiply">
<path d="M10.0085 14.9861C10.0085 14.9861 10.073 14.8802 9.66193 14.8477C9.66193 14.8477 9.1985 14.9087 9.43626 15.4178C9.48865 15.5237 9.52895 15.6378 9.55313 15.7559C9.58134 15.9269 9.49671 16.1509 9.59343 16.3057C9.72238 16.5012 10.0931 16.3993 10.1254 16.1794C10.1536 16.0124 9.96014 15.7192 9.87148 15.597C9.87148 15.597 9.60148 15.2264 10.0045 14.9943L10.0085 14.9861Z" fill="#C6C6C6"/>
</g>
<g style="mix-blend-mode:multiply">
<path d="M10.1294 16.1508C10.1294 16.1508 10.1455 16.1589 10.1616 16.1793C10.1778 16.1997 10.2019 16.2323 10.214 16.273C10.2261 16.2933 10.2261 16.3178 10.2301 16.3463C10.2301 16.3748 10.2382 16.4033 10.2301 16.4318C10.2301 16.4603 10.2221 16.4929 10.214 16.5214C10.206 16.5499 10.1898 16.5784 10.1737 16.6029C10.1576 16.6273 10.1455 16.6599 10.1213 16.6762C10.1012 16.6965 10.077 16.7169 10.0569 16.7332C10.0166 16.7739 9.96821 16.7943 9.92791 16.8024C9.84731 16.8309 9.78687 16.8269 9.78687 16.8269C9.78687 16.8269 9.81507 16.7658 9.8594 16.7047C9.87149 16.6884 9.87955 16.6721 9.89567 16.6599C9.90776 16.6395 9.91582 16.6192 9.92791 16.6029C9.94 16.5866 9.95209 16.5662 9.96418 16.5499C9.9803 16.5336 9.98433 16.5133 9.99239 16.4929C10.0206 16.4603 10.0327 16.4196 10.0488 16.3829C10.0569 16.3667 10.0649 16.3463 10.069 16.33C10.069 16.3137 10.0851 16.2933 10.0891 16.2771C10.1093 16.2078 10.1213 16.1467 10.1213 16.1467L10.1294 16.1508Z" fill="#C6C6C6"/>
</g>
<path d="M20.0747 4.78902C20.0747 4.78902 18.5917 4.1211 16.6171 4.10889C14.6546 4.11703 13.1757 4.78902 13.1757 4.78902C13.1757 4.78902 7.58227 7.50143 11.0358 18.7787C11.5275 20.3915 13.0306 21.6296 14.441 22.5337C15.8958 23.4663 17.3626 23.4623 18.8134 22.5337C20.2238 21.6336 21.7269 20.3915 22.2226 18.7787C25.6681 7.50143 20.0747 4.78902 20.0747 4.78902Z" fill="#BD7544"/>
<g style="mix-blend-mode:multiply">
<path d="M20.0746 4.78829C20.0746 4.78829 18.5957 4.12037 16.6211 4.10815C18.1968 4.12037 19.3815 4.78829 19.3815 4.78829C19.3815 4.78829 23.8506 7.5007 21.0942 18.778C20.6993 20.3907 19.4984 21.6288 18.37 22.533C17.7897 22.9973 17.2094 23.2294 16.6251 23.2294C17.3545 23.2294 18.0839 22.9973 18.8093 22.533C20.2197 21.6329 21.7228 20.3907 22.2185 18.778C25.668 7.5007 20.0746 4.78829 20.0746 4.78829Z" fill="#EDEDED"/>
<path d="M14.8762 22.533C13.7479 21.6329 12.547 20.3907 12.1521 18.778C9.39972 7.5007 13.8648 4.78829 13.8648 4.78829C13.8648 4.78829 15.0495 4.12037 16.6171 4.10815C14.6546 4.1163 13.1757 4.78829 13.1757 4.78829C13.1757 4.78829 7.58227 7.5007 11.0358 18.778C11.5275 20.3907 13.0306 21.6288 14.441 22.533C15.1664 22.9973 15.8998 23.2294 16.6292 23.2294C16.0449 23.2294 15.4646 22.9973 14.8803 22.533H14.8762Z" fill="#EDEDED"/>
</g>
<path d="M15.5572 16.8441L16.6896 16.8238C16.742 16.836 16.7903 16.8156 16.8427 16.8238C16.8951 16.8238 16.9475 16.8238 17.0039 16.8238C17.1168 16.8238 17.2376 16.8278 17.3585 16.8238C17.4794 16.836 17.5923 16.8238 17.6809 16.8319C17.7696 16.8319 17.83 16.8441 17.83 16.8441C17.83 16.8441 17.83 16.9011 17.8059 16.9907C17.7817 17.0803 17.7494 17.2066 17.6608 17.3288C17.5802 17.4591 17.4512 17.5813 17.286 17.679C17.1974 17.7198 17.1047 17.7686 17.0039 17.7931C16.9032 17.8134 16.7944 17.8379 16.6896 17.8338C16.5808 17.8338 16.476 17.8216 16.3753 17.789C16.2745 17.7686 16.1818 17.7198 16.0972 17.679C15.932 17.5813 15.799 17.455 15.7184 17.3288C15.6338 17.2025 15.5935 17.0763 15.5733 16.9867C15.5532 16.8971 15.5572 16.836 15.5572 16.836V16.8441Z" fill="#9C6138"/>
<path d="M12.9501 13.928C12.9621 14.3231 13.2886 14.6326 13.6754 14.6204C14.0663 14.6082 14.3726 14.2783 14.3605 13.8832C14.3484 13.4882 14.022 13.1787 13.6311 13.195C13.2442 13.2072 12.938 13.5371 12.9501 13.928Z" fill="#402716"/>
<path d="M13.4052 13.9316C13.4052 14.0741 13.5261 14.1841 13.6671 14.18C13.8082 14.1759 13.917 14.0578 13.9129 13.9153C13.9129 13.7727 13.7921 13.6628 13.651 13.6669C13.51 13.6709 13.3971 13.789 13.4052 13.9316Z" fill="#200F00"/>
<path d="M14.9166 13.8256C14.8602 13.8256 14.7998 13.8175 14.7434 13.7971L14.5741 13.7319C14.4693 13.679 14.3686 13.6138 14.2678 13.5527H14.2598C14.1631 13.4754 14.0422 13.4102 13.9253 13.3735C13.8084 13.3369 13.6916 13.3247 13.5787 13.3491C13.4659 13.3695 13.3571 13.4224 13.2523 13.4957C13.1476 13.569 13.0549 13.6627 12.9622 13.7645V13.7564C12.9179 13.8215 12.8695 13.8623 12.8131 13.903C12.7567 13.9437 12.6962 13.9722 12.6277 13.9885C12.4987 14.0211 12.3617 14.0048 12.2529 13.9478C12.3738 13.9478 12.4907 13.9315 12.5793 13.8704C12.6237 13.8419 12.664 13.8093 12.7002 13.7686C12.7325 13.7319 12.7647 13.6831 12.7849 13.6464L12.7889 13.6383L12.9179 13.4468C12.9743 13.3898 13.0226 13.3287 13.0831 13.2758C13.1999 13.1658 13.3571 13.0925 13.5223 13.0559C13.6916 13.0233 13.8689 13.0477 14.018 13.1129C14.1711 13.1781 14.296 13.2677 14.4089 13.3939H14.4008C14.4814 13.4631 14.558 13.5446 14.6386 13.626L14.7635 13.736C14.7837 13.7564 14.8078 13.7686 14.832 13.7849C14.8562 13.8012 14.8804 13.8215 14.9086 13.8297L14.9166 13.8256Z" fill="#241201"/>
<path d="M12.9419 13.7237C12.9419 13.7237 12.7364 13.7848 12.5188 13.7808C12.414 13.7808 12.2972 13.7441 12.2448 13.683C12.1924 13.6178 12.1964 13.5608 12.1924 13.5649C12.1924 13.5649 12.2045 13.6219 12.2609 13.6667C12.3173 13.7115 12.4181 13.7237 12.5148 13.7074C12.7082 13.6749 12.8895 13.5853 12.8895 13.5853L12.9419 13.7278V13.7237Z" fill="#241201"/>
<path d="M13.0427 13.6056C13.0427 13.6056 12.8292 13.6341 12.6196 13.5893C12.5148 13.569 12.4101 13.5201 12.3657 13.4468C12.3254 13.3735 12.3416 13.3164 12.3335 13.3205C12.3335 13.3205 12.3335 13.3775 12.3819 13.4346C12.4302 13.4916 12.5269 13.516 12.6277 13.5201C12.8251 13.5201 13.0145 13.4631 13.0145 13.4631L13.0427 13.6097V13.6056Z" fill="#241201"/>
<path d="M13.1353 13.7481C13.1353 13.8459 13.2199 13.9232 13.3166 13.9192C13.4133 13.9192 13.4899 13.8336 13.4899 13.7359C13.4899 13.6382 13.4053 13.5608 13.3085 13.5649C13.2118 13.5649 13.1353 13.6504 13.1393 13.7481H13.1353Z" fill="white"/>
<path d="M13.4094 13.9235C13.4094 13.9724 13.4497 14.0091 13.5021 14.0091C13.5505 14.0091 13.5867 13.9643 13.5867 13.9154C13.5867 13.8665 13.5424 13.8258 13.4941 13.8299C13.4457 13.8339 13.4094 13.8706 13.4094 13.9235Z" fill="white"/>
<path d="M11.8701 12.4817C11.8701 12.4817 12.6721 11.3006 14.7917 11.94C14.7917 11.94 15.3519 12.1111 15.5896 12.2984C15.5896 12.2984 15.8798 12.2618 15.7911 11.5043C15.7911 11.5043 12.2409 10.0829 11.8741 12.4817H11.8701Z" fill="#432918"/>
<path d="M20.4336 13.9268C20.4215 14.3219 20.0951 14.6314 19.7042 14.6192C19.3133 14.607 19.0071 14.2771 19.0191 13.882C19.0312 13.487 19.3576 13.1774 19.7445 13.1937C20.1354 13.2059 20.4417 13.5358 20.4296 13.9268H20.4336Z" fill="#402716"/>
<path d="M19.9783 13.9311C19.9783 14.0736 19.8574 14.1836 19.7164 14.1795C19.5753 14.1755 19.4665 14.0573 19.4706 13.9148C19.4746 13.7723 19.5915 13.6623 19.7325 13.6664C19.8735 13.6704 19.9824 13.7885 19.9783 13.9311Z" fill="#200F00"/>
<path d="M18.4672 13.8253C18.4954 13.8131 18.5196 13.7968 18.5437 13.7805C18.5679 13.7642 18.5881 13.752 18.6122 13.7316L18.7372 13.6216C18.8178 13.5402 18.8943 13.4587 18.9749 13.3854H18.9669C19.0797 13.2673 19.2087 13.1777 19.3578 13.1126C19.5069 13.0474 19.6842 13.027 19.8534 13.0555C20.0186 13.0922 20.1758 13.1696 20.2927 13.2755C20.3531 13.3284 20.4055 13.3895 20.4579 13.4465L20.5869 13.6379V13.6461H20.5909C20.607 13.6827 20.6392 13.7316 20.6755 13.7683C20.7118 13.8049 20.7521 13.8375 20.7964 13.8701C20.8851 13.9312 20.9979 13.9475 21.1228 13.9475C21.014 14.0045 20.881 14.0248 20.748 13.9882C20.6836 13.9719 20.6191 13.9434 20.5627 13.9027C20.5063 13.8619 20.4579 13.8212 20.4095 13.756V13.7642C20.3209 13.6624 20.2282 13.5687 20.1234 13.4954C20.0186 13.4221 19.9139 13.3691 19.797 13.3488C19.6842 13.3243 19.5673 13.3366 19.4504 13.3732C19.3336 13.4099 19.2127 13.475 19.116 13.5443H19.1079C19.0072 13.6135 18.9064 13.6787 18.8016 13.7316L18.6364 13.7968C18.58 13.8171 18.5155 13.8294 18.4631 13.8253H18.4672Z" fill="#241201"/>
<path d="M20.494 13.585C20.494 13.585 20.6714 13.6746 20.8688 13.7072C20.9655 13.7235 21.0663 13.7113 21.1227 13.6665C21.1791 13.6176 21.1872 13.5606 21.1912 13.5647C21.1872 13.5647 21.1912 13.6217 21.1388 13.6868C21.0824 13.752 20.9696 13.7846 20.8648 13.7846C20.6512 13.7887 20.4417 13.7276 20.4417 13.7276L20.494 13.585Z" fill="#241201"/>
<path d="M20.3692 13.459C20.3692 13.459 20.5586 13.5201 20.756 13.516C20.8527 13.516 20.9535 13.4875 21.0018 13.4346C21.0502 13.3776 21.0462 13.3206 21.0502 13.3206C21.0462 13.3206 21.0623 13.3735 21.018 13.4468C20.9736 13.5201 20.8689 13.569 20.7641 13.5894C20.5505 13.6301 20.3369 13.6056 20.3369 13.6056L20.3651 13.459H20.3692Z" fill="#241201"/>
<path d="M20.2482 13.7479C20.2482 13.8456 20.1636 13.923 20.0669 13.9189C19.9701 13.9189 19.8936 13.8334 19.8976 13.7357C19.8976 13.6379 19.9822 13.5605 20.079 13.5646C20.1757 13.5646 20.2522 13.6501 20.2482 13.7479Z" fill="white"/>
<path d="M19.9742 13.9228C19.9742 13.9717 19.9299 14.0083 19.8815 14.0083C19.8331 14.0083 19.7969 13.9635 19.7969 13.9147C19.7969 13.8658 19.8412 13.8251 19.8896 13.8291C19.9379 13.8291 19.9742 13.8699 19.9742 13.9228Z" fill="white"/>
<path d="M21.5135 12.4817C21.5135 12.4817 20.7116 11.3006 18.5919 11.94C18.5919 11.94 18.0318 12.1111 17.794 12.2984C17.794 12.2984 17.5039 12.2618 17.5925 11.5043C17.5925 11.5043 21.1428 10.0829 21.5095 12.4817H21.5135Z" fill="#432918"/>
<path opacity="0.2" d="M22.1782 15.3978C22.1259 14.8195 21.3118 14.4204 20.3568 14.5059C19.4017 14.5914 18.6683 15.129 18.7207 15.7074C18.769 16.2857 19.5871 16.6848 20.5421 16.5993C21.4972 16.5138 22.2306 15.9762 22.1782 15.3978Z" fill="#F29487"/>
<path opacity="0.2" d="M12.8936 14.5059C11.9385 14.4204 11.1204 14.8195 11.0681 15.3978C11.0157 15.9762 11.7531 16.5138 12.7042 16.5993C13.6592 16.6848 14.4773 16.2857 14.5256 15.7074C14.578 15.129 13.8446 14.5914 12.8895 14.5059H12.8936Z" fill="#F29487"/>
<path d="M23.8185 17.0151C23.8185 17.2432 23.6332 17.4305 23.4115 17.4305C23.1899 17.4305 23.0005 17.2472 23.0005 17.0151C23.0005 16.783 23.1818 16.6038 23.4115 16.6038C23.6412 16.6038 23.8185 16.787 23.8185 17.0151Z" fill="white"/>
<path d="M10.383 17.0151C10.383 17.2432 10.1976 17.4305 9.97598 17.4305C9.75434 17.4305 9.56494 17.2472 9.56494 17.0151C9.56494 16.783 9.74628 16.6038 9.97598 16.6038C10.2057 16.6038 10.383 16.787 10.383 17.0151Z" fill="white"/>
<path d="M14.5859 19.0188C15.0212 19.9474 15.7989 20.5705 16.6895 20.5705C17.5801 20.5705 18.3578 19.9474 18.7931 19.0188H14.5859Z" fill="white"/>
<path d="M14.5861 19.0193C14.5861 19.0193 14.6667 19.0722 14.7876 19.1781C14.848 19.2311 14.9246 19.2962 15.0052 19.3533C15.0898 19.4143 15.1704 19.4795 15.2752 19.5447C15.3759 19.6139 15.4767 19.6831 15.5935 19.7361C15.7023 19.8053 15.8272 19.8461 15.9441 19.899C16.069 19.9316 16.1859 19.9886 16.3108 20.0008C16.3753 20.009 16.4317 20.0334 16.4962 20.0293H16.5889L16.6372 20.0375H16.6614H16.6735H16.6775C16.6775 20.0375 16.7219 20.0375 16.6332 20.0375C16.8025 20.0252 16.9999 20.0171 17.0684 19.9886C17.1611 19.9845 17.2981 19.9234 17.419 19.8909C17.5359 19.8338 17.6608 19.7972 17.7696 19.7279C17.8865 19.6709 17.9913 19.6017 18.088 19.5365C18.1928 19.4754 18.2774 19.4021 18.366 19.341C18.4507 19.2799 18.5232 19.2229 18.5836 19.17C18.7045 19.0682 18.7851 19.0112 18.7851 19.0112C18.7851 19.0112 18.7851 19.1048 18.761 19.2718C18.7489 19.3573 18.7368 19.4591 18.6925 19.565C18.6562 19.675 18.6199 19.8094 18.5433 19.9316C18.4748 20.0619 18.3902 20.2004 18.2734 20.3307C18.1686 20.4692 18.0195 20.5873 17.8663 20.7054C17.7857 20.7624 17.6931 20.8072 17.6044 20.8561C17.5198 20.909 17.411 20.9497 17.2981 20.9783C17.0443 21.0638 16.8952 21.0597 16.7219 21.0801H16.6735H16.6695H16.6574H16.6372L16.5969 21.076L16.5163 21.0679L16.3552 21.0516C16.2464 21.0516 16.1456 21.0027 16.0449 20.9742C15.8393 20.9212 15.662 20.8072 15.4928 20.7054C15.3396 20.5832 15.1905 20.4692 15.0858 20.3307C14.9689 20.2004 14.8843 20.0619 14.8158 19.9316C14.7392 19.8094 14.6989 19.6669 14.6626 19.5569C14.6183 19.4469 14.6062 19.3492 14.5982 19.2677C14.578 19.1048 14.574 19.0071 14.574 19.0071L14.5861 19.0193Z" fill="#D66658"/>
<path d="M18.7972 19.0195C18.7972 19.0195 18.5353 19.1335 18.1404 19.2149C17.7454 19.3005 17.2175 19.3616 16.6937 19.3616C16.1657 19.3616 15.6419 19.3045 15.2469 19.219C14.852 19.1376 14.5901 19.0235 14.5901 19.0235C14.5901 19.0235 14.852 18.9095 15.2469 18.828C15.6419 18.7425 16.1698 18.6814 16.6937 18.6855C17.2216 18.6855 17.7454 18.7466 18.1404 18.8321C18.5353 18.9136 18.7972 19.0276 18.7972 19.0276V19.0195Z" fill="#D66658"/>
<path d="M10.1856 15.3454C10.1856 15.3454 10.1856 13.5045 9.17409 13.643C8.26335 6.0067 11.733 5.127 11.733 5.127C11.5517 3.76266 13.3973 2.58158 13.3973 2.58158C18.1928 0.280513 21.3039 2.62231 21.3039 2.62231C26.4661 6.10038 24.3504 13.6389 24.3504 13.6389C22.9601 13.3945 22.8594 15.3413 22.8594 15.3413C22.7264 9.20783 20.8364 7.97788 20.8364 7.97788C16.4076 5.49762 12.2126 7.97788 12.2126 7.97788C12.2126 7.97788 11.056 9.27299 11.2817 11.1831C11.2817 11.1831 10.2904 11.7288 10.1896 15.3413L10.1856 15.3454Z" fill="#432918"/>
<path d="M12.7969 8.01487L12.3093 6.14551L13.2644 7.81938L12.7969 8.01487Z" fill="#BD7544"/>
<path d="M18.9424 15.0972C18.8376 15.0972 18.8376 15.2601 18.9424 15.2601C19.0471 15.2601 19.0471 15.0972 18.9424 15.0972Z" fill="#C2512E"/>
<path d="M19.5872 14.8569C19.4784 14.8569 19.4784 15.028 19.5872 15.028C19.696 15.028 19.696 14.8569 19.5872 14.8569Z" fill="#C2512E"/>
<path d="M20.9452 14.6331C20.8526 14.6331 20.8526 14.7837 20.9452 14.7837C21.0379 14.7837 21.042 14.6331 20.9452 14.6331Z" fill="#C2512E"/>
<path d="M20.0023 15.4023C20.0023 15.4023 19.9902 15.4023 19.9861 15.4023C19.8773 15.3738 19.8773 15.5652 19.9861 15.5367C19.9902 15.5367 19.9982 15.5367 20.0023 15.5367C20.0627 15.5204 20.0627 15.4268 20.0023 15.4105V15.4023Z" fill="#C2512E"/>
<path d="M20.2762 14.8734H20.2682C20.2682 14.8734 20.2561 14.8734 20.248 14.8734C20.1634 14.8774 20.1634 15.0037 20.248 15.0118C20.2561 15.0118 20.2601 15.0118 20.2682 15.0118C20.2682 15.0118 20.2762 15.0118 20.2803 15.0118C20.3286 15.0118 20.3488 14.9792 20.3448 14.9426C20.3448 14.9059 20.3246 14.8693 20.2803 14.8734H20.2762Z" fill="#C2512E"/>
<path d="M19.3413 15.7695C19.2446 15.7695 19.2446 15.9243 19.3413 15.9243C19.4381 15.9243 19.4381 15.7695 19.3413 15.7695Z" fill="#C2512E"/>
<path d="M20.3568 16.3923C20.3125 16.3516 20.2923 16.3109 20.2278 16.3394C20.1996 16.3516 20.1795 16.4005 20.1916 16.429C20.2037 16.4615 20.2198 16.4819 20.2399 16.5104C20.3084 16.5919 20.4374 16.4656 20.3568 16.3923Z" fill="#C2512E"/>
<path d="M21.2272 15.468C21.1264 15.468 21.1264 15.6228 21.2272 15.6228C21.3279 15.6228 21.3279 15.468 21.2272 15.468Z" fill="#C2512E"/>
<path d="M18.5797 15.5618C18.5112 15.5618 18.5112 15.6717 18.5797 15.6717C18.6482 15.6717 18.6482 15.5618 18.5797 15.5618Z" fill="#C2512E"/>
<path d="M19.0511 16.4703C19.0349 16.5639 19.18 16.5639 19.1639 16.4703C19.1518 16.397 19.0672 16.397 19.0511 16.4703Z" fill="#C2512E"/>
<path d="M19.7363 16.0181C19.6517 16.0181 19.6517 16.1484 19.7363 16.1484C19.8209 16.1484 19.8209 16.0181 19.7363 16.0181Z" fill="#C2512E"/>
<path d="M21.1628 16.2783C21.0701 16.2783 21.0701 16.4249 21.1628 16.4249C21.2555 16.4249 21.2555 16.2783 21.1628 16.2783Z" fill="#C2512E"/>
<path d="M20.6469 15.6555C20.6469 15.6555 20.6146 15.6677 20.5985 15.684C20.5824 15.7044 20.5824 15.7247 20.5985 15.7451C20.6146 15.7614 20.6267 15.7655 20.6469 15.7736C20.7436 15.8021 20.7436 15.627 20.6469 15.6555Z" fill="#C2512E"/>
<path d="M18.4466 14.8081C18.4466 14.8081 18.4305 14.7877 18.4184 14.7755C18.3983 14.7552 18.366 14.7552 18.3459 14.7755C18.3338 14.7877 18.3257 14.7959 18.3177 14.8081C18.2169 14.9466 18.5474 14.9466 18.4466 14.8081Z" fill="#C2512E"/>
<path d="M21.6221 14.1648C21.5657 14.1648 21.5657 14.2544 21.6221 14.2544C21.6786 14.2544 21.6786 14.1648 21.6221 14.1648Z" fill="#C2512E"/>
<path d="M21.6585 14.8C21.5618 14.8 21.5618 14.9548 21.6585 14.9548C21.7552 14.9548 21.7552 14.8 21.6585 14.8Z" fill="#C2512E"/>
<path d="M14.6062 15.0972C14.7109 15.0972 14.7109 15.2601 14.6062 15.2601C14.5014 15.2601 14.5014 15.0972 14.6062 15.0972Z" fill="#C2512E"/>
<path d="M13.9573 14.8569C14.0661 14.8569 14.0661 15.028 13.9573 15.028C13.8485 15.028 13.8485 14.8569 13.9573 14.8569Z" fill="#C2512E"/>
<path d="M12.6033 14.6331C12.7 14.6331 12.7 14.7837 12.6033 14.7837C12.5066 14.7837 12.5066 14.6331 12.6033 14.6331Z" fill="#C2512E"/>
<path d="M13.5463 15.4023C13.5463 15.4023 13.5584 15.4023 13.5624 15.4023C13.6712 15.3738 13.6712 15.5652 13.5624 15.5367C13.5624 15.5367 13.5544 15.5367 13.5463 15.5367C13.4859 15.5204 13.4859 15.4268 13.5463 15.4105V15.4023Z" fill="#C2512E"/>
<path d="M13.2723 14.8734C13.2723 14.8734 13.2763 14.8734 13.2804 14.8734C13.2804 14.8734 13.2925 14.8734 13.3005 14.8734C13.3892 14.8774 13.3892 15.0037 13.3005 15.0118C13.2925 15.0118 13.2884 15.0118 13.2804 15.0118C13.2804 15.0118 13.2723 15.0118 13.2683 15.0118C13.224 15.0118 13.1998 14.9792 13.2038 14.9426C13.2038 14.9059 13.224 14.8693 13.2683 14.8734H13.2723Z" fill="#C2512E"/>
<path d="M14.2074 15.7695C14.3081 15.7695 14.3081 15.9243 14.2074 15.9243C14.1066 15.9243 14.1066 15.7695 14.2074 15.7695Z" fill="#C2512E"/>
<path d="M13.1878 16.3923C13.2321 16.3516 13.2522 16.3109 13.3167 16.3394C13.3449 16.3516 13.3651 16.4005 13.353 16.429C13.3409 16.4615 13.3248 16.4819 13.3046 16.5104C13.2361 16.5919 13.1072 16.4656 13.1878 16.3923Z" fill="#C2512E"/>
<path d="M12.3212 15.468C12.4219 15.468 12.4219 15.6228 12.3212 15.6228C12.2204 15.6228 12.2204 15.468 12.3212 15.468Z" fill="#C2512E"/>
<path d="M14.9689 15.5618C15.0374 15.5618 15.0374 15.6717 14.9689 15.6717C14.9004 15.6717 14.9004 15.5618 14.9689 15.5618Z" fill="#C2512E"/>
<path d="M14.4932 16.4703C14.5094 16.5639 14.3643 16.5639 14.3804 16.4703C14.3925 16.397 14.4771 16.397 14.4932 16.4703Z" fill="#C2512E"/>
<path d="M13.8083 16.0181C13.893 16.0181 13.893 16.1484 13.8083 16.1484C13.7237 16.1484 13.7237 16.0181 13.8083 16.0181Z" fill="#C2512E"/>
<path d="M12.3857 16.2783C12.4784 16.2783 12.4784 16.4249 12.3857 16.4249C12.293 16.4249 12.293 16.2783 12.3857 16.2783Z" fill="#C2512E"/>
<path d="M12.9016 15.6555C12.9016 15.6555 12.9339 15.6677 12.95 15.684C12.9661 15.7044 12.9661 15.7247 12.95 15.7451C12.9379 15.7614 12.9218 15.7655 12.9016 15.7736C12.8049 15.8021 12.8049 15.627 12.9016 15.6555Z" fill="#C2512E"/>
<path d="M15.1019 14.8081C15.1019 14.8081 15.118 14.7877 15.1301 14.7755C15.1502 14.7552 15.1825 14.7552 15.2026 14.7755C15.2147 14.7877 15.2228 14.7959 15.2308 14.8081C15.3316 14.9466 15.0011 14.9466 15.1019 14.8081Z" fill="#C2512E"/>
<path d="M11.9222 14.1648C11.9786 14.1648 11.9786 14.2544 11.9222 14.2544C11.8658 14.2544 11.8658 14.1648 11.9222 14.1648Z" fill="#C2512E"/>
<path d="M11.8902 14.8C11.9869 14.8 11.9869 14.9548 11.8902 14.9548C11.7934 14.9548 11.7934 14.8 11.8902 14.8Z" fill="#C2512E"/>
<path d="M22.1542 12.5062C22.1542 12.5062 21.7875 11.8546 18.8779 12.1234C18.8779 12.1234 17.4433 12.2618 16.9356 12.8198C16.9356 12.8198 16.8348 12.946 16.5366 13.0112C16.2344 12.946 16.1377 12.8198 16.1377 12.8198C15.6259 12.2618 14.1953 12.1234 14.1953 12.1234C11.2858 11.8546 10.9191 12.5062 10.9191 12.5062L10.3911 12.6162L10.3025 13.6873L10.8304 13.4836L11.0077 14.6688C11.2858 16.2694 13.0428 16.1716 13.0428 16.1716C15.6823 16.2897 15.9644 14.0416 15.9644 14.0416C16.0289 13.9235 16.1135 13.8543 16.2021 13.8054C16.2707 13.7809 16.3795 13.7443 16.5084 13.7361C16.5205 13.7361 16.5286 13.7361 16.5407 13.7361C16.5527 13.7361 16.5608 13.7361 16.5729 13.7361C16.7018 13.7484 16.8107 13.7809 16.8792 13.8054C16.9678 13.8502 17.0524 13.9235 17.1169 14.0416C17.1169 14.0416 17.399 16.2897 20.0385 16.1716C20.0385 16.1716 21.7996 16.2694 22.0736 14.6688L22.2549 13.4836L22.8352 13.6628L22.7466 12.6365L22.1623 12.5062H22.1542ZM15.5211 14.6158C15.5211 14.6158 14.8199 16.3101 12.2852 15.7603C12.2852 15.7603 11.447 15.6625 11.2253 14.3633C11.2253 14.3633 10.645 12.5917 12.4343 12.4166C12.4343 12.4166 15.2229 12.3881 15.5977 12.9338C15.5977 12.9338 16.0168 13.2433 15.5251 14.6118L15.5211 14.6158ZM21.8399 14.3633C21.6223 15.6625 20.78 15.7603 20.78 15.7603C18.2412 16.306 17.54 14.6158 17.54 14.6158C17.0484 13.2474 17.4635 12.9379 17.4635 12.9379C17.8383 12.3881 20.6269 12.4207 20.6269 12.4207C22.4161 12.5917 21.8358 14.3674 21.8358 14.3674L21.8399 14.3633Z" fill="white"/>
<path opacity="0.2" d="M15.5211 14.6155C15.5211 14.6155 14.8199 16.3098 12.2852 15.7599C12.2852 15.7599 11.447 15.6622 11.2253 14.363C11.2253 14.363 10.645 12.5914 12.4343 12.4163C12.4343 12.4163 15.2229 12.3878 15.5977 12.9335C15.5977 12.9335 16.0168 13.243 15.5251 14.6114L15.5211 14.6155Z" fill="#2A2A29"/>
<path opacity="0.2" d="M21.8441 14.3632C21.6265 15.6624 20.7842 15.7601 20.7842 15.7601C18.2454 16.3059 17.5442 14.6157 17.5442 14.6157C17.0526 13.2473 17.4677 12.9378 17.4677 12.9378C17.8425 12.388 20.6311 12.4205 20.6311 12.4205C22.4203 12.5916 21.84 14.3673 21.84 14.3673L21.8441 14.3632Z" fill="#2A2A29"/>
<path d="M14.2355 34.9999V25.7957L10.1856 27.5143C11.2615 28.7117 11.1326 30.8824 9.79468 31.8395L10.5402 35.004H14.2355V34.9999Z" fill="#0F2025"/>
<path d="M22.7304 34.9997L23.484 31.8027C22.2025 30.8293 22.0857 28.7156 23.1254 27.5304L19.1802 25.8362V34.9997H22.7264H22.7304Z" fill="#0F2025"/>
<path d="M16.6092 26.0232L14.9046 24.7036L12.8896 26.1168L14.8884 28.6948L16.6092 26.0232Z" fill="#B03132"/>
<path d="M16.6052 26.0232L18.3139 24.7036L20.3288 26.1168L18.326 28.6948L16.6052 26.0232Z" fill="#B03132"/>
<path d="M21.6544 7.9661C21.6544 7.9661 23.0004 24.8474 20.3528 28.5942C20.3528 28.5942 24.3262 27.7023 24.6768 26.3624L25.2289 9.03722C25.2289 9.03722 24.834 2.749 19.6677 1.87744C19.6677 1.87744 19.2043 6.09267 21.6544 7.9661Z" fill="#432918"/>
</g>
</g>
</svg>
